<svg viewBox="0 0 760 560" xmlns="http://www.w3.org/2000/svg" font-family="Inter, system-ui, -apple-system, &#39;Segoe UI&#39;, sans-serif">
  <defs>
    <filter id="cardShadow3" x="-20%" y="-20%" width="140%" height="140%">
      <feDropShadow dx="0" dy="8" stdDeviation="20" flood-color="#1A1310" flood-opacity="0.08"></feDropShadow>
    </filter>
  </defs>

  <rect x="16" y="14" width="728" height="532" rx="18" fill="#FFFFFF" stroke="#ECE8E1" stroke-width="1.5" filter="url(#cardShadow3)"></rect>

  
  <rect x="48" y="44" width="14" height="14" rx="3" fill="#EE5622"></rect>
  <text x="74" y="55" font-size="14" font-weight="600" fill="#1A1310">Stock options</text>
  <rect x="508" y="40" width="204" height="34" rx="17" fill="#F6F4F0"></rect>
  <text x="532" y="62" font-size="13" font-weight="600" fill="#1A1310">THETA $60.00</text>
  <text x="688" y="62" font-size="13" font-weight="600" fill="#2E7D55" text-anchor="end">▲1.2%</text>

  
  <line x1="150" y1="112" x2="610" y2="112" stroke="#1A1310" stroke-width="2"></line>
  <circle cx="150" cy="112" r="13" fill="#1A1310"></circle>
  <path d="M144 112 l4 4 l8 -8" fill="none" stroke="#FFFFFF" stroke-width="2" stroke-linecap="round" stroke-linejoin="round"></path>
  <text x="150" y="142" font-size="12" font-weight="500" fill="#6B675F" text-anchor="middle">Choose type</text>
  <circle cx="380" cy="112" r="13" fill="#1A1310"></circle>
  <path d="M374 112 l4 4 l8 -8" fill="none" stroke="#FFFFFF" stroke-width="2" stroke-linecap="round" stroke-linejoin="round"></path>
  <text x="380" y="142" font-size="12" font-weight="500" fill="#6B675F" text-anchor="middle">Enter details</text>
  <circle cx="610" cy="112" r="13" fill="#EE5622"></circle>
  <text x="610" y="117" font-size="12" font-weight="700" fill="#FFFFFF" text-anchor="middle">3</text>
  <text x="610" y="142" font-size="12" font-weight="600" fill="#1A1310" text-anchor="middle">Review</text>

  <line x1="48" y1="168" x2="712" y2="168" stroke="#F0EDE7" stroke-width="1.5"></line>

  <text x="48" y="206" font-size="20" font-weight="600" fill="#1A1310">Review and submit</text>

  
  <text x="48" y="244" font-size="14" fill="#6B675F">Estimated sale value</text>
  <text x="360" y="244" font-size="14" font-weight="600" fill="#1A1310" text-anchor="end">$2,400</text>
  <text x="48" y="276" font-size="14" fill="#6B675F">Option cost</text>
  <text x="360" y="276" font-size="14" font-weight="600" fill="#1A1310" text-anchor="end">−$1,000</text>
  <line x1="48" y1="294" x2="360" y2="294" stroke="#F0EDE7" stroke-width="1.5"></line>
  <text x="48" y="320" font-size="14" fill="#6B675F">Taxable income</text>
  <text x="360" y="320" font-size="14" font-weight="600" fill="#1A1310" text-anchor="end">$1,400</text>
  <text x="48" y="352" font-size="14" fill="#6B675F">Federal tax (22%)</text>
  <text x="360" y="352" font-size="14" font-weight="600" fill="#1A1310" text-anchor="end">−$308</text>
  <text x="48" y="384" font-size="14" fill="#6B675F">State tax (8%)</text>
  <text x="360" y="384" font-size="14" font-weight="600" fill="#1A1310" text-anchor="end">−$112</text>
  <text x="48" y="416" font-size="14" fill="#6B675F">Commission and fees</text>
  <text x="360" y="416" font-size="14" font-weight="600" fill="#1A1310" text-anchor="end">−$15</text>

  
  <rect x="404" y="222" width="308" height="120" rx="14" fill="#FEF3EE" stroke="#F6C9B6" stroke-width="1.5"></rect>
  <text x="428" y="256" font-size="14" font-weight="600" fill="#1A1310">You&#39;ll receive</text>
  <text x="428" y="306" font-size="40" font-weight="700" fill="#EE5622">$965</text>
  <text x="428" y="330" font-size="12" fill="#6B675F">Estimated, after costs, taxes and fees.</text>

  
  <text x="404" y="374" font-size="13" font-weight="600" fill="#1A1310">Send to</text>
  <rect x="404" y="386" width="308" height="48" rx="10" fill="#FFFFFF" stroke="#EE5622" stroke-width="1.5"></rect>
  <circle cx="428" cy="410" r="7" fill="none" stroke="#EE5622" stroke-width="2"></circle>
  <circle cx="428" cy="410" r="3" fill="#EE5622"></circle>
  <text x="448" y="415" font-size="14" font-weight="500" fill="#1A1310">Your cash account</text>
  <text x="690" y="415" font-size="12" fill="#A8A39A" text-anchor="end">2 days</text>

  
  <line x1="48" y1="482" x2="712" y2="482" stroke="#F0EDE7" stroke-width="1.5"></line>
  <text x="48" y="536" font-size="14" font-weight="600" fill="#6B675F">← Back</text>
  <rect x="580" y="492" width="132" height="42" rx="21" fill="#EE5622"></rect>
  <text x="646" y="518" font-size="14" font-weight="600" fill="#FFFFFF" text-anchor="middle">Place order</text>
</svg>