<svg viewBox="0 0 760 560" xmlns="http://www.w3.org/2000/svg" font-family="Inter, system-ui, -apple-system, &#39;Segoe UI&#39;, sans-serif">
  <defs>
    <filter id="cardShadow" x="-20%" y="-20%" width="140%" height="140%">
      <feDropShadow dx="0" dy="8" stdDeviation="20" flood-color="#1A1310" flood-opacity="0.08"></feDropShadow>
    </filter>
  </defs>

  
  <rect x="16" y="14" width="728" height="532" rx="18" fill="#FFFFFF" stroke="#ECE8E1" stroke-width="1.5" filter="url(#cardShadow)"></rect>

  
  <rect x="48" y="44" width="14" height="14" rx="3" fill="#EE5622"></rect>
  <text x="74" y="55" font-size="14" font-weight="600" fill="#1A1310">Stock options</text>
  
  <rect x="508" y="40" width="204" height="34" rx="17" fill="#F6F4F0"></rect>
  <text x="532" y="62" font-size="13" font-weight="600" fill="#1A1310">THETA $60.00</text>
  <text x="688" y="62" font-size="13" font-weight="600" fill="#2E7D55" text-anchor="end">▲1.2%</text>

  
  <line x1="150" y1="112" x2="610" y2="112" stroke="#E2DDD5" stroke-width="2"></line>
  
  <circle cx="150" cy="112" r="13" fill="#EE5622"></circle>
  <text x="150" y="117" font-size="12" font-weight="700" fill="#FFFFFF" text-anchor="middle">1</text>
  <text x="150" y="142" font-size="12" font-weight="600" fill="#1A1310" text-anchor="middle">Choose type</text>
  
  <circle cx="380" cy="112" r="13" fill="#F0EDE7" stroke="#D8D3CA" stroke-width="1.5"></circle>
  <text x="380" y="117" font-size="12" font-weight="700" fill="#A8A39A" text-anchor="middle">2</text>
  <text x="380" y="142" font-size="12" font-weight="500" fill="#A8A39A" text-anchor="middle">Enter details</text>
  
  <circle cx="610" cy="112" r="13" fill="#F0EDE7" stroke="#D8D3CA" stroke-width="1.5"></circle>
  <text x="610" y="117" font-size="12" font-weight="700" fill="#A8A39A" text-anchor="middle">3</text>
  <text x="610" y="142" font-size="12" font-weight="500" fill="#A8A39A" text-anchor="middle">Review</text>

  <line x1="48" y1="168" x2="712" y2="168" stroke="#F0EDE7" stroke-width="1.5"></line>

  
  <text x="48" y="208" font-size="11" font-weight="700" letter-spacing="1.5" fill="#EE5622">EXERCISE · THETA-22 (NSO) · 50 OPTIONS</text>
  <text x="48" y="242" font-size="26" font-weight="600" fill="#1A1310">What would you like to receive?</text>
  <text x="48" y="270" font-size="15" fill="#6B675F">Choose the outcome you want — we&#39;ll handle the rest.</text>

  
  <rect x="48" y="296" width="320" height="176" rx="14" fill="#FEF3EE" stroke="#EE5622" stroke-width="2"></rect>
  <rect x="76" y="324" width="44" height="30" rx="6" fill="#FFFFFF" stroke="#EE5622" stroke-width="1.5"></rect>
  <circle cx="98" cy="339" r="7" fill="none" stroke="#EE5622" stroke-width="1.5"></circle>
  <rect x="232" y="320" width="108" height="24" rx="12" fill="#EE5622"></rect>
  <text x="286" y="336" font-size="11" font-weight="600" fill="#FFFFFF" text-anchor="middle">Most common</text>
  <text x="76" y="392" font-size="19" font-weight="600" fill="#1A1310">Cash</text>
  <text x="76" y="420" font-size="14" fill="#6B675F">Sell your options and take the</text>
  <text x="76" y="440" font-size="14" fill="#6B675F">proceeds, after costs and taxes.</text>

  
  <rect x="392" y="296" width="320" height="176" rx="14" fill="#FFFFFF" stroke="#E2DDD5" stroke-width="1.5"></rect>
  <rect x="420" y="326" width="26" height="26" rx="5" fill="#FFFFFF" stroke="#1A1310" stroke-width="1.5"></rect>
  <rect x="430" y="334" width="26" height="26" rx="5" fill="#F6F4F0" stroke="#1A1310" stroke-width="1.5"></rect>
  <text x="420" y="392" font-size="19" font-weight="600" fill="#1A1310">Shares</text>
  <text x="420" y="420" font-size="14" fill="#6B675F">Keep the stock. Pay the exercise</text>
  <text x="420" y="440" font-size="14" fill="#6B675F">cost from your cash account.</text>

  
  <line x1="48" y1="482" x2="712" y2="482" stroke="#F0EDE7" stroke-width="1.5"></line>
  <rect x="592" y="492" width="120" height="42" rx="21" fill="#EE5622"></rect>
  <text x="652" y="518" font-size="14" font-weight="600" fill="#FFFFFF" text-anchor="middle">Continue</text>
</svg>