<svg fill="currentColor" xmlns="http://www.w3.org/2000/svg" viewBox="0 0 1000 1000"><g class="cls-1"><g id="Shapes"><g id="Shape_65" data-name="Shape 65" class="cls-2"><path class="cls-3" d="M467,201.85c12.62-.9,25.3-2.74,38-1.34,8.45.66,17,0,25.42,1,1.37,1.54,2.54,4.74.48,6-3.53.17-7.07.2-10.6.08-2.33-.16-4.41-1.64-6.83-1.29-11.29-.16-22.58,0-33.86-.07-2.79,0-5.35,1.55-8.18,1.25-4.27-.28-8.59,1.28-12.78,0,0-.82.08-1.64.14-2.45.48-.69.94-1.4,1.36-2.12,2.26-.52,4.59-.7,6.88-1.15"></path><path class="cls-3" d="M446.94,204.7c1.82-.46,3.66.05,5.48.28,0,1.18.07,3.52.09,4.69a152.31,152.31,0,0,0-16.14,2.87l-.89,1.1c-2.05,0-3.94.1-6,.15l-.87,1.13c-9.51.38-17.73,5.7-26.82,7.84l-1,1c-5.4,1.62-10.86,3.25-15.85,5.94-2.58,1.66-5.91-.43-4.31-3.63.1-1.36,1.8-2,2.75-2.77a101.54,101.54,0,0,1,12.72-4.91c3.65-1,7-3.08,10.79-3.45l.95-1,4.44-.33a9.47,9.47,0,0,1,5.25-2.3,56.13,56.13,0,0,1,6.81-1.87c7.58-1.22,14.85-4.05,22.54-4.67"></path><path class="cls-3" d="M539.42,204.32c6.58-.94,12.7,2,19.16,2.36,3.64,1.48,7.66,1.62,11.44,2.66,5.44-.39,10,2.92,15.24,3.84l.86,1.09a17,17,0,0,1,10,2.23c3.25,1.92,7.83,1.3,10.08,4.84,1.55,1.42,2.16,4-.05,5.18a20.31,20.31,0,0,1-9-2.28c-4.84-1.38-9.48-3.5-14.39-4.63l-1-.92c-4.83-.15-9.18-2.51-13.92-3.12-2-.43-4.07-1-6.13-1.33-.23-.25-.7-.75-.93-1-3.22.35-6.15-.87-9.16-1.7-4.58-.89-9.84-.27-13.79-3.21,0-.88.07-1.74.12-2.61l1.42-1.39"></path><path class="cls-3" d="M611.14,229.15c-1.71-3.38,2.64-5.32,5.08-4.26A48.76,48.76,0,0,1,633,233.14c2.08.69,4.15,1.39,6.29,1.87.54.78,1.13,1.54,1.73,2.28a27.33,27.33,0,0,1,3,1.07c3.07,2.94,7.24,4.46,10.66,7l2.24.46a20.14,20.14,0,0,0,2.42,3,3.91,3.91,0,0,1,2.94,1.89c.91.4,1.81.82,2.72,1.27,2.09,2.54,5.2,4,7.63,6.13l.16,3.8c-5.4.18-9.08-4.36-13.22-7.14-1.5-2.16-4.33-2.48-6.46-3.76-6.08-3.41-12.15-6.83-18.31-10.11-2.8-1.47-6-2.28-8.38-4.46-5.24-2.06-10.67-4-15.3-7.26"></path><path class="cls-3" d="M354.34,237.58c7.22-2.7,13.39-8.69,21.4-8.88,2.13,1.81.47,5.79-1.91,6.66-4.69,1.78-8.86,4.85-13.82,5.88-3.12,2.94-7.12,4.64-10.79,6.78-1.83,1.12-4.13,1.53-5.55,3.27-2.94,1.81-5.46,4.41-8.83,5.45-5,3.72-10.6,6.81-15,11.32-1.7,1.61-4.14,1.11-6.28,1.28-1.33-3.23,1.58-4.5,3.06-6.49,5.91-4.53,12.21-8.5,18.06-13.1,6.58-4,13-8.24,19.67-12.17"></path><path class="cls-3" d="M483.15,252.55c4.4-.43,7.45-4.91,12.12-4.25a18.61,18.61,0,0,1,10.54,1.62,41.81,41.81,0,0,1,10.82,10.2c1.68,5.54,4.31,11.51,2.32,17.33-1.07,6.23-5.81,10.74-10.35,14.73l-1.62.45c-4,2.67-9.22,2.37-13.8,2.45-2.7-.4-5.14-1.83-7.8-2.41-2.43-2.32-5.35-4.08-7.69-6.52-.05-.45-.16-1.37-.22-1.82-.59-.54-1.17-1.07-1.74-1.61-2-7.14-2.49-15.13.78-22,1.67-3.13,4.22-5.67,6.64-8.22"></path><path class="cls-3" d="M676.1,263.19c7-1.32,10.95,5.81,15.08,10.09l1.83.2c1.9,2.39,3.73,5,6.57,6.33,6.23,5.72,13,11,18.25,17.66,2,1.83,4.28,3.42,5.79,5.73,2.27,1.65,1.14,4.19.57,6.24-3.4-.1-4.52-3.58-7-5.26-.72-.86-1.46-1.7-2.22-2.51-.1-.42-.28-1.25-.37-1.66-2.55-2-5-4.1-7.39-6.18-3-2.47-4.81-6.2-8.49-7.81-.1-.39-.29-1.18-.39-1.57a14.23,14.23,0,0,1-4.24-3.26c-3.93-3.27-8.49-6-11.35-10.32-4.11.51-7.07-3.95-6.65-7.68"></path><path class="cls-3" d="M523.14,269.4c6.36-1,12.46,1.16,18.75,1.39.23.26.66.79.88,1,6.44-.17,12.26,2.9,18.49,3.91,4,.37,7.73,2.19,11.77,2.52.23.26.7.78.93,1.05,1.71.28,3.39.7,5.11,1,.61.5,1.24,1,1.88,1.48a30.17,30.17,0,0,0,2.24,2.56c0,.79,0,1.59.08,2.39-.52.48-1,1-1.53,1.48-5.93-.6-11.51-3.11-17.11-5-10.61-4.22-22.06-5.38-33.18-7.51a36.19,36.19,0,0,0-7-1.12l-.82-1.16-2-.1c0-.86.06-1.71.11-2.56l1.4-1.38"></path><path class="cls-3" d="M453.3,271.46A64,64,0,0,1,470.65,270c1,.83.79,2.18,1,3.33-5.21,3.69-12.12,2-18,3.89-6.48,1.37-12.62,4.28-19.34,4.42l-.91,1c-6.5,1.12-12.36,4.52-18.86,5.6-2,.59-2.05-2-2.16-3.31a18.88,18.88,0,0,1,10.83-5l1-.95a46.45,46.45,0,0,0,7.7-2.5,27.54,27.54,0,0,0,8.84-2c3.69-1.56,7.75-1.65,11.7-1.87l.86-1.14"></path><path class="cls-3" d="M306.39,270.76c2.91-1.52,5.54.72,4.54,3.83-6.4,5.37-13.17,10.46-18.6,16.85-2.38,1.89-5.09,3.47-6.95,5.93-2.73,2.72-4.74,6.06-7.4,8.85-4.34,3.32-6.38,8.59-9.93,12.6-3.34,1.2-5.78-2.27-4.49-5.18,2-1.15,3.15-3.27,4.68-4.94,1.93-2.58,4.92-4.24,6.38-7.19,3.73-3.95,8.22-7.21,11.23-11.81,1.95-3.5,6.32-4.45,8.46-7.8a17.88,17.88,0,0,0,2.64-2.79c4.27-1.45,6.42-5.38,9.44-8.35"></path><path class="cls-3" d="M587.58,286.29c4.83.24,9,3,13.4,4.67,2.5.85,4.46,2.9,7.26,2.92a8.39,8.39,0,0,1,2.48,1.51,4.38,4.38,0,0,1,2.7,2.18c7.31,4.64,15.67,7.73,21.94,13.9a17.16,17.16,0,0,0,5.47,3.4c.36,1.55.66,3.11.92,4.7-1.78.22-3.61.84-5.35.41-3.27-2.35-6.33-5-9.35-7.65-7.25-3.69-13.61-9-21.14-12.12l-1.11-.84c-1-.35-1.94-.74-2.88-1.16-1.85-2.23-5-2.6-7.3-4.24l-1.69-.4c-.24-.25-.73-.74-1-1a38.05,38.05,0,0,1-6-2.22c0-.88.1-1.77.16-2.65l1.46-1.43"></path><path class="cls-3" d="M402.7,287.91l4.46-.3a10.72,10.72,0,0,1-.12,3.83,76.59,76.59,0,0,1-13.51,7c-6,3.33-12.11,6.73-17.82,10.62-.39.12-1.15.35-1.53.48-1.77,3.12-5.67,3.81-8.36,5.91-3.58,1.75-6.16,6.34-10.73,5.33-1.1-.7-.93-2.06-.76-3.16A109.68,109.68,0,0,1,366,308.84l1.49-.54c4.8-4.19,10.63-7,15.94-10.5a124.86,124.86,0,0,1,19.29-9.89"></path><path class="cls-3" d="M728.09,316.43c-2.92-.94-2.71-6.65.8-5.77,4.69,2.78,7.31,7.67,10.7,11.74a16,16,0,0,0,1.3,2.17l.68,1.33c5.07,5.35,8.28,12.11,12.22,18.29a42.46,42.46,0,0,1,3.43,5.36c1.33,2.55,3.65,4.63,4,7.62,1,1.51,1.71,3.17,2.72,4.66.09,1.11.28,3.33.38,4.44-2.68.93-4.09-.44-5.3-2.24-.09-.41-.26-1.25-.34-1.67-2.4-2.15-2.71-5.61-4.85-8-.45-.7-.9-1.4-1.41-2.05-.14-.37-.43-1.09-.57-1.46-1.6-2.08-2.76-4.43-4.23-6.57-.15-.37-.43-1.11-.57-1.49-4.54-3.6-5-10-9.54-13.52-2.77-4.55-6.51-8.39-9.39-12.87"></path><path class="cls-3" d="M655.92,313.43c2.86,0,5.77-.07,8.67,0,.22.29.66.86.87,1.16,2.83.74,6.31.82,8,3.56,4.57,3.74,9,8.52,9.76,14.65,2.36,10.53-4.61,20.64-13.38,25.78A36.35,36.35,0,0,1,656,360.8c-.24-.3-.7-.91-.93-1.21-5.58-.66-9.68-4.52-13.84-7.86-3.59-5.67-4.63-12.68-4.21-19.26,1-2.69,1.66-5.68,3.68-7.85,1.57-1.83,2.84-3.91,4.58-5.58,1.53-1.18,3.18-2.23,4.7-3.43,1.7-.35,3.38-.77,5.1-1l.88-1.14"></path><path class="cls-3" d="M324.9,318.59c3.73-4.32,10.1-3,15.13-3.25,3.11-.23,5.61,1.94,8.14,3.4,5.07,2.85,10.15,7.41,11,13.46l1.08.91c1.18,6.18,1.2,12.9-1.44,18.73a42.35,42.35,0,0,1-4.77,6.07,44.71,44.71,0,0,1-9.79,5.16l-1,1.06a56.6,56.6,0,0,1-10,.73l-.89-1.18c-3.32.3-5.5-2.47-8.55-3.06-.61-.76-1.2-1.53-1.73-2.34-.74-.28-1.45-.57-2.19-.82-4.88,9.34-10.95,18-16.82,26.74-3.75,7-8.2,13.62-10.71,21.2-1.45.54-2.82,1.57-4.44,1.47-1.93-1.65-.31-4.54,0-6.62.24-.26.72-.79,1-1.05a19.18,19.18,0,0,1,1.24-2.16c2.94-8.78,8.94-16,13.29-24,2.35-3.51,4-7.58,7-10.57,2.09-2.91,4.39-7.09,8.62-6.63l-2.94-4.36c-3.27-4.1-3.58-9.73-3.66-14.77,1.68-5.51,4.23-11.26,9.13-14.61.06-.46.16-1.36.22-1.82.45-.45.91-.89,1.37-1.33l1.7-.34"></path><path class="cls-3" d="M259.48,320.87c1.57.17,3.13.39,4.69.66.49,2.9-1.62,5-3,7.21-2.78,3.34-5.23,6.93-8,10.31-2.49,4-4,9-7.78,11.91-1.1,2.67-2,5.45-3.64,7.87-2.49,3.73-4,8-6.5,11.74a64.5,64.5,0,0,1-3.78,7.29c-4.81,1.56-4.76-3.66-3.54-6.43,7.15-13,13.9-26.36,22.23-38.7,2.25-4.51,6-8.05,9.28-11.86"></path><path class="cls-3" d="M484.49,326.71a2.42,2.42,0,0,1,.79,2.93c6.79,0,13.6-.24,20.38.34,3.61.26,7.25.31,10.88.64,7.26-.25,14.18,2,21.25,3.23.23.26.69.77.91,1,3.6.08,7.84.41,10.6,3a2.87,2.87,0,0,1-.1,4.55c-5.19.59-10.14-1.52-15-2.9-5.16-1.14-10.37-1.84-15.55-2.8-11.36-.89-22.78,0-34.15-.42a22,22,0,0,1-2.93-1.31c-.76-2.19.78-3.51,1.85-4.95a30.61,30.61,0,0,1,1.09-3.36"></path><path class="cls-3" d="M456,335.06c6.06-2.14,12.54-2.73,18.9-3.5.87,1.52,1.75,2.91,1.51,4.86-4,2-8.66,1.42-12.81,2.89-6.92,2.37-14.23,3.34-21.06,6-4.15.54-7.53,3.13-11.48,4.21l-1.06.87a71.71,71.71,0,0,0-7.3,2.93c-2.23.86-4,2.63-6.42,3.1a15.22,15.22,0,0,1-4,2.84c-2.78,1.56-5.61-.56-4.34-3.65,5.9-3.85,11.68-8.36,18.71-10l.92-1,6.38-1.72.72-.7A144.52,144.52,0,0,1,456,335.06"></path><path class="cls-3" d="M554.21,340.38c5.86-1.24,9.8,4.51,15.39,4.34.54.58,1.09,1.15,1.63,1.74l2.51.21,1,1c5.86,2.73,12.45,4.68,17.13,9.35,2.51,1.46,5.26,2.92,6.54,5.69l2.42.27c5.13,4.43,10.79,8.17,16,12.55a3.47,3.47,0,0,1-.47,4.86c-2.83,1.15-4.85-.9-6.73-2.47a39.52,39.52,0,0,1-6.24-5.95,44,44,0,0,1-9.62-6.64c-2.58-2.32-6.08-3.24-8.54-5.69l-2.3-.44c-3.83-3.29-8.83-4.62-13.13-7.16-2.69-1.54-5.76-2.26-8.46-3.79-2.6-1.89-6.22-2-8.35-4.6-.41-1.3.72-2.26,1.3-3.29"></path><path class="cls-3" d="M676.18,357.33c.07-1.88,2.84-4.6,4.59-2.52,4.35,3.92,7,9.28,10.78,13.65.12.39.36,1.18.47,1.56,1,1,1.94,2.1,2.88,3.19.6,3,2.83,5.23,4.79,7.45l.52,1.51a14.44,14.44,0,0,1,2.81,4.69c3.21,4.65,4.64,10.32,8.2,14.79.08,1.76.13,3.53.17,5.3-3.54,1-5.08-2.71-6.41-5.11-1.26-5-5.49-8.55-6.86-13.5a4.54,4.54,0,0,0-2-2.8c-4.18-7-8.83-13.66-13.67-20.19-2-2.76-4.55-5.09-6.29-8"></path><path class="cls-3" d="M402,359c2-1.52,3.26.19,4.33,1.32.47,2.15-1.53,3.7-3,4.87-3,2.92-6.73,5-9.81,7.79-3.95,3.54-8.53,6.32-12,10.34a92.12,92.12,0,0,1-7.51,7.41c-.08.43-.23,1.29-.3,1.73-1.31.94-2.59,1.93-3.84,2.94-.07.44-.2,1.31-.26,1.74a18.68,18.68,0,0,0-3,2.41c-.7,2.94-3.06,5.19-5.19,7.21-4.73,1.9-3.92-2.76-3-5.15,1-1,2-2.13,3-3.12.08-.41.27-1.24.36-1.66a31.46,31.46,0,0,1,2.62-2.8c2.18-1.76,2.8-4.78,5-6.53C379.69,377.38,389.93,367,402,359"></path><path class="cls-3" d="M764.29,371.14c.76-1,2.05-.76,3.15-.84a12.41,12.41,0,0,0,2.71,4.28c.13.38.38,1.16.5,1.54.79.77,1.5,1.62,2.24,2.45.29,3.27,2.32,5.94,3.34,9,2.68,5.54,4.88,11.31,7.4,16.91.26,3.37,1.9,6.38,2.66,9.63,2.1,2.8,1.7,6.56,3.14,9.67s1.11,6.82,1.3,10.28l-4-.07c-1.15-3.75-2-7.57-2.94-11.37l-1-.93c-.32-4.26-1.87-8.34-3.28-12.33-.21-.74-.4-1.46-.57-2.19-2-2.32-1.84-5.47-2.54-8.27L775.2,398c0-.46-.13-1.4-.17-1.86l-1-.93c-1.66-5.82-5.32-10.78-7.29-16.46-2.69-1.44-2.36-5-2.4-7.61"></path><path class="cls-3" d="M223,383.42c.92-1.84,3.76-1.14,5.23-1.69.52,6.63-3.65,12.31-5.33,18.47-1.28,5-4.3,9.38-5.26,14.47-.68,2-1,4.18-1.91,6.12-1.27,7.55-4.69,14.6-4.76,22.36a16.09,16.09,0,0,1-1.79,3.15c-2.21.17-5.2-1-3.38-4.21-.57-4.1,2.38-7.36,3-11.25.64-.88,1.81-1.62,1.57-2.86-.41-5.78,1.64-11.34,3.06-16.87l1-1c.48-2.41,1.3-4.76,1.69-7.19.57-4,2.85-7.5,3.45-11.49l.92-1a27.64,27.64,0,0,1,2.48-7.05"></path><path class="cls-3" d="M617.78,383.2c1.64-.69,3.75-2.43,5.33-.56,2.32,2.19,4.55,4.49,6.74,6.82a13.29,13.29,0,0,0,1.08,3c5.37,4.42,9.18,10.35,13.06,16a16.77,16.77,0,0,0,1.38,2.09c.12.39.34,1.17.45,1.56l1,1c1.32,4,3.81,7.44,6,11,1.71,1.73,2,4.27,3.19,6.31,1.63,3.22,3.36,6.57,3.38,10.27-1.46.87-3.11,1.82-4.9,1.51a26,26,0,0,1-1.69-4.58,13.56,13.56,0,0,1-2-4.75,17.15,17.15,0,0,1-2-4.13L647.26,427c-.49-1.47-.76-3.14-2-4.22-.22-.69-.43-1.37-.62-2.05a78.86,78.86,0,0,1-7.08-11.23c-2.43-4.47-6.93-7.24-9.14-11.83a14.46,14.46,0,0,0-4.13-4.73,37.48,37.48,0,0,0-6.23-6.77Z"></path><path class="cls-3" d="M479.58,383.78c9.85-1.84,19.89-1.28,29.86-1.27,4.86.2,9.42,2.21,14.24,2.68,2.48,0,4.73,1.09,7.09,1.67,6.37,1.2,12.21,4.11,18.32,6.19a129.51,129.51,0,0,1,28.12,18.59c5.13,3,8,8.31,11.76,12.64,4.24,3.1,6.68,7.81,9.6,12a7.71,7.71,0,0,0,2.09,3.43c.66,1.36,1.24,2.75,1.9,4.13a4.91,4.91,0,0,1,2,2.14c1,2.23,2.44,4.33,2.72,6.82.26.23.79.68,1,.92.06.46.15,1.38.21,1.85l1,.93c1.6,4.6,3.46,9.12,4.46,13.92.23.25.72.73,1,1a18.09,18.09,0,0,0,.83,5.31c2.78,11.27,3.13,22.94,2.71,34.49,0,4.39-1.85,8.52-2,12.92A169,169,0,0,1,611.68,543l-1.06.9c-.23,4.17-2.56,7.7-4.35,11.32-2.82,4.19-4.43,9.23-8.33,12.63-1.41,3.52-4.36,6-6.73,8.88-3.51,3.74-6.09,8.37-10.26,11.44-3.76,4.74-9.21,7.57-14.06,11a10.31,10.31,0,0,1-3.76,1.73,29.6,29.6,0,0,0-2.49,2.87c-3.24,1.52-6.32,3.41-9.72,4.55-7.35,4.25-15.7,6.14-23.69,8.78-7.38,1-14.76,1.86-22.12,3-6.94.06-14.18,1.35-20.9-.92-3.22-1-6.64-.74-10-.89l-.79-1.21-4.63-.14-.83-1.14c-1.91-.43-3.78.2-5.55-.62-4.65-1.77-9.25-3.68-13.71-5.88-4-1.12-7-4.18-10.95-5.42l-1-1-1.77-.27c-4.88-4.45-10.83-7.61-15.22-12.58l-1.67-.34a28.34,28.34,0,0,0-6-6.24c-2.09-2-3.42-4.68-5.37-6.81a12.09,12.09,0,0,0-3.43-4c-1.58-2-3.18-4-4.8-6-2.91-7-8.21-12.77-10.6-20-1.49-3.42-2-7.18-3.62-10.54-3.13-7.16-2.51-15.11-4.62-22.49-.95-9.08-.24-18.24-.37-27.35l1.14-.85c.53-7.46,3-14.55,4.74-21.76a121.2,121.2,0,0,1,8.63-19.08c1.8-3.76,3.92-7.36,6.05-10.93,1.47-1.28,3.08-2.48,3.79-4.37,1-2.68,3.21-4.42,5.08-6.42a105.72,105.72,0,0,1,9.78-8.53c0-.49.07-1.46.1-1.94,3-2.35,6.45-4.3,9.12-7.11,2.63-1.28,5.57-2.47,7.4-4.85l1.48-.54c3.41-2.72,7.49-4.37,11.4-6.23,5.21-3.42,11.43-4.92,17.45-6.26,4.69-1.18,9.15-3.32,14.05-3.59M473.84,391c-1.91,1-4.09,1.15-6,2-4.66,1.77-9.8,2.38-14.24,4.7-3.54.71-5.89,4.08-9.67,4C442,405,438,405.6,435.35,408l-2.33.38c-1,1.89-2.93,2.94-4.53,4.29l-1.43.61c-5.6,4.05-9.8,9.64-14.89,14.26-3.13,3.91-6.06,8-8.8,12.16-1.22,3.49-3.59,6.35-5.44,9.49-3.05,7.12-7,14.11-8,21.91l-.95,1A114.05,114.05,0,0,0,385.72,511c.43,4.12.44,8.36,1.91,12.31,1.37,3.67,1.19,7.76,2.85,11.33a41.17,41.17,0,0,0,2.65,6.84c.58,3.74,3.38,6.63,4,10.35l1.55,1.05c1.37,3,2.58,6.27,4.64,8.94.44.9.9,1.81,1.38,2.71,2.69,3.8,5.81,7.27,8.79,10.85,2.93,4.42,8,7,10.79,11.61l1.52.46c1.76,3.6,6.21,4.09,8.77,6.86,2.18,1.36,4.29,3.16,7,3.23.34.51.67,1,1,1.58a11.77,11.77,0,0,1,4.86,2.63c7,3.27,14.43,5.62,21.77,8,6.37,1.48,12.91,2.23,19.28,3.75,10.54.91,21-.91,31.47-1.59,2.77-.71,5.29-2.36,8.32-1.9.24-.26.72-.77,1-1,3.29-.83,6.59-1.59,9.91-2.32l1-1c2.68-.25,4.79-2.07,7.27-2.93,2-.91,4.16-1.56,5.94-2.9,3.51-2.5,7.53-4.17,11.15-6.49,5-5,11.42-8.34,16.11-13.68,3.26-2.88,6.42-5.93,8.56-9.76,1.27-1.22,2.31-2.65,3.52-3.92.07-.44.2-1.32.27-1.77.78-.8,1.53-1.63,2.36-2.39.14-.76.29-1.51.45-2.27,2.21-3.11,4.59-6.27,5.61-10,2.39-2.66,2.64-6.49,3.8-9.72l1.13-.88c3.91-13.72,7.53-27.94,5.84-42.32-.85-4.84.45-10-1.55-14.64-1.82-4.87-1-10.64-3.9-15.08-1.85-4.79-3.47-9.77-6.15-14.17-.09-.42-.28-1.28-.38-1.7l-1-.93c-.77-4.73-4.06-8.53-6.69-12.37-4.6-4.1-7.41-9.69-11.35-14.36a4,4,0,0,0-2.3-1.17c-2.23-3.61-6.22-5.47-9-8.55-5.53-4.09-10.93-8.37-17.24-11.27-4.57-3-10-4.86-15.15-6.53l-.93-1.05c-8.29-2.22-16.55-4.91-25.18-5.37-5.74-1.15-11.61-1-17.42-.89-6.78-.17-13.3,1.9-20,2.44"></path><path class="cls-3" d="M354.49,409c3.77-1.95,4.19,2,3.66,4.36-2.35,1.9-3.71,4.77-4.87,7.5-.5.61-1,1.22-1.46,1.84s-.79,1.46-1.24,2.15c-.9,2.57-2.35,4.9-3.46,7.38a28.52,28.52,0,0,1-2.72,6.07,161,161,0,0,1-5.55,16.19c-2.16,6.14-3,12.67-5,18.85-1.16-.14-2.55.14-3.31-1-.21-7.94,2.1-15.63,4.43-23.13,1.31-2.6,1.55-5.71,3.42-8.06.53-2.15,1.24-4.25,1.84-6.37.54-.56,1.08-1.12,1.64-1.67.41-3.38,2.36-6.26,3.54-9.38a19.07,19.07,0,0,1,3-5.13c.91-1.59,1.21-3.57,2.8-4.68a10.57,10.57,0,0,1,3.34-5"></path><path class="cls-3" d="M283.47,412.06c.93-1.77,2.62-3.6,5-2.52,1.05,4.58-2.85,7.82-3.62,12-.22,2.93-2.06,5.25-2.85,8-.85,3.72-2.49,7.19-3.32,10.91-.17,4.93-2.43,9.38-3.51,14.12-.43,5.13-1.85,10.09-2.38,15.23-.45,1.74-3.24,4.18-4.61,1.9-.3-4.46,1.07-8.78,1.46-13.18.94-4.22.93-8.58,2.11-12.74,2-3.27,1-7.63,3.47-10.75a114.42,114.42,0,0,1,4.64-15.1l.89-1a28.73,28.73,0,0,1,2.67-6.85"></path><path class="cls-3" d="M709.4,413c1-1.79,2.91-3.53,5.24-2.66a48.35,48.35,0,0,1,2.41,6.61l.92,1c-.48,1.93.72,3.61,1.89,4.92,1.58,5.26,3.75,10.33,4.59,15.79l1.08.92c.52,2.85,1.17,5.7,1.63,8.57l1,.91c0,8.39,4.23,16.25,3.49,24.75-1.19,2-4,.72-5.32-.49,0-6.37-2.44-12.34-3-18.63-.07-3.34-1.3-6.44-1.94-9.66l-1-.94c-.44-2.45-.54-5-1.53-7.32-2.21-4.93-3.49-10.19-5-15.35-1.53-2.81-2.46-5.9-4.44-8.43"></path><path class="cls-3" d="M788.89,438.11c2.51-1.05,5.61.29,5.14,3.43A88.48,88.48,0,0,1,797,461.69c.27.22.83.64,1.11.86a86.44,86.44,0,0,0,.39,9.1c1.52,9.89,1.09,19.92,1,29.89-.71,1.16-2.1.83-3.22.94l-1.33-1.56c.18-7.91-2-15.63-1.54-23.55.2-4.68-1.21-9.22-1.69-13.84a88.35,88.35,0,0,0-3.34-20.41c-1.2-1.85-.18-3.45.52-5"></path><path class="cls-3" d="M656.52,446.22c-.46-2.56,2.77-2.38,4.57-2a29.58,29.58,0,0,1,1.08,3.17l.91,1c.14,3.62,1.6,6.95,2.52,10.4,1.76,2.62,1.39,6,1.88,9l1.17.87c0,1.13,0,3.4,0,4.54-.49.46-1,.92-1.43,1.4-.8,0-1.58,0-2.36-.06-.43-.73-.87-1.43-1.33-2.12-1-6.64-3.31-13-5-19.47-.65-2.28-2.81-4.06-2-6.73"></path><path class="cls-3" d="M205.19,451.54c2.2-.18,5.15.91,3.32,4.16-.67,3.42-1.57,6.79-1.95,10.28-1.34,5.61-.27,11.45-1.07,17.12a184.54,184.54,0,0,0,.18,27.52c.9,1.88-.34,3.36-1.22,4.75l-2.69-.06c0-.49,0-1.47-.06-2l-1.26-.78c.12-6.41-.53-12.87.27-19.22.87-7.66-.25-15.41.68-23,.12-2.45.35-7.34.48-9.79l1.07-.87a10.13,10.13,0,0,1,2.25-8.11"></path><path class="cls-3" d="M647.86,487c7.59-12.12,26.35-14,36.64-4.42,2.43,3.58,4.15,7.62,6.35,11.36A125.16,125.16,0,0,1,691,507.1c-.26.25-.77.72-1,1a26.19,26.19,0,0,1-5.76,9.2l-1.71.33c-.76.82-1.59,1.58-2.39,2.35l-1.67.37c-4.14,3.11-9.73,2.41-14.56,1.94-3.26.38-5.9-1.57-8.55-3-3.09-1.56-4.44-5.09-7.31-6.94a22.77,22.77,0,0,1-3.44-10.81,15,15,0,0,1,2.89-12.11c.12-.79.25-1.57.38-2.35"></path><path class="cls-3" d="M719.32,479.16c5-3.72,11.86-2.19,17.67-2.3,3.41,2.26,7.57,3.38,10.26,6.71,0,.45.15,1.37.19,1.83a22.11,22.11,0,0,0,3,3.11c.17.72.34,1.45.52,2.18,3.22,3.53,1.32,8.8,1.79,13.09-1.46,6.64-6.19,12.39-12,15.78-5.55,2.33-11.75,2-17.64,1.74-3.55-2.59-7.48-4.65-10.79-7.54-6-6.52-6.27-16.77-2.53-24.45.12-.4.35-1.2.45-1.59,2.43-2.78,4.39-6,7.45-8.13l1.64-.43"></path><path class="cls-3" d="M255.64,482.46c5.33-5.07,13.41-5.58,20.34-4.86,4.65,2.26,9.58,4.84,12.48,9.3,4.46,6.37,6.47,15,3.41,22.33-1.51,5.45-5.92,9.44-10.32,12.72l-2.28.39c-4.51,2.29-10,1.71-15,1.73a35.52,35.52,0,0,1-12.15-7c-2.1-4-5.35-7.83-5-12.66.1-3.06-.5-6.19.26-9.18,1.85-4.73,3.91-9.78,8.21-12.8"></path><path class="cls-3" d="M318.45,481.56c3-1.45,5.81-4,9.42-3.5,5-.63,9.91.71,14.68,2.19,2,2.95,4.88,5.06,7.38,7.55,4.46,6.28,5.14,14.76,2.76,22l-1.05.92c-.07.44-.2,1.34-.27,1.78-.53.59-1.06,1.2-1.56,1.82-2.34,2.18-4.3,4.74-6.52,7.05l-2.54.16c-.2.31-.62.93-.83,1.24a66.44,66.44,0,0,1-15.37.61c-2.4-.4-5.41-.51-6.51-3.05l-1.59-.37c-1.63-3.28-5.84-4.45-6.9-8-3.14-8-3.45-18.26,2.76-24.92a15.42,15.42,0,0,1,6.14-5.41"></path><path class="cls-3" d="M794.26,508.12c.58-1.26,2-.83,3.17-1,3.55,4,1.88,9.78,1.82,14.64-.69,9.07-1.5,18.17-3.56,27.06-.93,3.65-.78,7.48-1.75,11.15-1.31,3.93-.64,8.39-2.75,12.08-1.33,1.09-3.79,3.56-5.15,1.33-.6-3.39.67-6.61,1.41-9.83,1.22-3.74,1.55-7.68,2-11.56.71-3.74,2.08-7.36,2.31-11.18.21-5.67.59-11.33,1.33-17,.46-5.24,0-10.58,1.16-15.73"></path><path class="cls-3" d="M202.38,520.75l2.81,0c.75,1.76,1.61,3.43,1.21,5.51.12,6,1.84,11.87,2.47,17.86.46,10.45,4.42,20.29,6,30.55,1.81,3.37,2.4,7.47,3.28,11.22l-4.15.63a16.07,16.07,0,0,1-3.18-5.11c-2.39-4.81-2-10.48-4.11-15.43-3-11.17-3.77-22.81-4.37-34.31l-1.28-.8c.09-3.41-.72-7.1,1.3-10.1"></path><path class="cls-3" d="M727.08,524.85a20.37,20.37,0,0,1,3.3-2.12,9,9,0,0,1,1.85,2.41,61.09,61.09,0,0,1-.85,10.88c-1.59,4.53-1.29,9.45-3,14-1.43,4.28-1.24,8.94-3,13.13,0,4.43-3,8-3.37,12.38-.25.24-.74.72-1,1-.58,4-2.75,9.63-7.59,9.46-.93-5.34,2.8-9.8,3.48-14.93l1-.91c-.26-3.88,2.21-7.05,2.81-10.74,2.49-11.41,5.31-22.83,6.27-34.5"></path><path class="cls-3" d="M665.44,524.2c.82,0,1.64,0,2.46,0,.6,2.32,1.81,4.6,1.2,7.09-2,7.32-3.33,14.83-5.6,22.09-1.18,4.12-1.6,9.15-5.21,12-4.8,2.28-5.44-3.15-3.83-6,2.38-4.83,3.19-10.22,5.15-15.21,1.73-2.92,1.3-6.47,2.61-9.55,1-2.38.95-5,1.27-7.56.69-.91,1.32-1.87,2-2.83"></path><path class="cls-3" d="M329.24,526.36c1.28-1.9,4.23-1.07,5.24.7a54.21,54.21,0,0,1,2.21,9.93,248,248,0,0,0,13.16,37c2.21,2.38,3.68,5.68,3,9l-4.09,1c-2.43-3.85-4.27-8-6.51-12-.19-.72-.38-1.44-.57-2.14a12.46,12.46,0,0,1-2.12-4c-1.58-4.61-4.32-8.84-4.5-13.85l-1.14-.85c-2.1-8.16-4.08-16.4-4.73-24.83"></path><path class="cls-3" d="M268.2,526.1c3.43-1.65,4.15,1.57,4.43,3.75,1.2,10.82,3.92,21.4,6.77,31.89,1.15,3.61,2.88,7,3.32,10.86,2.19,1.67.63,5.28,2.84,6.82.05,1.09.14,3.25.2,4.34-1,.23-2,.47-3.06.65a7.32,7.32,0,0,0-2.72-3c-1.05-4.5-3.3-8.62-4.52-13.06a263.69,263.69,0,0,1-6.06-25.83c-.88-5.38-3.13-11-1.2-16.46"></path><path class="cls-3" d="M651.93,568.22c5.16-1.66,3.87,3.56,3.77,6.5-1.85,1.09-2.19,3.41-3.11,5.17-5.12,8.67-10.1,17.55-16.78,25.16a6.63,6.63,0,0,1-1.92,2.89c-.68.66-1.38,1.32-2.1,1.94a30.22,30.22,0,0,1-5.22,7c-2.18,2.12-3.78,4.88-6.43,6.46-2.61,1.24-4.13,4.85-7.6,3.81-2-.06-1.68-2.9-.79-4.07,1.6-2.2,4.09-3.55,5.92-5.55.41-2.77,3.52-3.78,5.08-5.82,1.72-2.11,3.78-3.88,5.59-5.91,2.14-4.38,5.73-7.78,8.94-11.36.89-3.26,3.13-5.85,5-8.54,2.25-3.89,4.17-8,6.5-11.81.14-.77.29-1.54.45-2.3a26.38,26.38,0,0,0,2.66-3.56"></path><path class="cls-3" d="M784.77,576.34c1.68-.51,3.31.62,4.71,1.35.51,4-2,7.36-2.56,11.17-2.45,6.24-3.34,13.11-6.69,19-1.87,3.63-1.57,8.11-4.21,11.37-1.81,4.92-3.81,9.86-7.38,13.81l-3.68.3c-1.12-5.82,3.44-10.23,5-15.45l.84-1.06c1.6-5.45,4.67-10.36,5.82-16l1-.94c.47-4.38,3.22-8.08,3.89-12.39.23-3.94,1.72-7.6,3.25-11.17"></path><path class="cls-3" d="M352.44,590.19c-2-4.62,3.84-4.64,5.84-2.29.07.43.22,1.27.3,1.69,2.23,2.16,3.42,5.13,5.44,7.47,2.36,2.65,4.31,5.63,6.4,8.5,3.32,4.94,8.43,8.33,11.88,13.19a150.27,150.27,0,0,1,15.21,12.61c1.93,2,.53,6.53-3.1,4.61-2.07-1.37-4-2.93-5.94-4.39-2.32-2.42-4.39-5.54-7.62-6.69-1.93-2.56-4.56-4.44-6.72-6.77a63.35,63.35,0,0,0-7.53-8.74c-3.7-3.39-5.89-8-9.33-11.62a4.44,4.44,0,0,0-2.09-2.76c-.81-1.66-1.27-3.6-2.74-4.81"></path><path class="cls-3" d="M286,588.68c.82-.08,1.64-.14,2.47-.18.61,1.25,1.18,2.52,1.68,3.83a21.29,21.29,0,0,1,4.09,8.14,21.6,21.6,0,0,1,2,4c5.51,8.85,10.65,18,17,26.31,2.5,4.56,6,8.53,8.74,13,1.16.81,1.49-.78,2-1.47,4.31-1.22,8-4.63,12.66-4.34,7.64-1,14,4.36,19,9.43,3.55,3.8,4.82,9.15,4.77,14.24l-1.45.07v.65l1.5.08c-.4,3.82-.52,8.12-3.06,11.25-2.8,3.51-5,7.7-9.31,9.69-4.89,1.77-10.14,1.6-15.22,1.09-5.82-1.5-10.59-5.53-14.55-9.9-2.21-2.43-2.15-5.91-3.37-8.81-2.21-7.23,1.06-14.91,6.11-20.14-4.9,1.15-5-4.95-8.51-6.63-5.83-7-10.06-15.19-15.37-22.6-4.18-5.47-5.78-12.43-9.73-18-.89-2.58-2.59-4.87-3-7.57.57-.71,1.1-1.43,1.6-2.17"></path><path class="cls-3" d="M709.46,591.33c1.57-1.21,2.9-3.09,5.37-2.2.94,5-2.92,8.9-4.45,13.34a169.09,169.09,0,0,1-10.23,18.14c-.12.4-.37,1.2-.49,1.59-1.71,2.14-3,4.58-4.78,6.68a69.47,69.47,0,0,1-8.3,12c-1.05,1.77-3.19,1.85-5,1.9-.84-2.23.7-3.58,1.69-5.14a98.25,98.25,0,0,1,6.74-10.2,13.26,13.26,0,0,1,2.72-3.38,17.75,17.75,0,0,1,2.65-4.78A71.75,71.75,0,0,1,702.31,608c.79-3.74,3.28-6.81,4.57-10.37.56-1.4.92-3.05,2.27-3.91.1-.79.2-1.57.31-2.34"></path><path class="cls-3" d="M217.29,592.56c.92,0,1.85,0,2.77.06a10.18,10.18,0,0,1,2.24,5.24l.92,1a68,68,0,0,0,3.24,8.26c2,4.14,4.1,8.23,5.91,12.45s4.35,8,6.12,12.2c1.69,3.89,4.71,7.25,5.46,11.52.53.35,1.06.7,1.6,1,1.32,2.31,2.84,4.5,4.1,6.87,1.25,2-.18,3.62-1.15,5.13l-2.62-.12-1.55-1.84-1.66-.33a8.9,8.9,0,0,0-3.42-3.44c-2.63-5.45-4.56-11.26-8.15-16.19-.08-1.11-.23-3.33-.31-4.45L229,628.35c-.72-2.36-1.71-4.63-2.51-7-2.89-1.8-2.83-5.76-4.49-8.43-1.54-2.93-1.87-6.33-3.7-9.1-1.19-1.68-.88-3.8-1.1-5.72l-1.31-.94c-.37-1.9.62-3.15,1.36-4.63"></path><path class="cls-3" d="M602.4,630c1.83-1.66,3.87-3.48,6.67-2.87.13,2,1.62,4.34-.11,6-4,4-9.08,6.71-13.36,10.38a23.42,23.42,0,0,1-4.43,3,111.56,111.56,0,0,0-12.91,7.4c-3.51,1.47-7.15,2.63-10.5,4.48s-6.85,3.71-10.76,3.44l-.88,1.17a47.93,47.93,0,0,1-8.69.78c-2,.66-2.62-2.72-2-3.89,1.72-.77,3.25-1.9,5-2.55,3.74-.83,7-3,10.88-3.44,7-3.8,14.46-6.56,21.39-10.41,6.71-4.3,13.29-8.78,19.68-13.54"></path><path class="cls-3" d="M761.64,636.61c-2.19,2.35-3.18,5.45-4.82,8.17-4.61,7.72-9.39,15.35-14.66,22.64-1.93,1.76-2.82,4.33-4.67,6.16l-.53,1.5c-2.43,2.37-4.24,5.26-6.26,8a33,33,0,0,0-4.48,5h-2.51l-1-1.06c-3.12-1-5.75-3.81-9.29-3-5.05-.54-9.82,1.26-14.26,3.4-5.94,4.17-9.68,10.75-11.42,17.67a82.35,82.35,0,0,0,1,10.39c1.7,3.88,4.61,7.12,7.15,10.48,3.15,2.24,6.14,4.85,9.6,6.65,5.2,2.49,10.93-.28,16.25-.91,4.33-1.1,7.07-5.16,10.12-8.14,2-1.85,2.71-4.58,4-6.92a12.15,12.15,0,0,0,.16-1.23c.22-2.76-.14-5.33-.13-7.94-.16-.23-.32-.46-.47-.7-.58-2.75-1.19-5.46-2-8.15-2.39-2.58-4.61-6-3-9.58,2.14-1,3.25-3.17,5-4.6.11-.38.33-1.16.45-1.56,3.84-3.67,6.5-8.38,10-12.37,6.83-10,14.08-19.86,19.42-30.77,1.24-2.26-1.29-4.27-3.76-3.16"></path><path class="cls-3" d="M402.24,637.19a10.26,10.26,0,0,1,6,1.76c11.08,7.47,23.43,12.75,35.8,17.65,4.56.11,8.52,2.6,12.94,3.41,2.91.81,6.07,1.26,8.56,3.13-.2,1.35-.49,2.69-.81,4-6.22.56-12.06-2-18.1-3-6.36-3-13.51-4.3-19.44-8.24-3.45-.09-5.8-2.8-8.68-4.23a19.69,19.69,0,0,1-4.18-2.58c-4.68-1.66-8.81-4.77-12.51-8,.11-1,.34-3,.45-4"></path><path class="cls-3" d="M657.28,637.42q6.66-.23,13.33,0c1.92.62,3.48,2,5.23,3a56.33,56.33,0,0,0,6.11,5.42c.66.88,1.36,1.74,2.09,2.59.3,3.07,2.82,5.25,3.42,8.24a20.45,20.45,0,0,1-2,13c-1.64,1.07-3.78,2.33-2.65,4.93-2.42,2.34-5.49,4-7.61,6.62-4.31,2.6-9.55,3.17-14.47,2.9-3.77-1.17-7.54-2.53-10.67-5-1-1.25-2.4-2.14-3.49-3.31-1.38-2-2.38-4.3-4-6.12-2.67-5.81-1.73-12.56-.06-18.53,2.41-2.83,4.15-6.19,6.78-8.84a22.41,22.41,0,0,1,7.09-3.8l.94-1"></path><path class="cls-3" d="M249.15,660.38c1.44-1.07,3.34-2,5.17-1.16.91.93,1.71,2,2.72,2.81a88.36,88.36,0,0,0,8.26,11.37c.06.45.17,1.37.22,1.82.78.57,1.57,1.14,2.38,1.69a64.46,64.46,0,0,0,4.84,6c.06.44.2,1.33.26,1.77a29.88,29.88,0,0,1,7.6,8l1.71.3c2.09,3.65,4.32,7.33,7.9,9.73.56.78,1.15,1.54,1.73,2.32l2,.08c0,.5,0,1.51,0,2l1.89.84c.08.4.25,1.21.34,1.61a13.83,13.83,0,0,1,2.43,1.81c.22,1.45-.75,2.67-1.28,4-5.42,1.38-9.24-3.05-12.58-6.47-1.47-1.71-3.47-2.91-4.64-4.87-.78-.37-1.54-.74-2.32-1.07-.34-1-.67-2.09-.94-3.13l-1.86-.16c-1.82-2.33-3.13-5-4.73-7.47-2.88-4.7-6.83-8.6-9.74-13.27a16.06,16.06,0,0,1-4.45-1.69,21.55,21.55,0,0,1-3.6-10c-1-.78-2.08-1.52-3.16-2.22,0-1.15-.1-3.47-.14-4.62"></path><path class="cls-3" d="M526.13,663.46a43,43,0,0,1,13.68-2.4c.45.49.91,1,1.39,1.47,0,.85.08,1.7.14,2.57-2.84,3.31-7.16,3.54-11.18,3.78-6.12,3-13.15.89-19.66,2-3.63.3-7.25.33-10.86.73a94.15,94.15,0,0,1-27.2-2c-1.72-.59-4-1.93-2.31-4.42,0-1.84,4.1-1,4.75-1.37,12.8,1.54,25.71,1.5,38.58,1.2a122.44,122.44,0,0,1,12.67-1.57"></path><path class="cls-3" d="M642.62,677.55c3.32-1.85,5.74,1.13,4.28,4.28-3.17,2.72-6.44,5.35-9.51,8.21-3.46,3.67-8.79,4.54-12.63,7.72-3.49,2.9-7.84,4.31-11.71,6.54-4.63,2-8.49,6.37-14,5.54-.48-.51-1-1-1.45-1.5,0-.81,0-1.6.06-2.39.53-.62,1-1.25,1.54-1.88,4.06-2,8-4.17,12-6.31,1.48-.78,3.14-1.28,4.34-2.49,9.82-4.66,17.77-12.3,27.11-17.72"></path><path class="cls-3" d="M354.89,680.65c1.42-.66,2.68-1.78,4.49-1.16,6,4.43,12.43,8.32,18.09,13.21.77.14,1.53.29,2.3.45a16,16,0,0,0,4,2.11c8.28,6,18,9.56,27.16,14l2.09,2.21.2,3c-1.25.26-2.58,1.05-3.84.49-5.65-2.66-11.73-4.49-16.74-8.33-.8-.13-1.59-.26-2.37-.37-.57-.56-1.13-1.11-1.69-1.63-4.22-1.52-7.83-4.35-11.61-6.69a4.79,4.79,0,0,1-2.74-2.11c-.7-.2-1.4-.38-2.09-.56-2.61-2.46-5.89-4.05-8.78-6.12-2.13-2.92-5.9-4-8.47-6.44,0-.52,0-1.58,0-2.11"></path><path class="cls-3" d="M493.49,705.3c3.9-.12,8.07-.83,11.85.51,4.67,1.28,7.94,5.14,11.61,8.05,3.62,4.34,5.19,10.13,5.36,15.71.87,4.27-1.36,8.07-2.9,11.87A5.66,5.66,0,0,0,517,743.8c-1.58,2.88-4,5.47-7.2,6.39-1.76.77-3.63,1.22-5.33,2.08-6.61,1-13.61-.09-19.08-4.07a59.59,59.59,0,0,1-7.54-8.72c-1-2.75-.81-6-2.37-8.49a57.47,57.47,0,0,1-19.84-1.8c-3.59-1.1-7.46-.55-10.94-2-3-1.29-6.49-1.26-9.35-2.86A32.82,32.82,0,0,0,431,723.2l-1-.94a33.15,33.15,0,0,1-12.81-5.07,10.61,10.61,0,0,1,1-3.93c1.84-1.12,3.47.2,4.85,1.07a26,26,0,0,0,6.32,1.83l1,.94a29.54,29.54,0,0,1,6.52,1l.92,1.09a45.09,45.09,0,0,1,7.21,1l.92,1.06a42.68,42.68,0,0,1,10.45,1.73c5.55.42,10.9,2.16,16.52,1.87l.82,1.9,2.48.06c.48-4.17,1.17-8.55,3.64-12a93,93,0,0,1,13.72-9.43"></path><path class="cls-3" d="M583.46,710.74c3.55-.32,6.4-2.89,10-3.1.88,1.56,1.74,2.85,1.57,4.86-3,2.74-7,4-10.83,5l-1,.91c-2.36.77-4.65,1.74-7,2.58-3.47,1.41-7.16,2.23-10.68,3.51-2,.75-4.4.61-6.14,2-10.82,2.29-21.67,5.1-32.81,5-.2-1-.61-3-.81-3.95l1.55-1.32c6.72-2.41,14.08-2.09,20.91-4.1,9.28-2.16,18.54-4.35,27.42-7.89,1.66-.91,3.56-1.28,5.26-2.13l1.67-.43.93-1"></path><path class="cls-3" d="M302.17,715.77c2.65.18,4.4,2.26,6.2,4a4.87,4.87,0,0,1,2.87,2,107,107,0,0,0,16.19,12.93c1.24,1.73,3.15,2.7,4.78,4,3.83,1.5,6.79,4.48,10.07,6.87,5.12,2.07,9.26,6.09,14.43,8l1.91,1.4a15.65,15.65,0,0,0,2.19,2q.12,1.17.21,2.37l-1.78.23c-.9,1.47-1.71,3.48-4.28,1.9-3.64-1.16-6.19-4.68-9.95-5.75-1.09-.71-2.2-1.39-3.29-2.08-2.22-2-5.35-2.61-7.46-4.74-.92-.45-1.84-.85-2.74-1.3-1.43-1.44-1.78-4.37-4.81-3.37-3.19-2-5.53-5.5-9.08-7.15-2.19-1.43-5.81-3.07-4.59-6.4,1.85-.62,1.15-2.47,0-3.38-.39,1-.74,2-1,3-2.25-.5-4.66-.7-6.57-2.07,0-.5,0-1.49,0-2l-3.85-3a6.15,6.15,0,0,1,.63-7.46m17.77,16.82c-.1.61-.29,1.83-.38,2.45l2.45-.38a14.46,14.46,0,0,0-2.07-2.07"></path><path class="cls-3" d="M687.14,725.58a7.28,7.28,0,0,1,5.26-2.33c.81,1.75,1.76,3.37,1.4,5.47-1.74,3.34-5,5.45-7.89,7.74-.43,3.25-4.16,4-6.13,6.15-4.27,6.3-12.57,7.33-17.35,13.13l-1.64.4a9.41,9.41,0,0,1-4.76,2.74L655,760c-3.48,1.11-6.07-1-8.62-2.89l.14-2.9c5.28-3.86,10.79-7.39,16.3-10.89l1.6-.44c.5-.84,1.06-1.64,1.62-2.44l1.78-.29A42.69,42.69,0,0,1,674.5,736c3.49-4.28,8.6-6.73,12.64-10.4"></path><path class="cls-3" d="M639.94,756.88a11.14,11.14,0,0,1,4-.82c.49.53,1,1.05,1.56,1.57,1.64,5-3.13,9.28-7.64,10.19-2.23,2.3-5.3,3.49-8.18,4.74-1.89,1.21-4.34,1.27-6.06,2.73-1.43.38-2.84.77-4.27,1.12-.22.28-.67.85-.88,1.14-.86,0-1.72.09-2.56.15l-.89,1.11a31.56,31.56,0,0,0-4.27,1.23c-6,3.14-12.76,4.41-19.17,6.56l-.93,1.17c-3.5.57-6.78-.52-10-1.53-1.07-2.11.35-3.28,1.52-4.41,4.16-2.7,9.41-2.21,13.75-4.42,3.08-2.89,7.64-3.57,11.57-4.84,7.3-4,15.4-6.39,22.65-10.48,3.37-1.56,6.15-4.31,9.82-5.21"></path><path class="cls-3" d="M364.43,759.93a5.69,5.69,0,0,1,5,1.22l1.62.34,1,1c6.14,2.68,12.32,5.28,18.42,8.07,2.78,2.63,7,2.45,10.29,3.94,2.65,1.2,5.54,1.85,8,3.49,2.12.27,4.25.81,6.37,1.16l.95,1c3.64.14,7,1.58,10.52,2.41.7.67,1.41,1.34,2.14,2-.17,1.53-.38,3.07-.61,4.62-3.84.35-7.55-.77-11.25-1.6-2.69-2.2-7.1,0-9.34-3a23.51,23.51,0,0,0-5.47-1.9c-.85-1-2.21-1.09-3.37-1.43A48.4,48.4,0,0,1,385,776c-2,.21-3-1-4-2.25-.4-.08-1.2-.27-1.6-.36l-.94-1a8.07,8.07,0,0,1-7.51-2.69c-.78-.15-1.55-.27-2.32-.4-1.38-1.56-2.7-3.18-4.1-4.71,0-1.16-.1-3.48-.14-4.65"></path><path class="cls-3" d="M566.1,784.83c2.78-.11,5.48-1,8.26-1.07,2.71,3-.12,7.72-3.57,8.48-2.86.27-5.7.6-8.56.9-3.88.38-7.49,2.31-11.46,2.1-2.57,0-4.9,1.52-7.53,1.2a32.37,32.37,0,0,0-10.6,1.62c-8.25,1.1-16.55,2.51-24.9,1.7a13.23,13.23,0,0,0-2.17-2.19c-1.2-2.41.87-4.24,2.82-4.82,3.61-.29,7.24-.24,10.86-.52,3.13-.32,6.33-.19,9.46-.69,9.51.26,18.65-2.57,28.09-3.2l.88-1.07c2.85-.56,6-.63,8.42-2.44"></path><path class="cls-3" d="M435.1,785.8a31.69,31.69,0,0,1,8.51.71l.87,1.15c6.52.16,12.95,1.44,19.39,2.39,10.21,2.7,20.88,2.54,31.35,2.48,1.49-.08,2.78.73,4.08,1.32,0,1.18-.08,3.52-.1,4.69-.49.43-1,.88-1.41,1.34a123.82,123.82,0,0,1-14.42-.21c-4.11-.38-8.23-.26-12.35-.51-3.66-2.68-8.75-1.53-13-1.95l-.8-1.22c-2.06-.16-4,0-6-.12-.21-.3-.62-.9-.83-1.19-4.35-.66-8.7-1.4-13.1-1.65-2.46-1.19-4.86-5.07-2.18-7.23"></path></g></g></g></svg>