<svg fill="currentColor" xmlns="http://www.w3.org/2000/svg" viewBox="0 0 1000 1000"><g class="cls-1"><g id="Shapes"><g id="Shape_99" data-name="Shape 99" class="cls-2"><path class="cls-3" d="M661.31,584.8a4,4,0,0,1-5.55-.11c-1-1.62-1.46-3.94-.17-5.51,1.13-.56,1.77-1.68,2.68-2.52.68-.68,1.71-.8,2.44-1.42a5.35,5.35,0,0,1,3.09-.65c.57-.64,1-1.41,1.6-2,.66-.79,1.87-.61,2.54-1.4l.43-.06a14.76,14.76,0,0,0,1.57-1.38c1.1-1,2.73-1,4-1.77.69-.5,1.68-.16,2.29-.81a17.87,17.87,0,0,1,5.34-3.45,3.58,3.58,0,0,1,2.2-.87l.65-.7.68,0a11.79,11.79,0,0,0,2.07-1.92c.86-.23,1.73-.44,2.6-.63.93-2.18,3.58-1.92,5.14-3.37a8.82,8.82,0,0,0,4-1.83l1.8-.06a2.52,2.52,0,0,1,2.23-1,17.25,17.25,0,0,0,.75-1.64c1.84-.28,3.08-2,5-2.09,2.21-2.21,5.1-3.58,7.64-5.37l.42-.08c1-1.07,2.47-1.05,3.82-1,.32-1.09,1.6-1.06,2.24-1.88,1.18-.66,2.39-1.29,3.53-2l1.6-.4.49.52h.53c1.2-1.48,2.36-3.11,4.19-3.87a9.92,9.92,0,0,0,2.73-.67c1.59-1,2.89-2.68,4.9-2.71a3.76,3.76,0,0,1,2.11-1.53c.6-.61,1.19-1.24,1.77-1.87l.69,0a4,4,0,0,1,2.56-1.32,41.65,41.65,0,0,1,6.09-3.3c1.56-1.47,3.63-2.14,5.56-3a21.09,21.09,0,0,1,6.46-3c1.38,1.84,3.76.76,5-.69-.15-.26-.29-.53-.42-.8-.76,0-1.8.28-1.93-.76a3.18,3.18,0,0,1,1.84-1l.42.77,1.25,0c.29-1.21,1-.49,1.4.2l.52,0a6.34,6.34,0,0,1,.78-1.39c0-.44,0-.89,0-1.34.29-.19.57-.4.85-.62l.41,0c.18-.3.37-.6.58-.89,0-.33,0-.66,0-1a22.32,22.32,0,0,0-6.19-.78c-1,.15-1.82-.68-2.82-.62a13.38,13.38,0,0,1-4.55-.28c-2.2.59-4.44.1-6.63-.26-2.14.2-4.34.94-6.5.34l-.47-.47a4.15,4.15,0,0,1-3.06,0c-.41.19-.81.52-1.28.41-1.46-.34-3,0-4.41-.35l-.51-.51c-.25.12-.49.23-.74.33-.45,0-.9.05-1.35.05l-.44.54c-1.66-.57-3.15.61-4.81.58-2.65.18-5.32-1.18-7.92-.43l-.72-.75a1.59,1.59,0,0,1-2.7.3c-2.28.32-4.63,1.06-6.9.3a3.25,3.25,0,0,1-2.61-.18c-2.77.62-5.62-.17-8.36-.5l-.34-.24c-1.78,1.1-3.92.75-5.87.57-1.11-.72-2.3.05-3.39.38-1.63.83-3.47.12-5.15.05-1.77.73-3.46-.49-5.22-.39-.14-.26-.29-.52-.44-.77a3.58,3.58,0,0,0-1.63,1.11c-1.21-.46-2.4.32-3.62.32-1.77-.42-3.58.41-5.26-.56l-.33.27c-2.25.08-4.52.27-6.69-.46a16,16,0,0,0-4.26.76c-2.36-1.19-4.93-.22-7.4-.21l-.33-.24c-.95.5-2,0-3,0h-.2a31.24,31.24,0,0,1-4.64.07c-1.71,1.31-3.78.19-5.64.82-1.17-.12-2.32-1-3.52-.47-1.65.79-3.43-.15-5-.64-2,.24-3.91.87-5.89.46-1.77-.28-3.48.38-5.25.34l-.22-.15a15.91,15.91,0,0,1-4.08.19,15.16,15.16,0,0,0-5.74-.09c-1.28-1.07-2.67.07-4.07.2a14.31,14.31,0,0,0-2.62-.17,11.43,11.43,0,0,0-2.38-.84c-4.2,1.76-8.84.09-13.18,1.09-2.52-.06-5.08-.46-7.58,0-1,.15-2-.37-2.93.11l-.6-.58c-.12.11-.37.31-.5.41l-.48-.37-.39.35a2.77,2.77,0,0,1-2.39-.66c-1.51,0-3.15.43-4.47-.53a16.34,16.34,0,0,0-1.42,1.22,12.72,12.72,0,0,0-5.39,0c-1.58-.19-3.18.18-4.76,0-1.57-.39-3.14.44-4.69-.12-1.26.59-2.58.07-3.89.25-1.59.18-3.13-.88-4.71-.37s-2.92-.65-4.37-.17c-1.7.4-3.44-.16-5.15.29l-.74.3-.51-.54c-2.32.05-4.63.75-7,.25-1-.28-1.89.51-2.84.49-1.56-.64-3.25-.27-4.88-.28L518,509c-1,.73-2.25.47-3.41.4-2.33.82-4.8-1.06-7,.13-2.3-.77-4.6.35-6.93-.14-2.22.19-4.63.71-6.78-.09-1.81.11-3.71.74-5.47-.07-.66-.45-1.38.14-2.09-.07a6.39,6.39,0,0,1-1.43.66c-.59-.18-1.08-.88-1.75-.54-3.42.35-6.93.83-10.32,0a44.76,44.76,0,0,1-5.18,0,9.24,9.24,0,0,1-7.65-1.48,3,3,0,0,0-2.83-.44c-2.52-1.17-5.25-.84-7.92-.67l-.35-.24a18.92,18.92,0,0,1-2.32.85,8.89,8.89,0,0,1-1.84,1.63,5.13,5.13,0,0,0-2.37,0c-1.31.48-2.59-.46-3.93-.25L438,509l-.4-.32c-1.75-.12-3.3.88-5,.85-2.39-.43-4.84.18-7.24-.08-1.72-.31-3.41-.06-5.13-.23l-.38-.27c-1.13.77-2.57,1.72-4,1.1-1.78-.63-3.7-.67-5.5-1.2-1.3.6-2.49-.7-3.81-.36s-2.29,1.66-3.69,1.16c-1.44-.71-3.25.71-4.49-.7a10.88,10.88,0,0,0-2.61.22l-.22-.13c-1.24.46-2.63-.13-3.85-.52-1-.13-2.07-.27-3.1-.43a23,23,0,0,0-2.58,1c-1.95-.2-3.87-.92-5.82-.88-1.48,1.16-3.11.15-4.76.18-1.75-.14-3.48.73-5.26.45-1.09-.45-2.36-.46-3.3-1.25a12.92,12.92,0,0,0-2.92,1.17c-1.09-.1-2.22-.52-3.31-.15-1.26.49-2.67-.54-3.85.29-.91.6-1.89-.65-2.81-.06a5.23,5.23,0,0,1-4.39.26,3.45,3.45,0,0,1-2.87-.28c-.17.2-.35.4-.53.59-.65-.43-1.33.11-2,0-1.53-.17-3-.89-4.54-.81-1.48,1.56-3.77.4-5.61.61-1.7-.76-3.52-.51-5.32-.57a8,8,0,0,1-4.6-1.2l-.84,0c-.48.93-1.71.82-2.58,1.13-1.05-.17-2.08.47-3.14.13-1.88-.49-3.63.61-5.47.7-1.9-.79-4,0-5.93-.49a4.78,4.78,0,0,1-3-.2l-.43-.42c-1.43-.14-2.69,1-4.12.45-1.94-.07-3.83.35-5.74.21-1.12-.46-2.09.75-3.19.36a11.92,11.92,0,0,0-3.19-.55l-.36.34c-.73-.35-1.5-1-2.35-.59-1.3.44-2.66,0-4,.1-1.13-.24-2.22.51-3.34.13-.36.13-.71.27-1.07.42l-.35-.28c-1.07,0-2.15.61-3.13-.07-2.19.3-4.42,0-6.65.15a12.07,12.07,0,0,0-7.33.13c-1.63.13-3.23-.5-4.86-.47-.23-.23-.46-.47-.71-.7a15.7,15.7,0,0,0-2.14.37l-.44.5c-.3-.05-.61-.08-.92-.12a8.24,8.24,0,0,1-4.88-.69l-1.14.47c-1.2-.39-2.47.46-3.73,0-.84-.33-1.6.24-2.4.39a13.54,13.54,0,0,1-6.18-.76,4.13,4.13,0,0,0-1.72,1.79,13.27,13.27,0,0,0,2.29,1.57v.67l1.27,0c1.62,1.42,3.61,2.29,5.33,3.56,1.66.08,2.76,1.43,4.15,2.1a22.83,22.83,0,0,1,4,3.1,11.61,11.61,0,0,1,1.45.28c.79.79,1.94.57,2.92.84.91,1.15,2.41,1.48,3.46,2.45,2.23.58,3.71,2.52,5.68,3.46.32.51.58,1.05.88,1.56a7.52,7.52,0,0,1,6.25,1.86,3.22,3.22,0,0,1,2.22,1.59c1.28.48,2.26,1.59,3.68,1.67,1.37,2,3.68,2.87,5.45,4.4a21.42,21.42,0,0,1,4.59,3.19c1.43.44,2.62,1.46,4.13,1.65a7.28,7.28,0,0,1,3.55,2.41l1.34.29a6.54,6.54,0,0,1,.63.86c.89.25,1.78.47,2.67.7.28.24.54.49.8.73,0,.13,0,.38,0,.51,2.17,1,4.81,1.76,5.89,4.12,1.53.23,3,.77,4.54.9a12.9,12.9,0,0,1,1.58,1.17c0,.45,0,.89,0,1.34l1.36-.05a10.9,10.9,0,0,1,.67.89,5.54,5.54,0,0,1,3.3,1c1.7,1.28,3.87,2,5.08,3.86a12.08,12.08,0,0,1,3.65,1.57c.47.11.93.23,1.39.3a13.8,13.8,0,0,0,1.23.7c.68,1.39,2.68,1,3.34,2.35,1.81,1.12,4.16,1.35,5.77,2.85,1.06.39,1.85,1.31,3,1.51,1.47,1.87,4.07,2.25,5.39,4.25a12.36,12.36,0,0,1,1.05,3.53,11.57,11.57,0,0,1-2.15,2.78,1.59,1.59,0,0,1-1.24.84c-1.5,0-3.17.86-4.55-.1a8.72,8.72,0,0,1-2.05-1.73c-.4-.21-.81-.42-1.2-.67a6.12,6.12,0,0,1-2.58-1.36c-.85-.92-2.18-1.25-2.86-2.35-.26-.51-.87-.6-1.38-.73l-.88-.83-.46,0a3.74,3.74,0,0,0-1.48-.73c-1.09-.67-2.25-1.21-3.37-1.85-1.27-.26-2-1.46-3.16-2a18.42,18.42,0,0,0-7.19-4,3.64,3.64,0,0,1-1.45-1.24,5.77,5.77,0,0,0-2.15-.76c-.92-1-2.43-.91-3.48-1.73a78,78,0,0,1-8.11-5.19l-.65,0c-1.38-1.19-3.34-1.45-4.82-2.53-.48-.8-1.46-.93-2.22-1.35a13.69,13.69,0,0,1-3.47-2.37c-1-1.45-2.59-2.24-3.77-3.49-.92.66-1.76-.39-2.71-.45-.28-.33-.53-.68-.8-1-1.48-.13-2.74-1-4.12-1.42-1.83-1-3.65-2-5.46-3-1.52-.88-2.64-2.45-4.43-2.83-.77-.54-1.61-.95-2.42-1.44A4.54,4.54,0,0,1,255.8,537l-.45,0c-.65-.7-1.74-.85-2.14-1.8h-.51a5.58,5.58,0,0,0-2.76-1.39c-1-1.62-3.07-2.06-4.24-3.57-1.63.26-2.83-1.12-4.15-1.84-1-1.5-2.92-1.77-4.3-2.82-1.41-.06-2.34-1.27-3.62-1.69-1.86-1.08-4-1.87-5.37-3.58-.38-.58-1.14-.54-1.73-.76a9.24,9.24,0,0,1-2.69-2.06,3.25,3.25,0,0,1-1.54-.71h-.51a2,2,0,0,1-.28-2.82l.64,0-.08-.81c-.75.33-1.28,1-2,1.34-1.25.27-2.38-.51-3.61-.6s-2.14-1.54-3.42-1.93a26.82,26.82,0,0,1-4.19-1.91,3.32,3.32,0,0,1-2.1-1.41c-1.16-.74-2-2.08-3.47-2.2a26.09,26.09,0,0,0-2.17-2.53A2.37,2.37,0,0,1,200,502c-.16-1.14,1.29-1.72,1.11-2.88s.89-1.79,1.69-2.34a16.59,16.59,0,0,1,4.53-1.26c1.93-.91,3.64-2.61,6-2.21l.48.33a7.5,7.5,0,0,0,1.1-1.79l.76,0a11,11,0,0,1,1-.85l.61-.86,1.24,0c1-1.44,2.95-1.85,3.92-3.37a6.06,6.06,0,0,1,2.42-1c1.32-.2,1.91-1.71,3.26-1.85,1.58-.11,2.24-1.7,3.41-2.49.37.11.74.19,1.11.27.37-.41.74-.82,1.12-1.21,2.1-.66,3.12-3,5.4-3.39,1.28-.68,2.3-2,3.86-2a20.8,20.8,0,0,0,2.29-1.21l.72.31c0-.39,0-.79,0-1.2a7.11,7.11,0,0,0,1.28-.34c1.13-1.35,2.23-3.46,4.22-3.46a5,5,0,0,1,2.24-2,10.29,10.29,0,0,1,.84-1.1,11.16,11.16,0,0,1,1.68-.35l.32-.22a1.54,1.54,0,0,0,1.59-.06,3.66,3.66,0,0,1,3-2c1.18-1.42,2.83-2.42,4.12-3.78a6,6,0,0,0,1.9-1c.91-.32,1.69-.92,2.62-1.19,1.16-1.44,2.87-2.23,4.35-3.3a15.66,15.66,0,0,0,1.89-.66l.39-.35a11.53,11.53,0,0,0,5.3-3.95c1.27-.72,2.33-1.86,3.82-2.13l.38-.42.48,0c1.81-1.83,4.35-2.63,6.14-4.43a20.52,20.52,0,0,1,6-1.39c2-1.73,4.42-3,6.08-5.15,1-.65,1.8-1.66,3-1.84,2-.31,2.2-3,4.13-3.39a15.83,15.83,0,0,1,4.54-3.24c.95-1.1,2.5-1.08,3.78-1.47,1-1,2.28-1.58,3-2.81,1.5-2,4.19-2.45,5.84-4.34a15.21,15.21,0,0,1,4-2.61,7.86,7.86,0,0,1,4.41-1.84,31.54,31.54,0,0,1,3.49.65,7.29,7.29,0,0,0,1.3,1.47c.34,2.29-2.07,3.31-3.11,5a11.06,11.06,0,0,0-.54,2c-1.4.68-1.71,2.28-2.29,3.57-.69.8-1.15,1.88-2.19,2.29-1.21.78-2.78.85-3.82,1.89-1.69,1.19-3.4,2.33-5.11,3.5-2.66,1.46-6.1,2-7.86,4.71-1.24.91-2.88,1.18-4,2.28a4.23,4.23,0,0,0-2.35,1.3l-.43.06c-2.18,1.48-4.53,2.63-6.68,4.16a3.46,3.46,0,0,1-1.76,1.11l-.59.59c-.28.1-.56.18-.85.27a5.46,5.46,0,0,0-1.51-.16c-1.58,1.65-3.82,2.39-5.48,3.94-1.13.6-1.9,1.79-3.19,2.1a5,5,0,0,1-2.76,1.74,5.58,5.58,0,0,1-3.59,1.94c-1.17.15-1.79,1.36-2.94,1.56l-.39.41-.46,0c-.79.7-1.74,1.17-2.55,1.85s-2.25.89-2.79,2a22.28,22.28,0,0,0-2.54,2c-.93.31-1.92.32-2.86.62l-.4.45-.51,0c-.42.47-.85.93-1.3,1.39a3.91,3.91,0,0,0-2.59,2c-1.5,1-3.4,1.14-4.8,2.29-.9,1.22-1.95,2.67-3.59,2.8l-.4.41a7.12,7.12,0,0,1-2,.35c-.45.94-1,2.05-2.08,2.34-2.42.29-3.64,2.62-5.42,4-1,.18-2,.68-3,.41-.19.28-.38.57-.55.86-1.64.46-2.87,1.67-4.48,2.14a3.5,3.5,0,0,1-3,1.45,1.79,1.79,0,0,1-2.11,1.74c-.44,1.15-1.64,1.6-2.7,2-1.15,1.69-3.13,2.56-4.88,3.46-1,.44-1.28,1.55-2.19,2-.13,1.1.66,1.92.92,2.92,1.81-.38,3.64,0,5.45-.34h.22a21.6,21.6,0,0,0,5.89.43l.35-.3c1.58,1.15,3.58.62,5.27,1.29.44-.09.86-.23,1.29-.32.21.41.43.82.65,1.22l.68-.36c0-.14,0-.41,0-.54.43-.12.85-.26,1.27-.4.65-.46,1.39-1.16,2.23-.8,1.48.46,3-.17,4.46-.23a8.47,8.47,0,0,0,3.78-.16c2.14-.1,4.45,1.65,6.45.23l.36.22c.74,0,1.54.44,2.21,0,1.92-.84,4-.36,5.94-.14.26.07.52.15.76.24.11-.14.35-.41.47-.55a13.57,13.57,0,0,0,1.43-.14c1.51.27,3.38-.57,4.49.83a3.58,3.58,0,0,1,1.82-.44c2,.46,4.07-.27,6,.33.41.14.33.63.43,1,.14-.16.28-.33.41-.5.71.34,1.33-.23,2-.46,1.72-1,3.76.12,5.51-.77,1.51.89,3.25-.4,4.86.27,1.27.58,2.55-.35,3.85,0s2.8-.36,4.22-.24l.47.51c1.94-.3,4-1.16,5.81,0a4.2,4.2,0,0,1,3.91-.57l.43.43,1.63,0,.38-.33.4.3c2.5-.39,5.05.58,7.47-.31,2.11-.25,4.23,0,6.38-.13l.34.24c.91-.57,1.93.09,2.9-.08,2.36-.18,4.76.06,7.08-.43A4.79,4.79,0,0,0,347,499c1.27.19,2.71.42,3.81-.41l.35.23c3.2.3,6.59,0,9.6,1.37.63.07,1.14-.43,1.71-.59.73-.41,1.53.28,2.25-.16a2.17,2.17,0,0,1,.89.81c.69,0,1.38.34,2.06.09a56.3,56.3,0,0,1,6.54-1.26,3.51,3.51,0,0,1,1.21.47l.34-.28c4.74,0,9.34-.89,14-.25,1.19.53,2.39-.06,3.61-.06l.38-.31.4.3a10.4,10.4,0,0,1,1.85,0,24.52,24.52,0,0,1,6.23.11c1.2-.4,2.42.17,3.65,0l.21-.17A7.36,7.36,0,0,0,408,499l.4.29.39-.32a44,44,0,0,0,4.43-.46c3.49.47,7-.54,10.52-.07a15,15,0,0,0,4.34.18l.34-.28c.88.76,1.92.25,2.91.21,2.67.62,5.33-.67,8-.11,1.35.32,2.66-.41,4-.09,1.2.08,2.41-.1,3.61-.05.74.3,1.36.84,2.12,1.09a9.57,9.57,0,0,0,4.29-1.21c2.58-.56,5.18.38,7.78.18,1.64.53,3.26-.5,4.89,0,1.55-.21,3,.35,4.47.52a5.68,5.68,0,0,1,5.48-.09,4.94,4.94,0,0,1,3.92-.62c2.61-.73,5.17,1.52,7.75.44s5.44.13,8.14-.56l.23.15a4.37,4.37,0,0,1,2.19.16c1.92,1.11,4.14-.21,6.16.28,1.3-.59,2.55.57,3.85,0s2.54.25,3.82.29c.33.23.65.44,1,.64.32-.22.64-.45,1-.69,1.63-.2,3.43-.69,5,.09.31,1.13,1.23.22,2,.14,2.41-.05,4.75-.66,7.16-.71,2.14,2.09,4.85.18,7.36.5l.33-.28a2.83,2.83,0,0,0,2.52.13l.79.81a7.41,7.41,0,0,0,2-.82c.63-.1,1.27.25,1.89,0,.88-.37,1.55.57,2.37.56,1.48-.5,3,.11,4.48.33.58-.23,1.19-.72,1.84-.4,2.15.84,4.46.35,6.65.06a8.07,8.07,0,0,1,6.41-.14c1.08.11,2.15-.53,3.24-.18a7.09,7.09,0,0,0,2.55-.13c2.09-.1,4.06,1.07,6.18.7l.71.69.9,0a2.56,2.56,0,0,1,3.11-.42c1.06-.52,2.27-.4,3.4-.66,1.63.54,3.35.16,5,.54s3.27-.4,4.93-.44c1.29.19,2.56-.08,3.85.15l.33.16c.94-.21,1.89.58,2.81,0,1.13-.58,2.44-.2,3.63-.59,1.42-.34,2.85.19,4.28.06,2.49.45,5-.25,7.51.18,3.13,0,6.24.26,9.36.49l.39.27.38-.33a14.16,14.16,0,0,0,3.62-.33,8.81,8.81,0,0,0,3.47,0c1.34-.42,2.72.1,4.09.05,2.72.69,5.53,0,8.28.22a4.21,4.21,0,0,0,2.36-.11c1.59.1,3.17.95,4.75.36,2.32.21,4.78-.72,7.08.14,1.56.14,3.14-.23,4.7.09,1-.07,2,.51,2.93,0l.33.2a9.79,9.79,0,0,0,3.66-.09c1.47.74,3.22.34,4.62,1.23.32-.25.66-.49,1-.73,1.81,1.25,3.71-1.22,5.7-.45,2.37-.21,4.25,1.48,6.49,1.83a2.37,2.37,0,0,1,2.68-1c1.16.42,2.15-.51,3.28-.6,1.14.34,2.21,1.11,3.45.73a7.11,7.11,0,0,1,3.49-.08,3.55,3.55,0,0,1,3.81-.39,11.27,11.27,0,0,1,3.52-.25c1.84.44,3.82,1.5,5.7.68,0-.27,0-.53,0-.8.39-.2.78-.4,1.16-.62,1.12.64,2.53.45,3.52,1.3l.22-.25a5.36,5.36,0,0,1,2.11.21c.17.27.34.54.52.8a6.12,6.12,0,0,0,.93,1.77c1.07-.43,1.45-1.75,2.31-2.49a7.52,7.52,0,0,1,2.74.42,9.63,9.63,0,0,1,3.89-.22c.77.18,1.45-.67,2.23-.34,1.71.41,3.63.95,5.28.08a2.4,2.4,0,0,1,1.52,0l.17-.09a4,4,0,0,0,3.35.4c1.27-.58,2.7-.32,4.05-.44.32.37.6.77.88,1.16l.49,0c.85-1.31,2.46-1.07,3.75-.71a27,27,0,0,1,5.87.42c1.53-1,3.29-.09,4.93-.63,1.71.45,3.59.13,5.18,1a12.21,12.21,0,0,1,1.87-2.31c-.13-.33-.24-.66-.34-1a16.76,16.76,0,0,1-2.2-2c-1.54-.7-3.31-.84-4.76-1.79-2.54-2.11-5.64-3.28-8.4-5l-.44.38a2.6,2.6,0,0,1-1.1-.92c-2.46-.93-4.22-3.18-7-3.46a8.73,8.73,0,0,0-3.35-1.77c-.66-1.11-2.09-1.38-2.86-2.41s-2.34-1.38-3.67-1.65c-1.49-1.58-3.84-1.55-5.52-2.82a10.69,10.69,0,0,0-1.48-.27,19.64,19.64,0,0,0-3.51-3.31c-1.92-.06-3.19-1.74-4.91-2.38-1.12-.35-1.94-1.27-3.07-1.58-1-.63-2.32-.84-3.19-1.76-1.76-1.62-4.55-1.57-6.14-3.45a6.94,6.94,0,0,1-3.83-2.74c-1.27-.18-2.2-1.18-3.44-1.46a41.21,41.21,0,0,1-4.81-3c-.58-.17-1.15-.4-1.74-.55l-.41-.39h-.48c-.74-.83-1.93-1-2.68-1.78l-.45,0-2.4-1.71c-.81-.48-2-.45-2.44-1.4a6,6,0,0,1-2.65-1.36h-.46c-1-1.18-2.56-1.45-3.63-2.47h-.48l-.41-.39c-1.37-.16-1.86-1.66-3.19-2a8,8,0,0,1-3.8-2.28,6.22,6.22,0,0,1-2.72-1.13l-.43,0c-2.4-1.53-4.43-3.55-7.23-4.33a8.73,8.73,0,0,1-2.37-1.66,25.14,25.14,0,0,1-7.47-4.29c-.51-.07-1-.18-1.51-.28a4.65,4.65,0,0,0-2.39-1.63c-1.24-1.18-3.26-.85-4.54-2a10.13,10.13,0,0,1-2-6.63c1.82-2.55,5.27-2.89,8.13-2.87,2.42,1.58,3.82,4.44,6.45,5.79.81.34,1.51,1,2.44,1,1.26.69,2.1,1.93,3.37,2.61,1.11.19,1.84,1.16,2.86,1.56,1.67.59,2.79,2.24,4.66,2.36l1.39,1.32c2.38-.49,4,1.6,5.49,3.1a29.32,29.32,0,0,1,3.06.81c1.53.58,2.37,2.13,3.84,2.8.69.29,1.42.95,2.17.43a2.73,2.73,0,0,1,2.23,1.71l.77.48a12.22,12.22,0,0,1,1.23.28.91.91,0,0,0,1.19.92l1.64,1.54c1.7-.08,3.12,1,4.38,2l1.4,0c.86,1.22,2.34,1.47,3.68,1.84a14.87,14.87,0,0,0,1.59,1.77,2.55,2.55,0,0,1,2.21.63h.53c.68,1.72,2.52,2.39,3.9,3.41a7.13,7.13,0,0,0,4.45,1.31,26.37,26.37,0,0,0,3.65,3c1,1,2.64,1,3.62,2s2.45.82,3.47,1.69a10,10,0,0,0,4.24,2.3c1.59.34,2.35,2.1,4,2.29,1.26.6,2.17,1.82,3.58,2.09a15.2,15.2,0,0,1,2.12,1.1,6,6,0,0,1,3.67,2,7.12,7.12,0,0,0,2.67,1.56,19.17,19.17,0,0,0,5.66,2.75c1.14.28,1.81,1.31,2.67,2a12.82,12.82,0,0,1,2.46,1c.66,1.05,2.07,1.1,3.12,1.57a26.67,26.67,0,0,1,5,3.51c1.36.31,3,.5,3.85,1.74,2.2,1.21,4.59,2.1,6.76,3.39l.43,0c1.34.81,2.34,2.2,3.92,2.55.74,1,1.93,1.09,3,1.28,1.25,1.05,3.13.88,4.17,2.24a6.57,6.57,0,0,1,3,2.4,14.44,14.44,0,0,0,3.16,1.47c1.36.81,2.93,1.39,4,2.58.82,1.21,1.55,2.73,1,4.2-.49,2-2.58,2.8-3.71,4.34-1.15.83-2.59,1.06-3.86,1.65a7.39,7.39,0,0,1-2,1.07c-1.83,1.42-3.72,2.95-6.09,3.29a46,46,0,0,1-5.78,3.24,7,7,0,0,1-2.75,1.73c-1.49,1.26-3.68,1.13-5.17,2.4-2.4.33-4.52,1.68-6.85,2.35-1.88.38-3.32,1.62-5,2.38a32.1,32.1,0,0,0-3,2,4.61,4.61,0,0,0-1.43.77c-.56.21-1.1.48-1.67.67-1.31,1.45-3.06,2.44-4.29,4-.48.22-1,.44-1.43.68-.51.82-1.4,1.51-1.28,2.59-1.94-.24-3.59.93-5.31,1.56-1.81,0-2,2.3-3.6,2.81-.82,1.88-3,1.79-4.69,2.22l-.38.4c-.91.21-1.72.76-2.65.9-2.34,2.54-5.85,3.25-8.81,4.79-1.68,1.42-4.06,1.48-5.58,3.11-1.2.31-2.62.46-3.44,1.51s-2.34,1.36-3.35,2.28l-.67,0a8.93,8.93,0,0,1-4.66,3.28l-.59.59c-1.06.34-2,1.07-3.13,1.16l-.85.9c-1.23-.08-2.1,1.08-3.36.85-1,1.6-2.18,3.13-4.15,3.49l-.59.59c-.76.23-1.43.67-2.17.93-2.41,1.49-5,3.33-7.93,3.48-.72,1.09-1.91,1.61-2.91,2.38-1.08,1.45-3.06,1.33-4.47,2.24-.69.32-.78,1.19-1.27,1.72-2.22.4-3.45,2.64-5.74,2.89l-.4.39c-.53.1-1.07.23-1.6.36-.49-.45-1.06-.81-1.59-1.21-.08.49-.19,1-.28,1.44m37.94-28.36c0-.31,0-.62,0-.94a1,1,0,0,0-1.17,1.34c.41-.12.81-.26,1.21-.4m-389.7,2.8c0-.31,0-.62,0-.94-.12-.09-.36-.29-.49-.38l-.55.47a1,1,0,0,0,1.05.85m463.81-41.88c.11-.27.23-.53.35-.79l-.38-.4h-.77a10.21,10.21,0,0,0-.9,1.18c.56,0,1.13,0,1.7,0m3-2.28h0m9.8-12.81c.9-.73.6-1.76.38-2.72l-.41-.41a5.52,5.52,0,0,0-.35-1.56l-.86,0a2.44,2.44,0,0,0,0,1.93,1.93,1.93,0,0,0-2.16.29c0,.49,0,1,0,1.48a1.86,1.86,0,0,1,1,2.09l.26.33c-.11.29-.21.57-.31.85a4.55,4.55,0,0,1,1.7,1.09c1.79,0,.72-2.3.64-3.4m-35.45,3.12a1,1,0,0,0-1.23-.83c.16.56.77.65,1.23.83m-67,1.65c.49-1.29-1.14.15,0,0m-121.92-.8c0-.93-.7-1.71-.61-2.68a14.48,14.48,0,0,0-1.75-.77c-1.11,1-.64,2.58-1.22,3.82,1.14.81,2.5.19,3.58-.37m46-1.6a13.84,13.84,0,0,1,1.45-1.86c-.59-.91-1.14-1.86-2.28-2.14l-.35.3h-1c-.53,1.16,0,2.37.11,3.55a1.9,1.9,0,0,0,2.06.14m-72.35-3.79c-.24-.24-.49-.49-.75-.73a12.87,12.87,0,0,0,0,1.52c.24-.26.47-.52.7-.79m-32.23,1.09c.07-.33.16-.66.24-1a1.54,1.54,0,0,0-1.47.11l-.31-.26-.37.47.64,1a12.47,12.47,0,0,0,1.27-.37M364,503.8c-.28-.82-.87.54,0,0m-82.88,2.57.33-.4c-.12-.31-.24-.63-.34-1l-.88-.83c-.2.52-.36,1.05-.52,1.59l.67.62.74,0m476.53-17.53a18.9,18.9,0,0,0-.1-2.26,4.61,4.61,0,0,0-1.35,1.14c0,.13,0,.39,0,.52.48.19,1,.41,1.42.6m1.1-2.51a5.8,5.8,0,0,0,.25-1.71c-.71.48-1.46,1-1.45,2,.4-.07.8-.17,1.2-.25m-28.21-13.54c-.1-.32-.2-.64-.32-1l-.72.38c0,.15,0,.46,0,.62l1,0M715,461.69c0-.14,0-.42,0-.57-.3-.18-.6-.37-.9-.58l-1.24,0c0,.15,0,.44,0,.59l.61.57,1.54-.05"></path></g></g></g></svg>