<svg width="1120" height="1029" viewBox="0 0 1120 1029" fill="none" xmlns="http://www.w3.org/2000/svg">
<g clip-path="url(#clip0_198_29811)">
<g clip-path="url(#clip1_198_29811)">
<mask id="mask0_198_29811" style="mask-type:luminance" maskUnits="userSpaceOnUse" x="260" y="120" width="600" height="538">
<path d="M859.259 120H260.013V657.111H859.259V120Z" fill="white"></path>
</mask>
<g mask="url(#mask0_198_29811)">
<path d="M619.539 476.481C635.967 477.101 651.918 478.251 668.076 476.463C678.046 475.852 687.746 472.574 691.868 463.79C695.811 455.383 696.862 443.914 689.928 436.791C670.797 417.13 607.306 443.806 560.243 401.871C549.069 391.919 548.036 374.558 555.213 361.471C565.865 342.035 585.813 332.802 607.414 330.305L674.983 325.32C687.467 324.395 698.416 317.021 697.195 303.198C696.557 295.986 688.303 291.181 681.01 290.93L626.311 289.052C606.013 288.361 587.089 279.855 572.134 266.122C549.914 245.716 555.913 198.85 565.811 171.025L562.398 167.872C586.756 119.281 656.795 121.985 705.817 123.449C732.843 119.524 758.431 123.386 782.565 135.601C824.581 150.573 859.591 206.188 859.259 249.362C858.99 284.517 843.856 321 820.665 346.014C806.393 361.408 789.66 368.324 771.778 381.608C798.786 393.356 816.336 410.08 831.138 433.118C850.349 463.045 861.612 499.007 853.816 534.628C849.828 552.825 843.092 572.639 829.952 585.159C822.102 594.572 818.213 606.23 807.255 614.367C779.412 646.099 738.645 661.584 697.284 655.97C698.29 648.83 693.602 652.647 694.859 645.659C694.994 644.878 691.859 645.174 690.844 645.21C689.901 645.246 690 646.504 690.494 648.839C661.205 649.153 631.826 649.503 604.064 641.411C554.584 626.986 552.94 578.324 560.072 533.335C565.129 501.45 586.424 480.056 619.539 476.481Z" stroke="white" stroke-width="2"></path>
<path d="M578.807 632.124C611.842 655.225 653.247 648.381 690.656 653.473C660.953 657.982 629.796 655.162 602.474 647.734C576.84 640.764 559.56 623.96 554.315 598.003C549.213 572.782 551.27 545.846 557.97 520.868C564.877 495.127 584.071 478.933 610.629 473.221C637.79 467.383 691.213 481.134 687.728 450.875C686.632 441.354 677.381 434.465 666.298 434.609C635.041 435.013 604.639 433.603 575.314 420.014C564.428 415.469 555.015 408.427 547.938 398.988C537.833 373.947 548.36 347.289 572.143 334.293C611.357 312.863 690.692 332.631 690.009 307.114C689.309 280.592 619.512 314.659 569.907 273.658C543.653 251.958 547.219 199.245 562.012 169.453C555.338 199.685 544.776 245.06 569.952 268.386C585.678 282.963 606.318 291.298 627.784 291.891L678.773 293.292C684.979 293.462 690.97 296.112 692.955 301.447C695.012 306.953 692.632 314.39 687.395 318.207C673.95 327.997 624.614 321.898 587.017 331.832C557.108 339.736 539.917 367.39 550.569 396.688C556.892 406.137 566.125 413.062 576.814 417.615C600.372 428.349 624.237 432.803 650.211 432.049C661.106 431.726 672.351 430.98 682.078 435.489C690.62 439.45 692.748 449.563 690.62 457.674C688.464 465.874 681.683 471.299 672.468 473.041C653.876 475.08 635.05 474.155 616.863 474.002C584.295 478.933 563.664 500.094 557.952 531.736C551.952 564.923 549.078 611.313 578.807 632.106V632.124Z" stroke="white" stroke-width="2"></path>
<path d="M459.756 274.87L487.671 275.337L487.617 277.277L455.984 277.071C432.874 276.918 410.869 262.925 402.444 241.037C396.813 226.414 399.202 211.586 400.513 196.182C402.363 174.339 413.294 151.93 433.88 141.628C451.268 132.925 471.585 127.122 491.398 128.676C450.702 135.547 424.359 137.613 406.647 178.174C402.363 197.781 400.504 216.984 403.675 236.923C412.261 260.078 434.805 274.448 459.765 274.87H459.756Z" stroke="white" stroke-width="2"></path>
<path d="M402.534 528.736C395.51 552.295 394.253 578.773 402.507 602.062C409.611 622.127 428.518 634.809 447.721 641.133C462.217 645.902 475.905 647.518 490.689 651.91L367.371 650.033C347.665 649.737 329.055 648.003 310.239 644.15C285.557 639.094 268.214 621.678 263.705 596.772C259.51 573.609 259.088 549.87 261.486 526.23C265.815 483.658 301.284 472.143 340.327 471.667L376.236 471.227C388.783 471.074 395.914 465.164 396.157 453.443C396.732 424.962 362.422 440.564 336.007 430.495C327.106 427.1 316.463 421.954 315.646 410.709C327.465 422.969 338.073 428.87 353.422 430.271C359.512 430.828 365.431 432.866 371.942 431.878C378.454 430.89 385.127 433.54 391.693 434.932C385.666 428.151 377.251 429.444 369.077 429.444C346.408 430.747 325.579 422.205 313.382 402.625C293.784 369.42 324.043 313.77 348.851 316.168L377.251 312.638C384.104 310.258 389.313 305.426 388.702 298.896C388.19 293.426 381.759 287.894 375.014 287.813C343.812 287.454 289.15 290.48 273.674 264.479C261.899 242.141 258.289 216.948 261.199 191.772C263.31 137.811 305.469 120.539 355.192 120.162C404.097 119.784 452.301 120.027 503.038 121.563C479.381 127.94 457.052 126.072 436.799 136.76C413.509 149.047 400.387 166.543 397.585 192.904C393.561 230.744 394.648 258.398 433.925 276.532C451.385 281.256 468.082 278.813 484.617 280.358C499.706 286.645 525.726 274.251 532.238 297.414C533.917 305.076 528.088 310.357 521.828 315.548C485.614 324.305 444.191 316.698 413.626 341.308C402.211 350.496 394.486 362.666 395.537 377.962C398.106 415.424 451.879 424.989 484.321 431.016C493.248 432.678 502.455 440.42 504.682 447.183C508.338 458.284 504.646 467.068 496.832 474.272C509.397 470.733 512.505 457.871 509.245 447.084C506.137 435.534 496.652 428.097 484.348 428.358C461.929 424.513 440.679 418.316 420.623 407.915C404.348 399.473 394.145 381.294 400.863 363.564C414.524 327.521 469.025 324.287 505.67 321.305C518.388 320.273 527.379 316.33 534.483 304.788C531.564 333.494 478.474 316.967 429.461 338.074C413.761 344.837 401.492 358.615 402.166 375.788C403.531 410.394 464.004 422.6 494.775 427.262C503.281 428.555 509.909 437.375 512.119 443.599C515.46 453.012 515.307 463.027 509.272 470.068C500.488 480.316 488.21 479.544 476.094 478.924C441.406 477.173 412.638 494.795 402.516 528.754L402.534 528.736Z" stroke="white" stroke-width="2"></path>
<path d="M405.031 586.776C410.59 626.879 457.25 641.141 492.557 646.495C460.951 646.189 422.473 632.905 407.636 605.251C397.423 586.219 400.522 566.037 402.13 545.774C405.067 508.77 431.455 482.274 468.998 481.726C476.255 481.619 484.222 480.415 491.264 481.196L490.823 483.505L462.082 484.987C440.688 488.094 420.632 498.971 412.171 519.53C403.441 540.736 401.905 564.295 405.022 586.776H405.031Z" stroke="white" stroke-width="2"></path>
</g>
</g>
<path d="M164.72 789.8C162.68 789.8 161.36 788.36 161.36 786.8V764.6H93.8V779H149.36V789.8H104.84V789.68H86.84C84.68 789.68 83 788.24 83 786.08V759.8C83 756.68 85.28 754.52 88.4 754.4L148.76 751.4L158.36 721.4L80.36 730.4C74.84 731 71 734.24 71 739.52V801.8C71 810.32 75.68 815 84.2 815H142.28C150.8 815 155.48 810.44 155.48 801.8C155.48 810.32 160.16 815 168.68 815H186.68L196.28 789.8H164.72ZM244.4 789.8C242.36 789.8 241.04 788.36 241.04 786.8V749L229.04 755H193.64C188.12 755 184.28 758.84 184.28 764.12V801.8C184.28 810.32 188.96 815 197.48 815H219.44L229.04 797V801.8C229.04 810.32 233.72 815 242.24 815H267.56L277.16 789.8H244.4ZM229.04 786.8C229.04 788.36 227.72 789.8 225.68 789.8H201.68C198.56 789.8 196.28 787.52 196.28 784.4C196.28 781.28 198.56 779 201.68 779H229.04V786.8ZM344.48 789.8C342.44 789.8 341.12 788.36 341.12 786.8V764.12C341.12 758.84 337.28 755 331.76 755H277.16V749L265.16 755V815H277.16V779H289.16V815H301.16V779H328.16C330.2 779 331.52 780.56 331.52 782V801.8C331.52 810.32 336.2 815 344.72 815H367.64L377.24 789.8H344.48ZM422 755H374.6C369.08 755 365.24 758.84 365.24 764.12V801.8C365.24 810.32 369.92 815 378.44 815H436.52L446.12 789.8L408.68 789.68L422 755ZM377.24 786.8V779H401.96L397.64 789.68H380.6C378.56 789.68 377.24 788.36 377.24 786.8ZM470.12 779H487.28L496.88 755H434.36L465.8 789.8H443.72V779L434.12 789.8V802.76C434.12 809.84 439.28 815 446.36 815H469.04C477.56 815 482.24 810.32 482.24 801.8C482.24 810.32 486.92 815 495.44 815H516.2L525.8 789.8H479.36L470.12 779ZM629 815C637.52 815 642.2 810.32 642.2 801.8V780.2H647V765.8H642.2V761H630.2V765.8H567.2C565.52 765.8 564.2 764.48 564.2 762.8V758.72C564.2 756.56 565.88 755 568.04 755H642.2V729.8H565.4C556.88 729.8 552.2 734.48 552.2 743V762.08C552.2 767.6 555.08 771.56 560.48 773C555.08 774.44 552.2 778.4 552.2 783.92V801.8C552.2 810.32 556.88 815 565.4 815H629ZM568.04 789.8C565.88 789.8 564.2 788.24 564.2 786.08V783.2C564.2 781.52 565.52 780.2 567.2 780.2H630.2V783.2V786.08C630.2 788.24 628.52 789.8 626.36 789.8H568.04ZM786.32 789.8C784.28 789.8 782.96 788.36 782.96 786.8V740.6C782.96 735.32 779.12 732.08 773.6 731.48L692.6 722.48L683 753.8H765.56C768.68 753.8 770.96 756.08 770.96 759.08V764.6H705.8C697.28 764.6 692.6 769.52 692.6 777.8V801.8C692.6 810.44 697.28 815 705.8 815H763.88C772.4 815 777.08 810.44 777.08 801.8C777.08 810.32 781.76 815 790.28 815H808.28L817.88 789.8H786.32ZM770.96 784.28C770.96 787.4 768.56 789.8 765.44 789.8H710C706.88 789.8 704.6 787.52 704.6 784.4C704.6 781.28 706.88 779 710 779H770.96V784.28ZM866 789.8C863.96 789.8 862.64 788.36 862.64 786.8V764.12C862.64 758.84 858.8 755 853.28 755H817.88V749L805.88 755V779L806 839L818 833V815H843.44C851.96 815 856.64 810.32 856.64 801.8C856.64 810.32 861.32 815 869.84 815H889.16L898.76 789.8H866ZM821.24 789.8C819.44 789.8 818.24 788.72 817.88 787.4V779H845.24C848.36 779 850.64 781.28 850.64 784.4C850.64 787.52 848.36 789.8 845.24 789.8H821.24ZM946.88 789.8C944.84 789.8 943.52 788.36 943.52 786.8V764.12C943.52 758.84 939.68 755 934.16 755H898.76V749L886.76 755V779L886.88 839L898.88 833V815H924.32C932.84 815 937.52 810.32 937.52 801.8C937.52 810.32 942.2 815 950.72 815H970.04L979.64 789.8H946.88ZM902.12 789.8C900.32 789.8 899.12 788.72 898.76 787.4V779H926.12C929.24 779 931.52 781.28 931.52 784.4C931.52 787.52 929.24 789.8 926.12 789.8H902.12ZM1003.64 779H1020.8L1030.4 755H967.88L999.32 789.8H977.24V779L967.64 789.8V802.76C967.64 809.84 972.8 815 979.88 815H1002.56C1011.08 815 1015.76 810.32 1015.76 801.8C1015.76 810.32 1020.44 815 1028.96 815H1049.72L1059.32 789.8H1012.88L1003.64 779Z" stroke="white" stroke-width="1.5"></path>
<path d="M301 922H391" stroke="white" stroke-width="1.5"></path>
<path d="M436 934H432.56L438.99 909.18H443.44L449.84 934H446.4L444.84 927.54H437.56L436 934ZM440.04 917.31L438.21 924.75H444.16L442.36 917.34C442.04 915.98 441.777 914.823 441.57 913.87C441.37 912.917 441.247 912.27 441.2 911.93C441.153 912.27 441.03 912.917 440.83 913.87C440.623 914.823 440.36 915.97 440.04 917.31ZM481.97 934H468.43V930.94H473.5V912.24H468.43V909.18H481.97V912.24H476.9V930.94H481.97V934ZM514.64 924.28H503.76V921.25H514.64V924.28ZM543.68 934H536.03V909.18H543.2C545.487 909.18 547.293 909.753 548.62 910.9C549.947 912.04 550.61 913.61 550.61 915.61C550.61 916.897 550.21 918.047 549.41 919.06C548.603 920.067 547.563 920.683 546.29 920.91V921.01C547.243 921.123 548.09 921.463 548.83 922.03C549.563 922.597 550.14 923.317 550.56 924.19C550.98 925.063 551.19 926.02 551.19 927.06C551.19 929.193 550.517 930.883 549.17 932.13C547.817 933.377 545.987 934 543.68 934ZM539.32 912.14V919.65H543.17C544.437 919.65 545.433 919.317 546.16 918.65C546.887 917.983 547.25 917.07 547.25 915.91C547.25 914.73 546.887 913.807 546.16 913.14C545.433 912.473 544.447 912.14 543.2 912.14H539.32ZM539.32 922.51V931.04H543.37C544.75 931.04 545.837 930.673 546.63 929.94C547.423 929.2 547.82 928.197 547.82 926.93C547.82 925.617 547.423 924.55 546.63 923.73C545.837 922.917 544.75 922.51 543.37 922.51H539.32ZM577.2 934.34C574.867 934.34 573.07 933.693 571.81 932.4C570.55 931.107 569.92 929.35 569.92 927.13V909.18H573.29V927.13C573.29 928.443 573.613 929.477 574.26 930.23C574.907 930.977 575.887 931.35 577.2 931.35C578.493 931.35 579.473 930.977 580.14 930.23C580.807 929.477 581.14 928.443 581.14 927.13V909.18H584.51V927.13C584.51 929.377 583.88 931.14 582.62 932.42C581.367 933.7 579.56 934.34 577.2 934.34ZM617.97 934H604.43V930.94H609.5V912.24H604.43V909.18H617.97V912.24H612.9V930.94H617.97V934ZM653.77 934H639.35V909.18H642.72V930.94H653.77V934ZM680.9 934H677.53V912.24H670.8V909.18H687.6V912.24H680.9V934Z" stroke="white" stroke-width="1.5"></path>
<path d="M729 922H819" stroke="white" stroke-width="1.5"></path>
</g>
<defs>
<clipPath id="clip0_198_29811">
<rect width="1120" height="1029" fill="white"></rect>
</clipPath>
<clipPath id="clip1_198_29811">
<rect width="600" height="538" fill="white" transform="translate(260 120)"></rect>
</clipPath>
</defs>
</svg>