<svg width="528" height="640" viewBox="0 0 528 640" fill="none" xmlns="http://www.w3.org/2000/svg">
<path d="M32 4H10C6.68629 4 4 6.68629 4 10V32C4 35.3137 6.68629 38 10 38H32C35.3137 38 38 35.3137 38 32V10C38 6.68629 35.3137 4 32 4Z" stroke="white" stroke-width="1.5"></path>
<path d="M21.526 21.748V23.75H20.47L19.766 23.024H16.774L16.07 23.75V27.556L18.842 30.328L23.154 30.35L25.926 27.578V22.54L24.694 21.308L25.926 20.076V14.422L23.154 11.65H18.842L16.07 14.422V18.228L16.774 18.954H19.766L20.47 18.228H21.526V19.988H18.38V21.748H21.526Z" stroke="white" stroke-width="1.5"></path>
<path d="M74 4H52C48.6863 4 46 6.68629 46 10V32C46 35.3137 48.6863 38 52 38H74C77.3137 38 80 35.3137 80 32V10C80 6.68629 77.3137 4 74 4Z" stroke="white" stroke-width="1.5"></path>
<path d="M66.048 30.35L66.752 29.624V24.476L66.048 23.75H63.65V12.376L62.924 11.65H59.976L59.25 12.376V29.624L59.976 30.35H66.048Z" stroke="white" stroke-width="1.5"></path>
<path d="M116 4H94C90.6863 4 88 6.68629 88 10V32C88 35.3137 90.6863 38 94 38H116C119.314 38 122 35.3137 122 32V10C122 6.68629 119.314 4 116 4Z" stroke="white" stroke-width="1.5"></path>
<path d="M106.478 29.624L107.182 30.35H110.174L110.878 29.624V12.376L110.174 11.65H107.182L106.478 12.376V19.284H106.258L105.246 15.786H104.762L103.75 19.284H103.53V12.376L102.826 11.65H99.834L99.13 12.376V29.624L99.834 30.35H102.32L103.024 29.624L104.586 24.256H104.938L106.478 29.624Z" stroke="white" stroke-width="1.5"></path>
<path d="M508 5H477.82C468.984 5 461.82 12.1634 461.82 21C461.82 29.8366 468.984 37 477.82 37H508C516.837 37 524 29.8366 524 21C524 12.1634 516.837 5 508 5Z" stroke="white" stroke-width="1.5"></path>
<path d="M479.796 21.408V22.5H479.22L478.836 22.104H477.204L476.82 22.5V24.588L478.332 26.1H480.684L482.196 24.588V21.36L481.284 20.448H479.22V19.488H479.796L480.18 19.884H481.812L482.196 19.488V17.412L480.684 15.9H478.332L476.82 17.412V20.496L477.732 21.408H479.796ZM483.7 15.9L483.316 16.296V19.104L483.7 19.5H485.008V25.704L485.392 26.1H487.024L487.408 25.704V19.5H488.716L489.1 19.104V16.296L488.716 15.9H483.7ZM491.732 15.9L490.22 17.412V25.704L490.604 26.1H492.236L492.62 25.704V22.464H493.196V25.704L493.58 26.1H495.212L495.596 25.704V17.412L494.084 15.9H491.732ZM492.62 21.504V19.5H493.196V21.504H492.62ZM497.1 15.9L496.716 16.296V19.104L497.1 19.5H498.408V25.704L498.792 26.1H500.424L500.808 25.704V19.5H502.116L502.5 19.104V16.296L502.116 15.9H497.1ZM506.596 21.408V22.5H506.02L505.636 22.104H504.004L503.62 22.5V24.588L505.132 26.1H507.484L508.996 24.588V21.36L508.084 20.448H506.02V19.488H506.596L506.98 19.884H508.612L508.996 19.488V17.412L507.484 15.9H505.132L503.62 17.412V20.496L504.532 21.408H506.596Z" stroke="white" stroke-width="1.5"></path>
<path d="M437.82 5H420.42C411.583 5 404.42 12.1634 404.42 21C404.42 29.8366 411.583 37 420.42 37H437.82C446.657 37 453.82 29.8366 453.82 21C453.82 12.1634 446.657 5 437.82 5Z" stroke="white" stroke-width="1.5"></path>
<path d="M421.82 16.296L421.424 15.9H419.816L419.42 16.296V25.704L419.816 26.1H421.424L421.82 25.704V22.8H422.396V25.704L422.792 26.1H424.4L424.796 25.704V16.296L424.4 15.9H422.792L422.396 16.296V19.2H421.82V16.296ZM427.428 26.1H429.78L431.292 24.588V17.412L429.78 15.9H427.428L425.916 17.412V24.588L427.428 26.1ZM428.316 22.5V19.5H428.892V22.5H428.316ZM436.42 25.704L436.804 26.1H438.436L438.82 25.704V16.296L438.436 15.9H436.804L436.42 16.296V20.064H436.3L435.748 18.156H435.484L434.932 20.064H434.812V16.296L434.428 15.9H432.796L432.412 16.296V25.704L432.796 26.1H434.152L434.536 25.704L435.388 22.776H435.58L436.42 25.704Z" stroke="white" stroke-width="1.5"></path>
<path d="M200 256H190V298H200V256Z" stroke="white" stroke-width="1.5"></path>
<path d="M354 256H344V298H354V256Z" stroke="white" stroke-width="1.5"></path>
<path d="M152 298H392" stroke="white" stroke-width="1.5"></path>
<path d="M126 96H406L444 136L406 176H126L88 136L126 96Z" stroke="white" stroke-width="1.5"></path>
<path d="M146 188H386L424 228L386 268H146L108 228L146 188Z" stroke="white" stroke-width="1.5"></path>
<path d="M120 88H400L438 128L400 168H120L82 128L120 88Z" stroke="white" stroke-width="1.5"></path>
<path d="M181.898 136.564V140.75H179.69L178.218 139.232H171.962L170.49 140.75V148.708L176.286 154.504L185.302 154.55L191.098 148.754V138.22L188.522 135.644L191.098 133.068V121.246L185.302 115.45H176.286L170.49 121.246V129.204L171.962 130.722H178.218L179.69 129.204H181.898V132.884H175.32V136.564H181.898ZM225.572 154.55L227.044 153.032V142.268L225.572 140.75H220.558V116.968L219.04 115.45H212.876L211.358 116.968V153.032L212.876 154.55H225.572ZM248.26 136.84L249.732 135.322V134.678L248.26 133.16H241.544V129.25H249.456L250.928 127.732V116.968L249.456 115.45H233.816L232.344 116.968V153.032L233.816 154.55H249.456L250.928 153.032V142.268L249.456 140.75H241.544V136.84H248.26ZM258.16 115.45L256.688 116.968V127.732L258.16 129.25H263.174V153.032L264.646 154.55H270.902L272.374 153.032V129.25H277.388L278.86 127.732V116.968L277.388 115.45H258.16ZM286.092 115.45L284.62 116.968V127.732L286.092 129.25H291.106V153.032L292.578 154.55H298.834L300.306 153.032V129.25H305.32L306.792 127.732V116.968L305.32 115.45H286.092ZM328.468 136.84L329.94 135.322V134.678L328.468 133.16H321.752V129.25H329.664L331.136 127.732V116.968L329.664 115.45H314.024L312.552 116.968V153.032L314.024 154.55H329.664L331.136 153.032V142.268L329.664 140.75H321.752V136.84H328.468ZM336.896 153.032L338.368 154.55H344.624L346.096 153.032V137.898H348.304V153.032L349.776 154.55H356.032L357.504 153.032V139.416L354.146 136.058L357.504 132.7V121.246L351.708 115.45H338.368L336.896 116.968V153.032ZM346.096 134.218V129.25H348.304V134.218H346.096Z" stroke="white" stroke-width="1.5"></path>
<path d="M177.898 131.564V135.75H175.69L174.218 134.232H167.962L166.49 135.75V143.708L172.286 149.504L181.302 149.55L187.098 143.754V133.22L184.522 130.644L187.098 128.068V116.246L181.302 110.45H172.286L166.49 116.246V124.204L167.962 125.722H174.218L175.69 124.204H177.898V127.884H171.32V131.564H177.898ZM221.572 149.55L223.044 148.032V137.268L221.572 135.75H216.558V111.968L215.04 110.45H208.876L207.358 111.968V148.032L208.876 149.55H221.572ZM244.26 131.84L245.732 130.322V129.678L244.26 128.16H237.544V124.25H245.456L246.928 122.732V111.968L245.456 110.45H229.816L228.344 111.968V148.032L229.816 149.55H245.456L246.928 148.032V137.268L245.456 135.75H237.544V131.84H244.26ZM254.16 110.45L252.688 111.968V122.732L254.16 124.25H259.174V148.032L260.646 149.55H266.902L268.374 148.032V124.25H273.388L274.86 122.732V111.968L273.388 110.45H254.16ZM282.092 110.45L280.62 111.968V122.732L282.092 124.25H287.106V148.032L288.578 149.55H294.834L296.306 148.032V124.25H301.32L302.792 122.732V111.968L301.32 110.45H282.092ZM324.468 131.84L325.94 130.322V129.678L324.468 128.16H317.752V124.25H325.664L327.136 122.732V111.968L325.664 110.45H310.024L308.552 111.968V148.032L310.024 149.55H325.664L327.136 148.032V137.268L325.664 135.75H317.752V131.84H324.468ZM332.896 148.032L334.368 149.55H340.624L342.096 148.032V132.898H344.304V148.032L345.776 149.55H352.032L353.504 148.032V134.416L350.146 131.058L353.504 127.7V116.246L347.708 110.45H334.368L332.896 111.968V148.032ZM342.096 129.218V124.25H344.304V129.218H342.096Z" stroke="white" stroke-width="1.5"></path>
<path d="M140 180H380L418 220L380 260H140L102 220L140 180Z" stroke="white" stroke-width="1.5"></path>
<path d="M205.478 209.256L198.422 202.2H182.182L180.39 204.048V247.952L182.182 249.8H198.422L205.478 242.744V209.256ZM191.59 233V219H194.278V233H191.59ZM219.894 202.2L212.838 209.256V247.952L214.63 249.8H222.246L224.038 247.952V232.832H226.726V247.952L228.518 249.8H236.134L237.926 247.952V209.256L230.87 202.2H219.894ZM224.038 228.352V219H226.726V228.352H224.038ZM247.078 202.2L245.286 204.048V217.152L247.078 219H252.398V233H247.078L245.286 234.848V247.952L247.078 249.8H268.918L270.71 247.952V234.848L268.918 233H263.598V219H268.918L270.71 217.152V204.048L268.918 202.2H247.078ZM295.374 249.8L297.166 247.952V234.848L295.374 233H289.27V204.048L287.422 202.2H279.918L278.07 204.048V247.952L279.918 249.8H295.374ZM310.91 247.952L312.702 249.8H320.318L322.11 247.952V234.232L329.054 227.344V204.048L327.262 202.2H319.646L317.854 204.048V217.432H315.166V204.048L313.374 202.2H305.758L303.966 204.048V227.344L310.91 234.232V247.952ZM336.414 247.952L338.262 249.8H345.766L347.614 247.952V240.448L345.766 238.6H338.262L336.414 240.448V247.952Z" stroke="white" stroke-width="1.5"></path>
<path d="M201.478 204.256L194.422 197.2H178.182L176.39 199.048V242.952L178.182 244.8H194.422L201.478 237.744V204.256ZM187.59 228V214H190.278V228H187.59ZM215.894 197.2L208.838 204.256V242.952L210.63 244.8H218.246L220.038 242.952V227.832H222.726V242.952L224.518 244.8H232.134L233.926 242.952V204.256L226.87 197.2H215.894ZM220.038 223.352V214H222.726V223.352H220.038ZM243.078 197.2L241.286 199.048V212.152L243.078 214H248.398V228H243.078L241.286 229.848V242.952L243.078 244.8H264.918L266.71 242.952V229.848L264.918 228H259.598V214H264.918L266.71 212.152V199.048L264.918 197.2H243.078ZM291.374 244.8L293.166 242.952V229.848L291.374 228H285.27V199.048L283.422 197.2H275.918L274.07 199.048V242.952L275.918 244.8H291.374ZM306.91 242.952L308.702 244.8H316.318L318.11 242.952V229.232L325.054 222.344V199.048L323.262 197.2H315.646L313.854 199.048V212.432H311.166V199.048L309.374 197.2H301.758L299.966 199.048V222.344L306.91 229.232V242.952ZM332.414 242.952L334.262 244.8H341.766L343.614 242.952V235.448L341.766 233.6H334.262L332.414 235.448V242.952Z" stroke="white" stroke-width="1.5"></path>
<path d="M102 102C109.732 102 116 95.732 116 88C116 80.268 109.732 74 102 74C94.268 74 88 80.268 88 88C88 95.732 94.268 102 102 102Z" stroke="white" stroke-width="1.5"></path>
<path d="M103.368 91.124H100.624L99.49 89.934V86.07L100.624 84.88H103.368L104.488 86.056V89.948L103.368 91.124ZM101.814 87.862V87.26H102.178V87.862H101.814ZM100.106 92.678H103.886L106.042 90.396V85.608L103.886 83.326H100.106L97.95 85.608V90.396L100.106 92.678ZM100.26 90.032L100.512 90.298H101.562L101.814 90.032V88.478H102.178V90.032L102.43 90.298H103.48L103.732 90.032V88.884L103.172 88.324L103.732 87.764V86.686L102.752 85.706H100.512L100.26 85.958V90.032Z" stroke="white" stroke-width="1.5"></path>
<path d="M214 352H166C161.582 352 158 355.582 158 360V408C158 412.418 161.582 416 166 416H214C218.418 416 222 412.418 222 408V360C222 355.582 218.418 352 214 352Z" stroke="white" stroke-width="1.5"></path>
<path d="M191.006 385.428V389.25H188.99L187.646 387.864H181.934L180.59 389.25V396.516L185.882 401.808L194.114 401.85L199.406 396.558V386.94L197.054 384.588L199.406 382.236V371.442L194.114 366.15H185.882L180.59 371.442V378.708L181.934 380.094H187.646L188.99 378.708H191.006V382.068H185V385.428H191.006Z" stroke="white" stroke-width="1.5"></path>
<path d="M288 352H240C235.582 352 232 355.582 232 360V408C232 412.418 235.582 416 240 416H288C292.418 416 296 412.418 296 408V360C296 355.582 292.418 352 288 352Z" stroke="white" stroke-width="1.5"></path>
<path d="M269.818 401.85L271.162 400.464V390.636L269.818 389.25H265.24V367.536L263.854 366.15H258.226L256.84 367.536V400.464L258.226 401.85H269.818Z" stroke="white" stroke-width="1.5"></path>
<path d="M362 352H314C309.582 352 306 355.582 306 360V408C306 412.418 309.582 416 314 416H362C366.418 416 370 412.418 370 408V360C370 355.582 366.418 352 362 352Z" stroke="white" stroke-width="1.5"></path>
<path d="M340.818 400.464L342.162 401.85H347.874L349.218 400.464V367.536L347.874 366.15H342.162L340.818 367.536V380.724H340.398L338.466 374.046H337.542L335.61 380.724H335.19V367.536L333.846 366.15H328.134L326.79 367.536V400.464L328.134 401.85H332.88L334.224 400.464L337.206 390.216H337.878L340.818 400.464Z" stroke="white" stroke-width="1.5"></path>
<path d="M128.408 482.822C128.408 489.124 134.434 489.4 139.08 490.688C137.516 491.194 135.814 491.424 134.204 491.424C133.376 491.424 132.502 491.378 131.674 491.148C130.938 490.964 130.294 490.642 129.512 490.642C127.258 490.642 125.372 492.528 125.372 494.782C125.372 499.106 130.938 499.704 134.204 499.704C139.586 499.704 149.43 497.45 149.43 490.596C149.43 486.18 145.244 483.834 141.472 482.776C140.046 482.408 138.62 482.178 137.24 481.764C138.39 479.096 140.644 475.738 143.404 474.726C143.588 474.634 143.772 474.634 143.91 474.634C144.646 474.634 144.6 475.6 144.462 476.888C144.186 478.866 145.014 480.844 148.51 480.844C149.936 480.844 151.638 480.154 152.65 478.636C155.548 474.404 154.674 466.124 145.152 466.124C137.654 466.124 128.408 475.14 128.408 482.822ZM165.362 491.562C165.04 492.85 164.534 494.276 164.534 495.61C164.534 497.864 166.42 499.75 168.674 499.75C170.56 499.75 172.17 498.462 172.676 496.668L175.482 484.524C176.08 483.742 177 483.236 177.782 483.236C177.966 483.236 178.15 483.282 178.288 483.328C178.794 483.512 179.024 483.834 178.886 484.57C178.518 486.41 178.15 488.112 177.644 490.596C176.586 495.334 178.15 499.75 184.268 499.75C188.04 499.75 194.388 494.506 195.4 492.896C197.24 490.228 196.78 488.112 195.584 486.824C194.756 485.996 193.606 485.536 192.594 485.536C191.996 485.536 191.398 485.674 190.984 486.042C189.65 487.192 188.5 488.572 187.028 489.492C186.89 489.584 186.752 489.63 186.66 489.63C186.384 489.63 186.292 489.354 186.476 488.48L187.166 485.168C188.408 478.636 188.132 473.944 181.968 473.944C180.082 473.944 177.736 474.91 175.712 476.658C174.976 474.864 173.274 473.944 170.146 473.944C168.444 473.944 166.328 474.772 164.442 476.198C163.798 474.864 162.372 473.944 160.762 473.944C158.416 473.944 157.082 475.554 156.622 477.624L155.38 483.374L153.448 491.562C153.126 492.85 152.62 494.276 152.62 495.61C152.62 497.864 154.506 499.75 156.76 499.75C158.646 499.75 160.256 498.462 160.762 496.668C161.222 495.104 161.498 493.494 161.866 491.884L163.522 484.708C164.212 483.65 165.592 483.006 166.466 483.328C166.972 483.512 167.202 483.834 167.064 484.57L165.362 491.562ZM190.034 486.87C189.068 493.31 191.782 499.75 199.372 499.75C201.12 499.75 203.006 499.336 204.616 498.6C205.674 499.336 207.054 499.75 208.664 499.75C212.436 499.75 218.784 494.506 219.796 492.896C221.636 490.228 221.176 488.112 219.98 486.824C219.152 485.996 218.002 485.536 216.99 485.536C216.392 485.536 215.794 485.674 215.38 486.042C214.046 487.192 212.896 488.572 211.424 489.492C211.286 489.584 211.148 489.63 211.056 489.63C210.826 489.63 210.734 489.354 210.872 488.48L212.298 481.948C212.574 480.66 213.034 479.372 213.034 478.084C213.034 475.83 211.148 473.944 208.894 473.944C207.928 473.944 206.962 474.266 206.226 474.91C204.892 474.266 203.512 473.944 202.04 473.944C195.508 473.944 191 480.476 190.034 486.87ZM202.178 482.362C202.96 482.362 203.328 482.638 203.604 483.098C203.098 485.398 202.224 488.986 201.672 491.47C201.212 491.562 200.798 491.562 200.338 491.516C198.636 491.286 198.222 489.124 198.682 486.916C199.188 484.616 200.614 482.362 202.178 482.362ZM226.942 474.082C227.218 472.794 227.632 471.368 227.632 470.08C227.632 467.826 225.792 466.078 223.538 466.078C221.192 466.078 219.858 467.688 219.398 469.758L216.224 483.926L214.844 490.596C213.786 495.334 215.35 499.75 221.468 499.75C225.24 499.75 231.588 494.506 232.6 492.896C234.44 490.228 233.98 488.112 232.784 486.824C231.956 485.996 230.806 485.536 229.794 485.536C229.196 485.536 228.598 485.674 228.184 486.042C226.85 487.192 225.7 488.572 224.228 489.492C224.09 489.584 223.952 489.63 223.86 489.63C223.584 489.63 223.492 489.354 223.676 488.48L226.942 474.082ZM240.068 474.082C240.344 472.794 240.758 471.368 240.758 470.08C240.758 467.826 238.918 466.078 236.664 466.078C234.318 466.078 232.984 467.688 232.524 469.758L229.35 483.926L227.97 490.596C226.912 495.334 228.476 499.75 234.594 499.75C238.366 499.75 244.714 494.506 245.726 492.896C247.566 490.228 247.106 488.112 245.91 486.824C245.082 485.996 243.932 485.536 242.92 485.536C242.322 485.536 241.724 485.674 241.31 486.042C239.976 487.192 238.826 488.572 237.354 489.492C237.216 489.584 237.078 489.63 236.986 489.63C236.71 489.63 236.618 489.354 236.802 488.48L240.068 474.082ZM278.05 488.986C277.36 490.044 275.98 490.688 275.106 490.366C274.6 490.182 274.37 489.86 274.508 489.124C274.6 488.71 274.646 488.342 274.738 487.928L276.118 482.132C276.44 480.844 276.946 479.418 276.946 478.084C276.946 475.83 275.06 473.944 272.806 473.944C270.92 473.944 269.31 475.232 268.804 477.026C268.344 478.59 268.068 480.2 267.7 481.81L266.136 488.986C265.446 490.044 264.066 490.688 263.192 490.366C262.686 490.182 262.456 489.86 262.594 489.124C262.686 488.71 262.732 488.342 262.824 487.928L264.204 482.132C264.526 480.844 265.032 479.418 265.032 478.084C265.032 475.83 263.146 473.944 260.892 473.944C259.006 473.944 257.396 475.232 256.89 477.026C256.43 478.59 256.154 480.2 255.786 481.81L254.314 488.526C253.072 495.058 253.348 499.612 259.512 499.612C261.536 499.612 264.02 498.6 266.136 496.714C266.872 498.554 268.436 499.612 271.426 499.612C273.496 499.612 276.026 498.554 278.188 496.576C279.154 498.462 281.132 499.75 284.398 499.75C288.17 499.75 294.518 494.506 295.53 492.896C297.37 490.228 296.91 488.112 295.714 486.824C294.886 485.996 293.736 485.536 292.724 485.536C292.126 485.536 291.528 485.674 291.114 486.042C289.78 487.192 288.63 488.572 287.158 489.492C286.744 489.768 286.422 489.722 286.56 488.756L288.124 482.132C288.446 480.844 288.952 479.418 288.952 478.084C288.952 475.83 287.066 473.944 284.812 473.944C282.926 473.944 281.316 475.232 280.81 477.026C280.35 478.59 280.074 480.2 279.706 481.81L278.05 488.986ZM316.798 496.438C319.742 494.736 325.4 490.688 321.766 486.824C320.984 485.996 320.064 485.536 319.052 485.536C318.454 485.536 317.81 485.72 317.166 486.042C315.372 487.146 313.302 488.894 311.508 489.722C313.946 482.592 312.428 473.944 303.964 473.944C295.73 473.944 291.36 479.004 290.164 486.87C288.692 496.622 295.086 499.75 302.63 499.75C307.598 499.75 313.072 498.6 316.798 496.438ZM302.308 482.362C305.298 482.362 303.872 491.516 300.468 491.516C298.766 491.516 298.352 489.124 298.812 486.916C299.318 484.616 300.744 482.362 302.308 482.362ZM327.67 485.904C327.486 486.916 327.578 486.502 327.348 487.56C327.164 488.48 326.934 489.446 326.704 490.596C325.646 495.334 327.21 499.75 333.328 499.75C337.1 499.75 343.448 494.506 344.46 492.896C346.3 490.228 345.84 488.112 344.644 486.824C343.816 485.996 342.666 485.536 341.654 485.536C341.056 485.536 340.458 485.674 340.044 486.042C338.71 487.192 337.56 488.572 336.088 489.492C335.95 489.584 335.812 489.63 335.72 489.63C335.49 489.63 335.398 489.354 335.536 488.48L336.226 485.168C337.1 480.614 338.848 476.474 335.398 475.14C334.708 474.864 334.11 474.772 333.512 474.772C331.58 474.772 330.108 475.968 328.866 477.118C327.854 478.038 326.014 480.292 325.094 480.338C323.806 480.338 325.186 477.762 325.738 476.106C326.52 473.576 327.256 469.85 322.242 469.85C317.918 469.85 315.756 478.314 315.526 484.064C315.296 489.768 316.952 492.344 320.264 492.344C322.242 492.344 325.37 490.872 327.67 485.904ZM359.932 488.48L362.6 476.612C362.968 474.956 363.934 471.828 363.934 470.264C363.934 468.01 362.048 466.124 359.794 466.124C358.414 466.124 357.034 466.86 356.298 468.056C355.608 469.114 355.286 471.506 354.964 472.84L354.596 474.404C353.676 474.082 352.664 473.944 351.606 473.944C344.614 473.944 340.06 480.522 339.094 486.87C338.128 493.31 340.842 499.75 348.432 499.75C350.18 499.75 352.066 499.336 353.676 498.6C354.734 499.336 356.114 499.75 357.724 499.75C359.012 499.75 360.53 499.152 362.094 498.324C364.072 499.52 367.016 499.75 369.04 499.75C376.446 499.75 383.576 499.244 389.602 494.552C392.224 492.528 394.156 489.078 391.948 486.824C391.12 485.996 389.97 485.536 388.912 485.536C388.314 485.536 387.762 485.674 387.348 486.042C386.014 487.192 384.818 488.296 383.346 489.216C382.104 485.214 376.906 484.11 373.272 482.5C373.686 482.27 374.238 482.132 374.836 482.132C375.756 482.132 376.906 482.454 377.964 483.006C379.298 483.696 379.896 484.294 381.322 484.294C383.576 484.294 385.416 482.5 385.416 480.246C385.416 475.692 379.022 473.944 375.48 473.944C368.81 473.944 363.888 477.578 363.796 482.5C363.658 488.158 368.902 488.664 372.444 491.01C371.156 491.332 369.776 491.47 368.074 491.378C367.66 489.216 366.05 487.744 364.21 487.744C363.52 487.744 362.784 487.974 362.048 488.434L360.53 489.354C360.346 489.446 360.208 489.492 360.116 489.492C359.84 489.492 359.794 489.124 359.932 488.48ZM351.238 482.362C352.02 482.362 352.388 482.638 352.664 483.098C352.158 485.444 351.422 489.078 350.962 491.424C350.64 491.516 350.272 491.562 349.95 491.562C349.766 491.562 349.582 491.562 349.398 491.516C347.696 491.286 347.282 489.124 347.742 486.916C348.248 484.616 349.674 482.362 351.238 482.362ZM393.16 495.012C393.16 496.484 393.666 497.726 394.54 498.554C394.356 498.876 394.264 499.106 394.126 499.336C393.666 500.118 393.114 500.946 392.792 501.774C392.654 502.142 392.562 502.51 392.562 502.924C392.562 504.534 393.942 505.914 395.552 505.914C396.288 505.914 397.07 505.638 397.622 505.132C397.806 504.994 397.944 504.764 398.128 504.488C398.772 503.43 399.324 502.28 399.968 501.176C400.382 500.394 401.854 498.14 402.176 497.266C402.36 496.806 402.636 495.978 402.636 495.012C402.636 492.16 400.75 490.274 397.898 490.274C395.046 490.274 393.16 492.16 393.16 495.012Z" stroke="white" stroke-width="1.5"></path>
<path d="M176.78 540.924C179.724 539.222 185.198 535.128 181.564 531.264C180.782 530.436 179.862 529.976 178.85 529.976C178.252 529.976 177.608 530.16 176.964 530.482C175.17 531.586 173.1 533.334 171.306 534.162C173.744 526.986 171.904 518.384 163.44 518.384C163.072 518.384 162.658 518.43 162.198 518.522C162.52 517.28 162.98 515.946 162.98 514.704C162.98 512.45 161.094 510.564 158.84 510.564C156.954 510.564 155.344 511.852 154.838 513.646C154.378 515.21 154.102 516.82 153.734 518.384L149.594 536.002C149.272 537.29 148.766 538.716 148.766 540.05C148.766 542.304 150.652 544.19 152.906 544.19C154.24 544.19 155.39 543.546 156.172 542.534C158.334 543.592 160.956 544.19 163.532 544.19C167.672 544.19 172.962 543.178 176.78 540.924ZM158.564 534.024L160.036 527.722C160.726 526.664 162.06 526.02 162.934 526.342C164.728 526.894 163.532 531.678 161.876 534.254C161.462 534.484 161.048 534.576 160.588 534.576C159.944 534.576 159.254 534.392 158.564 534.024ZM185.352 526.388C185.674 525.1 186.042 523.674 186.042 522.386C186.042 520.132 184.202 518.384 181.948 518.384C179.602 518.384 178.268 519.994 177.808 522.064L176.428 528.366L175.048 535.036C173.99 539.774 175.554 544.19 181.672 544.19C185.444 544.19 191.792 538.946 192.804 537.336C194.644 534.668 194.184 532.552 192.988 531.264C192.16 530.436 191.01 529.976 189.998 529.976C189.4 529.976 188.802 530.114 188.388 530.482C187.054 531.632 185.904 533.012 184.432 533.932C184.294 534.024 184.156 534.07 184.064 534.07C183.788 534.07 183.696 533.794 183.88 532.92L185.352 526.388ZM180.108 512.22C180.108 514.704 181.764 516.36 184.248 516.36C186.732 516.36 188.388 514.704 188.388 512.22C188.388 509.736 186.732 508.08 184.248 508.08C181.764 508.08 180.108 509.736 180.108 512.22ZM188.22 531.31C187.254 537.75 189.968 544.19 197.558 544.19H197.88C197.374 545.708 196.684 547.042 195.672 547.042C195.166 547.042 194.614 546.72 194.016 546.03C193.004 544.88 192.314 544.328 190.704 544.328C188.45 544.328 186.702 546.306 186.702 548.56C186.702 552.194 191.624 555.92 195.626 555.92C202.572 555.92 204.964 550.446 206.482 544.558L206.574 544.19H206.85C210.622 544.19 216.97 538.946 217.982 537.336C219.822 534.668 219.408 532.552 218.166 531.264C217.384 530.436 216.234 529.976 215.176 529.976C214.578 529.976 213.98 530.114 213.566 530.482C212.232 531.632 211.082 533.012 209.61 533.932C209.242 534.162 208.874 534.162 208.966 533.38C209.012 533.242 209.012 533.058 209.058 532.92L210.484 526.388C210.76 525.1 211.22 523.812 211.22 522.524C211.22 520.27 209.334 518.384 207.08 518.384C206.114 518.384 205.148 518.706 204.412 519.35C203.078 518.706 201.698 518.384 200.226 518.384C193.694 518.384 189.186 524.916 188.22 531.31ZM200.364 526.802C201.146 526.802 201.514 527.078 201.79 527.538C201.284 529.838 200.41 533.426 199.858 535.91C199.398 536.002 198.984 536.002 198.524 535.956C196.822 535.726 196.408 533.564 196.868 531.356C197.374 529.056 198.8 526.802 200.364 526.802ZM234.39 544.19C241.796 544.19 248.926 543.684 254.952 538.992C257.574 536.968 260.012 534.07 257.298 531.264C256.516 530.436 255.366 529.976 254.308 529.976C253.71 529.976 253.112 530.114 252.698 530.482C251.364 531.632 250.168 532.736 248.696 533.656C247.454 529.654 242.256 528.55 238.622 526.94C239.036 526.71 239.588 526.572 240.186 526.572C241.106 526.572 242.256 526.894 243.314 527.446C244.648 528.136 245.246 528.734 246.672 528.734C248.926 528.734 250.766 526.94 250.766 524.686C250.766 520.132 244.372 518.384 240.83 518.384C234.16 518.384 229.238 522.018 229.146 526.94C229.008 532.598 234.252 533.104 237.794 535.45C236.782 535.726 235.678 535.864 234.436 535.864C233.47 535.864 232.55 535.726 231.63 535.588C230.894 535.45 230.25 535.082 229.468 535.082C227.214 535.082 225.328 536.968 225.328 539.222C225.328 543.546 231.124 544.19 234.39 544.19ZM262.144 526.664H265.502C267.756 526.664 269.642 524.778 269.642 522.524C269.642 520.27 267.756 518.384 265.502 518.384H264.122L264.306 517.602C264.628 516.268 265.042 514.75 265.042 513.37C265.042 511.116 263.294 509.276 261.04 509.276C259.154 509.276 257.544 510.564 257.038 512.358L255.658 518.384C253.588 518.568 251.886 520.408 251.886 522.524C251.886 523.996 252.714 525.33 253.91 526.066L253.036 529.424C250.92 536.232 252.852 544.512 261.776 544.512C266.192 544.512 270.562 541.476 273.506 538.394C274.61 537.198 275.76 536.002 275.76 534.254C275.76 532 273.874 530.114 271.62 530.114C269.228 530.114 268.492 531.724 267.02 533.242C265.318 535.036 263.34 536.232 262.052 536.232C259.522 536.232 260.994 531.678 261.316 530.252L262.144 526.664ZM268.002 531.31C267.036 537.75 269.75 544.19 277.34 544.19C279.088 544.19 280.974 543.776 282.584 543.04C283.642 543.776 285.022 544.19 286.632 544.19C290.404 544.19 296.752 538.946 297.764 537.336C299.604 534.668 299.144 532.552 297.948 531.264C297.12 530.436 295.97 529.976 294.958 529.976C294.36 529.976 293.762 530.114 293.348 530.482C292.014 531.632 290.864 533.012 289.392 533.932C289.254 534.024 289.116 534.07 289.024 534.07C288.794 534.07 288.702 533.794 288.84 532.92L290.266 526.388C290.542 525.1 291.002 523.812 291.002 522.524C291.002 520.27 289.116 518.384 286.862 518.384C285.896 518.384 284.93 518.706 284.194 519.35C282.86 518.706 281.48 518.384 280.008 518.384C273.476 518.384 268.968 524.916 268.002 531.31ZM280.146 526.802C280.928 526.802 281.296 527.078 281.572 527.538C281.066 529.838 280.192 533.426 279.64 535.91C279.18 536.002 278.766 536.002 278.306 535.956C276.604 535.726 276.19 533.564 276.65 531.356C277.156 529.056 278.582 526.802 280.146 526.802ZM291.34 540.05C291.34 542.304 293.226 544.19 295.48 544.19C297.366 544.19 298.976 542.902 299.482 541.108C299.942 539.544 300.218 537.934 300.586 536.324L301.368 533.104C302.104 532.598 302.748 532.322 303.3 532.322C304.174 532.322 304.772 533.012 304.956 534.668C305.278 537.152 305.416 539.314 306.52 541.2C307.532 542.994 308.866 544.19 312.04 544.19C315.812 544.19 321.286 538.946 322.298 537.336C324.138 534.668 323.678 532.552 322.482 531.264C321.654 530.436 320.504 529.976 319.492 529.976C318.894 529.976 318.296 530.114 317.882 530.482C316.732 531.448 315.72 532.598 314.524 533.518C314.202 533.84 313.972 533.978 313.788 533.978C313.466 533.978 313.282 533.564 313.144 533.012C312.822 531.632 312.868 531.494 312.592 530.344C312.316 529.148 311.58 527.814 310.568 527.4L313.098 525.882C316.318 523.95 315.03 518.384 311.258 518.384C310.016 518.384 308.728 519.028 307.44 519.81L303.944 521.926L304.68 518.89C305.002 517.51 305.508 516.084 305.508 514.704C305.508 512.45 303.668 510.564 301.414 510.564C299.528 510.564 297.918 511.852 297.412 513.646C296.952 515.21 296.676 516.774 296.308 518.384L292.168 536.002C291.846 537.29 291.34 538.716 291.34 540.05ZM337.954 533.15C336.298 534.254 333.63 535.312 331.054 535.312C329.996 535.312 328.892 535.128 327.926 534.668C332.388 534.76 338.966 532.046 338.966 525.928C338.966 521.926 335.838 518.384 329.72 518.384C314.908 518.384 310.952 544.19 331.192 544.19C333.86 544.19 336.482 543.454 338.92 542.258C341.45 543.73 345.866 544.19 350.19 544.19C356.722 544.19 361.138 542.856 366.198 538.992C368.82 536.968 370.66 533.564 368.544 531.264C367.762 530.436 366.612 529.976 365.554 529.976C364.956 529.976 364.358 530.114 363.944 530.482C362.61 531.632 361.414 532.736 359.942 533.656C358.7 529.654 353.502 528.55 349.868 526.94C350.282 526.71 350.834 526.572 351.432 526.572C352.352 526.572 353.502 526.894 354.56 527.446C355.894 528.136 356.492 528.734 357.918 528.734C360.172 528.734 362.012 526.94 362.012 524.686C362.012 520.132 355.618 518.384 352.076 518.384C345.406 518.384 340.484 522.018 340.392 526.94C340.254 532.598 345.498 533.104 349.04 535.45C348.764 535.496 348.304 535.542 347.66 535.542C346.786 535.542 345.636 535.45 344.486 535.174C343.934 533.518 342.37 532.276 340.53 532.276C339.472 532.276 338.782 532.598 337.954 533.15ZM325.81 530.114C326.178 528.182 327.65 526.434 329.72 526.434C330.088 526.434 330.41 526.48 330.778 526.572C331.56 527.446 328.662 529.93 325.81 530.114ZM369.756 539.452C369.756 542.304 371.642 544.19 374.494 544.19C377.346 544.19 379.232 542.304 379.232 539.452C379.232 536.6 377.346 534.714 374.494 534.714C371.642 534.714 369.756 536.6 369.756 539.452Z" stroke="white" stroke-width="1.5"></path>
<path d="M241.83 580H201.05C188.347 580 178.05 590.297 178.05 603C178.05 615.703 188.347 626 201.05 626H241.83C254.533 626 264.83 615.703 264.83 603C264.83 590.297 254.533 580 241.83 580Z" stroke="white" stroke-width="1.5"></path>
<path d="M203.994 609.8L204.506 609.272V605.528L203.994 605H202.25V596.728L201.722 596.2H199.578L199.05 596.728V609.272L199.578 609.8H203.994ZM207.802 609.8H210.938L212.954 607.784V598.216L210.938 596.2H207.802L205.786 598.216V607.784L207.802 609.8ZM208.986 605V601H209.754V605H208.986ZM221.562 602.792L221.05 602.264H217.594V600.984H221.562V598.216L219.546 596.2H216.41L214.394 598.216V607.784L216.41 609.8H219.546L221.562 607.784V602.792ZM217.594 603.544H218.362V605H217.594V603.544ZM227.994 596.2L227.482 596.728V600.472L227.994 601H229.514V605H227.994L227.482 605.528V609.272L227.994 609.8H234.234L234.746 609.272V605.528L234.234 605H232.714V601H234.234L234.746 600.472V596.728L234.234 596.2H227.994ZM236.186 609.272L236.698 609.8H238.874L239.386 609.272V604.248H239.546L241.002 609.272L241.514 609.8H243.322L243.834 609.272V596.728L243.322 596.2H241.146L240.634 596.728V601.688H240.458L239.018 596.728L238.506 596.2H236.698L236.186 596.728V609.272Z" stroke="white" stroke-width="1.5"></path>
<path d="M326.95 580H299.83C287.127 580 276.83 590.297 276.83 603C276.83 615.703 287.127 626 299.83 626H326.95C339.653 626 349.95 615.703 349.95 603C349.95 590.297 339.653 580 326.95 580Z" stroke="white" stroke-width="1.5"></path>
<path d="M301.03 603.304V601H301.798V603.304H301.03ZM302.982 604.584L304.998 602.568V598.216L302.982 596.2H298.342L297.83 596.728V609.272L298.342 609.8H300.518L301.03 609.272V604.584H302.982ZM311.382 609.8L311.894 609.272V605.528L311.382 605H309.638V596.728L309.11 596.2H306.966L306.438 596.728V609.272L306.966 609.8H311.382ZM315.19 596.2L313.174 598.216V609.272L313.686 609.8H315.862L316.374 609.272V604.952H317.142V609.272L317.654 609.8H319.83L320.342 609.272V598.216L318.326 596.2H315.19ZM316.374 603.672V601H317.142V603.672H316.374ZM323.766 609.272L324.278 609.8H326.454L326.966 609.272V605.352L328.95 603.384V596.728L328.438 596.2H326.262L325.75 596.728V600.552H324.982V596.728L324.47 596.2H322.294L321.782 596.728V603.384L323.766 605.352V609.272Z" stroke="white" stroke-width="1.5"></path>
</svg>