<svg fill="currentColor" xmlns="http://www.w3.org/2000/svg" viewBox="0 0 1000 1000"><g class="cls-1"><g id="Shapes"><g id="Shape_123" data-name="Shape 123" class="cls-2"><path class="cls-3" d="M620.42,652.81c-3.27,1.29-6.76-.25-10.15-.24-2.74-.64-5.51.56-8.25-.17-3.48.3-7,.44-10.51.53l0-1.55c-5,1.79-10.33,1.26-15.52,1.73-3.18.14-6.4.84-9.56,0a25.76,25.76,0,0,1-10.4-1.33c.08-1.5.23-3,.27-4.51a204,204,0,0,1,17.73-19,3.82,3.82,0,0,0,3.21-.93l-2.08-.58c4.4-3.12,7.44-7.59,11.32-11.23,1-1.28,2.22.35,3.21.82.78-.6,1.58-1.16,2.39-1.69.11.72.34,2.17.46,2.89.58-.72,1.15-1.46,1.69-2.21a3.92,3.92,0,0,0,2.49-2l1.47,1.38c.9-.08,1.77-.19,2.65-.26a3,3,0,0,1,5.35.06,13.8,13.8,0,0,0-3.44,1.31c.24.81.51,1.61.8,2.39,1.26-1,2.5-1.93,3.81-2.81l.6-1.73a25,25,0,0,0,2.23-2.7c-1.88.06-3.79.17-5.69.33-.74-.49-1.51-1-2.3-1.41.12.43.37,1.27.49,1.7-1.53-.23-3.07-.39-4.62-.6l-1,1.41-2.24,0c-.67-2.47-.83-5,.9-7l1.14.52a11.72,11.72,0,0,1,1.93-3.07,85.83,85.83,0,0,0,12.29-12.63c1-.32,2.08-.66,3.09-1-.2-.35-.58-1.07-.78-1.43.86-.79,1.69-1.6,2.5-2.44l2.2-.2c0-.57.12-1.69.15-2.26,3.6-2.55,6.65-5.72,10-8.55a77.72,77.72,0,0,1,13.77-14.47c2.47-2.65,4.67-5.54,7-8.29a20.06,20.06,0,0,1,2.08.36c-.42-4,4.72-5.89,3.53-10.19-3-.62-6-1.45-9-2.11-17.61.73-35.27.66-52.88,0-6.76-.92-13.46,1.19-20.22.89-10.51-1.34-21.2.41-31.67-1.47-2.66-.42-5.35-.18-8.06-.44-13.4.6-27,2.54-40.33.72-14,1.42-28.11-.28-42.16.1-1,.25-1.71-.45-2.45-1l-2-.28c-.26.42-.8,1.25-1.06,1.67-.82-.51-1.65-1-2.48-1.55-.79.4-1.58.79-2.4,1.18-5.32,0-10.65.09-16-.38l-1.64.7-1.42-.72c-11,1.35-22.16.58-33.23.4l-1.61-.34c-.79,0-1.58,0-2.4,0l-1.52.4c-3.22-.77-6.52,0-9.8-.16-6.31-.8-12.67,1.32-18.76-1.54,1.31-1.7,3.4-2.64,4.49-4.52-.9.2-1.79.42-2.7.65,0-.38.08-1.14.1-1.52,1.08,0,2.15,0,3.2,0v-.81l-2.37,0c0-.64-.13-1.94-.17-2.59a43.7,43.7,0,0,1-7,2.74c.87.94,1.68,1.92,2.45,2.91l-2.64.13c0,.65.12,1.94.15,2.58,1.37-.22,2.7-.49,4-.83,0,.57-.07,1.72-.1,2.3-2.13.32-4.16.64-6.37.87,0-.63-.06-1.9-.07-2.54l-2.41.1,0,2.09c-10.28.09-20.59.7-30.87-.13a59.68,59.68,0,0,1-9.64,0c-12.06.42-24.16.34-36.22,1-3.29.67-6.51-.11-9.57-1.22-7.49.21-15,1-22.49,1.13q-9.37-.85-18.8-1c-4.28.23-8.85,1.55-13-.21-2.75-.79-3.27-4.42-2.88-6.8-.17-5,.2-10-.37-14.93-1.23-7.89.87-15.74.42-23.66l1.6-1c-.56-.73-1.14-1.45-1.74-2.2l1.71-.11v-.77c-.42,0-1.3-.07-1.72-.11.17-2.93.4-5.87.67-8.82l-1.09-.85c0-.92,0-1.85,0-2.77,1.88-1.61.9-3.88.45-5.9l1.69-.13,0-.76-1.82-.15c.22-2.87,1.31-7.16,5.46-5.87,6.09-.43,12.18-1.44,18.27-.89,6.37-1.17,12.75,1,19.07-.22,0,.37.08,1.13.12,1.5l-1.61,0c.33.78.63,1.55.91,2.31l-2.46-.8c.31.83.59,1.65.85,2.48.67-.34,1.33-.69,2-1l1.72-2.33c-.18-.67-.38-1.35-.59-2.05a14.09,14.09,0,0,0,4.84.22c2.38-.09,4.78-.23,7.11-.32.63.77,1.25,1.52,1.85,2.28l2.2-.8c-.12-.46-.37-1.36-.49-1.82a12.42,12.42,0,0,1,2.56,2.76c.56-.68,1.1-1.38,1.61-2.11a34.47,34.47,0,0,0,6-.23c0,.57.09,1.7.11,2.27l.78,0c0-.61,0-1.83,0-2.44l1.58.14a45.9,45.9,0,0,1,.36,8.11c.74-1.05,1.42-2.14,2.08-3.24-.22-1.24-.66-3.72-.87-5,1.37.53,2.74,1,4.08,1.58,0-.42.09-1.27.11-1.69l2.17,1.77,1.13-1.75a30,30,0,0,1,6.34.7c1.83-.38,3.63-.75,5.4-1.16,1.13,1.48,2.48,1.47,3.62,0a25.68,25.68,0,0,0,3.05,1.15c15.6-.61,31.22-1.7,46.82-.86,29.9-1.26,59.89.42,89.78-.76,17.32.95,34.67.27,52,.49,11.78-.41,23.53,1.21,35.3.41,15.9.95,31.83.35,47.73.52-.17.48-.51,1.44-.69,1.91a15.88,15.88,0,0,0,1.9-1.67c13.54-.56,27.1.14,40.63-.28,5.38-.45,10.9-1.35,16.21-.14,6.21-.36,12.44-.29,18.62-1.12,2.73.4,5.1-.67,7.38-1.88-1.11-4.68-3.76-9.23-8.24-11.38.55-.7,1.11-1.4,1.64-2.13-1-.06-2.09-.14-3.16-.23-2.69-4-6.93-6.48-10.06-10.08-3.89-4.16-7.9-8.2-12-12.2-2.65-2.74-6-4.74-8.27-7.87-5.38-4.81-10.48-9.93-15.39-15.22-3.05-4.17-7.68-6.83-10.8-11-2.68-3.73-6.41-6.48-9.74-9.61-3-2.71-4.39-6.86-8-8.89-2.8-1.44-4.34-4.26-6.7-6.22a63,63,0,0,0-9.16-8.56c-1.35-2.38-4.47-4.61-4.06-7.68,1.78-2.52,5.3-2.51,8-2.6,17.44-.1,34.87,0,52.3.09.22.36.66,1.08.89,1.43,1.94-.83,4-1.77,6.19-1.19,6.52,0,13.13-.83,19.59.26,6.67-1.51,13.71-.62,19.13,3.74,4.86,4.81,9.78,9.58,14.34,14.67,3.69,3.32,6.46,7.51,10.24,10.71A73.7,73.7,0,0,1,697,391.58l1.77.56a14.29,14.29,0,0,0,3.93,4.19c4.75,4.4,8.82,9.51,13.74,13.68,2,2.33,4,4.56,6,6.89,3.83,4.76,8.92,8.29,12.87,12.93,7.39,8.45,16,15.69,23.36,24.2,1.23,1.21,2.6,2.24,3.93,3.33,0,.54.16,1.64.21,2.19,3.12,2.54,6.09,5.22,9.16,7.78,6,7.12,13.23,13.12,19.34,20.14,3,2.39,5,5.84,7.36,8.8,2,1.82,1.53,5,.27,7-4,5.7-9.63,10-14.19,15.21a5.21,5.21,0,0,0-1.87-1.8c.13.43.42,1.3.56,1.73-1.94,2.86-3.45,6.14-6.17,8.34-5,3.57-7.86,9.59-13.58,12.23-2,3-4.12,6.11-7.19,8.14a52.25,52.25,0,0,1-5.48,6.58c-4,3-6.61,7.36-10.46,10.51a14.82,14.82,0,0,1-2.17-.34l-.93,1.23,1.85.29c-4.6,4.8-9.45,9.36-14,14.17l-2.09.3c-.31,1.27-.69,2.53-1.08,3.78l-2,.34c-1,2.49-3.42,3.59-5.89,4.09.2.66.39,1.31.58,2l-1.54,1.65-2.29-.9.66-2.15c-.71-.55-1.42-1.13-2.15-1.68a18.16,18.16,0,0,0-.09,8.76l-2.42.18-1,1.51-1.35-.75c-.94,1.49-1.59,3.3-3.13,4.3.22-.9.43-1.81.64-2.72l-1.85.78c.2-1.21.31-2.57,1.8-2.78l-1.49-1.32c.47-1.29.92-2.57,1.4-3.86-1-.31-2-.64-3-1,.27-.73.54-1.47.78-2.22l-1.35,0c-.32,1.25-1.51,1.43-2.6,1.69.27-1.1.53-2.19.74-3.31l-1.63-1c.28-.7.54-1.42.78-2.13-1.34-.87-2.67-1.74-4-2.64,0,.58-.13,1.72-.18,2.29-1.24.24-2.8-.11-3.66,1a36.15,36.15,0,0,0,.49,3.78l-1.81-.45c.53,1.31,1.93,1.74,3.07,2.34.21-1.5,1.54-1.73,2.77-2l.05,1.07-1.6,0,0,.75,2.26.21c.23,1,.48,2,.74,3-1,.54-2,1.14-3,1.64-.76-.71-1.41-1.52-2.13-2.29-.59,1.09-1.25,2.13-1.91,3.17h2.45c0,.41,0,1.23,0,1.64-1,0-2-.08-3.08-.14-.29-.77-.61-1.56-.93-2.34l.76-1.71c-1.35.21-2.71.45-4.06.77,0-.36.07-1.07.1-1.43h-1.61c.36,1.58.7,3.16.92,4.74-1.08-.55-2.15-1.14-3.27-1.65.48,1.06,1,2.11,1.48,3.15a4.76,4.76,0,0,1,3.46.2c-1.21,2.81-4.08,0-5.92-.71.26.77.53,1.52.79,2.26-.29,1-.57,2.11-.81,3.17,1.57-.28,3.13-.56,4.7-.72.75,1,1.36,2.18,2.57,2.66-.2-1.15-.47-2.3-.71-3.45l1.49.81c.25-.4.78-1.2,1-1.6l1.42.84c0-.41.07-1.22.1-1.63l-2.52-.08c.51-.84,1-1.69,1.51-2.54l.2,1.86,1.77-.89a21.43,21.43,0,0,1,.27,3,10.63,10.63,0,0,1,3.75,4.25L691.44,607l1.7.06c0,.4,0,1.19,0,1.59l-2.39,0c0,.38-.08,1.13-.09,1.52.88-.25,1.76-.47,2.63-.7-.57,1.31-.93,2.93-2.37,3.54.14.31.42.92.55,1.23a15.19,15.19,0,0,1-5.33.54,11.3,11.3,0,0,0-1.51-1.59c.83,2.83-1,5.38-1.47,8.08l-1.53.9-1.2-.56c-.54.57-1.09,1.14-1.64,1.7-.12-.54-.35-1.63-.47-2.17-1.27,1.26-2.23,2.79-3.54,4,.14,1.16.26,2.33.41,3.47-.7.65-1.41,1.3-2.14,1.93l.63,1.24A10.49,10.49,0,0,0,669.5,636l-1.2-.62a17.27,17.27,0,0,1-3.24,3.32c.2-.89.41-1.78.64-2.67h0a6.93,6.93,0,0,0-4.28,4.82c-.74-.53-1.47-1.08-2.23-1.63.85-.4,1.7-.77,2.54-1.13-.45-1.24-1-2.45-1.57-3.64-.81.32-1.63.63-2.46.94q-.06-1.68-.12-3.39l-1.39.11c.45,1.76.56,3.56-.86,4.89.72.28,1.44.55,2.15.8,0,.56.07,1.67.09,2.23l1.62-.81,0,1.69h-2.42c0-.61,0-1.82,0-2.44-1.34.58-2.69,1.11-4,1.69.17.32.49,1,.65,1.29-.59.8-1.17,1.6-1.73,2.43.53.11,1.57.34,2.1.44-.84.51-1.71,1-2.58,1.49,0,.59-.06,1.75-.09,2.33a21.5,21.5,0,0,1,3.37-2.48,2.42,2.42,0,0,1-1.6,2c.58.92,1.15,1.85,1.65,2.8-1-.5-2-1-3.1-1.5.3,3.14-2.95,3.47-5.24,3.93.3-.76.59-1.54.88-2.32-2.21.5-4.42,1-6.67,1.43,1-2.73,4.24-3.18,5.59-5.55a5.59,5.59,0,0,1,2.19,2.33l-1.82-.54c-.23.37-.69,1.12-.93,1.49l4.91.08c0-.4,0-1.19,0-1.59l-1.77-.16c.53-1.33,1.11-2.65,1.66-4-1.53.64-3,2-4.75,1-.33.78-.68,1.55-1,2.33a2.53,2.53,0,0,1-3-2.91,3.92,3.92,0,0,0,2.07-2.43c.74-.63,1.44-1.28,2.11-2,.66,1,1.23,2.09,1.78,3.16,1.34-.39,2.65-.8,4-1.24l-2.83-.44,2-1.36c-.66,0-2-.12-2.65-.16l.2-1.44a37.42,37.42,0,0,0,6.94,0q-.45-2-.87-3.93l-2-.93c.31-1.34.59-2.69.82-4.05-2,.53-4.22.93-5.42,2.82,1.32-.38,2.62-.79,4-1.14a7.56,7.56,0,0,1-4.14,3.13c1.95,1.38.46,3.2-.33,4.8-.56-.49-1.12-1-1.69-1.53-.72.4-1.45.79-2.19,1.18l2.15.6.38.54a9.75,9.75,0,0,1-4.2,0c.24-1.26-.38-3,1-3.75a25.73,25.73,0,0,1,2.93.23c.29-.66.58-1.33.85-2a25.08,25.08,0,0,1-3.13.07l-1.56.57v-2.34c-.81.26-1.63.5-2.47.73.26-.77.51-1.54.76-2.31.79.28,1.58.51,2.37.71a10.14,10.14,0,0,0,1.19-3l-1.92-.2.31-.36a17,17,0,0,0,1.64-1.86l-2.66.73c0,.58,0,1.72-.06,2.3l1.62,0-.06.74-3,.22c-.64.48-1.29,1-2,1.38,1.41-1.85,2.67-3.72,2.43-6.16a30.05,30.05,0,0,0,3.29-.09c0-.65.05-2,.07-2.62l-2.16.29a16.21,16.21,0,0,0-3.81,5.41c-.67-.8-1.31-1.63-2-2.46,0,.56-.09,1.7-.11,2.27a53.13,53.13,0,0,0-6.43-.56,27.66,27.66,0,0,0,1.75,3.11c1.22,0,2.1-1,3.07-1.55V632h.79l.08-1.67,1.49.92.08-1.67h.79l.14,4,1.1-.68a17.65,17.65,0,0,0,1.75,1.81c-.15.55-.32,1.1-.48,1.64,2.34,1.05,1.58,4.1,2.29,6.16-.59-.51-1.18-1-1.78-1.58-.64.33-1.28.64-1.94.95-.58,1-1.21,1.88-1.84,2.8.57.55,1.13,1.11,1.68,1.67l-2.5.09-1-1.64c-1,.3-2,.62-3,.9.78,2.12,1.47,4.27,2.21,6.39l-1.24.65a25.54,25.54,0,0,0-2.5-1.7c0,.42-.08,1.28-.1,1.71-3-.5-6.14-1.15-9.05,0m-38-.94h0m66.1-.71h0m-55.62-.08h0m20.21-1.72c.86-.64,0-2.61-1-1.66-.94.61.06,2.31,1,1.66m-4.08.13h0m-15.92.17c-.21-.42-.61-1.25-.81-1.66l2.7.69c-1.12-2.7-5.08-1.6-7.44-2.43l-.1,1h2.42c.33.77.64,1.54.94,2.31l2.29.12m-6-1v-.44c-.56-1-2.61-1-2.18.53.23,1.17,1.76.58,2.18-.09m34.71-1.49c-.85-1.82.44-2.94,1.86-3.89a14.94,14.94,0,0,0,2.61-3l-1.8-1.16c.57-.7,1.15-1.41,1.71-2.12l-1.62-1c.15-.44.46-1.3.61-1.73-1.37.79-2.67,1.71-4.06,2.49a8.3,8.3,0,0,1,3.44-3.81c-1.9-.21-3.83-.47-5.77-.77,0,.33.11,1,.15,1.31a14,14,0,0,0-8.59-.47c-.8,1.23-1.69,2.38-2.59,3.55a39.2,39.2,0,0,1,3.39,2.42c.94.31,1.86.63,2.77,1,.61-1.27,1.29-2.51,1.87-3.79l-1.69.7c-.2-.43-.61-1.27-.82-1.7,1.26.23,3-.25,3.51,1.3,1.25.17,2.48.39,3.7.64-.68.64-1.33,1.32-2,2l-2,.25c.16.34.46,1,.62,1.36l-1.47,1.45a6.61,6.61,0,0,1,3.44,1.81c-1.22-.17-2.44-.39-3.66-.57.88,1.37,2.39,1.52,3.87,1.45a21.8,21.8,0,0,1,2-2.49c-.41,1.39-.74,3.07-2.23,3.7l-.28,1.93,3-.78m-6.36.83c-.16-2.61-2.48,1.22,0,0m-37.07-.17h0m50-.73h0m-.48-2.05a12.3,12.3,0,0,0-4.87-.31c0,.63-.1,1.91-.14,2.54,1.73-.62,3.69-.84,5-2.23M609,645q-1.71-.5-1.23,1.23c1.09.28,1.51-.14,1.23-1.23m-14.44,1.77c-.2-.86-.41-1.71-.63-2.58,1.39-.43,2.76-.89,4.14-1.34-2.37-1-6.1-1.79-7.62,1-.95.13-1.9.24-2.87.34,0,.38-.08,1.13-.11,1.5,1.53-.64,3.52-.6,4.5-2.12l.13-.09a3.64,3.64,0,0,0,2.46,3.34m-13.81-.44a7.91,7.91,0,0,1,2-1.9,31.85,31.85,0,0,0-1.13-3.6,7.85,7.85,0,0,1-2.77,2.78l0,1.88,2,.84m-15.89-.09c1.23-2.47-2.6-.17,0,0m47.48-.89a2.15,2.15,0,0,0-.11-2.63l-1.67-.15c.46.78.32,3.13,1.78,2.78m-26.64.12h0m45.15-.74h0m-33.86,0h0m49.18-.73h0m-13.71,0h0m-5.64,0h0m9.57-2c-.82-.56-2.72.18-2.56,1.24.87.73,2.94,0,2.56-1.24m-5.66,1.21a2.94,2.94,0,0,0,1.55-2.84c-1-.45-1.51.89-2.14,1.38s-.55,2.07.59,1.46m-16.81,0h0m-24.18,0h0m-19.35-.72c-.16-2.61-2.48,1.22,0,0m59.75-.66h0m-20.24-.2h0M638.93,640c.3-.79.6-1.58.89-2.37-1.25.35-2.51.72-3.79,1-.29.8-.59,1.58-.89,2.36,1.29-.29,2.54-.65,3.79-1m-68.58.72c-.16-2.6-2.48,1.23,0,0m45.15-.85h0m13.71-.78h0m-23.29-2c-1.07-.26-1.49.15-1.24,1.23,1.17.34,1.58-.07,1.24-1.23m25,.37c1.23-2.47-2.59-.16,0,0m-39.3.06a51.36,51.36,0,0,0-3.93-3.41q.36,1.32.69,2.61c1.08.28,2.16.57,3.24.8m-14.89.12,1.81-1.89-1.12-2.25c-.28,1.58-1.78,1.74-3.07,2.1a30.22,30.22,0,0,0,2.38,2m22.73-1.11q.53-1.72-1.23-1.23c-.26,1.09.16,1.51,1.23,1.23m65.2-1.31c-.15-2.61-2.47,1.22,0,0m-56.83,0c.5-1.3-.33-2.34-1.05-3.36-1.37.77-3,1.57-3.34,3.27q1.34-.33,2.64-.72l1.75.81m-6-.23h0m66.91-.71h0m-24.26-.75c.28-1.08-.13-1.49-1.23-1.24-.33,1.16.09,1.58,1.23,1.24m-11.21-.11h0m-4.24.07c.36-.8,0-2.74-1-2.74-.72.83-.39,3.23,1,2.74m-2.11-1.22c-1.08-.26-1.49.15-1.24,1.23,1.17.34,1.58-.07,1.24-1.23m41,.4h0m-62.84-.7c.22-1.23.65-3.68.86-4.91-1.54.42-3.08.79-4.67,1.09l.75,1.21c-.44.31-1.32.92-1.76,1.21a3.39,3.39,0,0,0,4.82,1.4m19.31-.17h0m-2.31,0c1.23-2.48-2.59-.17,0,0m36.16-.63c-.16-2.61-2.48,1.22,0,0m-13.7-.14h0m-26.61.07c-.15-2.6-2.47,1.23,0,0m-6.73-3.89c2.64-.06,4.66,1.54,7,2.32,1.24,0,2.26-.82,3.34-1.27l-1.5-.35a7.38,7.38,0,0,0-.42-3.08c-1.09-.14-1.8.67-2.53,1.35-2.36.14-4.5.27-7,.24-.1-.49-.3-1.48-.41-2a40.75,40.75,0,0,0-1.5,4.13l-2.32.3c.32.8.65,1.6,1,2.38.77-.59,1.51-1.21,2.25-1.83.1.51.32,1.52.42,2,.61-1.39,1.15-2.8,1.62-4.24m57.53,2.25h0m-11.28,0h0m-9-1.33c-1.15-.33-1.57.08-1.24,1.23,1.1.28,1.51-.14,1.24-1.23m-66.83,1.21h0m10.69-.58-.12-1.67a10.76,10.76,0,0,1-6.33.12c.2.37.62,1.11.83,1.49l5.62.06m80.86-.84c-.5-1.81-2.62-2-4.16-2.5.28.88.55,1.75.81,2.62l1.4-.83,2,.71m-5.47,0c.18-1.05-1.71-1.8-2.55-1.24-.37,1.25,1.7,2,2.55,1.24m-14.49-1.36c-.73-.8-2.61,0-2,1.14.69.56,2.35-.19,2-1.14m-68.36,1.2h0m-1.53-.09q.52-1.73-1.23-1.23c-.26,1.09.16,1.51,1.23,1.23m42-.44a21.15,21.15,0,0,1-2.75-3l-2-.31c.87,1,1.72,2.09,2.53,3.16l2.26.15m-23.65-1.57c-1.15-.33-1.56.08-1.24,1.23,1.1.28,1.51-.14,1.24-1.23m46.83.58h0m1.62-.8h0m18.54-.78h0m-4,0h0m-6.34,0c1.23-2.48-2.59-.17,0,0m-10.59,0h0m-11.46,0c.17-1.06-1.72-1.8-2.56-1.25-.36,1.25,1.71,2,2.56,1.25m-7.08-.05h0m44.33-.63c-.16-2.6-2.48,1.23,0,0m-58-.2h0m-11.3.1c-.16-2.61-2.48,1.22,0,0M671.52,620l1.4.72c0-.56-.07-1.7-.09-2.27-1-.23-2-.5-3-.79a29.22,29.22,0,0,1-1.5,5.76,24.91,24.91,0,0,0,3.15-3.42m-7,3c.11-1.16-1.92-1.07-2.52-.44-.09,1.17,2,1.08,2.52.44m-7.93-.85c.8-.22,1.91-1.11,1.49-2-1.12-.92-3.07,1.61-1.49,2m-12-.21-.16-1.75-1.75-.17c-.2.85,1.07,2.12,1.91,1.92m-4.94.21h0m20.27-.79c1.23-2.47-2.6-.16,0,0m-5.69.07c.42-1.32,0-1.77-1.35-1.36-.41,1.32,0,1.77,1.35,1.36m25.72-.72c-.16-2.61-2.47,1.22,0,0m-4.83-.93h0m-25,0h0m-47.71-.06a2,2,0,0,0-2.53-2c-.28,1.16,1.43,2.6,2.53,2m79.95-.58c-.15-2.6-2.47,1.22,0,0m-3.12.12c-.24-.82-.47-1.66-.7-2.5,1.35.23,2.68.55,4,.84,0-.35-.07-1.06-.09-1.42-1.34-.23-2.69-.53-4-.89.21-.46.63-1.39.83-1.86-1,.26-2.07.54-3.1.86a11.6,11.6,0,0,1,1.07,4.9l2,.07m-23.63-1.52c-.8-.71-3.15-.46-2.77,1,.84.56,3.28.55,2.77-1M611.53,619l.82-.95c-.79-2.72-4,1.51-.82.95m47.53-.91h0m-9.75-1.33c-1.14-.34-1.56.07-1.23,1.23q1.63.4,1.23-1.23m-18.54,0c-1.14-.33-1.56.08-1.23,1.23,1.09.28,1.5-.14,1.23-1.23m-21.69,1.39c-.16-2.6-2.48,1.22,0,0M596.19,618h0m-6.46.1c-.16-2.6-2.48,1.22,0,0m83.92-1c.81-.72,0-2.6-1.13-1.94-.55.68.19,2.33,1.13,1.94m-8.8.4c0-.65,0-2-.05-2.61a7,7,0,0,0-3.91.33,26.88,26.88,0,0,1,1.94,2.07l2,.21m-46.09-.32h0m-19.35-.84h0m-3.22,0h0m54-.73h0m-38.85,0c.29-1.23-2.64-2.22-2.86-.66.25,1.21,2,1.3,2.86.66m63.84-.75h0m-6.45,0h0m-57.34-1a8,8,0,0,0,3.18-.8c-.19-1.53-4.92-.53-3.18.8m77.43-.6c1-1-.74-2.91-1.73-1.73-1.37,1.1.6,2.92,1.73,1.73m-25-1.35c-1.14-.33-1.56.08-1.23,1.23,1.09.28,1.5-.14,1.23-1.23m-3.06,1.28c1.67-.49.12-2.91-1.14-2-.41.75.24,2.09,1.14,2m-29-1.16q-1.62-.39-1.23,1.23,1.76.51,1.23-1.23m49.9.42h0m-1.62-.81h0m-2.3-.82c1.23-2.47-2.6-.16,0,0M667,609.58c-.73-.79-2.61,0-2,1.14.69.56,2.34-.18,2-1.14m-17.58.47h0m-29,0h0m49.91-2c-1.15-.33-1.57.08-1.24,1.23,1.1.28,1.51-.14,1.24-1.23m-11-3.33c-1.24.22-1.3,2.08-.65,2.89,1.57.64,2.34-2.67.65-2.89M597,607.55h0m81.61-2.48a13,13,0,0,1-3.08-2.24c.12-.94.35-1.87.52-2.81-1.37-1-2.72-2-4.17-2.84-.45,2.72,1.06,5.27,1,8L671.23,607l2.58.13c0-.41,0-1.23,0-1.64h1.58c0,.43.1,1.3.14,1.73,1.05-.67,2.09-1.36,3.1-2.1M662.87,607c.5-.59.65-2.39-.49-2.37-1.38.24-1,2.95.49,2.37m7.5-.92h0m11.24-.84c.93-1-.74-2.79-1.71-1.71s.74,2.64,1.71,1.71m-15.27,0h0m24.19-.77h0m-75-.12h0m47.6-.69c1.15-.13,1.54-2.2.16-2.3-1.21,0-1.45,2.31-.16,2.3m-17.74.09c.21-.23.6-.7.8-.92-.61-2.38-3.63,1.64-.8.92m25-.92c1-1.18-1.14-2.12-1.79-1-1.06,1.15,1.14,2,1.79,1m-4.81-.18c.72-.93.58-1.6-.4-2-.73,1-.6,1.67.4,2m-6.28.35v-1.59l-1.66-.08c.22-.38.68-1.13.92-1.5l-2.49-.06c0,1.08,0,2.16,0,3.23h3.22m-4.22-.2h0m-40.31-.86h0m56.16-3.51-2.87-.36.35,2.87a7.3,7.3,0,0,0,2.52-2.51m-5.75,2.24c-.63-1.31-.9-3.12-2.51-3.57l.68,1.89h-2.45c0,.39.11,1.16.15,1.55a9.43,9.43,0,0,1,4.13.14m1.19-1.07h0M643.78,598h0m28.11-.77a2.07,2.07,0,0,0-2.58-2,2,2,0,0,0,2.58,2m-7.16-.7c-.15-2.6-2.47,1.22,0,0m-41.1-.17h0m36.41-.42c-.6-1.29-.6-3.17-2.24-3.62l.73,1.84c-.47.07-1.42.22-1.9.28,1.13.54,2.27,1,3.41,1.5m-16.27-.25c-.15-2.6-2.47,1.22,0,0m32.11-.9c-.14-1.15-3.19-1.16-3.35,0a3.25,3.25,0,0,0,3.35,0m-11.14.13c-.16-2.6-2.48,1.22,0,0m-9.68-.82c-.15-2.61-2.47,1.22,0,0m23.41-.87c.43-1.27,0-1.75-1.36-1.42-.39,1.34.06,1.81,1.36,1.42m-2.45,0,1.09-1.44a18.88,18.88,0,0,0-4.66-4.3c.6,1.37,1.46,2.77.8,4.28l1.37,0c-.21.39-.61,1.17-.81,1.55l2.21-.14M668,591.67c-.08-.86-.15-1.73-.2-2.6-.82.83-1.54,1.75-2.28,2.66a25.39,25.39,0,0,1-3.46-3.18,3.38,3.38,0,0,0,.44,4.73c1.83-.58,3.67-1.06,5.5-1.61m19.36.7h0m-2.43-.69c-.15-2.61-2.47,1.22,0,0m-14.51,0c-.15-2.6-2.47,1.22,0,0m-12.24-.09c.51-.91-.6-2.69-1.71-2.11-.49.92.62,2.71,1.71,2.11m-3.84-.16c.73-.75-.32-2.34-1.29-1.8-.71.76.34,2.36,1.29,1.8m-12.24.18c.66-1.05-1.15-2.13-1.92-1.28-.87,1.18,1.14,2.19,1.92,1.28m49.29-.81h0m-2.42,0h0m-8.78-.09c.35-1.15-.06-1.57-1.23-1.24-.26,1.09.15,1.51,1.23,1.24m3.94-1.41c-.16-2.61-2.48,1.22,0,0m-4.83-.93h0m-18.54,0h0m-3-3.07c-.78.86-1.54,1.76-2.36,2.6,0-1.13-.11-2.26-.18-3.41l-1.44,0q.44,1.48.75,3l-1.93,1c3,1.84,5.59-.53,5.16-3.16m3,1.46h0m-21,0h0m77.5-.7c1.23-2.47-2.6-.16,0,0m-11.48.23c-.06-1.16-.28-2.41.62-3.32a39.21,39.21,0,0,0,3.3,2.76,11.84,11.84,0,0,1,.13-4.32l-1.24-.85c0,.41-.1,1.24-.14,1.66l-.75,0c0-.57-.08-1.71-.11-2.29-1-.93-1.9-1.91-2.93-2.78.14.47.42,1.39.57,1.86L703,579c-.28,1.29-.62,2.56-1,3.83.72.42,1.42.83,2.12,1.22.54.74,1.08,1.45,1.64,2.14m-2-.17c-.87-1-1.77-2-2.66-3l-2.27-.13c0,.41,0,1.22,0,1.63h2.42v.79l-1.61,0v.8l4.15-.12m-29.34-.12h0m-1.55.07c.42-1.32,0-1.77-1.35-1.36-.4,1.32,0,1.77,1.35,1.36m7.19-.86h0m4-.8h0m-2.42,0h0m-3.23,0h0M630,584.19c-.14-1.15-3.19-1.16-3.35,0a3.25,3.25,0,0,0,3.35,0m90.44-1.44h0m-6.45-.82h0m-24.19,0h0m-7.25,0h0m36.31-.87c.72-.75-.32-2.34-1.29-1.81-.71.77.34,2.37,1.29,1.81m-6.65.18c.57-.67-.18-2.32-1.13-2-.79.74,0,2.62,1.13,2m-13.54-.1h0m-20.17-.82c-.44-1.45-3.47-.44-3.46.8,1.08.66,2.91.43,3.46-.8m-6.43.78h0m41.4-5.61c.28,1.49.65,3,1,4.42,2.08-1.23,1-3.86-1-4.42m-22,4h0m-10.39-.1q.53-1.73-1.23-1.23c-.26,1.09.15,1.51,1.23,1.23m12.8-.59c-.16-2.6-2.48,1.22,0,0m-33-.16h0m62.17-.53c-.28-1.57-.59-3.15-.82-4.75l-2.46,0c.61.58,1.21,1.15,1.81,1.7-.57.64-1.14,1.27-1.73,1.9a23,23,0,0,0,3.2,1.13m-10.75-1.47c-.85-.72-2.92,0-2.56,1.24.84.57,2.73-.17,2.56-1.24m-3.86,1.26h0m-13.78-.73c.27-1.08-.14-1.5-1.23-1.24-.34,1.16.08,1.57,1.23,1.24m-8.8,0c-.16-2.61-2.47,1.22,0,0m38.71-.86h0m-6.35-1.84a24.63,24.63,0,0,1-4.49-3.92l-.28,1.93-2.23-1v4.35A26.41,26.41,0,0,1,714.8,574a26.93,26.93,0,0,1,1.3,2.42c.68-.65,1.34-1.32,2-2m-13.81,1.81h0m-6.45,0h0M726,574.7h0m-18.54-.84h0m10.55-.79c1.72-.62-.2-2.58-1.32-1.86a1.29,1.29,0,0,0,1.32,1.86m-34.64-.13c.35-1.15-.07-1.57-1.24-1.24-.25,1.09.16,1.51,1.24,1.24m25.42-.61a5.19,5.19,0,0,0,0-3c-1.78-.54-1.79,3.55,0,3m-21.48-1.72h0m41.41-3.91c-1.9.28-3,1.57-2.51,3.52,1.87-.06,1.94-2.18,2.51-3.52m-10,1.84c-1.14-.34-1.56.07-1.23,1.23,1.09.27,1.51-.15,1.23-1.23m-4.66.16c-1.08-.26-1.5.15-1.24,1.23,1.16.34,1.58-.07,1.24-1.23m-16.22,1.12h0M669.62,569h0m60.46-.72h0m-8.5-2.65a2.18,2.18,0,0,0,0,2.48c1.76.69,1.45-2.82,0-2.48m-6,1.8c1.19.25,2.73-2,.88-2-1.37-.64-2.37,1.65-.88,2m-19.79-2.8c-1.12,0-2.26,0-3.4,0,0,.56,0,1.67,0,2.21,1.19-.62,2.85-.75,3.36-2.19m10.12,1.2h0M684,563.66c-1.11-.66-1.93,1.22-1.14,1.94.95.4,1.7-1.25,1.14-1.94m36.35,0c-1.14-.33-1.56.08-1.23,1.23,1.09.28,1.51-.14,1.23-1.23M697.84,565h0m34.67-.75h0m-9.68,0h0m-5.65.11c-.16-2.61-2.48,1.22,0,0m-27.4-.16h0m-8.06-1.62h0m12.09-.79h0m37.92-.73a1.05,1.05,0,0,0,0-2.07c-1.12,0-1.12,2.12,0,2.07m-10.51,0h0m-8.86-1.63h0m-44.35,0c-.15-2.6-2.47,1.23,0,0m37.19-1.08-.16-1.74-1.75-.17c-.19.85,1.08,2.12,1.91,1.91m-5,.19c.39-1.24-1.69-2-2.55-1.24-.16,1.06,1.73,1.8,2.55,1.24m7.37-1.58h0m-20,0c1.22-2.48-2.6-.17,0,0m-11.56-2.12c-1.11-.66-1.93,1.22-1.14,1.94,1,.4,1.7-1.25,1.14-1.94M702,556.11c1.23-2.47-2.6-.16,0,0m10.46-1.73c-.83-.55-3.27-.55-2.77,1,.82.73,3.16.46,2.77-1m-5.74.94h0m-16,0c1.23-2.48-2.59-.17,0,0m43.42-.73h0m-37.89-.06h0m-8.06,0h0m-7,.15c-.29-1-.62-2-.95-3.08l2-.44a12.63,12.63,0,0,0-5.91-1.28l.61,1.23a8.27,8.27,0,0,0-1.76,1.88l2-.79c1.35.81,2.67,1.65,4,2.48m49.86-.9c1.23-2.48-2.59-.17,0,0m-35.66-1.36c-1.14-.34-1.56.07-1.23,1.23q1.64.4,1.23-1.23m-2.23,1.3c1.23-2.47-2.59-.17,0,0m-7.36,0h0m-30.64-.86h0m33.86-.75h0m51.6-.73h0m-7.28.11c1.39-.33,1-2.54-.46-2.18s-1.12,2.85.46,2.18m-4.82-.13h0m-8.94.08c.27-1.08-.14-1.49-1.24-1.24-.33,1.16.09,1.57,1.24,1.24m-15-2.92c-1.43,0-2.87,0-4.31-.06a5.25,5.25,0,0,0,.11,3.16,50.48,50.48,0,0,0,4.2-3.1m-50.05.5c-1-1.49-2.54.31-1.37,1.36S656,550,654.53,549m67.38.78c.66-1-1-1.94-1.65-1-1,1,1,1.84,1.65,1m-31.22-.06.74-.83c-.7-2.42-3.56,1-.74.83m58.77-.76h0M718,548.89h0m-6.36-.09c.35-1.15-.07-1.57-1.23-1.24-.26,1.1.15,1.51,1.23,1.24m-25.85.06c.33-1.32-.18-1.74-1.53-1.24-.23,1.31.28,1.72,1.53,1.24m-4-.78c0-.57.09-1.71.11-2.27l-2.32.08c-.33,1-.68,2-1,3,1.08-.29,2.16-.56,3.23-.81m-4.12.39-.6-1.88c.41,0,1.23,0,1.65-.05l-.82-1.47c-1.1.38-2.22.72-3.36,1a21.57,21.57,0,0,0,3.13,2.36m25.07-1.38c.68-1.11-1.2-1.94-1.94-1.14-.38.95,1.27,1.7,1.94,1.14m-6.41.14c1.23-2.47-2.6-.16,0,0m-12.09.39c-.1-2.52,3.17-2,4.85-2.81l-.81-1.47a11.87,11.87,0,0,1,7.19-.77c0-.38.1-1.15.13-1.54-1,0-2.07-.12-3.12-.2-.45-.48-.9-1-1.37-1.43-.56,3.09-4.13.44-6,0-.62,1-1.24,2-1.81,3l-2.08-.69c.93,2,.7,5.07,3,5.92m31.33-2.77h0m-7.26,0h0m-7.2-.62.14-.81h-2.42v-.81h2.42c0-.4,0-1.19,0-1.59L698,541l.91-1.53-3.28-.06,0,.79,1.88.17a3.16,3.16,0,0,1-3.29,3.35l0,.54a27.56,27.56,0,0,0,7,0M690.62,544h0m-13.71,0h0m25.8-1.57h0m-23.38.07c-.16-2.6-2.48,1.22,0,0m36.29-.84c1-1.26-1.23-2.28-2-1.27-1,1.28,1.25,2.3,2,1.27m-5.73-2.15c-1.14-.33-1.56.08-1.23,1.23q1.64.42,1.23-1.23m-2.35,1.42c-.15-2.6-2.47,1.23,0,0m-357.91-2.27h0m-95.84-.23q.53-1.73-1.23-1.23c-.25,1.09.16,1.51,1.23,1.23m492.46,0h0m-29.8,0a1,1,0,0,0,0-2.06c-1.12,0-1.12,2.12,0,2.06m-1.57-.18c.68-1.11-1.2-1.93-1.94-1.14-.38.95,1.27,1.71,1.94,1.14m-14.74.21c.56-.66-.18-2.32-1.14-1.94-.79.74,0,2.62,1.14,1.94m-236.85-.32c-.16-2.6-2.48,1.22,0,0m-79-.23h0m-2.42,0h0m329.71-.3h0m-3.13-.29c.5-1.89-3.32-1.49-2.85.2a3.32,3.32,0,0,0,2.85-.2m-4.74-1.14c-1-1.49-2.54.3-1.36,1.36s2.87-.36,1.36-1.36m-361.42,1c.27-1.08-.14-1.5-1.23-1.24-.33,1.16.08,1.58,1.23,1.24m377.27-1.64c-1.14-.33-1.56.08-1.23,1.24,1.09.27,1.5-.14,1.23-1.24m-24.5-.81,1.2.59c1.17-.78,2.35-1.52,3.5-2.3-1.36.21-2.72.49-4.08.75,0-.4-.06-1.2-.07-1.6l-1.33.1c-.24,1.13-.37,2.41-1.77,2.58,0,.56,0,1.7,0,2.27.87-.78,1.71-1.57,2.52-2.39M450.4,536.39h0m-66.1-.1h0m-24.95,0c1-.09,1.59-2,.31-2.08-1,.11-1.58,2-.31,2.08m-14.55,0h0m-91.9-.14h0m158-.56h0m327.28-.19c-.15-2.61-2.47,1.22,0,0m-28.13-1.17c-.8-.34-2.73,0-2.73,1,.82.73,3.22.4,2.73-1m-190.25.56c.82-.73,0-2.6-1.13-2-.55.69.21,2.34,1.13,2m-100.75-.07c.35-1.16-.06-1.57-1.23-1.24-.25,1.1.16,1.51,1.23,1.24m-9.76.06h0m-46-.07h0m88.79-.68c1.23-2.47-2.6-.16,0,0m301.37-.22c-.15-2.61-2.47,1.22,0,0m-8.19-1.36c-.56-1-2.62-1-2.18.53.2,1.28,2.4.5,2.18-.53m-52.14,1.15c1.22-2.48-2.6-.17,0,0M751.1,532h0m-14.52.09c-.16-2.6-2.48,1.22,0,0m-280.53-.54h0m-211.21-.33h0m370-.23h0M435,529.41q-1.71-.51-1.23,1.23,1.65.4,1.23-1.23m-85.4,1.15c.82-.21,1.92-1.1,1.5-2-1.12-.92-3.07,1.61-1.5,2m-97.53-.11c.86-.09,2.25-.85,1.68-1.88-1-.73-3.28,1.31-1.68,1.88m-1.59,0h0m122.45-.53c.28-1.08-.13-1.49-1.23-1.24-.32,1.16.09,1.58,1.23,1.24m325.76-.4h0M363.35,529h0m-93.51-.15h0m-20.16,0h0m436.12-.13h0m-161.11-.26c1.23-2.47-2.6-.16,0,0m-164.45-.25c1.24-2.47-2.6-.17,0,0m390.09.07c-.15-1.59.1-5.29-2.37-3.31a23.11,23.11,0,0,0,2.37,3.31m-57.17-.41c2-1.28-.95-2.68-2.16-1.73-.41,1.12,1.25,1.92,2.16,1.73M552,527.67h0m-188.65-.17c-.15-2.61-2.47,1.22,0,0m-85.24.12c0-1.23-.11-2.45-.21-3.69a31,31,0,0,0-3.17,2.43c1.14.42,2.26.86,3.38,1.26m-23.58-.4h0M642.39,527c1.23-2.47-2.6-.17,0,0M307,526.41q.53-1.73-1.23-1.23c-.25,1.09.16,1.51,1.23,1.23m428-.07h0M702,526.28c1.23-2.47-2.59-.16,0,0M311.3,524.41l2.25-.15c0-.43-.07-1.3-.09-1.73-1.29.29-2.58.64-3.89,1l.08,2.52c.56-.52,1.12-1,1.65-1.6m374.62,1c1.23-2.47-2.59-.16,0,0m-37.19-.05h0m110.44-.63h0m-46.67-.15c.35-1.16-.07-1.57-1.23-1.24-.26,1.1.15,1.51,1.23,1.24m-69.41-.84h0m-44.23-.07c1.23-2.48-2.59-.17,0,0m-46.07,0c-.16-2.61-2.48,1.22,0,0m-256.34-.51h0M319,522.5c1.09-1.35-1.4-1.74-2.11-1-.48,1.2,1.4,1.77,2.11,1m-14.46,0h0m445.88-.21c.35-1.15-.07-1.56-1.23-1.23q-.39,1.65,1.23,1.23m-189.53-.2h0m-171.78-1.58c-1.15-.33-1.56.08-1.24,1.23,1.1.28,1.51-.14,1.24-1.23m-41,1.25h0m-32.32-1.36c-1.14-.34-1.56.07-1.23,1.23q1.63.4,1.23-1.23m-3.73-1-.87-1.48,1.65-.18c-.15-.31-.45-.93-.61-1.24.83-1.07,1.57-2.2,2.29-3.34-2.65-.27-5.35-.63-8-1-.35,1.32-.73,2.65-1.07,4l-1.33-.77c-.06.39-.18,1.17-.25,1.56-.69-.17-1.41-.33-2.13-.48-1.33.56-.26,1.86-.14,2.83l3,.32c.7.71,1.36,1.42,2.09,2,2.09.68,3.73-1.34,5.38-2.28m-30.85,1.43h0M644,520.55c1.23-2.47-2.59-.16,0,0m-100.77-.15c1.23-2.47-2.59-.17,0,0m-317.73-.48h0M759,520c.65-1-1-1.94-1.65-1-1,1,1,1.84,1.65,1m-9.54-.07h0M681.79,519h0m-121.73-.19h0m-49.17-.08h0m-12.09,0h0m-231.36-.36h0m-45.95-.07h0m514.31,0h0m-2.42,0h0m-375.66-.58h0m-71.63-.11c1.24-2.48-2.59-.17,0,0m356.2-.26h0M295,516.79c1.24-2.47-2.6-.16,0,0m432.78-.94h0m-11.17,0c1.23-2.48-2.6-.17,0,0m-63-.09h0m93.49-.23c.1-1.14.17-2.29.23-3.45-.83-.52-1.66-1.07-2.51-1.61.55,1.78,1,3.66,2.28,5.06m-200.71-.63c-.16-2.6-2.48,1.22,0,0m-242.64-.48h0m-25,.11.8-.92c-.61-2.38-3.62,1.64-.8.92m-37.93-.1c-.15-2.6-2.47,1.22,0,0m243.38-1.86q-1.71-.49-1.23,1.23,1.65.42,1.23-1.23m-133.73,1.11h0m426.43,0c-.15-2.6-2.47,1.22,0,0m-49.16-.19h0m-206.37-.31h0M347.24,513c-.15-2.6-2.47,1.22,0,0m-2.41-.11h0m-29-.05h0m249-.36c-.14-.22-.4-.68-.53-.91-2.31-.5-.79,2.51.53.91m-5.52-.07h0M415,512.15h0M314.2,512h0m468.45.27c0-.41,0-1.24,0-1.65-1.35.12-2.71.15-4.07.16,1,1.22,2.6,1.33,4.06,1.49m-25.85-.51c.73-.75-.32-2.34-1.28-1.8-.72.76.33,2.36,1.28,1.8m-237-.25h0m-233.67-.36c1.24-2.48-2.59-.17,0,0m-43.72-1.38c-1.15-.33-1.56.08-1.24,1.24,1.1.27,1.52-.14,1.24-1.24m437.8,1.3c-.16-2.61-2.48,1.22,0,0m-105.6-.28h0m-152.35-.23h0m-66.11-.1h0m383.72-.11c-.16-2.6-2.48,1.22,0,0M232,509.45h0m246-1.44c-.79-.35-2.74,0-2.74,1,.82.73,3.23.4,2.74-1m162,.45h0m-143.5-.22h0M685,507.73h0m-99.15-.16h0M560,506.22c-1.14-.33-1.56.08-1.23,1.23q1.63.42,1.23-1.23m-24.91,1.28h0m-4,.05c.43-1.31,0-1.75-1.35-1.35q-.6,2,1.35,1.35m-37.86-.2q.53-1.73-1.23-1.23-.37,1.63,1.23,1.23m-9.91-1.11a3.38,3.38,0,0,0-3.32-.05c-.08,1.57,3.76,2,3.32.05m-96.39.42c1.5-1-.28-2.55-1.37-1.37s.37,2.87,1.37,1.37m-6.65.6h0m-85.45-.13h0m-1.61,0h0m390.16-.1c-.16-2.6-2.48,1.22,0,0m-184.95-3.88a3.48,3.48,0,0,0-.06,3.3c1.16-.11,1.9-3.73.06-3.3m-30.28,3.44h0m168.56-.71c.68-1.11-1.2-1.94-1.94-1.14-.38.95,1.27,1.7,1.94,1.14m-71.83.16c-.16-2.6-2.48,1.22,0,0M373,505.59c.81-1.11-1.06-2.4-2-1.85-.74,1.12,1,2.72,2,1.85m-8,0h0m-63.81,0c-.17-1.06-.77-1.24-1.79-.55.2,1.07.8,1.25,1.79.55m378.2-.29h0m-28.21-.05c1-.65.15-2.85-1-1.79-1.12.65-.19,2.75,1,1.79m-77.39-.11h0m-6.45,0h0m-197.44-.24c.43-1.32,0-1.76-1.35-1.36-.41,1.32,0,1.78,1.35,1.36M295,504.43c.56-1.78-3.54-1.79-3,0a5.2,5.2,0,0,0,3,0m395.73.08h0m-51.51-.16c.35-1.15-.06-1.56-1.23-1.24-.26,1.1.15,1.51,1.23,1.24m-67,.09c-.16-2.6-2.48,1.22,0,0m-12.09-.13h0m-82.22-.13h0m-102.39,0c-.16-2.61-2.48,1.22,0,0M307,501.26c-1,0-1.38,1.93-1,2.73,1.44.5,1.79-1.91,1-2.73m256.18,2.3c.66-.94-1-1.93-1.65-1-.95,1,1,1.84,1.65,1m-53.76.18c0-.6,0-1.82,0-2.43a40.52,40.52,0,0,1-4.12.15c.6,1.7,2.72,1.62,4.11,2.28m284.45-.57c-.16-2.61-2.48,1.22,0,0m-158.8-.36h0m-39.5-.06h0m-50,0c-.16-2.61-2.48,1.22,0,0m-2.41-.12h0m-3.23,0h0m-14.51,0h0m-37.84,0c1-.09,1.59-2,.3-2.08-.95.1-1.57,2-.3,2.08M383.27,499.5c-1.41-.39-1.68,2-1,2.76,1.54.51,1.55-1.92,1-2.76m-10.21,2.91h0m-75.77-.12h0m-2.31,0c1.24-2.47-2.59-.16,0,0m294.94-.34h0m-1.53-.09q.52-1.73-1.23-1.23c-.26,1.09.16,1.51,1.23,1.23m-228.11-.27c1.24-2.48-2.6-.17,0,0m394.09-.2h0m-197.65-.33c-.14-1.16-3.19-1.16-3.35,0a3.23,3.23,0,0,0,3.35,0M483.51,501h0m-56.43-.09h0m-40.31-.06h0M371.3,499.5c-.72-.8-2.6,0-1.95,1.13.69.57,2.35-.18,1.95-1.13m-6.38,1.39c.63-.81,1.29-1.61,2-2.38l-6,.38a36.36,36.36,0,0,0,4.06,2m405.68-.3c1.23-2.47-2.6-.16,0,0m-192.39-2.51c-1.48.71-3,1.45-4.37,2.27,2.14.52,4,.16,4.37-2.27m-17.31,2.2h0m-16.13,0h0M399.67,500h0m-22.58.08c-.16-2.6-2.48,1.22,0,0M245.7,499.8h0m510.28,0h0m-173.28-.24c1-.09,1.6-2,.31-2.08-1,.11-1.57,2-.31,2.08m-85.49-.15h0m-70.82-.12c1.23-2.47-2.6-.17,0,0m-108.94-.16h0m-4.73,0c1.24-2.48-2.59-.17,0,0m-103.3,0c-.15-2.61-2.47,1.22,0,0m389.37-.32h0m-215.13-.34c1.23-2.48-2.59-.17,0,0m-64.57-.25c.7-1-.86-2.59-1.91-1.91-.41.95,1,2.34,1.91,1.91m-22.6.12h0m-84.65,0c-.15-2.6-2.47,1.22,0,0m162.84-.56c-.16-2.6-2.48,1.22,0,0m-70.94-.22h0m-4.91-1.32c-1.15-.34-1.56.07-1.24,1.23,1.1.27,1.51-.14,1.24-1.23m-6.26,1.29c1.24-2.47-2.59-.16,0,0m-75.18-.19c1.11-.26,3.31-.38,3.2-1.89-1-.48-4.65.73-3.2,1.89m544.23.23c-.16-2.6-2.48,1.22,0,0M631,497.16h0m-85.53-1.44c-1.15-.34-1.56.08-1.24,1.23,1.1.27,1.51-.14,1.24-1.23m208.06.82h0m-12.06.31-.45-1.48a22.32,22.32,0,0,0,2.39-1.73c-1.63.28-3.26.59-4.91.78l.09.48c1,.63,1.91,1.33,2.88,2m-167.43-1.44c-.44-1.07-.91-2.14-1.43-3.2l-.32,1.89-1.66-.8c.24,1.09.5,2.17.78,3.23l2.63-1.12m-55.17-.54c-1.15-.33-1.56.08-1.24,1.23,1.1.28,1.51-.13,1.24-1.23m-141,1.21c-.15-2.59-2.47,1.22,0,0m-41.1-.17h0m317.62-1.13h0m-71.75-.11h0m-66.1-.1h0m241.76-.35q.4-1.62-1.23-1.23c-.34,1.16.07,1.58,1.23,1.23m-179-.3c-.14-.22-.4-.68-.53-.91-2.31-.5-.79,2.52.53.91m-57.72-3.16c-1.23.22-1.3,2.08-.65,2.89,1.58.64,2.34-2.67.65-2.89m-25.89,3c1.23-2.47-2.59-.16,0,0m-78.31-.11h0m-155.58-.24h0m61.27-.71h0M627.74,491c-1.14-.34-1.56.07-1.24,1.23,1.1.27,1.51-.14,1.24-1.23m-56.35,1.22h0m-46.76-.87h0m129-.5c-.16-2.6-2.48,1.22,0,0m-98.52-1.52c-.79-.72-3.21-.39-2.73,1,.81.36,2.76,0,2.73-1M490,490.61c-.15-2.6-2.47,1.22,0,0m75-.69c-.16-2.6-2.48,1.22,0,0m-20.15-.15h0m108.83-.63h0m-349.86-.54h0m-8.87,0h0m483.68-.07h0m-353.9-.43c-.16-2.59-2.48,1.22,0,0m257.17-.52h0m-46.11,0c.4-.94-1.26-1.69-2-1.14-.66,1.13,1.22,1.95,2,1.14m143.67-.64a1.05,1.05,0,0,0,0-2.07c-1.12,0-1.13,2.12,0,2.07m-117.72-.2h0m-8.06,0h0M598,486.63h0m-83.84-.93h0m-1.61,0h0m237.92-.44c1.23-2.48-2.6-.17,0,0m-195.1-1.44c-1.07-.26-1.49.15-1.24,1.23,1.17.35,1.58-.07,1.24-1.23m-28.31,1.1h0m-114.4-.11c.43-1.31,0-1.76-1.36-1.36-.4,1.33.05,1.78,1.36,1.36m-30.59-.12c1.23-2.47-2.59-.16,0,0m-1.73.12c-.16-2.6-2.48,1.22,0,0m-79.88-.15q.41-1.62-1.23-1.23c-.33,1.16.08,1.58,1.23,1.23M781,484.49h0m-236.36-.35c.1-1.16-1.91-1.07-2.52-.44-.09,1.17,1.94,1.08,2.52.44M274,483.87l.8-.92c-.61-2.38-3.62,1.64-.8.92m457.85-.26h0m-72.56,0c-.15-2.59-2.47,1.23,0,0m-46-.87c-.15-2.6-2.47,1.22,0,0m-308.74-.59h0m-21,.06c.28-1.08-.13-1.49-1.23-1.24-.32,1.16.09,1.58,1.23,1.24m449.75-.13c.39-.94-1.26-1.69-1.94-1.14-.67,1.12,1.21,1.95,1.94,1.14m-3.07-.08h0m-145.92-.11c-.15-2.6-2.47,1.22,0,0m-33-.1c.42-1.32,0-1.76-1.36-1.36-.4,1.32,0,1.78,1.36,1.36m-8.13-.08h0m-263.61-.4h0m-4-.81h0m-37.09-.06h0m374-.12c-.16-2.6-2.47,1.22,0,0M515.07,480c.35-1.16-.07-1.57-1.23-1.24-.26,1.1.15,1.51,1.23,1.24m-160.51-.17h0m-74.33,0c.58-.67-.17-2.32-1.13-1.95-.79.75,0,2.62,1.13,1.95m-37-.07c-.18-1.05-.76-1.23-1.79-.55.2,1.08.8,1.25,1.79.55m431.4-.21h0m-131.37,0c.21-.23.62-.71.82-1-.79-2.72-4,1.52-.82,1m-18.48-.29q.53-1.73-1.23-1.23c-.26,1.09.16,1.51,1.23,1.23m-247.46-.3c1.24-2.48-2.59-.17,0,0m358.4-.15c.21-.84-1.06-2.11-1.91-1.92l.16,1.75,1.75.17m-51.37-.18h0m-30.71-1.36c-1.15-.33-1.56.08-1.24,1.23,1.1.28,1.51-.13,1.24-1.23m-4.7,1.37c.42-1.31,0-1.76-1.35-1.36-.41,1.33.05,1.78,1.35,1.36m-40.37-.13h0m-215.78-2.5c-.88-2-1.89.56-2.08,1.44,1.07,1.55,2.91.15,2.08-1.44m-53.55,2.18c.29-1.08-.13-1.49-1.23-1.24-.32,1.17.09,1.58,1.23,1.24m-3.22,0c.28-1.07-.14-1.49-1.23-1.23-.33,1.16.08,1.58,1.23,1.23M751.84,478c.56-1.22-1.3-3-2.37-1.73s1.46,2.32,2.37,1.73m-70-.09h0m-67.72,0c-.16-2.59-2.48,1.22,0,0m-330.51-.62h0m300.69-.34h0m-304.72-.47h0m259.58-.41h0m-229.75-.35h0m-22.57,0h0m-10.51-.07a2.53,2.53,0,0,0,1.46-2.83c-1.5-.85-3.12,2.31-1.46,2.83m-17.64-.1c.71-1,.52-1.59-.55-1.79-.68,1-.5,1.61.55,1.79m-23.44.09h0m531.35,0c1.23-2.48-2.6-.17,0,0m-212.82-.33c1.23-2.47-2.59-.16,0,0m-291.25-.37c-.13-.23-.39-.69-.53-.91-2.29-.51-.77,2.52.53.91m349.18-.34h0m-48.25-.08c1.23-2.47-2.6-.17,0,0m-5.76,0h0m-64.49-.1h0M307,474.21c-.15-2.6-2.48,1.22,0,0M246.41,474c-.48-1.11-3.68-1.11-4.18,0a4.89,4.89,0,0,0,4.18,0m14.57-.79c1.48-.8.77-3.07-.88-1.82-1.94.34-.52,2.83.88,1.82m-25.72,0h0m468.36,0c-.16-2.59-2.48,1.22,0,0M672.18,473h0M632.8,473c1.23-2.47-2.6-.16,0,0m-375.74-.41.8-.92c-.61-2.38-3.62,1.64-.8.92m-12.13-.17h0m508.68,0h0m-125-.19h0m-47.56-.07h0m-3.22,0h0m-77.47-1.43q-1.71-.5-1.23,1.23,1.63.42,1.23-1.23m-224.72,1c1.24-2.47-2.59-.16,0,0m-32.23.19a33.17,33.17,0,0,0,.83-3.3c-1.09.35-2.18.72-3.29,1.07a32.15,32.15,0,0,0,2.46,2.23m-2.63-.15c.29-1.08-.13-1.49-1.23-1.23-.32,1.16.09,1.58,1.23,1.23m-2.33-.09h0m345.83-.28h0m-33.05-.05h0m-42.73-.06h0m-227.34-.24c-.14-2.59-2.47,1.22,0,0m237-.55h0m-214.43-.33h0m-68.53,0c-.15-2.6-2.47,1.22,0,0m477.24-.19h0m-32.26.06c-.15-2.59-2.47,1.22,0,0m-77.38-.23h0M282,469.33c-.15-2.59-2.47,1.22,0,0m-12.89-.13h0m9.67-.68c-.15-2.59-2.48,1.22,0,0m-29-.16h0m479-.08c1.23-2.47-2.59-.16,0,0m-120.23-.06c-.16-2.6-2.48,1.22,0,0m-306.32-.58h0m-38.7-.06h0m-24.18,0h0m448.32-.13c1.23-2.47-2.59-.16,0,0m-12.2,0h0m-324.87-.49h0m-90.29-.14h0m-6.46.1c-.15-2.6-2.47,1.22,0,0m485.34-.29c.72-.74-.32-2.34-1.29-1.81-.71.77.33,2.37,1.29,1.81m-449.83-.4c.21-.23.62-.71.82-.95-.79-2.71-4,1.52-.82.95M729.78,466a7.19,7.19,0,0,0-4.91-3c-2,1.47.64,2.48,2,1.61.21,1.61,1.69,1.41,2.93,1.44m-59.89-.26c1.23-2.47-2.6-.16,0,0m-383-.57h0m-39.5-.06h0m7.26-.8h0m441-1.74h0m-21-.84h0m-2.42,0h0m-4.72-.83c1.23-2.47-2.6-.16,0,0m25.8-.76c1.23-2.48-2.6-.17,0,0m67.6-.7h0m-66.1-.1h0m-19.35,0h0m60-5.92c-1.07-.36-2.15-.74-3.25-1.08.15,1.17.27,2.33.32,3.49a27.2,27.2,0,0,0,2.93-2.41m-44.65,1.91h0m-7.18-1.59c1.46-.43.62-2.5-.71-2.26-1.5.26-.56,2.65.71,2.26m-11.36.07c-.16-2.6-2.48,1.22,0,0m-13.05-.87c.39-.93-1.26-1.69-1.94-1.14-.67,1.13,1.21,1.95,1.94,1.14m27.49-2.15c-1.15-.33-1.57.09-1.24,1.23,1.1.28,1.51-.13,1.24-1.23m47.73.5c.35-1.14-.07-1.56-1.23-1.24-.26,1.1.15,1.51,1.23,1.24M723.73,450c-1.15-.33-1.56.09-1.23,1.23q1.63.42,1.23-1.23m-52.42.28c.79-.93,1.78-2.25,1.51-3.53-1.51-.46-2.89,2.93-1.51,3.53m-12.73,0c.09-.32.28-.94.36-1.26-.89-2-2.21,1.71-.36,1.26m13.53-4.63c-.18-1.06-.78-1.24-1.79-.55.2,1.07.79,1.25,1.79.55m-3.92,0c-.16-2.6-2.48,1.22,0,0m20.16-.89h0m-2.42,0h0m4-1.61h0m-23.27,0c1.23-2.48-2.59-.17,0,0m-16.24,0h0m20.16-1.58h0m-8.87-2.32c-.16-2.6-2.48,1.22,0,0m29-1.68h0m41.11-1.44c-.16-2.59-2.48,1.23,0,0M683.53,436h0m-33.86-.06h0m24.19-2.38h0m-38.69-2.47h0m46.68-2.51a3.14,3.14,0,0,0,.68-2.71c-1.58-.74-2.71,3.16-.68,2.71m-41-16.83h0m-19.34-4.06h0m4-4.83h0m36.87-7.67c-1.34-.73-3,1-3.21,2.12,1.35.75,3-1,3.21-2.12m-36.87,2.14c-.16-2.6-2.48,1.22,0,0m-18.63-9.79c.55-.95-1-2-1.81-1.29-.54,1,1.06,2,1.81,1.29m9-1.63h0m39.61-1.56c1.23-2.47-2.59-.16,0,0m-21-1.17c-1.08-.26-1.49.16-1.23,1.24,1.17.34,1.58-.07,1.23-1.24m40.15-3.33c-1.15-.33-1.57.09-1.24,1.23,1.1.28,1.51-.13,1.24-1.23m-30.52-2.94c.73-.8.4-3.21-1-2.73-.34.81,0,2.75,1,2.73m13.55-.54c-.17-1.06-.77-1.24-1.79-.55.2,1.07.79,1.25,1.79.55m-20-3.32h0m9-.8c1.22-2.48-2.6-.17,0,0M661.05,370c-.16-2.59-2.48,1.22,0,0m-6.62.23c0-.8.06-1.62.11-2.44-.95-1.15-1.84-2.36-2.79-3.53,0,1.12-.09,2.22-.12,3.32,1,.87,1.85,1.8,2.8,2.65m7.44-2.76h0m6.45-2.41h0m-14.51-.82h0m-5-2.12c-1.12-.66-1.93,1.23-1.14,1.94,1,.41,1.7-1.25,1.14-1.94m-14.18.63c0-.67-.13-2-.18-2.68-1.39.59-1.8,2.13-2.45,3.35l2.63-.67m-36.44-9.77c-.16-2.6-2.48,1.22,0,0"></path><path class="cls-3" d="M639.7,651.84c-1,.56-2-1-1.29-1.81,1-.54,2,1.06,1.29,1.81"></path><path class="cls-3" d="M637.36,651.68a3.13,3.13,0,0,1-3,.1c-.86-1.92,3.55-2,3-.1"></path><path class="cls-3" d="M640.61,649.83,638.35,648v-.58c.77-.6,1.52-1.21,2.27-1.82,0,1.41,0,2.82,0,4.23"></path><path class="cls-3" d="M637.69,649.6c-1.81-.87-4.37-1-5.34-3,1.88.7,4.57.82,5.34,3"></path><path class="cls-3" d="M659,641.47c2,3.7-.21,5.5-2.85,6.74-.23-.4-.72-1.22-1-1.63l2.15-1.11c.49-1.36,1-2.69,1.65-4"></path><path class="cls-3" d="M623.7,643.28l-1.49.15c.19-.45.59-1.35.78-1.79l-2.42-1,.84-1.43,1.53.81c-.14-.94-.27-1.87-.42-2.83.79,1.16,1.5,2.34,2.23,3.51-.34.86-.68,1.7-1,2.55"></path><path class="cls-3" d="M663.85,641.41c-1.74.46-1.39-2.41.2-2.13,1.17.18.42,1.73-.2,2.13"></path><path class="cls-3" d="M676.82,627.87c-1.29,0-1.06-2.32.15-2.3,1.39.08,1,2.17-.15,2.3"></path><path class="cls-3" d="M592.85,614.06c-1.32,1.6-2.84-1.42-.53-.91.13.22.39.68.53.91"></path><path class="cls-3" d="M593,611.44c-.94.65-1.93-1.05-1-1.66,1-.95,1.84,1,1,1.66"></path><path class="cls-3" d="M694.65,598.49c.35,1.17-.07,1.58-1.23,1.24-.26-1.09.15-1.5,1.23-1.24"></path><path class="cls-3" d="M695.64,591.66c2.8,1.43,1.1,4.68,0,6.7a22.34,22.34,0,0,1,.52-4.23c-.19-.82-.36-1.64-.54-2.47"></path><path class="cls-3" d="M692.17,598c-1.12.05-1.12-2.11,0-2.06a1,1,0,0,1,0,2.06"></path><path class="cls-3" d="M711.53,593.91c-.95.55-2-1-1.28-1.81,1-.54,2,1.06,1.28,1.81"></path><path class="cls-3" d="M693,584.47c-2.83.72.18-3.29.8-.91-.21.22-.6.69-.8.91"></path><path class="cls-3" d="M705.8,582c-1.15.34-1.57-.08-1.24-1.24,1.1-.25,1.51.16,1.24,1.24"></path><path class="cls-3" d="M686.93,544c-1.1.37-2.21.75-3.34,1.1l0-1.37c1.49-.26,1.62-1.71,2-2.93a9.77,9.77,0,0,1,1.34,3.2"></path><path class="cls-3" d="M309.38,520.06c-1.12.06-1.11-2.1,0-2.06a1,1,0,0,1,0,2.06"></path><path class="cls-3" d="M310.1,516c-1.76-.83,2-3.24,2.45-1.59A3.07,3.07,0,0,1,310.1,516"></path></g></g></g></svg>