<svg fill="currentColor" xmlns="http://www.w3.org/2000/svg" viewBox="0 0 1000 1000"><g class="cls-1"><g id="Shapes"><g id="Shape_128" data-name="Shape 128" class="cls-2"><path class="cls-3" d="M509.18,200.71l-.95-.7c-5.89.13-11.78-.15-17.66.13-4,1.13-8.12,0-12.11.93-10.94,1-21.93,2-32.64,4.45.1-.63.23-1.25.38-1.87l-1.73.32.33,1.92c-18.34,2.61-35.94,8.64-53.28,15l-1.14.95c-2.8.85-5.41,2.22-8.21,3.05l-1.11,1c-4.37.87-8,3.66-12.11,5.08-2.05,1.54-4.6,2.06-6.81,3.31-17.13,9.84-34,20.25-49.31,32.78-3.9,3.19-8,6.21-11.28,10.08-3.35,1.86-5.79,4.85-8.26,7.68-4,3.41-7.25,7.49-11.1,10.95-4.63,5.57-9.65,10.8-14.33,16.32-4.5,6.18-9.49,12-13.52,18.51-2.94,3.26-4.45,7.57-7.77,10.5,0,.32-.09,1-.13,1.27-3.56,5.74-6.93,11.62-10.35,17.44a18.48,18.48,0,0,1-2.37,4.87c-1.8,2.65-2.3,5.95-4.3,8.48-2.25,5.8-5.29,11.25-7.58,17-3.47,10.4-7.53,20.62-10,31.32a342.41,342.41,0,0,0-8.22,40.71c-1.7,7-1.18,14.2-2.42,21.24-.16,4.95.08,9.91-.07,14.86,0,1.54-.88,3-.45,4.56,1,3.55,0,7.32.86,10.9.78,3.74-.24,7.62.67,11.34.81,4.33-.3,8.81.71,13.12.49,3.91,1.91,7.72,1.59,11.71.76.77,1.53,1.54,2.28,2.31h-2c-.28-.83-.58-1.66-.91-2.48.28,1.65.57,3.29.88,4.93a9,9,0,0,1,1.07.36c0,8.06,4.43,15.27,5.36,23.21.27,4.71,3.3,8.66,3.55,13.37,1.57,4.8,3.28,9.56,5.23,14.22l-.66.61c1.09,2.86,2.23,5.7,3.4,8.51.33,0,.66,0,1,0,.23,3.54,2.63,6.38,3.95,9.55,1.44,2.67,1.51,6.17,4,8.19a98.05,98.05,0,0,0,4.87,11q2.38,4.34,4.89,8.58a7.3,7.3,0,0,0,1.74,1.81l.12,1.11c2.12,3.93,5.41,7,8.15,10.45l-.82.89a28.72,28.72,0,0,1,2.19,3.45c1.75.94,2.74,2.69,3.71,4.35,1.8,3.32,4.5,6,6.68,9,0,.21,0,.58.05.88l.5.64a3,3,0,0,1,.55.69q2.52,3.18,5.11,6.29l-1.68-2.48a9.19,9.19,0,0,1,3.53,1.87c-.4.47-.78,1-1.16,1.44l.18.21.75-.41.79-.61c.14.4.44,1.19.59,1.59l-1.38-1c.35,2.5,3.37,3.18,4.92,4.89l-.66,1c0,.07,0,.17,0,.27l.59.65,1.24-1.13a25.8,25.8,0,0,1,1.86,3l-2.74-1.73a8.32,8.32,0,0,0,.6.94l2,2.21a21.52,21.52,0,0,1,2.4,2.56c.05-.46.16-1.39.21-1.85.74.51,1.47,1,2.2,1.56l-1.36,1.43c1,1,1.95,2,2.93,3l1.68-.48,2,2.14H287c1.92,1.47,3.23,3.6,5.2,5,.36.48.74.94,1.12,1.41l1.1,1,1.81-1.13-1.06,1.49a56.53,56.53,0,0,1,9.68,8.54c.71.53,1.41,1.09,2.09,1.65h2.3c-.3.58-.6,1.17-.88,1.76l.19.16,1.71.1c1.09,1.13,2.18,2.24,3.25,3.38l.65-.76c.92.61,1.85,1.22,2.76,1.86l-2,.27,1.4,1.39.76.59c.66-.33,1.31-.66,2-1,.07.89.16,1.78.25,2.67.13.11.27.21.41.31.51-.54,1-1.1,1.51-1.67l-.08,2.42,1.6-1.2-1,2,.35.25a7.52,7.52,0,0,1,6.15,2.82h1.89c.27,1.49,1.63,1.37,2.81,1.41.32.69.66,1.39,1,2.07-2.22.12-4.06-1.08-5.72-2.39.09.24.19.46.29.69,1.09.76,2.17,1.51,3.27,2.25l2.52,0a23.66,23.66,0,0,0,2.52,3.37l1,.66,1.61,0c.88,2.22,3.44,2.6,5.2,3.88a14.18,14.18,0,0,0,6.2,2.29c.38,1.23,1.59,1.18,2.64,1.29.39,1.06,1.39,1.26,2.39,1.42v1.51a22,22,0,0,1,5.09,2.87l1.3.1c.52.54,1,1.07,1.57,1.59.24-.24.72-.7.95-.94a13.08,13.08,0,0,0,2.67,2.53c1.49.49,3.52.43,4.18,2.13H373c.42.45.84.88,1.27,1.32l.36.17,1.14-.85,2.19,0v.65h-2V773a30.7,30.7,0,0,1,6.32.85c1.05.84,3,1.44,1.95,2.92l.4.17-.06-.52h1.67a2.3,2.3,0,0,0,2.15,1.52l1.15,1c2.65.81,5.16,2,7.74,3l2.74,1c2.91.4,5.48,1.93,8.26,2.77,3.85,1.1,7.66,2.34,11.5,3.46l.52.14,1.46.4,1.95.52a8.38,8.38,0,0,1,8.11.16c-1.06.08-2.1.13-3.15.17v.93c.67.17,1.35.32,2,.48,3.08.58,6,1.75,9.27,1.18-.1.27-.19.54-.28.82l2.46.48a30.38,30.38,0,0,1,7.17.86l0-.81-2,0v-.66h2.37c.32.65.66,1.29,1,1.91,4,0,7.79,2.22,11.76,1.14a23.41,23.41,0,0,1,5.55-.41v.7h-3.34v.61c2.84-.15,5.58.74,8.42.79L471,797.08l2.05,0,1.24,1.38,3.23,0L476.3,797c1.08.4,2.18.76,3.29,1.1l-2,1c1.36,0,2.72,0,4.08,0,.28-1.71,2-1.29,3.26-1.42l-1.08,1.42c1.53,1,3.22.4,4.86.09a12.85,12.85,0,0,0,8.13-.16c-.07.32-.14.65-.22,1l3.74,0,3.78,0-.09-.24c6.71.49,13.27-1,20-.66l.3,0c.24-.19.67-.5.9-.67a3,3,0,0,0,1.4.48l1.87-.17a9.77,9.77,0,0,1,2.21-.28c5.6-.47,11.14-1.42,16.72-2.14v-.54h-4.24c.3-.36.89-1.06,1.18-1.42a12.73,12.73,0,0,1,6.28,1.49l.27,0c-.57-.69-1.13-1.37-1.7-2h3.94L551,795.12a21,21,0,0,0,5.77-.84v-.48l-2.47-.19c1.36-.54,2.76-1,4.16-1.4a27.81,27.81,0,0,1-1.48,2.47l1.86-.36c0-.16.06-.31.08-.47,2.64-.42,5.26-1,7.88-1.52,5-1.68,10.53-2.06,15.21-4.7-1.71.16-3.35.74-5.08.84,3.15-2,7.15-1.59,10.26-3.65l-1.26,1.72c1.65-.36,4-.1,5-1.78-1.7,1.38-1.54-1.61,0,0,1.09.78,2.58-.46,3.84-.53v-1.58l1.88-.6c1.63-1.52,1.53,1.54,0,0l.41,1c4-.31,7.56-2.9,11.51-3.86l-2.87-.32c.82-.55,1.67-1.08,2.53-1.61,1.2.4,2.68,1,2.89-.88l2.53,0q-.4.92-.78,1.83,2.14-.87,4.27-1.77l-.1-.09h-2.29c.31-.64.61-1.29.92-1.95,1.79-.56,3.61-1,5.42-1.54a12.05,12.05,0,0,1,4-2.11c2-1.48,4.59-2,6.65-3.44,3-2,6.73-2.85,9.32-5.45a12.48,12.48,0,0,0,7.28-4c5.88-1.86,10.59-6.1,15.57-9.57l1,1-1.42,1.24c0,.44,0,.88,0,1.32l2.06-1.33h0a2.06,2.06,0,0,1,1.27-.84l2-1.32c-.49-.41-1-.8-1.49-1.19.7-1.91,2.29-3.1,3.91-4.19l1.32-.08c5.79-5.23,12.26-9.63,18.29-14.6,4-2.15,6.44-6.12,10.14-8.63,2-1.6,3.51-3.6,5.56-5.08a11.6,11.6,0,0,1,2.68-2.69c4.48-4.82,8.56-10.09,13.73-14.19a68.67,68.67,0,0,1,6.35-7.16c1.82-3.36,4.67-6,6.84-9.1,4.64-5.88,8.75-12.11,13.26-18.08,4.47-7.05,8.29-14.51,12.76-21.57l.16-1.22c.84-1.07,1.59-2.21,2.38-3.33,1-3.34,3.57-6,4.47-9.37,1.51-2.06,2.19-4.56,3.16-6.91,3.61-7.92,7-16,9.86-24.2,7.06-17.36,10.07-35.92,13.81-54.17.62-7.79,2.32-15.5,2.26-23.34l.87-1.16-.62-.76c1.15-5.22-.34-10.68,1-15.89-.28-1.76-.91-3.55-.38-5.34.78-2.2-.41-4.45.36-6.68-1.17-5-.1-10.24-.73-15.33-1.31-6.17-.82-12.52-2.28-18.66-.38-6.11-2.31-12-3.08-18a335,335,0,0,0-10.19-37.7c-2.76-6.1-4.68-12.53-7.35-18.66-1.31-4.72-4.21-8.75-5.85-13.33a16.34,16.34,0,0,1-2.63-5.44l-.92-1.14a20,20,0,0,0-2.83-5.8c-2.3-4.28-4.39-8.74-7.36-12.62-5.71-9.08-11.49-18.17-18.2-26.56-5-7.1-11.23-13.23-16.81-19.87a15.57,15.57,0,0,0-2.68-2.64,12.56,12.56,0,0,0-2.69-2.66c-5.5-6.49-12.06-11.95-18.24-17.75-4.45-3.3-8.23-7.5-13.13-10.17-.87-1.87-2.82-2.58-4.42-3.66-4.52-4.3-10.25-7-15.14-10.86-12.25-7.6-24.55-15.26-37.89-20.82a64.5,64.5,0,0,0-12.69-5.27l-1.12-1a383.94,383.94,0,0,0-40.48-13.19c-7.86-1.25-15.5-3.71-23.45-4.46-6.8-1.56-13.81-1.4-20.67-2.69-5.21-1.26-10.65.26-15.83-1.12a5.71,5.71,0,0,0-3.58.61M502.94,799c.16-.87.66-1,1.49-.44-.17.87-.67,1-1.49.44m2.58,0c.13-2.18,2,1,0,0m12.94-1.11c0,1-1.68.81-2.2.34,0-1,1.66-.8,2.2-.34m22.76-1.69a3.48,3.48,0,0,1-3,0c.22-.9,2.78-.9,3,0M492.44,201.39c-1.08.5-2.2,1-3.28,1.43-.5-.47-1-.95-1.45-1.45,1.57,0,3.15,0,4.73,0m2.24.64v-.66H502c0,.34,0,1,0,1.39-2.34-.95-4.89-.74-7.34-.73m-10,0v.67c-2,0-4,0-6,0V202h6m-8.67.67v.54a18.06,18.06,0,0,0-4.68.85c0-.35,0-1,0-1.39q2.32,0,4.68,0m17.57,4,2.65-.06,1.15.91,1.09-1,.91,1.22a22.12,22.12,0,0,0-1.47,7c.25.32.78.94,1,1.25-.54.53-1.07,1.06-1.6,1.57,0,1,0,2,0,3a9.19,9.19,0,0,0-6.09,1.45l-1.06-.64a32.34,32.34,0,0,1-5.11-.16,12.79,12.79,0,0,0-2-1.37c-.43.7-.83,1.4-1.23,2.1l1.48,0-.05.83c-1.78-.44-3.56-.87-5.29-1.43,0,.36-.07,1.08-.09,1.44-1.09-.27-2.17-.62-3.23-1l0,2.11H474c0-.52,0-1.54,0-2.06a26.6,26.6,0,0,1-4.12.91l-1.1-1c-.37.74-.73,1.48-1.08,2.2-1-.29-2-.9-3.05-.64-3,.6-6.12.73-9,1.7-1.07-.42-2.61-.46-3-1.76-1.7-4.25-1.45-9-2.67-13.35,2.83.26,5.6-.4,8.41-.46,1.43-.15,2.88-.2,4.33-.28,0-.32,0-1,0-1.32-2.83,1.22-6,.34-8.87,1.1a17.59,17.59,0,0,1-4.86.24,14.34,14.34,0,0,1,1.27-1.8c6.57-.82,13.16-1.63,19.7-2.71,5.61-.2,11.17-.8,16.74-1.44,4.53,0,9.06,0,13.6,0a4.28,4.28,0,0,1-1.1,2.63c-2.29.27-4.48-.55-6.72-.81l1.16,1.52m32.14,19.61c8.57.33,17.07,2.08,25.54,3.5l.51-.55,1.2,1.43h2.56c-2.5,6.19-2.7,13-4.46,19.34-1.13,5.74-2.13,11.51-3.65,17.17q-4.18,21.48-9.15,42.79a70,70,0,0,1-2,10.06c-1.23,6.24-2.29,12.53-4,18.66-.51,5.65-2.65,11-3,16.71h-1.82c0-4.13-1-8.16-1.77-12.21-4.56-31.12-10.17-62.1-15-93.19-1-8.34-2.75-16.57-4.11-24.81,4.33.87,8.72.74,13.1,1,2-.11,4,.8,6,.1m55.7,11.49c7.13,1.35,13.62,4.6,20.23,7.44.23.49.45,1,.64,1.5a45.36,45.36,0,0,0-5.36,8.2c-2.14,3.4-4.67,6.55-6.46,10.15-5.28,7.72-10.18,15.66-15.06,23.63-2.49,3.34-4.06,7.33-7.12,10.23-1,3.7-3.93,6.39-5.6,9.76-1.93,2.75-3.27,5.92-5.73,8.25a14,14,0,0,1-2.49,4.86c-2.73,3.81-4.77,8-7.47,11.86-3.52,5-6.4,10.4-10.16,15.21-2,2.43-2.6,6.09-5.49,7.6-.31-3.12.95-6,1.36-9.06,2.44-11.1,4.59-22.28,7.28-33.33,4.28-20,8.25-40.13,12.75-60.09C553.8,247,556,240.09,556.81,233c.55-.53,1.1-1.08,1.66-1.63,7.46,2.78,15.44,3.83,22.94,6.51m-15.85-5.18c.12-2.17,2,1,0,0m12.09,2.62c.15-.86.66-1,1.5-.44-.17.88-.67,1-1.5.44m3.88.71c-.42.86-.88.83-1.36-.09.43-.84.88-.8,1.36.09m11.62,3.52c-.16.88-.66,1-1.49.44.15-.86.65-1,1.49-.44m3.76,2.49c.13-2.17,2,1,0,0m5,15.85-1,1.11c-.8,4.05-3.31,7.41-4.63,11.25-4.07,10.81-9.26,21.13-13.55,31.86-1,2.29-2.55,4.42-2.85,7-3.07,5.11-4.75,10.92-7.15,16.35-3.65,8.19-7,16.47-10.77,24.61-2,6.15-5.45,11.66-7.46,17.8-1.78,2.19-2.2,5-3.32,7.56-.81,2.23-2,4.29-2.67,6.58l-1,1.11c-.3,1.19-.64,2.37-.92,3.55-.26.28-.78.83-1,1.11a27.27,27.27,0,0,1-3.28,7.47c-1.38,3.71-3.31,7.21-4.5,11l-1.65,0c-2.91-13.47-4.31-27.18-6.77-40.75.63-2.9,2.54-5.38,4.14-7.84,1.57-2.13,2.55-4.65,4.49-6.5,0-.32.08-1,.1-1.28a17.12,17.12,0,0,0,2.89-4c2.56-2.93,4-6.65,6.41-9.73,4.53-7.63,9.68-14.86,14.12-22.54,4-5.26,7.12-11.16,10.58-16.8,8.82-12.91,16.6-26.47,25.23-39.49,2.85-3.62,4.43-8.12,7.77-11.38.27.33.81,1,1.09,1.3a99.61,99.61,0,0,0-4.29,10.63m13.46-8c-.82.33-2.46-.63-1.81-1.61.87-.59,2.35.7,1.81,1.61m1.59.9c2.47-.36,4.57,1,6.67,2.09,1.4.68-.28,1.55-1.14,1.54l2.36,1.15c.73-.58,1.45-1.16,2.21-1.73a2.29,2.29,0,0,1-1.85,2c1.8.72,3.54,1.84,5.57,1.59,2.85-.4,4.94,1.85,7.16,3.23-1.23-.25-2.45-.51-3.69-.65,1.76,1.63,4.12,1.49,6.34,1.5l-2,.82c.88.53,1.74,1.1,2.58,1.7l1.27.12c2.25,2.48,5.47,3.57,7.95,5.74,2.18.06,2.7,1.95,2.42,3.79-4.06,4.68-7.19,10.08-10.62,15.21a21.93,21.93,0,0,0-3.52,4.57c-4.89,7.11-9.34,14.53-14.39,21.54-3.52,4.16-5.65,9.3-9.22,13.41-4.44,7.67-10,14.64-14.66,22.14-3.27,4.53-6,9.45-9.35,13.9-1.62,2.47-2.8,5.63-5.78,6.77,2-11.56,5.17-22.88,7.45-34.39,6.81-28.88,13-57.91,19.56-86.84,2.06.84,4.35,1.22,6.15,2.61,1,.28,1.9.58,2.87.82-1.38-1-3-1.62-4.37-2.67M654.28,272c.13-2.17,2,1,0,0m7.22,3.15c-.32.81-.63,1.61-.92,2.41,1-.32,2-.68,3.09-1l-1.16,1.78c3,1.36,4.8,4.22,7.77,5.55.92-.25,1.86-.44,2.82-.64-.59.7-1.18,1.36-1.77,2,5.22,2.09,8.54,6.75,13.13,9.76,2.46,2.83,5.57,5,7.8,8.12-2,1.24-3.73,2.74-5.74,3.89-10.72,7.81-22,14.92-32.63,22.86-10.24,6.58-20,14-30.22,20.52-6.15,4.91-13.1,8.69-19.35,13.44-1.53.53-3.15,1.08-3.9,2.64a60.94,60.94,0,0,1-7,5c-2.38,1.31-4.25,3.43-6.88,4.29.16-3.27,2.8-5.48,4.45-8.06,1-1.35,1.57-3.1,3-4.07,0-.28.05-.86.07-1.14a82.75,82.75,0,0,0,6.44-9.3c9.35-13.58,18.67-27.18,27.67-41,2.37-3.79,5.38-7.13,7.75-10.93,1.33-1.83,2.28-3.95,3.86-5.6a17,17,0,0,1,2.89-4c0-.32.07-1,.09-1.28,2.26-2.87,4.52-5.74,6.57-8.76,0-.33.08-1,.1-1.3,2.38-2,3.67-4.93,5.73-7.22A29.2,29.2,0,0,0,659.7,276l1.8-.79m34.71,28.77c-1-2,2.16-.13,0,0m24.68,28.4c-1.2,1.86.6,3.38,1.73,4.68,2.2,2.86,4.17,5.9,6.17,8.91,0,.32.07,1,.1,1.28-13.09,9.62-27.47,17.45-40.66,27-7,4.28-13.7,8.94-20.54,13.42a10.59,10.59,0,0,0-3.28,2.25c-5.53,3.22-10.89,6.75-16.11,10.46-1.95,1.8-4.83,2.2-6.58,4.21-4.68,2.76-9.05,6-13.62,8.91-1.06.76-2.39.69-3.6.82,3.14-3.34,5-7.64,8.07-11a55.32,55.32,0,0,0,3.44-5.22c3.13-3.43,5-7.8,8-11.3,2.3-2.47,3.45-5.76,5.85-8.17q8.07-11.13,16.16-22.21l.08-1.13a7.07,7.07,0,0,0,2.24-2.77,6.58,6.58,0,0,0,1.7-1.63c5.14-7.94,11-15.41,16.16-23.35,4.56-5.36,8.35-11.28,12.76-16.78l1.4,0c2.15,3.67,5.62,6.22,8.31,9.44,3.79,3.93,6.84,8.51,10.71,12.35,0,.27.07.81.1,1.07l1.36-1.3m7.06,8c.07.73-.27,1-1,.9-1.9-.86,0-2.47,1-.9M760.23,410c2,7.72,5.89,14.87,7.09,22.8.78,4.21,2,8.34,3,12.49-9.18,2.16-18.55,3.27-27.74,5.43-25.76,4.7-51.47,9.8-77.13,15.12-5.55,1.37-11.29,1.88-16.76,3.57-.28-.72-.55-1.46-.8-2.2,4-1.71,7.59-4.29,11.16-6.78,14.16-8.41,27.8-17.71,42-26,4.32-3.4,9.41-5.63,13.84-8.85,2.33-2,5.47-2.79,7.81-4.84,11.37-6.61,22.11-14.28,33.75-20.45.55.26,1.11.52,1.68.76-.44,3.2.89,6.11,2.07,9m.5-6.43c.34,1.09,0,1.46-1.11,1.1-.35-1.08,0-1.45,1.11-1.1M642.17,472.7c-1-2,2.18-.13,0,0m-4.57-.57c.13-2.17,2,1,0,0m8.11.48c.6-.54.88-1.74,1.88-1.67,3.54-.2,6.94-1.31,10.42-1.95a51.1,51.1,0,0,0,8.11-1.46c6.38-1.57,13-2.27,19.32-3.94,26.12-4.42,52-9.79,78-14.72,2.23-.11,4.21-1.48,6.46-1.38,2.26,3.29,1.62,7.7,2.38,11.48,1.06,4.13,0,8.43,1,12.56.26,1.55.17,3.13.44,4.67,1.15,5-.32,10.22,1,15.19.44,1-.4,2.37-1.5,2.15-17-3.36-34.31-5.29-51.37-8.57-4.93-1.32-10.11-1.1-15-2.54-20.39-3.38-40.8-6.34-61.18-9.82M631.5,470.7c-1-2,2.17-.13,0,0m-11.91-1.9c.13-2.18,2,1,0,0m-5.92-.71c.16-.87.66-1,1.5-.45q-.25,1.32-1.5.45m1.91-2.79c-.47-.52-.62-2.22.35-2.2.45.54.61,2.23-.35,2.2m-40.68-3.84c.13-2.17,2,1,0,0m-2.17-.6h-5.34v-.67h5.34Zm18.73-1.17c1-.15,2.75,2.4.87,2.32a2.39,2.39,0,0,1-.87-2.32m12.89,1.23h1.46c.82,1.41-2.29,1.41-1.46,0m49.26,1.21c.13-2.18,2,1,0,0m-71.38.67c.14-2.18,2,1,0,0m43-4.73c-.25,1-1.62.7-1.82-.16-.58-1.62,2.14-1.21,1.82.16M640,456.44c.57.85.42,1.35-.44,1.5-.59-.83-.43-1.33.44-1.5m-22.33-3.74c0-1,1.66-.81,2.2-.35,0,1-1.68.82-2.2.35m62.4-6.58a5.06,5.06,0,0,1-3.25-.92c.5-1.06,3.1-.1,3.25.92m-43.79-1.34c.12-2.17,2,1,0,0m-2,1.34c.13-2.18,2,1,0,0m36.05-.12q.64.67,1.32,1.32a14.1,14.1,0,0,1-3.19,1.87,14.26,14.26,0,0,1,1.87-3.19m5,2.75c-.93.17-1.3-.2-1.13-1.13.9-.15,1.28.22,1.13,1.13m11.61-8c.12-2.17,2,1,0,0m-8.68-3.33c.14-2.18,2,1,0,0m-1.93-2.1c0-1,1.66-.8,2.2-.35,0,1-1.69.83-2.2.35m-.11-3.25c-.42.86-.87.82-1.36-.09.44-.83.88-.8,1.36.09m26.65-1.28c-.12,1.09-1.6,2.5-2.73,2,.24-1,1.75-1.84,2.73-2m-34.21.86c.28.85-1.08,1.65-1.75,1.14-.35-.84,1.1-1.44,1.75-1.14m4.87,1.26c.91-.15,1.29.22,1.13,1.14-.93.16-1.3-.21-1.13-1.14m31-4c.72.63-.2,2.22-1.06,1.65-.68-.66.1-2.29,1.06-1.65m-23.69-.19c-.35-1.08,0-1.45,1.11-1.11q.51,1.63-1.11,1.11m13.39-7.29c.14-2.18,2,1,0,0m3.21-.86c-.26-.94.09-1.29,1-1,.22.92-.13,1.27-1,1m9.2-4.37c0,1-1.66,1.55-2.47,1.24,0-.95,1.64-1.53,2.47-1.24m3.34-1.2c.29.84-1.08,1.62-1.75,1.13-.35-.83,1.09-1.44,1.75-1.13M709,417.43c.17-2.16,2,1.06,0,0m1.93.17c.91-.15,1.29.22,1.14,1.13-.93.17-1.31-.2-1.14-1.13M701,418.77c.12-2.18,2,1,0,0m12-4.67c.13-2.18,2,1,0,0m5.34-2c.13-2.18,2,1,0,0m3.34-2c.12-2.17,2,1,0,0m5.73-1.89c0,1-1.66,1.55-2.47,1.24,0-1,1.64-1.54,2.47-1.24m7.69-3.5c.16-.86.66-1,1.5-.44-.18.88-.68,1-1.5.44m11.26-2.62c.12-2.17,2,1,0,0m-2-.67c.12-2.17,2,1,0,0m-18,4.91-1.09,1c-1.2.29-2.38.63-3.56.92-.29.26-.86.81-1.14,1.07-4.27.6-7.88,3.2-11.88,4.59-4.3,1.82-8.65,3.44-13,5.08-.28.26-.85.76-1.13,1-4.34.6-8,3.18-12.12,4.38-3.23,2-7,2.81-10.45,4.31-17.57,7.45-35.37,14.33-53,21.69-8.63,3.06-16.85,7.1-25.54,10,0-.44-.05-1.33-.07-1.78,6.07-8.77,12.36-17.36,18.2-26.28,2.79-3.88,5.84-7.57,8.64-11.43,6.8-1.63,13.67-2.9,20.46-4.55A87.21,87.21,0,0,0,655.42,413c6.49-.65,12.69-3,19.17-3.82,20.75-4.53,41.53-8.81,62.24-13.52,5.73-.81,11.25-3.12,17.11-2.9l1.28,1.63a62.51,62.51,0,0,1-6.05,2.81c-7.76,2.64-14.93,6.81-22.81,9.11M530.1,468.7c-1-2,2.18-.13,0,0m-1.9.77c.13-2.18,2,1,0,0m-26.08-.7c-.17-.92.2-1.29,1.13-1.14.15.93-.22,1.3-1.13,1.14m-1.48,9.63.73,1a5.2,5.2,0,0,0-.3,4.39c.63,1.69-.29,3.35-.35,5-.11,2.17,0,4.34-.13,6.5a102.5,102.5,0,0,1-12.25-12,15.5,15.5,0,0,1-2-2,17.32,17.32,0,0,1-4-4,15,15,0,0,1-4-4c-.68-.51-1.34-1-2-1.55l-1.4.92.94-1.37c-1.59-3.27-5.31-4.53-7-7.66-.86.31-1.74.64-2.62.86l1.93-1.44a30.83,30.83,0,0,1-7.57-8.76c2.27-13.79,4.56-27.59,7.16-41.34.74-8.15,2.92-16.09,3.9-24.22,1.92-8.35,2.46-17,4.65-25.25,1.12-12.11,4.45-23.94,5.78-36.05.74-4.21,1.76-8.39,2-12.67.52-3.78,1.85-7.41,2.1-11.23,3.37-21.09,6.76-42.18,10.32-63.25.34-5.21,2.51-10.18,2.16-15.46h2c0,43.17-.05,86.34,0,129.5,1.12,4.42-1,8.92.4,13.38a14.69,14.69,0,0,0,.2,6.46c.08,13.82,0,27.65,0,41.49.07,1.59-.65,3.07-.6,4.64a36.69,36.69,0,0,1,.49,10.77,12.18,12.18,0,0,0-.31,5.56c-1.07,4.7,1.25,9.32.17,14,.85,9.33-.33,18.56-.46,27.87m4.11-7.7c-1-2,2.18-.13,0,0m12.78,9.44c.13-2.18,2,1,0,0M246.21,395.86c3.9,1.33,6.79,4.47,10.55,6.1,4.47,2.77,8.83,5.75,13.11,8.81,4.29,2.56,8.59,5.12,12.68,8,5.14,3.13,10.52,6,15,10l1.34.06c2.33,2.84,5.92,4,8.79,6.16,2.57,2,5.57,3.32,8.29,5.05a19.8,19.8,0,0,0,5.53,3.64c1.21,1.69,3.56,1.91,4.77,3.59a130.44,130.44,0,0,1,13,8.18c6.28,3.38,11.79,7.95,18,11.41.88.35,1.24,1.25,1.69,2-10.86-.76-21.38-4.2-32.11-5.85-20.67-4.58-41.53-8.39-62.25-12.76-8.3-1.11-16.41-3.16-24.65-4.65a42.16,42.16,0,0,1-8.16-1.64,24.78,24.78,0,0,1,.2-3.84c2.81-9.72,5.08-19.6,8.47-29.16,1.82-5.07,3.76-10.12,5.73-15.14m-7,12.13c-1-2,2.18-.13,0,0M404.91,241.52c.71-.44,2.35-.34,2.49.66,9.9-3.22,19.65-7,29.92-9,4.42-.77,8.73-2.18,13.21-2.62,4.31,20.36,7.15,41,11.36,61.4a12.94,12.94,0,0,0,1.29,6.1,59.45,59.45,0,0,0,2.6,14.66c1,6.72,2.52,13.36,3.61,20.08,1.53,5.47,1.63,11.21,3.17,16.67l-1.74,0c-1.63-2.32-2.73-5-4.77-7,0-.32-.08-1-.11-1.28a17.09,17.09,0,0,1-1.64-1.95c-3.53-5.95-7.64-11.54-11.36-17.38a44.32,44.32,0,0,0-5.57-8.06c0-.32-.07-1-.1-1.29a86.09,86.09,0,0,1-7.78-11.94c-7.2-11-14.43-22.06-21.38-33.26-4-5.27-7.18-11-10.95-16.43-1.23-2.5-3.5-4.41-4.13-7.21a8.17,8.17,0,0,0,4.37-1.45c-.75,0-2.38.34-2.49-.66m5.22-1.53c.13-2.17,2,1,0,0m2-.67c.13-2.17,2,1,0,0m4.75-2c.16-.86.66-1,1.5-.44-.17.88-.67,1-1.5.44m5.82-2.05c-1-2,2.18-.13,0,0m39.05-7.73c-.17.88-.67,1-1.5.44.15-.86.66-1,1.5-.44m4.41-.18c.13-2.16,2,1,0,0m-4.1,1.41c4.24-.69,8.52-1.11,12.81-1.45l.47-.57c-2.13.88-.27-2.13,0,0a23.28,23.28,0,0,0,6.66-.45c4.57-1,9.73,1.15,13.88-1.49l1,1.24-.83,1.15c0,7.13-2.65,13.89-2.89,21-2,7-2.1,14.23-3.61,21.27-1,4.33-1.12,8.81-2.31,13.1-.8,2.46-.37,5.09-1,7.57-2.43,11.91-3.52,24.05-6.13,35.93-.62,8-3.07,15.83-3.58,23.89-.52.46-1.05.89-1.59,1.28-3.44-19-7.09-37.91-10-57-2.37-8.79-3.44-17.86-5.13-26.8-.06-1.58-3.61-3.14-.52-3.62-1.86-7.18-2.15-14.65-4-21.84-1-2.51-.47-5.32-1.38-7.87-.24-1.49-1.58-3.63.26-4.58,1.87-.2,3.77.06,5.61-.44l-3.72-.67c2-.92,3.9.69,5.92.35m10.08,122.57c-.85-1,.95-1.7,1.47-.78.92,1-.94,1.58-1.47.78m-18.65-3.23c.13-2.17,2,1,0,0m4.67-8c.13-2.17,2,1,0,0m1.9-2.77c-1-2,2.17-.12,0,0m-16.27-3.73c.27,1.08-1.54,1.71-2.28,1.13-.28-1.07,1.52-1.7,2.28-1.13m14.75-.66c.34,1.1,0,1.46-1.1,1.11-.36-1.08,0-1.45,1.1-1.11m-25.17-2.28c-1-2,2.18-.12,0,0m14.11-.56c.13-2.17,2,1,0,0m9-.5c.31.65-.3,2.1-1.14,1.74-.5-.68.3-2,1.14-1.74m-25.77-5.61c-1-2,2.17-.12,0,0m2.34-1.82-2.41,0c0-.33,0-1,0-1.33h3.59l-1.17,1.35m-5.68-6.18c-1-2,2.18-.14,0,0m18.05-1.34c.43-.83.88-.8,1.36.1-.42.86-.88.82-1.36-.1m-16.46.8c1.17,0,2.35.05,3.53.1-1.54.8-3.16,1.42-4.74,2.1.41-.72.81-1.45,1.21-2.2m5,1.37h6v.67h-6Zm8.18,1c1,.82-.57,2.41-1.41,1.47s.46-2.55,1.41-1.47m6.8.72c.38.94.08,1.23-.88.88-.35-1-.06-1.26.88-.88M441.71,312h-1.46c-.82-1.4,2.28-1.4,1.46,0M424,307.93c-1-2,2.17-.13,0,0m2.1-1.23c.13-2.17,2,1,0,0m-3.44-2.1c-1-2,2.18-.13,0,0m13.53-3.29c.16-.86.65-1,1.49-.44-.16.88-.66,1-1.49.44m-4.3-5.85c0-.6.13-1.82.18-2.43a6.28,6.28,0,0,1,2.26,2.26l-2.44.17m-10.4-6.2c0-.95,1.67-.8,2.21-.35,0,1-1.69.83-2.21.35M416,287.58c.84-.35,1.45,1.11,1.14,1.74-.84.31-1.64-1.05-1.14-1.74m14.56,1.94c.15.93-.22,1.31-1.13,1.13-.17-.9.21-1.28,1.13-1.13m-4.26-7.08c.38.94.08,1.23-.88.88-.35-1,0-1.26.88-.88m-7.69.34c0-.61.14-1.82.18-2.42a34.66,34.66,0,0,1,2.92,2.33c-1,.05-2.08.07-3.1.09m-3.13-12.73c-.36-.83,1.09-1.44,1.74-1.14.28.85-1.07,1.65-1.74,1.14m-8.77-4.14c-1-2,2.18-.13,0,0m1.44-1.91c.13-2.16,2,1,0,0m-4.05-8c-.42.86-.87.83-1.36-.09.44-.83.89-.8,1.36.09m1.28-1.66c-.46-2,2.89-.18,2.42,1a2.72,2.72,0,0,1-2.42-1m2.7,1.84c.91-.16,1.29.22,1.13,1.13-.92.17-1.3-.21-1.13-1.13m-7.27-6.84c.13-2.17,2,1,0,0m-2.68-.15,1,1.14c.57,4.32,3.31,7.91,4.57,12,2.26,6.65,5.85,12.78,7.74,19.55.25.27.76.83,1,1.1.39,3.72,3.18,6.57,3.6,10.19.26.28.78.86,1.05,1.14,2.71,8.07,6.33,15.85,9.71,23.66,2.39,6.52,5.05,13,8,19.2,4.38,12.66,10.56,24.65,14.59,37.42l1,1.11a36.94,36.94,0,0,0,2.41,5.64c3.17,9.09,7.7,17.64,10.61,26.82h-1.68c-5.41-4.08-11.25-7.6-16.45-11.93-2.55-1.37-4.61-3.5-7.27-4.69-.87.42-1.73.83-2.58,1.26l-.93-2.11a13.68,13.68,0,0,0,2.69.72c0-.19-.05-.58-.06-.78-2.63-2.22-5.59-4-8.32-6.08-2.78-3-2.35-7.29-3.62-10.93-5.1-21.62-9.57-43.35-15.14-64.85-3.21-14.46-7-28.79-10.22-43.24-1.69-7-4.11-14-4.68-21.18,2.24.57,2.38,3,2.9,4.84m60.61,111.45c-1-2,2.18-.13,0,0m3.44,10.11c.13-2.17,2,1,0,0M470,385.63c.48.7-.31,2.05-1.14,1.76-.33-.64.28-2.09,1.14-1.76m-8.63,3.65c0,.42,0,1.27-.06,1.7-1.34-.31-2.65-.68-4-1l.06-.72c.94.29,1.89.59,2.82.92l1.16-.9m8,2.7c-1-2,2.17-.12,0,0m-7.59,3.69c.1.76-.22,1.08-1,1a1.57,1.57,0,0,1-.69-1.67,1.67,1.67,0,0,1,1.66.7m5.59.32c-1-2,2.17-.14,0,0m-17.25,7.44c.14-2.17,2,1,0,0m-9.92-.72c.16-.86.66-1,1.5-.44-.17.87-.67,1-1.5.44m13.22,1.38c-.42.85-.88.82-1.36-.1.43-.83.88-.8,1.36.1M436.88,400c0-1,1.66-.8,2.2-.35,0,1-1.68.82-2.2.35M409,396.86c.22.92-.12,1.27-1,1-.25-.93.09-1.28,1-1m33.05-.61c.91-.15,1.29.22,1.13,1.14-.92.16-1.3-.21-1.13-1.14m-18.74-2.36c-.25-.93.09-1.28,1-1,.22.92-.12,1.27-1,1m8.13-4.47c.14-2.17,2,1,0,0m-43.42-7.77c.63-.31,2.08.31,1.74,1.14-.69.5-2.05-.29-1.74-1.14m31.32-1c-1-2,2.17-.13,0,0m1.43-.56c.11-2.16,2.05,1,0,0m3.9,1.23c-1-2,2.18-.13,0,0m-.66-4c-1-2,2.17-.13,0,0m-1.92-3.48c.19-.9,1.8-.55,1.92.26-.14,1-1.7.41-1.92-.26m-28.2-126.2c-.14,5,1.88,9.64,2.88,14.43,1.52,4,1.39,8.36,3.05,12.28,1,3.47,1.28,7.09,2.42,10.51.7,5.46,3.25,10.5,3.79,16,3.29,13.84,6.93,27.6,9.8,41.54,2.83,9.78,4.72,19.78,7.3,29.62l-1.77.77c-4.91-6.85-9-14.23-14-21,0-.31-.1-.94-.14-1.24-3.9-5.6-7.82-11.22-11.17-17.16-2.83-2.88-4-6.92-6.86-9.81-3.14-5.13-6.26-10.31-9.85-15.15l-.12-1.27c-9.11-12.15-16.47-25.52-25.52-37.71,4.18-6.09,12-7.82,17.91-11.78a35,35,0,0,0,8.06-4.06c3.33-.17,5.58-3,8.72-3.73a21.75,21.75,0,0,1,4.3-3.34l1.23,1.13m-30.46,40.26c2.83,3.53,4.55,7.79,7.34,11.35,1.59,1.84,2.18,4.34,4,6a15.67,15.67,0,0,1,2.33,3.73c.85,1.72,2.54,2.85,3.28,4.64,1.31,3,3.66,5.32,5.19,8.16,9.17,14,18.64,27.75,27.54,41.86,3.29,4.69,6.09,9.72,9.55,14.29l-1.24,1c-.6-.33-1.19-.67-1.78-1-.79-1.48-2.31-2.25-3.69-3.09-3.87-2-6.73-5.52-10.66-7.44-5.14-4-10.51-7.69-15.73-11.57-2.39-1.95-5.23-3.32-7.27-5.68l-1.4,0a24.36,24.36,0,0,0-4.25-3.93c-3.92-2.16-7.06-5.42-10.68-8-3.87-2.08-6.76-5.54-10.72-7.47-7.55-6.28-16.15-11.28-23.7-17.55-1.54-1.18-3.65-1.66-4.62-3.48-4.44-2.91-8.64-6.13-13-9.14q0-1.44,0-2.91c3.48-2.06,5.83-5.48,9.19-7.72,5.79-3.94,10.79-9,16.93-12.41,2.71-3,6.56-4.36,9.72-6.75.84,0,1.68,0,2.53,0a132.82,132.82,0,0,0,11.19,17.15m20.5,90c-.56-1.62,2.15-1.21,1.83.16-.25,1-1.62.7-1.83-.16m28.84-2.45c.12-2.17,2,1,0,0m-2.07-1.84c.91-.15,1.28.22,1.13,1.14-.92.16-1.3-.21-1.13-1.14m-16.23,1.35c.34,1.09,0,1.46-1.1,1.11-.36-1.08,0-1.45,1.1-1.11m-3.85-2.37c-.25-.94.09-1.28,1-1,.22.92-.12,1.27-1,1m10.7-5.39c.28-1.11,2.69-.3,2.55.75a3.1,3.1,0,0,1-2.55-.75m-27.25-4.43c.14-2.17,2,1,0,0m-2.76-1.43c-1-2,2.17-.13,0,0m-.48-6.61c.15-.87.65-1,1.49-.46-.16.88-.66,1-1.49.46m-4.47-7.07,2.17-1.1c0,1.08,0,2.16.05,3.22-.74-.69-1.48-1.4-2.22-2.12m-13.07.34c-1-2,2.18-.13,0,0m25.87,3.33c-1,.56-2.1-.66-2.5-1.51.54-.92,3.08.43,2.5,1.51M365.33,346c-1-2,2.18-.13,0,0M336.83,330l1.71-.8c0,.46,0,1.36,0,1.82-1.42-.5-3.64-.58-3.56-2.6l1.84,1.58m13.51-1.12c-.17.88-.66,1-1.5.44.16-.86.66-1,1.5-.44m-23.81-8c-.83-.11-1.17-1.72-.27-1.92.66.24,1.26,1.78.27,1.92m11.28-.17c-.85.14-2.38-.72-1.91-1.73a1.77,1.77,0,0,1,1.91,1.73m-5.8-3.52c-.25-1.24,2.28-1,2.48,0-.6.67-1.75.23-2.48,0m-3.68.06c-2,0-.73-2.83.81-2.2.33.77-.33,1.64-.81,2.2M325.41,312c.13-2.16,2,1,0,0m-7.11-2.92q-.72-1.12-1.38-2.31c1.36,0,2.73,0,4.1.08a9.58,9.58,0,0,1-2.72,2.23m-3.68-5.45a3.23,3.23,0,0,1,2.56.74c-.3,1.13-2.71.32-2.56-.74m-5.71.66a8.52,8.52,0,0,0,2.66,2.78,129.8,129.8,0,0,0,12.66,12.6c3.14,4.24,7.64,7.26,10.68,11.57.66.35,1.33.69,2,1,3.46,4.75,8.41,8.19,12,12.83a13.42,13.42,0,0,1,3.34,3.34c5.47,4.49,9.86,10.18,15.35,14.67a54,54,0,0,0,8,8c1.57,2.19,3.75,3.84,5.33,6,1.91,1.4,3.43,3.26,5.35,4.65,3.06,4,7.27,7,10.33,11,1.13,1.76,3.23,2.53,4.36,4.3,1.88,1.26,2.8,3.42,4.48,4.88,5.94,4.68,10.26,11.08,16.18,15.82,5.8,6.83,12.87,12.52,18.67,19.36a25.84,25.84,0,0,1,5.33,5.32c3.24,2.53,5.2,6.39,8.69,8.66a32.23,32.23,0,0,0,2.33,2.75v1.48c-12.71,1.86-25.37,4-38,6.13a8.81,8.81,0,0,1-2.35-.74C412.7,455,408.07,450,404.86,444c-.74.26-1.46.53-2.18.8-.5-.85-1-1.71-1.48-2.57l1.73-.18c-11.55-16.89-23.44-33.58-35.19-50.33-3.07-4.71-6.74-9-9.38-14-.59-.3-1.19-.62-1.77-1v-1.59c-2.93-2.08-3.46-5.93-6.17-8.21-8.11-11.06-15.47-22.63-23.77-33.57-2.52-2.68-4-6.1-6.56-8.79-1.09-1.23-1.6-2.83-2.49-4.2-4.27-5.06-7.35-11-11.71-16,0-.47.07-1.41.09-1.88,1,.6,2,1.25,2.93,1.87M441.48,409.43c.13-2.18,2,1,0,0m21.61.23c0,1-1.68.82-2.2.34,0-.95,1.67-.8,2.2-.34m-8.94,3.77c.14-2.17,2.05,1,0,0m4.67,4c.14-2.17,2.05,1,0,0m6.26.58a3.59,3.59,0,0,1-2.84,0c-.49-1.39,3.33-1.39,2.84,0M463.36,422c-.66-2.33,2.73.34.81.75l-.81-.75m-13.21.14c.14-2.17,2,1,0,0m-22.95-.7c-.92.17-1.3-.2-1.13-1.13.91-.15,1.29.22,1.13,1.13m22.95-1.3c.14-2.17,2,1,0,0m1.58,3.51c-.16.87-.65,1-1.48.45.14-.86.64-1,1.48-.45m-2.25,1.84c.11-2.17,2,1,0,0m-8.6,3.23c0-.95,1.67-.8,2.2-.35,0,1-1.68.82-2.2.35m11.27.76c.14-2.17,2,1,0,0m-12.42,2.85c-.17.87-.67,1-1.5.44.15-.86.66-1,1.5-.44m21.66,2.39c-1-2,2.18-.14,0,0m.37,3.66c0,1-1.68.82-2.2.35,0-1,1.67-.8,2.2-.35m-.47,2.1c.24.95-.1,1.3-1,1-.23-.91.12-1.26,1-1m-3.73,10.27c.58.6,1.17,1.21,1.76,1.8v1.68h-1.76l-.72-1.64.72-1.84m-1.67,5.58c.15.92-.22,1.3-1.14,1.14-.16-.91.21-1.29,1.14-1.14m-9.49,2c-.17.87-.67,1-1.5.44.16-.86.66-1,1.5-.44M414,462c-1-2,2.17-.14,0,0m40,.66c-1-2,2.18-.13,0,0m-23.82-1.28c.15-.86.65-1,1.49-.44-.17.88-.66,1-1.49.44m4.67-.66c.15-.86.65-1,1.49-.44-.17.87-.67,1-1.49.44m2.48-.86c.26-1.12,2.68-.3,2.55.74a3.08,3.08,0,0,1-2.55-.74m-32.59-3.1c.13-2.17,2,1,0,0m-14.68-6.67c.14-2.17,2.05,1,0,0m6-1.63c1,.82-.57,2.4-1.41,1.46s.46-2.54,1.41-1.46m8.34,2.05c-.23.67-1.78,1.27-1.92.27.11-.82,1.71-1.16,1.92-.27m-11.69.91c.14-2.17,2,1,0,0m-19.34-9.33c.13-2.18,2,1,0,0m-39.07-17.18c.36.8-.93,1.68-1.58,1.13-.36-.79.92-1.67,1.58-1.13m55,.49c-.42.86-.88.82-1.36-.09.43-.84.88-.8,1.36.09M346,426.67c-1-2,2.17-.13,0,0m16.57-.24c.24.95-.1,1.3-1,1-.23-.91.12-1.26,1-1m23.57-3a3.33,3.33,0,0,1,.1-2.57c1.4.05,1.37,2.74-.1,2.57M360,417.33c.43-.83.89-.8,1.36.1-.42.85-.87.82-1.36-.1m-46.63.1c.13-2.17,2,1,0,0m55.91-.91c.31-1,2.66,0,2.53.93a2.49,2.49,0,0,1-2.53-.93m-35-68.1c4.58,5.49,8.25,11.67,12.73,17.27q16.68,23.91,33.63,47.58l-1.41,1.09c-5.17-4.62-11.42-7.75-16.9-12-4.42-2.66-8.32-6.07-12.85-8.57a151.21,151.21,0,0,0-14.29-9.75c-6.25-4.94-13.23-8.89-19.68-13.58-2.68-2.29-6-3.6-8.57-6.05-5-3-9.29-7.58-15.27-8.53.25-.22.74-.68,1-.91-5.8-4.12-11.79-8-17.73-11.89,1.77-3.4,4.51-6.15,6.43-9.45,1-2,2.8-3.44,4.17-5.2a67,67,0,0,0,7.92-10.05,9.14,9.14,0,0,0,2.75-2.65,35.87,35.87,0,0,0,7.88-8.34h1.57c9.55,13.66,19.41,27.09,28.64,41M281,349.78c3.43,3.17,7.92,4.79,11.5,7.76,3.78,2.13,6.88,5.45,11.07,6.83,1.48,2.27,4.47,2.79,6,5.07l1.33.08c8.65,7.1,18.65,12.31,27.43,19.26l1.16.07c.85,1.34,2.38,1.9,3.64,2.77,6.58,4.31,12.93,8.95,19.64,13.07,4.12,2.5,7.62,5.91,11.88,8.2a11.74,11.74,0,0,1,3.75,3.36c-10.76-1.52-21.25-4.56-31.82-7.08-10.15-1.78-20-5.19-30.13-6.94-5.41-1.71-11.05-2.51-16.5-4.07-5.57-1.75-11.33-2.68-16.95-4.23-7.36-1.11-14.43-3.61-21.76-4.91-3.69-.61-7.23-1.86-10.92-2.44,1-2.57,1.68-5.36,3.47-7.51l.2-1.19a15.92,15.92,0,0,0,2.81-5.4c4.4-7.23,7.93-15,13-21.82,1.16-1.7,1.95-3.6,3-5.39,3.38,0,5.53,3,8.25,4.51m22.43,64.32c.14-2.17,2,1,0,0m49.37-1.34c.13-2.16,2,1,0,0m-54.8-.9c.26-1.12,2.68-.3,2.55.74a3.09,3.09,0,0,1-2.55-.74m39.35-1.76c.31-1.18,3.3-2,3.92-.86a12.83,12.83,0,0,1-3.92.86m-7.91-2.92c.2-.89,1.8-.55,1.92.27-.16,1-1.7.4-1.92-.27m-17.09-4.91c-.16.87-.66,1-1.49.44.16-.86.65-1,1.49-.44m-7-1.35c.91-.15,1.29.22,1.13,1.14-.92.16-1.3-.21-1.13-1.14m8.07,2.51c.13-2.18,2,1,0,0m-10.95-.49q.51,1.63-1.11,1.11c-.35-1.09,0-1.45,1.11-1.11m16.29,1.82c.13-2.18,2,1,0,0m-22.95-6.51q.24,1.39-1.14,1.14-.24-1.36,1.14-1.14M272.13,398c.16-.86.66-1,1.49-.44-.17.88-.67,1-1.49.44m27.26,2c.13-2.17,2,1,0,0m-32.14-7.59c.31-1,2.66,0,2.52.94a2.47,2.47,0,0,1-2.52-.94M259,390.71a1.72,1.72,0,0,1-2.37-.77c.21-1.22,2.76-.34,2.37.77m-7.1,2.78c20.74,8.39,41.18,17.61,61.94,26,4,2.21,8.42,3.62,12.58,5.54,10.4,3.73,20.31,8.71,30.61,12.68l1.16,1c2.48.1,4.5,1.69,6.75,2.55,16.05,6.64,32,13.5,47.91,20.4l-1.15,1.11c-10.86,1.44-21.64,3.31-32.43,5.22-3.91.18-7.64,1.76-11.58,1.56l-1,.76c-7.74-3.83-14.54-9.24-21.92-13.64-3.37-2.73-7.47-4.37-10.84-7.12-5.4-3.57-10.68-7.36-16.43-10.34-3.85-3-8.12-5.37-12-8.31l-1.3-.1c-1.94-2.25-4.56-3.68-7.09-5.17-11.36-7.33-22.66-14.76-34.13-21.94-1.64-1-3.47-1.85-4.83-3.27a111.74,111.74,0,0,1-11.65-7.58,4.07,4.07,0,0,1-1.68-2.22c2.61.26,4.75,1.85,7.09,2.87m166.31,70.59c.15-.86.65-1,1.49-.44-.16.88-.66,1-1.49.44m-8.76.72c.13-2.18,2,1,0,0m47.36.26c1.09-.1,1.34,2.36-.06,1.94-.92-.24-.47-1.51.06-1.94m-24.11,5c-1-2,2.17-.13,0,0m-57.29.55c-.8-.84.42-2.39,1.3-1.36.93.75-.53,2.25-1.3,1.36m11.7-1.18c-.82.39-1.82-.27-2.38-.85.29-1.05,2.65-.19,2.38.85M255.94,451.07c9.87,2.66,20.05,3.78,30,6.12q34.24,6.42,68.43,13.19a17.75,17.75,0,0,1,1.3,1.57c-24.82,3.87-49.55,8.28-74.41,11.93a66.79,66.79,0,0,1-10.79,1.72c-13.75,2.43-27.49,5-41.32,6.75-1.12.36-2.6,1.12-3.2-.4-.62-7.79,1-15.45,1.35-23.19.25-1.8,1.08-3.58.66-5.42l.53-.95c.09-5.26,1.73-10.36,2.17-15.6,8.62.22,16.79,3.22,25.3,4.28m125.45,21q-.52-1.62,1.11-1.11.51,1.63-1.11,1.11m-3.7.22c-.17.88-.66,1-1.5.45.16-.87.66-1,1.5-.45m15.77,5.09-.81-.74c-.48-2.6,3,.07.81.74m4,.07c-.42.85-.87.81-1.36-.11.43-.82.89-.79,1.36.11m-60-.67c.14-2.17,2,1,0,0m78.3,4.19c-.17.87-.67,1-1.49.44.16-.86.65-1,1.49-.44m37.78.48c.13-2.17,2,1,0,0m-154.1,1.34c.13-2.18,2,1,0,0m-19.34,3.33c.13-2.17,2,1,0,0m3.74-.42c.28.84-1.08,1.64-1.76,1.14-.34-.84,1.11-1.46,1.76-1.14m14.17-.34c-1-2.05,2.17-.14,0,0m180.82.05q-.52-1.62,1.11-1.11c.34,1.1,0,1.46-1.11,1.11M262,489.48c.14-2.18,2.05,1,0,0m111.41,2.67c.13-2.18,2,1,0,0m-87.49.56c-1-2,2.17-.13,0,0m162.15-.61c-.36-1.08,0-1.45,1.1-1.11.34,1.1,0,1.46-1.1,1.11m45.13-1.77c.34,1.09,0,1.46-1.11,1.1-.35-1.08,0-1.44,1.11-1.1m-254.64,3.2c-.05,1.18-1.82.78-1.94-.16.06-1.06,1.9-.78,1.94.16m220.91-1.7c1.13-1.36,2.88,2.42,1.45,2.95a15.83,15.83,0,0,0-1.45-2.95M505.91,229c.56.85.42,1.34-.45,1.49-.57-.82-.43-1.32.45-1.49m-1.82,3.58c-1-2,2.17-.13,0,0m1.26,6.49c0,.34,0,1,0,1.38L504,241.68c0,.5,0,1.48,0,2-.69-.62-1.35-1.24-2-1.88,0-1.46,0-2.92,0-4.39h1.69c.54.56,1.09,1.11,1.64,1.65m1.4.18c-1-2,2.18-.12,0,0m1.4,2.88a1,1,0,1,1-1.93.54c-.38-1.16,1.73-1.88,1.93-.54m-1,5.53,1.33-2.62a11.59,11.59,0,0,0,.94,4l-2.27-1.36m-5,1c-.83-.65-.05-2.54,1-1.74.83.66,0,2.56-1,1.74m4.25,4.24c-.16.88-.66,1-1.49.44.15-.86.65-1,1.49-.44m-4.35-.38V251c1.4-.82,1.41,2.29,0,1.46m6.43-.06q-.36-.78-.69-1.59l1.54-.11c0,1.14,0,2.27,0,3.4l-1.55-.11c.18-.39.53-1.19.7-1.59m-3.75,4.17-.95-1.17H508c0,.32.07,1,.1,1.28a3.33,3.33,0,0,0-3.33-.11m6.42,5.6c.31.65-.3,2.11-1.14,1.74-.5-.67.3-2,1.14-1.74m-5.66,7.17c.13-2.17,2,1,0,0m-3.44,24.48v-1.46c1.41-.82,1.4,2.29,0,1.46m.1,4.14c-.83-.64,0-2.54,1-1.74.83.66,0,2.56-1,1.74m14.69,1.34-.8-.75c-.67-2.32,2.72.34.8.75m1,6.24c.34,1.1,0,1.46-1.1,1.11-.36-1.07,0-1.45,1.1-1.11m-2.44,5.11c-.35-1.08,0-1.44,1.11-1.1.34,1.09,0,1.46-1.11,1.1m3.73-.42c.82.66,0,2.56-1,1.74-.83-.64-.05-2.54,1-1.74m-14.84,5.25-2-.16c.46-.74.95-1.48,1.46-2.22l1.66,1.28-1.12,1.1m14.2-.54c.8,1.05-1.09,1.84-1.73,1-.82-1,1.08-1.82,1.73-1M503.25,317c.56.85.41,1.34-.46,1.5-.57-.83-.43-1.33.46-1.5m-.5,6.25c-1-2,2.18-.13,0,0M509,336.7c-.28.31-.84.92-1.12,1.24-.93.26-1.84.57-2.74.88-.46-.38-.92-.78-1.36-1.18a13.64,13.64,0,0,1,5.22-.94m.49,3.35c-.42.86-.87.82-1.36-.1.43-.83.89-.8,1.36.1m-6.91,11c.57.84.42,1.34-.44,1.49-.58-.83-.43-1.33.44-1.49M519.43,368c-1-2,2.17-.13,0,0m-16.19,8.42c.57.85.42,1.35-.44,1.5-.58-.83-.44-1.33.44-1.5M529.13,381c0,1-1.68.82-2.2.35,0-1,1.66-.8,2.2-.35m-20.85,9.73c.15-.86.65-1,1.49-.44-.17.88-.67,1-1.49.44M525.77,392a2.12,2.12,0,0,1-2.15,0c-.68-1.54,2.83-1.54,2.15,0m12.34,17.29c-1-2,2.17-.13,0,0m-2.09,6c-.86.34-1.47-1.11-1.14-1.76.83-.28,1.63,1.08,1.14,1.76M537.44,428c-1-2,2.17-.14,0,0m-26,16c-1-2,2.18-.13,0,0m22.92,1.65c.91.21.56,1.82-.26,1.92-1-.13-.4-1.68.26-1.92M502.75,448c-1-2,2.18-.13,0,0m35.84,6.42c.57.84.42,1.34-.44,1.5-.58-.83-.43-1.33.44-1.5m19.47,2.29v.65c-2,.33-4,.81-6,.94v-.65c2-.32,4-.81,6-.94m13.17,1.33c-.82.39-1.82-.27-2.37-.85.28-1,2.63-.19,2.37.85m-8.51.13h2.67v1.34h-2.67ZM551.45,450c-1-2,2.17-.13,0,0m13.12-4c-.25,1-1.63.7-1.83-.16-.57-1.62,2.15-1.2,1.83.16m10.89,0c-1-2,2.18-.14,0,0m19.45-8c-.84-.64,0-2.55,1-1.74.82.66,0,2.55-1,1.74m3.23-.7c-1-2,2.18-.14,0,0m-24-9.44c-.26-.93.09-1.28,1-1,.22.92-.13,1.27-1,1m6.8-1.8c.13-2.18,2,1,0,0m-4.67,0c.13-2.18,2,1,0,0m7.07-6c-.93.17-1.3-.21-1.13-1.14.91-.15,1.29.23,1.13,1.14m41-1.3c.13-2.18,2,1,0,0m131.39-25.46c-.85-1,.94-1.69,1.47-.78.92,1-1,1.59-1.47.78m-20.23.4c-13.22,3.3-26.72,5.4-39.85,9-7.6,1-15,3.13-22.49,4.59-11.77,3.09-23.82,4.88-35.58,8-3.88.49-7.53,2-11.41,2.34v-.78l2,0c0-.42,0-1.26,0-1.68a53.73,53.73,0,0,0,10.36-6.94l1.29-.1a23.45,23.45,0,0,1,6.14-4.19c9.45-6.1,18.84-12.3,28.38-18.3,1.87-1.39,4.24-2.3,5.42-4.45,3.67,0,5.32-4.14,8.85-4.59,1.27-1.08,2.64-2,4-3.06l1.29-.1c3.08-3.24,7.67-4.32,10.71-7.61a96.82,96.82,0,0,0,10.22-6.43c1.95-1.41,4.45-2.22,5.8-4.34a27.36,27.36,0,0,0,8.71-5.58l2.14,0c1.55,3.31,4.17,6,5.38,9.49.74,2.2,2.25,4,3.2,6.1,1.46,2.74,2.47,5.78,4.65,8.06,2.52,5.81,4.79,11.73,7.17,17.6-5.57.24-10.84,2.37-16.35,3M593.57,409.43c.13-2.17,2,1,0,0m3.24-3.44c-1-2,2.17-.13,0,0m33.07-3.59c-.69-.74-1.37-1.5-2-2.26,1.54,0,3.09,0,4.65.11a3.58,3.58,0,0,1-2.61,2.15m1.79-4.16a2.39,2.39,0,0,1,2.15,0c.76,1.39-2.64,1.17-2.15,0m0-2.19c.15-.87.64-1,1.49-.46-.17.88-.67,1-1.49.46M655.51,368c-1-2,2.17-.13,0,0m.77-6.57c.13-2.17,2,1,0,0m-6.58-2.64c-.23-.91.12-1.26,1-1,.24.95-.1,1.3-1,1m13.5-1.52c-2,.05-.73-2.83.81-2.2.33.78-.33,1.65-.81,2.2m-13.72-3.37c-.26-.94.09-1.28,1-1,.22.92-.13,1.27-1,1M670.19,346c-1-2,2.17-.14,0,0m-5.94-1.91c-.42.85-.88.82-1.36-.1.43-.83.88-.8,1.36.1m5.26.36a14.66,14.66,0,0,1-4-.5c.53-.9,3.91-1,4,.5m-4-6.46c-1-2,2.17-.13,0,0M678,335.7c.57.84.42,1.34-.44,1.5-.58-.83-.43-1.32.44-1.5M682.3,330l-.8-.75c-.67-2.32,2.72.33.8.75m5.33-7.28c.13-2.17,2,1,0,0m6.09-12.06c.16-.86.65-1,1.5-.44-.17.88-.67,1-1.5.44m5.09.11h-2.65c0-.49,0-1.46,0-1.95.88.31,1.78.59,2.7.83Zm-19,11c-1.76,1.36-3,3.19-4.64,4.7-4.67,4.8-10.13,8.92-14.1,14.34h-1.16c-1.25,2.16-3.21,3.74-4.92,5.5-4.16,4.08-8.11,8.36-12.53,12.15-2,1.59-3.15,4-5.39,5.33-2.74,1.72-4.06,4.83-6.61,6.71-2.31,3.47-6.11,5.42-8.83,8.49C611.25,389.33,601,399.7,590.3,409.7c-3.8,4.65-8.61,8.3-12.74,12.64-5.58,5.55-11.1,11.16-16.71,16.67a31.1,31.1,0,0,0-7.11,6.91c-.91.62-1.8,1.25-2.68,1.86a12.09,12.09,0,0,1-2,2.1c-1,1.29-2.16,2.48-3.29,3.66h-1.6c-1.87-6.31-2.59-12.89-3.49-19.41a196.7,196.7,0,0,1-3.39-21.71,71.76,71.76,0,0,1,12.21-8.79c13-9.31,26.22-18.26,39.52-27.11,7-5.66,15.23-9.51,22.11-15.32,3.18-2.44,7-4,9.85-6.89,2.08-1.86,4.89-2.72,6.82-4.81l1.31-.08c1.59-1.74,3.62-3,5.35-4.58l1.33-.09c2.57-3,6.43-4.44,9.37-7,10.73-7.27,21.27-14.75,32.05-21.94,3.27-2.65,7.13-4.61,10.06-7.66l1.16-.07a50.7,50.7,0,0,1,4.13-3.31h3.79c-4.94,6.2-11.19,11.22-16.58,17m-139.56,83c.13-2.18,2,1,0,0m6.46-1.68c.25.95-.1,1.3-1,1-.24-.91.11-1.26,1-1m7.49-6.37q-.52-1.62,1.11-1.11.51,1.63-1.11,1.11m7.39-4c.14-2.17,2,1,0,0m4.87-4.48q1,.5,2,1a53.72,53.72,0,0,1-5.43,1.77c1.16-.9,2.63-1.46,3.48-2.73m-9.45,1.1c.16-.86.66-1,1.5-.44-.17.87-.67,1-1.5.44M572.79,386c-1-2,2.18-.13,0,0m8.92-6.26a32,32,0,0,1-5.46,3.31,12.9,12.9,0,0,1,2.71-2.15l-1.83-.26c.35-.64.72-1.29,1.08-1.94l.67.6c1-.69,2-.11,2.83.44M557.5,367.21a2.12,2.12,0,0,1,0-2.15c1.53-.68,1.53,2.84,0,2.15m6.06-7.15c.13-2.16,2,1,0,0m-3.35-2.95c.22-.65,1.77-1.25,1.92-.27-.12.84-1.73,1.18-1.92.27M586,351.73c.23.95-.11,1.29-1,1-.23-.91.12-1.25,1-1m.77.22c-1-2.05,2.17-.08,0,0M563.56,354l-.8-.75c-.66-2.32,2.72.34.8.75m21.71-5.71c.8,1-1.09,1.84-1.74,1-.81-1,1.09-1.82,1.74-1M564.79,348c-1-2,2.17-.13,0,0m24.78-10.58c.13-2.16,2,1,0,0m-20.06-.18c-.58-.83-.44-1.32.44-1.5.56.84.42,1.34-.44,1.5m20.72-2c-.47-.52-.62-2.23.35-2.21.45.54.61,2.24-.35,2.21m-14.72-12c-.58-.83-.43-1.33.44-1.5.57.85.42,1.34-.44,1.5m18.61-2.68c-.27-.93.08-1.27,1-1,.22.92-.13,1.27-1,1m-7.54-2.43c-.69.5-2.05-.29-1.74-1.14.63-.3,2.08.31,1.74,1.14m4.71-1.2c.34,1.1,0,1.47-1.1,1.11-.36-1.07,0-1.45,1.1-1.11m-12.51-.7c-1-.14-.41-1.68.26-1.92.9.2.55,1.81-.26,1.92m11.36-2.91c-1-2,2.17-.13,0,0m2.87-3.78h1.46c.82,1.42-2.29,1.42-1.46,0m7.14-14.23c-1-2,2.17-.14,0,0m-4.53-.7c-1-.82.34-2.72,1.19-1.35,1.08.94-.17,2.46-1.19,1.35m-4.81-6.64c-1-2,2.17-.13,0,0m4.6-9.81V276.4c.24-.27.71-.82,1-1.08.64.94,1.36,1.81,2.06,2.7l-3,.09m12.17-17.61c-.48-.51-.62-2.22.34-2.2.46.54.61,2.24-.34,2.2m-.8-7.28a2.17,2.17,0,0,1,1.94-2.32,2.15,2.15,0,0,1-1.94,2.32m-46.55-21.9c.1-2.17,2,1,0,0m2.61,0c-.36-1.07,0-1.45,1.1-1.11.34,1.1,0,1.46-1.1,1.11m-39.89-6c.15-.86.65-1,1.5-.44-.17.88-.67,1-1.5.44m-28.92.11h-4.69v-.54A16.94,16.94,0,0,0,494,224c0,.35,0,1,0,1.39m-25.52-21.54a3.41,3.41,0,0,1-3,0c.22-.89,2.78-.89,3,0m-5.85.15v.64a21.71,21.71,0,0,0-5.21.62c1.33-1.54,3.37-1.22,5.2-1.26m-8.59,1.76c.2-1,2.73-1.23,2.49,0-.74.23-1.89.67-2.49,0M446,206c1.09.12,2.51,1.59,2,2.73-1-.25-1.85-1.75-2-2.73m-18.07,5.1c-.8.69-2.08,1.37-3.1.85-.12-1.26,2.58-1.82,3.1-.85m-4.51,1.49c-1-2,2.17-.13,0,0m-2.57.1c.13-2.17,2,1,0,0m-24.57,8.68c-.83-1.4,2.27-1.4,1.45,0Zm-3.49,3.39c2-.92,4.38-2.73,6.59-1.4,0-.26-.05-.8-.07-1.06,1.11-.27,2.22-.61,3.32-.93-.31-.71-.6-1.43-.89-2.16l1.47.94,2.52-.21c-.62-.69-1.29-1.33-1.94-2,2.34,1.24,4.85.58,7.28,0l1.18-1a2.37,2.37,0,0,0,2.17-1.51,12.62,12.62,0,0,0,4.48.74c-.3-.76-.62-1.52-.94-2.29.9.25,1.81.48,2.71.75a20.53,20.53,0,0,1,4.4-.94c3.05-.93,6.42-2.51,9.58-1.06-.11-1.17.26-2,1.56-2.22-.64-.26-1.26-.53-1.87-.82a14.11,14.11,0,0,0,4.09-1l-1.28,1.58c3.14-.72,6.36-.94,9.52-1.59,0,.53,0,1.59,0,2.12l-2,0v.65h2.62a9.06,9.06,0,0,0,1.41,6l-1.65.16a38.16,38.16,0,0,0,2,3.41c-.42,1.43.17,2.83.36,4.23-2,1.41-4.6,1.81-7,2.42L441,226c-.53.07-1.6.22-2.14.28a26.49,26.49,0,0,0,2,1.8,11.36,11.36,0,0,0-7.1,1.64l1-2c-1.82,1.32-3.63,3.13-6.06,2.89s-4.7,1.37-7.17,1.65l-1.19,1c-3,.53-5.91,1.92-9.08,1.53v1.57l1.83,1.17a10.44,10.44,0,0,0-6.87,0c-1.11,1.3-2.41,2.45-4.15,1.45l-1,.72c-2-1.67-2.29-4.65-4.48-6.09,0-.34,0-1,0-1.4-.89-.65-1.77-1.27-2.7-1.86V229c-.63-.29-1.24-.59-1.85-.91a24.12,24.12,0,0,0,.64-3.37m-11.2,2.56c-.69-1.54,2.82-1.54,2.14,0a2.1,2.1,0,0,1-2.14,0m-15,7.12c0-1.26,2.22-1.58,3.23-1.56-.09,1.26-2.19,1.67-3.23,1.56m-5.05,1,2.83.19c-.74,1.46-2.4,1.77-3.84,2.09l1-2.28M344,247.22c-.3-.83,1.05-1.62,1.74-1.14.35.85-1.11,1.47-1.74,1.14m-2.62,1.15c.23-.65,1.78-1.25,1.93-.26-.13.83-1.73,1.17-1.93.26m5.85-.63v-1.13c.42.3,1.28.88,1.7,1.17l-1.06-1.57c3.29-.58,5.7-3.11,8.91-3.83-.31-.51-.61-1-.91-1.54,1.43-.29,2.84-.66,4.29-.93a12.56,12.56,0,0,1,4.08-2.1c2.46-1.51,5.13-2.84,6.92-5.19.46.29.93.57,1.4.85,1.14-.62,2.31-1.17,3.46-1.8-.57-.85-1.26-1.6-1.82-2.47.38.2,1.13.62,1.5.83l1-1.12c1-.29,1.95-.61,2.91-1,.45.74.87,1.49,1.29,2.22l1.92-2.1H385c.32-.34.94-1,1.27-1.36h1.45c.29.33.86,1,1.15,1.31-.24.28-.73.83-1,1.1l1.42,1.18c0,1.16,0,2.3,0,3.44l1.25,1.23a64,64,0,0,0,1.26,6.31,10.27,10.27,0,0,1-4.56,4.33l-1-1c-.63.71-1.26,1.4-1.88,2.08h-1.5c-.64.7-1.26,1.4-1.88,2.09-.17-.21-.52-.61-.69-.81-1.81,1.23-3.39,2.88-5.54,3.49-1.82.88-4.3,1-5.18,3.08-5.43.9-9.15,6.24-14.66,7-.56.87-1.15,1.7-1.75,2.52-1-.55-2.08-1.07-3.14-1.57-.33-.88-.66-1.78-1-2.7-1.91-1.79-3.25-4-4.95-6-.26-.82-.55-1.63-.86-2.46.29-.55.58-1.13.86-1.71,1.05-.61,2.08-1.27,3.14-1.88m-9.81,3.55c-.28-1.06,1.52-1.69,2.28-1.12.28,1.07-1.53,1.71-2.28,1.12m-8.76,6c-.17-.91.21-1.29,1.13-1.13.15.92-.22,1.3-1.13,1.13m-29.95,31.17c-.27-.84-.57-1.69-.87-2.54.21-.29.64-.89.86-1.18h-1.54c.33-.65.66-1.32,1-2h1.32a6.47,6.47,0,0,1,3.08-3.07c0-.4,0-1.2,0-1.6h3.31c0-.41,0-1.24,0-1.65,1-.59,2-1.26,3-1.91a27.08,27.08,0,0,1,3.45-3.74l1.12,0c1.53-2.5,4.39-3.69,6.56-5.55l-1-.9a8.62,8.62,0,0,0,4.55-2.08c1.26-.34,2.52-.68,3.8-1l-1-1c1.27-.36,2.55-.7,3.85-.95,1.46-2.76,4.77-3.56,6.77-5.84h2.72a8.12,8.12,0,0,0,3.54,3.76c0,.82,0,1.64,0,2.44,1.74,1.27,2.37,3.5,4,4.9,0,.9,0,1.8,0,2.68-2.47,1.4-4.19,4.07-7.18,4.44-1.05,1-2.09,2.06-3.11,3.11l-1.35.06c-.67.56-1.35,1.09-2.05,1.6-2.48,3.2-6.19,5.2-9.68,7.14,0,.47,0,1.41,0,1.88a26.09,26.09,0,0,1-3.69,1.58c-2.37,3.73-6.6,5.6-9.25,9.1-1.37-.78-2.72-1.56-4.05-2.38-1.8-1.14-4.42-1.17-5.37-3.37-.94-.62-1.88-1.26-2.84-1.86m-17.35,10.22c.13-2.17,2,1,0,0M262.25,334c-1.07-.82-2.19-1.55-3.3-2.3a6.46,6.46,0,0,1,3.58-4.7c0-.92,0-1.83,0-2.76.79-.61,1.59-1.22,2.42-1.79,3.07-4.85,7.29-8.89,10.16-13.88a11.91,11.91,0,0,1,2.77-2l0-1.35A19.63,19.63,0,0,0,281.5,301c.91-.59,1.81-1.22,2.73-1.83a8.9,8.9,0,0,1,2.67-2.76,51.11,51.11,0,0,0,3.41-4.33h1.24c.17-.83,1-2,1.74-.95,2.53,3,4.59,6.32,7,9.38.52,1.38,1,2.94,2.49,3.51a11,11,0,0,0-3.19,3.15c-1.13,1.76-3.17,2.57-4.55,4.07-1.31,1.22-2.07,2.95-3.63,3.87l-1,2c-2.39,1.44-3.64,4.07-5.46,6.08-2.7,2.92-4.82,6.27-7.23,9.41-1.81,2.22-2.93,5.13-5.6,6.51l-.76,1.42c-.05-.43-.16-1.3-.21-1.74-.73,0-1.44,0-2.16,0-.95-2.42-3.62-3.07-5.49-4.56l-1.21-.18m-21.73,49.44c-2-1.07-4.25-.58-6.38-.67l-1.24-1.33-2.54,0a7.56,7.56,0,0,1,2.6-5.58,9.2,9.2,0,0,1,2.75-4.72,8,8,0,0,1,1.92-4.71c.54-1.56,1.23-3.06,1.77-4.64a7.77,7.77,0,0,0,1.92-4.73c1.66-1.63,2.92-3.6,4.5-5.31,0-.34,0-1,0-1.37.3-.28.87-.85,1.16-1.14.27-.94.57-1.86.91-2.79a3,3,0,0,0,2.11-3.74l1.15.08c0-.49,0-1.46,0-1.95l2-1c0-.7,0-1.41,0-2.13,1.48-1.56,3.24-3,5.51-3.06a12.39,12.39,0,0,0,4.23,3c.55.84,1.14,1.64,1.75,2.44l1.49,0a22.48,22.48,0,0,0,2.85,2.31c.25.45.5.89.76,1.32l-.75,1.43c-1.12.67-2.22,1.39-3.35,2,.27.76.55,1.5.85,2.22l-1.52,0,1.06,1.35h-1.92c-1.13,3.24-3.61,5.85-4.47,9.17a17.79,17.79,0,0,1-4.55,3.93c.7.6,1.4,1.21,2.11,1.8-2,1.77-2.73,4.38-4.66,6.16,0,.34,0,1,0,1.37l-1.31,1.17-.08,1.33c-1.6,2.84-4.18,5.18-4.86,8.44-1.93-.07-4,.31-5.75-.68m-28.68,55.81c0-4.55,2.06-8.79,3.29-13.12-.29-.74-.57-1.47-.83-2.23l1.56-1.39q0-1,0-2c.79-.47,1.57-1,2.34-1.5L217,417.51c.22-.28.66-.85.89-1.13,0-1.29,0-2.6,0-3.9l1.9-1.88c.48-4.43,2.66-8.42,3.65-12.73a3.34,3.34,0,0,0,1.38-2c1.67-.74.77-2.8,1.42-4.17a10.9,10.9,0,0,0,1.11-4.87h1.26c-.32-.63-.64-1.28-.94-1.94l2.69-.08c.89,1.35,1.64,3,3.28,3.59,1.64.94,4,1,4.68,3.1h1.17a5.77,5.77,0,0,0,2.2,2.34c.33.55.65,1.11,1,1.65l-1.65.12c.33.74.68,1.47,1,2.2l-2.16,1.12c0,1.19,0,2.37,0,3.55-2.12.42-1.12,2.82-1.35,4.33l-2.21.12c.29,1,.6,1.89.94,2.82-.39.45-.79.88-1.17,1.31a20.8,20.8,0,0,1-1.61,3.93l.87,1.16c-2.77,2.56-1.85,6.58-3.68,9.65-.64,5.64-2.94,10.91-3.89,16.51a22.92,22.92,0,0,1-4.45-.52l-.83.65c-.47-.44-.93-.88-1.4-1.34a14.08,14.08,0,0,1-9.23-1.79m-3.27,3.39c-1-2,2.17-.13,0,0m-3.48,46.68.76-1c-1.67-3.61,1-7.51.35-11.3.21-.82.41-1.64.62-2.47-.77-2.13.91-4.25-.11-6.34.56-.89,1.15-1.75,1.78-2.61-1.18-1.76.25-3.65,0-5.54a14.83,14.83,0,0,1-.23-3.82l-.48-.5c.76-.68,1.52-1.38,2.29-2.08-.29-.78-.62-1.56-.94-2.35l.72-1c-.06-2.58-.17-5.5,1.58-7.62a25.67,25.67,0,0,1,5.12,1.57l1.4-1.07c.51.52,1,1,1.53,1.52,2.48-.28,4.68.84,7,1.61.25,1.76.67,3.5.91,5.25l-1.87-1.16c.32.46.94,1.38,1.25,1.84-.51.5-1,1-1.53,1.48.69,3.79-1.77,7.29-.85,11a58.64,58.64,0,0,1-1.84,6.88l.78,1c.31,2.58-1.41,5.18-.14,7.61-.84,1.43-1.72,3-.78,4.57-.73,1.52-.25,3.09.05,4.63-.36,1.36-.88,2.67-1.37,4-5,.33-10,1.4-15.08,1.46a14.29,14.29,0,0,1-.86-5.58m178.35,5.46c.14-2.18,2.05,1,0,0m108.85-.49a2.39,2.39,0,0,1,2.15,0c.49,1.2-2.92,1.42-2.15,0M379,495.66c-.17.88-.67,1-1.49.44.16-.86.65-1,1.49-.44m217.46,3.26c.22.93-.12,1.27-1,1-.26-.94.09-1.28,1-1m55.4.12c0,1-1.68.82-2.2.35,0-.95,1.66-.8,2.2-.35m-123,1.11c.13-2.17,2,1,0,0m203.5-1.26h5.13v.51c-1.08.17-2.14.34-3.18.6-.66-.35-1.3-.72-2-1.1m-16.85.44c.92-.95,3.27-.53,4.59-.23-.92,1-3.27.54-4.59.23m-15.95.79c-.16-.92.21-1.29,1.14-1.14q.22,1.39-1.14,1.14m45.22-.68c-.77.14-1.5.27-2.24.42-1.24-.2-2.49-.31-3.72-.42v-.56a47.53,47.53,0,0,1,10.71.8c0,.35-.07,1.05-.1,1.41l-1.62-.7c-1,.41-2.08.8-3.08,1.2l1.72,2.28c-1.3-.17-1.84-1.3-2.46-2.27l-1.75.85c0-.4-.09-1.18-.12-1.56h2.73c0-.36-.05-1.09-.07-1.45m14.05-.56v.64c-2.41-.15-4.85,0-6.87,1.49-.48-.45-.94-.91-1.4-1.37,2.56-1.33,5.51-.58,8.27-.76m16,4.67c-.14,4.19.43,8.46-.56,12.57,0,11.52-2.5,22.82-4.24,34.18-13.78-3.58-27.9-5.67-41.76-8.78-12.65-2.76-25.44-4.93-38.06-7.83-14-2.47-27.94-5.34-41.88-8.2l-1.15-1.1c8.39-2.2,17.09-2.85,25.57-4.61,9.19-1.3,18.27-3.14,27.45-4.45,5.62-1.59,11.56-1.44,17.19-3,11.93-1.67,23.84-3.49,35.64-5.82,5.28-.82,10.64-1.23,15.82-2.64,1.94-.52,4-.28,6-.32M742.93,626l-.2,1.18c-1.46,1.88-2.32,4.13-3.64,6.1a11.86,11.86,0,0,1-2.33,4.23c-2.36,3.6-4.57,7.3-6.85,11-3.13-.11-5.33-2.5-7.73-4.16-2.2-1.46-4.31-3-6.39-4.65l-1.27-.1c-8.07-6.48-17.13-11.51-25.53-17.49-2.94-2.33-6.74-3.48-9.17-6.44l-1.33-.08c-7.23-5.61-15-10.48-22.66-15.59-8-5.92-16.71-10.77-24.68-16.73-3.21-2.24-6.88-3.93-9.38-7a14.15,14.15,0,0,1,4.71.5c29.75,7.44,59.5,14.77,89.18,22.42,6.58,1.2,12.87,3.57,19.42,4.88,5.19,1.27,10.38,2.54,15.57,3.74l1,1a30.9,30.9,0,0,0-1.7,3.87c-2.59,4.32-3.94,9.35-7,13.44m7.41-11.15c.13-2.17,2,1,0,0m-87.58,28.33c3.71,4.32,6.67,9.23,9.94,13.88,8.92,11.7,16.55,24.33,25.63,35.91-.26.35-.8,1-1.06,1.38a17,17,0,0,1-4.31-4.18c-4.25-4.23-8.26-8.68-12.47-12.91-6-6.21-12-12.47-18.26-18.42-3.61-2.84-6.27-6.67-9.79-9.57-2.53-3.68-6.52-5.94-9.35-9.32a9.42,9.42,0,0,1-2.32-2.35c-1.13-1.77-3.24-2.54-4.36-4.32a13.15,13.15,0,0,1-2.66-2.66c-1.79-1.11-2.54-3.24-4.31-4.36a13.82,13.82,0,0,1-3.67-3.68c-5.33-4.42-9.79-9.8-14.71-14.65a12.12,12.12,0,0,1-2.66-2.69c-4.27-3.7-7.83-8.16-12-12-2.38-2.08-4-4.86-6.51-6.84-2.39-1.6-3.78-4.2-6-6.05-5.13-5.32-10.7-10.24-15.51-15.85a22.59,22.59,0,0,1-5-5,35.79,35.79,0,0,1-6.4-6.26c-1.9-1.66-3.12-4-5.32-5.36-1.65-2.2-3.9-3.89-5.21-6.34,11.81-3.42,24.2-4,36.21-6.51,1.8-.5,3.57.26,5.31.63a45.67,45.67,0,0,0,5.89,8.69c4,4.61,6.33,10.38,10.53,14.79,3,3.73,5.22,8.07,8.14,11.9,6.93,8.77,12.32,18.64,19.2,27.45,2.33,3.12,4,6.77,7,9.4,0,.34.06,1,.07,1.33,2.53,2.57,4,5.94,6.33,8.68,2.66,3,4.32,6.68,7.06,9.58,3.12,4.47,5.62,9.58,9.77,13.19l.16-1.94c-4.89-7.44-10.69-14.25-15.27-21.91-1.86-2.68-3.49-5.58-6-7.7,0-.3-.05-.9-.07-1.2-3.94-3.9-6.32-9-9.63-13.44-3.76-4.32-6.34-9.53-10.14-13.84-.32-.85-.66-1.7-1-2.54.81.37,1.66.71,2.52,1,14.67,10.3,29.61,20.27,44.51,30.24,6.19,3.69,11.54,8.62,17.8,12.21,12.67,8.85,25.85,16.92,38.38,26l1.26.12c1,.77,2,1.45,3.06,2.14,0,.91,0,1.8,0,2.7-2.88,3.77-5.73,7.56-8.32,11.52-6.47,7.64-12.12,16.06-19.68,22.67l0,1.6h-3a48.64,48.64,0,0,0-6-8.92c-4.7-7.65-10.35-14.64-15.24-22.18a71.58,71.58,0,0,0-5.17-6.83c-2.16-3.17-3.84-7-7.11-9.16l-.16,2M573.6,763.46c-7.28,2-14.65,3.6-22.05,5-4.12-23.82-8-47.66-12.73-71.4-.43-3.41-1.52-6.72-1.55-10.19a158.92,158.92,0,0,1-3.59-18.77A196.56,196.56,0,0,1,530,645.91c1.88.71,2.58,2.67,3.72,4.14,3.26,4.16,5.57,9,8.7,13.22q14.58,22.5,29,45.1c2.53,2.75,3.34,6.62,6.05,9.23,2,3.18,4.18,6.21,5.69,9.65,1.14,2.67,3.31,4.68,4.84,7.1,3.34,6.52,8.09,12.16,11.48,18.66-.34.63-.67,1.27-1,1.89-2.9.23-5.27,2.17-8.13,2.63-5.51,2.2-11.26,3.76-16.79,5.93m18-4.48c.13-2.17,2,1,0,0m-16,5.34c.14-2.18,2,1,0,0m-4.67,1.33c.14-2.17,2,1,0,0m-59.53,8.27-1.12-.89-4.23,0c-.34-5.66,1.54-11.12,2-16.71a11.49,11.49,0,0,1,.72-3.17c1.05-2.57.14-5.47,1.32-8q5.66-33.74,10.74-67.61c2.16-9.21,2.67-18.7,4.63-27.95a36.35,36.35,0,0,0,.78-5.7c.59.61,1.78.9,1.74,1.91,1.52,10.92,4.13,21.66,5.51,32.6,1.86,6.94,2.24,14.2,3.85,21.2,2.26,10.37,3.29,21,5.59,31.41.59,2.27.3,4.68,1,6.94,1.69,6.18,1.87,12.64,3.23,18.9.93,4,2.2,7.91,2.3,12a216.24,216.24,0,0,1-28.77,3.71c-2.69.68-5.49.46-8.22.43l-1.12.89m-102.5-15.79c-3.67-1.22-7.17-3.21-11.13-3.26,5.74-11.43,13.72-21.55,20.1-32.63,6.67-9.68,12.14-20.12,19-29.66,1.58-3.66,4.15-6.73,6.41-10l.12-1.26A15.23,15.23,0,0,0,446,677.7c7.61-12,15.42-23.82,22.87-35.85.85-.3,1.69-.64,2.53-1-2.62,9.7-4.26,19.67-6.33,29.51a23.2,23.2,0,0,0-1.23,6.1c-4.54,18.53-8.26,37.28-12.37,55.92-1.28,7.88-3.69,15.5-4.92,23.37-1.14,4-1.33,8.29-2.82,12.22l-2-1c.25,1.11.52,2.22.77,3.33a6.6,6.6,0,0,1-1.48-3.09,253.91,253.91,0,0,1-32.23-9m13.94,6.19c.13-2.18,2,1,0,0m-44.07-19.5c-3.16-1.08-6-3-9.13-4a82.17,82.17,0,0,0-9.46-5.33c-4.34-2.59-8.58-5.33-12.92-7.92,0-.68,0-1.36.07-2,2.85-4,5.1-8.6,8.6-12.14L356,712c3.53-3.63,5.55-8.35,8.72-12.26,6.48-10.32,13.68-20.14,20.27-30.38,9.88-15,20-29.82,30.12-44.65,1.14-1.86,2.12-4.08,4.35-4.84-.24,2.86-1.17,5.6-1.69,8.41-1.88,6.78-3,13.73-4.77,20.53-1.22,3.52-1.5,7.25-2.52,10.81-1.32,3.93-1.5,8.12-3,12-3.88,17.61-8.71,35-12.52,52.61-2.4,8.21-4.07,16.62-5.87,25-3.8-.48-6.84-3.07-10.34-4.41m-3.41.57c.31-1,2.65,0,2.52.94a2.5,2.5,0,0,1-2.52-.94m-67-50.71c10.93-7.15,21.28-15.08,31.86-22.76,8-5.31,15.38-11.48,23.5-16.58,2.85-2.55,6.37-4.18,9.14-6.84,7.17-4.49,13.55-10.14,20.75-14.61,6.9-5.55,14.59-10,21.47-15.6h2.44c-4.59,6.27-8.51,13.05-13.48,19l-.08,1.31A76.69,76.69,0,0,0,396.59,649c-5.29,7-9.79,14.6-14.84,21.8-4.48,6.85-9.27,13.5-13.62,20.44-8,11.08-15,22.89-23.22,33.87-4.53-1.77-7.8-5.55-12.09-7.73-4.64-4-9.24-8.14-14.23-11.71-3.36-3.7-8-6.36-10.27-11m3.75,7.6c.13-2.18,2,1,0,0M293.88,582.94c3-.75,5.44-2.8,8.45-3.47,10.65-4.1,21.11-8.72,31.7-13a13.53,13.53,0,0,1,5-1.68l1.15-1c4.7-1.2,9-3.58,13.49-5.25,5.3-2.28,10.73-4.24,16-6.66,4.58-1.45,8.77-4,13.46-5.1l1.11-1c7.79-2.7,15.41-5.84,23.07-8.88,1.36-.75,2.93-.64,4.43-.7-3.64,5.95-8.27,11.22-12,17.14-2,3.26-5.08,5.75-6.89,9.15-2.64,4-5.73,7.65-8.48,11.55a8.67,8.67,0,0,1-5.68,3.53c-31.81,6.32-63.7,12.27-95.44,18.91q-5.59,1.18-11.23,2.15a70.31,70.31,0,0,1-11.91,2.61c-6,1.29-11.95,2.53-17.91,3.88.9-3,4.48-3.17,6.91-4.26,14.83-6.21,29.87-12,44.81-17.91M246,600.21c.14-2.17,2,1,0,0m-19.54-82.07c-1-4.71-.53-9.55-.63-14.33l1.25-1.13,1.19.85c2.8-.18,5.49.65,8.21,1.16,6.35.44,12.49,2.31,18.81,3,13.13,2.34,26.34,4.43,39.5,6.44,17,3.18,34.08,5.58,51.1,8.56a32.88,32.88,0,0,1,8.25,1.74L353,525.48c-33.46,6.11-67,12.12-100.33,18.64-6.79.87-13.39,2.87-20.21,3.63-1.09.3-2.59,1.12-3.12-.43-.86-9.74-3.18-19.36-2.84-29.18m-1.9.59c-1-2,2.17-.13,0,0m130.25,5.34c0-1,1.66-.8,2.2-.34,0,1-1.68.82-2.2.34m4.85.27c-.16.88-.67,1-1.5.45q.22-1.29,1.5-.45m13.46,3.54c-.31,1-2.12.28-2.42-.51.24-1.1,2,0,2.42.51M276,542.14c10.57-2.39,21.28-4.09,31.94-6.09,8.57-1.89,17.21-3.36,25.84-4.95,5.2-1.22,10.47-2.13,15.74-2.94l1-.67c.33.57.66,1.13,1,1.69-3.35,1.28-6.14,3.53-9,5.6-5.84,3.44-11.28,7.49-17.23,10.75-7.2,4.85-15,8.79-21.88,14.15-15.92,9.58-31.43,19.79-47.33,29.39-1.86,1.24-3.54,2.74-5.5,3.83-2.41,1.23-4.28,3.69-7.23,3.57a252.81,252.81,0,0,1-9.41-30.18,98,98,0,0,1-3.48-15.88c15.21-2.7,30.32-5.8,45.58-8.27m130.41-9.79c-.17.88-.67,1-1.49.44.16-.86.65-1,1.49-.44m-13.52,3.95-1.19,1.29-1.73,0c0-.55.05-1.67.06-2.23,1,.3,1.91.62,2.86,1m36.44.37A7.55,7.55,0,0,1,426,536c.36-1.15,3.16-.54,3.25.67m-44.61,2.07c-1-2,2.17-.13,0,0m-28.59,1.44c.14-2.18,2,1,0,0m36.69,0c.14-2.18,2,1,0,0m-39.25-.54H355c.82,1.41-2.29,1.41-1.46,0m28.58,4.54c.13-2.18,2,1,0,0m-50.7,0c.13-2.18,2,1,0,0m54-.77c.43-.83.89-.8,1.36.1-.42.85-.88.82-1.36-.1m-14.21,4.07c-.92.17-1.3-.21-1.13-1.13.91-.16,1.29.22,1.13,1.13m-46.88,1.44c1.16-.28,1.37,1.25,2,1.9-1.06.06-2.12.1-3.19.12.39-.68.79-1.35,1.21-2M318,552.08c-.3-.83,1.06-1.63,1.74-1.14.36.84-1.1,1.46-1.74,1.14m-4.6,2.77c.13-2.17,2,1,0,0m-3.34,2c.14-2.17,2.05,1,0,0m25.25.57c-1-2,2.18-.13,0,0m-36.09,6.38a27.85,27.85,0,0,1,3.95.67c-.54,1.15-3.71.73-3.95-.67m-11.84,7.73c.14-2.17,2.05,1,0,0m10.58.57c-1-2,2.17-.14,0,0m-17.35,4.67c-1-2,2.18-.14,0,0m17.45,2.76c.13-2.17,2,1,0,0m-3.34,1.34c.14-2.18,2,1,0,0m-24.79,3.79v-1.45c1.41-.82,1.41,2.28,0,1.45m7.11,1.71c.31.65-.3,2.1-1.14,1.74-.5-.67.3-2,1.14-1.74m179.12-44.86c.13-2.17,2,1,0,0m6.67,0c.13-2.17,2,1,0,0m-7.59.62a1.74,1.74,0,0,1-1.75-1.89c1-.48,1.86,1.06,1.75,1.89m-7.84-1c0-.41-.08-1.23-.12-1.63,1.3,0,2.6.05,3.9.12a19.88,19.88,0,0,1-3.78,1.51m-2.5-1.71c.16-.86.66-1,1.5-.44-.17.88-.67,1-1.5.44m-.92-.6-1.56.12a12.85,12.85,0,0,1-2.7,1.63c.65-.79,1.35-1.55,2-2.36H444Zm-5.59,4.83c-.17.88-.66,1-1.49.45.15-.87.65-1,1.49-.45m-26.93,8.49c.13-2.17,2,1,0,0m17.35,4c.13-2.18,2,1,0,0M414,580.72c-.64-1,1-1.73,1.65-1.07.55.89-1,1.81-1.65,1.07m-39.94.15c.14-2.18,2,1,0,0m-5.5.52a21.69,21.69,0,0,1,4.4-.53,11.67,11.67,0,0,1-1.18,1.88c-8.6,5.5-17.24,11-25.63,16.82l-1.3.09c-3,3.49-7.72,4.79-11.16,7.79-6.79,4-13,8.94-20,12.71-4.7,3.41-9.55,6.61-14.57,9.54-6.05,4.73-12.94,8.26-19.13,12.81-2.69,2.22-6,3.56-8.65,5.79l-2.05.07c-2.09-2.37-2.83-5.59-4.93-8-1.86-2.85-2.93-6.16-5.18-8.76-2.87-5.65-5.9-11.25-8.29-17.13-1.2-2.86-3.44-5.44-3.22-8.72q60.44-12.33,120.85-24.41m-81.16,58.45c12.29-8.43,25-16.23,37.41-24.47,17.25-11.8,35.12-22.87,52.46-34.6l1.38,1.07c-6.12,8.09-12.28,16.17-18,24.56-4.32,4.66-7.31,10.37-11.51,15.14-2.16,3.75-5.41,6.74-7.37,10.63-4.83,6.09-9.59,12.26-14,18.68-3.8,5.49-8.24,10.56-11.78,16.23-2.67,3.4-5.62,6.67-7.48,10.62-1.26,2-3.36,3.32-4.48,5.43a9.27,9.27,0,0,1-3.75,3.87c-5.84-4.31-9.65-10.67-14.79-15.68-3.05-4.24-5.94-8.59-9.29-12.6-1.6-3-4.22-5.33-5.26-8.61,5.83-2.88,10.94-6.94,16.5-10.27m91.18-51.07a1.76,1.76,0,0,1-1.91-1.74c.84-.12,2.38.74,1.91,1.74m5.39.67c-1-2,2.18-.13,0,0m13.24,1.1c.24.94-.1,1.28-1,1-.23-.91.11-1.26,1-1m-28.7,8.68c.66.67-.12,2.3-1.07,1.65-.73-.62.18-2.2,1.07-1.65m-1.68,2.7c-1.18,1.62-2.38,3.22-3.59,4.82.25-.94.53-1.9.78-2.86a21.36,21.36,0,0,1,2.81-2m-10.38,13.14c.16.92-.22,1.3-1.13,1.13-.17-.91.21-1.29,1.13-1.13m-2.39,5.77c-.2-.18-.6-.56-.81-.74-.66-2.33,2.73.33.81.74m-7.35,10.74c.14-2.18,2.05,1,0,0m3.91,12.57c-1-2,2.17-.13,0,0m-10.58.1c.14-2.17,2,1,0,0m7.13,1.66c.25.94-.1,1.29-1,1-.23-.92.11-1.26,1-1m-20.47,19c.13-2.17,2,1,0,0m-8.1,2.57c-1-2,2.17-.13,0,0m0,7.34c-1-2,2.17-.14,0,0M313.31,677c-.06,1.17-1.83.78-1.94-.16.06-1.06,1.89-.78,1.94.16m-1.51,2.78c.16.92-.22,1.3-1.13,1.14-.17-.92.21-1.3,1.13-1.14m-3.85,1.4c1-.15,2.75,2.4.87,2.32a2.39,2.39,0,0,1-.87-2.32m7.61-.5a12.29,12.29,0,0,1,2.66-2.68c2.86-3.39,6.85-5.67,9.38-9.4,2.68-2,4.18-5.05,6.87-7,3.93-2.69,6.65-6.75,10.46-9.58,4.47-5.49,10.18-9.87,14.66-15.36,5.69-4.72,10.34-10.59,16-15.35,1-1.21,2.35-2.11,3.4-3.29a13.25,13.25,0,0,0,2.64-2.7,15.6,15.6,0,0,0,4-4,70.64,70.64,0,0,0,11.72-11c7.89-7.21,15.15-15.09,22.86-22.5a61.89,61.89,0,0,0,9.46-9.2c2.9-2.2,5.23-5,7.87-7.51-.3-.46-.9-1.37-1.19-1.83l1.82,1.19c5.65-5.85,11.65-11.31,17.57-16.86h1.48c2,8.55,3.07,17.28,4.69,25.9,0,4.26,1.84,8.31,1.51,12.61-9.4,6.42-18.58,13.13-27.85,19.73-3.06,2.71-6.93,4.32-9.95,7.09l-1.16.1c-2.2,3-5.94,4.2-8.13,7.07-5.11,2.36-9.08,6.45-13.8,9.42-5.12,3.27-9.73,7.31-14.94,10.46-5.29,3.84-10.39,8-16,11.34-9.72,7.7-20.35,14.14-30,21.94-9.38,5.83-17.63,13.27-27.07,19-5.27,4.56-11.43,7.93-16.79,12.38a7.42,7.42,0,0,1,2.69-5.13c5.13-4.86,9.82-10.21,15.19-14.83M462.79,548.18c-.42.85-.88.82-1.36-.1.43-.83.88-.8,1.36.1m6,4c.13-2.17,2,1,0,0m31,10.88c.82.65,0,2.55-1,1.73-.83-.64-.05-2.54,1-1.73m.23,22.38c-1-2,2.18-.14,0,0m-32.34.27c-.16.88-.66,1-1.49.46.15-.87.65-1,1.49-.46M459.15,587a2.16,2.16,0,0,1-2.32,1.94,2.16,2.16,0,0,1,2.32-1.94m-12.3,9.23c-.38-1.17,1.73-1.9,1.93-.54a1,1,0,1,1-1.93.54m-1.13.79c.22.92-.12,1.26-1,1-.25-.93.09-1.28,1-1m-16.91,11.9c.13-2.18,2,1,0,0M421,614.33c.22.92-.12,1.27-1,1-.26-.93.08-1.28,1-1m4,6.74c-.17.88-.67,1-1.49.44.15-.86.65-1,1.49-.44m10.43,7.16c.13-2.17,2,1,0,0m-8,14.68c.13-2.18,2,1,0,0m5.24,13.24c-1-2,2.17-.13,0,0m-1.94,4.09c-.42.86-.88.83-1.36-.09.43-.83.88-.8,1.36.09m-20.46,12.45a25.05,25.05,0,0,0,3.65,1.95v.46c-1.78.21-3.45-.4-3.66-2.41m-3.62,10.14c-1-2,2.18-.13,0,0m1.16,21.1q.86,1.26-.45,1.5-.87-1.24.45-1.5m-7.16,5.59c-1-2,2.17-.14,0,0m3.69,4.83H408c0,.34,0,1,0,1.33l-2.41,0-1.17-1.35m-7.11,16H396.2c-.31-1-.66-2-1-2.91.69.43,1.4.84,2.12,1.24,0,.41,0,1.25,0,1.67m2.75.5c-1-2,2.18-.13,0,0m1.8,3.27c.61-2.67,2.32-4.9,3-7.54l.95-1.12c1.76-6.84,5.49-12.9,7.7-19.56l1-1.13c2-6,4.67-11.79,6.86-17.75a61.06,61.06,0,0,0,4.19-9.81l1-1.16a13.45,13.45,0,0,1,1.68-5c5.61-14.18,12-28.06,17.72-42.21,3.76-8.5,8-16.9,10.92-25.72l1-1.11a138.58,138.58,0,0,1,5.79-13.79h1.61c.72,6.27,1.76,12.49,3,18.68,1.34,8.58,2.68,17.17,4.17,25.72-.18.65-.35,1.31-.51,2-3.18,4.72-6.27,9.52-9.11,14.45-2.87,3.47-4.57,7.72-7.4,11.22C447.6,672.57,439.67,684.71,432,697c-3.22,5.61-7.4,10.61-10.33,16.38-6.41,9.83-12.67,19.77-19,29.65-1.77,3.83-4.9,6.83-6.71,10.64-1,2-1.8,4.45-4.22,5,2.69-8.42,6.9-16.34,10.08-24.61m96.93-130.68c-1-2,2.17-.13,0,0m1.33,3.33c-1-2,2.18-.13,0,0m-.84,1.76c.56.84.42,1.34-.45,1.49-.58-.83-.43-1.32.45-1.49m.28,26.36c.13-2.17,2,1,0,0m-9.67.86a.87.87,0,0,1-1.68.42.87.87,0,0,1,1.68-.42m7.41,1.62.12,1.63c-1.31,0-2.61,0-3.89-.13a20.16,20.16,0,0,1,3.77-1.5M446.58,768.29c-.12-4.77,1.86-9.24,2.29-13.95,2.34-8.31,3.76-16.84,5.32-25.33,1.42-4.08,1.87-8.39,2.91-12.58,1.31-8.63,3.89-17,5.27-25.62,3.52-15.61,6.29-31.37,9.61-47-.17-1.29.92-1.91,1.84-2.53a15.06,15.06,0,0,0,1.31,6.35c2.51,16,5.56,31.85,7.83,47.86,2.74,13.75,4.26,27.7,7,41.46,0,6.6,2.5,12.92,2.81,19.53,0,2,1.24,3.82,1.25,5.86,0,3.87,1.72,7.51,1.42,11.41-4.53.46-8.92-.76-13.42-.68-11.8-1.39-23.83-1.61-35.39-4.75m52.84-125.48c-1-2,2.17-.14,0,0m-22.69,5.33c-1-2,2.18-.13,0,0m22,3.34c-1-2,2.17-.13,0,0m1.72,6.1-1-.07c-1.65-2.13,2.25-1.94,1,.07m-1.05,6.57c-1-2,2.17-.13,0,0m-18.57,3.37-.81-.75c-.48-2.6,3,.09.81.75m3.22,20.65c-1-2,2.18-.13,0,0M488.5,707c-1,.46-1.87-1.06-1.73-1.91A1.76,1.76,0,0,1,488.5,707m11.4,8.1c.34,1.09,0,1.46-1.1,1.11-.36-1.08,0-1.45,1.1-1.11m1.93,55.26c.81-3.1-1.17-6.17.08-9.24.09-11.92.35-23.88-.14-35.78a25.94,25.94,0,0,0-.32-9.58c-.62-3.13.68-6.21.14-9.32,1-3.22-.36-6.4-.34-9.65l1-1.13-.89-1.14q0-3.54,0-7.1l.89-1.12-.89-1.11c.21-4.48-.46-9.05.58-13.45a24.71,24.71,0,0,0-.38-8.14c-.43-1.78.61-3.49.49-5.27q0-70.74,0-141.46c-.25-4.55,1.14-9,.7-13.55-.21-.28-.63-.81-.84-1.08.75-.3,1.53-.6,2.31-.88,1.35,2.56,4.08,3.92,5.79,6.22,1.92,2.76,5.27,4.06,7.07,6.94a10.45,10.45,0,0,1,2,1.91c2.87,4,7,6.85,10,10.78,2.41,1.57,3.85,4.17,6.1,5.93,2.48,2.12,4.65,4.59,7,6.81-1.57,8.52-2.51,17.14-4.33,25.61-1.35,8.08-2.43,16.21-4.17,24.23-1,6.82-1.74,13.7-3.44,20.39-.41,2.29.15,4.7-.78,6.88-1.56,5.7-1.79,11.68-3.12,17.43-2.42,17.13-6,34.12-8.35,51.24-4.77,28.79-10,57.54-14.27,86.43-.62,2.35.09,4.89-1.06,7.12l-1.3-1.2c0-2.58-.2-5.2.49-7.72m-36.4-235c.43-.84.89-.8,1.36.09-.42.85-.87.82-1.36-.09m34-10c-1-2,2.17-.13,0,0m.29-5.9c-1.13-.28-.31-2.69.75-2.55a3.24,3.24,0,0,1-.75,2.55m.47-4.84c-.48-.52-.62-2.22.34-2.2.46.53.61,2.23-.34,2.2m-6.05-8.55c-.36-1.08,0-1.45,1.1-1.11.34,1.1,0,1.46-1.1,1.11m3.28-2.72c-1-2,2.18-.14,0,0M713.23,501c-.17.88-.67,1-1.49.46.15-.87.64-1,1.49-.46m17.1,6.39c.18-1.49,3.91-.28,3.16,1.34a9.82,9.82,0,0,0-3.16-1.34m-169.44,2.11c.13-2.17,2,1,0,0m99.54-2.25c.37.94.08,1.24-.88.88-.35-1-.06-1.25.88-.88m-18.26.15c-1-2,2.17-.13,0,0m75.72.21c.22.92-.12,1.26-1,1-.26-.93.08-1.28,1-1m-39.43.1c-.41-.48-.82-1-1.22-1.46l1.21-1.5c.4.49.82,1,1.24,1.47l-1.23,1.49m67.88-1.54c.12-2.18,2,1,0,0m7.27-1.44c.43-.83.88-.8,1.36.09-.43.86-.88.83-1.36-.09m-87.24,1.44-2.28.09c0-1.26.06-2.52.15-3.78,1.43.7,1.73,2.3,2.13,3.69m-86-2.05c.15-.86.65-1,1.49-.44-.16.87-.66,1-1.49.44m118.5-.84c-.48-1.24,1.73-1.69,2-.52s-1.71,1.84-2,.52m-147.89,8.9c1.37.84-.54,2.22-1.36,1.18-1.1-1,.42-2.27,1.36-1.18m116-.11c.43-.83.88-.8,1.36.09-.43.86-.88.82-1.36-.09m-74.26,1c.34,1.09,0,1.46-1.11,1.1-.35-1.08,0-1.44,1.11-1.1m111.67-.31c.22-.89,2.78-.89,3,0a3.41,3.41,0,0,1-3,0m4.68-.54c.13-2.18,2,1,0,0m-7.07-.44c0,1-1.68.82-2.2.35,0-1,1.66-.81,2.2-.35m-75.75.34c-1-2,2.17-.13,0,0m-7.26-.67c-.86-1,.94-1.71,1.47-.79.92,1-1,1.59-1.47.79m21.37,12.78c.13-2.18,2,1,0,0m-59.13,7.44c.22.92-.13,1.27-1,1-.26-.94.08-1.29,1-1m-17.09,4.74v-.78h2.39c.35-.38,1-1.15,1.38-1.54a26.47,26.47,0,0,1,4.09,1.6,18.16,18.16,0,0,1-3-.39,10.58,10.58,0,0,1-4.91,1.11m-20.77.51a2.49,2.49,0,0,1-2.53-.93c.31-1,2.65,0,2.53.93M577,534.08c0-1,1.67-.81,2.21-.35,0,1-1.69.82-2.21.35m-36.18,26c-1-2,2.17-.13,0,0m24,4c-1-2,2.17-.13,0,0m5.81,4.34c0,1.11-1.66.4-1.75-.34,0-1.1,1.64-.39,1.75.34m.29,1.77c.13-2.18,2.05,1,0,0m-25,4.9c.81,1-1.09,1.83-1.73,1-.82-1,1.08-1.82,1.73-1m30.6-.34c.52.88,1,1.76,1.58,2.63-.76.33-1.51.66-2.25,1-.47-.48-.94-1-1.39-1.45.68-.73,1.37-1.45,2.06-2.18m-43.74,32c-1-2,2.17-.13,0,0m13.34,8.68c-1-2,2.18-.14,0,0m14.51,32.08c-.93.17-1.3-.21-1.13-1.13.9-.16,1.28.22,1.13,1.13m-.14,14c-.87,1.89-2.47,0-.9-1,.71-.08,1,.26.9,1m-13.88,3.68c.57.84.42,1.34-.44,1.5-.58-.84-.44-1.33.44-1.5m29.53,21.6c-1-2.05,2.18-.14,0,0m-1.33,1.33c-1-2,2.17-.13,0,0m-13.51.73c-.93.17-1.3-.21-1.14-1.13.91-.16,1.29.22,1.14,1.13m24.76,20.63c-.85.34-1.47-1.11-1.14-1.76.83-.28,1.63,1.08,1.14,1.76m3.81,15.57c.72.63-.19,2.21-1.06,1.65-.68-.66.09-2.28,1.06-1.65m-4.39,3.09c-1-2,2.17-.13,0,0m13.95,7.46c-9.53-23.45-19.76-46.61-29.15-70.12-4.09-11.22-9.4-21.94-13.65-33.09C550.48,617.32,544,602.36,538.47,587l1.83-.07a25.59,25.59,0,0,0,5.76,4.08c3.41,2.52,6.69,5.26,10.26,7.55,2.56,2.21,5.72,3.61,8.3,5.8,3.26,2.26,6.23,5.31,10,6.53,0-1.17-1-2-1.46-3,1.15.38,1.73,1.43,2.37,2.36l-.72,1.44c2.94,9.36,4.33,19.15,7.1,28.54,1.14,7.71,3.85,15.1,5,22.82,1.13,3.43,1.28,7.08,2.5,10.49,3,11.43,5.14,23.06,8.14,34.48,1.27,4.56,2.07,9.23,3.17,13.83,2.76,10.29,4.31,20.84,7.17,31.1l-1.08,1c-2.93-5.9-4.67-12.3-7.44-18.25M570.13,589.44c-1-2,2.17-.13,0,0m19.83-.25c.57.84.42,1.35-.44,1.5-.58-.84-.43-1.33.44-1.5m-31.07,9.69c.13-2.17,2,1,0,0M570,606.24a2.32,2.32,0,0,1,2.08,2.09,2.27,2.27,0,0,1-2.08-2.09m37.46,9.22c-1-2,2.17-.14,0,0m-24.33.27c-.17.88-.66,1-1.5.45.16-.86.65-1,1.5-.45m20.38-.89c-.36-1.08,0-1.45,1.11-1.1.34,1.09,0,1.46-1.11,1.1m-25.4,3.95c-1-2,2.18-.13,0,0M595.59,691q-6.51-28.72-13.52-57.34c-1-4.25-1.66-8.62-3.29-12.7l1.81,0c2.7,4.21,5.79,8.18,8.34,12.49,2.08,4.43,5.57,8,7.67,12.35,6,8.75,11.53,17.85,17.3,26.75,6.13,9.44,12.4,18.79,18.39,28.31,4.61,6.94,8.84,14.13,13.76,20.87a32.68,32.68,0,0,1,3.67,7,219.8,219.8,0,0,1-28.06,15.89c-.29.23-.85.69-1.14.91-2.66.71-4.9,2.42-7.57,3.09l-1.19,1.13-2.22,0c-5-19.49-9-39.23-13.95-58.73M633,698.63c-4.24-8-9.81-15.06-14.35-22.83-11-15.68-20.43-32.45-31.84-47.86l-.12-1.26a75,75,0,0,1-6.23-9.63l1.88-.1c5.84,4.58,11.94,8.86,18,13.1,7.57,6,15.91,11,23.3,17.29a173,173,0,0,1,14.81,10.57,154.58,154.58,0,0,1,16,11.75h1.28c.66.9,1.38,1.77,2.06,2.66h1.29c6.71,6,14.45,10.68,21.55,16.17,2.82,2.24,5.94,4.08,8.82,6.23,0,.88,0,1.76,0,2.63a99.88,99.88,0,0,1-11.12,9.85c-3.52,2.92-6.83,6.08-10.5,8.82a44.39,44.39,0,0,0-8.08,6.31l-1.19,0a11.75,11.75,0,0,1-7.36,4.15c-5.93-9.4-11.86-18.89-18.24-27.91m-10.33-57.46a4.13,4.13,0,0,1,0,2.9c-1.64.48-1.22-3.06,0-2.9m23.42,8.27c0,.57,0,1.69,0,2.24-1,0-2-.08-3.07-.15a3.22,3.22,0,0,1,3-2.09m5.54,16.15c.13-2.18,2,1,0,0m29.76,21.24c-.65.33-2.1-.3-1.76-1.14.68-.5,2,.3,1.76,1.14m9.5,4.67c-1-2,2.17-.13,0,0M593.25,537.93c-.24.67-1.78,1.27-1.92.27.11-.82,1.72-1.17,1.92-.27m6.12,9.24c.24,1-.1,1.29-1,1-.24-.92.11-1.26,1-1m19.5,3c-.35-1.08,0-1.45,1.11-1.11q.51,1.63-1.11,1.11m3.37,0c1.8.36,3.76.73,5,2.19a14.38,14.38,0,0,1-5-2.19m11.35,4.82c.67-.49,2,.31,1.75,1.14-.65.33-2.1-.29-1.75-1.14m3.35,1.91c.12-2.17,2,1,0,0m13.34,6c.12-2.18,2,1,0,0m5.09,1.33a5,5,0,0,1-3.24-.92c.49-1.06,3.1-.1,3.24.92m1,1.3c-.7-1.55,2.82-1.55,2.14,0a2.13,2.13,0,0,1-2.14,0m-17.44,0c.12-2.18,2,1,0,0m-18.79,3.79c-.68-.66.09-2.28,1.06-1.65.72.63-.19,2.21-1.06,1.65M626,567.8c.53.66-.35,2-1.14,1.59-.55-.65.33-1.94,1.14-1.59m1.89,5.9c.35.8-.94,1.68-1.59,1.13-.36-.79.92-1.67,1.59-1.13m55,2.39c.05-1.06,1.89-.78,1.94.16-.06,1.18-1.83.78-1.94-.16m-48.66,1.44c.13-2.17,2,1,0,0m67.54,7.31c.05-.89.53-1.2,1.44-.92-.08.94-.56,1.25-1.44.92m-22.21.59c-.85-1,.94-1.7,1.48-.78.92,1-1,1.58-1.48.78m21.3-.93a14.34,14.34,0,0,1-3.85-3A50,50,0,0,1,702.4,583l-1.5,1.51M689,582.41c.41-1,1.81-.54,2.36.07.17,1.47-2.56,1.42-2.36-.07m20,4.46c.13-2.17,2,1,0,0m-12.31.9c.8,1.06-1.09,1.84-1.73,1-.82-1,1.07-1.82,1.73-1m17.62,5.67c-.85-1,.94-1.7,1.47-.78.93,1-1,1.58-1.47.78m10.7.1c.13-2.17,2,1,0,0m-26.44-1.15c-.17.87-.67,1-1.49.44.15-.87.65-1,1.49-.44m-5.58-.18c.13-2.18,2,1,0,0m18.08,4.58c0-1,1.66-.81,2.2-.35,0,1-1.69.82-2.2.35m24.25.26c.16,1.26-3.38,1.68-2.9.05a4.19,4.19,0,0,1,2.9-.05m-14.33-1c.23-.91,2.79-.91,3,0a3.5,3.5,0,0,1-3,0m17.76,2.29c.16.92-.22,1.3-1.13,1.13-.18-.91.2-1.28,1.13-1.13m-8.4,3.17c.12-2.18,2,1,0,0m13.24,1.9c-1-2,2.17-.13,0,0m-3.94-5.92a209.63,209.63,0,0,0-19.91-8.11l-1.13-1c-11.31-4.28-22.3-9.38-33.56-13.74-4-2.39-8.5-3.42-12.59-5.54-7.13-2.68-14-5.94-21.12-8.7-6.41-3.22-13.35-5.23-19.77-8.44-6.62-2.68-13.17-5.56-19.9-8l-1.12-1c-6.52-1.92-12.49-5.36-18.9-7.63l-.92-1.78c11.5-2.17,23.18-3.42,34.6-6a23.55,23.55,0,0,0,6.94-1.46l1,.69c2.36-.61,5.18-2.3,7.48-.68,12.55,7.93,24.83,16.28,37.1,24.63L679,551c4.44,4.25,10.23,6.86,15,10.72,5.67,3.39,10.94,7.37,16.51,10.89,2.56,2.22,6,3.18,8.41,5.54,1.59,1.66,3.88,2.29,5.68,3.67,10.06,6.93,20.25,13.7,30.69,20.07q.46,1,1,2c-5.81-1.37-11-4.58-16.66-6.3m9.87-1.24c-2.6-1.07-4.16-3.87-7.11-4.23-2.59-3-6.69-4-9.21-7.09l-1.32-.08c-1.73-1.85-4.13-2.74-6.12-4.25-3.38-2.77-7.48-4.54-10.6-7.66l-1.29-.1c-5.3-4.27-11.4-7.37-16.76-11.54-7.76-5.15-15.58-10.17-23.25-15.44-2.56-1.67-5.4-2.94-7.63-5.08-5.69-3.64-11.41-7.25-16.93-11.15a6.24,6.24,0,0,1-1.56-2.17,18.63,18.63,0,0,1,3.71.39c8.59,2.13,17.36,3.45,25.94,5.58,5.07.29,9.84,2.2,14.85,2.88,17.74,3.87,35.53,7.3,53.26,11.23,8.06,1.72,16.26,2.86,24.24,4.85-.24.81-.47,1.6-.72,2.39-2.37,12.11-6.21,23.84-10.08,35.54-1,2.93-2.68,5.64-3,8.76-2.51,0-4.34-1.79-6.46-2.83m10.17-92.93c.22-.89,2.78-.89,3,0a3.41,3.41,0,0,1-3,0m-9.15.85-1.43-.23-.24-1.44c.7-.17,1.84,1,1.67,1.67m-182.29-4.73c.13-2.17,2,1,0,0m-63.15,0a25.4,25.4,0,0,1-3.49,0c-1.17-.7-.86-2.11-1-3.26l1.86-.07a24.13,24.13,0,0,1,2.64,3.33m-173.93-2.4c-.63,1-2.76.58-3.82.24.63-1,2.76-.57,3.82-.24m-19-.38c0-1,1.67-.8,2.2-.34,0,1-1.67.82-2.2.34m63.31.76c.13-2.17,2,1,0,0m22.68,0c.13-2.17,2,1,0,0m-44.19.06c-.91,0-1.82,0-2.72,0q.5-1,1-2h1.72c0,.5,0,1.49,0,2m-101.22-.12c-.2-.19-.62-.57-.81-.76-.48-2.59,3,.09.81.76m14.59-.71c.44-.83.89-.79,1.37.11-.42.84-.88.81-1.37-.11m15.37,0c0-1.09,1.64-.38,1.75.35,0,1.1-1.65.4-1.75-.35m20.72.11c.14-2.18,2,1,0,0m-3.09.18c-.16.87-.66,1-1.49.44.16-.86.66-1,1.49-.44m130.59.44c.16-.86.66-1,1.5-.44-.17.87-.67,1-1.5.44m17.53-.4c0,1-1.68.82-2.2.35,0-.95,1.66-.8,2.2-.35m11.83.4c.15-.86.65-1,1.49-.44-.17.87-.67,1-1.49.44m10.58,0c.13-2.17,2,1,0,0m18-.66c.13-2.18,2,1,0,0m-20,0c.13-2.18,2,1,0,0m-248.82.6c-.84-.64,0-2.54,1-1.74.83.66.05,2.55-1,1.74m22.76,0c-.53-1.27,2.31-1.95,2.49-.57-.29,1-1.75,1-2.49.57m46.7,0c.15-.86.66-1,1.5-.45q-.24,1.32-1.5.45m-65.72.56,1.23.9q131.51-.07,263,0c2-.13,4.05.87,6.06.19,1.2-.47,2.28.26,3.34.77,0,1.24-1.46,1.55-2.13,2.34-2,2.38-3.54,5.31-6.26,7.05-3.49,4.07-8,7.21-11.34,11.35-2.19,1.58-3.84,3.76-6,5.32-4.16,5.17-9.55,9.06-14.11,13.82-13-2.54-26.13-4.44-39.18-6.7-3-1.12-6.38-.34-9.37-1.62-6.32-1.29-12.69-2.41-19.1-3.18-16.86-3.22-33.83-6-50.76-8.78-26.66-4.73-53.39-9-80.05-13.35-11.36-1.65-22.56-4.19-34-5.34a15.82,15.82,0,0,1-2.82-1.34l1.46-1.4M203.9,534.74c-1-2,2.17-.13,0,0m5.61,11.74c-1.61-3.31-.9-7.17-1.77-10.71l-1.33-1.16c.23-.2.68-.63.91-.84.05-2.15-1.33-4.38-.14-6.39l-.87-1.15,1-1.3-.8-1.12a28.87,28.87,0,0,0-.37-3.93c0-.16,0-.48,0-.64-.23-1.27-.34-2.56-.45-3.85l1-1.14-.86-1.12c-.14-4.31-1.61-9.06.89-13,4.42.95,8.69,2.79,13.32,2l1.12.9c.34-.27,1-.8,1.35-1.08.33,1.05.61,2.1.85,3.15l-1.68,1.4c.08,1.18.1,2.48,1.55,2.73-.1,2.46-.64,4.86-.91,7.3l-1.38.83a6.92,6.92,0,0,0,2.21,2.61c0,.59,0,1.19,0,1.78a3.38,3.38,0,0,1,1.68,2l-1.7-1c0,.45,0,1.34,0,1.78,1.86.28,1.57,1.91-.16,2.1.21.69.44,1.38.68,2.05l-.76.94c.52.54,1,1.06,1.57,1.58,0,1.75,0,3.49,0,5.23l-.89,1.14c.28.33.82,1,1.08,1.33l-1,1.2c.69.36,1.38.7,2.08,1,.08,1.16.17,2.31.35,3.45-.14.91-.26,1.82-.36,2.72-.75.75-1.49,1.51-2.22,2.26l-2.59,0-.84-.76-2,2.18c-2.72-1.4-5.5-.42-8.06.8-.44-1.76-1.23-3.55-.57-5.36M224,604.71c-.12-3.76-3.05-6.68-3-10.46-1.31-3.46-1.93-7.17-3.69-10.45l.66-.58-1.33-1.15c-.6-5-2.32-9.84-2.86-14.89l-1.18-1.2c.17-3.28-1.42-6.25-1.8-9.46l.56-1.56c2.25-.93,4.73-.54,7.05-1.11l.87.64,1.58-1.57a9.33,9.33,0,0,0,6.44-1.4c.91,2.27,1,4.73,1.3,7.12.3.29.9.88,1.19,1.18a19,19,0,0,1,.77,6.79c.45.46.9.92,1.36,1.36a13.22,13.22,0,0,0-.84,4.15c.72.38,1.44.75,2.17,1.11a12.39,12.39,0,0,0-.78,4.63l1.18-1c.31.75.65,1.49,1,2.23l1.38-1.25c-1.4,2-.32,4.33.05,6.49.59,3.06,3,5.57,2.57,8.85a16.11,16.11,0,0,1,2.75,5.77l-2.83,0c0-.81,0-1.64,0-2.46-.39-.28-1.15-.85-1.53-1.14.45,1.81,1.54,4-1,4.58-.33.69-.67,1.38-1,2.07-.74.46-1.46.94-2.16,1.43-.93.29-1.85.62-2.77.94-.31.6-.62,1.2-.94,1.79a28.76,28.76,0,0,0-3.21.58c-.66-.67-1.32-1.35-2-2m17.95,46.77c-1-2,2.18-.13,0,0m5.74,1.41.86-.82a33.22,33.22,0,0,1-3.3-3.41c0-.32-.05-1-.07-1.32-1.07-1.38-2.08-2.83-3.29-4.11,0-.72,0-1.44,0-2.17l-1.95-1c-.32-.92-.64-1.85-.92-2.79-1.12-1.53-2.14-3.11-3.18-4.69l.65-.51a15.75,15.75,0,0,1-3.45-7.42c-.65-.9-1.27-1.82-1.88-2.75l.73-.56a13.22,13.22,0,0,1-4-9.5,4.16,4.16,0,0,1,4.29-.92l1.35-1.3a11,11,0,0,0,6.34-1.22c1.63-.84,2,1.42,2.26,2.54l1,.06a13.52,13.52,0,0,1-.66-4l1.91,0c.87,3.75,3.62,6.69,4.38,10.46l.95,1.12a16.63,16.63,0,0,0,2.61,5.45c2.61,5.8,6,11.22,9.14,16.78,1.44,3.88,5.93,6.49,5.19,11.08l-2.88-1.08c.33.64.66,1.28,1,1.9-4.23.82-7.15,4.14-10.66,6.33h-3.28c-.42-2.3-1.91-4.15-3.12-6.09m-1,6.65c-.36-1-.07-1.26.87-.88.38.94.09,1.23-.87.88m16.27,21.83a36,36,0,0,1,3.78,1.74l-1.09,1.3c-1.15-.77-2.57-1.46-2.69-3m3,5c1,.09,2.28,1.49,1.89,2.54-1.12.09-1.84-1.59-1.89-2.54m16,11.65c0-.42,0-1.25,0-1.66h-1.74c-3.21-3.69-6.78-7-9.57-11.08,0-.4,0-1.2-.05-1.6h-2v-1.84c-.79-.61-1.56-1.21-2.36-1.79a26.17,26.17,0,0,0-3-3.41c0-.7,0-1.4,0-2.11-2.4-1.18-3.51-3.57-5.32-5.33,0-.29,0-.87-.07-1.16-1.54-1.67-2.81-3.56-4.31-5.26a20.75,20.75,0,0,1,5.25-2.71c1.28-1.26,3-1.94,4.24-3.24,1.13-1,2.45-2.71,4.19-2,0-1,.06-1.92.1-2.88a11.8,11.8,0,0,1,3.36,2.93,95.78,95.78,0,0,0,11.58,15.7c2.66,4.49,6.74,7.81,9.91,11.89.22-.24.64-.73.85-1,.27,3.15,2.78,5.25,4.86,7.32l.06,2.72-1.7,1.06a6.06,6.06,0,0,1-2.33,2.19c0,.29,0,.89,0,1.18-2.31,2.25-3.25,5.46-5.56,7.73l-1.52,0c-1.7-1.85-3-4-4.89-5.72m10.76,17.59c-.34-1,0-1.26.88-.89.38.94.09,1.23-.88.89m30.49,20.2c-1.6-1.45-3.14-3-5.24-3.74V730.7c-3.13-1.57-5.76-4-9.11-5.19-.59-2.42-2.76-3.55-4.68-4.81-3.48-4.48-8.12-7.77-12.4-11.42l1.06-2.09a2.47,2.47,0,0,0,2.61-2.72,96.23,96.23,0,0,1,10.09-7.38l1.76.85c0,.48,0,1.46,0,2,.74-.64,1.48-1.28,2.24-1.92-.32,1-.69,2-1,3a22.53,22.53,0,0,0,2.85.26l0,1.36a22.17,22.17,0,0,1,5,4.09c2,2.48,4.76,4.2,6.95,6.5l1.71-1.19-1.09,1.9c1.07.63,2.11,1.32,3.15,2,.81,1.33,2.19,2.11,3.37,3.07l1.39,0a25.27,25.27,0,0,1,3.72,4.54c2,.06,4.19.71,4.93,2.79l1.84.1c-.9,4.79-5.67,7.63-6.43,12.48a18,18,0,0,1-3.79,2.94c-2.88-2.11-5.78-4.19-8.8-6.08m13.39,13.88a2.3,2.3,0,0,1,2.09,2.08,2.3,2.3,0,0,1-2.09-2.08M379,768.92c-3.37-2.21-7.17-3.68-10.77-5.44-.7-.46-1.39-.92-2.1-1.35-.31-.54-.62-1.08-.94-1.62-2.57,0-4.63-1.69-7-2.36-1.3-1.1-2.69-2.07-4-3.11h-1.84a12.6,12.6,0,0,0-6.13-3.55c-3.13-2.32-6.13-5-9.84-6.33a7.47,7.47,0,0,1-.7-1.9c.74-.4,1.5-.79,2.27-1.18,0-.68,0-1.37,0-2.06,3.7-2.69,4.62-7.47,7.82-10.61,7.07,5.34,15,9.49,22.53,14.05a19.09,19.09,0,0,1,5.34,2.67c4.86,2,9.55,4.46,14.4,6.53.18,1.82-.08,3.56-2.1,4.1l.72.73c-.15.68-.27,1.34-.38,2a31.94,31.94,0,0,0-2.45,10.38c-1.61-.26-3.19-.67-4.78-1M403.46,783c.13-2.17,2,1,0,0m5.33,2c.14-2.18,2,1,0,0m2.07.56c0-.95,1.67-.8,2.2-.33,0,1-1.68.81-2.2.33m16.44-.28c-2.87-.28-5.29-2-8.06-2.7-2.09-1.12-4.57-.52-6.68-1.53-2.27-1-4.82-1.08-7-2.21-3.68-1.9-8-2.28-11.31-5-.94-.18-1.86-.38-2.76-.62-.23.17-.69.5-.91.68l-2.12-2c.33-2,.95-4.31,2.85-5.39v-1.93c.68-.33,1.36-.67,2-1,0-.45-.05-1.35-.07-1.8.92-.66,1.85-1.29,2.82-1.88l-1.54-1.17c.78-.78,1.55-1.56,2.32-2.36a26.71,26.71,0,0,0,2.61,1.72l-1.94.9c1.38.2,2.65.06,2.92-1.57l1.87,1.46c2.18-.06,4.09,1,6.11,1.63.28.25.86.76,1.15,1,6.29,1.5,12.35,3.83,18.61,5.5l.7-.62c3.9,3.54,10,1.84,14.08,5l-.88,1.35a12.94,12.94,0,0,1-.08,3.29c-.48.44-.94.88-1.4,1.32,1.67,2.22-.53,4.25-1.24,6.35.16,1.1.52,2.17.78,3.25-2.49-.1-5.17.51-7.5-.64-1.66-.8-3.56-.69-5.33-1.12m-7.87,3c-.26-.35-.8-1-1.07-1.39,2.1.61,4.33,1,6.18,2.2a19.26,19.26,0,0,1-5.11-.81m53.22,4.42c-2.39-.75-5.07.26-7.32-1s-4.75-.42-7.11-.72c-.94-.72-.92-1.94-1.2-3-.47.79-.93,1.59-1.36,2.38-2.8-.16-5.78.53-8.42-.66-1.56-.63-3.22-1-4.81-1.57.24-.78.49-1.57.76-2.34.12-3.62,1.63-7,1.51-10.67,4.08-1.74,8.35,1.2,12.62.62v-.63a81.56,81.56,0,0,1-10.45-1.45c-1.09,0-1.41-1.2-1.94-1.91a22,22,0,0,1,9,1.07c7,.62,13.91,2.38,21,2.18l1.12.88c.19-.16.59-.46.79-.62,3.82,1,7.82-.08,11.67.71,2.74.71,5.72-.07,8.34,1.21a29,29,0,0,0-.94,4.79l1.72,1.61c-.24.32-.7.94-.92,1.26a4.87,4.87,0,0,1,.33,4,10.2,10.2,0,0,1,1.13,4.72c-2.72,1.32-5.4.43-8.06-.48-5.74.73-11.79,1.41-17.42-.35m88.9-.39c.14-2.17,2,1,0,0m2.09-.71c.16-.87.66-1,1.5-.44-.17.87-.67,1-1.5.44m4.83-1.11c-.16.87-.66,1-1.49.44.15-.86.65-1,1.49-.44m5.09-.85c.16-2.18,2,1.05,0,0m-22.31.11-2.06-.08c-.29.22-.85.67-1.13.9l-1.18-.88a21.06,21.06,0,0,1-7.09,1.46c-1.06.9-2.53,2.17-2.72-.12a14.86,14.86,0,0,1-4.57.82c-.21-.23-.64-.68-.86-.9l-1.34,1.64c-.77-.26-1.53-.55-2.27-.85,0,.33,0,1,0,1.31-4-.37-8,.67-11.91.19-3.65.86-7.43.35-11.13.47l-2.6-2.68c.62-.6,1.23-1.22,1.85-1.83-.3-.76-.62-1.52-1-2.27a41.24,41.24,0,0,0,1.74-6.14,28.25,28.25,0,0,1-.41-4.41l2.49,0,1.08,1.3c1.37-.82,2.86-1.74,4.43-.8l1.7-1.9.83.86c2.21,0,4.37-.68,6.58-.57,3.47,0,6.84-1,10.32-.88,4.09.19,7.94-1.58,12-1.49a11.34,11.34,0,0,1,5.61-1.25l1.13-1.63c-1.61,3.64,0,7.41,0,11.16.27,2.88,2,5.81.43,8.59m41.66-6.11c.13-2.17,2,1,0,0m6-2c.13-2.17,2,1,0,0m12-10.72c-.28.77-.59,1.53-.89,2.28l-1.24-1c-1.06.69-2.1,1.37-3.11,2.1a7.42,7.42,0,0,0-5.32,1.93c-5.7,1.21-10.94,4-16.71,4.95-.47.44-.91.88-1.35,1.31l-2.42-1-2,2.14c-4.75.83-9.55,1.58-14,3.48-.42-.41-.84-.83-1.25-1.25-.77.24-1.54.46-2.32.66-.3.32-.91,1-1.22,1.26-1.18-.19-2.85.4-3.46-1a60,60,0,0,0-1.85-8.69c.21-1.21.32-2.43.42-3.65l2.31-1.4-2.59-.08-1.12.9c-.32-.87-.63-1.74-.91-2.63,3-.49,6-1.3,9-1.66l-1.21-1.34c1.18.5,2.46,1.12,3.77.64,4.39-1.1,8.67-2.61,13.11-3.55,4.84-2.28,10.77-2.1,14.78-6l.12,3.27a31.93,31.93,0,0,0,3-2.71c.64.26,1.28.51,1.94.74l-.94-1.25a5.77,5.77,0,0,0,1.76-1.65l2.3-.07c.73-.3,1.47-.58,2.23-.85,1.58,2.19,3.64,4.13,4.46,6.78a19.68,19.68,0,0,0,4.74,7.34m55.77-23.8c.15.93-.22,1.3-1.13,1.13-.17-.91.21-1.29,1.13-1.13m-6.56-1.09c-.55.55-1.08,1.1-1.61,1.64l-1.36.06c-2,2-4.63,3.22-6.7,5.15a8.33,8.33,0,0,0-6.15,3.47h-1.9l-1.26,1.36-2,0c-.83.83-1.65,1.66-2.49,2.47a8.42,8.42,0,0,0-4.89,2.86l-1.8,0a13.55,13.55,0,0,1-6.26,2.8c-.28.24-.84.72-1.11,1a34.76,34.76,0,0,0-5.94,2.58c-.62,0-1.25.08-1.85.14-1-2.45-.15-5.29-1.52-7.62-.94-1.34-.17-2.85.28-4.2l-2.28-.1a26.81,26.81,0,0,1,.74-3.31l-1.2,0c0-.5,0-1.5-.06-2,4-1.54,8.09-3,12.09-4.7,0-.54,0-1.63-.06-2.17l1.41,1.07c.48-.44,1-.9,1.49-1.35a36.28,36.28,0,0,0,9.55-4.8l1.37-.1c.27-.32.83-.94,1.1-1.25l-1.28-1.47a31.26,31.26,0,0,0,3.18.91c1.66-1.9,4.16-2.81,5.69-4.83l1.84,0a27.4,27.4,0,0,0,2.83-2.66l1.94,0a12,12,0,0,0,3.53,6.35l.12,1.27c1.58,1.79,2.36,4.36,4.61,5.49q0,1,0,1.92m43.76-39h2l1.2,1.42c-2.43,2.51-5.64,4.39-7.24,7.62-2,1.78-4.58,3.09-6.07,5.41a7.45,7.45,0,0,0-4,3.39l-2,1c-1.4,2.78-5.13,2.94-6.64,5.57-1,1.55-2.71,2.46-4.14,3.59h-1.81c-.7.56-1.4,1.11-2.1,1.64-1.35,2.1-3.74,3.13-5.33,5l-1.38,0c-.76.78-1.53,1.55-2.3,2.31-2.68-2.09-4.12-5.16-5.92-7.94.24-.4.48-.81.73-1.21a2.43,2.43,0,0,1-1.66-2.25c-.49-.56-1-1.13-1.45-1.7l-.72.87c-.67-.73-1.33-1.47-2-2.21,1.12-.85,2.29-1.65,3.4-2.53.32,0,.94,0,1.25,0,.85-1.12,1.75-2.19,2.59-3.33l1.64,0c.62-.85,1.23-1.71,1.78-2.61.9-.32,1.81-.64,2.74-.92,2.52-1.51,4.34-4.24,7.43-4.69l1.16-1.14,1.69,0v-1.66a23.25,23.25,0,0,0,9.52-8.79c2.46-2.29,4.73-5.77,8.47-5.68,0,1,0,2,0,3l1-.93c2,3.2,6.57,3.2,8.09,6.7m39.59-42.5c-1.6,2.38-2.94,5-5.28,6.74q.38.6.78,1.2a21,21,0,0,0-4.1,3.66c0,.3,0,.91-.06,1.21-4.17,4.84-8.28,9.75-12.28,14.73-.82.58-1.62,1.18-2.4,1.79,0,.4,0,1.2,0,1.6-1,.29-2,.6-2.91.95l1,.9c-3,1.63-4.78,4.62-7,7.05l-2.18,0c-.88-1-2.73-2.76-.2-3v-1.94c-.72.66-1.42,1.31-2.13,2-1.45-1.9-2.48-4.19-4.5-5.58a16.79,16.79,0,0,1,.72-3c-.62.26-1.22.53-1.82.8-.55-.91-1.15-1.79-1.76-2.66l1-1.24h1.58c1.2-2.13,3.12-3.68,4.92-5.3a10.47,10.47,0,0,1,3.3-3.12c0-.36,0-1.06,0-1.42.79-.61,1.59-1.21,2.43-1.77a18.79,18.79,0,0,1,6.26-6.64c0-.73,0-1.47,0-2.21,2.37-.85,3.13-3.06,3.49-5.35q1-1.05,2.07-2.1l-1.1-1.57c1.83.1,3.7.18,5-1.38l-1-1.16c.27-.33.83-1,1.11-1.3l2-.11c-.34-.69-.66-1.4-1-2.09a42.58,42.58,0,0,1,4.46.94,37.39,37.39,0,0,0,9.68,6.67c0,.92,0,1.84-.07,2.76M764.3,613.7l2.6-1.56L768,613l2.42,0a11,11,0,0,0,2,2,7,7,0,0,0-3.74,5.14L767,621c1.31,1.92-.3,3.38-1.67,4.64l.8.94q-.81,1.53-1.53,3.09h-2.38l0,2.2L763,633c-3.57,2.84-3.43,7.92-6.58,11a7.51,7.51,0,0,1-2.28,2.74c0,.82,0,1.64,0,2.46-1.5,1.65-2.63,3.7-4.75,4.65.24.26.73.79,1,1a7.67,7.67,0,0,1-2.67,3.05c-.34.57-.67,1.13-1,1.69a34.49,34.49,0,0,0-4-2.47c.4-.76,1.22-1.14,1.83-1.74a6.81,6.81,0,0,1-5.47.1L738,654.49c-1-.27-1.87-.58-2.77-.91a16.37,16.37,0,0,0-2.57-3.17c.2-1.64,1.58-2.3,3.09-2.4-.29-.49-.57-1-.85-1.49.88-.81,1.74-1.64,2.63-2.46,0-.37,0-1.07,0-1.43,2.32-1.47,2.71-4.63,5.1-5.91-1.28-1.79.86-2.89,1.7-4.29,2.32-3.14,2.13-7.63,5.41-10.14l-.86-.92c1.46-1.88,3-3.82,3.51-6.21l1.06-1.16a8.18,8.18,0,0,1,1.58-5.26c2.74.82,5.43,1.82,8.23,2.46,1.1.33.84,1.63,1,2.5m13.29-9.58c-1-2,2.17-.14,0,0m1.17-3.27c-.92.17-1.3-.21-1.13-1.13.91-.16,1.28.21,1.13,1.13m1.5-4.07c-1-2,2.17-.13,0,0m1.29-41.71a11.66,11.66,0,0,0,6.53,1.2c.53.9,1,1.8,1.59,2.69l-.75,1c0,2.27-.88,4.51-.16,6.75a29,29,0,0,1-2.72,1.73,2.82,2.82,0,0,1,1.82,2l-1.48-1c-.27,1-.54,2-.87,2.92l.56.7c-1.53,2.7-2,5.78-2.76,8.73a3.16,3.16,0,0,1-1.78,2.16c0,1,0,1.94,0,2.89l-1.24,0a3.52,3.52,0,0,1,.16,2.55l.53.79c-2.91,3.35-3,8-4.8,12-1.61,2.69-1,6.32-3.81,8.35-3.1-2.2-6.13-4.68-9.82-5.84-1.33-1.26-2.74-2.43-4-3.74l1.87-1.86c-.3-.77-.61-1.54-.92-2.32,1.35-1.41,2.25-3.27,4-4.27-.08-2.65.7-5.2.84-7.84,2.57-2.24,2.24-6.25,3.32-9.32.69-.63,1.34-1.32,2-2l-.82-.94A61.91,61.91,0,0,0,772.9,555c2.76-1.26,5.74.28,8.65.06m14.67-42-.88,1.12.88,1.14a5.8,5.8,0,0,0-.33,4.63c-1.2,1.7-1,3.63-.42,5.51,0,3.67-1.51,7.22-1.32,10.93l-1.29-1.08c-.08,2.92.47,6-1,8.72,1.25.58,1,2.23,1.51,3.31-1.17.64-2.31,1.33-3.48,1.94,2.67-.09,1.18,2.29.76,3.75a32.11,32.11,0,0,0-8.57-.89,26.09,26.09,0,0,1-7.3-2.65c0-.43,0-1.29,0-1.71l1.42-1.18c-.2-.22-.6-.63-.8-.84A106.65,106.65,0,0,1,776.74,533c-.14-.4-.42-1.17-.56-1.56l.7-.95c0-1.08,0-2.17,0-3.26.72-.66,1.44-1.33,2.18-2l-1.52-.57c1.17-4.37.54-8.93.68-13.4l1.64-1.68-1.8-1.77c.68-2.14,1.36-4.29,2.23-6.36,1,.14,1.94.27,2.92.43a14.26,14.26,0,0,1,5.37,0c1.32-.17,2.66-.25,4-.32.5,1.09,1,2.18,1.62,3.23,0-1.4,0-2.81,0-4.22.32-.3,1-.88,1.29-1.19,1.54,4.4.3,9.24.73,13.81m-36.54-13.63c.13-2.17,2,1,0,0M708,499.36a3.5,3.5,0,0,1-3,0c.23-.9,2.79-.9,3,0m-38.58.59c-.8.56-2,0-2.49-.71.33-1,3-.56,2.49.71m-88.26-1q-.25,1.32-1.5.45c.16-.86.65-1,1.5-.45m183.38-1.69c-13.51.58-27.07.06-40.59.27l-1.12-.89-1.11.89q-107.52-.07-215,0a6.75,6.75,0,0,1-2.92-.74c.71-.71,1.44-1.42,2.18-2.12-.3-.65-.58-1.31-.84-2l1.76,1c.88-2.17,3.31-2.88,4.51-4.78,1-1.48,2.6-2.29,3.7-3.66a17.77,17.77,0,0,0,4-4c6.58-5.62,12.13-12.36,18.69-18,1.77-1.52,3.1-3.58,5.15-4.78,3.28-.87,6.57.4,9.78,1,19,2.8,37.78,6.57,56.78,9.24,29.78,4.84,59.61,9.54,89.37,14.66,10.67,1.35,21.17,3.79,31.83,5.18,8.51,1.32,17.1,2.52,25.48,4.33,6.69.25,13.14,2.39,19.8,2.9-.41.6-.83,1.18-1.28,1.73a61.79,61.79,0,0,1-10.09-.17m33.87-22.36a19.3,19.3,0,0,1-1.57,4.45,7.11,7.11,0,0,1,.71-3.39c-.22-.3-.66-.88-.88-1.16l1.74.1m-2-1.56a3.41,3.41,0,0,1,0-3c.9.23.9,2.79,0,3m-4-26.45-1,1.22.77,1.14c.31,2.89,1.31,5.83.35,8.71a37.75,37.75,0,0,1,1.61,3.48c.18,5.86,1.56,11.61,1.5,17.49,1.13,5.58.43,11.3.63,16.95-.32.31-1,.91-1.3,1.21a10.42,10.42,0,0,1-.77-4.92h-.61c0,1,0,2.05,0,3.07l-2.21,1.08c-.48-.49-1-1-1.43-1.48-4,.48-7.82-.75-11.7-1.51,0-.73,0-1.46,0-2.2l1.54-1.39-.74-2.12c-.21-2.72-1-5.37-.81-8.12-.21-4.89.81-10-1.15-14.64a29.38,29.38,0,0,0-1.63-10.1c.23-.31.71-.92.94-1.22-.55-.93-1.09-1.87-1.62-2.8l1-1.25c-.26-.35-.81-1-1.07-1.38,1.78-.54,3.66-.72,5.41-1.39,3.34-1.58,7.14-1.46,10.59-2.73l1.7,2.9m-10.76-45.61c-1-2,2.17-.12,0,0M777,393.88l1,1.16q5.78,16,10.1,32.4c.48,4.19,2,8.16,2.78,12.29l-2.36,1.66c-1,.17-1.89.35-2.81.57l-.7-.45a40.54,40.54,0,0,1-7.18,1.71l-1.75-.44c-.81.62-1.62,1.21-2.46,1.77,0-.93-.09-1.86-.11-2.79l-1.41-1.19.49-.52c.62-4.51-2.29-8.49-2.49-12.94-.5-.5-1-1-1.48-1.54l.65-.87c-.4-2.44-.39-5.09-2.29-6.95-.34-1.91-.11-4.63-2.3-5.43.53-.75,1.08-1.49,1.63-2.25-1.64-1-2.26-2.95-3.44-4.39,0-1,0-2.09,0-3.14-.86-.64-1.66-1.34-2.49-2-.24-.75-.48-1.51-.74-2.27,3.19-3.61,8.9-3,11.94-7l1.16,1c.27,1.17.61,2.31.94,3.45,2.75,2.64,2.23,7.27,4.63,10.29,0-2.11-1.18-3.92-1.6-5.94-.88-3.61-3.52-6.71-3.27-10.61h2.64c.33,1.46.71,2.92.93,4.4m-18.31-44.52c-.85.3-1.64-1.05-1.14-1.74.83-.35,1.44,1.1,1.14,1.74M751,340c4.19,7,8.2,14.09,12.28,21.15,2.13,5.82,5.86,10.93,7.67,16.88.93,2.7,3,5.07,2.67,8.11l-2,.06c-3-5.13-4.27-11.26-7.81-16,.14,1,.35,2,.48,3l1.26,1.22c0,1.31,0,2.62,0,3.92l1.1-1c.7,2.83,2.26,5.35,2.85,8.21-4.17,1.19-8.6,3.44-13,1.85-.53-.81-1.09-1.61-1.66-2.39,0-1,0-2.09,0-3.15-.88-.53-1.71-1.12-2.53-1.72.41-1.22,1.1-2.78-.8-3,0-.62,0-1.26,0-1.9-2.1-1.19-4.33-3.8-2.6-6.18-.95-.37-1.89-.77-2.82-1.16.26-.71.57-1.43.77-2.18-.85-.64-1.78-1.17-2.68-1.74,0-.37,0-1.11,0-1.48-.8-.84-1.58-1.7-2.32-2.59l2-.86c-2,.12-3.53-1.19-3.14-3.27a25.17,25.17,0,0,1-5.52-8.54A69.08,69.08,0,0,1,745.65,340c.61.61,1.21,1.21,1.84,1.8,0,.33,0,1,0,1.35a58.28,58.28,0,0,1,5.1,6.7,2.42,2.42,0,0,0,1.54,2.08c0,.61,0,1.21,0,1.81.91,1.16,1.74,2.39,2.66,3.54,0,.72,0,1.43,0,2.13.62.35,1.24.69,1.89,1a7.71,7.71,0,0,0,2.55,5.5c.58,1.23.74,3,2.17,3.54a29.16,29.16,0,0,0-5.17-10.32c0-.31-.14-.92-.18-1.23-3.68-5.86-6.7-12.24-11.24-17.52,0-.65,0-1.3,0-2l1.31-1.2A7.81,7.81,0,0,1,751,340m-2-4.61c.12-2.17,2,1,0,0m-7.69-12.59c-1,.46-1.87-1.06-1.73-1.91a1.76,1.76,0,0,1,1.73,1.91m-9.92-12.13a1.73,1.73,0,0,1-1.73-1.91c1-.46,1.85,1.07,1.73,1.91m-17.7-17.9c.57,1.16,1.77,1.67,2.86,2.24a13.45,13.45,0,0,0,3.25,4.11c1.69,2.28,4,4,5.77,6.21,3.78,5.11,8.39,9.57,11.76,15,4,4.45,6.91,9.71,10.4,14.55l-1.87,1.92c-.77,0-1.53,0-2.29,0-.36.68-.71,1.34-1,2-.67,0-1.33,0-2,0-.64.85-1.34,1.64-2,2.45a13.9,13.9,0,0,0-5.44,2.83,23.44,23.44,0,0,0-6.52-7.25c-1-.5.2-1.59.32-2.29-1.9-1.07-3-3-4.77-4.19v-1.15c-1.14-.32-1.42-1.29-1.5-2.34-.84-.52-1.68-1-2.5-1.54v-1.42c-2.09-1.45-3.29-4.06-6.23-4l1.59-1.31c-2.1-1.72-2.6-4.7-4.94-6.15a39.46,39.46,0,0,1-5.15-4.61c.2-.19.58-.58.76-.78,0-.56,0-1.66-.06-2.22.51,0,1.52,0,2,0,0-1,0-2,0-3,.65-.62,1.31-1.25,2-1.88l.08-1.33c.58-.78,1.13-1.58,1.66-2.43.29,0,.85,0,1.13,0,1.77,1.33,3.72,2.38,5.58,3.57-1.05-1.27-2.23-2.42-3.37-3.6h-1.73c0-1.1,0-2.21,0-3.32h2.22m-7.49-8.84c-1-2,2.17-.14,0,0m-9.64-9.52a14.38,14.38,0,0,1-4.15-3.28c1.87.3,3.05,1.9,4.15,3.28m-9.38-8.95c.24.91-.09,1.26-1,1.05-.29-.92.05-1.27,1-1.05m-4.08-3c.37.94.08,1.24-.88.88-.35-1-.06-1.25.88-.88m-4.86-3.09c-.42.86-.87.83-1.36-.1.44-.83.89-.8,1.36.1m-5-3.28c-.7.5-2-.3-1.74-1.14.63-.3,2.08.3,1.74,1.14M670.65,254c-1.31.08-2.6.1-3.9.12,0-.41.1-1.22.12-1.63a21.29,21.29,0,0,1,3.78,1.51m-7-4c.13-2.17,2,1,0,0m-4.44-3.29,1.65,0c-.05.42-.15,1.25-.19,1.67-2.44-1.9-5.06-3.54-7.66-5.21a11.8,11.8,0,0,1,6.2,3.51m-8.09-5c.38.93.09,1.23-.87.88-.36-1-.08-1.25.87-.88m-5-2.35c-1.26.37-2.42-1-3.32-1.73.7-1,3,.84,3.32,1.73m-8.75-4.77c-.93.17-1.31-.21-1.14-1.13.91-.16,1.29.22,1.14,1.13m-4.83-3.12c-.16.88-.66,1-1.49.44.15-.86.65-1,1.49-.44m-5.51-.32a16.45,16.45,0,0,1,5.44,2.64,27,27,0,0,1,6.67,3.33,14.63,14.63,0,0,1,4.81,2.42c2.17,1.87,5.06,2.57,7.26,4.39l1.22.18a91.09,91.09,0,0,0,13.07,8c0,.87,0,1.72,0,2.57l-2,0c0,.9,0,1.78,0,2.65,1,0,2.08,0,3.12,0a2.73,2.73,0,0,1,2.32-2.9c3.22,3,6.88,5.44,10.29,8.21l1.16.08c4.31,4.56,9.79,7.77,14.29,12.12,2,2.12,4.6,3.6,6.51,5.84h2.34v.65H702c1.38,1.25,2.7,2.59,4,4l1.19.06c1,1.27,2,2.48,3,3.7v1.4c-.88.25-1.75.51-2.6.78-1-1.21-1.69-2.67-3-3.59-4.05-2.85-7.14-6.9-11.55-9.26,4.6,4.15,9,8.52,13.78,12.54v2l-1.13-1c-1.26,2-2.72,4.08-5.32,4.33a22.28,22.28,0,0,1-4.13,3.26,14.72,14.72,0,0,1-5.74-4.51,11.29,11.29,0,0,0-3.69-3.39c0-.38,0-1.13,0-1.5-3-1.3-5.57-3.44-8.45-5a12.44,12.44,0,0,0-3-4.24,8.49,8.49,0,0,1-4.34-2.14l-1.35-.05c.24-2.31-2-2.79-3.73-3.44l1-.95c-1.32-.55-2.6-1.17-3.91-1.77-.3-.54-.6-1.1-.9-1.66-1.94.16-3-1.35-2.79-3.15.37-.33,1.11-1,1.49-1.3,0-.8,0-1.6,0-2.42l1.86.07c-.74-1.61.78-2.9,1.63-4.08l2.1,0-1.18-1.4c-1.18,0-2.36,0-3.52.11-1.42,1.44-1.35,3.67-1.8,5.5-.54-.29-1.07-.6-1.59-.92-.28,1.14-.61,2.27-.95,3.37-.93,0-1.86,0-2.78,0-.56-1.42-2.11-1.76-3.39-2.26-.88-.85-1.84-1.62-2.76-2.44-.94,0-1.87.06-2.8.07a32,32,0,0,1-1.89-2.71h-1.33l-1.23-1.35c-.64,0-1.27,0-1.9,0-1.68-2.11-4.34-3.12-6.1-5.18-1.37-.21-2.71-.57-4-.91-4.44-4-10.51-4.83-15.69-7.47V243l1.94-1.89c0-2.76.93-5.42.78-8.19l1.07-1a12.31,12.31,0,0,0,6.11,1.43c-2.17-1.3-4.88-1.69-6.63-3.65.32-1,.64-2,.91-3,2.83,1,5.38,2.65,8.27,3.51l1.14.92M623.93,228c-.68.51-2-.29-1.74-1.14.64-.3,2.09.3,1.74,1.14m-3.67-1.38c.13-2.17,2,1,0,0m-3.62-1.82c.34,1.09,0,1.46-1.1,1.1-.36-1.07,0-1.44,1.1-1.1m-4.39-1.52c.14-2.17,2,1,0,0m-1.6-.7c-.93.18-1.3-.21-1.13-1.13.91-.16,1.29.22,1.13,1.13m-4.67-2a2.47,2.47,0,0,1-2.52-.93c.31-1,2.65,0,2.52.93M602.73,219c-.57,1.11-2.6.06-3.28-.65.6-.88,2.44.25,3.28.65M596.91,218c.13-2.17,2,1,0,0m-1.75-1.83c-.17.88-.67,1-1.5.44.15-.86.66-1,1.5-.44m-3.59-.18c.14-2.16,2,1,0,0m-6-2c.13-2.16,2,1,0,0m-3.09-1.82c-.17.88-.67,1-1.49.44.15-.86.65-1,1.49-.44m-2.57-.47c-.2.91-1.81.57-1.92-.26.14-1,1.68-.39,1.92.26m-2.51-.84c0,.81,0,1.59,0,2.37,12.64,2.52,24.41,8,36.69,11.72q0,2,0,3.9c-2.58-.66-5.05-1.68-7.62-2.36.27.37.83,1.09,1.1,1.46,1.91,0,3.6,1,5.34,1.67a12.07,12.07,0,0,0-2.84,2.82c0,.64,0,1.28,0,1.91-.82.88-1.61,1.77-2.35,2.7a17,17,0,0,0-2.63,3c-2.88-1.21-6.36-.9-8.73-3.16-4-1-7.9-2.26-11.86-3.31a15.14,15.14,0,0,0-6.2-1.58l-1.19-1.2c-2.27-.28-5.5.18-6.82-2a12.86,12.86,0,0,1-3.71.73c-1.4-1.17-3.08-2.74-5-1.71-.66-.45-1.33-.87-2-1.31l-1-1.91c.49-.47,1-.95,1.47-1.45a10.16,10.16,0,0,1,1.93-6.76c-.46-.76-.9-1.52-1.34-2.29,1.08,0,2.15,0,3.24,0l-1.8-.95V210c5.07.12,9.94,1.79,14.7,3.37,0-.44,0-1.34,0-1.79a74.21,74.21,0,0,1-7.34-1.68v-.64c2.68.42,5.35,1,8,1.62m-10.14-2c0,1.1-1.65.4-1.74-.35,0-1.09,1.64-.38,1.74.35m-3.7-.24c.12-2.17,2,1,0,0m-2.8.1a2.25,2.25,0,0,1-2.08-2.08,2.32,2.32,0,0,1,2.08,2.08m-4.2-2.23a3.41,3.41,0,0,1-3,0c.22-.9,2.78-.9,3,0m-3.84-1.1V206H547.6l-1.2-1.5a16.3,16.3,0,0,0,6.32.86m-6.93-.6c-.17.88-.67,1-1.49.44.15-.86.65-1,1.49-.44m-2.67-.67c-.16.88-.66,1-1.49.45.15-.86.65-1,1.49-.45m-4-.61c0,1-1.68.82-2.2.34,0-1,1.66-.8,2.2-.34m-4-.77c.55.89-1,1.8-1.66,1.06-.64-.95,1-1.72,1.66-1.06m-7.57-.13c.13-2.17,2,1,0,0m-.83-.58v.66c-2.22-.14-4.85.66-6.53-1.24a21.09,21.09,0,0,0,6.53.58m-15.58-.52c0,1-1.68.82-2.2.34,0-1,1.66-.8,2.2-.34m3.85.35-1.12,1.49a33.68,33.68,0,0,1,8.74.56c11.07,0,21.87,2.89,32.84,4.13a14.13,14.13,0,0,1,3.07.66c.32.74.65,1.46,1,2.16l-1,1.1-2.28.15c1.12.58,2.26,1.1,3.42,1.59l-2.44,1.09c.16.18.47.52.62.7-.12,3.43-2.13,6.41-1.85,9.87h-3.91c0-.51,0-1.52,0-2l-1.56.1c.31.7.65,1.38,1,2.06-4.47-.3-8.73-1.89-13.2-2.21L537.05,222c-3.67,0-7.29,1.43-10.91.18-4.66.2-9.18-1.63-13.8-1.22a45.87,45.87,0,0,0-4.68-.26l-2.47-2.4c.18-.9.38-1.82.62-2.74-.12-.17-.38-.51-.5-.69.78-1.22,1-2.32-.82-2.56l.76-1.21c-.08-.16-.24-.5-.31-.66.21-.86.39-1.74.57-2.64l-1.37-1.31a30.39,30.39,0,0,0-.67-3.26c.88-.24,1.76-.46,2.66-.67L505,201.15c2.91,2.12,6.74,1.95,10,.73"></path><path class="cls-3" d="M214.57,459.36c2.18-.13-1-2,0,0"></path><path class="cls-3" d="M217.91,457.36c2.17-.13-1-2,0,0"></path><path class="cls-3" d="M226.68,406.76c2,1,.13-2.17,0,0"></path><path class="cls-3" d="M247.59,662.28c.06.11.13.21.2.32,0-.15,0-.29-.06-.44l-.14.12"></path><path class="cls-3" d="M243.29,611.72c-.17.92.21,1.3,1.13,1.14.16-.92-.22-1.29-1.13-1.14"></path><path class="cls-3" d="M249.25,623.16a4.62,4.62,0,0,0-.76-2.47c-.77-1-.86.93-.5,1.31.12.39.84,2.29,1.26,1.16"></path><path class="cls-3" d="M251.16,629.17c.75.94,1.47,1.92,2.2,2.86a8.06,8.06,0,0,0-2-4.84c0,.49-.13,1.49-.17,2"></path><path class="cls-3" d="M253.21,632.3c0,.43,0,1.31,0,1.75.72.65,1.44,1.29,2.18,1.91-.34-1.21-.71-2.42-1-3.66Z"></path><path class="cls-3" d="M256.91,636.82,255.76,638l1.44,1.21V641l1.55-.12c-.61-1.35-1.25-2.69-1.84-4.07"></path><path class="cls-3" d="M260.77,645.38c.23.8.2,2.06,1.16,2.36,1.05-.42-.49-3.93-1.16-2.36"></path><path class="cls-3" d="M267,655.32a67.62,67.62,0,0,1,4.23,6.76c0-.48,0-1.44,0-1.92-1.52-1.56-1.82-4.36-4.24-4.84"></path><path class="cls-3" d="M271.83,662.28a2.28,2.28,0,0,0,2.09,2.08,2.31,2.31,0,0,0-2.09-2.08"></path><path class="cls-3" d="M274.18,697.49l.83.94.25,0c-.17-1.27-.76-1.25-1.08-.92"></path><path class="cls-3" d="M275.38,667.59c2,1,.13-2.17,0,0"></path><path class="cls-3" d="M280.05,673a1.76,1.76,0,0,0,1.74,1.91c.12-.84-.74-2.38-1.74-1.91"></path><path class="cls-3" d="M283.17,687.93c-.92-.23-1.26.12-1,1,.93.26,1.28-.09,1-1"></path><path class="cls-3" d="M282.65,676.43c-.17.92.21,1.3,1.13,1.13.16-.91-.22-1.29-1.13-1.13"></path><path class="cls-3" d="M287,314.22c-.83-.57-1.33-.42-1.49.44.83.58,1.33.43,1.49-.44"></path><path class="cls-3" d="M292.87,687.36c-.94-.39-1.23-.08-.88.88,1,.34,1.26,0,.88-.88"></path><path class="cls-3" d="M304.06,700.28c2,1,.13-2.18,0,0"></path><path class="cls-3" d="M305.39,291.35c2.05,1,.14-2.16,0,0"></path><path class="cls-3" d="M319.3,716.85c2.18-.13-1-2,0,0"></path><path class="cls-3" d="M322.23,266.38c-1.23,1-2.85,1.69-3.37,3.29,1.91-.06,2.57-1.89,3.37-3.29"></path><path class="cls-3" d="M358.72,741c-.47-.9-.93-.93-1.36-.09.49.91.94,1,1.36.09"></path><path class="cls-3" d="M360,741.8c-.17.92.21,1.3,1.13,1.14.16-.92-.22-1.3-1.13-1.14"></path><path class="cls-3" d="M363.36,743.88c-.3.84,1.06,1.63,1.75,1.14.35-.84-1.11-1.46-1.75-1.14"></path><path class="cls-3" d="M367.45,746.23a27.82,27.82,0,0,0,2.87,2.22l1.14-1.28a24.31,24.31,0,0,0-4-.94"></path><path class="cls-3" d="M372.07,748.73c.56.57,1.55,1.23,2.37.84.27-1-2.08-1.9-2.37-.84"></path><path class="cls-3" d="M374.77,764.32c2,1,.13-2.18,0,0"></path><path class="cls-3" d="M376.67,750.9l-.12,1.45c.76-.27,1.55-.53,2.34-.77.74,1,1.36,2.16,2.67,2.49-.2-2.46-2.85-3.13-4.89-3.17"></path><path class="cls-3" d="M378.77,242.66c2.05,1,.14-2.17,0,0"></path><path class="cls-3" d="M387.37,220.72h.34l.24-.23-.58.23"></path><path class="cls-3" d="M384.07,754.31c-.47-.91-.93-.94-1.36-.11.49.92.94,1,1.36.11"></path><path class="cls-3" d="M382.68,233.89c2.17-.13-1-2,0,0"></path><path class="cls-3" d="M394,765.55c2.17-.13-1-2,0,0"></path><path class="cls-3" d="M398.69,770.89c2.17-.14-1-2,0,0"></path><path class="cls-3" d="M409.46,234.65c2,1,.13-2.17,0,0"></path><path class="cls-3" d="M416.48,766.07c-.21-.89-1.82-.55-1.92.27.14,1,1.68.4,1.92-.27"></path><path class="cls-3" d="M415.46,781c2,1,.14-2.17,0,0"></path><path class="cls-3" d="M420.8,781.66c2,1,.13-2.17,0,0"></path><path class="cls-3" d="M423.37,215.87c2.17-.12-1-2,0,0"></path><path class="cls-3" d="M441.21,772.68c-.83-.28-2.64-1.52-3.15-.52.5,1,2.63,1.5,3.15.52"></path><path class="cls-3" d="M439.48,220c2,1,.13-2.17,0,0"></path><path class="cls-3" d="M439.38,212.54c2.17-.13-1-2,0,0"></path><path class="cls-3" d="M466.91,777.72l-1.15-1.3a16.68,16.68,0,0,1-6.08-.8c-.32.34-.94,1-1.26,1.34a27.15,27.15,0,0,1,4.11.51l.79-.61,1.13.9,2.46,0"></path><path class="cls-3" d="M464.79,780.32c-.48-.9-.93-.93-1.36-.09.48.91.94.94,1.36.09"></path><path class="cls-3" d="M464,208.17v.67c1.82,0,3.63-.9,5.44-.43,4.37,1.1,8.76-1.79,13.08-.61a32.22,32.22,0,0,0,3.33-1.88c-7.23,1.28-14.62,1-21.86,2.25"></path><rect class="cls-3" x="475.33" y="777.73" width="5.34" height="0.67"></rect><path class="cls-3" d="M483.75,778.51c-.84-.58-1.33-.43-1.49.44.83.58,1.33.43,1.49-.44"></path><path class="cls-3" d="M490.64,778.61c-1.32-.3-3.68-.72-4.59.23,1.31.31,3.67.73,4.59-.23"></path><path class="cls-3" d="M486.26,206.59c.83.59,1.33.44,1.5-.44-.84-.57-1.35-.42-1.5.44"></path><path class="cls-3" d="M494.18,779.66c2,1,.13-2.17,0,0"></path><path class="cls-3" d="M502.85,240.66c2,1,.13-2.17,0,0"></path><path class="cls-3" d="M512.82,785c-.48-.9-.93-.93-1.36-.09.48.91.94.94,1.36.09"></path><path class="cls-3" d="M526.54,206.13c-2.2-.08-4.44,0-6.51-.82,0,.31,0,.93,0,1.23,2.23.5,4.56,1.28,6.52-.41"></path><path class="cls-3" d="M528.87,781.66c2,1,.12-2.17,0,0"></path><path class="cls-3" d="M535,207.93c.83.58,1.33.43,1.49-.45-.84-.56-1.34-.41-1.49.45"></path><path class="cls-3" d="M536.87,789c2,1,.13-2.18,0,0"></path><path class="cls-3" d="M538.13,208.5c1.06.34,3.19.72,3.83-.25-1.08-.33-3.21-.71-3.83.25"></path><path class="cls-3" d="M541.12,775.84c-.84-.58-1.34-.43-1.49.44.82.58,1.33.42,1.49-.44"></path><path class="cls-3" d="M543.61,209.21c.52.48,2.22.63,2.2-.35-.54-.45-2.23-.6-2.2.35"></path><path class="cls-3" d="M544.88,775.66c2,1,.13-2.18,0,0"></path><path class="cls-3" d="M546.88,775c2,1,.13-2.17,0,0"></path><path class="cls-3" d="M546.88,210c2,1,.13-2.17,0,0"></path><path class="cls-3" d="M551.55,211.3c2,1,.13-2.16,0,0"></path><path class="cls-3" d="M554.88,212c2,1,.13-2.17,0,0"></path><path class="cls-3" d="M556.32,785.67c.66.67,2.29-.1,1.66-1.06-.64-.73-2.22.19-1.66,1.06"></path><path class="cls-3" d="M562.05,771.23v.64a36,36,0,0,1,6.7-.9c0-.36-.07-1.08-.09-1.45a46.65,46.65,0,0,1-6.62,1.71"></path><path class="cls-3" d="M564.31,213.93c.83.58,1.33.44,1.49-.44-.84-.57-1.34-.42-1.49.44"></path><path class="cls-3" d="M571.14,218.82c-.85-.56-1.34-.41-1.49.45.82.58,1.32.43,1.49-.45"></path><path class="cls-3" d="M570.84,781.47c.86-.16,1-.66.44-1.49-.87.17-1,.66-.44,1.49"></path><path class="cls-3" d="M581.41,767.6c0-.32,0-1,0-1.27-3.76,1.06-7.79,1.46-11.23,3.43,3.88.09,7.34-2.24,11.25-2.16"></path><path class="cls-3" d="M595.7,222.94l-1.06-1.4c-8.12-2.34-16.09-5.37-24.47-6.71,3.73,2.15,8.23,2.55,12.28,4,4.27,1.84,8.95,2.32,13.25,4.12"></path><path class="cls-3" d="M572.23,224.65c2,1,.12-2.17,0,0"></path><path class="cls-3" d="M583.57,787.66c2,1,.13-2.17,0,0"></path><path class="cls-3" d="M587.17,765.21c-.54-.46-2.23-.61-2.2.35.52.46,2.22.62,2.2-.35"></path><path class="cls-3" d="M596.74,223.36c.72,0,1.45,0,2.18,0a6.11,6.11,0,0,0,2.93,1.56c-.94-.77-1.92-1.5-2.87-2.26h-2.24Z"></path><path class="cls-3" d="M598.18,760.76c.91.43,2.07,1,3.1.81.07-1.25-2.64-1.81-3.1-.81"></path><path class="cls-3" d="M602.25,761.81c-.32.65.29,2.09,1.14,1.75.49-.68-.3-2-1.14-1.75"></path><path class="cls-3" d="M602.13,225.07a2.46,2.46,0,0,0,2.52.93c.13-.9-2.22-1.94-2.52-.93"></path><path class="cls-3" d="M605.32,765.62q.23-1.38-1.14-1.14-.25,1.38,1.14,1.14"></path><path class="cls-3" d="M622.21,758.93c1.08.35,1.44,0,1.1-1.1-1.09-.35-1.46,0-1.1,1.1"></path><path class="cls-3" d="M623.44,234.92A2.56,2.56,0,0,0,626,236c.16-1-2.76-3.15-2.51-1.1"></path><path class="cls-3" d="M626.86,236.39a3.25,3.25,0,0,0,3.12.91c-.19-.93-2.63-1.86-3.12-.91"></path><path class="cls-3" d="M628.93,749.64c2,1,.13-2.17,0,0"></path><path class="cls-3" d="M628.86,747c.81.3,2.5-.27,2.47-1.24-.83-.29-2.51.28-2.47,1.24"></path><path class="cls-3" d="M632.35,259.29c.83.58,1.32.44,1.5-.44-.84-.57-1.34-.42-1.5.44"></path><path class="cls-3" d="M635.63,240a6.32,6.32,0,0,0,5,2.2,6.37,6.37,0,0,0-5-2.2"></path><path class="cls-3" d="M641.56,243.22c.09.75,1.71,1.45,1.75.34-.1-.72-1.72-1.43-1.75-.34"></path><path class="cls-3" d="M648.84,738.87c2.17-.14-1-2,0,0"></path><path class="cls-3" d="M650.68,248c.15-.91-.23-1.29-1.14-1.13-.16.92.21,1.3,1.14,1.13"></path><path class="cls-3" d="M655.55,251.3c1,.35,1.25.06.88-.88-.94-.38-1.24-.08-.88.88"></path><path class="cls-3" d="M661.55,254.57c.49.92.94,1,1.36.09-.48-.9-.93-.93-1.36-.09"></path><path class="cls-3" d="M671.26,261a9.71,9.71,0,0,0-4.27-3.19,9.55,9.55,0,0,0,4.27,3.19"></path><path class="cls-3" d="M674.42,731,673,729.57c-1.1.5-2.21.94-3.3,1.44,1.58,0,3.16,0,4.74,0"></path><path class="cls-3" d="M671.56,261.9c.48.92.94,1,1.36.1-.48-.9-.93-.93-1.36-.1"></path><path class="cls-3" d="M674.93,265.23c.1.94,1.88,1.34,1.94.16-.06-.93-1.89-1.22-1.94-.16"></path><path class="cls-3" d="M677.53,267.24c2.16-.13-1-2,0,0"></path><path class="cls-3" d="M681.56,270.58c.49.92.94.95,1.36.09-.48-.9-.92-.93-1.36-.09"></path><path class="cls-3" d="M689.24,275.66c-1.25-1.22-2.43-2.7-4.17-3.18a8.78,8.78,0,0,0,4.17,3.18"></path><path class="cls-3" d="M691.37,277.31c.15-.9-.23-1.28-1.13-1.13-.17.93.2,1.3,1.13,1.13"></path><path class="cls-3" d="M692.3,702.28c2,1,.13-2.18,0,0"></path><path class="cls-3" d="M695.47,711.28V713l.94-.11a26,26,0,0,0-1.49-3.72l.65-.6-1.43-1.11c0,.86,0,1.72,0,2.57l1.35,1.22"></path><path class="cls-3" d="M713,300.69c2,1,.13-2.16,0,0"></path><path class="cls-3" d="M717.41,693c.17,1.4,3,.71,2.5-.56-.76-.45-2.21-.42-2.5.56"></path><path class="cls-3" d="M717.59,302.55c1,2,2-.63.77-1.41-.93-.93-1.29.88-.77,1.41"></path><path class="cls-3" d="M719.22,672.23c2.2.38-.41-2.21,0,0"></path><path class="cls-3" d="M719.55,305.26c2.17-.12-1-2,0,0"></path><path class="cls-3" d="M722.86,308.15a2.32,2.32,0,0,0-2.08-2.1,2.27,2.27,0,0,0,2.08,2.1"></path><path class="cls-3" d="M723.56,309.93c2.16-.12-1-2,0,0"></path><path class="cls-3" d="M724.26,311.89c.78.37,1.66-.92,1.13-1.58-.81-.35-1.69.94-1.13,1.58"></path><path class="cls-3" d="M730.23,319.09c1.88.84,2.77,2.77,4.14,4.18a6.78,6.78,0,0,0-2.83-4.29c0-.28-.07-.85-.09-1.13-.56-.7-1.08-1.43-1.57-2.17-.93-.62-1.85-1.26-2.78-1.87.68.89,1.44,1.72,2.2,2.54.27.93.59,1.84.93,2.74"></path><path class="cls-3" d="M742.33,333.14c-1.29-2-2.38-4.08-3.49-6.16,0,.89,0,1.79,0,2.67,1.53.84,1.76,3,3.5,3.49"></path><path class="cls-3" d="M744.52,336.42a8.32,8.32,0,0,0-2.41-3.37,2.63,2.63,0,0,0,2.41,3.37"></path><path class="cls-3" d="M752.75,662.78A6.42,6.42,0,0,0,751,665.4c.58-.87,1.15-1.74,1.71-2.62"></path><path class="cls-3" d="M756.32,612.78c.52.8,2.39.19,1.47-.78-.53-.92-2.33-.2-1.47.78"></path><path class="cls-3" d="M761.08,614.13c.51.47,2.21.62,2.2-.35-.54-.46-2.23-.61-2.2.35"></path><path class="cls-3" d="M763.68,398.76c2,1,.13-2.18,0,0"></path><path class="cls-3" d="M778.79,408.23c1-.12.41-1.68-.23-1.92-.92.18-.6,1.8.23,1.92"></path><path class="cls-3" d="M778.92,540.74c2.17-.13-1-2,0,0"></path><path class="cls-3" d="M785.09,424.45c-.93-4-3.1-7.64-4.21-11.62a14.07,14.07,0,0,0-2.12-4.5c.86,5.21,3.85,9.86,4.92,15.05l1.41,1.07"></path><path class="cls-3" d="M786.36,434.84H787c-.19-2.25-.8-4.45-.87-6.72L784,429.25c1.26,1.63,2.43,3.44,2.37,5.59"></path><path class="cls-3" d="M785.41,427.25a2.17,2.17,0,0,0,0-2.15c-1.54-.68-1.54,2.84,0,2.15"></path><path class="cls-3" d="M791.89,544.08c-1.55,1.63,1.46,1.61,0,0"></path><path class="cls-3" d="M791.6,511.39c2.17-.13-1-2,0,0"></path><path class="cls-3" d="M793,483.07l1.3-1.12-.76-.84c0-2.37,0-4.75,0-7.13l-.88-1.11.62-.8a18.4,18.4,0,0,1-.42-5.44l-1.49,1.25c1.35,5,.49,10.17,1.59,15.19"></path><path class="cls-3" d="M791.69,463.3c1,0,.8-1.67.35-2.21-1,0-.83,1.69-.35,2.21"></path><path class="cls-3" d="M792.81,513.57h.57a31.22,31.22,0,0,0,.83-8.67h-.58c0,2.92-1,5.74-.82,8.68"></path><path class="cls-3" d="M793.77,489.45c.92-.68.53-2.66.23-3.73-1.53,0-.49,2.78-.23,3.73"></path><path class="cls-3" d="M794.27,491.38c2.16-.13-1-2,0,0"></path></g></g></g></svg>