<svg fill="currentColor" xmlns="http://www.w3.org/2000/svg" viewBox="0 0 1000 1000"><g class="cls-1"><g id="Shapes"><g id="Shape_143" data-name="Shape 143" class="cls-2"><path class="cls-3" d="M342.7,246.83C377,225.28,416.39,212.7,456,205a344.8,344.8,0,0,1,110.47,5.83c26,5.64,51.5,14.09,74.66,27.23,6,3.32,12.85,4.83,18.19,9.27,23.61,15.7,44.13,35.32,65,54.33,35.84,43,61,95.18,70.18,150.58.57,13.54,7.31,27.48,2.83,40.91,6,21.13.24,42.6-1.15,63.87-1.42,9.89-5.33,19.22-7.61,28.92-4.72,20.18-16.37,37.59-22.92,57.06C759,654.25,752,665.33,744.92,676.4c-18,23.07-40.51,42-62.81,60.62-24.55,18.26-51.54,33-79.52,45.33-4.16,1.6-7.88,4.84-12.51,4.76-9.73-.19-19.1,2.94-28.6,4.49-29.57,8-60.64,5.38-90.83,3.49-10.08-.16-20.38.71-30.11-2.51-20.93-5.63-41.82-11.74-61.77-20.23a114.82,114.82,0,0,0-23.69-11.26c-17.07-7.71-30.87-20.73-45.67-31.92-15.78-14.67-33.48-28.26-44.24-47.36-12.8-10.57-18.62-27-27.71-40.48-2.35-5.8-4.37-11.68-7.29-17.2-5.14-12.62-8.13-26-14.16-38.28-9.52-30.8-12.93-63-16-95,.66-28.13,6.83-55.75,15.18-82.53,11.66-39.53,34.65-74.57,60.39-106.33a54.09,54.09,0,0,1,7.13-6.31,37.63,37.63,0,0,1,11.59-12l2.33-3.44c15.41-11,29.65-23.83,46.08-33.39m36.77-10.12c-.12.43-16,4.36-9.19,8.57,9.68,6.87,17.39,16.59,28,22.2,4.3-.58,6.38-4.9,9.53-7.35,26-21.34,53.84-41.79,86.82-50.73-40-1.47-78.41,13-115.12,27.31m-40.19,24.76c-31.32,19.37-53,49.95-77.59,76.6,1.32,2.89,3.1,5.7,6.32,6.72,16.72,6,33.83,11,51.05,15.39,3.8,1.1,7.72.39,11.48-.56,4.68-11.43,12.12-21.37,17.61-32.36,12.17-20.71,29.71-37.26,44.76-55.74-5.89-4.67-13.41-6.39-20.25-9.1-.55-1.32-1.65-3.93-2.21-5.25-.91-.45-2.74-1.37-3.66-1.85a51.49,51.49,0,0,0-5.43-6.54c-8.61,2-15.16,7.73-22.08,12.69m128.15-2.74c-7.48,10.3-11.47,22.38-17,33.7,17.61,3.35,35.45,10.23,53.57,7.8-.7-4.83-1-9.69-1.33-14.54.53-.94,1.62-2.8,2.15-3.73-2.62-16,.41-32.28-.88-48.42.55-.9,1.61-2.69,2.16-3.59-2.1-5.58,3.1-14.75-3.06-17.71-18.36,9-25.87,29.85-35.59,46.49M407.71,270a3.24,3.24,0,0,0,.53,6c10.32,4.53,21.59,6.82,31,13.37,1.28-.39,3.82-1.17,5.1-1.54,5.83-18.21,16.89-34,26.7-50.21,2.83-4.37,7.06-7.45,11-10.69-.51-1.53-1.53-4.55-2.05-6.05-25.58,13.93-50.27,30-72.31,49.11m107.54-48.38c2.74,4.65,6.31,8.77,8.79,13.58,1,.49,2.85,1.43,3.81,1.89,8.57,17.84,24,32,26.85,52.5-4.76-1-10.4-2.88-10.16-9.61-8.12-14.72-15.73-29.7-23.83-44.42-2.49-3.57-6.42-.84-9.68-.25.45,6.74,1.35,13.56.4,20.29-1,16.66-.23,33.34,1,50,12.3-3.15,25-3.73,37.55-4.85a71.67,71.67,0,0,1,9.88-7.4c1.52,1.86,3.06,3.74,4.61,5.56q15.22-4.82,30.13-10.45a156,156,0,0,1,14.8-6.38c-11.17-16.22-29-26-43.77-38.45Q544,228.63,520.94,215.91c-3.3-1.34-4.24,3.75-5.69,5.7m15.82-9.52c5.62,7.11,15,9.34,22.33,14.13C576.25,241,597.51,258,617.89,276a88.82,88.82,0,0,0,32.87-18.86c-.52-1.34-1.54-4-2.06-5.39-23.54-8-44.22-23.88-69.07-28.52-13.41-3.82-26.64-8.83-40.55-10.58a76.8,76.8,0,0,0-8-.56m-157.4,95.8c-14.13,16.94-25.07,36.12-36.74,54.74.11.77.35,2.28.45,3,22.48,6.38,45.86,9.34,68.84,13.58,20.47,4.41,41.48,4.67,62.25,6.88,11.09.5,22.53,1.43,33.38-1.65,3.24-26.47.91-53.21,2.24-79.8-3.5,1.51-6.78,4.28-10.81,3.79-15.31-.44-29.75-6.67-44.85-8.57-9.83,11.41-10.92,28.25-17.16,41.83-5.68,11.26-5.75,25.73-14.54,35.27-.62-1.62-1.91-4.84-2.55-6.43l3-3.33c-.18-1.34-.53-4-.71-5.38,6.68-23,13.84-46.08,24.55-67.57l-6.63.5c-11.49-5.37-24.14-8.37-33.88-16.9-10.67,8.33-18.05,19.87-26.83,30M254.28,352.74c-6.45,12.12-13,24.17-18.92,36.59-7.88,21-13.4,42.86-17.47,64.93-1.45,9.4-3.76,18.95-2.44,28.52-1.42,1.42-2.84,2.81-4.3,4.18.63,2.47,1.29,5,2,7.42,11.86-.42,23.72-1.28,35.58-1.72,6.47.13,12.13-4.68,18.6-3.74,10.88,1.1,21.72,3.64,32.72,3,.54-18.58,1.56-37.24,5.3-55.48,2.54-21.79,11.46-42.24,18.82-62.71-.33-1.19-1-3.58-1.29-4.77-17.29-4.63-35-7.9-51.71-14.59-5.37-2.64-11.22-3.8-16.87-1.66M622.4,283.4c9.45,7.38,15.57,17.88,23.14,27,13.7,16.19,24.12,35.07,32,54.73,21.9-7.72,45.86-11.12,66.19-22.63a28.14,28.14,0,0,0-5.28-5.29c-1.09-2.16-2.17-4.33-3.22-6.51-.93-.49-2.8-1.42-3.75-1.9-8.83-14.57-21.08-26.92-34.71-37.05-9.47-11.8-22.68-19.85-34.37-29.28-15,3.72-25.27,16.63-40,20.93M514.45,310c-6.91,11.82.59,26.06-1.5,38.78,2.06,12.63-2.43,25.66,2.56,37.89,22.58-1.3,45.25-1.87,67.66-5.14-6.23-26.23-18.13-50.47-25.57-76.31-5,1.26-10.12,2.47-15.16,3.65-9.35.26-18.73.16-28,1.13m49.65-4.49c12.15,24.55,17.32,51.82,26.24,77.59,26-7,52.92-9.44,79.2-15.3-10.69-24.24-25.09-46.76-41.76-67.32-4.08-4.81-6.59-10.75-8.24-16.77-17.48,9.64-36.22,16.41-55.44,21.8M331.58,373.7C326.52,391.64,319,409,316.33,427.55c-4.15,21.38-11,43.45-7,65.41a95.48,95.48,0,0,0,20-2.76c17.6,5.5,36.56-1.62,54.31,3,5.85,0,12.23,1.4,17.37-2.18-3.57-22.29.25-44.6,2.44-66.78.78-10.23,5.58-19.8,5.59-30.11,1.35-.51,4.07-1.49,5.42-2,2.57,12-1.26,24.22-3.35,36.1,0,1.26-.16,3.76-.22,5-2.74,7.11-2.64,14.87-1.57,22.32-.45.91-1.39,2.75-1.87,3.67.29,10.78-1.07,21.52-1.47,32.3,32.42-1.64,64.71-5.94,97.19-6.34,2.71-14.08,1.58-28.37.32-42.52a194,194,0,0,0-.4-49.4c-13.84-1.12-27.71,1.47-41.51-.29-9.46-1.07-19-.83-28.4-2.39-31.25-4.32-62.88-7.55-93.13-16.95-2.74-.95-5.69,0-8.5.08m185,21.12c-5.64,15.75-1.62,32.88-4.34,49.16.37,16.12-2.16,32.89,3.49,48.43,9.92,2.53,20.21-.44,30.24-.44,17.48-.53,35.11,0,52.37-3.29-1.62-10-1.3-20.21-2.8-30.25-.81-23.38-8.1-45.91-9.6-69.22-23.09,2.21-46.22,4-69.36,5.61m-304,110.54c2.11,16.67,5.56,33.2,6.5,50,3.74,25.64,15.29,49.15,22.67,73.8.74.55,2.23,1.6,3,2.14,23.53-6.11,45-18.55,69.26-22.31,13.75-2.49,27.43-5.56,41-8.91,26.83-6.89,55-4,81.81-11.28,21.27-4.15,43-1.95,64.49-3.3,3.49-25.86,3.42-52.08,2.62-78.11a52.45,52.45,0,0,1,4.34-5.5c-8.77-1-18.59-1.89-23.36-10.61-8,.71-15.39,3.81-22.79,6.57l-3.68-2.53c-22.89,4.06-48.34-1.76-69.4,9.91-2.29-2-4.56-4-6.86-6-24.93,2.47-50.55-2.15-75,5.26,2.78,18.55,1.66,37.69,8.13,55.56-2.82.86-5.62,1.7-8.43,2.52-.84-5.21-2.13-10.35-1.4-15.61-4.89-15-1.74-30.93-6.36-45.88-28.79,1.89-58.13-2.07-86.5,4.27m380-116c2.17,19.85,6.44,39.43,8.77,59.26.22,5.36,2.39,10.29,4,15.36-3.18,7.75-1.87,16.11,1.92,23.57q2.75,1.16,5.51,2.36c29.49-1.48,59.29,2,88.65-2.57-2.69-14.33-5.69-28.7-6.19-43.34-.5-6,0-12.25-2.35-17.88-6.29-15.82-10.89-32.24-16.81-48.19-.6-2.53-.67-5.71-3.92-6.05-25.32,10.55-53.15,11.28-79.57,17.48M684.51,372c-.46.77-1.42,2.29-1.9,3,6.61,16.21,12.55,32.67,16.3,49.84,7.89,20.54,4.18,43,9.86,64,24.67.56,49.66-4.66,74.27.19,6.51,2,8.13-7.21,6.08-11.66-3.27-23.54-4-48-13.76-70.07-4.82-9.94-7.45-20.89-13.62-30.13a80.44,80.44,0,0,1-11.27-25.62c-22,6.76-44.14,13.05-66,20.4m-193,119.8A30.8,30.8,0,0,0,505.33,494c-.38-1.74-1.14-5.21-1.5-6.95-4.13,1.5-8.25,3-12.29,4.67m20.86,8c-3,8,1.76,16.57,2.37,24.81-.56.92-1.68,2.75-2.24,3.65-.58,19.43-.35,38.95-1.95,58.31,15.94,2.35,32.1-.06,48,2.35,10.14.56,20.26,4.07,30.4,2,1.68-19.46,4.49-38.77,6.26-58.22,1.4-10.75,1.31-21.83,4.23-32.3-.18-1.3-.51-3.87-.69-5.15-20.91,4.64-42.29,2.53-63.47,3.82-7.59,1.36-15.53-1.91-23,.71m94.1,4.31c-1.74,8.87-1.9,18-2.13,27-2.9,10.16-2.28,20.89-3,31.33-.39,1-1.18,2.91-1.57,3.87.48,8.83-4.62,17.06-3.55,25.82,6.93,3.84,15.11,2.85,22.64,4.26,20.21,1.5,39.24,9,59.05,12.39,8.92-24.79,17-50.4,18.33-76.87,1.1-12.16,4.92-24.5,1.51-36.63-13.74,1.13-27.54,1.48-41.27,2.5-15.34,2.33-30.81-2.75-46.09.09-2.8.54-2.88,4.14-3.94,6.25M249.79,642.83c2.94,5.24,5.78,10.68,10.1,14.93,10.64,11.88,18.27,26.12,29.63,37.39,17,18.62,37.75,33.08,56.92,49.25,6.76-2.33,11.53-7.9,17.64-11.36,9.78-5.33,20-9.87,30.12-14.48a26.08,26.08,0,0,0-9.88-12.37c-.76-1-2.25-3-3-4-10.55-8.72-17.36-20.9-26.18-31.21-11.7-17.45-23-35.64-29.91-55.61-16.34,5-32.78,9.87-49.56,13.38a215,215,0,0,0-25.89,14.08M332,614.78c8.22,12.77,13.59,27.15,22,39.79,13.85,21.56,31.83,40,47.6,60,14.41-6.44,28.16-14.57,43.78-18.1-14.94-27.83-23.78-58.41-31.71-88.84,1.45-.49,4.32-1.43,5.76-1.89,7.34,26.94,18.68,52.5,27.4,79,1.3,3,3.91,8.9,5.22,11.86,16.51-1.5,33.17-2.3,49.41-5.79,3.4-32.39-1.13-64.83.55-97.19-36.69,2.11-73.75,2.89-110.21,8.39-17.25,3.3-34.58,6.28-51.88,9.33a43.18,43.18,0,0,0-7.93,3.43m375.8-116.69c-.75,17-.79,34.13-4.46,50.78-5,20.2-5.93,42-17.48,60,.16.73.44,2.21.6,2.94,21.77,6.49,44,11.77,64.85,21.15,2.35-.63,4.69-1.26,7-1.92,3.38-14.43,12.88-26.51,16.65-40.82,2.22-8.3,4.78-16.6,5.6-25.18,5.7-22,7.91-45,7.94-67.7-12.53-.36-25.06-2.18-37.6-.58-14.43,1.1-29.27-4.47-43.15,1.37m-198.5,97.1c6.08,19.24-.86,39.09.9,58.68,2.91,13.81-1.36,27.91,1.13,41.73,14.3-.4,28.74,2.88,42.94.43,13.43-28.19,22.18-58.38,29.79-88.6,2.29-1.58,4.58-3.19,6.94-4.69.38,2.92,1.7,6,.82,9-4.75,19.15-9.5,38.41-17.28,56.6-3.35,10.8-7.48,21.28-13.92,30.64.07.78.23,2.3.32,3.07a84.69,84.69,0,0,1,44.2,15.33c10.68-7.4,18.78-18.2,26-28.82,15.3-16,24.49-36.48,36.45-54.85a90.36,90.36,0,0,0,7.37-17.43c-21.39-5-42.85-9.7-64.58-13-25.11-5.7-51-5.53-76.51-7.83-8.19-.22-16.43-1.75-24.54-.19m169.94,33.09c-12.72,29.26-30.75,56-52.15,79.57-3.4,4.86-7.51,9.3-13.32,11.21.35,1.29,1.07,3.85,1.42,5.14,13.17,3.2,24.4,10.92,34.32,19.87,6.91-2.61,15.46-2.6,20.52-8.65,8.91-9.43,20.09-16.23,28.92-25.72,8.13-7,13.65-16.52,22.25-23,10.7-12.8,20.93-25.86,29.26-40.4-.43-1.42-1.29-4.21-1.72-5.63-19.71-6.35-39.19-13.49-59-19.47-5.24-2-7.68,4-10.53,7M406,718c9.09,8.24,18.75,16,29.64,21.78,7.52,3.88,13.71,9.73,19.78,15.56,9.4,3.08,17.64,9.93,27.89,10-12.43-18.71-31-35.32-31.41-59.54C436,707.16,421.46,714.41,406,718m48.23-13.22c2.17,2.93,4.26,5.91,6.39,8.85.24,2.67-.07,5.52,1.25,7.95,10.09,17.91,20.29,35.86,33.4,51.76,3.72,2.31,8.14,3,12.32,4.13-1.59-3.34-2.79-6.9-2.45-10.64-1.19-21.81-.39-43.76-2.58-65.5-16-1.55-32.35,1.55-48.33,3.45m-89.91,36.71c-1.8,4-4,8.18-3.14,12.76,9.89,2.12,18.3,8,27.59,11.68,21.18,9.75,43.86,15.9,66.68,20.25,14.51,1,29.56,6.58,43.8,1.75a63.6,63.6,0,0,0-7.82-7,19.55,19.55,0,0,0-4.51-4.3c-27.75-12.93-55.83-26.93-78.41-47.94-1.85-1.89-3.69-3.8-5.43-5.77-13.81,4.25-25.77,12.52-38.76,18.61M511.89,702.3c-3.06,14.13,0,28.7-.46,43-.61.87-1.88,2.64-2.51,3.54,1.24,7.57,1.22,15.31,2.28,22.91,10.49-6.47,13.13-19.62,19.61-29.35,7.3-10.4,10.62-23.24,19.14-32.76-.33-1.4-1-4.24-1.3-5.65-12.28.06-24.59-2.93-36.76-1.7m31.94,32.16c-7.05,11.09-12.91,23-21.39,33.1-2.92,4.51-7.5,8.26-9,13.61,14.35-2.91,25.21-13.14,37.9-19.66,18.37-10.38,33.54-25.47,51.54-36.37-12.54-10.28-29.75-12.61-44.67-17.75-5.59,8.47-8.92,18.39-14.36,27.07m31.91,20.26c-19.14,13-38.6,25.95-60.42,34.07,8.09,3.49,16.94.13,25.12-.95,21.45-2.5,41.93-9.94,62.07-17.35,13.41-6.69,27.88-11.06,41-18.3-8-11.3-21.24-19-33.95-23.75-12.63,6.95-22.05,18.21-33.86,26.28"></path><path class="cls-3" d="M221.57,483.85c.94-2,5.81-3.74,6.43-.8-.94,2-5.82,3.72-6.43.8"></path><path class="cls-3" d="M398.36,507.46c.83-3.19,4-4,6.62-5.24,1,7.41,5.23,15.6,1.66,22.77,3.31,19.83,4.45,40,10.31,59.39-1.36,2.66-4,4-6.5,5.44-5-18.83-8.78-38.18-8.83-57.72,0-8.35-2.12-16.44-3.26-24.64"></path><path class="cls-3" d="M309.53,570.56c2.66-.84,5.31-1.65,8-2.45q5,15.39,9.2,31c-.41,3.8-5.22,5.6-7.39,2Q314,586,309.53,570.56"></path></g></g></g></svg>