<svg fill="currentColor" xmlns="http://www.w3.org/2000/svg" viewBox="0 0 1000 1000"><g class="cls-1"><g id="Shapes"><g id="Shape_54" data-name="Shape 54" class="cls-2"><path class="cls-3" d="M495,200c3.9,0,7.86-.28,11.7.61a61.32,61.32,0,0,0,6.56,2.28l.67.56c4.41,1.63,7.78,5.11,10.84,8.54,1.84,1.9,2.77,4.43,3.64,6.88a3.54,3.54,0,0,1,.72,1c.89,4.45,2.84,8.91,1.87,13.56-.63,1-2,1.89-1.33,3.26l1.08-.54a14.38,14.38,0,0,1-4.8,13.41,7.47,7.47,0,0,1-2.78,4.28c-2.92,2.36-5.27,5.81-9.17,6.61-.83,1.62-3,1.18-4.4,1.75-.89.42-1.75.9-2.65,1.29-4.18,1.86-8.91.81-13.28.41a28.18,28.18,0,0,1-4.39-1.35c-.14-.18-.44-.54-.59-.71l-1.65-.11-.52-.8-1.66-.12-.61-.65c-2.81-.81-4.79-3.14-6.78-5.14a49.81,49.81,0,0,1-5.69-7,6.26,6.26,0,0,1-1-3l-.63-.63a19.51,19.51,0,0,0-1.18-4.06c-1.17-2.86-1.16-6-1.06-9-.24-3.57,1-7,1.54-10.45.47-2.61,2.42-4.54,3.85-6.68a26.61,26.61,0,0,1,2.46-3.69c1.59-1,2.46-2.82,3.95-4,1.18-.85,2.43-1.62,3.54-2.56a5.63,5.63,0,0,0,4-1.75,69,69,0,0,1,7.24-1.53c.15-.18.43-.55.57-.73m-8.29,7.5a10.66,10.66,0,0,0-.82,1,21.06,21.06,0,0,0-2.24.76c-1.66,1.9-5,2.45-5.25,5.38-1.07,1.27-1.66,3-3.24,3.8-.71,1.72-.91,3.6-1.68,5.29-1.72,3.63-1.12,7.73-1.19,11.63a4.56,4.56,0,0,0,1.49,4.2c.92,2.41,1.93,4.77,3,7.12l1.09.64c0,.28.14.85.18,1.13a55.15,55.15,0,0,0,9.91,8.1,26.87,26.87,0,0,0,14.25,2.58c2.38-.32,4.8-.38,7.2-.66.2-.38.39-.77.59-1.16,1.08-.22,2.07-.5,3.17-.74a60.59,60.59,0,0,0,7.68-6c.06-.26.17-.81.23-1.08.54-.49,1-1,1.55-1.53l.16-1.17,1.09-1.06c.55-2.06,2-3.71,2.75-5.67.25-1.79.17-3.62.38-5.41.63-3.66-.62-7.27-.91-10.89a2.2,2.2,0,0,0-1.24-1.83c-.48-1.89-1.88-3.46-2-5.45a12.81,12.81,0,0,0-2.74-2c-2-3-5.51-4.45-8.19-6.74l-1.48-.31c-3.43-2.88-8.34-2-12.43-2.16-3.92-.36-7.65,1-11.26,2.27"></path><path class="cls-3" d="M496.24,274.23a9.32,9.32,0,0,1,2.08.4c.78,4.28.06,8.65.53,12.95.5,11.62-.2,23.26,0,34.88.74,9-.17,18,.36,27,.55,14.91-.44,29.86.07,44.77.4,5.78.06,11.58.11,17.37-.08,3.5.16,7.05-.54,10.51l-.44,0q0-.89,0-1.77l-1,.06a68.51,68.51,0,0,0,1.54,6.78,59.71,59.71,0,0,1,.21,7.69,4.36,4.36,0,0,1-3,.81c-.46-.49-.93-1-1.4-1.43a261.64,261.64,0,0,0,.4-26.42c-.43-12.37.11-24.75.05-37.13-.14-1.32.82-2.33,1.7-3.16.31-1.4.46-2.82.64-4.23l-2.26-.06c0-3.88.19-7.76-.12-11.62a161.93,161.93,0,0,1,.24-20.43c-.54-7.53.13-15.09-.35-22.61a26.64,26.64,0,0,1,0-4.81,23.14,23.14,0,0,0,.06-5.7c-.49-5.41.18-10.86-.3-16.26-.11-2.48-.91-5.75,1.26-7.65m-.21,4.82c-.23,1.44,0,2.71,1.42,3.14a1.63,1.63,0,0,0-.34-2c0-.29-.14-.86-.18-1.14H496m.57,150.66c.07.72-.06,1.54.52,2.1,1.94.39,1-2.82,1.26-3.54-.6.47-1.19,1-1.78,1.44"></path><path class="cls-3" d="M245.45,338.57A37.26,37.26,0,0,1,263,332.05c5.23-.54,10.34.68,15.22,2.4l.6.7c.28.05.83.17,1.11.24,2.13,1.54,4.88,2.29,6.45,4.52a27.33,27.33,0,0,1,8.51,9.91c1,1.7.74,3.74,1.37,5.56,1.31,1.28.4,3.35.81,4.94l.77.58a45.11,45.11,0,0,1-1.09,11.17,8.45,8.45,0,0,1-.9,1.31c-.45,1.41-.34,3.19-1.39,4.36-.62,2.9-3.11,4.77-4.92,6.95-1.28,1.21-2.41,2.58-3.69,3.78-1.64,1.29-3.39,2.44-5,3.74l-1.16.15c-.13.2-.41.59-.54.78l-1.68.07-.52.79-1.23.08-.55.78a44.49,44.49,0,0,1-14.86,1.22c-2.52-.52-4.87-1.69-7.37-2.35l-1-1.12-1.56-.22c-1.25-1.11-2.87-1.82-3.83-3.22-3.25-2.24-6.61-4.69-8.16-8.48-.61-1.79-1.82-3.3-2.34-5.11-.9-2.15-.61-4.72-2.07-6.64-.13-1.34-.17-2.66-.41-4l-.16-4.6c.19-.14.58-.42.78-.55a23.11,23.11,0,0,1,3.65-12.26,72.73,72.73,0,0,0,5.07-6.8l1.52-.2c.35-.67.74-1.32,1.1-2m12.91-1.5a22.52,22.52,0,0,0-9.28,4.28c-1.54.52-2.23,2.22-3.74,2.87-2.49,1.46-3,4.57-4.63,6.78-.54.34-1.06.69-1.59,1.05-.05,1.27-.13,2.49-.22,3.77a4.33,4.33,0,0,0-1.17,2.37c-.1,3.63-.07,7.26,0,10.9l.74.57A23.18,23.18,0,0,0,245.66,383a17.73,17.73,0,0,0,3.45,3.14c.89,1.28,2.52,1.58,3.77,2.4,1.68.84,3.3,1.95,5.19,2.28,5.63,1.21,11.82,1.76,17.19-.72a63.91,63.91,0,0,0,8.15-4.08c.12-1.48,1.61-1.78,2.78-2.1,0-.3.07-.91.09-1.22l1.28,0c1.51-2.8,3.26-5.51,4.26-8.54,2.87-4.51,2-10.28,1.42-15.3q-1.08-3.14-2-6.31c-1.19-2.25-2.62-4.36-4-6.5a9,9,0,0,1-1.78-1.76,36,36,0,0,0-8.8-5.74L276,338c-2.71-.75-5.41-1.54-8.19-2-3.15-1.22-6.32.7-9.42,1.11"></path><path class="cls-3" d="M728.36,339.37c6-2.45,12.4-.56,18.09,1.65l1.51.27.63.63c3.36,1.1,5.83,3.9,8.69,5.87,3.75,4.52,7.45,9.43,8.82,15.28a52,52,0,0,1-.07,15.85c-1.41,1.12-1.37,3.25-1.84,4.82-.73,1.67-2,3.06-2.71,4.73a5.18,5.18,0,0,1-1.38,2.19l-.2-1.56-.8.07c0,1.12-.08,2.24-.14,3.37A6,6,0,0,0,755.7,395a12.72,12.72,0,0,0-2.2,2.2c-.57.44-1.13.91-1.67,1.4a14.83,14.83,0,0,1-5.55,1c-.2.39-.4.78-.57,1.18-1.54.36-3.06.71-4.58,1.09-3.77,2-8.35.8-12.44,1l-.53-.79c-5.39.48-10-2.75-14.33-5.5-3.94-2.95-6.73-7.11-9.48-11.13l-.31-1c-3.33-6.45-3.12-14-2.53-21.06a34.13,34.13,0,0,1,13.19-18.9c1.94-1.12,3.83-2.33,5.81-3.4,2.41-1.32,5.33-.7,7.85-1.74m-5.17,4.92c-.53.49-1.09.95-1.62,1.43l-1.09.23c-2.47,1.77-5.09,3.33-7.47,5.22a14.41,14.41,0,0,1-1.25,1.83,13,13,0,0,1-2.26,2.59c-1.82,4.74-4.41,9.44-3.88,14.68-.51,3.9,1.11,7.54,1.34,11.38l1.09.64c1.35,2.13,2.26,4.61,4.25,6.26,1.57,2.69,4.4,4.14,6.86,5.89,6.41,4.66,14.9,4.71,22.42,3.47a38.4,38.4,0,0,0,14.2-8.57,33.89,33.89,0,0,0,3.55-6.12c.33-.26.65-.53,1-.82,1-3.12,1.56-6.36,2.37-9.53a28.24,28.24,0,0,0-2.88-13.17C757.27,353,751.38,348,745,345.08c-3.81-2.38-8.47-2.18-12.76-2.62-3.06.29-6,1.42-9,1.83m25.75,52.33c-.31.92.78,1.48,1.56,1.15.42-.38.79-.79,1.18-1.21-.86-.32-2.09-.91-2.74.06"></path><path class="cls-3" d="M299.44,384.49c3,.31,5.44,2.24,8.14,3.38,6.11,4,13,6.69,18.87,11q14.82,8.73,29.6,17.5a14.28,14.28,0,0,0,2.64,1.35c3.4,2.53,7.3,4.29,10.73,6.8,4.83,2.43,9.47,5.17,14.14,7.9a28.29,28.29,0,0,0,5.72,3.11c3.89,2.76,8.37,4.67,12.09,7.65l1.49.3c2.21,1.84,5,2.81,7.27,4.59l1,.32c1.57,1.43,3.88,1.88,5.17,3.62a81.79,81.79,0,0,1,12.19,6.73,31.82,31.82,0,0,0,5,2.91c1.89.77,3.46,2.13,5.21,3.17,0,.51,0,1,.05,1.53-.34.31-.67.63-1,.95a7.35,7.35,0,0,1-5-1.43c-3.09-1.92-6.15-3.89-9.35-5.6-1.94-.92-3.51-2.47-5.48-3.32-3.44-1.37-6.35-3.74-9.69-5.3-2.86-1.25-5.05-3.62-7.95-4.77a32.46,32.46,0,0,1-7.15-4.29c-3.51-1.62-6.66-3.9-10-5.79-4.08-1.72-7.42-4.72-11.36-6.69-3.33-1.54-6-4.17-9.4-5.59-5.61-3.3-11.12-6.76-16.7-10.11-3-1.27-5.74-3.1-8.65-4.58-2.61-1.43-4.82-3.53-7.56-4.72-2.72-.81-4.85-2.83-7.35-4.11-4.1-2.51-8.61-4.36-12.38-7.39a94.66,94.66,0,0,1-11.28-6.48c.32-.89.65-1.78,1-2.66"></path><path class="cls-3" d="M694.34,388.47a4.1,4.1,0,0,1,3.17-.71c.61.54.48,1.39.57,2.13-2.48,1.33-4.92,2.73-7.33,4.17a11.24,11.24,0,0,1-6.53,3.56c-2.06.37-3.57,1.95-4.91,3.43l-1,.26c-.36.38-.72.75-1.06,1.13l-1,.27c-1.59,1.59-3.81,2.3-5.62,3.57-.28.06-.85.15-1.13.2s-.41.58-.54.78l-1.7,0q-.31.57-.6,1.17c-2.62,1.67-5.92,2.31-8,4.7a72.14,72.14,0,0,0-6.56,3.49l-1.1.22-.59.73-1.07.22c-1.59,2.33-4.62,2.85-7,3.92-1.61,2.13-4.38,2.62-6.56,4-1.37.69-2.56,1.82-4.12,2-.24.34-.46.7-.68,1.05-1.28.78-2.58,1.72-4.2,1.52-.23.34-.45.69-.66,1-2.34,1.05-4.82,2.06-6.68,3.88l-1.32.38c-.91.93-2.36,1.1-3.09,2.23-1.15.79-2.44,1.36-3.66,2-1.39.77-2.7,1.95-4.45,1.66-.21.38-.41.76-.6,1.15a11.37,11.37,0,0,1-4.63,1c.77,1.92-1.14,2.72-2.33,3.42-1.26,1-3.08,1.18-4.17,2.42a18,18,0,0,1-2.81.68c-.23.33-.47.66-.7,1-2.24,1.33-4.23,3.18-6.91,3.61a7.69,7.69,0,0,0-4.58,2.9,7.26,7.26,0,0,1-3.62,1.64,34.42,34.42,0,0,0-3.43,2.69c-1.46.76-2.92,1.5-4.42,2.16a43.59,43.59,0,0,1-7.56,4.27l-2.37.26c.18-1,0-2.75,1.08-3.38,8.89-5.41,18.21-10.11,27.27-15.2,1.12-.62,2.53-.88,3.2-2.09,1.43-.9,2.94-1.68,4.39-2.56,3.06-1.34,5.78-3.32,8.74-4.87,3.47-1.76,6.51-4.45,10.32-5.48a22.45,22.45,0,0,1,5-3.27c1.24-.78,2.91-1.09,3.74-2.42a28,28,0,0,1,5.38-3l.72-.51c2-.41,3.22-2.11,5-3,1.7-1.22,4-1.27,5.49-2.83a24.87,24.87,0,0,1,5.56-3.22,22.85,22.85,0,0,1,4.41-2.61c3.37-2.63,7.5-4,10.93-6.52,2.54-.74,4.51-2.63,6.93-3.64,7.47-4.92,15.64-8.69,23-13.73.95-.77,2.24-.92,3.17-1.71l1.35-.31"></path><path class="cls-3" d="M487.27,442.19c5.79-1.51,11.88-1.41,17.8-.9,3.3.4,6.82.16,9.89,1.65,2,1.08,4.45,1.16,6.41,2.35,4.9,1,9,4.11,13.12,6.75,3.59,2.32,6.54,5.44,9.48,8.51,2.36,1.93,3.84,4.66,5.84,6.94,0,.48,0,1,0,1.47-1,.05-.85,1.11-.87,1.84,1.06.64,2.59.1,3.45,1.09,2.11,2.84,3,6.31,4.48,9.47,1.13,3.46,2.21,6.93,3.09,10.47a82,82,0,0,1,.47,16.36,42.38,42.38,0,0,0-1.37,6.59c-.52,5.21-3.65,9.54-5.44,14.34-1.84.86-1.78,3.21-2.63,4.84a1.88,1.88,0,0,0-1.85,1.76c-.33.37-.65.76-1,1.14a9.92,9.92,0,0,1-3.28,4.68c-3.18,2.37-5.26,5.87-8.4,8.27-1.15,1-3,.94-3.74,2.43-3.75,3-8.37,4.53-12.85,6a23.23,23.23,0,0,1-4,1.6,71.88,71.88,0,0,1-23.61,1.69c-8.3.18-15.6-4.17-22.83-7.63-2.67-1.69-5.37-3.34-7.86-5.28l-.33-1a18.48,18.48,0,0,1-4.45-3.91c-1.27-1.23-2.32-2.66-3.58-3.88-1.82-2-3.87-4.1-4.1-6.89a24.07,24.07,0,0,1-1.89-1.59c-1.36-2.61-2.46-5.34-3.84-7.94,0-1.45-.08-3-1.32-4A62.4,62.4,0,0,1,439.4,499c0-2.74-.18-5.52.74-8.14.54-1.78.64-3.75,1.74-5.29A33.47,33.47,0,0,1,446,474.2c.1-.22.31-.64.42-.86,1.15-.74,1.37-2.16,2.1-3.22,1.08-1.6,1.84-3.39,2.92-5,2.23-3.14,5.2-5.63,7.78-8.46a25.22,25.22,0,0,0,5.36-4.74,75.27,75.27,0,0,1,10.48-5.7c4.11-1.21,7.87-3.64,12.21-4m0,3.16c-.12.21-.37.64-.5.85l-3.42.06-.6.68c-2,.48-3.77,1.46-5.79,1.7-.48.27-1,.51-1.46.74l-.66.6-1.1.25a13.22,13.22,0,0,1-2.56,1.39,22.25,22.25,0,0,0-4.35,3.05c-2.1.56-3.79,2-5.48,3.31,0,.29-.13.86-.17,1.15-1.94,1.42-3.67,3.07-5.62,4.48,0,.54-.1,1.07-.14,1.61-2,2.09-4.76,3.8-4.93,7-.49.38-1,.75-1.51,1.09-.09,1.27-.13,2.82-1.36,3.55a25.56,25.56,0,0,0-1.75,5.28,7.61,7.61,0,0,0-1,3,23.8,23.8,0,0,0-1.74,9.74,55.85,55.85,0,0,0-.08,10.1c.18,3.28.79,6.51,1.15,9.77l.66.62c.69,2.84.72,6,2.51,8.44,1.73,2.59,2.76,5.58,4.54,8.16,4.67,7.46,11.48,13.24,18.54,18.35,3.08,2.49,7.1,3.25,10.37,5.45,7.11,2.06,14.47,4.23,22,3.21,2.7-.7,5.44-1.27,8.18-1.82,3.82-.13,7.12-2.36,10.93-2.65.13-.2.4-.58.54-.78l1.56-.19a10.07,10.07,0,0,1,4.35-1.79,26.12,26.12,0,0,1,5.24-3.52c2.69-2.59,5.75-4.78,8.59-7.2,0-.29.12-.87.15-1.16,2.54-2.16,4.13-5.22,6.9-7.14,0-2.15,1.55-3.84,2.13-5.84,1.76-.81,1.64-2.77,2.22-4.35.8-2.23,2-4.35,2-6.79.21-1.83.48-3.65.75-5.47,1.35-4.62.39-9.53.68-14.25l-.81-.51c0-1.28-.1-2.63-.06-3.87l-.73-.58c-.76-3.59-1-7.42-2.86-10.67-.94-3.21-3-5.87-4.3-8.9-1.92-1.49-.17-4.07-1.48-5.89l-3-.11c-1.28-2.06-3.6-3.25-4.6-5.52l-1-.32c-.77-1-1.83-1.69-2.58-2.69-3.64-1.63-6.29-5.07-10.16-6.16l-.6-.67-1.2-.14c-.14-.18-.43-.52-.58-.69a16,16,0,0,1-5.75-2.2,33,33,0,0,1-4.74-1c-8.24-2.06-17.06-3-25.37-.73"></path><path class="cls-3" d="M437.62,534.19c2.25-1.25,2.27,1.17,2.42,2.43q-.53.43-1,.9l-1.55.16a35.51,35.51,0,0,1-3.34,2.79c-1.66.4-2.93,1.7-4.62,2a16.58,16.58,0,0,0-1.6,1.85,6.24,6.24,0,0,0-3.56,1.73l-1.34.39a16.63,16.63,0,0,1-5.82,3.43l-1.1,1-1.49.26a13.26,13.26,0,0,1-4.91,3l-.64.63c-.51.06-1,.12-1.53.2a17.12,17.12,0,0,1-1.54,2c-2.57-.4-4,2.31-6.38,2.43-1.6,1.39-4.09,1.59-5.24,3.5-1.7,0-3.34.41-5,.56a.87.87,0,0,1-.86-1.18c1.5-1.5,3.76-1.77,5.5-2.88a48.39,48.39,0,0,0,4.75-3.1c1.22-.26,2.69-.47,3.08-1.86a13.8,13.8,0,0,1,4.58-.05c-.87-2.68,2-3.84,4-4,.2-.39.39-.78.58-1.17a15.93,15.93,0,0,1,2.46-.56c.16.25.46.77.62,1l2.58-.53a2.53,2.53,0,0,0-1.41-2c1.18-1,2.8-1.35,4-2.31,3.24-1.83,6.14-4.3,9.57-5.8l.75-.49c1.93-.76,3.57-2.14,5.59-2.73a3,3,0,0,0,2.42-1.67"></path><path class="cls-3" d="M560.79,536.32c4.55.44,8,3.78,12,5.65,3.33,2,6.64,4.12,9.83,6.39,7.28,3.51,13.81,8.39,21,12,2.16,1.61,4.68,2.61,7,4,5.22,3.07,10.7,5.79,15.4,9.66,3.05,1,5.73,2.79,8.58,4.22,3.74,2.46,7.75,4.49,11.52,6.93l1,.35c2,1.25,4.23,2.06,6,3.68l1.1.25.64.62c4.89,2,8.76,5.93,13.68,7.94,7.5,4.38,15.33,8.2,22.56,13a62,62,0,0,1,8.73,5.37c1.06.77.38,1.87-.11,2.76-4.13.31-7.19-2.78-10.72-4.32-6.55-4.08-13.2-7.95-19.9-11.76-4.4-2.87-9-5.31-13.57-8-4.7-2.2-8.83-5.41-13.51-7.64-3.78-2.24-7.45-4.66-11.36-6.68s-7.45-4.64-11.33-6.69c-5.16-2.48-9.86-5.8-15-8.38-4.84-3.08-9.82-5.94-14.57-9.14-3.95-1.52-7.37-4.17-11.15-6-3-1.35-5.44-3.41-8.24-5-3.59-2.22-7.71-3.82-10.44-7.19-.36-.83.47-1.46.84-2.11"></path><path class="cls-3" d="M387.16,564.45l3.1.06a15.42,15.42,0,0,1-4.32,3.13c-1.28-.33-2,.64-2.6,1.4-1.8,1.18-3.42,2.87-5.7,3-1.06,1.37-3,1.3-4.34,2.22-2.78,1.4-4.95,4.28-8.22,4.52a18.63,18.63,0,0,0-1.08,1.55c-.75.27-1.51.53-2.27.77a10.87,10.87,0,0,1-2.65,1.3c-1.33,1.18-3,1.92-4.37,3a7,7,0,0,0-3,1.8l-1.06.26c-1.17,1.46-3,1.7-4.8,1.75a26.36,26.36,0,0,1-4.4,3.54c-1.91-.5-3,.93-3.84,2.24-2.48-.35-3.53,2.71-6,2.37-.21.37-.4.75-.59,1.13a16.08,16.08,0,0,0-3.69,1.12c-.67.68-1.22,1.57-2.24,1.76l-.74.49c-1.69.46-3.05,1.67-4.62,2.42a3.16,3.16,0,0,0-1.15,1.09c-1.4,1-3.55.5-4.43,2.14l-1.39.32c-1.24.7-2.59,1.18-3.85,1.84-2.32,1.49-4.34,3.89-7.36,3.69-.16-.58-.3-1.15-.42-1.72,2.27-1.59,4.17-3.77,6.85-4.71,2.37-2.15,5.53-3.14,8.49-4.22l.7-.54c2.38-.88,4.37-2.54,6.74-3.41,1.69-1,3.25-2.8,5.47-2.33,1.61.84,2.65-.43,2.78-1.7a27.6,27.6,0,0,1,6.37-4.1c2.22-.87,3.95-3,6.55-2.6a6.82,6.82,0,0,1,1.56-2.85c1.14-.27,2.23-.72,3.36-1.05l.62-.68,1.15-.17a9.65,9.65,0,0,1,3.44-2.27c2.38-1.26,4.53-3,7.11-3.86l1.15-1a24.44,24.44,0,0,0,6.29-3.37c5-2.71,10-6.65,16-6.33.5-.68,1-1.38,1.43-2.09"></path><path class="cls-3" d="M496,569.63c1.5-.82,2.58.42,2.92,1.59.3,5.49-.31,11,.33,16.49-.1,2.61-.61,5.2-.36,7.83.71,8.07-.14,16.18.55,24.25.1,10.23-.13,20.46-.19,30.7a39.43,39.43,0,0,0,.18,6.33c.45,14-.24,27.95,0,41.92.1,1.67.52,3.37.13,5-.59,7.22-.19,14.49-.44,21.74.33,1.33-.37,2.54-.94,3.65-1.87,0-2.34-2-2.79-3.43-.4-6.51,0-13,0-19.54.2-10.25-.14-20.51.57-30.73-.11-3.15-.24-6.31-.48-9.44a12.2,12.2,0,0,1,0-3.91c.2-3.51.63-7.07.1-10.55-.48-20.05.51-40.12.08-60.16-.24-2.49-.11-5-.41-7.47-.26-4.77-.52-9.67.8-14.32"></path><path class="cls-3" d="M268.49,599.66c3.38-.41,6.72.51,9.86,1.64,6.83,2.78,13.19,7.35,16.94,13.79,1.12,2.74,2.62,5.34,3,8.34.37,1.09.25,2.45,1.16,3.28.18,3.57.18,7.14.05,10.73.46,1.71-.8,2.93-1.35,4.36-.49,1.26-1,2.52-1.55,3.75-1.19,1.63-1.83,3.61-3.33,5-1.93,2-3.56,4.33-5.37,6.48l-1.07.23c-2.67,2.19-6.06,3.28-9.07,4.94-2.38,1.18-5.05,1.17-7.61,1.59-6.64.67-13.14-1.49-18.94-4.52-2.92-1.79-5.93-3.68-8-6.43-1.85-2.84-3.73-5.67-5.39-8.62,0-2.42-1.6-4.36-2.18-6.63-.38-6.19-.56-12.77,2.41-18.41.25-.64.51-1.26.78-1.88l1.11-.6a6.63,6.63,0,0,1,1.13-3.32,70.8,70.8,0,0,1,6.37-6.36c2-2.24,4.87-3.31,7.37-4.86,2.34-.32,4.38-1.59,6.64-2.16,2.34-.22,4.7-.16,7-.37m-2.6,4.44c-4.34.63-8.94,1.11-12.83,3.31a19.1,19.1,0,0,0-2.78,2.07c-4.6,2.87-7.36,8-9,13-1.26,2.39-.86,5.12-1.17,7.72-.54,3.48.33,6.95,1,10.34,1.55,3.49,3,7.22,6,9.8a31.22,31.22,0,0,0,14,8.46,25.09,25.09,0,0,0,20-2.11c1.3-.84,3-.57,4.28-1.47.08-.51.15-1,.2-1.53,3.79-2.15,5.88-6.05,7.78-9.79,2.43-4,2.4-8.93,2.37-13.46-.07-2.54-1-4.93-1.35-7.43-.16-.15-.47-.47-.63-.63a11.77,11.77,0,0,0-2.55-5.35c-3.95-5.87-9.9-10.89-17.1-11.95-.15-.17-.44-.53-.59-.71-2.51-.2-5-.73-7.55-.27"></path><path class="cls-3" d="M721.35,608.88c4.42-2.5,9.74-2.55,14.65-2,2,.27,4.07,0,6,.7,4.72,1.48,9.66,3.45,12.87,7.39a14.79,14.79,0,0,1,5.25,5.29A24,24,0,0,1,765.5,635c.37,2.7,1.18,5.44.51,8.17a41.5,41.5,0,0,0-1.23,6.73l-.63.63a4.25,4.25,0,0,1-1.31,2.27c-.08.25-.22.76-.29,1l-.63.64c-.59,2.75-3.12,4.22-4.85,6.18a12.55,12.55,0,0,0-1.31,1.32c-1.81,1.87-4,3.38-5.7,5.29l-1.06.23-.57.75-3.44,0c-.22.36-.43.74-.63,1.12-.45.29-.87.59-1.29.91-3.86.59-7.73,1.46-11.64,1.28-3.46-.61-6.62-2.22-10.09-2.74-.16-.16-.46-.5-.61-.67-3.44-.22-5.7-3.14-8.51-4.72-2.39-1.41-3.54-4.08-5.3-6.11-3-3.62-4.08-8.23-5.28-12.66-2.09-12,2.54-25.69,13.13-32.35,1.92-1.67,4.43-2.22,6.58-3.47m8.17,2.1a18.85,18.85,0,0,1-4.47.76c-1.56,1.1-3.61,1.17-5.17,2.27-2.1.91-3.66,3-6,3.2-.05.27-.14.82-.19,1.09-1,.94-1.84,2-2.81,2.9-1.17,2.18-2.73,4.15-3.67,6.45a46.85,46.85,0,0,0-2.3,9.57c.19,2.61.57,5.2.75,7.82-.58.46-1.14,1-1.71,1.44,0,.31,0,.94-.07,1.25l3.12,0a16.59,16.59,0,0,1,1,2.92c1,1.59,1.42,3.64,3,4.81,4,6.18,10.81,10,17.88,11.59a30,30,0,0,0,23-6.4c2.55-2.92,5.27-5.79,6.9-9.36A31.82,31.82,0,0,0,761,630.7l-.74-.57c-.07-.53-.13-1.06-.19-1.57-1.38-2-2.36-4.3-3.81-6.27a27.41,27.41,0,0,0-11.36-8.86A23.48,23.48,0,0,0,729.52,611m.8,59.28,2.8.13,0-1.39c-1.17-.06-2.44-.11-2.76,1.26"></path><path class="cls-3" d="M488.53,738.32c2.34-.29,4.51-1.5,6.93-1.3,3.15.36,6.44,0,9.48,1a30.6,30.6,0,0,1,7.39,2.75c6.3,3.3,11.9,8.55,14.65,15.24,1.66,3.91,3.19,8,2.95,12.36.34,2.64-.9,5-1.23,7.58a16.6,16.6,0,0,1-3.51,8.41c-.51,1.33-.92,2.8-2.4,3.36,0,.54-.08,1.09-.11,1.64-2.66,1.65-5.44,3.31-7.25,5.93-.44.27-.87.55-1.3.84a12,12,0,0,0-1.36.86,43.14,43.14,0,0,1-6.74,2l-.59.7c-5.58,0-11.47,1.08-16.8-1.13a11.79,11.79,0,0,1-4.38-1.8,52.31,52.31,0,0,1-6.35-3.81c-1.65-1.44-3-3.15-4.61-4.61-1.25-2.47-2.91-4.69-4.38-7-1.49-3.06-1.8-6.55-2.38-9.87a26.69,26.69,0,0,1,6.2-21.34c2.19-3.31,5.31-5.85,8.33-8.37l1-.29c1.06-1.37,3.32-.9,4.37-2.28.49-.08,1-.15,1.49-.21l.62-.68m-1.83,3c-.38.49-.76,1-1.11,1.52-1.47.78-2.83,1.91-4.56,2a23.84,23.84,0,0,0-2.17,1.73,4.92,4.92,0,0,0-1.26,1.86c-.4.62-.78,1.25-1.15,1.9l-1.3,0c-1.14,1.88-1.81,4-2.86,5.9-.79,1.81-.19,4.49-1.92,5.69-.17,4.59-.61,9.34.65,13.84.81,2.14,1.09,4.68,2.88,6.31.21,1.1.47,2.2.63,3.32.67.21,1.34.43,2,.62,1.86,2.22,3.5,5.06,6.46,5.86,2.57,2.27,6.1,3,9.1,4.5,4,2.2,8.72.65,12.86-.23,6.3-.92,11.58-5.11,15.68-9.74.55-.14,1.21-.16,1.47-.77a31.06,31.06,0,0,0,2-5.52A24.58,24.58,0,0,0,525.33,762c-.52-1.52-1.14-3-1.63-4.52l-.56-.69a17.07,17.07,0,0,0-5.63-8c-2.33-1.95-4.53-4.34-7.48-5.31l-.63-.63-1.54-.25a13.1,13.1,0,0,0-2.54-1.45c-6-2.42-12.53-.88-18.62.17"></path></g></g></g></svg>