<svg fill="currentColor" xmlns="http://www.w3.org/2000/svg" viewBox="0 0 1000 1000"><g class="cls-1"><g id="Shapes"><g id="Shape_57" data-name="Shape 57" class="cls-2"><path class="cls-3" d="M519.43,201.45c6.26-.36,12.44,1.1,18.69,1.19a11,11,0,0,0,2.69.78c3.54.13,7,1,10.48,1.45,2.16.35,4.25,1.14,6.44,1.31,1.91,0,3.59,1.1,5.5,1.22,3.09.54,6.16,1.17,9.26,1.73,5.62,1.9,11.38,3.41,17.16,4.8,3.94,1.34,7.65,3.31,11.59,4.69l.44.87c.8,0,1.61-.09,2.41-.05a41.52,41.52,0,0,1,6.93,3.84c3.79,1.4,7.76,2.46,11.23,4.61,4.76.53,8.21,4.24,12.55,5.84a43,43,0,0,1,15.47,8.4l.92.44a7.08,7.08,0,0,0,3.1,1.66,47.87,47.87,0,0,1,8.5,4.54c2.1,1.21,3.19,3.59,5.34,4.76,1.59,1,3.52,1.49,4.74,3,1,1.22,2.55,1.67,3.62,2.78,1.43,1.49,3,2.8,4.4,4.36,5.22,1.61,8.6,6.17,12.59,9.59,3,2.33,5.24,5.58,8.59,7.49a17.16,17.16,0,0,1,4.42,4.37c2.18,2.78,5.41,4.82,6.65,8.27A13.66,13.66,0,0,0,718,297.8c1.41.8,1.83,2.55,3,3.66,2.89,3,6.36,5.48,8.16,9.33,2.06,2.75,3.69,5.8,6,8.38,1.89,1.92,2.61,4.65,4.35,6.7,2.82,3.54,5.09,7.47,7.74,11.14,2,2,4.26,3.94,5.58,6.48,2.55,7,6.39,13.46,9.65,20.16,2.75,3.1,4,7.2,5.7,10.9.66,1.29,1,2.72,1.55,4,1.66,3.3,2.52,6.93,4.06,10.3.79,1.71,1.14,3.58,1.78,5.35.87,1.59,2.05,3,2.35,4.89.78,3.65,2,7.16,3,10.73.36,3.4,2.72,6.13,3.23,9.48.34,2.19,2.05,3.91,2.16,6.17.07,3.34,0,6.78,1.2,10,1,2.57,1.06,5.35,1.2,8.08l.68.58c.35,2.68.35,5.39.72,8.07.94,5.4,1.29,10.93,2.7,16.24.56,1.37-.26,2.81,0,4.22.39,3.67,1.2,7.27,1.79,10.91.39,7.52-.48,15-1.29,22.48-.17,2.17.54,4.24,1,6.32-.59,4.12-2.5,8.37-1.12,12.55,1,2.61-.55,5.24-.57,7.91,1,.92,1.06,2.26,1.17,3.59-1.7,2.5-.46,6.14-2.86,8.23-.2.58-.39,1.16-.59,1.75a22.16,22.16,0,0,1-1.66,8.65l-.76.45a39.73,39.73,0,0,1-1.74,8.5,13.49,13.49,0,0,1-1.62,7.19,118.91,118.91,0,0,1-4,13.44c-1.4,5.68-4.92,10.68-5.28,16.62-1.55,1.49-2.18,3.63-3.18,5.47-1.07,2.28-1.11,4.9-2.2,7.18-1.57,3.46-2.6,7.13-3.94,10.69a7.91,7.91,0,0,1-1.44,1.83,2.17,2.17,0,0,0-2.25.3,2.07,2.07,0,0,0,.69,1.57,3.48,3.48,0,0,1-.92,2.73c-1.8,6.5-6.5,11.72-8.58,18.11-1.23,2.62-3.75,4.29-5.14,6.77-.25,3.34-3,5.49-4.25,8.41-2.14,4-6.51,6.6-7.56,11.27-.26,3.81-4.34,5-6.33,7.7-2.5,2.16-3.2,5.72-5.94,7.66-1.67,1.26-1.47,3.78-3.09,5.12-1.5.69-3.05,1.22-4.59,1.79-.45.51-.94,1-1.37,1.52-.29,1.13,0,2.42-.74,3.41a10.85,10.85,0,0,1-3.88,3.65,34.72,34.72,0,0,0-2.7,3.23c-.53,0-1.06-.1-1.58-.13-1.74,2.67-3.54,5.87-7,6.31a23.8,23.8,0,0,1-3.78,5.19c-1.25,1.3-2.16,2.89-3.5,4.11-1.5,1.3-2.26,3.38-4.09,4.31-1.19.45-2.48.58-3.66,1.08a29.26,29.26,0,0,0-4,3.91c-2.9,1.71-5.13,4.28-8.06,5.94-3.27,2.66-6.93,4.86-9.88,7.91-2,.72-3.9,1.91-6,2.36a16.38,16.38,0,0,0-3.79,1.38,34.53,34.53,0,0,1-2.74,3.66c-1.38.88-3.28.71-4.42,2-1.29,1-2.36,2.54-4,3-2.8.81-5.12,2.67-7.31,4.53l-1.11,0c-.38.29-.76.58-1.13.89-2.7.31-4.51,2.58-6.64,4-4.13,1.26-7.84,3.48-12,4.83-3.3.92-6,3.18-8.59,5.28-1.68.36-3.53.28-5,1.35s-3.17,2.8-5.4,2.2c-1.19,0-2.16.8-3.28,1.05a40.9,40.9,0,0,0-4.7.67,17.79,17.79,0,0,0-3,0c-1.4.56-2.44,1.82-3.92,2.18-2,.27-4.29.09-6,1.44-3.85,2.72-8.68,3-13,4.44-2.12.68-4.39.58-6.53,1.22-2.49.66-5.14.08-7.6.85-1.79.55-3.82.6-5.26,1.92-2.63.51-5.18-.68-7.82-.44a18.84,18.84,0,0,1-2.37-.51c-2.45.68-4.74,3-7.43,2.18-1.52.13-2.76-1.09-4.31-.88-1.27.08-2.59.1-3.84.29-1,.42-2,1-3,1.49-3.53.4-7-.67-10.5-.9-2.86.34-5.88-.51-8.43,1.2-3.12-1.14-6.33.06-9.51-.22-2.75-.6-5.5.54-8.23-.1a68.44,68.44,0,0,0-9.54-1.44l-.58.76c-1.06-.13-2.1-.29-3.14-.46-.32-.36-.64-.77-1.17-.64-3.95.08-7.42-3.27-11.41-2.21-1.68.72-2.63-.71-3.88-1.35-1.3-.21-2.86.33-3.79-.82a12.43,12.43,0,0,0-2.56-1.08c-1.44.32-2.88.69-4.33.93-.72-.93-1.11-2.54-2.5-2.58-4.53-.87-9.06-1.78-13.64-2.32-2-1.57-4.64-1.65-7-2.32-1.78-.35-3.2-1.62-4.95-2.06-2.42-.43-5.06-.4-7.15-1.85-1.53-1.13-3.56-.07-5.18-.79-1.28-.84-2.41-2.08-4.1-2-2.11-.48-3-3.37-5.43-3a21.85,21.85,0,0,1-2.43-.52c-1.09-1.77-3.24-2.25-5.08-2.81-1.92-1-3.75-2.07-5.67-3-1.47-.74-2.26-2.31-3.75-3a38.65,38.65,0,0,1-6.14-3.7,23,23,0,0,1-10.75-3.59c-1.36-.88-1.5-3.06-3.16-3.5-2.18-.59-4.54-1-6.27-2.55C336.25,750,330,747.26,325,742.7a39.46,39.46,0,0,1-6-5.77c-2.33-1-4.79-1.91-6.41-4-1.26-1.41-2.8-2.53-4.12-3.88-1.86-2.2-4.64-3.5-5.87-6.21a5.52,5.52,0,0,1-2.34-1.18c-1.94-1.74-4.08-3.24-6-5-2.36-3-4.14-6.56-7.29-8.89-2.22-2.74-4.69-5.32-6.46-8.39-3.78-3-7.22-6.31-10.82-9.46-2.61-4.14-3.84-9.54-8.21-12.3-.53-1.23-.94-2.47-1.52-3.66-.91-1.47-2.82-2-3.65-3.5a69.55,69.55,0,0,0-5.06-7.63c-1-1.38-1.52-3-2.41-4.49a6.9,6.9,0,0,0-3.41-1.83c-1.15-1.29-.85-3.17-1.08-4.74-.06-2.4-1-4.67-1.06-7.08-.2-2.79-2-5.13-3.44-7.39-.63-1.26-1.18-2.54-1.9-3.74l-3.93-.61a19.93,19.93,0,0,1-3.43-3.73c0-.49,0-1,0-1.44a3.58,3.58,0,0,1-1.68-3.13,13.46,13.46,0,0,0,3.36-3.11,8.39,8.39,0,0,0-.39-1.23c-1.18-.1-2.36,0-3.55-.09-.1-.81-.24-1.61-.38-2.41-2.56-3.06-1.21-7.16-2.09-10.72-2.15-2.57-5.56-5.21-4.76-9-1-3-2.74-5.84-3.27-9,0-2.77-1.81-5-3-7.31a16.38,16.38,0,0,0,0-2.62c-.14-1.44.4-3-.29-4.37-1-2-3.71-2.22-4.3-4.47-.91-3.16-2.94-5.85-3.95-9,.4-3.5.72-7,1.43-10.46-.15-.16-.46-.47-.62-.62.23-5.08.92-10.13,1.16-15.21-.09-1.89-.75-3.75-.41-5.66a8.49,8.49,0,0,0-.92-5.68c-1.06-2-.15-4.41-.74-6.57a27.61,27.61,0,0,1-.36-5.74c-.12-1.62-.75-3.21-.34-4.85.16-1.52.86-3,.31-4.53a13.75,13.75,0,0,1,.36-6.83c.4-1-.26-1.86-.71-2.67.88-3.64,1.73-7.45,1-11.2.06-1.41.47-2.83.14-4.26-.22-4.29,2-8.17,2.16-12.4,1.2-2.29.81-4.95,1.37-7.4a15.9,15.9,0,0,1,.22-6.26,41.82,41.82,0,0,1,1.52-10.74c.64-2.17.68-4.47,1.63-6.54,1.46-3.25,1.33-6.94,2.74-10.21,1.22-3.21.92-6.76,1.85-10,.39-1.91,1.84-3.35,2.2-5.26a145.83,145.83,0,0,1,5.82-16.4c.77-1.29.61-2.88,1.11-4.26.76-2.25,2.3-4.11,3.35-6.21A44.37,44.37,0,0,1,236.12,368c2.29-3.06,3.78-6.59,5.68-9.88a45.64,45.64,0,0,0,2.69-6.56c.85-2.17,2.68-3.75,3.61-5.87.64-1.53,2-2.54,3-3.86,1.07-2.35,1.94-4.84,3.57-6.88,1.36-1.66,1.66-3.94,3.15-5.51a14.48,14.48,0,0,1,2.46-1.65,29.54,29.54,0,0,1,3.19-5.91c.93-1.46,2.54-2.39,3.21-4,1.41-2.71,2.62-5.85,5.4-7.41,1.69-.74,2.25-2.59,3.23-4,2-4,5.69-6.83,8.25-10.47,1.57-2.08,3.73-3.63,5.14-5.84.75-1.14,2.28-1.23,3.39-1.89,2.47-2.09,3.8-5.16,6.26-7.26,2-1.48,3.6-3.35,5.47-4.95,1.69-1.39,2.58-3.62,4.64-4.58,2.29-1.53,4.79-2.83,6.59-5,1.18-1.12,1.87-2.64,3-3.85,2.47-1.31,5.51-1.7,7.39-4,4.06-4,9.23-6.73,14-9.83,2.37-2.61,5.68-3.93,8.65-5.69,2.71-2,5.6-3.66,8.37-5.54,3.23-1.38,6.1-3.48,9.4-4.72,2.88-1,5.34-3,8.34-3.74,1.88-.45,3-2.37,5-2.7s3.73-1.52,5.42-2.62c2.37,0,4-1.92,6.11-2.77s4.18-1.41,6.32-2c2.33-.57,4.4-1.89,6.74-2.42,2.91-.59,5.14-2.63,7.68-4,5.18.56,9.92-1.87,15-2.52,3.18-.73,6.09-2.24,9.26-3,1.9-.92,4-.92,6.06-1.34,2.9-.88,6-.57,8.9-1.51,4.71-.61,9.4-1.63,14.17-1.61,2.78-.11,5.3-1.61,8.09-1.62,4-.18,8-.11,12.05-.47a49.9,49.9,0,0,1,14.18-.13c3.19.49,6.41-.23,9.61.29,3.59.31,7.37-.58,10.82.72m2.44,15.07c.65,0,.8-1,.51-1.45-.78-.42-1.37,1.24-.51,1.45m-16.61,6c0,.35-.07,1.05-.08,1.4,1.09-.2,1.43-1.06,1.43-2.09l-1.35.69m70.37,11a14.69,14.69,0,0,0,.34,1.73,1,1,0,0,0,1.32-1,3.72,3.72,0,0,0-1.66-.74M475.55,223c-1.65.76-1.38,2.9-1,4.4,1.22.49,1.35-1.28,1.64-2.07.73-.55.53-2.67-.67-2.33M593.6,241.92c.52.27,1,.51,1.6.73a3.72,3.72,0,0,0-.33-1.78,1,1,0,0,0-1.27,1m23.56,5.57c.36-.39.43-1.31-.17-1.5-.82,0-.49,1.57.17,1.5m-30.48-3.42a9.91,9.91,0,0,0-1.06,1.27,3.82,3.82,0,0,0,.67,2.1A1.51,1.51,0,0,0,588,245.7a17.39,17.39,0,0,0-1.32-1.63m-33.24-2.42c-.58.36-.19,1.55.52,1.13s.18-1.54-.52-1.13m-41.22-3.6a3.77,3.77,0,0,0-.29,3,4.63,4.63,0,0,0,2.09-2.75l-1.8-.27m114.92,15c-.19.5-.38,1-.58,1.5l.68,1.27c1.49.17,2.67,1.12,4,1.75a.82.82,0,0,0,1.24-.64,4.27,4.27,0,0,0-1-3c-.9,0-1.66.64-2.48.93-.25-.59-.49-1.18-.72-1.76l-1.14-.07M496.42,241.34a4.16,4.16,0,0,0,1.69-.41,3.78,3.78,0,0,0-.65-2.48c-1.75-.37-1.27,1.87-1,2.89m64.37,4.39c0,.75-.08,1.5-.09,2.26a3.82,3.82,0,0,0,1.07-2l-1-.22m-71.45,1.38,1.33.16c.23-.9,1.09-2.06.23-2.85-1.44-.71-1.52,2.15-1.56,2.69m62.33,10.23c-.2.54,0,.77.56.71.24-.58,0-.82-.56-.71M521,261a1.1,1.1,0,0,0-.15,1.31c.92.47,1.15-1.56.15-1.31m-114.4-11.22c-.54.28-.25,1.46.4,1,.61-.26.26-1.4-.4-1m101.52,14.34c-.55.66.24,1.33.49,1.93.83.19,1.65.45,2.47.71a8.17,8.17,0,0,0-.91-4.24c-1-.26-1.45,1-2.05,1.6m-10.91-.52c-.6,0-.92,1.05-.21,1.17s.87-1.09.21-1.17m-2.51,3.47c-.3.65-.09.91.61.77.29-.65.09-.91-.61-.77m124.42,15.95c.56.24.8.05.7-.56-.54-.2-.78,0-.7.56m41.75,15c.12.36.25.72.38,1.08a4,4,0,0,1,3,3.36l1.56.26c.22-2.21.3-4.43.32-6.65a14.92,14.92,0,0,0-1.15-1c-1.72.33-2.82,1.83-4.06,2.93M457.35,274.52c-.06.27-.17.81-.22,1.08-.83,0-1.66.12-2.48.24a6.8,6.8,0,0,0-.67,2.31c.34.71,1.17.71,1.85.68,1-.86,1.79-1.94,2.8-2.78l.07-2.34q-.69.39-1.35.81m166.32,19.23c-.29.27-.56.54-.84.82-.33,1.19-1.3,2.25-1.08,3.54l1.27-.43a7.8,7.8,0,0,1,2-2.26c-.11-.35-.2-.7-.3-1.05l-1-.62M701,304.64l1.82.35c.42-.59,1.4-1.36.52-2-1.08-.26-1.7,1-2.34,1.67M411.7,274.48a14.78,14.78,0,0,0,1,1.23c.37-.78,1.06-1.88.22-2.59-.84-.38-1.48.59-1.24,1.36m122.84,13.86c.93,1,2.68,1.67,3.82.63-.51-.32-1-.63-1.54-.93-.63-.83-2.33-1.15-2.28.3m-24.38-3.56c.06.68.16,1.37.27,2.05.77-.08,1.66-.22,2.1.6l1.53.3c-.09-.69-.19-1.38-.26-2.07-1.24-.29-2.42-.61-3.64-.88m5.4,1.09c-.07.51-.14,1-.19,1.55a10.21,10.21,0,0,0,1.53,1.48,2.75,2.75,0,0,0,2.81-2.5l-1.21-.59a24,24,0,0,1-2.94.06m38.26,6.82a13.21,13.21,0,0,0,2.43-.13,20.27,20.27,0,0,1-1.63-1.83c-.64.42-1.8,1.25-.8,2m-58.1-8.24c-.62.27-1.71.39-1.53,1.3a4,4,0,0,0,3.45,1.36,3.45,3.45,0,0,0,.85-1.57c-.85-.48-1.7-1.36-2.77-1.09M560,293.58c-.3,1.6,1.08,3,2.48,3.57l1.86-.77c0-1.42-.87-2.66-1.33-3.95a6.2,6.2,0,0,0-3,1.15m124.1,14.25c-.07.57-.14,1.14-.19,1.71,1.72,1,2.73-.4,2.8-1.76l-2.61.05M404.7,277.16c-.4.81-.79,1.61-1.21,2.41a14.08,14.08,0,0,0,3.56,1.71c.75-1.65,0-4.88-2.35-4.12M419,279.54a1.57,1.57,0,0,0,0,2.32c.36-.79,1-1.75,0-2.32m154.62,18c0,1.71,1.47,2.91,2.14,4.4l2.15-.32c-.75-1.14-1.64-2.18-2.37-3.31-.64-.27-1.28-.54-1.92-.77m-66.38-5.65c-3.89-.13-7.69,1.31-11.56.11a5.84,5.84,0,0,1-5.07.72c-2.75-.42-5.45,1.26-8.2.42-2.31-1.16-4.4.18-6.5,1-1.36-.17-2.63-.58-4-.83l-1.11,1.1c-1.6.31-3.17-.42-4.73-.29a12,12,0,0,1-7.78,1.56c-1.84,1.15-4,1.53-6,2.29-3,.45-5.8,1.78-8.79,2.26l-.66.51c-2.3.35-4.67.73-6.61,2.1a51.61,51.61,0,0,0-12.65,3.52c-2.28,1.27-4.67,2.31-7,3.47l-1,.13a25.35,25.35,0,0,1-7,3.48c-2.62.86-4.85,2.69-7.57,3.26a114.55,114.55,0,0,1-14.68,8.94c-1.23.86-1.87,2.34-3.14,3.15a45.06,45.06,0,0,0-4.88,3.32,32.7,32.7,0,0,0-3.46,2.76c-2,1.64-4.71,2.21-6.49,4.12a19.48,19.48,0,0,1-3.38,2.39,28.48,28.48,0,0,1-1.93,3.72,32.55,32.55,0,0,0-7.22,6.54,60.23,60.23,0,0,0-6.38,4.74c-2.06,2.61-3,6.24-6.28,7.68a18.49,18.49,0,0,1-3,4.31c-1.38,2.36-3.56,4.12-5.2,6.3-2.24,2-3.09,5-5.19,7.16-1.43,1.59-1.66,3.84-2.67,5.67-2.2,3.57-5.08,6.67-7.27,10.25-1,1.68-2,3.38-3.21,5-1.32,1.42-1.13,3.48-2,5.14-1.64,3.16-2.52,6.65-4.3,9.74a16.82,16.82,0,0,0-2.13,5.38,33.09,33.09,0,0,1-4.12,9c-1.55,2.42-1.47,5.46-2.5,8.1.05,2-.88,3.85-1.14,5.8-.75,6.2-4,12-4,18.25-.3,1.11-.81,2.17-1,3.3,0,1.13.34,2.25.3,3.38-.34,1.46-.84,2.85-1.13,4.32-.51,7.43-1.68,14.87-1.14,22.35a77.25,77.25,0,0,0,.5,9.73c-.13,4.87.55,9.72.57,14.6.08,2.56-.19,5.23.77,7.66,1.05,2.68,1.06,5.59,1.77,8.35.67,3.95.92,8.29,3.29,11.68,1.09,1.45.84,3.35,1.29,5a29.17,29.17,0,0,0,1.61,5.83c.6,1.89.19,4,1.33,5.75,1.26,2.1,1.45,4.59,2.22,6.88,1,2.56,2.53,5,3.09,7.69a47.71,47.71,0,0,0,2.32,6.05c.66,1.55,2.06,2.64,2.79,4.17a76.6,76.6,0,0,1,3,7.39c.49.23,1,.48,1.46.72a15.43,15.43,0,0,0,1.24,3.92c2,3.62,3.76,7.46,6.16,10.88.65.6,1.35,1.15,2,1.79.2,2,1.75,3.65,3,5.14,1.93,1.86,3,4.37,4.64,6.48,2,2.33,4.29,4.34,6.12,6.79,1.18,2.3,2.12,4.8,4.38,6.31,0,.3,0,.88-.07,1.18a43.06,43.06,0,0,1,8.2,8.15c1.1,1.64,3,2.46,4.55,3.53l0,1.83a60.32,60.32,0,0,1,8.5,6.86l1,.38c1,1.53,2.89,2,4.43,2.88,2.23,1.21,3.45,3.58,5.5,5,2.84,2.2,6.18,3.69,8.88,6.08,1.69.77,2.73,2.54,4.73,2.69a31.5,31.5,0,0,0,6.78,3.66,21,21,0,0,0,8.69,4c2.44,1.18,4.61,2.87,7,4.23a72.1,72.1,0,0,1,10.31,4.64c3.72,2.64,8.39,3.4,12.8,4.13,1.79.4,3.43,1.9,5.36,1.49,3.88,1.29,8.05,1.62,11.81,3.24a11,11,0,0,1,2.55-.43c1,.24,1.84.86,2.84,1.07,4.07-.16,7.92,1.41,12,1.69a33.2,33.2,0,0,0,4.57.44c5.33.84,10.76,2,16.17,1.29,2.48-.65,4.79.82,7.27.71,1-.29,1.87-1,2.92-1.09a49.36,49.36,0,0,0,10.31.19l.64-.64a24.27,24.27,0,0,1,5.32,0,15.56,15.56,0,0,0,7.92-1.33,13.13,13.13,0,0,1,4.73-.74,48.68,48.68,0,0,1,8.17-1,37,37,0,0,1,13.11-3.85c3.16-.83,5.9-2.74,9-3.76a50.78,50.78,0,0,0,10.63-2.23c1.48-.48,3.1-.63,4.33-1.69a46.34,46.34,0,0,1,8.24-4.28c2.18-.64,4.4-1.16,6.63-1.62a26.55,26.55,0,0,1,9.5-6.5,28.59,28.59,0,0,1,8.23-5.26c1.65-.7,2.84-2.12,4.46-2.88,1.25-.79,3.13-1,3.54-2.69,2.92-2.62,6-5,9-7.54,1.46-1.4,3.83-1.44,5.06-3.11a50.45,50.45,0,0,1,8.26-8.07c1.08-1.71,2.85-2.73,4.49-3.82,1.7-1.55,2.84-3.62,4.56-5.15,1.31-1.49,3.25-2.46,4.08-4.33,1.46-3.36,4.17-5.95,5.92-9.14,1.64-3,5.28-4.67,5.88-8.26,1.88-1.81,3.17-4.11,5-6,2.52-2.49,2.73-6.27,5-8.93,1.85-2.27,4-4.43,4.66-7.4.49-2.41,2.73-3.9,3.3-6.26a14.28,14.28,0,0,1,3.06-6.06,60.42,60.42,0,0,0,4.41-12c.19-1.83,1.79-2.87,2.53-4.39.33-1.84,0-3.73.52-5.54.31-1.21-.06-2.5.43-3.66a49.06,49.06,0,0,0,2.21-7.17c.22-1.45-.12-2.93.36-4.32,1.17-3,1.53-6.17,2.49-9.18,1.86-3.08,2.4-6.75,4.22-9.83,1.25-1.51.52-3.61,1.07-5.35.07-1.55.19-3.09.38-4.61l1.3-.79c.06-.57.13-1.13.2-1.68-.47.11-.92.23-1.36.37.15-3.51-.65-7.17.69-10.54-1.3-2.93-.21-6.07-.06-9.11.51-2-.51-3.82-.78-5.75-.58-2,.15-4,.36-6-.23-2.32-1.24-4.59-.5-6.92-.24-1.58-1.62-2.95-1.38-4.67.25-5.12-1.57-10.28-.49-15.37a15.09,15.09,0,0,1-2.55-4,49,49,0,0,1-1.61-8.1,19.6,19.6,0,0,0-1.33-6.1c-2-2.84-2.85-6.35-3.4-9.73a98,98,0,0,1-4.93-10c-1-2.07-.64-4.53-1.73-6.55-1.55-2.7-2.8-5.55-4.21-8.31a98.4,98.4,0,0,1-5.18-9.79c-.82-1.69-1.45-3.6-2.93-4.83-1-2.84-3.22-5-4.33-7.83s-3.95-4.23-4.77-7.1c-1.74-.55-3.66-1.67-4-3.62s-2.22-3.25-3.37-4.83c-1.46-1.4-1-3.78-2.64-5.07-2.15-3-5-5.25-7.56-7.88a16.25,16.25,0,0,1-3.88-2.95c-1.82-2.41-4.7-3.71-6.47-6.15a33.11,33.11,0,0,0-6.38-6.19,15.23,15.23,0,0,1-3.81-2.63c-2-2.18-4.79-3.25-7.2-4.85-1.24-1.5-3-2.39-4.53-3.49a10.2,10.2,0,0,1-2.12-1,12.61,12.61,0,0,1-1.23-2.43q-2-1.11-4.05-2c-2.55-1.47-4.95-3.19-7.59-4.48a47.67,47.67,0,0,1-7.61-4.86c-1.51-1.1-3.44-1.3-5.12-2-1.11-.31-1.55-1.57-2.32-2.29a75.49,75.49,0,0,1-10-3.72,5.48,5.48,0,0,0-1.52-.43l-1.9-.61c-1.56-1.92-4.27-1.46-6.4-2.07a48.22,48.22,0,0,0-14.89-4.73,41.34,41.34,0,0,0-10-3.27c-2.55,0-5-.81-7.58-.78-1.1,0-2-.7-3-.92-1.36,0-2.72.53-4,.13-1.17-.43-2.47,0-3.6-.53-3.34-1.68-7.3-.3-10.77-1.64-1.79-.61-3.53.4-5.32.44M471.77,287a2.08,2.08,0,0,0-.64,2.48c.71-.17,1.42-.39,2.12-.62.07-.56.13-1.11.2-1.67l-1.68-.19m165.36,19.91c.17.49.34,1,.52,1.48a8.11,8.11,0,0,0,.89-1.64c-.48,0-.95.1-1.41.16M462.55,288.56c-1.73,1-.14,3.11.65,4.22a17.11,17.11,0,0,1,4.17,0,28.3,28.3,0,0,0,.82-3.23c-1.49-1.41-3.79-1.11-5.64-1m119.73,14.58c0,.34-.07,1-.09,1.37a13.27,13.27,0,0,0,2,.17c-.23-.46-.47-.9-.7-1.34l-1.21-.2M457,290.69c.87.15,1.75.28,2.63.4,0-.32.07-1,.09-1.32-1.08-.16-2.27-.33-2.72.92m-7.17-1.11c-.1.26-.27.76-.36,1a11.25,11.25,0,0,0-1.64.54c1.05.74,1.81,2,3.14,2.29,1.1.09,2.42.72,3.36-.13a7.22,7.22,0,0,0-.53-2.83,6.77,6.77,0,0,1-2.49-1l-1.48.15m254.6,29.76a17.62,17.62,0,0,0-.69,2.46l1.4.16a21.75,21.75,0,0,0-.11-2.55Zm-4.4,3.42c-.59.35-.19,1.54.52,1.12s.18-1.54-.52-1.12m21.38,3.63c-.63.46-.63,1.29-.81,2l1.21.09c.36-.53.75-1,1.15-1.53a8.91,8.91,0,0,0-1.55-.54m-18.67-1.21c-.62.46-1.59.82-1.6,1.73.78,1.26,3.39,1,3-.72-.39-.33-.78-1.38-1.36-1m-271-28.52c.09.54.17,1.09.24,1.63l1.55.23c.36-1.17,1.34-2.37.78-3.62-1.15-.19-1.79,1.11-2.57,1.76M697.1,325.27c-.29.78-.55,1.57-.76,2.37l1.32.19c.28-.78.54-1.57.76-2.37l-1.32-.19m7.7,2.63a6.86,6.86,0,0,0,.55,2.11l1.21,0a11.6,11.6,0,0,1,.13-1.57c-.52-.54-1.2-1.41-1.89-.58M426,295.9a13.59,13.59,0,0,0-1.33,4.4c.41,1.23,1.91,0,2.82,0a19.09,19.09,0,0,0,.88-3.21A15,15,0,0,0,426,295.9m294.33,43.4a1.33,1.33,0,0,0-.62,1.45,18.84,18.84,0,0,0,2.19,2.09c.08-.74.25-2.22.34-3a10,10,0,0,0-1.91-.58m-55.06-2.64c.82.22,1.2-.65,1.74-1.09a19.45,19.45,0,0,0-.66-2.13c-1.64-.35-1.94,2.21-1.08,3.22m58.7,7.53c-.52,1-1.18,2.22-.15,3.14.51-1,1.17-2.23.15-3.14m-9.73,3.27a11.43,11.43,0,0,0,.51,3.71,4.62,4.62,0,0,0,1.76-.64c0-1.43-.49-2.8-.55-4.21-.58.37-1.15.76-1.72,1.14m-2.65,1.21c.35.51.71,1,1.1,1.51a12.44,12.44,0,0,0-.17-2.66c-.32.38-.63.76-.93,1.15m-6-1.39c-.61,0-.93,1.05-.22,1.17s.87-1.09.22-1.17m1.35,1.35a28.75,28.75,0,0,0,.28,3.06c1.73-.35,2.28-2.18,1.92-3.72a6.23,6.23,0,0,0-2.2.66M394.71,312a4.37,4.37,0,0,0-.58,1.63.9.9,0,0,0,1.58.2c.25-.81-.59-1.27-1-1.83m328.1,41a12.45,12.45,0,0,0-.88,1.54c.43.94.92,2.19,2.05,2.41a3.8,3.8,0,0,0,.8-1.95l-2-2M384.16,322.53l1.21.08a9,9,0,0,1,1.94-1.85c0-.31.11-.94.15-1.25-1.54.46-3,1.28-3.3,3M351,319.63a9.62,9.62,0,0,0,1.37-.38c.05-.57.09-1.13.11-1.7a5.48,5.48,0,0,0-1.48,2.08m-46.23-1.56c-.29.65-.08.91.62.78.29-.65.08-.91-.62-.78m400.78,50c0,.87,0,2,1,2.4.1-.56.18-1.12.24-1.69a13.33,13.33,0,0,0-1.19-.71M371,330a13.61,13.61,0,0,0-1.79,2.53q.84.12,1.71.21c.31-.52.67-1,1-1.53-.12-.55,0-1.54-.89-1.21m-19.81,3.56c-.09.53-.17,1.07-.22,1.61a2.49,2.49,0,0,0,1.69-.4c.09-.54.17-1.08.22-1.61a2.39,2.39,0,0,0-1.69.4M747.64,381.9c-.2.51-.4,1-.62,1.52.13.61.25,1.22.37,1.84a16.69,16.69,0,0,0,1.47-3.25l-1.22-.11M738,384l1.85.22a3.53,3.53,0,0,0-.36-2.11c-1.16-.45-1.29,1.13-1.49,1.89M355.82,340.71c-.14.66-.43,2-.57,2.65-.5,1.49-2,2.52-2,4.22,1.37-.68,1.91-2.14,2.6-3.4,1.11-.76,2.31-1.3,3.6-.59.27-.92.59-1.82.89-2.73-1.43,1-3.06,0-4.56-.15m373.27,47.17c-1.42.23-.77,2.51-1.5,3.29l2,2.11c-.78,1.65-1.69,3.28-1.54,5.21,2,1.14,3.12-.92,3.24-2.48-.56-.63-1.38-1.29-1-2.24,1-.85,2.38-.75,3.38-1.52l2.16-2.06c1-.18,1.11,1.07,1.52,1.69.76.75,1.64.43,2.44-.08a7.4,7.4,0,0,0-.61-3.08c-.9.27-1.74.68-2.61,1-1.19-.88-1.86-2.34-3-3.24-1.46.53-2.82,1.47-4.45,1.39m17.44,0a36.41,36.41,0,0,0-2.62,3.42c1.11.78,2.16,1.74,3.57,1.91.35-.54.73-1.07,1-1.65-.58-1.27-1.34-2.46-2-3.68m-22.86-1.42a5.85,5.85,0,0,0-1.47,4.14c.58.48,1.34,1.52,2.06.58,0-1.54.4-3.37-.59-4.72m-434.41-43a22.62,22.62,0,0,0-1.18,2l1.2.62a8.34,8.34,0,0,0,1.08-2,1.57,1.57,0,0,0-1.1-.62m430.19,50.06c-.09.64-.17,1.29-.22,2a7.21,7.21,0,0,0,1.68-.45c.43-1-.85-1.16-1.46-1.5m-452.72-51.9a11.77,11.77,0,0,0,.29,1.95,3.1,3.1,0,0,0,1-1.25,14.11,14.11,0,0,0-1.25-.7m450.1,52.53c-.07.77-.2,2.32-.27,3.09.55-.25,1.1-.53,1.65-.8,0-.54.1-1.07.16-1.59l-1.54-.7m-1.14,10.92-1.09.71c0,1.06.11,2.11.17,3.16.37.5.74,1,1.1,1.53a5,5,0,0,0,3.35-.91l.2-2.78c-.27-.43-.52-.87-.75-1.3l-.63-.55-2.35.14m-5.6,7.94a8.27,8.27,0,0,0-1.91,4.18c1.22.55,2.53.33,3.85.39a16.51,16.51,0,0,0,1.14-2.31c-1-.76-1.86-1.81-3.08-2.26m6.68,10.19c1.22.79,2.62.31,3.89-.08l-.74-.94c0-.75.14-2.22.18-3-1.82.6-2.29,2.58-3.33,4m-448.88-43a37.82,37.82,0,0,0,.05,6l1.2.16c.13-1.16.2-2.39.26-3.54a6.42,6.42,0,0,0-1.51-2.64m441.4,53.27a5.21,5.21,0,0,0,1.59.82c0-.67-.11-2-.14-2.7-1.07-.29-1.25,1.14-1.45,1.88m15,1.57c-.07.15-.19.47-.26.63.34,1.07,1.22-.75.26-.63M283.14,385.67c-.33.17-.81.92-.21,1.08.8.24,1.14-1.21.21-1.08m-16,1.65c-.36.67-1.11,1.21-1.19,2,.32.94,1.38.25,2.07.26a2.84,2.84,0,0,0-.88-2.25m6.9,1c-.51,0-.93.93-.28,1,.5,0,.93-.94.28-1m-5.11,4.6c-.13.61-.26,1.23-.38,1.85l1.43,0a2,2,0,0,0-1.05-1.88m454,54.26a6.81,6.81,0,0,0-1.26,2.81c1,.25,1.92.58,2.88.87.07-.59.19-1.77.25-2.36a6.82,6.82,0,0,0-1.87-1.32M267,397.07c-.34.48-.87.87-1,1.48a39.31,39.31,0,0,0,3,2.57c.21-.5.41-1,.58-1.5-.54-.37-1.05-.77-1.55-1.17,0-.31.12-.92.15-1.24l-1.26-.14m443.48,51.69a9,9,0,0,0,.25,4.78c2,.57,3-.17,2.79-2.22-1-.85-2-1.75-3-2.56m40,6c-.25.77.54,1.22.93,1.76a15.84,15.84,0,0,0,.66-1.6.93.93,0,0,0-1.59-.16m-29.36-3.59c-.64,1.36-1.09,2.8-1.67,4.18a1.13,1.13,0,0,0,.22,1.22c1.14-.16,1.63-1.45,2.57-2,.92-1.48-.37-2.4-1.12-3.37m45.15,19.68c-.58.35-.18,1.54.53,1.13.56-.36.17-1.55-.53-1.13m6.41,1.91-.08,1.4c1.09-.2,1.43-1.06,1.43-2.08-.46.22-.91.45-1.35.68m-20.12,3.56c-.25.65-.49,1.31-.69,2l1.71-.24c.07-.55.14-1.09.22-1.63l-1.24-.12m-41-.88c-.78,1.86,0,3.64,1.11,5.1a4,4,0,0,0,2.09-.28c-.38-1.38-1.24-2.69-.85-4.21-.58-.64-1.61-1.62-2.35-.61m10.67,5.65a4.89,4.89,0,0,0-.6,2,13.18,13.18,0,0,0,1,1.18,5.77,5.77,0,0,0,1.2-2.38,4.14,4.14,0,0,0-1.57-.78m21.48,9.37c-.12,1.19-.37,4.14,2.16,3.15.06-.57.13-1.14.2-1.7l-.72-.51,0-1.39a5.73,5.73,0,0,0-1.68.45m16.54,1.78c0,.36,0,1.07,0,1.43a2.05,2.05,0,0,0,1.88-1.05c-.62-.14-1.24-.26-1.85-.38M759,495.9c-.66,1.88.83,3.77,1,5.69.53.15-.44,3.08,1,2.46,1.74-1,1.76-3.41,2-5.14a25.43,25.43,0,0,1-4-3m-25.93,0c1.08,0,1.35-1.23,1.53-2.07-1.09,0-1.36,1.23-1.53,2.07m3,3.68c-.08.51-.17,1-.25,1.54l-.75.48c-.21.5-.42,1-.64,1.49.39.51.53,1.47,1.37,1.39,1.82-1.26,1.92-3.74,1.64-5.72-.47.26-.92.54-1.37.82M730.44,501a11.76,11.76,0,0,0-3.32,2.52,7.63,7.63,0,0,0,1.91,1.18c.47-1.22,2-2.3,1.41-3.7m-10.14.1a10.71,10.71,0,0,0,.58,2.61l1.77-.68c0-.56.09-1.12.14-1.67a8.38,8.38,0,0,0-2.49-.26m-1.83,13.28a25.3,25.3,0,0,0,2.94-.64c.11-1.43.45-2.94-.43-4.18-2.15.17-3.26,2.93-2.51,4.82m3.33,3.25c0,.31-.1.93-.14,1.24l1.24.14c0-.31.11-.93.14-1.24l-1.24-.14m13,3.59c0,.27,0,.81-.05,1.08a2.57,2.57,0,0,1,.76,1.42l.23.12c0-.54.09-1.08.14-1.61-.37-.34-.72-.69-1.08-1m12,2.26c-.82.13-.58,1.31.18,1.26s.66-1.53-.18-1.26m5.51,5.68c.59-.18,1.18-.43,1.76-.67.06-.28.17-.85.24-1.13l.8-.93a3.76,3.76,0,0,0-2.8,2.73m15.18,3.69c-1.48-.45-3.06-.24-4.53-.72-.82.69-.79,1.85-1.16,2.82-.73,1.85-2.23,3.36-2.46,5.42l-1.19-.07c-.83-1.28-.64-2.85-.79-4.3-.69.08-1.37.17-2,.23.06-.56.13-1.12.21-1.67l.9-.6a1.67,1.67,0,0,0,2.62-1.06,7.68,7.68,0,0,0-1.51-.77l-.66.87c-1.76-.2-3.55-.4-5.29-.55l-.65.56c-.85.24-2.21.14-2.49,1.18.4,2.07-1.36,2.59-2.84,2.67a1.81,1.81,0,0,0,.1,2.37l1.08.28c.89,1.25,2.57.75,3.92.93,1.71.17,2.35-1.82,3.34-2.84a8.72,8.72,0,0,1,1.22,2.73c-1,.62-2.08,1.26-3.16,1.82-.13,1.06-.24,2.13-.32,3.2l.72.81c1.59-.44,2.44,1.38,3.94,1.52,1.06-.08,2.34.93,3.46.47,3.28-1,7-1.2,9.58-3.71-.22-.82-.48-1.62-.71-2.42-1.13-.51-2.63-.46-3.45-1.44a11.84,11.84,0,0,1,.09-1.47,17.71,17.71,0,0,0,4.37-2.68c.31-.55.63-1.11.93-1.67.72-.59,1.91-1.65.86-2.53-1.42-.33-2.67,1.06-4.08.62m8.08,2.38c-.37.48-.74,1-1.1,1.45.23.77.44,1.55.68,2.32,1.74,0,2.75-1.63,4-2.63-.11-.39-.21-.79-.3-1.17-1,.09-2.31,0-3.24,0m-38.24-2.47a12.73,12.73,0,0,0-.68,1.61c.31.76,1.1.36,1.7.29a19.09,19.09,0,0,0-1-1.9m-4.13,1.76c1-.08,1.65-.61,1.49-1.67-.92,0-1.13,1-1.49,1.67m-9-1c-.59.34-.19,1.53.52,1.12s.18-1.55-.52-1.12m11.57,4.71a9.12,9.12,0,0,0,.11,1.95c.33.06,1,.19,1.32.24-.79,2.42-1.85,5.61.5,7.49l3.82.42a14.24,14.24,0,0,1,1-1.17l.27-1.07,1.17,0,.64-.56a5.05,5.05,0,0,0,2.91-1.18c.26-.61.16-1.6-.64-1.62a24.52,24.52,0,0,0-6,1,19.54,19.54,0,0,1-2.23-2c.5-1.54,1-3.15.09-4.65a4.63,4.63,0,0,0-3,1.14M770.45,543c-.26.81.6,1.3,1,1.88a3.51,3.51,0,0,0,.3-3.11c-.44.4-1.14.63-1.31,1.23m-50-5.86c-.36.54-.75,1-1.08,1.61a13.21,13.21,0,0,0,.62,1.33l1.81-.7c.3-1.09-.08-2.23-1.35-2.24m-4.28.23c-.09.65-.17,1.29-.23,1.95a7.16,7.16,0,0,0,1.69-.45c.43-1-.85-1.16-1.46-1.5m11.66,4.48c-2,.56-3.07,2.72-5.07,3.1a42.08,42.08,0,0,0-4.35-1.7,31,31,0,0,0-3.63,1.6c0,.36,0,1.09,0,1.46.47-.25.93-.5,1.38-.77a25.09,25.09,0,0,0,1.73,1.85c.8-.43,1.49-1,2.29-1.48a12.33,12.33,0,0,1,1.52,1.77,31.21,31.21,0,0,0,7.84-1.25,5.85,5.85,0,0,1,2-1.33c.07-.56.13-1.12.21-1.67-.36.28-.72.57-1,.86-1.3-.29-2-1.6-2.85-2.44m10,11.21c-.35.35-.7.7-1,1.06l-1.62-.14c-.07.55-.14,1.1-.19,1.66l1.2.08c.15-.15.45-.46.61-.61.67-.06,1.48.17,2-.43.11-.49.21-1,.3-1.48l-1.27-.14M776,558.58c.66.45,1.33.89,2,1.29.07-.63.14-1.25.22-1.87a3.43,3.43,0,0,0-2.26.58m-15,7.74c-.25.57-.06.8.56.71.19-.55,0-.78-.56-.71m2.4,5.31A5.4,5.4,0,0,0,765,568.2c-1.5.24-1.73,2.22-1.51,3.43m-48.67-7.28c-.41.37-.48,1.33.16,1.52.87,0,.68-1.76-.16-1.52m7.06.81c-.46.26-.82,1.07-.2,1.38.9.28,1.15-1.48.2-1.38m31.22,23a1.17,1.17,0,0,0,1.95.28c.94-.47.34-1.64.34-2.44-1.26-.23-3.23.06-2.29,2.16m-50.53-6.11a4.82,4.82,0,0,0,.58,3.38c1.19.35,1.16-1.45,1.46-2.22q-.44-.5-.84-1l-1.2-.17m34.28,5.11a8.18,8.18,0,0,0,.41,3.93,1.18,1.18,0,0,0,1.21-.42,2.89,2.89,0,0,0-1.62-3.51m8.27,4.4c-.08.55-.14,1.1-.2,1.66l.83.09c.06-.56.12-1.11.19-1.65l-.82-.1M273.2,544.05c-.21.74-.45,1.48-.73,2.21,1.09.65,2.39-.37,2.65-1.45a3.33,3.33,0,0,0-1.92-.76m459.24,56c.54.19.77,0,.71-.56-.58-.25-.82-.07-.71.56M724,603.41a27.38,27.38,0,0,1,1.3,3.12,6.15,6.15,0,0,0,1.09,2.94c.58.18,1.09-.39,1.62-.56-.26-1.42-.48-2.84-.81-4.24a7,7,0,0,0-3.2-1.26M264.31,551c0,.32-.1,1-.13,1.27.48.28.85,1,1.47.92a10.26,10.26,0,0,0,1.63-1.79l-3-.4m-8.67.31a1.16,1.16,0,0,0-.28,2,5.41,5.41,0,0,0,2.9-.53c.41-1.41-1.72-1.76-2.62-1.46m-14.45,0c0,.71-.32,1.56.35,2.08.51.1,1,.18,1.53.25.69-1.14.25-3.3-1.88-2.33m15.44,3.5a1.53,1.53,0,0,0,1.74,1.42c0-.93-1.1-1-1.74-1.42m-44.85-1.85c-1,.51-1,2.7.39,2.51,1-.51,1-2.69-.39-2.51m68.59,9.5a1.12,1.12,0,0,0,1.3.15c.48-.92-1.56-1.16-1.3-.15m-22.18-1.59c-.17.65-1,1.51-.13,2s2-.54,2.52-1.31c0-1.35-1.57-.62-2.39-.65M696.52,615.2l4.71.68.16-2.22c-1.64.36-3.8,0-4.87,1.54m-4-1.19a1.81,1.81,0,0,0,2.61,1.13,1.81,1.81,0,0,0-2.61-1.13m20.73,2c.1.75.25,1.49.41,2.23a3.92,3.92,0,0,0,1.06-2l-1.47-.2M228.55,562.72c-.14.69-.41,2.06-.54,2.75a6.09,6.09,0,0,0,1.76-1.55c-.41-.41-.81-.81-1.22-1.2m476.57,59a7.2,7.2,0,0,0-.34,3.77c1.52.42,1.79-1.3,2.27-2.31-.12-.42-.22-.84-.31-1.24-.55-.09-1.09-.16-1.62-.22m21.55,5.8c0,.59-.1,1.19-.14,1.79a8.57,8.57,0,0,0,3-.6,19.63,19.63,0,0,0-.22-2.18c-.9.3-1.81.6-2.68,1m-6.72,3c1,.4,1.66-.12,2-1.07-.73.21-1.75.18-2,1.07m3.6.1c-.34.45.41,1.08.85.76s-.42-1.1-.85-.76m2.33.74c-.25.57-.06.8.56.71.19-.55,0-.78-.56-.71m-6.16,2.2a15.34,15.34,0,0,0-.09,4.59,3.9,3.9,0,0,0,2.3-1l1-.11c1.3-.72,2.79-1.38,2.18-3.38-1.8.1-3.81-1-5.42-.13M700.65,632a9,9,0,0,0-1.23,2.82c.45.66,1.31.61,2,.79.36-1.42.29-2.66-.79-3.61m4.21,3.8c.77.41,1.35-1.24.5-1.45-.66,0-.81,1-.5,1.45m1,5.42a6.58,6.58,0,0,0,1.41-2.15c-1.27.07-1.54,1-1.41,2.15m-26.19-2.38a1.73,1.73,0,0,0,2.44.32c0-.59-.18-1.17-.27-1.74-.87,0-2.25.33-2.17,1.42m-4.85-.9a4.76,4.76,0,0,0-1.06,4.11,11.46,11.46,0,0,1,2.26-1c.44.28.83.63,1.26,1a17.77,17.77,0,0,0,.48-2.37c-.83-.79-1.66-1.82-2.94-1.69M241.77,595c-.2.54,0,.77.56.71.24-.58,0-.82-.56-.71m8.31,3.38c-.19.61-.58,1.82-.77,2.43l1.51,1c.31-.26.62-.52.94-.76.09-.54.18-1.07.26-1.59a13.26,13.26,0,0,0-1.94-1.1m451.05,60.8q.27-1.86.36-3.72c-1.2.92-1.81,2.82-.36,3.72m-10.44-2.57c-.3.65-.09.91.62.78.28-.66.08-.92-.62-.78m16,5.49c.38.25.78.5,1.2.73-.1-.65-.23-1.3-.35-1.93a3.5,3.5,0,0,0-.85,1.2m-21,.55c-.06.57-.1,1.16-.14,1.75.81-.08,1.62-.19,2.44-.26l.2-2.15a18,18,0,0,0-2.5.66m-398-44.85c-.39.5-.78,1-1.16,1.53-1.58-1.08-3,.57-4.34,1.28l-.12,1.58.87.53c2.25-.57,3.88-2.23,5.35-3.93a10.85,10.85,0,0,0-.6-1m422.59,49c.09,1,.14,2.32,1.26,2.79.67.56,1.56.09,2.33,0a2.24,2.24,0,0,0-2.26-2.49l-1.33-.34m-449-51.11c.31.62.64,1.24,1,1.84.12-.6.24-1.19.35-1.77l-1.35-.07m446.37,53.21a10.84,10.84,0,0,0-.62,4.12,15.36,15.36,0,0,1,3.55,3.42,17.8,17.8,0,0,0,1.92-.11c-.47-1.14.2-2.12.84-3-1.3-.81-2.72-.09-4.07.06-.47-1.51-1-3-1.62-4.47m-17.16-.61c-.77,1.19-1.72,2.42-1.73,3.91.07,2.21-.51,4.39-.44,6.61l1.66.3c.26.61.52,1.23.8,1.85,1.58-1.07-.1-3.07.44-4.51,1.07-1.18,2.53-2.07,3.24-3.53-.57-1.3-1.25-2.57-1.73-3.89-.75-.25-1.48-.53-2.24-.74m4.42,3.72c1,.07,2.19.78,3.26.85,1.5-.69,1.68-3.08.12-3.73a5.71,5.71,0,0,0-3.38,2.88m-13.32-3.18c-1.59,1.79-2.87,4.27-1.64,6.63a51.4,51.4,0,0,0,5.42.16c.36-1.2.66-2.49.92-3.69a13.73,13.73,0,0,0-2.7-1.31,18.8,18.8,0,0,0-2-1.79m-5.7,2.42c-.74.08-.74,1.39.12,1.15s.62-1.26-.12-1.15m22.43,5.32a4.37,4.37,0,0,0,2.54,1.75c.25-.45.5-.88.77-1.31-.5-1-1.1-2-1.58-3.06-.78.68-1.85,1.44-1.73,2.62m-36.86-6.72c-1,1.07-2.37,2-2.77,3.47a7.22,7.22,0,0,0,3.32,1.31,3.93,3.93,0,0,0-.55-4.78m4,1.23c-.1,1.48-.44,3.51.92,4.6l-.08,1.15a15.36,15.36,0,0,1-1.23-1.79c-1.07,1.67-3.4,1.34-4.89,2.44-1.09.76-2.44.81-3.67,1.16a9.67,9.67,0,0,0,.53,3,11.69,11.69,0,0,0,5.29-1l1-.25a16.31,16.31,0,0,1,3.26-1.19c.54.44,1.08.9,1.59,1.4l1.48.32c-.29-1.77-.51-3.57-.79-5.33-.23-1.2.9-2.54.1-3.59-.68-.11-1.63-.36-1.8.57a17.31,17.31,0,0,0-1.68-1.53m-14.06-1a15.24,15.24,0,0,1-4.6,1.91,18.66,18.66,0,0,0-2.26-1.62,6.43,6.43,0,0,0-.9,2.12c-1.18-1-2-2.76-3.55-3-1.71,1.7-3.31,3.51-5,5.22.87,0,1.73-.06,2.59-.1.14.45.27.9.4,1.37.93,0,1.85-.1,2.78-.17.16-.18.48-.54.63-.73l1.45.3a9.46,9.46,0,0,0,3.21,2c0,.3-.1.9-.13,1.21-.79-.19-1.54-.46-2.31-.61a5.71,5.71,0,0,0-2.17,2.52,14.88,14.88,0,0,0,2.36,1.27l2.08-2c1.73,1.14,3.19,3.06,5.56,2.72a9.19,9.19,0,0,1-.08-6.59c1.46-1.09,3.3-2.22,3.41-4.24-.9-1-1.84-2.13-3.46-1.63m52.14,8.09c0,1,0,1.9.07,2.87l1.27.16a9.11,9.11,0,0,0,1.61-3.49c-.75-1.36-2.12-.11-3,.46m-23.49-.19a7.82,7.82,0,0,0,.26,1.79c.86-.43,1-1.35,1.08-2.21a9.94,9.94,0,0,0-1.34.42m-443-50.38c-.7.48.15,1.67.72.88a.58.58,0,1,0-.72-.88M673,678.84a2.43,2.43,0,0,0-.83,2.93,18.3,18.3,0,0,0,1.74-1.3,1,1,0,0,0-.91-1.63m17.86,3.38a1.52,1.52,0,0,0,1.56,1.84c-.06-.59-.14-1.17-.21-1.74l-1.35-.1m-37.62-3.6c-1.29,1-2,4,.31,3.83,1-.92.89-2.41,1.35-3.6l-1.66-.23m-16.7-.2c-.18.61-.52,1.83-.7,2.44l1.09.55c.11-.74.31-2.21.4-2.95l-.79,0m63.08,8.48,0,.49c.51.23,1,.44,1.58.66,0-.36.12-1.07.17-1.43-.58.07-1.14.17-1.7.28m-40.6.35c-1,.78-.54,2.18-.92,3.25l1.74.19c.74-1.12.56-3-.82-3.44m-10.82-.49a7.32,7.32,0,0,1-1.92,2.61l.16.54c-.42.43-.84.87-1.28,1.3,0,.3-.11.92-.15,1.22.84-.58,1.39-2,2.56-1.82,1.81,1.9,1,4.56.62,6.85l.61-.26a8.64,8.64,0,0,0,.94-6.78c.79.26,1.57.53,2.37.78l.77.87c-.13,2.1-.54,4.24-.13,6.35.89-1.53,1.73-3.06,2.72-4.52.14-2.55-2.18-4.25-3.4-6.21-.65.16-1.29.35-1.92.55a3.59,3.59,0,0,0-2-1.48m-5.18,1.43c.61.27,1.11-.75.79-1.22-.54-.16-1,.76-.79,1.22m-2.27,4.14c1.51-.45,2.75-1.33,1.9-3.36-1,.84-2.3,1.72-1.9,3.36m68.64,7.85c0,.6,0,1.21,0,1.83a18.66,18.66,0,0,0,1.47-1.48l-1.42-.35m-64.34-3.94c-.58.45.21,1.53.79,1,.76-.49-.15-1.54-.79-1M629.37,700a4.07,4.07,0,0,0-1.65,3.29l1.28.15c1.47-2,2.49-4.75,1.17-7.11-1.32.79-.65,2.42-.8,3.67m30.23.58c.53.19.77,0,.7-.56-.58-.25-.81-.06-.7.56m14.33,1.7c-.91.37.05,1.47.7.9a.58.58,0,1,0-.7-.9M282.48,659.14c.69,0,1.38-.13,2.07-.18a16.59,16.59,0,0,0-.76-1.66c-.94-.29-2.33,1-1.31,1.84m373.07,44a22.1,22.1,0,0,1,1.51,5.25c2.08,0,5.77.68,5.33-2.75-1.78-.75-3.7-1.36-4.92-3-.38-1.21-1.8-.18-1.92.47m-4.59-.34c0,2.53.21,5,.13,7.56,1.66-2.38,1.54-5.64,1.65-8.41-.59.29-1.18.58-1.78.85m-6.88,1.24c-1.92,2.63,3.34,4.55,1.65,7.15-1.09.22-2.19.4-3.26.69-1.47,1-2.19,2.94-4,3.48a16,16,0,0,1-1.61-1c.68-2.08,2.11-3.88,2.3-6.13.68-1.21.1-1.91-.34-2.85-.53,0-1.05-.07-1.57-.08a12.29,12.29,0,0,1-3,3.92,12.31,12.31,0,0,0,.36,2.82c-.71,1.2-1.85,2.23-1.49,3.86.71.93,2.09,2.64.67,3.56-1.14,0-1.75-1.3-2.87-1.33-1.75,0-3.69-1.06-5.3,0,.25.63.51,1.26.77,1.89,1-.07,1.87-1,2.9-1,.59.41,1,1,1.64,1.4,2,.07,4-.33,6,.12.77-.66,1.71-1.13,2.54-.27a21,21,0,0,0,1.67,2.54c1.79.16,3.68,0,5.26,1a12.22,12.22,0,0,0-.41-7.56l-1.69-.17.16-1.24,1.62.16c1.19-1.11,2.48-2.39,2.58-4.12a13.11,13.11,0,0,1-1.81-1.68c.12-1.4,0-3.12-1.21-4.06.14-.64.32-1.26.5-1.88-.7.21-1.39.49-2.08.73m6.92,9.06a16.6,16.6,0,0,0-.8,2.41c.73.56,1.39,1.4,2.35,1.57a12.39,12.39,0,0,0,1.89-1.1c0-.5.06-1,.07-1.49-.81-1.1-2.36-.94-3.51-1.39M355.83,684c0,.31-.09.93-.11,1.24l-1.39.39a1.82,1.82,0,0,0,1,1.82l.36-1.36,1.23-.75.2-1.18-1.26-.16m25.57,3.4c-.14.78-1,1.8-.14,2.4,1.25.94,1.24-2.08,1.5-2.24l-1.36-.16m197,22.82a5.78,5.78,0,0,0-.67,1.5c.46.89,2.35.81,2.07-.42-.37-.5-.69-1.16-1.4-1.08m38.47,4.58c-.4.37-.48,1.33.16,1.52.87,0,.68-1.76-.16-1.52m-35.76-2.75-.22,1.36,1.59,1a1.64,1.64,0,0,0-1.37-2.36m39.21,4.58c0,.86,0,2.15,1,2.37,0-.87,0-2.15-1-2.37M315.73,683.28c-.78.11-.66,1.37.17,1.23s.4-1.25-.17-1.23m319.08,42a8.75,8.75,0,0,0,1.47,3.3c.71.29,1-.51,1.38-.92.63-.58.15-1.42.09-2.11l-1.11-.6-1.83.33m-321-37.22a26.27,26.27,0,0,0,1.51,3.55c1.3-.8.74-2.31.3-3.45-.61,0-1.21-.08-1.81-.1M642,728.51a25.8,25.8,0,0,0,.28,2.76c.22.81,1.15.68,1.8.9a41.81,41.81,0,0,1,.74,4.17c-.12.55-.71,1.25-.26,1.77.76,1.64,3.24.59,3.48-.89-.43-1.12-1.38-2-1.5-3.27.29-2-1-3.69-1.65-5.45l-.76-.55c-.72.18-1.43.35-2.13.56M420.46,711.65c.4.2.8.39,1.22.57.7-.49.56-1.41.69-2.15a3.46,3.46,0,0,0-1.91,1.58m-61.79-7.47c-.58.45.21,1.53.79,1,.77-.49-.14-1.54-.79-1m271.4,32.62a6.43,6.43,0,0,0,.43,1.7,14.22,14.22,0,0,0,1.69-.22c-.26-.47-.53-.92-.77-1.37l-1.35-.11m7.29,2.44c1,.41,1.66-.11,2-1.06-.72.2-1.74.18-2,1.06m-12.28-1.56-.08.73a12.36,12.36,0,0,0,1.62.19l.08-.73a8.14,8.14,0,0,0-1.62-.19M642.14,750c-.25.57-.06.8.56.7.19-.54,0-.78-.56-.7m-101-10.9c-.58.35-.18,1.54.53,1.13s.17-1.55-.53-1.13m17.25,10.31-.46.42c.17,1.26,2-.63.46-.42m-198-21.09c-.07.15-.19.46-.26.62.34,1.08,1.23-.75.26-.62m165.29,21.15c-.49.34,0,1.33.54,1.07s.11-1.45-.54-1.07m-9.86.43a10.17,10.17,0,0,0,.52,3.54c.86-.65,2.08-1.26,1.53-2.72-.38-.81-1.33-.66-2-.82M442.2,746.5a4.15,4.15,0,0,0-1.65,2.19,4,4,0,0,0,2,.81c.41-.61,1.22-1.11,1-1.93-.36-.48-.67-1.21-1.38-1.07m111.06,14.06c0,.35-.07,1-.09,1.39,1.1-.2,1.43-1.06,1.44-2.08q-.69.33-1.35.69M426,745.69c-.18.86-.33,1.73-.47,2.61l1.29.13a9.87,9.87,0,0,0-.82-2.74m169.94,19.87c-1.16.6-2.35,1.13-3.53,1.7l-.64,1.12a9.07,9.07,0,0,0,6.83,2c.25-1.13.5-2.25.83-3.34a26,26,0,0,0-3.49-1.5M436.84,747.87a7.08,7.08,0,0,0,1.12,2.65c.81.35,1.18-.59,1.59-1.09a14.22,14.22,0,0,0-.54-1.75,14.23,14.23,0,0,0-2.17.19M605.3,767c-.25.89-.46,1.79-.66,2.7.25.33.49.65.74,1L607,771a7.31,7.31,0,0,0,1.56-2.27c-1-.62-2.18-1-3.21-1.66m-47.75-3.79c0,.63.06,1.88.09,2.5q1.13-.51,2.25-1.08c-.28-.59-.55-1.19-.77-1.79a2.92,2.92,0,0,0-1.57.37M405.31,746.5a8,8,0,0,0-1.64,2.53c.62,1,1.95.47,2.9.39,0-1.14,0-2.28,0-3.39l-1.26.47m9,.87c-.23.51-.45,1-.65,1.58l1.42.17c-.08-.58-.17-1.14-.27-1.69Zm28.17,5.88a7.3,7.3,0,0,0,.41,1.64l1.23-.18c-.12-.46-.22-.91-.32-1.35l-1.32-.11m76.29,8.66c-.07.63-.13,1.25-.17,1.89l1.23-.48c.15-.75-.63-1-1.06-1.41m63,8.29a1.41,1.41,0,0,0,2.78.32c-.92-.15-1.85-.25-2.78-.32M523,764.6c-.07.54-.13,1.09-.19,1.65l.83.1c.06-.56.12-1.11.19-1.66l-.83-.09m26,7.12c-.08.56-.14,1.13-.21,1.71.37.33.73.68,1.11,1a15.05,15.05,0,0,0,1.11-2,4.16,4.16,0,0,0-2-.79m34.48,6.66c-.3.64-.09.9.61.77.29-.66.09-.92-.61-.77m-60-4.59c.91.48,2.29,2.53,3.16,1.12l.4-1.81-1.14-.34a8.36,8.36,0,0,0-.88-.81,2.28,2.28,0,0,0-1.54,1.84m-126-16.21a4.5,4.5,0,0,0,1.07,1.93c.46-1-.1-1.65-1.07-1.93m9.06,4.2c.53,1.45,2.23,1.51,3.46,2.14,1.05.65,1.79-.59,2.54-1.14-1.42-1.84-4.08-.57-6-1m82.64,11.89c-.06.54-.11,1.1-.16,1.66l1.51,1a24.32,24.32,0,0,0,2.1-2.64,33.21,33.21,0,0,0-3.45-.05m-62.81-1.75c-.63,1.51-.16,3.15-.28,4.72.13.92,1.13.71,1.8.88l.65-.72c.8-.09,1.6-.21,2.4-.29a9.84,9.84,0,0,0,1.41-4.39,8.55,8.55,0,0,1-6-.2m-5.07,2.43c.58-.39,1.11-.83,1.67-1.23l.16-1.32c-1.27-.11-2.76.79-1.83,2.55m93.91,9.56c-.13.77-.7,1.68-.15,2.39a5,5,0,0,0,1.66-.59q.11-.87.21-1.71l-1.72-.09m32.85,6a8.51,8.51,0,0,0,.63,2.05,7.53,7.53,0,0,0,4.32-.82c0-.55.07-1.09.11-1.62-.65-.35-1.27-.74-1.93-1a18.75,18.75,0,0,0-3.13,1.43M406,772.5c-.21.46-.42.94-.63,1.42.41.25.82.51,1.22.78.9-.48,2.15-1,1.48-2.51a20.67,20.67,0,0,0-2.07.31m96.57,12.72a6.88,6.88,0,0,0,1.55.8c.1-.77.2-1.52.29-2.27-.66.41-1.86.47-1.84,1.47M540.85,790a47.13,47.13,0,0,1-4.85.93l-.51-1a13,13,0,0,0-3.19.37,8.55,8.55,0,0,0-1.62-1.27,14.91,14.91,0,0,0-4,2c0,.32-.09,1-.13,1.27a7.3,7.3,0,0,0,4.75.34c2.39-.2,4.8-.28,7.2-.41a5.33,5.33,0,0,0,2.5-1.45,10.08,10.08,0,0,0,3.8.3,9.44,9.44,0,0,0-1.22-2.23c-1.09-.4-1.82.76-2.71,1.16M390.47,771.52a2.85,2.85,0,0,0,1.89,2l.24-1.37a19.82,19.82,0,0,0-2.13-.6m5.44,1.94c-.49.33,0,1.33.54,1.07s.11-1.45-.54-1.07m122.64,16.35c-2,.87-4.56.79-5.61,3,1.74.73,3.65,1,5.37,1.8.39-.12.78-.22,1.17-.32.37-.64.79-1.25,1.1-1.92a9,9,0,0,0-.48-2.57c-.52,0-1,0-1.55,0m-12.46.69c-1.25-.72-1.83.59-1.86,1.67a18.07,18.07,0,0,0,2.34,1.25l.52.83c1.58-.15,4.59.21,3.93-2.41-1.6-.65-3.15-2.34-4.93-1.34m-13.52.8c-.88,2.1,1.22,3.54,2.93,3.87,1.55-.34,3.11-.75,4.67-1.07l.62-.73a16,16,0,0,0-.94-2.48,35.67,35.67,0,0,1-3.61-1.24,9.09,9.09,0,0,0-3.67,1.65m-4.73-.48c-1.35.49-3.11,1.39-2.58,3.23,1.08,1.65,3.08.16,4.24-.63.06-.56.12-1.12.18-1.66-.56-.39-1.06-1.21-1.84-.94m-18.18,2.72c2.79,2.49,7,.93,10.22.41-.52-.61-.85-1.52-1.63-1.81-2.87-1.49-6.11-.19-8.59,1.4"></path></g></g></g></svg>