<svg fill="currentColor" xmlns="http://www.w3.org/2000/svg" viewBox="0 0 1000 1000"><g class="cls-1"><g id="Shapes"><g id="Shape_147" data-name="Shape 147" class="cls-2"><path class="cls-3" d="M552.94,204.5c15.57-.61,31.19.26,46.76-.28l6.13,1c5.76,7.46,13,13.49,19.38,20.43,2.44,4.47,6.66,7.4,10.58,10.44,5,5.07,10.54,9.59,14.88,15.26,1.69,2.42,4.13,4.13,6.28,6.11,2.72,2.84,5.16,6,8.15,8.54a116.55,116.55,0,0,1,17.31,18.75l1.37.22c1.76,4.21,6.57,6,8.87,10,1.6,0,1.9,1.69,2.72,2.73,1.53,1.13,3.14,2.21,4.57,3.48,0,.38.06,1.15.09,1.53,1.29,1,2.63,2,4,3a15,15,0,0,0,2.84,2.55c0,.36.14,1.07.19,1.43.53.53,1.06,1.08,1.59,1.63l1.48.14c0,.39.07,1.14.09,1.52.76.67,1.52,1.34,2.32,2,3,3.07,6.83,5.35,9.27,9,7.23,6.4,13.49,13.8,20.72,20.2,2.1,2.2,4.2,4.39,6.48,6.4a3.14,3.14,0,0,0,1.54,2.31,22.77,22.77,0,0,0,8.12,8,52.3,52.3,0,0,0,5,6.32l1.5.1c1.52,4.53,6.48,6.07,9.27,9.59a43.64,43.64,0,0,0,6.21,6.17c0,.38.09,1.13.11,1.5,1.3,1,2.66,2,4,2.95,1.29,3.32,4.71,5,6.86,7.71,3.21,3.59,6.7,7.42,7.6,12.3.18,21.48-.25,43-.33,64.44.09,3.46-.37,7,.2,10.45.5,5.74-.13,11.52.39,17.25.71,21.16-.57,42.38.09,63.53.67,16-.42,32,.17,48,.41,4.55.22,9.12.22,13.69q-.3,37.68-.55,75.38c-.07,2.94,0,5.91-.33,8.85-.36,7.86-.8,15.81-.19,23.67.58,18-.33,36.05,0,54.07.48,2.45,1.17,5,.2,7.41a14.53,14.53,0,0,0-1.11,1.11c-5.21.4-10.47-.35-15.64.32-12.93.67-25.88-.37-38.8.21-2.87,0-5.68.75-8.54.59a37.09,37.09,0,0,0-8.68-.14c-8,.5-16,0-24,.13-2.61-.13-5.22.18-7.77-.35a29.71,29.71,0,0,0-6.46-.07,58.31,58.31,0,0,1-10.32,0,26.66,26.66,0,0,0-6.91-.11c-4.4.36-8.82.23-13.22.21-24.24-.21-48.47-.34-72.7-.55a49.65,49.65,0,0,0-6.69.21c-4.12.43-8.28-.07-12.38.46-17.87.5-35.75-.13-53.62-.13-6.76-.43-13.38,2-20.13.65-19.66-.69-39.34-.36-59-.68-3.32.08-6.65-.3-9.93.2-5.31.38-10.63.22-15.95.19-3.69.29-7.11-1.39-10.73-1.71-1.7-.09-2.62-1.73-3.68-2.79a43,43,0,0,0-3.36-3.11c-1.78-1.48-2.76-3.68-4.39-5.29a39.61,39.61,0,0,0-4.53-3.56l-.12-1.49c-2.3-1.82-4.94-3.24-6.74-5.63-1.91-2.78-5-4.28-7.2-6.81-2.65-2.22-4.73-5-7.2-7.36-.07-.32-.22-1-.3-1.29-.38-.33-.77-.65-1.15-1-1.65-.31-2.4-2-3.48-3-2.1-2.58-4.83-4.52-7.39-6.61-6-5.5-11.1-11.85-16.87-17.58l-1.25-.35c-1.65-1.95-4.23-2.93-5.59-5.19-1.82-2.53-4.82-3.77-6.79-6.15-4.64-5.73-10.43-10.38-15.56-15.66l-.2-1.41c-.55-.54-1.08-1.08-1.6-1.63-.36,0-1.07-.15-1.42-.2a30.86,30.86,0,0,0-3.1-3.36c-3.92-3.62-7.38-7.71-11.43-11.19-3.56-4.82-8.63-8.25-12.45-12.85a53.2,53.2,0,0,0-6-5.77c-1-2.61-3.66-3.89-5.33-6-2.47-3.1-5.72-5.41-8.15-8.54-1.83-2.13-4.1-3.88-5.53-6.32l-1.36-.23A84.74,84.74,0,0,0,233.66,634c-2.24-3.43-5.63-5.87-8.35-8.89-5.25-4.79-10.66-9.43-15.51-14.65-2.11-2.36-4.88-4.25-6.28-7.17-1.78-3-1.74-6.6-2.38-9.92a87.21,87.21,0,0,1,.15-14.09,26.51,26.51,0,0,0,.07-3.67c-.38-3.42,0-6.87-.51-10.26-.5-18.76.17-37.54.13-56.31-.14-6,.49-12-.13-18-.68-9.33.33-18.69-.32-28-.72-13.63.41-27.3-.25-40.93-.5-18.75.15-37.53.13-56.3a178.26,178.26,0,0,0-.1-22.29c-.65-10.85.09-21.7.29-32.54-.82-10.68.37-21.41-.36-32.07-.4-5.3-.18-10.62-.17-15.92.19-19.36.19-38.71.49-58.07.57-.51,1.13-1,1.68-1.57,20-.27,39.94.59,59.89.06,7-.52,14.05.09,21.07-.36a40.21,40.21,0,0,1,9.62,0c8,.63,16,.28,24,.47,3.48-.11,7,.36,10.46-.2,5.3-.39,10.62-.17,15.93-.16q47.1.36,94.22.69c5.31,0,10.62.19,15.93-.13a51.24,51.24,0,0,1,11.21.09c19.65.68,39.33.37,59,.66,9.79,0,19.6.4,29.39,0m-72.43,11.41c-6.62.22-13.25-.21-19.84.32-9.92-.7-19.88-.34-29.81-.54-8.9.06-17.8-.43-26.68.1-11.11.37-22.29.25-33.39-.28-2.3-.47-4.68-.13-7,0-5.81.53-11.66,0-17.48.13-9.79-.21-19.6.18-29.36-.5a59,59,0,0,0-12.32,0c-11.51.54-23-.34-34.55.21-4.56.56-9.13.06-13.69-.18-7,.67-14,.2-21,.2-.16-.26-.45-.77-.61-1-3.87-.06-7.75-.08-11.62,0-.38.58-.78,1.14-1.18,1.69-.74,3.72,2.79,5.82,5.75,6.86l.06,2.06c2.77,1.31,3.76,4.91,6.75,5.69,2,1.91,4,3.87,5.84,6,2,2.46,3.68,5.31,6.45,7,.06.34.18,1,.23,1.36a44.69,44.69,0,0,1,4.92,4.71c1.17.28,2.18,1,2.08,2.35,1.78,1.64,4.12,2.64,5.52,4.67,2.57,2.09,4.4,4.92,7,7,3.58,3.24,6.36,7.33,10.39,10.08,3.68,3.35,6.54,7.45,9.76,11.22a60.42,60.42,0,0,1,4.26,4.36l1.36.25c2.85,3.08,6.24,5.6,9.23,8.56a20.7,20.7,0,0,0,2.89,3,12.34,12.34,0,0,1,3.19,3.79c3.26,1.31,4.5,4.82,6.94,7.06a19.06,19.06,0,0,0,4.85,4.32c2,1.93,3.38,4.5,5.67,6.18,3.08,3.05,6.68,5.5,9.84,8.46,2.62,3.28,5,6.82,8.31,9.45,3.06,4.1,7.07,7.3,10.8,10.74,6.35,6.58,13.07,12.81,20,18.78a25.89,25.89,0,0,0,7.63,8c0,.37.07,1.13.09,1.5a45.11,45.11,0,0,1,7.64,6.9c4.81,3.24,8.14,8.07,12.3,12,4.51,1.14,9.19.58,13.79.76,10.69.2,21.4-.17,32.08.5,4.33.69,8.77.15,13.14.37,19.66-.06,39.33.64,59,.14,9.14-.64,18.32.31,27.46-.34,5.55-.46,11.14,0,16.7-.43,9.32-.66,18.69.35,28-.26,1.83-.16,4.48-.47,4.94-2.68.31-9.7.47-19.44.1-29.15-.42-2.49-.32-5-.53-7.53-.7-10.57.45-21.2-.28-31.78-.77-11.44.47-23-.29-34.45-.6-4.1-.15-8.29.11-12.39.93-12.34-.12-24.79.79-37.15.33-1.44.23-3,.45-4.41l1.08-1c.68-.2,1.36-.42,2.05-.65,0-1.65-.12-3.33-.07-5-1,.15-2,.39-3.07.53-.83-.62-.58-1.71-.63-2.6,0-4.46.11-8.92,0-13.38-.36-.37-.72-.75-1.05-1.13-5.46-.12-10.93-.3-16.37.1a126.27,126.27,0,0,1-17.07-.12,218.47,218.47,0,0,1-23.87-.2c-2.47-.53-5-.15-7.51,0a76.68,76.68,0,0,1-14.05-.15,21.65,21.65,0,0,0-3.69,0c-8.78.84-17.67-.46-26.46.41-2,.26-4-.32-6-.51M213.44,228.15a16.88,16.88,0,0,1-1.72,1.18c-.14,11-.53,22-.06,33,.71,6.06-.24,12.22.4,18.31.47,2.55.17,5.17.23,7.76-.26,26-.34,52.06-.62,78.1.26,2.72-1.42,6,.83,8.23l.48,7.65c.61,12-.44,24.06.24,36.08.55,9.22-.22,18.48.45,27.71a141.08,141.08,0,0,0-.29,20.25,32.44,32.44,0,0,1,.48,10.72,82.21,82.21,0,0,0-.09,14.55,82.08,82.08,0,0,1-.12,14c-.61,3.43-.19,6.94-.31,10.41l1,.62c.07,19.11-.6,38.25-.15,57.36,1,4.72.62,9.56,1,14.35-.05.74-.17,2.21-.22,2.94.54.55,1.07,1.11,1.6,1.68,4.94.21,9.73,2.06,14.73,1a39.31,39.31,0,0,1,9.07.11c15.11.84,30.26-.1,45.35.9a71.59,71.59,0,0,0,8-.6c23.84-.53,47.73.68,71.56,0,4.49-.28,9,0,13.5-.47,4-.53,7.9,1.15,11.93.84.74-.56,1.52-1.06,2.31-1.55.06-11,.45-22.07.05-33.09-.62-7.16.15-14.35-.43-21.51-.65-17.23.52-34.48-.15-51.71-.66-6.07-.14-12.23.14-18.31.5-2.55.22-5.19.33-7.75.07-18.83.35-37.65.34-56.48-3.37-2.92-7.15-5.37-10-8.9-.51-1,.75-1.22,1.38-1.63,0-.36.07-1.06.1-1.41-1.32.11-2.71.18-4,.26-3.28-3-7.1-5.56-9.41-9.46-.7-1.43-2.54-1.35-3.58-2.39-1.4-1.67-2.53-3.52-4.05-5.07-2.15-2.38-4.84-4.15-7.09-6.4l-.28-1.31c-2.25-1.69-4-3.91-6-5.87a22.57,22.57,0,0,1-6.49-5.9c-4.47-2.38-6.78-7.24-10.47-10.54a25.67,25.67,0,0,0-5.63-5.14c-1.42-1.65-3.09-3.07-4.22-4.94-2-2.92-5.37-4.25-7.47-7-3.5-2.39-6.08-5.87-8.52-9.27l-1.27-.38c-1.58-1.62-2.91-3.5-4.72-4.88a2.52,2.52,0,0,0-2.16-2.24c-.69-.56-1.38-1.1-2.09-1.62-1.57-2.51-3.92-4.34-5.79-6.59-2.95-2.78-6.72-4.82-8.72-8.51-1.19-2.32-3.62-3.58-5.26-5.51a28.39,28.39,0,0,0-6.91-6.57c-4.07-3.81-7.25-8.53-11.69-12-1.33-1.37-3.49-2.27-3.75-4.38a30.88,30.88,0,0,0-6.58-5.76c-2.29-2-3.9-4.7-6.19-6.73-2.91-2.66-4.85-6.35-8.38-8.32-2.08-1.28-3.54-3.33-5-5.25l-1.27-.33c-3.54-3.64-7.31-7.06-10.89-10.66a3.82,3.82,0,0,0-3.59-1.59m398.37,4.52-1.76,1.06c-.09,4-.13,8.08.12,12.12a53.36,53.36,0,0,1-.07,11.23c.77,15.8-.51,31.63.23,47.43.43,5.63.11,11.29.14,16.94-.15,24.22-.43,48.43-.49,72.64-.32,1.75.53,3.3,1,4.88,2.42,0,4.82-.06,7.26-.21,5.16-.65,10.42-.13,15.61.13,5,.66,10.06.31,15.08.07a30.67,30.67,0,0,1,6.35.1,111.57,111.57,0,0,0,15.73.1c2.3-.39,4.63-.33,7-.55,17.41-.56,34.85.53,52.26-.1,2.3-.39,4.62-.31,7-.54,10-.29,20.13-.29,30.17.29a48.49,48.49,0,0,0,6.5.18c.56-.42,1.14-.82,1.74-1.19a4.69,4.69,0,0,0-1-3.53l-1.4-.2a3.54,3.54,0,0,0-2.11-1.72c-.78-1.81-2.46-2.87-3.81-4.19a4.08,4.08,0,0,0-1.44-2.38c-3-2.44-5.34-5.44-8-8.15l-1.39-.24-.08-1.54c-2-1.74-4.73-2.82-5.92-5.38a6.79,6.79,0,0,0-4.6-3.53l-.29-1.25c-1.21-1-2.37-1.95-3.51-3,0-.36-.13-1.08-.17-1.44-.55-.53-1.09-1.07-1.61-1.62l-1.4-.22c-3.42-3.42-6.51-7.14-9.93-10.53a16.41,16.41,0,0,0-1.74-1.5l-.28-1.31c-4.12-4-9.24-7-12.42-11.82a143.1,143.1,0,0,0-10.19-10.27c-1.5-1.74-3.55-3-4.68-5l-1.33-.26c-1.3-1.73-2.67-3.44-4.06-5.08-1.41-1.12-3.51-1.78-3.8-3.79l-.91-1.2-1.47-.16a23.74,23.74,0,0,0-2.42-2.95,17.41,17.41,0,0,0-2.69-2.67c-.24-2.4-3.86-1.41-3.68-3.94a68,68,0,0,1-8.06-8c-2.37-2.3-4.77-4.56-7-7-1.8-2-4.38-3.15-5.9-5.4-2.06-3.72-5.64-6.21-8.52-9.24-4.37-2.54-7.09-6.95-10.35-10.64-1-1.4-3.42-1.58-3.47-3.6a34.45,34.45,0,0,0-5.68-5.05c-2.38-1.74-4.08-4.18-6.26-6.12-4-3.7-7.38-8.16-12.32-10.63m-7.29,161.44c-1.54,2.26.63,3.15,2.12,3.35.26-1.54,1.5-3.79,0-4.92a1.46,1.46,0,0,0-2.07,1.57M768.87,412.8a52.84,52.84,0,0,1-7.22.22c-24.24-.22-48.47-.35-72.7-.56-4.42,0-8.84-.14-13.23.19-10.56.78-21.2-.45-31.77.31-10.81.87-21.75-.73-32.55.54-1.09,3.67-.41,7.56-.62,11.33.08,18.76-.64,37.53-.1,56.29.57,6.62-.21,13.3.38,19.93.56,4.18.05,8.41.17,12.62,0,20.56-.6,41.14-.22,61.7.55,7.22.06,14.46.19,21.71l1,.65c.05.66.1,1.32.16,2,3,3.78,7.22,6.56,9.54,10.91l1.46.17c4.73,4.25,8.7,9.24,13.13,13.79.33.08,1,.23,1.3.32,3.64,3.88,7.62,7.45,11,11.54,4.1,2.38,6.7,6.61,10.13,9.8,1.14,1.59,2.87,2.53,4.43,3.67,1.06,1.23,2.11,2.54,3.12,3.87a15.07,15.07,0,0,1,2.15,2.15c3.22,3.06,6.82,5.75,9.49,9.36,1.21,1.54,3,2.38,4.63,3.45,0,.37.07,1.12.1,1.5,3.39,2.08,5.63,5.51,8.71,8,1.84,1.37,3.2,3.25,4.85,4.85,2.55,2.11,4.66,4.67,7.26,6.73,1.28.94,1.85,2.48,2.69,3.79l1.53.08c0,.39,0,1.2,0,1.6,1.47,1.21,3.29,2.05,4.55,3.53,2.84,1.63,4.57,4.4,6.58,6.88,2.71,2.85,5.31,5.93,8.71,8,4,4.08,8.24,7.91,11.94,12.28,4.4,5.11,9.58,9.45,14.55,14,3.19,3.44,5.79,7.47,9.51,10.4,3.17,2,5.27,5.15,7.89,7.74,3.3,3.51,7.32,6.33,10.24,10.21.78,1.12,2.25,1.28,3.52,1.43,1.94-3,.87-6.77,1.49-10.08a157.78,157.78,0,0,0,.1-19.93c-.67-13.63.45-27.3-.24-40.93-.68-18.47.55-37-.14-55.47-.78-8.75.41-17.6-.36-26.37a40.48,40.48,0,0,1,.1-9.14,60.16,60.16,0,0,0,.06-11.85c-.66-14.71.48-29.46-.21-44.17-.65-4.27-.14-8.63.12-12.91a148.78,148.78,0,0,0,.1-19.92c-.39-10.22-.24-20.49.25-30.7.65-3.52.24-7.15,0-10.68-.59-16.89.51-33.81-.15-50.7-.49-2.48-.1-5,.07-7.51.17-2.06.29-4.12.33-6.17-5.89-1.34-12.11-.46-18.09-.39m-201.61.41c-12.48.07-25-.54-37.44,0-5,.49-10-.1-15,.46-9.86-.2-19.74-.93-29.59-.23a185.31,185.31,0,0,1-21.08-.2c-3.37-.64-6.84-.22-10.22-.05-5.79.51-11.63,0-17.43.16-.16.25-.46.76-.62,1-9.52-.15-19-.36-28.54-.18a6.58,6.58,0,0,0-1.26,6.07c.84,4-1.3,7.79-.6,11.77-.24,6.17.42,12.35-.27,18.51-.56,4.89-.23,9.85-.36,14.77.05,11.59-.46,23.2,0,34.79,1.39,6.19.71,12.57.47,18.84-.91,10.89,0,21.86-.83,32.76.6,9.16-.25,18.35.37,27.51.45,5.1-.17,10.27.65,15.35,4.86,1.06,9.92.52,14.86.34,9.14-.63,18.32.32,27.47-.33,3.28-.51,6.62-.12,9.93-.2,8.88.2,17.79-.16,26.67.48,4.79.46,9.63.18,14.44.61l4.18-.65c10.84-.34,21.71.46,32.55-.14,9.66-.78,19.4.42,29.08-.33,2.56-.46,5.16-.18,7.76-.22,7.38.16,14.8-.2,22.16.57,1.23.15,2.15-.89,3.15-1.45,0-17.16.61-34.32.1-51.46-.72-6.07.24-12.23-.4-18.31-.47-3.2-.18-6.47-.5-9.68-.61-8.43.32-16.89-.33-25.32a45.86,45.86,0,0,1-.22-7.22c.21-22.45.3-44.9.52-67.35-1.33-.59-2.75-1.44-4.29-1-8.42.78-16.9.15-25.34.25M580.1,608a65.2,65.2,0,0,1-6.69.22q-63.27-.52-126.54-.94c-5.31,0-10.63-.23-15.92.17-8.13.83-16.37-.63-24.48.6-1.63,6-1.07,12.2-1.2,18.31,0,7.1-.35,14.2.14,21.3.46,4.82,0,9.7.43,14.54.66,13.8-.48,27.66.23,41.47.54,3.2.11,6.48-.13,9.72a21.67,21.67,0,0,0,0,3.69c.48,2.32.06,4.67,0,7-.62,7.42-.27,14.89-.43,22.33.06,9.79-.46,19.6.07,29.39.41,2.5.11,5,.27,7.56l.64.73c11.52,0,23.06.48,34.57,0,15.44-.69,30.92.55,46.36-.25a16.41,16.41,0,0,1,5.69.76c5.5.38,11,.15,16.57.26,0-.26,0-.8,0-1.07,6.38.1,12.78-.12,19.15.42a198.79,198.79,0,0,0,23.16.15c4.34-.63,8.76,0,13.15-.17,18.76,0,37.54.63,56.3.13,5.88-.59,11.85-.18,17.76.15,4.08.64,8.26.24,12.38.07,3-.38,6.09-.23,9.15-.5a40.37,40.37,0,0,1,8.65.14c9.67-.4,19.37-.37,29,.18,7.41.59,14.87.25,22.32.42,8,0,16,.39,24-.11,10.29-.53,20.62.06,30.93,0,0-1.46,0-2.91,0-4.35-.67-.25-1.33-.49-2-.7-6.3-5.16-11.52-11.49-17.91-16.54-2.1-1.32-3-3.79-4.85-5.39-3.62-3.39-6.43-7.52-10.28-10.67a2.69,2.69,0,0,1-2.09-2.3L737.09,743l-1.44-.19c-4.56-5.3-10.18-9.68-14-15.58l-1.52-.11c-.65-.79-1.3-1.58-1.89-2.41-1.16-.64-2.58-1.28-2.63-2.8-2.43-2.58-5-5-7.55-7.47a49.68,49.68,0,0,1-9.64-8.67c-1.53-2.54-3.88-4.39-5.69-6.7l-1.43-.19a55.59,55.59,0,0,0-4.75-5c-2.81-3.12-5.41-6.41-8.33-9.43l-1.82-.91c-.07-.32-.21-1-.27-1.28-2-1.26-3-3.44-4.91-4.8-2-1.32-4.26-2.53-5.68-4.57-5.87-7-12.44-13.4-18.93-19.82a16.77,16.77,0,0,1-3.37-1.94,4.21,4.21,0,0,0-1-1.85l-.36-1.14a9,9,0,0,1-3.47-2.5c-2.56-3.32-5-6.92-8.57-9.19-2.87-1.78-4.53-4.8-7.09-6.91-1.67-1.41-2.71-3.47-4.63-4.53-3-1.63-4.49-4.85-7.1-6.91-3.21-3.26-7.26-5.74-9.76-9.63-2.38-.19-4.79-.27-7.15-.47a81.82,81.82,0,0,0-14,0M243.24,606.7c-4.71.39-9.47-.22-14.18.25a5.4,5.4,0,0,0-2.41,1,17.3,17.3,0,0,0,.63,3c2.15,2,3.73,4.51,6,6.42a43,43,0,0,1,9,9.81,5.75,5.75,0,0,1,3.21,1.69c1.33,1.71,3.12,3,4.26,4.9,3.77,3.92,7.52,7.9,11.37,11.76a20.55,20.55,0,0,1,6.75,6.72c1,1.92,3.05,2.74,4.72,3.91,2.41,1.33,3.45,4,5.36,5.93a150.71,150.71,0,0,0,12.41,11.83c3.75,4,7.82,7.59,11.51,11.6a5.22,5.22,0,0,1,1.31,3.62c1.58.94,3.51,1.31,4.86,2.63,1.5,1.38,3.05,2.68,4.6,4,.06.35.17,1,.23,1.37a57.18,57.18,0,0,1,7.7,7.39c2.34,3.31,4.86,6.73,8.47,8.76a6.41,6.41,0,0,1,2.56,3.39l1.21.35c1,1.68,2.75,2.66,3.89,4.21,4.08,4.92,9.52,8.41,13.73,13.19,2.86,2.17,4.68,5.35,7.35,7.73a111,111,0,0,1,8.83,8.39c.92,1.56,2.43,2.59,3.71,3.83,2.73,2.31,4.49,5.61,7.54,7.55,4.89,3.38,7.62,9.07,12.52,12.41,2,1.18,3.23-.76,3.61-2.26a86.05,86.05,0,0,0-.18-10.41c-.45-5.56,0-11.15-.41-16.71-.46-3.21-.18-6.49-.5-9.7a30.26,30.26,0,0,1,.08-7c.76-7,.35-14,.15-21-.62-23.5.63-47,0-70.54-.58-8.49.12-17-.1-25.52.37-1.68-.36-3-1-4.37-5.5,0-11-.24-16.48.2a29.56,29.56,0,0,1-6.91-.1c-8.89-.56-17.81-.28-26.71-.44-8,0-16-.39-24,.11-4.17.56-8.42,0-12.61.17-15.17-.3-30.36.13-45.51-.62-5.48-.31-11.17-1-16.52.56"></path></g></g></g></svg>