<svg fill="currentColor" xmlns="http://www.w3.org/2000/svg" viewBox="0 0 1000 1000"><g class="cls-1"><g id="Shapes"><g id="Shape_133" data-name="Shape 133" class="cls-2"><path class="cls-3" d="M461.83,236.87a4.37,4.37,0,0,1,.85.92c-.14.25-.31.47-.46.69h-.71c.11-.54.23-1.07.32-1.6"></path><path class="cls-3" d="M795.41,408.26a30.38,30.38,0,0,1-.08-5.56,12.18,12.18,0,0,0-.07-2.7,23.63,23.63,0,0,1,0-4.37c0-.27.07-.53.09-.79,0-7.65-.4-15.3-.25-22.95a20.58,20.58,0,0,0,.06-3l-.43-.29c0-.83.09-1.77-.66-2.34-.66-1-2.12-1-2.75-2-1,.27-1.12-.65-1.53-1.19-1.57,0-2.7-1.24-4-2l-.78-.12a25.42,25.42,0,0,0-2.32-1.56,6.12,6.12,0,0,0-2.31-1.33c0-.28-.07-.55-.09-.82-3.34-.61-5.83-3.16-8.87-4.53-.21-.33-.42-.64-.63-1a5.85,5.85,0,0,1-1.39-.64,2.23,2.23,0,0,1-1.24-.6c-.93-.83-2.19-1.08-3.15-1.85-.71-.51-1.6-.81-2.08-1.57-1.47-.35-2.57-1.48-4-1.94l-.58-.55-.59-.08a2.25,2.25,0,0,0-1.37-1.1c0-.22,0-.44,0-.66l-.52.26a16,16,0,0,1-2.42-1.46c-.2-.27-.4-.52-.6-.77l-.79-.09a3,3,0,0,0-2.09-1.12c-1.33-1-2.85-1.66-4.18-2.63-1-.76-2.24-1.05-3.17-1.84l-.68-.45a7.36,7.36,0,0,0-2.77-1.54,12,12,0,0,0-1.85-1.57,2.93,2.93,0,0,1-1.4-.87,3.36,3.36,0,0,1-.66-.52l-.78-.09-.3-.39-.83-.07a13.74,13.74,0,0,0-4.59-3.15c-.19-.26-.39-.52-.59-.77a5.34,5.34,0,0,1-2.28-1.14c-.72-.5-1.69-.68-2.18-1.46a3,3,0,0,1-1.62-.64c-.7-.95-2-1.17-2.86-1.92-1.24-1.05-2.89-1.43-4.13-2.46a27.8,27.8,0,0,0-4.07-2.56l-.13-.95-1.27.13c-.37-.26-.75-.49-1.13-.72a7.73,7.73,0,0,0-1.64-1.32c-.13-.18-.25-.36-.36-.53-1.27,0-2.19-1-3.21-1.57a12.93,12.93,0,0,1-2.62-1.73l-.74-.15c-2.53-2.14-5.75-3.22-8.27-5.37a15.82,15.82,0,0,1-2.09-1.07c-1.21-1.32-3.14-1.84-4.35-3.21l-.76-.11c-.2-.18-.27-.58-.58-.58-.86.27-1.19-.39-1.67-.82-.66-.68-1.62-.94-2.3-1.57-.74-.4-1.5-.79-2.2-1.2,0-.18,0-.53,0-.7l-1.08,0,.12-.65c-.36-.52-1,.06-1.47-.13s-.7-.4-1-.61c.07-.21.15-.43.23-.64h-.9c-.11-.21-.21-.43-.3-.64a8.08,8.08,0,0,1-.8.16c-.4-.18-.18-.57-.14-.87h-1.06l0-.65q-.82-.09-1.62-.21c.07-.11.19-.34.26-.45l-.83-.09a10.23,10.23,0,0,0-1.78-1.19,20.6,20.6,0,0,0-2.61-1.49c-.21-.4-.42-.8-.62-1.2a6.36,6.36,0,0,1-1.45-.1c-1-.63-1.87-1.51-3.06-1.53a6.69,6.69,0,0,1-.57-1.25,8.55,8.55,0,0,1-2.39-.76l-.31-.63-.57-.08c-.32-.65-1.38-.61-1.32-1.46a6.9,6.9,0,0,1-3.5-1.48c-1.73-1.24-3.76-2.05-5.26-3.61l.57-.13a4.82,4.82,0,0,0-3-1.08l0-.18h.45l0-.25-1.08.19c-2.08-1.72-4.78-2.69-6.59-4.75-.41-.12-.81-.25-1.22-.35-.19-.19-.38-.38-.56-.58l-.82-.07a9,9,0,0,1-1.31-1.23l-.74-.11c-.08-.64-.63-1.36-1.44-.88,0-.28,0-.57,0-.86l-.64,0-.55-.57a3,3,0,0,1-1.9-.83c-.61-.16-1.3-.29-1.61-.91-.63-.35-1.24-.7-1.83-1.1a10.42,10.42,0,0,1-3-2,4.38,4.38,0,0,1-1.31-.52,16.19,16.19,0,0,1-3.49-2.64c-1-.05-1.72-.91-2.65-1.22a10.9,10.9,0,0,1-2.31-1.56c0-.28-.06-.56-.07-.84-.7,0-1.49,0-2-.54-.74-1-2.12-1.22-2.67-2.35l-.82-.07c-.29-.24-.58-.48-.85-.74-1.8-.2-3.17-1.49-4.62-2.42a3,3,0,0,1-.86-1l-.37.21c-.21-.27-.4-.55-.58-.83l.65-.17a3.91,3.91,0,0,0-.73-.68c0,.36-.09.73-.13,1.09a5.69,5.69,0,0,1-2.33-1.8l-.81-.07L594,242l-1.54-.53a10.88,10.88,0,0,0,.17-1.26,5.81,5.81,0,0,0-1.47-1c0,.5-.56.61-.93.41-1.17-1.12-2.91-1.37-4.07-2.53-1.17,0-2.33-.06-3.49-.12-2.21-.42-4.43.1-6.64-.13a5.47,5.47,0,0,0-2.36.34c-.93-.3-1.89,0-2.83,0-3.29.18-6.59.28-9.87.18a.88.88,0,0,0-.89-.25c-.89.67-1.17-.14-1.35-.69l-.53,0-.44.21c-.17.29-.36.57-.54.85-.88,0-1.76,0-2.63-.06-.71-.13-1.44-.17-2.15-.26-1.24.25-2.53.2-3.78.36a44.79,44.79,0,0,1-5.56.16c-.06-.09-.18-.27-.25-.36a9.56,9.56,0,0,1-1,.17c-.34-.46-.74-.5-1.09,0a5.12,5.12,0,0,1-2,.25l-4.4-.2a10.27,10.27,0,0,0-1.57,0,12.66,12.66,0,0,1-5.93.11c-.53.09-1.78-.81-2,.08l-3.23.23a16.3,16.3,0,0,1-3.42.06,5.77,5.77,0,0,0-1.81,0,10.45,10.45,0,0,1-1.9.16l-.31-.43-1.8-.16a18.06,18.06,0,0,1-5.82.38c-1-.15-1.95-.15-2.9-.23-.31-.09-.5.15-.68.35a23.91,23.91,0,0,1-3.69,0,42.45,42.45,0,0,0-6.86.16c-1.72.09-3.35-.68-5.08-.32l-.5-.47c0,.2,0,.58-.05.78a7.1,7.1,0,0,1-2.05-.46l.25-.46c-.79-.87-1.9-.13-2.8.17.71,0,1.49-.06,1.77.7-1.53,0-3.05.12-4.57.24a18.84,18.84,0,0,1-4.31.08c-4-.12-7.92.1-11.88,0-2.37.09-4.75-.17-7.12-.11s-4.8.2-7.2.18l.72-.46.48.29.7-.46-1.76-.13-.82-.09c.15.31.32.6.49.89a63.17,63.17,0,0,1-9.33-.08c.08-.21.15-.43.22-.65-.88,0-1.77,0-2.65-.06-.14-.3-.46-.36-.75-.43-.07.13-.23.39-.31.52a12.18,12.18,0,0,1-4.34-.11,37.83,37.83,0,0,0-3.81.5v.18a10.37,10.37,0,0,0,2.23.25l0,.18c-1.95,0-3.91,0-5.84.23-1.08.28-2.11-.33-3.1-.66a26.26,26.26,0,0,1-5.6.39c-.23-.17-.46-.33-.69-.47,0,.15-.1.46-.13.62-.24-.15-.47-.31-.69-.47l-.56,0-.3.72a9.12,9.12,0,0,1-1.16-.22l.29-.53a1.82,1.82,0,0,0-1.43,0l.28.56a19.79,19.79,0,0,1-3.69,0c-1.71-.26-3.42.06-5.13-.11a22.8,22.8,0,0,0-2.34.17c-.08-.11-.24-.34-.33-.45a5.4,5.4,0,0,0-1.27,0c0,.19,0,.56,0,.75h-1.57c-1.07.43-1.64-.78-2.65-.61-.05.82-1.24.18-1.6.44-.34-1-1.79-.28-2.51-.57l-.22.31c-1.41.54-3,.2-4.43.41,0-.12,0-.35-.05-.47l-.41.19a3,3,0,0,0-1.89.19,19.66,19.66,0,0,0-4.2.06c-.93.2-1.88.29-2.81.42l0-.25h.69v-.46l-2.52.06c.06.11.18.31.23.41a8.63,8.63,0,0,1-2.48.33c0-.12,0-.36,0-.48l.52-.13a2.67,2.67,0,0,0-1.65-.19,10.52,10.52,0,0,1-2.38,0l-.32.1c-.52-.18-1.14-.29-1.48.25,1.09,0,2.16,0,3.25,0,.06.11.2.32.27.42l-4.58.1c-.1-.23-.21-.46-.31-.68l-.58.18-.49-.32a7.64,7.64,0,0,1-2.61.06,32,32,0,0,0-5.27.08l-1.56.26c.81.73,2,.15,2.94.2a19.58,19.58,0,0,1,5.13,0V240c-1.57,0-3.13,0-4.69.2-3.28.35-6.61.12-9.91.27-2.83-.06-5.69.35-8.49-.11l1-.67a7.45,7.45,0,0,0-3,.51c0-.18-.05-.56-.07-.75-.38.1-.76.22-1.13.35.32.27.67.53,1,.8-1.23,0-2.46.08-3.69.11,0-.12,0-.36,0-.47l-.37.22-.25-.49c0,.19,0,.56-.05.75h-.9c0-.31,0-.61,0-.92h-.23c0,.17,0,.5,0,.66-3,.55-6.15.16-9.21.53a14.83,14.83,0,0,1-2.21-.15c.06-.28.13-.57.21-.85-.62-.15-1.24-.29-1.85-.46-.23.19-.46.38-.67.59a10.45,10.45,0,0,1,1.27.5l-1.44.1c0-.18,0-.53,0-.71l-.56.09c-.53,1-1.86.53-2.72.78a40.21,40.21,0,0,1-6.94,0c0,.14,0,.43-.08.58a7,7,0,0,1-.7-.52,33.16,33.16,0,0,1-7.25.19,13.89,13.89,0,0,1-3.53.09,14,14,0,0,0-3.71.11c-.4-.16-.16-.55-.1-.86l-.85,0,.25.66h-2.44a2.06,2.06,0,0,0-1.43-.38l-.28.47c-3.38,0-6.75.24-10.12.05l-3.22-.14c-.35-.09-.79-.14-.89-.55l-1.39.11c-.86.09-1.71.16-2.57.22l-.75.58c-.45-.12-.91-.22-1.36-.33a.92.92,0,0,1-1-.17l-.76-.25c-.09.07-.27.22-.35.3a38,38,0,0,0-4.27,0c-1.34.18-2.69-.2-4,.1-1,.14-2.1-.32-3.15.06l-3.23,0c-3.25-.3-6.55.2-9.81-.07-1.38-.18-2.82.09-4.15-.35-.87-.34-1.83,0-2.72,0a15.83,15.83,0,0,1-1.69,0c-.06.1-.19.31-.26.41-2.37-.44-4.78,0-7.17-.24-4-.29-8.07.24-12.1,0-.86-.17-1.69-.46-2.57-.57l-.32.5a12.48,12.48,0,0,0-3.28-.33c-1.08-.49-2.35,0-3.49-.25l-.29.45-.58-.06c-.24-.14-.57-.59-.83-.22-.77.67-.59,1.82-.71,2.71s-.1,1.83-.18,2.74a61.39,61.39,0,0,0,.17,8.25c0,1.28.09,2.56,0,3.84-.19,1.86.16,3.79-.38,5.6a18.44,18.44,0,0,1,.45,5.24c0,2.64.15,5.27,0,7.9a4.19,4.19,0,0,0,.1,3.26c-.59,5.39.69,10.92-.46,16.27.06,1,.17,2,.26,3.07s.16,2,.28,3a12.74,12.74,0,0,1,0,3c-.33,1.94.16,3.91,0,5.86a38.91,38.91,0,0,1-.09,6c-.32,4.76.18,9.51.12,14.27-.2,2.2.26,4.39-.14,6.58l-.41.29c0,.38,0,1.16,0,1.54l.47.29a5.51,5.51,0,0,1-.34,2.1c.06.71.14,1.39.26,2.09.13.23.37.46.3.75-.2,2.16.05,4.35-.45,6.48.08,1.4.68,2.77.35,4.19a5.72,5.72,0,0,0,.05,2.06,8.33,8.33,0,0,1,0,1.58c-.38,1.81.33,3.65.05,5.47a22.7,22.7,0,0,0,.11,4.36,5.62,5.62,0,0,1,0,1.83,18.92,18.92,0,0,1,.07,3.61c0,1.45-.09,2.91-.16,4.37a30.44,30.44,0,0,0,0,3.82,24,24,0,0,0,.11,3.49,4.81,4.81,0,0,1-.08,2.38,18.63,18.63,0,0,0-.09,4.72c.4.45,1,.84.67,1.62l-.46.3c0,6.28.33,12.55.19,18.83-.14.77-.15,1.55-.22,2.34.11,1.12.22,2.24.31,3.37.11,2.18-.25,4.37.12,6.55-.05,2.76.39,5.51.11,8.27a9.94,9.94,0,0,0,.08,3c.25,1.23-.55,2.38-.16,3.6.39,1.41,0,2.87.29,4.3.09.3,0,.46-.34.49A12.6,12.6,0,0,1,202,448l-.52.33c0,.32.11.63.18.95a23.1,23.1,0,0,1,0,4.4,78.15,78.15,0,0,1,.17,9.56c-.18,3.15,0,6.3,0,9.46s0,6.17.29,9.24c.07,1.24-.63,2.42-.19,3.67a6.5,6.5,0,0,1,0,1.82,11.08,11.08,0,0,0,0,3.2,10.92,10.92,0,0,1,0,3,47.2,47.2,0,0,0,0,5.58c.07,8.71.43,17.43.3,26.15-.21,1.43,0,2.88-.16,4.33a64.42,64.42,0,0,0,.14,8.45,11.34,11.34,0,0,1,0,3.19,21.76,21.76,0,0,0,.1,4.19,38.92,38.92,0,0,0-.1,9.28,10.91,10.91,0,0,1,0,2.74,5.66,5.66,0,0,0,0,2,10.54,10.54,0,0,1,0,3c-.29,2.68.13,5.39-.1,8.09a58.67,58.67,0,0,1,.33,11.85c-.15,4.69.63,9.37.32,14.06a81.25,81.25,0,0,0,.14,9.36c0,.36.13,1.09.17,1.45l-.46,0c.75,6.41,0,12.94.76,19.36a5,5,0,0,1,2.58,2l1.5.06a12.53,12.53,0,0,1,1.56,1.18,30.41,30.41,0,0,1,4.15,2.65,4,4,0,0,1,1.56,1l.58.1c.91.72,1.42,2.19,2.79,2,0,.16,0,.46.06.62.27,0,.55,0,.83.08a9.21,9.21,0,0,0,1.13.69c.12.17.24.35.37.52A3.08,3.08,0,0,1,223,638.9l.54.12.54.61.87,0c.19.27.38.54.55.83l.79.1c1.06,1.15,2.78,1.33,3.82,2.55l.75.15a3.85,3.85,0,0,0,1,.8c1,.56,1.77,1.52,2.87,1.91.56.9,1.71,1,2.56,1.54s1.38,1.35,2.37,1.27c0,.16,0,.47.05.63h.67l0,.64c1.5-.3,2.38,1,3.25,2a4.46,4.46,0,0,1,3.06,1.74,17.62,17.62,0,0,1,2.4,1.05q.09.38.15.78a5.41,5.41,0,0,1,1.37.35,25.4,25.4,0,0,1,3,2l.12.54c.93-.2,1.51.54,2.14,1,.75,0,1.21.66,1.87.89l.39.25c1.2.32,2.07,1.29,3.11,1.91.81.76,2,1,2.69,1.87a5.2,5.2,0,0,0,2.22.79c-.05.4,0,1-.51,1,.14.52.52.61,1,.36-.07-.12-.21-.36-.27-.48h.69c0,.16,0,.5,0,.67.27,0,.55,0,.82,0,.08.48.59.38,1,.47l.54.57.61.08.28.63h.68c0,.29,0,.57,0,.87a2.57,2.57,0,0,1,1.46.37,14.18,14.18,0,0,0,1.7.58,9.37,9.37,0,0,1,.57.79,19.28,19.28,0,0,0,3.29,1.69c.34.42.77.76,1.11,1.19l.76.14c.79.71,1.91,1.1,2.45,2.08.27-.06.55-.11.83-.15-.05.22-.1.44-.16.67l.64.17c.51-.27.9,0,1.21.44l.58.1.58.54c1.11.32,1.63,1.66,2.87,1.72l.33.33.61.07.56.57c.3.08.61.18.91.29-.05.32-.1.65-.17,1s.13.49.2.75c.7-.33,1,.37,1.41.69.51-.05.95-.43,1.47-.4.43.19.81.46,1.22.69-.06.3-.12.6-.19.91l1.29-.32.06,1a1.75,1.75,0,0,0,1.14.23c1.61.44,2.9,1.59,4.31,2.45.83.59,1.91,1,2.42,1.91l.81.09a6.06,6.06,0,0,0,2.5,1.61l.69.37c0,.37-.24.83.14,1.09.32,0,.51-.24.72-.42.51.19,1,.43,1.5.67,0,.15,0,.47.06.62l.63.05.47.45c-.08.19-.15.38-.22.59l1.36-.17.55.62.6.06c.27.43.56.92,1.14.94a14,14,0,0,1,1.08,1l.77.12.3.62.88,0c.17.2.35.41.52.63l.88,0c0,.29,0,.58.05.89a2.77,2.77,0,0,0,1.35.27,2.07,2.07,0,0,1,1.3.7c.3.29.57.62.85.95a5,5,0,0,1,.77.38c1.39.09,2.12,1.59,3.49,1.76,0,.15,0,.45.06.6h.9c.1.2.19.41.29.63l.81.08c.28.26.56.5.86.73a7.43,7.43,0,0,0,1.17,1.14c.79-.24,1.17.45,1.57.92a2.69,2.69,0,0,1,2.08,1.09c.8-.3,1.31.35,1.61.92,1.15.72,2.62,1.06,3.49,2.17.43.57,1.36.33,1.77,1a6.64,6.64,0,0,1,.95,1.09,2.85,2.85,0,0,1,1.42.41l.48.19c.68.54,1.41,1,2.05,1.59a12.31,12.31,0,0,1,1.82.9l.58.11.12.79c.35.25.64.58,1,.87a25.8,25.8,0,0,0,3.51,1.27c.1.24.2.5.3.76-.26.12-.51.24-.75.37a1.64,1.64,0,0,0,1.14.64c.15-.18.3-.35.46-.51a2.45,2.45,0,0,0,1.1,1.17c.26-1.06,1.29.06,1.88.24.11.35.23.69.34,1l.87,0,.28.41.63.05.53.6.81.1a7,7,0,0,0,1.17.66c0,.15.07.45.1.6l.34-.16c.36.18.74.34,1.11.5.61.46,1.26.84,1.89,1.28.1.44.22.87.35,1.31a3.74,3.74,0,0,1,1.82-.07l-.24.46c1-.42,1.31.63,2,1a9.66,9.66,0,0,1,2.19,2.14l.63.06.26.35c.76-.47,1.2.42,1.71.84.68-.23,1.14.35,1.57.71l.81.09.57.55a1.05,1.05,0,0,1,.73.46l.56.08c-.08.19-.15.39-.23.59.79-.39,1.54.25,2,.87l-.87.2c.4.44.82.21,1.23-.08A12.4,12.4,0,0,0,384,739l.34.32.82.08a19.84,19.84,0,0,0,3.16,2.31c.42.66,1.24.7,1.94.81.11.33.22.68.33,1l.79.1.53.78c.66-.31,1.18.34,1.73.59.65,1,2.15,1,2.75,2.06.48.21,1,.38,1.48.55l.08.6c1.34-.34,1.76,1.43,3.07,1.24,1,1.31,2.76,1.59,4,2.57,1.29,1.48,3.25,2.08,4.91,3,.67.44,1.55.79,1.87,1.6,1.3-.23,2.6.08,3.91-.13a24.24,24.24,0,0,1,5-.1,23.18,23.18,0,0,0,4.56-.06,22.51,22.51,0,0,1,4.19-.17c.82-.31,1.42.32,2.1.58a35.93,35.93,0,0,1,7.26-.14,41.94,41.94,0,0,1,7-.15c2.19.28,4.41-.11,6.62.13,3.8.42,7.62-.33,11.43.06,1.44-.09,2.86,0,4.31-.09a9.66,9.66,0,0,1,2.74-.05,11,11,0,0,0,3,0c2-.14,4.09.09,6.13-.09a79,79,0,0,1,9.61-.16c2.66.48,5.32-.19,8,.1,1.73.29,3.49-.12,5.24-.05a43.64,43.64,0,0,0,5.94-.13,28.94,28.94,0,0,1,3.73-.17l.27.44c4.38-.15,8.75-.25,13.13-.08,1.59.14,3.18-.18,4.79-.11,1.47.24,3-.14,4.45,0a49.41,49.41,0,0,0,8.34-.22c.83-.27,1.54.42,2.37.34a42.18,42.18,0,0,0,4.49-.22c1.83-.09,3.65.11,5.48.16.83,0,1.69,0,2.53,0a19.69,19.69,0,0,0,3.6-.08,32.6,32.6,0,0,1,6.17-.09c2.73.2,5.48-.12,8.22.09a38.49,38.49,0,0,0,4.43,0c.77-.42,1.37.2,1.86.65l0-.46c2.62,0,5.25,0,7.88,0,.67.16,1.19,0,1.92.12l0,.65H593c0-.16,0-.5,0-.66a17.83,17.83,0,0,1,5.36-.22c1.43.22,2.88,0,4.34.17a17.68,17.68,0,0,0,2.72,0c1.8,0,3.65-.41,5.41.18,1.71-.23,3.44-.08,5.17-.25.07.12.22.34.3.45l2.37-.16c1.29-.19,2.59-.16,3.89-.3a5.82,5.82,0,0,1,2,0c.91.13,1.82.09,2.75.21,2.95.26,5.94-.22,8.9.05a7.86,7.86,0,0,1,1,.3l.24-.41c6.92-.15,13.84-.23,20.76-.35a13.1,13.1,0,0,1,3.35.29,59.94,59.94,0,0,1,6-.21v.23h-.69l0,.25a25.28,25.28,0,0,1,5.35-.52l.42.33c2.53-.18,5.16-.55,7.66.11a5.66,5.66,0,0,1,.48-.31,50.68,50.68,0,0,1,5.23,0,68.18,68.18,0,0,1,9.48-.2c4.26.24,8.53-.23,12.8,0a25.17,25.17,0,0,0,3.26.08l.32.43,1.23-.14.43-.23c1.24,0,2.66.35,3.77-.41a2.45,2.45,0,0,1,1,.62c.91,0,1.81,0,2.73-.1s1.82-.21,2.76-.31a5.19,5.19,0,0,1,1.8,0c1.67.18,3.36,0,5,.14,1.06.18,2.11.08,3.2.18a17.8,17.8,0,0,0,3.42-.06,4,4,0,0,1,1.82,0,10.45,10.45,0,0,0,1.58,0,43.35,43.35,0,0,1,7.56-.12,9.39,9.39,0,0,0,1.82,0c.82-.06,1.67,0,2.52,0,.64-.13.94-.76,1.25-1.27l.63-.05c0,.18,0,.53,0,.71.55.33,1.37.27,1.72.86a7.07,7.07,0,0,1,2.75-.14,15.2,15.2,0,0,0,2.52-.05,4.25,4.25,0,0,1,1.85,0c3.48.17,7-.14,10.47.07,6.3.23,12.62-.33,18.92-.08,1.25.18,2.67-.19,3.86.42,1-.39,2.18-.44,3.07-1.14a.77.77,0,0,0,.27-.66c0-1.27-.08-2.54-.19-3.78a11,11,0,0,1,0-3.19,34.65,34.65,0,0,0,0-4.44c-.13-4.15,0-8.31-.31-12.46a14.34,14.34,0,0,1-.07-3.4c.12-5.49,0-11-.25-16.49.22-3.92-.23-7.85.05-11.77a103.62,103.62,0,0,1-.21-11.69,24.28,24.28,0,0,0,.07-3.3c-.16-5.4-.07-10.81-.38-16.2,0-7.91-.16-15.83-.28-23.74a10.51,10.51,0,0,1,.38-3.58l-.39-.13c-.3-10.17-.33-20.35-.55-30.53,0-1.36-.28-2.82.35-4.09a18.66,18.66,0,0,1-.37-2.86,26.53,26.53,0,0,1-.05-5c.22-1.74,0-3.51.14-5.25a11.47,11.47,0,0,0-.09-3.41c-.14-1.09.6-2.1.2-3.19a12.82,12.82,0,0,1-.28-4.78,43.52,43.52,0,0,0-.15-6.85c.13-1.84-.13-3.67,0-5.5a10.37,10.37,0,0,0,0-1.58,9.31,9.31,0,0,1,0-3c.26-4.33-.26-8.68,0-13a37.36,37.36,0,0,0-.11-6.17,64,64,0,0,1-.22-6.49c.05-2.26-.4-4.62.38-6.8l-.49-.3c0-4.53-.31-9.06-.09-13.58.09-1.69-.69-3.3-.33-5a18.92,18.92,0,0,0,0-4.12,37.83,37.83,0,0,1-.2-4.64l.44-.27c0-1.33-.06-2.67-.17-4a28.25,28.25,0,0,1-.18-4.41l.46-.3c-.26-.83-.75-1.67-.38-2.57,0-.43.15-.84.2-1.25-.41-1.14-.06-2.38-.32-3.54a41.78,41.78,0,0,0-.31-6.42,9.23,9.23,0,0,1,.07-3.74,3.76,3.76,0,0,0,.08-1.94,20.34,20.34,0,0,1-.25-4.47,25.37,25.37,0,0,1,.33-5.65,3.09,3.09,0,0,1-.54-2.17c.06-1.47.13-2.93.2-4.39a15.43,15.43,0,0,0,0-1.81,22.2,22.2,0,0,1-.08-5.28c0-5.17-.54-10.34-.25-15.51-.24-2.76-.17-5.54-.38-8.3a16.14,16.14,0,0,1,0-3.26c.48-1.73.12-3.56.32-5.33a9.3,9.3,0,0,0-.34-3.51c.18-1.29,0-2.66.51-3.88a11,11,0,0,1-.36-4.16M585.8,352.33c-.17-.87.17-1.71.05-2.58a36.64,36.64,0,0,1-.2-4.69l.63-.5a2.65,2.65,0,0,1-.44-1.81,54.48,54.48,0,0,1,0-6.26c0-.95.08-1.9.09-2.84l.45-.29c-.12-.71-.27-1.42-.42-2.12-.16-1,.08-2,0-3a10.69,10.69,0,0,1-.31-4.1c.19-1.53-.16-3.07.09-4.61l.66-.68-.71-.54a19.25,19.25,0,0,1,.05-3,25,25,0,0,0-.08-6.35c0-2.6,0-5.2-.13-7.8-.36-1.61.55-3.18.16-4.79-.11-.93-.14-1.86-.23-2.79l-.32-.4c0-2.24.15-4.47.19-6.71-.77-3.13-.3-6.39-.62-9.57-.43-2.23.68-4.43.44-6.68,0-.72-.41-1.37-.39-2.09a10.08,10.08,0,0,0,0-2.33c.22-.49-.66-1.93.3-2.05,0-.23-.08-.45-.11-.68-.17-.62-.11-1.23-.29-1.84-.31-2,.4-4,.41-6,0-.6-.13-1.79-.17-2.39.17-1.36-.76-2.62-.42-4a9.38,9.38,0,0,0,0-1.59,2.5,2.5,0,0,1,.33-2.4c1.37.3,2.09,2,3.58,2a1,1,0,0,0,1.12,1.17,3.71,3.71,0,0,0,1.4.4c.1.28.2.55.32.83l-.22.54c.62,0,1.21-.36,1.83-.11-.15.22-.31.43-.45.65a1.65,1.65,0,0,1,1.89.65l.85,0c0,.17,0,.51,0,.68a6.32,6.32,0,0,0,1.51.77c1.22.88,2.73,1.24,3.89,2.2a1.34,1.34,0,0,0,1,.66l.6.51a5.29,5.29,0,0,1,1,.36c.58.46.8,1.39,1.78,1.2a6.76,6.76,0,0,0,1,.58c.13.35.24.7.34,1,.65.12,1.31.18,2,.24,0,.3,0,.6.07.9l.85-.27.08.66.48.45.32-.14c.55.27,1.21.4,1.57.95a2.62,2.62,0,0,1,1.4.64,15.25,15.25,0,0,1,1.34.93l1,.37a7.37,7.37,0,0,0,.47.67c0,.2-.1.41-.14.61a11.17,11.17,0,0,1,1.31-.2,5.13,5.13,0,0,1,.56.74c-.42.08-.49.45-.55.81.56.15,1.38-.44,2-.08a19.85,19.85,0,0,0,2.66,1.2c0,.28,0,.56.07.84.32.2.65.41,1,.64l.78.14c.79.52,1.69.86,2.53,1.31a8,8,0,0,0,.58,1.79c.23-.22.46-.46.7-.7.24.09.49.19.75.27.6.94,2.06.78,2.53,1.84l.48.17c.89.73,2.12,1,2.93,1.86l.85.06.32.59.75.37a1.2,1.2,0,0,0,1,.66l.56.56.84.06c.17.2.36.4.54.6l.55.11c1.1,1.38,2.83,2,4.38,2.68a8.37,8.37,0,0,0,1.32,1.2l.52.15a8.28,8.28,0,0,0,2.39,1.31c-.06.42-.14.84-.2,1.27,1.23-.59,2.32.38,3.35,1a3.83,3.83,0,0,0,.91.93,8.25,8.25,0,0,0,.39,1.67l.88.27c.19-.39.37-.79.53-1.19a5,5,0,0,1,1.92,1c.1.19.21.39.33.58l.87,0c.1.28.2.56.31.84.73.3,1.67.31,2.15,1a7.9,7.9,0,0,1,4.12,3.22c.47,0,1-.29,1.43-.15,1.39,1,2.75,2,4.13,2.93,1.52.32,2.53,1.59,3.9,2.25a17,17,0,0,0,2.82,1.51c.78,1.24,2.17,1.67,3.44,2.22.08.28.15.6.45.73a8.68,8.68,0,0,1,3.7,2c.25.34.54.67.83,1l.63,0,.28.41.66,0c0,.16,0,.48,0,.64l1,.34a5,5,0,0,0,1.33.49c.38.23.78.41,1.18.62.43.62,1.22.73,1.84,1.1a3,3,0,0,1,.68.5l.57.08a1.19,1.19,0,0,1,.34,1.38c.24-.09.48-.18.74-.26.06.52.61.41,1,.48l.57.77c.62.21,1.23.46,1.87.63a3.49,3.49,0,0,0,2.61,1.26c0,.15.06.44.07.58a2.09,2.09,0,0,1,1.12.3c-.06.23-.13.46-.2.69.35.1.7.18,1.06.26.2.14.4.29.62.43-.07.82.76.4,1.25.36l.53.9.86,0,.53.61.59.09a7,7,0,0,0,.91.69c.12.26.25.51.38.77l.53.12a2.34,2.34,0,0,0,1.43.42,1.14,1.14,0,0,0,.13,1.09c.1-.37.44-.46.79-.52.41,1.1,1.63,1.37,2.57,1.83,0,.15.05.45.07.6a1.51,1.51,0,0,1,.77.42c.34,0,.68,0,1,.08a11,11,0,0,1-.15,1.15l.83.23c-.09-.23-.17-.45-.24-.68l.93,0,.08.61a7.34,7.34,0,0,1,2.09,1.33l.5.16c.34.43.93.48,1.43.65l.6.5a7.53,7.53,0,0,1,3.25,2.24l.53.14c.28.25.56.49.86.72.4.4.58.87,1.39.69.42.32.9.59,1.34.92l.61.07c.18.26.37.54.55.82l.79.1a6.74,6.74,0,0,1,1.48,1.44c.67-.33,1.23.23,1.79.53,0,.29,0,.57.06.86l1.28.05c.79.57,1.85.87,2.47,1.66.75.38,1.53.76,2.32,1.08a13.93,13.93,0,0,0,3.32,2.13l0,.66.65,0c.08.08.23.26.31.35a10.89,10.89,0,0,1,3.21,1.57c2,1.36,4.09,2.55,6,4l.58.1.54.59.58.1a9.78,9.78,0,0,0,1.33,1c1.27.92,3.05,1.26,3.91,2.69.55.26,1.23.36,1.62.88l.55.11.54.83c.64-.44,1.16.2,1.47.6,1.31.87,2.83,1.34,4.17,2.16a3.36,3.36,0,0,1,.63,1c1.43.12,2.32,1.49,3.72,1.75,1.06.88,2.41,1.3,3.49,2.18.82.71,2,1,2.75,1.78a1.92,1.92,0,0,1,.9.72,13,13,0,0,0-2.25,0,6,6,0,0,1-2.06,0,21,21,0,0,0-4.56.09,25.74,25.74,0,0,1-5,.06,15.43,15.43,0,0,0-3.4.07,19.79,19.79,0,0,1-4.35.06,65.91,65.91,0,0,0-9,.17,12.92,12.92,0,0,0-3.11,0,9.21,9.21,0,0,1-1.57,0,30.77,30.77,0,0,0-6.07.13c-9.25-.28-18.5.36-27.74.19a15.33,15.33,0,0,0-4-.1,10.09,10.09,0,0,1-1.8-.37,1.68,1.68,0,0,0-1.06.6l-1.26-.1c.06-.13.18-.39.23-.52-.34,0-.67.09-1,.16a22,22,0,0,1-6.06.07c-.33-.08-.32.42-.49.59l-3.3-.06a3.54,3.54,0,0,0-1.08,0,12.79,12.79,0,0,1-2.76.08c-1-.1-2,0-3-.21-1.36-.31-2.63.36-4,.41a4.59,4.59,0,0,1-.62-.36c-3-.57-6,.62-8.91-.07a9.12,9.12,0,0,0-1.57,0c-2,.27-4.13.08-6.17.34-1,.09-1.91.14-2.86.18,0-.1,0-.31,0-.41a14.35,14.35,0,0,1-2.44.12,8.37,8.37,0,0,0-1.8,0c-.56.07-1.11.12-1.66.16,0-.66-.67-.37-1.07-.33-1.45.19-2.91.05-4.34.31-3,.27-6,.17-9,.26a49.85,49.85,0,0,1-7.23-.13c0-.29,0-.57-.06-.85l-.7,0-.47.91c-4.56.1-9.12.14-13.68.24a18.57,18.57,0,0,1-3.08-.08,34.45,34.45,0,0,1-5.47-.13c-1.54-.07-3.06-.18-4.6-.14a46.38,46.38,0,0,1-8.07.45c-2.71,0-5.41.18-8.1,0a22.84,22.84,0,0,1-2.88-.3,24.68,24.68,0,0,1,0-7.72c-.65-2.41-.2-4.91-.38-7.36m2,169.36h-.23c0-1.46-.05-2.9-.07-4.34h.23c0,1.43,0,2.89.07,4.33m.47,3.2a7.76,7.76,0,0,0-.44,2h-.16c0-.83-.42-1.72-.07-2.53l.67.5M497.86,245c0,.33-.91.34-.95,0a.9.9,0,0,1,.95,0m-63.15-6.13a2.63,2.63,0,0,1-1.17.26,5.45,5.45,0,0,1-.35-.68c.54,0,1.19-.13,1.52.42M207.5,250.36c.33,0,.31.54.14.71-.33,0-.31-.54-.14-.71M409.61,647.72c.11,1,.1,2,.29,3-.23.5.64,1.88-.29,2.07a3.5,3.5,0,0,0,.35,1.51,6.86,6.86,0,0,0,0,2.12c.25,1.47,0,3,.12,4.47.12.91-.36,1.79-.23,2.7.38,3-.05,6.06.38,9.05a7.18,7.18,0,0,1,0,1.8c-.13,1.9,0,3.81-.16,5.71,0,2-.22,4,0,6l.45.31a29.9,29.9,0,0,1-.27,5.09,7.82,7.82,0,0,0,0,1.6,9.21,9.21,0,0,1,0,1.58,19.34,19.34,0,0,0,.07,4.56,18.06,18.06,0,0,1,0,3.89,53.48,53.48,0,0,0,.12,7.38c-.28,3.77.27,7.58-.06,11.35a5.81,5.81,0,0,0,0,1.81l.16,2.38-.41.31-.2,1.33.39.24c.05,1.73.09,3.47.11,5.22-.31.16-.6.33-.9.5,0,.16,0,.48,0,.63l.92.29c0,.32-.07.64-.13,1a25,25,0,0,0,.1,5c.16,1.54.16,3.1.18,4.67l-.43.27c0,.16,0,.5,0,.67l-.64,0-.42-.47c-.09-.37,0-.86-.43-1-.66-.12-1.27-.17-1.92-.29,0-.15-.05-.47-.07-.62-1.08.44-1.59-.4-2.1-1.09l-.83-.07-.34-.56a14.36,14.36,0,0,1-2.16-1.05c0-.13-.08-.41-.11-.55a1.71,1.71,0,0,1-1.44-.63c-.32-.15-.64-.28-1-.4-.72-.51-1.51-.89-2.24-1.38l-.51-.16a3,3,0,0,0-1-.85c0-.16-.05-.47-.06-.63l.7-.32a7.49,7.49,0,0,0,.05-.81,15.67,15.67,0,0,1-3,.46c-.21-.19-.43-.36-.63-.53-.06-.43.23-1-.19-1.26a2.4,2.4,0,0,0-.88.2c-1-.71-2.39-.75-3.27-1.67l-.54-.14a5,5,0,0,0-1.39-.9c-.13-.26-.25-.51-.36-.76-.45-.08-.88-.18-1.31-.29.09-.44.17-.88.22-1.32L384,729a4.48,4.48,0,0,0-.36-.56,4.33,4.33,0,0,1-1.24.13,8.52,8.52,0,0,1-1.9-1.33,2.78,2.78,0,0,1,.14-.87c-.28,0-.56,0-.83,0l-.31.49c-1.66-.77-3.52-1.31-4.71-2.77-.05-.28-.08-.56-.11-.82l-1.32.27c-.11-.23-.21-.46-.31-.68l-.81-.08c-.53-.57-1.54-.85-1.32-1.86a7.43,7.43,0,0,1-.73-.44c-.55-.31-1.44.18-1.85-.43-1.12,0-1.58-1.11-2.46-1.59a1.46,1.46,0,0,1-.95-.63l-.76-.11c0-.16-.08-.49-.11-.65l-1.27-.3-1.05-1.53a10.62,10.62,0,0,1-3.16-.92c0-.34.06-.68.1-1-.25-.29-.43-.63-.66-.94a15.11,15.11,0,0,0-1.5.24c0-.17,0-.5,0-.67-1.26.58-2.43-.52-3.37-1.19a1.16,1.16,0,0,0-1.34-1c-.78-.4-1.78-.52-2.32-1.28a11.62,11.62,0,0,1-1.5-.53c0-.18,0-.52,0-.69l-.62,0c-.35-.34-.73-.64-1.08-1a2.24,2.24,0,0,1-1.68-.77,5.35,5.35,0,0,0,.15-.86c-.62-.61-1.83.43-2.1-.67l-.81-.09a11.57,11.57,0,0,0-1-.65c0-.15,0-.44,0-.59-.32.07-.69.28-1,0-1.1-.78-2.46-1.33-3.27-2.44l-.53-.13-.51-.44.23-.42a5.8,5.8,0,0,1-2.36-.6c-.75-.44-1.72-.68-2.12-1.54l-.56-.06c.07-.29.14-.58.2-.86l-.64-.12a11.13,11.13,0,0,0-.85-1c-1.44.32-2.55-.56-3.57-1.41a65.34,65.34,0,0,1-6.33-3.92l-.52-.14a12,12,0,0,0-1.78-1.64c-.35-.09-.84,0-.95-.47-.26,0-.52,0-.79-.06l-.3-.39-.59-.09a8.15,8.15,0,0,0-1.18-.87l-.08-.61a13.32,13.32,0,0,0-1.72-.57,7.84,7.84,0,0,1-1.83-1.09,1.75,1.75,0,0,1-.89-.74l.8-.1c0-.12,0-.35-.06-.47-.57.08-1.14.22-1.72.27-.38-.33-.8-.61-1.2-.91,0-.16,0-.47-.06-.63a4.71,4.71,0,0,1-2.2-.76c-.79-.59-1.71-1-2.51-1.56a26.5,26.5,0,0,0-4.8-2.94l-.49-.18c-1.33-1.13-3-1.79-4.13-3.15a3.32,3.32,0,0,1-1.58-.94c-.28,0-.57,0-.85-.05l-.29-.63-.63,0c0-.15,0-.47-.05-.62a2.31,2.31,0,0,1-1.44-.4l-.54-.12c-.2-.19-.39-.37-.59-.54-.66-.09-.93-.76-1.48-1-.85-.53-1.64-1.09-2.48-1.62a22.09,22.09,0,0,0-2.18-1.22c0-.16,0-.46-.06-.61a8.21,8.21,0,0,1-2.32-.76c.24-.38.64-.37,1-.31-.54-1.2-2-1-3.05-1l-.3-.6a2.56,2.56,0,0,1-1.45-.83c-1.68-.66-3.09-1.84-4.69-2.64.06-.26.12-.52.19-.77a2.34,2.34,0,0,1-1.45-.43,8.66,8.66,0,0,1-1.67-1c-.45-.18-.88-.46-.86-1a3.08,3.08,0,0,0-2.91-.93c0-.16,0-.49,0-.65h-.9l-.31-.59a5.5,5.5,0,0,1-1.21-.61,5.8,5.8,0,0,1-3.38-2.33l-.85,0c-.06-.1-.21-.3-.28-.41l-.64,0q-.3-.4-.57-.81a11.45,11.45,0,0,1-2-.73q0-.47,0-.9a13.56,13.56,0,0,0-3-1.19c.06-.21.13-.41.2-.6a16.13,16.13,0,0,1-6-3.26,1,1,0,0,1-1.19-1.12c-.23-.22-.44-.45-.68-.65-1.33.33-2.34-.88-3.55-1.24l-.08-.6-.83-.08c-.35-.26-.72-.5-1.09-.73-1.13-1.06-2.81-1.32-3.87-2.49-.28,0-.57-.05-.85-.06-.19-.36-.37-.73-.54-1.1l-.41.26a7.34,7.34,0,0,1-1.2-.87l-.6-.09c-.28-.33-.57-.65-.83-1-1,.07-1.55-.67-2.26-1.14-2.08-1.46-4.3-2.68-6.47-4-.35-.35-.83-.29-1.26-.35-.19-.28-.36-.56-.53-.83l-.87,0c-.07-.09-.23-.27-.31-.35a2.35,2.35,0,0,1-1.15-.41c.36-.09.72-.17,1.07-.27a12.22,12.22,0,0,1,3,0c1.67.13,3.36,0,5,.13a30.09,30.09,0,0,0,5.69.17,23.84,23.84,0,0,1,4.39-.1,18.29,18.29,0,0,0,4-.07,11.14,11.14,0,0,0,3.21,0,46.61,46.61,0,0,1,7.09-.12c1.85.12,3.72,0,5.56.28a1.91,1.91,0,0,1,.59.36,16.48,16.48,0,0,0,3.37.24c-.1-.25-.19-.49-.3-.73a12.23,12.23,0,0,1,3.77-.12l2.62.11.4.4c0-.1.11-.3.14-.4.84-.18,1.91.52,2.52-.25l.77.2.34.64c1.06-1,2.51-.72,3.82-.54l.28-.45a31.08,31.08,0,0,0,6.25.06,4.53,4.53,0,0,1,2,.16c1.51-.12,3,.12,4.53,0,2.59-.18,5.19-.13,7.78-.29s5.32.11,8-.18c-.08.22-.17.45-.24.68h.76c-.09-.23-.18-.46-.26-.68,1.5.32,3-.09,4.51.08.79-.21,1.5.25,2.28.33l.3-.52a10.76,10.76,0,0,1,2.12.09c1.64.07,3.28.14,4.92.12.06.09.19.26.26.34a50.74,50.74,0,0,0,5.78-.19c1.74,0,3.49-.25,5.23-.32a56.67,56.67,0,0,0,5.83,0c-.08.3-.16.6-.22.91,1.13.34,2.3-.07,3.44,0l-.24-.41-.56.2c-.06-.9-1.44.09-1.79-.27.11-.2.22-.38.34-.56a33.71,33.71,0,0,1,3.49.24c4,0,8,.1,11.94-.19,1.92.09,3.84,0,5.77,0,.72,0,1.36.63,2.08.24l.4.17.28-.45a35.92,35.92,0,0,1,3.74,0,28,28,0,0,1,2.88.24,15,15,0,0,1,1.51-.07c2.06-.21,4.12,0,6.19-.18.08.19.18.39.28.59a6,6,0,0,1,.85,0l.31-.46c.35,0,.71.1.78.52.22-.16.43-.33.64-.51a3.43,3.43,0,0,1,1.13.38l.82-.4c.27.37.53.75.77,1.15a6.51,6.51,0,0,0,1.79-.49l-.27-.53c1.29-.17,2.59,0,3.87-.22l0,.68c.48.26,1,.53,1.5.15a1.61,1.61,0,0,1,1.91-.9c1.13-.42,1.71.76,2.69.92l.28-.48,1.57.2c0-.14,0-.4,0-.54a2.22,2.22,0,0,1,1.46.42,3.33,3.33,0,0,0,2.33,0,1.51,1.51,0,0,1,1.49.15c1.23-.2,2.48.25,3.71-.06,1.45-.65,2.94.07,4.44,0l.28-.39,2.28.27c.71-.06,1.4-.28,2.13-.3l.53.51a8.58,8.58,0,0,1,0,1.82,9.27,9.27,0,0,0,0,1.58,41.26,41.26,0,0,1,.14,6.67,6.52,6.52,0,0,0,0,1.82c.3,1.73-.13,3.49.1,5.21,0,.59.15,1.32.18,1.95h-.25c0-.12,0-.34,0-.46l-.22,0a15.4,15.4,0,0,0,.16,4M407.2,401.45c.52.77-.29,1.14-.42,1.73.06,1.06.17,2.12.21,3.19h-.47l0-2.28h-.23c0,1.06,0,2.13.05,3.2h.21c0-.15.07-.44.1-.59a1.49,1.49,0,0,1,.63,1.71,16.58,16.58,0,0,1-.07,3.07,10.4,10.4,0,0,0,0,2.73c.35,5.43.24,10.88.37,16.31-.1.07-.31.21-.42.27a21.48,21.48,0,0,0-.19-3.31c-.38-1.78.19-3.58-.22-5.34l-.22,0a20.46,20.46,0,0,0-.07,3.32,26.71,26.71,0,0,1,.1,3.9,25.44,25.44,0,0,1,0,3.15,12.38,12.38,0,0,1,.07,2.51,11.89,11.89,0,0,0,0,3,24.44,24.44,0,0,1,.26,4.84l.38.15.09,2.87h-.23c0-.11,0-.34,0-.46l-.2.05c0,.35-.08.71-.13,1.06.29.85-.33,2.28.56,2.88a9.29,9.29,0,0,1-.05,2.93,3.8,3.8,0,0,0-.15,2.31c.22,2.58,0,5.17.14,7.75-.19,2.63,0,5.26,0,7.89a2.57,2.57,0,0,1-.34,1,74.72,74.72,0,0,1,.36,8.06,76,76,0,0,1,.18,8.93c-.27,6.6.31,13.22.08,19.83-.19,4.14.07,8.3.08,12.45.12,4.53,0,9.07.32,13.6a6.44,6.44,0,0,1,.05,2,10.56,10.56,0,0,0,0,3,57.19,57.19,0,0,1,.11,7.29c.13,1.25.16,2.51.19,3.77l-.48.3a2,2,0,0,0,.44,1.42,7.48,7.48,0,0,1,0,2.06,5.08,5.08,0,0,0,0,1.82c.07,1.31.42,2.78-.25,4a7.06,7.06,0,0,1,.13,4.52c.59.92.3,2.07.36,3.12.13,1.59-.31,3.2,0,4.78a45.81,45.81,0,0,1,.09,6.83c.34,2.09-.05,4.25.4,6.32a16.34,16.34,0,0,0-.45,4.2c-.05.83.46,1.57.37,2.42q.18,7.39.24,14.8a9.92,9.92,0,0,1-.42,2.52l.47-.23q.07,3.53.11,7.07l-.42.27c0,.16,0,.49,0,.65a19,19,0,0,0-3.29.18,25.61,25.61,0,0,1-5.25.09c-2.1-.14-4.2-.06-6.29,0,0-.32,0-.64,0-.95-.9-.32-1.35.45-1.86.94-1.11.41-1.94-.24-2.77-.82a7.36,7.36,0,0,0-2.37.39c-.75-.23-1.5-.3-1.73.52a38,38,0,0,1-6-.54l-.3.47h-.85l-.53-.65a13.92,13.92,0,0,0-5.29.66,16.85,16.85,0,0,1-3.32-.22,17.68,17.68,0,0,1-2.41.11c-1.5-.14-3,.35-4.47.2s-2.81.11-4.2-.1a23.94,23.94,0,0,0-3.28,0c-1.82-.32-3.67-.13-5.49-.43l-.52.69c-3.52.12-7-.31-10.56-.15-.87,0-1.75-.06-2.62-.1l-.29-.42-.61,0-.27.68c-5.1-.15-10.19.24-15.29.24a25.47,25.47,0,0,1-7.73-.7c-.26.17-.49.37-.75.54a9.73,9.73,0,0,0-2.35,0l-2.14.15c-.64-.1-1-.71-1.41-1.13.06.23.12.45.19.68-2.22.27-4.53,1-6.72.28-2.47-.68-4.94.16-7.43.09a15.19,15.19,0,0,1-2.25-.26c-1.42.07-2.76.84-4.19.6-2.44-.24-4.89.1-7.32-.12a22.1,22.1,0,0,0-4.81.08,11.7,11.7,0,0,1-1.56,0c-2.76-.17-5.53.08-8.27-.39-.21.16-.43.37-.72.32-1.93.08-3.86-.18-5.78.09-5.43-.17-10.87.25-16.3,0-.94,0-1.85-.3-2.79-.29l-.12.38q-2.41-.21-4.83-.24c-5,.38-10.08.27-15.1.26a23.45,23.45,0,0,1-3.84,0l-1.48.17-.42-.52a18.09,18.09,0,0,1-.56-4.45,31.76,31.76,0,0,1,0-3.78,23.42,23.42,0,0,0-.08-4.81,3.34,3.34,0,0,1,.25-2.56c-.79-.64-.24-1.83-.32-2.66.06-1.5.08-3,0-4.48h.21c0,.11,0,.34,0,.45h.22l0-1.83h-.23l0,1.14-.21,0a19.39,19.39,0,0,1-.06-5,13.9,13.9,0,0,0-.11-3.41l.48,0a48.19,48.19,0,0,0-.2-5.11,61.4,61.4,0,0,1-.14-8.68,5.87,5.87,0,0,0,0-2,5.66,5.66,0,0,1,0-2.05,13.24,13.24,0,0,0,0-2.52,5.45,5.45,0,0,1,0-2,6.43,6.43,0,0,0,0-1.81c-.1-1-.16-2.06-.18-3.08l.44-.28c-.07-2.16.08-4.33-.18-6.47-.12-.93-.14-1.84-.3-2.74a13.26,13.26,0,0,1-.1-1.87.9.9,0,0,0,.54-.94,15.45,15.45,0,0,1,.06-4.8c.23-1-.71-2-.53-3-.06-2.46-.13-4.92-.27-7.37a28.6,28.6,0,0,0,0-4.14,26.85,26.85,0,0,0,.36-3.79,30.91,30.91,0,0,1-.3-4,6.09,6.09,0,0,0,0-1.81,25.76,25.76,0,0,1-.1-5.48c.1-11.36-.37-22.73-.41-34.09a6.66,6.66,0,0,1,.39-1c-.13-.56-.23-1.13-.37-1.69a52.61,52.61,0,0,1-.09-7.32A15.55,15.55,0,0,0,209,465a27.71,27.71,0,0,1-.08-4.82,17.88,17.88,0,0,0,.12-4c-.15-1.48,0-3-.25-4.43a12.23,12.23,0,0,1-.06-3l.2-3.24c.07-1.67-.05-3.34-.07-5a37.68,37.68,0,0,1-.19-4l.46-.29c0-.56-.07-1.11-.14-1.66-.11-1.46-.22-2.92-.31-4.38a8.66,8.66,0,0,1-.05-1.76c.3-5.18-.29-10.37,0-15.54.25-2.91-.14-5.83,0-8.74L209,404a1.82,1.82,0,0,0-.4-1.36c-.11-.83.13-1.65,0-2.48a27.35,27.35,0,0,1-.1-5.72,112.43,112.43,0,0,0-.2-11.9,11.69,11.69,0,0,1-.06-3.39,46.72,46.72,0,0,0-.12-7.1,6.4,6.4,0,0,1,0-1.8c.22-3-.09-6,.08-8.94a10,10,0,0,0,0-3.19c-.19-2,.27-4,0-6l-.39-.17a16.8,16.8,0,0,0,.26-5.7c-.09-.84-.19-1.67-.3-2.5a13.19,13.19,0,0,1-.06-3.2,34.05,34.05,0,0,0,.1-5.53c-.31-1.49,0-3-.24-4.51-.1-1-.16-2.05-.16-3.08l.38-.22a16,16,0,0,1-.12-4.69,18.71,18.71,0,0,0-.27-4.84c-.22-1.18.23-2.34.22-3.51,0-4.19-.13-8.37-.19-12.55-.25-2,.74-3.85.26-5.8-.36-5.29-.21-10.59-.38-15.88a28.73,28.73,0,0,1,.06-4.45c.12-.84-.15-1.65-.07-2.49.18-4.64-.2-9.3,0-13.93.16-2.55,0-5.11,0-7.66.29.07.58.16.88.21a4.61,4.61,0,0,0,.33-.9,15.43,15.43,0,0,1,1.6,1l.5.18a4.47,4.47,0,0,0,2.85,1.5c.27.34.52.69.77,1.05l.82.07c.43.4.92.74,1.33,1.17a6.38,6.38,0,0,1,1.34.71l.57.11.55.59.54.13c.38.5,1.12.51,1.49,1l.72.87.87,0,.51.87.64,0,.53.61.58.07a1.24,1.24,0,0,0,1.21,1.12c.78.18,1.3.82,2,1.17.2.26.4.5.61.75a4.62,4.62,0,0,1,2.08.65,20.28,20.28,0,0,1,3.75,3.1l.51.15c.45.37.88.82,1.56.72a25.72,25.72,0,0,1,3.26,2.42c1.31.09,2.13,1.19,3,2.07L242,273c0,.11,0,.32.05.43,1-.4,1.92.14,2.88.27.33.43.67.85,1,1.27h.66c.19.27.39.53.57.8a5.09,5.09,0,0,1,2.75,2,5.51,5.51,0,0,1,3.21,2l.6.06c.11.3.23.59.34.88l.59-.18a23.86,23.86,0,0,1,3.39,2.27,5,5,0,0,1,0,.55c1.53-.31,2.43,1.08,3.39,2l.82.06c.1.21.2.42.31.63l.8.08a13,13,0,0,0,1.57,1.16,6.74,6.74,0,0,1,2.11,1.29,1.61,1.61,0,0,1,.88.76l.82.06c.1.21.2.42.29.63l.86,0a2.78,2.78,0,0,1,.76,1.47c.36,0,.77-.18,1.06.12a7.13,7.13,0,0,0,2.55,1.35c.06.32-.2.51-.4.72.21.22.41.43.62.63l.12-.81c1.46,1.2,3.3,2,4.4,3.59l.54.13c.67.85,1.8.81,2.75,1.11a2.81,2.81,0,0,1,.86,1l.57.09.29.4h.88l0,.66.84.06c.43.33.9.6,1.33.93a7.09,7.09,0,0,1,.78.39c0,.23-.1.45-.16.68a6.24,6.24,0,0,0,1.71.5,12.9,12.9,0,0,0,2.56,1.5c-.06.28-.12.55-.17.84.54,0,1.07-.07,1.61-.14a4.76,4.76,0,0,1,2.38,2.42c.07-.13.2-.38.28-.5a10.6,10.6,0,0,1,3.44,2.16l.77.11c.1.21.2.41.31.61l.81.08c.6.87,1.72,1.15,2.46,1.88l.84.07c0,.16,0,.49,0,.66h1.36c0,.16,0,.5,0,.67a17.52,17.52,0,0,1,4.5,2.78c1,.47,1.94,1.13,3,1.57a6.83,6.83,0,0,1,1.39,1.12,3.13,3.13,0,0,0,1.92.81c0,.27,0,.53.08.8a2.56,2.56,0,0,1,1.75.74.9.9,0,0,0,.93.95l.53.53c.35-.08.71-.15,1.07-.2l.35.41c1.81.16,2.65,2.42,4.52,2.31l0,.63c.73.28,1.61.48,1.92,1.3a12.26,12.26,0,0,0,1.22.36c.94,1.07,2.37,1.17,3.47,2l.35.81.81.08c.19.26.4.51.6.78.72.15,1.81.14,1.85,1.12l.45.43c1.36.17,2.1,1.65,3.49,1.76a3.73,3.73,0,0,1,1.63,1.37l1.2.1c.1.2.21.39.32.58.58.07,1.15.2,1.72.32.57,1.16,2,1.36,3,2,.46.2.91.47.84,1a5.27,5.27,0,0,0,1.66.57,4.54,4.54,0,0,0,1.74,1c0,.17,0,.5,0,.67a6.72,6.72,0,0,1,2.17.54c1.1.45,2.46,1.21,2.28,2.62A6,6,0,0,1,360,346c0,.85.87.95,1.59.94,1,.71,2.18,1.28,3.23,2,.3.22.61.45.9.71.59.2,1.3.28,1.6.91l.54.12.58.55a1.75,1.75,0,0,1,1.41.9l.78.1.58.55a7.8,7.8,0,0,1,2.67,1.65c.89.55,2,.77,2.67,1.65a1.26,1.26,0,0,0,.75.42l.34.32.61.07a6.27,6.27,0,0,0,2.39,1.89c.43,0,.86.05,1.29.08l.36.58c.67,0,.81.71,1.17,1.14.47.11,1,.19,1.44.34.65.31,1.12.94,1.84,1.14l.36.28a3.77,3.77,0,0,1,2.36,1.29,2.44,2.44,0,0,1,1.27.78c.52.8,1.76.58,2.19,1.48l1.85.61c1.23,1,2.67,1.72,3.94,2.67.89.76,2.1.94,3.12,1.48-.07.29-.13.59-.21.88a2.19,2.19,0,0,1,1.68.32,6.59,6.59,0,0,1,1.48.79c0,.15.05.46.07.62,1.61.36,2,2.28,2.05,3.69.16,7.22.24,14.45.37,21.67.12.95-.2,1.89-.11,2.84m3.8-33.1a5,5,0,0,1-.66-.72c-1.15-.43-2-1.55-3.31-1.47,0-.16,0-.49,0-.66-.89-.47-1.95-.42-2.7-1.16-.12-.26-.25-.51-.37-.76-.87.24-1.33-.43-1.83-.91l-.62-.06c0-.15-.05-.45-.07-.6a5.29,5.29,0,0,1-1.95-.76,1,1,0,0,0-.94-.7c-.08-.09-.25-.25-.33-.33l-.81-.09a6.91,6.91,0,0,0-1.22-.89c.07-.28.15-.56.23-.83h-1.12c.07-.31.13-.63.19-.94-.6,0-1.19.19-1.79.26l-.35-.38a17.31,17.31,0,0,1-4.12-2.23,3.12,3.12,0,0,1-1.22-.86c-.51-.23-1.1-.37-1.37-.91a17.43,17.43,0,0,1-3.81-1.85c-.66-.61-1.66-.7-2.2-1.45a19.77,19.77,0,0,1-3.28-2.16c-.53-.44-1.25-.52-1.81-.91a17.46,17.46,0,0,1-2.92-1.87l-.84-.06c-.11-.2-.22-.39-.32-.59-.36-.07-.8,0-1-.35a7.64,7.64,0,0,1-.1-.82l-.4,0c0,.12,0,.37,0,.49-2.1-1.5-4.65-2.34-6.49-4.2l-.79-.12a18.81,18.81,0,0,0-2.67-1.65,4.7,4.7,0,0,0-2-1c-.13-.18-.24-.37-.36-.55l-1-.32c0-.27-.07-.53-.11-.79a3.07,3.07,0,0,1-1-.87l-.59-.47a1.88,1.88,0,0,1-1.9-.41c-2.6-.84-4.64-2.86-7-4.13-2.72-1.15-5-3.06-7.61-4.43a30.33,30.33,0,0,1-3.37-2.06c-.45-.79-1.45-.85-2.18-1.25,0-.17,0-.51,0-.68l-.8-.06c-.29-.43-.68-.95-1.33-.76a8.16,8.16,0,0,0-1.68-.82l-.61-.5a16.67,16.67,0,0,1-4.21-2.38,2,2,0,0,0-1.91-1.07c-.11-.2-.22-.4-.31-.59l-.63-.05c0-.11,0-.33,0-.44h.47l-.08-.56a8,8,0,0,0-.71.57c-1.34-.16-2.23-1.44-3.55-1.6,0-.29,0-.58-.05-.87a3.92,3.92,0,0,0-1.8-.47c0-.09,0-.29,0-.38l.53-.1a3.46,3.46,0,0,0-1.46-.84l-.36.19a7.41,7.41,0,0,0-1.19-.44c-.28-.32-.54-.66-.8-1a2.26,2.26,0,0,1-1.18-.43c.27-.15.54-.3.82-.44-.38-.41-.92-.2-1.39-.15a17.77,17.77,0,0,0-2.27-1.13l-.36-.75c-.86.4-1.32-.28-1.4-.92-.87-.21-2.24.12-2.31-1.09l-.49-.12a1.11,1.11,0,0,0-.77-.44c-.28-.32-.54-.66-.8-1-.74.12-1.24-.36-1.81-.68-1.62-.93-3.16-2-4.68-3a11.53,11.53,0,0,1-3-2c-.7.11-1.11-.36-1.55-.74l-.59-.07-.08-.62-.64-.27c0-.29,0-.58,0-.87a2,2,0,0,1-1.67-.4l-.76-.12c-.82-.69-1.91-1.09-2.45-2.06-1,.37-1.59-.7-2.31-1.13a4.6,4.6,0,0,1-2.14-1.06,26.28,26.28,0,0,0-4.16-2.67l-.4-.74-.69-.43c-1.19,0-1.71-1.22-2.71-1.62-1.18-.53-2.1-1.55-3.39-1.85,0-.14-.07-.43-.09-.57-1.14,0-2-.91-2.92-1.42-1.48-1.28-3.24-2.18-4.73-3.44-.91-.37-2.31-.75-2.1-2a2,2,0,0,1-1.83-.63c-1.23-.28-2-1.32-3-2-.79-.49-1.77-.77-2.29-1.6l-.81-.08c-.19-.27-.38-.54-.55-.82l-.6-.08-.08-.61a44.16,44.16,0,0,1-5.37-2.8,3.05,3.05,0,0,0-1.21-1.1l-.09-.81-.62-.06-.47-.43c0-.13.1-.38.13-.51a1.6,1.6,0,0,0-.74.78,1.86,1.86,0,0,1-1.36-1.26,3.78,3.78,0,0,1-1.67-.57,1.13,1.13,0,0,0-1.33-1,6.42,6.42,0,0,1-2.75-2l-.81-.08c.11-.42.19-.88-.18-1.19l-.15.62a2.61,2.61,0,0,1-1.43-1.09,4.17,4.17,0,0,1-2.43-1.2,8.36,8.36,0,0,0-2.71-1.62c-.11-.42-.24-.85-.35-1.27a1.29,1.29,0,0,1-1.41-.14l-.52-.19a6.65,6.65,0,0,0-1.36-.68,9.49,9.49,0,0,0-.85-.94,15.35,15.35,0,0,1-3.94-2.22l-.57-.1-.78-.84a16.52,16.52,0,0,1,2,0c1.9-.07,3.8.61,5.68.18a61.9,61.9,0,0,1,8.17-.15c.88-.06,1.77-.11,2.65-.14l.31.43c1.23,0,2.46,0,3.69.06.64.05,1.31.09,2,.1l.27-.46c3,.41,6-.06,9,.19,4.48.16,9-.05,13.46,0a15.71,15.71,0,0,0,4.11-.06,11,11,0,0,1,4.83.36l.21.34.53-.16.4.38.43-.4c2.07-.31,4.17.67,6.2,0a22.63,22.63,0,0,1,2.47-.06,8.59,8.59,0,0,1,4.21.9,3.78,3.78,0,0,1,1-1.12h-.71c0-.12,0-.36,0-.48a7.37,7.37,0,0,1,2.29.18c-.08.22-.15.45-.22.68l.85.17a4.57,4.57,0,0,1,1.87-.43c-.06-.11-.19-.34-.26-.45a2.06,2.06,0,0,1,1.25-.12c2.83.26,5.66-.13,8.48-.11,5-.39,10-.23,15-.28,2,.13,4,.08,6,.17l.43-.29a37.42,37.42,0,0,1,7.63.07c.7.21,1.28.75,2.08.65,0-.32,0-.64,0-1h.88l.29.43.56-.05c.65-.79,1.83-.24,2.69-.34,1.76.3,3.59-.08,5.31.46,0-.1.12-.28.15-.37,1.88,0,3.73-.32,5.6-.39.08.12.23.35.3.47.74,0,1.49-.19,2.22-.3l.3.68.63,0c.1-.22.19-.44.28-.66l1.78-.06c-.14.24-.29.48-.43.73.31-.16.6-.34.9-.51l-.28-.49c1-.34,2,.14,3-.22.71-.11,1.35.32,2,.37a20.6,20.6,0,0,0,2.6-.37c2.6-.21,5.19,0,7.79-.08,1.25-.09,2.64-.48,3.82.13a8.46,8.46,0,0,1,1,0c1.42-.15,2.87,0,4.28-.27,1.17-.09,2.48-.44,3.54.26l.27-.45a10.18,10.18,0,0,1,1.9.1,20.57,20.57,0,0,0,3.92-.13l.4.38a6.73,6.73,0,0,1,1.79-.14,7.51,7.51,0,0,1,3-.26c1.6.17,3.18-.19,4.78-.07,2.16-.22,4.35-.21,6.52-.22a8.71,8.71,0,0,0-.17.86,4.66,4.66,0,0,0,.81.56c0,.16.13.5.18.67a9,9,0,0,0,.46-.87,5.63,5.63,0,0,0,.9-.71l-.59-.11,0-.19c1.19,0,2.41-.41,3.59,0,.84.34,2.11-.61,2.43.57l.33-.19c0,.1,0,.31,0,.42.36-.11.73-.21,1.11-.29l.28-.28c1.58,0,3-.86,4.63-.51,3-.62,5.89.39,8.85,0-.08.22-.15.44-.23.67.32-.08.66-.13.77-.49a3.41,3.41,0,0,1,2.33.33,5.63,5.63,0,0,1,.37-.62,19.23,19.23,0,0,0,2.28.08,23.62,23.62,0,0,1,4.83-.08c.72-.44,1.2.18,1.69.53.07-.12.23-.36.3-.47a15.11,15.11,0,0,1,1.74.1c1.12-.79,2.41.24,3.62.13.35.42.75.37,1.09-.05a22.39,22.39,0,0,1,3.81.53c0-.1,0-.3,0-.4l.68,0,0-.2-1-.07c1.15-.77,2.62-.26,3.9-.21l.15,1c.15.64.81.07,1.23.05q.14-.33.3-.66c.61.07,1.14.16,1.78.23,0-.12.06-.37.07-.5l.57.17.37-.28c2.19-.07,4.35.39,6.56.24l-.27-.44c3.26-.06,6.52-.16,9.79-.14.18.28.38.55.57.82l.17.05v-.45l1.16,0-.28-.42c1.69,0,3.44-.32,5.09.21a8.37,8.37,0,0,1,3-.26,25.74,25.74,0,0,0,4.56.16,7.78,7.78,0,0,0,1.6,0,8.31,8.31,0,0,1,5.14.72l-.23-.46c.09-.23.19-.46.28-.7l.83.23c0,.17.06.51.07.68.79-.24,1.95.31,2.56-.47l.81-.07,0,.71.65,0c.09-.3.19-.6.29-.9.57,0,1.2.23,1.78.32,1.22-.43,2.53-.13,3.78-.35.18.59.5,1.4,1.43.81q.1-.31.24-.63l-.48-.2,1.38,0a13.39,13.39,0,0,1,5.46.17c1.21-.16,2.44-.3,3.67-.38a12.9,12.9,0,0,0,3.2.59l.32-.48a9.51,9.51,0,0,1,2-.05l-.21.8a5.15,5.15,0,0,0,2.06-.53c.29-.08.46,0,.53.34h2.39c.16-.21.33-.43.51-.64,1.58,0,3.18-.13,4.76-.29,1.29-.19,2.46.79,3.74.49,1.05-.14,2.15-.1,3.2-.31a104,104,0,0,1,10.74-.18c1.77.13,3.56.06,5.35,0,.08.12.23.35.3.47.73-.24,1.43-.57,2.17-.79l.33.52a13.72,13.72,0,0,0,2.11-.16c1.52-.14,3-.17,4.58-.34l2.21,0a26.33,26.33,0,0,0,4.07-.12c.81-.33,1.41.28,2.08.55.81,0,1.63-.2,2.45-.22,0,.34.11.68.19,1,.09,1.24.13,2.48.11,3.72a1.43,1.43,0,0,0-.39,1.38l.7.28a22.53,22.53,0,0,1-.08,3.29c-.09,1.33-.07,2.66-.06,4l-.43.32c0,.33.09.65.14,1,1.09.94.33,2.58.74,3.84a12.3,12.3,0,0,1,0,3,94,94,0,0,0,.15,10.07,33.13,33.13,0,0,1,.11,5.72,11.45,11.45,0,0,0,0,1.55c.09,1.6.09,3.2.1,4.8-.1,1.14,0,2.29,0,3.44a10.46,10.46,0,0,0-.19,3,16.39,16.39,0,0,1,.35,3.12,15,15,0,0,0,0,4.13,60,60,0,0,1,.11,8.37,14.08,14.08,0,0,1,.07,2.34c-.08,1.19-.1,2.37-.07,3.56l-.48,0a10.35,10.35,0,0,0,.18,2.15,14,14,0,0,1,0,3,6.13,6.13,0,0,1,.31,2.65,10.86,10.86,0,0,0,0,2.79c.28,1.12-.46,2.22-.17,3.37a76.92,76.92,0,0,1,.18,9.6c-.16,2.17-.05,4.35,0,6.52-.54.27-1.11.51-1.65.77a4.79,4.79,0,0,0,1.89.62c0,2.61.33,5.25,0,7.85a7.59,7.59,0,0,0,0,1.58c.4,1-.09,1.92-.26,2.87a10.86,10.86,0,0,1,.46,4.25c-1.12.68-.13,2.22-.9,3l-2.18.09c-.62.05-1.17.46-1.8.41-.93-.08-1.84-.19-2.74-.27-2,.25-4.07.1-6.09.35a6.82,6.82,0,0,1-1.8,0c-4.42-.3-8.86.28-13.26,0a5.47,5.47,0,0,0-1.81,0,11,11,0,0,1-4.71-.21,8.46,8.46,0,0,1-3.5.34,11.45,11.45,0,0,1-3.2.06,59.6,59.6,0,0,0-8.24.14c-1.86.5-3.61-.67-5.47-.15a5.66,5.66,0,0,1-2.05,0,5.54,5.54,0,0,0-1.82,0,6,6,0,0,1-2.06,0,5.82,5.82,0,0,0-2,0,19.19,19.19,0,0,1-6.1-.11,21.68,21.68,0,0,1-4.54.42,4,4,0,0,1-2.46-.46c-.08.13-.24.39-.31.52-.37-.06-.89.05-1-.43-2.62-.27-5.38.63-7.9-.36a6.23,6.23,0,0,1-4.13.18,11.25,11.25,0,0,1-3.74.28,33.5,33.5,0,0,0-3.88.07c-4.63.23-9.27.36-13.89.19a10.29,10.29,0,0,1-3,.07,84,84,0,0,0-10,.16,17.14,17.14,0,0,1-4.11.07c-1.75-.16-3.51.07-5.25-.13-1.34-.08-2.67-.13-4-.15a23.13,23.13,0,0,1-6,.3c-4-.28-8.07.28-12.1.16-3.21-.19-6.42.36-9.61,0a8.7,8.7,0,0,0-2.55-.6m168.49,26.49-.28.39a10.12,10.12,0,0,0,.34,3.19,39,39,0,0,1,.09,5.72c.06,1.3-.51,2.51-.5,3.8,0,3,.09,6.08.11,9.12,0,.38-.09,1,.46,1,0,.55,0,1.65.07,2.2.06.88-.57,1.63-.4,2.52-.07,3.69.18,7.38.26,11.07a11.69,11.69,0,0,1,.06,2.71,10.12,10.12,0,0,0,0,3c.31,3.92.19,7.85.31,11.77h-.23l0-1.14-.28,0a4.81,4.81,0,0,0,.42,1.89c.48,2-.7,3.95-.13,5.94.22,2.27.12,4.57.35,6.85a6.77,6.77,0,0,1-.21,2.57,66,66,0,0,1,.14,9.11,4.27,4.27,0,0,0,0,1.07c.42,3,0,6,.4,8.93a17.34,17.34,0,0,1,0,2.5c-.19,8.32.27,16.65.24,25,0,.46-.15.91-.2,1.37l-.42,0c0-.12,0-.35,0-.46h-.24c0,.16.05.47.07.63l.62.27a8,8,0,0,0,.18,1.93,17.34,17.34,0,0,1,0,2.5,31.87,31.87,0,0,0,.08,5.94,25.49,25.49,0,0,1,.09,5.24c-.19,2.86.1,5.72-.08,8.58a98.44,98.44,0,0,1,.15,10.45,12.65,12.65,0,0,0,.29,2.19c0,.81.08,2.44.11,3.25a1.67,1.67,0,0,0-.6,1.83l.4.14c.12,1.66-.87,3.22-.56,4.92l.67.53a29.38,29.38,0,0,1,0,4.4c-.17,2.77,0,5.55,0,8.33l-.43.3a25.23,25.23,0,0,1,.06,4.26l.45.27a34.17,34.17,0,0,1-.29,7.29h.41c0,1.52,0,3,.08,4.57h-.22c0-.12,0-.34,0-.46H581a18.27,18.27,0,0,0,.18,3.3,18.3,18.3,0,0,1-.14,4c.32,1.64.16,3.36.68,5a19.5,19.5,0,0,1,.17,4.52,1.85,1.85,0,0,0-.56.68,16.81,16.81,0,0,0,.38,5.29,1.86,1.86,0,0,1-.06,1.25l.25.46a30.12,30.12,0,0,1-4.83.29c-1.54.26-3-.66-4.5-.21l-.33-.66c-1.24-.14-2.49.77-3.67.3a4.48,4.48,0,0,0-.74.63l-.46,0c-.66-1-2.13-.5-3.08-.6s-1.76.46-2.69.54c-.18-.24-.37-.47-.55-.69l-1.58,0c.08.29.18.58.28.88l-.92,0-.27-.41c-1.26,0-2.51,0-3.74-.08a17.8,17.8,0,0,0-5.35.36c-1.41-.2-2.82-.7-4.26-.46-.8-.06-1.9.52-2.49-.25-2.64,0-5.3,1-7.92.37l.28-.57a2.34,2.34,0,0,0-.95,0c.06.14.2.4.26.53a23.39,23.39,0,0,1-2.49.27c-.07-.12-.22-.38-.3-.5-.37.07-.9,0-1,.47a16.46,16.46,0,0,1-3,0c-2.28-.1-4.57.15-6.84-.12s-4.58.17-6.86.11c-2.59-.25-5.16.21-7.75.16-.74.14-1.4-.35-2.13-.27-1.11.1-2.24-.05-3.35.07l-1.46.17-.29-.45h-1.13c-1.45-.26-2.7.63-4.13.49a4.31,4.31,0,0,1,1.84-.49c0-.15,0-.45,0-.6a14.26,14.26,0,0,1-2.66.54l-.19.35a32.3,32.3,0,0,1-3.41,0c-3.5-.36-7,.21-10.52-.06-2.73-.35-5.51.59-8.21-.11a5,5,0,0,0-1.82,0,14.58,14.58,0,0,1-3.43,0l-5.71.14a20.57,20.57,0,0,0-2.72,0,18.11,18.11,0,0,1-4.35.08c-1.87-.13-3.74,0-5.61-.06-2.1-.19-4.21.28-6.3,0a3.62,3.62,0,0,0-1.09,0c-1.17.51-2.2-.37-3.35-.26a20.41,20.41,0,0,0-4,.17c-.52,0-1.05.06-1.57,0-4-.55-8,.51-12-.24l-.38-.35a.89.89,0,0,1-1.22.45c0-.31,0-.62,0-.93h-.22v.68h-.46l0-1.6h.45c0-.11,0-.34,0-.45h-.45c.12-.83.18-1.66.33-2.48-.2-.42-.57-.81-.5-1.3.22-4.25-.22-8.51,0-12.76.19-3.77-.07-7.54-.06-11.3a21.15,21.15,0,0,0-.17-3.29c-.24-2.63-.19-5.27-.25-7.9a8.34,8.34,0,0,1,.25-2.68l.42-.48-.72,0v-.23l.4,0a23.57,23.57,0,0,1-.37-5.37c-.2-1.91,0-3.82-.09-5.74-.07-.57-.13-1.13-.17-1.68l.47,0c0,.17,0,.51,0,.68l.28,0c.43-1.19-1.43-1.25-.75-2.48l.08-1.22c.15-2.38-.09-4.76.1-7.12.11-1.22-.13-2.44-.08-3.65a112.8,112.8,0,0,0-.18-11.92c.26-3.45-.16-6.88-.05-10.31,0-2.25-.07-4.49-.24-6.72.18-2.25.05-4.51,0-6.76-.12-7.61-.26-15.22-.36-22.83a20.53,20.53,0,0,0-.17-2.84,10.87,10.87,0,0,1-.05-2.73,25.18,25.18,0,0,0-.09-5.49,5.46,5.46,0,0,1,0-1.8,32.06,32.06,0,0,0-.09-6,5.07,5.07,0,0,1,0-1.82c.12-1.22-.13-2.45-.08-3.66.18-1.94.06-3.88.05-5.82-.21-11.79-.37-23.58-.59-35.38a18.38,18.38,0,0,1,.07-3.06c.18-2.59-.08-5.19.12-7.77.08-1.29-.35-2.59-.08-3.87.18-2.26-.12-4.56.43-6.78h-.47a8.4,8.4,0,0,1,.43-1.78l-.46-.43.53-.08c-.24-.83.25-1.93-.47-2.57a29.72,29.72,0,0,1,0-4.81,14,14,0,0,0,0-2.51,9.31,9.31,0,0,1-.05-1.58c.16-2.08,0-4.18.33-6.24a6.05,6.05,0,0,0,.53-.79,12.49,12.49,0,0,1-.64-1.67,2.71,2.71,0,0,0,.8-.71,24.71,24.71,0,0,0,2.7-.28,24.63,24.63,0,0,1,5.82-.41c.07.12.22.34.29.45.86,0,1.72-.07,2.58-.16a11,11,0,0,1,3.19,0c1.8.08,3.58-.15,5.38,0,1.22.21,2.32-.43,3.52-.48.36.73,1.46.45,2.08.47,1.49-.5,3.06,0,4.59,0a1.58,1.58,0,0,0,2-.56,22.17,22.17,0,0,1,3.26,0c1.43.28,2.88-.33,4.31-.05a32.78,32.78,0,0,0,4.54-.09,44.25,44.25,0,0,0,7.55-.1,51.7,51.7,0,0,1,6.7-.16,12.77,12.77,0,0,0,2.46.26,53.7,53.7,0,0,1,6.47-.3,16.65,16.65,0,0,1,4.23.11,44.75,44.75,0,0,0,5.79,0,2.75,2.75,0,0,1,1.72-.34c2.82.25,5.65-.12,8.47.09a22.87,22.87,0,0,0,6.61-.09,36,36,0,0,1,6.4-.1c5.75.21,11.51-.27,17.26,0a4.15,4.15,0,0,0,1-.09,20.53,20.53,0,0,1,4.57-.07c3.51.29,7-.34,10.54,0a1.58,1.58,0,0,0,.64.56c1.31,0,2.48-.74,3.8-.69a24.06,24.06,0,0,1,4,0,10.81,10.81,0,0,0,3,0,26.41,26.41,0,0,1,5-.1c3.42.42,6.85-.22,10.28.06,1.25.09,2.53.12,3.78.29,0,1.26.06,2.53-.06,3.79-.17,1.08.19,2.15,0,3.23l.34.15c.1,3.13.27,6.26.09,9.38a13.59,13.59,0,0,0,.07,3.25M780.14,748.77c-1.47.32-2.93-.09-4.38.19a8.32,8.32,0,0,0-.61-.69,1.33,1.33,0,0,1-1.69.69,9.69,9.69,0,0,0-3.34-.25,58,58,0,0,1-8.23.15,41,41,0,0,0-6.37.13c-3.78-.26-7.57.13-11.35,0-2.27.13-4.54.19-6.8.2l-.28-.45c-.88,0-1.74.06-2.59.15-1.92,0-3.83.64-5.71.12a38.55,38.55,0,0,1-4.81-.24c-.08.58-.71.35-1.1.35a62.89,62.89,0,0,0-9.41-.12c-.64,0-1.18.12-1.78.07-1.47,0-3-.49-4.4,0-1.48.28-2.95-.29-4.44,0-1-.1-2,.33-3,.23-2.6-.31-5.22.2-7.79-.13a52.9,52.9,0,0,0-5.49.16c-.44-.71-1.45-.45-2.16-.63-.11-.22-.22-.43-.31-.65a10.48,10.48,0,0,1-2.54.38c-2,.09-4,.66-6.06.82-1.14-.07-2.27-.06-3.39-.21-.9.52-2,.23-3,.36-.1-.23-.2-.44-.3-.65a11.44,11.44,0,0,1-3.73.17c-.58-.15-1,.41-1.63.28-.84-.06-1.67-.13-2.49-.22-1.76-.12-3.51.07-5.26.09a17.29,17.29,0,0,1-3.87.08,20.07,20.07,0,0,0-4.52.08c-1.59-.6-3.24.35-4.85.09a15.22,15.22,0,0,0-3.44,0,16.6,16.6,0,0,1-6.23-.49l-.53-.8-.63,0c-.17.24-.32.5-.48.76a10.33,10.33,0,0,0-2.36.24,45.81,45.81,0,0,1-5.1.16c-.11-.22-.22-.43-.34-.63a3.43,3.43,0,0,1-2.5.27,8.05,8.05,0,0,1,.49-.66c-.49-.21-1.1-.75-1.66-.47a7.63,7.63,0,0,0,.29,1.19c-1.33.16-2.65.3-4,.35l-.44-.23c-.58,0-1.17-.31-1.11-1l-.89.86c-2.25,0-4.52.57-6.76.16.07-.31.13-.62.18-.92a6.67,6.67,0,0,0-.72.23l-.42-.17a15,15,0,0,0-2.51.22V749c-3.5.21-7,.13-10.49.18,0-.12,0-.34,0-.45l.65.25c0-.12,0-.36,0-.48a19.83,19.83,0,0,0-2-.15,8.34,8.34,0,0,1-3.34.57,27.66,27.66,0,0,1-5.68,0,13.43,13.43,0,0,0-3.09-.29c0,.14,0,.4,0,.54l-.73-.19c-2.9-.19-5.81.22-8.7,0-2.31-.21-4.65.22-6.93-.37a5.46,5.46,0,0,1-3.48.28c-.55.21-1,.16-1.23-.47-1.34,0-2.68,0-4,0-.1.22-.2.45-.28.68-1.18.22-2.23-.45-3.39-.37-2.16-.11-4.34.25-6.48,0l-3.22,0a11.17,11.17,0,0,1-2.94.08c-2-.21-4-.07-5.93-.14a4.22,4.22,0,0,0-1.84,0c-.85.2-1.68-.14-2.52,0a7.38,7.38,0,0,1-3.79,0c-.83-.32-1.67.31-2.5.23-1,.19-1.87-.24-2.81-.08a3.84,3.84,0,0,1-2.65-.25c-1.67.83-3.54-.14-5.28-.17a6.38,6.38,0,0,0-2,.53c.05-.13.13-.37.18-.49a24.9,24.9,0,0,0-5.79.2,17.67,17.67,0,0,1-6.68-.38,11.54,11.54,0,0,0-3.1-.37c-.43,0-1,0-1.19.52a22,22,0,0,1-3.89,0,5.33,5.33,0,0,0-2,0,24.28,24.28,0,0,1-5,.09c-5.17-.27-10.35.29-15.51,0a55.93,55.93,0,0,0-8,.15,55,55,0,0,0-7.81.09c-2.19.46-4.28-.59-6.5-.25.07-.1.19-.31.26-.41H442v.23h.46v.23c-2.66,0-5.32.12-8,.1-2.44-.24-4.88.26-7.31,0a22.6,22.6,0,0,0-3.3.28l-1.42.1c-.63-.79-1.68,0-2.52,0l-.57-.57c-.29,0-.58,0-.87,0-.23-1.25-.29-2.53-.4-3.77-.29-2.85-.07-5.73-.39-8.57a21.75,21.75,0,0,0,0-4.42,10.87,10.87,0,0,1-.05-2.73,23.74,23.74,0,0,0-.05-4.38,8.73,8.73,0,0,1,.17-3.14,25.05,25.05,0,0,0-.09-5.05,5.16,5.16,0,0,1,0-1.79c.23-7.58-.29-15.16-.23-22.74q-.48-27.37-.9-54.77a18.45,18.45,0,0,1,.07-3.07c.17-2.68,0-5.36,0-8,.56-.24.62-.91.67-1.44l2.32.05c1-.11,2.1.52,3.1.1a12,12,0,0,1,5.34-.23c1.47.17,3-.17,4.44.29a4.26,4.26,0,0,0,2.44-.38c1.77-.4,3.58.13,5.36-.13,4.14.26,8.29-.17,12.43,0a7.46,7.46,0,0,1,3.07.51c2-.27,4-.88,6.05-.41,1.67.36,3.4,0,5.08.31,1.24.13,2.53-.31,3.75.07a4.62,4.62,0,0,1,.87-.34,36.88,36.88,0,0,0,5.66,0c0-.1.11-.3.14-.4,2,.72,4.22.45,6.32.51,0-.1,0-.3,0-.4a36.36,36.36,0,0,1,3.76.05c1.43.19,3-.22,4.35.4a18.88,18.88,0,0,0,3.69.26c.55-1.06,2.16-.56,3.12-.6a33.81,33.81,0,0,0,4.93.07,4.35,4.35,0,0,1,1.4.38c.28-.15.57-.29.86-.43,1,.37,1.95-.11,2.93-.2.43-.53.88-.15,1.25.23,3.75,0,7.52.12,11.25-.19a13.39,13.39,0,0,1,4.55.17c1.85.21,3.79-.26,5.61.23,0-.12,0-.36,0-.47a19.46,19.46,0,0,1,4.17.34c3.51-.08,7-.21,10.54,0a28.63,28.63,0,0,1,3.2.2c.83.1,1.65-.13,2.48-.09,1.26.11,2.55.07,3.82.25l.22-.32a9.75,9.75,0,0,1,1.43,0,14.37,14.37,0,0,0,2.54,0l2.34-.13a7.92,7.92,0,0,0,.47.71c.12-.25.23-.51.35-.76a20.58,20.58,0,0,1,3.32.22,24.2,24.2,0,0,1,2.55.07,9.53,9.53,0,0,1,1.09-.19l.32.46c1.34.26,2.71,0,4.07.11s2.88-.7,4.34-.24c2.66.61,5.38-.68,8,.05.94.17,1.42,1.32,2.46,1.2.25.5.47,1,.75,1.51,1-.26,1.72.34,2.5.74l-.21.64q.53.15,1.08.27c.2.33.41.65.61,1a1.54,1.54,0,0,0,1.74.27l.11,1.22c.34-.25.55-.82,1-.77a13.26,13.26,0,0,0,2.29,1.15c.28.32.54.67.79,1l.56.1a6.47,6.47,0,0,0,.43.51c-.34.68.39,1,.78,1.27l.27-.5c.31,0,.62,0,.93,0-.15.15-.3.31-.44.48s0,.46,0,.61c.62.38,1.23.75,1.86,1.15.08-.3.16-.6.23-.89l.66-.07c.09.29.19.58.28.89.44.36.87.94,1.51.88l.12-.39a24.78,24.78,0,0,1,4.48,3.15c.15.51.36,1,.56,1.5a9.35,9.35,0,0,1,1.55-.42,2.23,2.23,0,0,1,1.49,1l.8.08c.17.27.35.55.54.83.79-.21,1.37.38,1.92.79.16.4-.34.79-.28,1.23.47.49.94,1,1.76.75,0-.18,0-.55,0-.73h1.13c0,.17,0,.51,0,.68l.65,0,.53.61.57.1c.18.26.38.52.59.78a8.44,8.44,0,0,1,3,1.77l.79.1c.19.26.4.51.6.78l1.21.36c.25.35.47.78.91.93.6-.3,1.08.32,1.37.7l.52.12c.1.2.2.41.31.62l.86,0c.09.21.19.42.29.64a7.89,7.89,0,0,1,.84,0,5.89,5.89,0,0,0,1,.72c-.06.26-.11.54-.17.81.33.3,1.08.76,1.18,0,.78.67,1.82.91,2.59,1.62,1,1,2.74.91,3.44,2.24,2.1.32,3.35,2.22,5.31,2.88a16.88,16.88,0,0,0,2.26,1.83l.55.13c.48.4.85.85,1.65.63l.52.85.65,0c0,.16,0,.47.05.63,1.12-.4,1.45.77,2.09,1.32a2.8,2.8,0,0,1,1.65.62l.5.19c.82.74,1.94,1.06,2.75,1.82l.56.1c0,.16,0,.47.07.63l.5.39a17.15,17.15,0,0,1,2.61,1,6.37,6.37,0,0,1,1.53,1.4c1.23.16,2.2,1,3.31,1.47.1.19.21.39.33.59l.85,0c.33.52.7,1,1,1.55l.85-.21c0,.15,0,.45,0,.6.89-.59,1.22.31,1.5.82s.78.86,1.19,1.28l.33-.51.54.05c.14.3.45.38.75.49l.48.47a3.7,3.7,0,0,0-.45.83,3.09,3.09,0,0,0,.83-.51,1.38,1.38,0,0,1,1.32,1.84c.51-.07,1-.2,1.52-.3l-.18.71c.21-.07.43-.13.64-.18a5.56,5.56,0,0,0,1.82.91l.34.32.54.12a2.81,2.81,0,0,0,1.14.93c.35.6,1.06.67,1.67.84l.59.52a5,5,0,0,1,2.56,1.57c1.16.86,2.62,1.2,3.67,2.22l.56.12c.35.32.73.63,1.08,1a9.93,9.93,0,0,1,2.75,1.58l.5.17c1.12,1.19,3,1.52,3.85,3A5.82,5.82,0,0,1,703.8,697c0,.14.09.42.11.56.7-.56,1.16.24,1.45.64l.47.16a6.49,6.49,0,0,0,2.57,1.32l.32.58h.67a5.5,5.5,0,0,0-.23.61c.7-.35,1.25.29,1.7.67l.79.09a3,3,0,0,1,1.29,1.48c.33.11.66.23,1,.33l.58.54c1.41.15,2.49,1.29,3.52,2.17a9.86,9.86,0,0,1,3.19,1.82l.52.16a12.57,12.57,0,0,0,1.09,1c1.71.75,3,2.4,4.89,2.84.4.39.51,1.13,1.2,1.11l.35.29a6,6,0,0,1,3.15,1.42c0,.15,0,.46.07.62,1.32-.2,2.19,1,3.29,1.47a7.16,7.16,0,0,0,2.06,1.36,16,16,0,0,0,3.48,2.18,1.67,1.67,0,0,0,.94.7c.86.66,2.06.89,2.75,1.78a46.69,46.69,0,0,1,4.36,2.67c.71.13.94,1,1.68,1.08l.59.52a2.58,2.58,0,0,1,2.11,1.33l.55.11.35.32a14.26,14.26,0,0,1,2.63,1.48c.91.39,1.46,1.34,2.4,1.7.51.23,1,.51,1.52.75.09.19.2.39.32.6l.64,0c.17.27.35.55.54.82,1.4.25,2.4,1.45,3.66,2,1.71.87,3,2.45,4.78,3.19,3,1.29,5.4,3.45,8.25,4.92a1.09,1.09,0,0,0,.93.93c1.18.85,2.77,1.24,3.66,2.46a11,11,0,0,1,1.17.63,4.14,4.14,0,0,1,1.12.5,24.81,24.81,0,0,1-6.15-.19m9.15-296.45a51,51,0,0,0,.12,7.31c-.18,2.38,0,4.78-.16,7.18a5.13,5.13,0,0,1,.25,2.55c.15,2.32-.2,4.66.17,7a11.61,11.61,0,0,1,0,1.56c-.3,3.51.35,7-.08,10.52-.32,2.18.27,4.35,0,6.53a21.08,21.08,0,0,0,.14,4.42,69.86,69.86,0,0,1,.14,8.92,20.38,20.38,0,0,0-.12,6.38,8.12,8.12,0,0,1-.15,3.67c-.73.54-.48,1.56-.21,2.29.93,2.46.65,5.16.58,7.73-.19,3.39,0,6.78,0,10.17a15.93,15.93,0,0,0,.18,3.08c0,.52.06,1,.05,1.57-.12,1.2-.11,2.41-.19,3.62a14.38,14.38,0,0,1,0,3.47c0,3-.18,6.11,0,9.16a9.12,9.12,0,0,0,0,2.71c.31,2.73,0,5.5.37,8.23a10.7,10.7,0,0,1,0,1.8,22.57,22.57,0,0,0,.08,5.26,16.89,16.89,0,0,1,0,3.41c-.24,5.56.32,11.14,0,16.69a7.5,7.5,0,0,0,0,1.57,21.8,21.8,0,0,1,.08,4.57c-.15,4.53.09,9.06.12,13.6s0,9.08.32,13.62c0,.5,0,1,0,1.53-.21,2.93,0,5.87,0,8.8l-.39.23c.75,4.22.45,8.52.61,12.79,0,4,.29,8,.09,12a14.15,14.15,0,0,0,.06,3.9,11.72,11.72,0,0,1,0,1.57c-.27,4.59.2,9.19,0,13.78-.2,1.35.29,2.69.26,4.06-.17,2.35.07,4.71-.11,7.07a7.39,7.39,0,0,0,0,1.56c.4,4.71.12,9.44.51,14.15a21.89,21.89,0,0,0-.11,4.72c.19,3.14,0,6.3.3,9.45.35,5.27.22,10.58.39,15.87a10.46,10.46,0,0,1-.18,2.79c-1.18-.65-2.24-1.49-3.43-2.11-1.38-.7-2.43-1.9-3.87-2.47-.1-.29-.15-.61-.43-.74a7.55,7.55,0,0,1-3-1.53,36.41,36.41,0,0,1-4-2.57,17.14,17.14,0,0,1-2.63-1.7l-.56-.12a16.64,16.64,0,0,1-1.34-1.16,38.66,38.66,0,0,1-4.89-3.08c-1.42-1-3-1.67-4.3-2.74-2.41-1.44-4.83-2.87-7.15-4.44a7.54,7.54,0,0,1-2.52-1.59l-.54-.14c-1.78-1.09-3.43-2.33-5.14-3.5a29.34,29.34,0,0,1-5.17-3.24,9.64,9.64,0,0,1-2.49-1.39c-.86-.71-2-.9-2.83-1.71a19.69,19.69,0,0,0-3-2c-1.2-.86-2.79-1.21-3.68-2.46l-.81-.09-.32-.59a27.58,27.58,0,0,1-3.06-1.71,4.82,4.82,0,0,1-1.15-.9,5.38,5.38,0,0,1-1.7-1c0-.31,0-.61-.06-.91-.68.13-1.42.35-1.9-.3a14.21,14.21,0,0,1-2.21-1.44,9.53,9.53,0,0,1-2.2-1.45,18.71,18.71,0,0,0-2.33-1.32c-.22-.16-.42-.33-.62-.48a1.59,1.59,0,0,1-1-.64,8.21,8.21,0,0,1-1.35-.7l-.5-.16a1.85,1.85,0,0,0-1.42-.89l-.34-.33-.57-.11c-1.06-.78-2.19-1.45-3.26-2.21q-.06-.4-.09-.81c-1.07.24-1.76-.59-2.55-1.08l-.62-.07c-.19-.28-.39-.55-.56-.83a4.3,4.3,0,0,0-1.73-.53l-.3-.6c-.73-.43-1.66-.54-2.15-1.27-1.53-1.07-3.47-1.56-4.59-3.13-.83-.22-1.84-.29-2.35-1.07a2.16,2.16,0,0,0-1.39-.89,4.94,4.94,0,0,0-1.59-.91c-.37-.31-.78-.57-1.15-.87a11.37,11.37,0,0,1-2.27-1.38l-.54-.15a3.56,3.56,0,0,0-1.25-.78c-.63-.17-.88-.81-1.22-1.29a10.29,10.29,0,0,1-3.52-1.71c-.58-.46-.88-1.45-1.87-1.09-.36,0-.55-.38-.81-.56l-.59-.08c-.21-.26-.41-.51-.6-.77a8.94,8.94,0,0,1-.89-.71l-.52-.14a3.63,3.63,0,0,0-.45-.5,4.22,4.22,0,0,1-2.16-1c.06-.24.12-.47.19-.7-.18.15-.35.3-.52.47-1.92-1.43-4.17-2.35-6-3.91a2.22,2.22,0,0,1-1.5-1c-.46-.76-1.48-.73-2-1.39a10.4,10.4,0,0,1-3.19-1.56,2.89,2.89,0,0,0-1.4-.89c-.95-1-2.35-1.44-3.48-2.21s-2.3-1.47-3.36-2.32c-1.71-1.06-3.56-1.85-5.23-3,.07-.21.13-.42.2-.63-.3.06-.6.14-.89.18-1-.34-1.45-1.72-2.66-1.67a12.72,12.72,0,0,1-2.33-1.76c-2-.58-3.55-2.08-5.41-3a3.24,3.24,0,0,1-1-1.06,6.83,6.83,0,0,1-3.75-2.17,5.11,5.11,0,0,1-1.72-1c.08-.22.16-.44.25-.65l-.69-.07-.54-.58a4.56,4.56,0,0,1-1.93-.31c-.92-1.28-2.78-1.39-3.84-2.55-.81-.44-.46-1.59-1.17-2.08-.44-.11-.64.42-.91.66-.75-.36-1.44-.81-2.15-1.18-.11-.28-.21-.55-.31-.82l-.7.25c.06-.52.16-1,.23-1.52-.53,0-1.22.07-1.52-.44l0,0c-.1.3-.19.61-.32.9a2.85,2.85,0,0,1-.77-.6c-1.18-1-3.1-1.06-3.91-2.47l-.55-.12-.35-.31a9.14,9.14,0,0,1-1-.43l1.48-.13c0-.12,0-.36-.06-.47-.65.07-1.29.22-1.94.26a1.64,1.64,0,0,1-.39-.87c-.27.06-.52.14-.78.21l-.35-.84c-1.43.31-2.26-1-3.24-1.73a22.19,22.19,0,0,1-4-2.38c-.62-.59-1.62-.57-2.14-1.27s-1.65-.74-2.45-1c-.62-.48-1.21-.92-1.81-1.36-.67-1-1.83-1.39-2.67-2.17-.09-1.13.51-2.18.28-3.31a2.15,2.15,0,0,1,.29-1.42c-.24-.22-.47-.44-.69-.67l.48-.06a17.83,17.83,0,0,1,.09-2.84c.26-1.65-.29-3.19-.57-4.78l0-1c.08-.46.23-1.38.31-1.84-.11-.07-.35-.21-.46-.29a13.75,13.75,0,0,1,.64-2,15,15,0,0,0-.57-1.67c-.49-.84.22-1.39.47-2.07,0-.55.05-1.09,0-1.63-.59-.18-.55-.91-.73-1.39l.49-.31c0-2.49-.31-5,.17-7.47.2-1.13-.13-2.29,0-3.43a45.84,45.84,0,0,0-.33-6.31,8.26,8.26,0,0,1,0-1.57c.14-4,.07-7.94-.16-11.89-.67-2.82.34-5.66-.11-8.49-.38-1.87.27-3.79-.14-5.65-.1-1-.15-2-.15-3.08l.39-.23a8.69,8.69,0,0,1-.1-3.33c.37-1.1-.5-2-.39-3.08-.1-2.66-.11-5.32-.14-8a3.53,3.53,0,0,1,.27-2,1.05,1.05,0,0,0,.2-1.1l.39-.47v-.37c0-.33-.13-1-.16-1.3a9,9,0,0,0,0-1.94c-.12-1.15.21-2.33-.06-3.46s0-2.22-.12-3.33c-.25-.83.25-1.94-.49-2.57,0,.2,0,.6-.06.8l-.25,0c.23-.47-.32-1.48.4-1.71a7.17,7.17,0,0,1,0-1.67l-.42.21c0-.91,0-1.82,0-2.71.2-.1.42-.19.63-.28a8.28,8.28,0,0,1,.35-2.67c-.21-1.78-.14-3.57-.48-5.32-.22.16-.42.33-.63.5l-.08-3.45h.23v.68h.46c0-.31,0-.62,0-.92h-.68c.16-2.26-.56-4.68.32-6.84-.15-.57-.25-1.14-.37-1.69A14.7,14.7,0,0,1,587,485l.38-.16a35.87,35.87,0,0,0-.45-6.64c.41-5-.43-10,0-15.05.23-3.62-.19-7.25.09-10.87.05-.42-.37-1.07.21-1.25a11.17,11.17,0,0,0,0-3.51l-.7,0a11.9,11.9,0,0,1,.12-1.69,22.38,22.38,0,0,0-.08-3.17,46.4,46.4,0,0,0-.1-7.55l-.1-1.07c-.4-1.13.52-2.07.35-3.18-.12-2.93.07-5.86,0-8.78a5.73,5.73,0,0,0-.11-2.44c0-.08.06-.23.09-.31a14.61,14.61,0,0,1-.1-3.85,41.11,41.11,0,0,0-.12-6.84,37.4,37.4,0,0,1-.09-6.17c.28-2.89-.21-5.81.1-8.69a11.74,11.74,0,0,0,0-1.57c-.37-5.64-.28-11.31-.37-17a8.87,8.87,0,0,1,3.58-.54c2.7.14,5.42-.39,8.11-.05s5.17-.3,7.67.39a20.51,20.51,0,0,1,2.61-.38c.42.65,1.19.64,1.92.59l.3-.44a11.29,11.29,0,0,1,3.71-.2c2.06.22,4.1-.17,6.15-.08a10.26,10.26,0,0,1,3-.07,24.91,24.91,0,0,0,5.25-.08l2.18-.15c1.06-.26,1.93.55,3,.39a57.61,57.61,0,0,0,6.7-.2,77.05,77.05,0,0,1,9.37-.16,15.08,15.08,0,0,0,3.42-.07h1.35c2.5.25,5-.17,7.54.11,3.58.25,7.16-.44,10.74-.17a33.94,33.94,0,0,0,5.52-.08c1.69-.1,3.39.14,5.07-.11,2.91.28,5.87-.66,8.73.13,1.16-.06,2.4.19,3.49-.32.55-.19,1.13.1,1.69.14.07.1.23.29.3.38h1.8c.08-.23.17-.45.26-.67,5.31,0,10.62-.26,15.93-.29a27.18,27.18,0,0,1,4.23.06,6.44,6.44,0,0,0,1.8,0l3.24-.07a20.72,20.72,0,0,0,3.69-.07,12.74,12.74,0,0,0,2.32.36c0-.11,0-.33,0-.44,3,.42,6.05-.18,9.05.16a22.38,22.38,0,0,0,2.83-.07,21.63,21.63,0,0,0,4.69-.06c1.88-.14,3.79-.2,5.69-.34,2.24.18,4.5,0,6.76,0l26.46-.43c1.14.1,1.49,1.37,1.57,2.33a43,43,0,0,1,.06,5.56,13,13,0,0,0,0,1.53c.32,2.73.06,5.5.38,8.23a12.21,12.21,0,0,1,.05,3c-.24,2.92.22,5.87-.28,8.77.64,3.05.19,6.19.57,9.27a16,16,0,0,1,0,2.5c0,.81,0,2.43,0,3.24.3,1.67-.21,3.33-.15,5a11.68,11.68,0,0,1,.08,2.71,18.07,18.07,0,0,0,0,3.89c0,.72.23,1.46.32,2.19a15.51,15.51,0,0,0,0,3.73,17.5,17.5,0,0,1,0,2.51,58.17,58.17,0,0,0,.12,8.45,16.62,16.62,0,0,1,.06,4.11,26.18,26.18,0,0,0,.07,2.94"></path><path class="cls-3" d="M444.23,237.74a1,1,0,0,1,1,.69l-1,.08c0-.19,0-.57.07-.77"></path><path class="cls-3" d="M202.67,240.29c-.32-.9.42-1.36.93-1.86a9.15,9.15,0,0,1,.29.93l-.49.29v.66l-.73,0"></path><path class="cls-3" d="M319.92,239.56c.31-.77,1.2-.77,1.89-.87.18.31.35.62.52.94l-2.41-.07"></path><path class="cls-3" d="M500.08,239.83c-.85-1.13,1.84-1.39,1.6-.23a4.56,4.56,0,0,1-1.6.23"></path><rect class="cls-3" x="304.05" y="247.16" width="1.83" height="0.23"></rect><path class="cls-3" d="M547.77,249.06l1.09-.28a2.92,2.92,0,0,0,.55.56c-.3.28-.61.68-1.07.53a2.43,2.43,0,0,1-.57-.81"></path><path class="cls-3" d="M506.08,249.65c.43.13,1.2.3,1.1.89a5.52,5.52,0,0,1-1.36.54l.08-1.08c0-.09.13-.26.18-.35"></path><path class="cls-3" d="M620,256.82l1-.11c0,.18,0,.54,0,.73l-1.18.46c-.07-.37-.45-.95.13-1.08"></path><path class="cls-3" d="M592.58,265.18c-.22-.48-.57-1.48.21-1.58s.68.67.71,1.12a2.28,2.28,0,0,1-.92.46"></path><path class="cls-3" d="M378.05,265.12c-.18-.67.45-1.69,1.34-1.08a3.59,3.59,0,0,1-.5,1.89,8.07,8.07,0,0,1-.84-.81"></path><path class="cls-3" d="M308.85,267l1.42.24c-.32.47-.55,1.18-1.42.74v-1"></path><path class="cls-3" d="M618.39,271.62c.26-.09.53-.19.81-.27a1.07,1.07,0,0,0,.68,1.23c0-.19,0-.59.07-.79l.68,0c.08.53.39,1.3-.06,1.69a13.33,13.33,0,0,0-2,.06c-.33-.31-.76-1-.08-1.18,0-.26-.06-.52-.1-.78"></path><path class="cls-3" d="M641.5,284.6c.53.13,1.13.25,1.33.85l-.43-.11c-.25.46-.85.43-1.27.62a7.55,7.55,0,0,1-.19-.79,3.77,3.77,0,0,0,.56-.57"></path><path class="cls-3" d="M649.9,290.07l.79.27c.18.36.38.7.56,1.06l-.5-.13c-.41.22-.79,0-1.12-.26l.27-.94"></path><path class="cls-3" d="M630.94,291l.71,0c-.25.29-.53.54-.8.81l-.56.1c-.18.27-.29.75-.72.6a3.64,3.64,0,0,1-.3-1.35c.53,0,1.6.62,1.67-.2"></path><path class="cls-3" d="M402.21,301.31l.63-.25.5.49a2.55,2.55,0,0,1-1,1.14c0-.46-.07-.92-.09-1.38"></path><path class="cls-3" d="M675.14,306.07c.29-.08.6-.18.92-.24.39.29.35,1.12-.22,1.13-.56.19-.66-.5-.7-.89"></path><path class="cls-3" d="M395.64,311.57c.65,0,1.37,0,2,0-.18.29-.38.56-.56.84-.69,0-1.32.05-2,.05.17-.29.35-.57.52-.87"></path><path class="cls-3" d="M372.55,313.22l.64-.05.27.58,1,.14a10.33,10.33,0,0,1-1.49.74h-.6c.07-.48.14-.95.23-1.42"></path><path class="cls-3" d="M320.34,322.46a2.94,2.94,0,0,1,1.34.4l1.28-.32.42.24.31.61q-.17.33-.3.66l-.31-.14c-.07.67-.72.17-1.05,0-.49-.42-1.12-.07-1.68-.07-.15-.19-.31-.38-.47-.55.35-.15.37-.5.46-.82"></path><path class="cls-3" d="M347.14,325.63c0-.49.33-1.15.92-1.11.07.36.2,1.07.27,1.43-.4-.09-.8-.21-1.19-.32"></path><path class="cls-3" d="M351.82,326.63a8,8,0,0,1,2.18-.06l0,.95c-.54-.07-1.07-.15-1.6-.24l.23.45c-.37-.09-.73-.18-1.1-.25.09-.28.17-.57.26-.85"></path><path class="cls-3" d="M331,328l.74.23L332,328a2.11,2.11,0,0,0,.7,1c0,.15.05.46.06.61-.9.46-1.18-.27-1.59-.75a3.72,3.72,0,0,0,.19-.34c-.15-.17-.29-.35-.44-.53"></path><path class="cls-3" d="M333.73,330.07c.25-.34.7-.25,1.07-.29a10.62,10.62,0,0,0,.73.9,7.62,7.62,0,0,0-1.65.22,3.91,3.91,0,0,1-.15-.83"></path><path class="cls-3" d="M592.82,333c.36-.06.72-.13,1.08-.22a7.73,7.73,0,0,0,.19,1.07c-.44.08-.86.18-1.29.27,0,.16,0,.49,0,.66-.36.17-.72.34-1.09.49-.18-.32-.36-.64-.53-1,.6-.17,1.23-.31,1.85-.48-.06-.1-.18-.3-.23-.41l.69,0v-.22h-.68Z"></path><path class="cls-3" d="M579.81,334.61l.63,0c0,.34,0,1,0,1.38l-.68,0-.44-.85.48-.47"></path><path class="cls-3" d="M677.65,335.28l.72,0c.15.23.31.45.44.68-.14.26-.31.49-.46.73-.41-.31-1.27-.54-.7-1.39"></path><path class="cls-3" d="M674.13,339.07c-.74-.16-.07-1,.38-1.06.68-.19.68.68.69,1.14Z"></path><path class="cls-3" d="M763,339.14c.23.1.46.2.71.29-.08.21-.15.42-.22.63-.24-.11-.48-.2-.71-.29.06-.21.14-.42.22-.63"></path><path class="cls-3" d="M349.9,341a11.56,11.56,0,0,0,1.14.24,10,10,0,0,1,.55.83,2.84,2.84,0,0,1-1.93-.44l.24-.63"></path><path class="cls-3" d="M590.7,346.92a1.76,1.76,0,0,1,1.85.2c-.1.22-.19.45-.27.68a9.71,9.71,0,0,1-1.3.28c-.1-.39-.21-.77-.28-1.16"></path><path class="cls-3" d="M376.7,356.44a9.8,9.8,0,0,1,1.07.75l-.49.94a2.15,2.15,0,0,1-.89-.31,11,11,0,0,1,.31-1.38"></path><path class="cls-3" d="M364.54,359.7h1.6l0,.66a10.59,10.59,0,0,0-1.58-.06c0-.14,0-.44,0-.59"></path><path class="cls-3" d="M499.42,363.52c-.05-1.24,2.24-.59,1.42.71a7.25,7.25,0,0,0-1.42-.71"></path><path class="cls-3" d="M709.17,370.46a1.5,1.5,0,0,1,1-.3,1.67,1.67,0,0,1-.3.95.56.56,0,0,1-.65-.65"></path><path class="cls-3" d="M450.72,379.26c.33-.75,1.49-.39,2.09-.6a3.71,3.71,0,0,0,2.31.69l0,.19-2.31,0c.07.1.2.32.26.43h-.92v-.46H452V380c-.6-.09-1.23-.18-1.81-.25v-.41l.58-.07"></path><path class="cls-3" d="M471.36,379.09c.82,0,2.12-.76,2.32.41a7.11,7.11,0,0,1-2.3.07c0-.12,0-.36,0-.48"></path><path class="cls-3" d="M489.4,379.76c1.17-.1,2.67-.43,3.47.64-1.09,0-2.16.06-3.23,0l-.24-.68"></path><path class="cls-3" d="M310.65,380.7a2.62,2.62,0,0,1,2.07.24c.11.94-1.12.67-1.77.65a1.24,1.24,0,0,1-.3-.89"></path><path class="cls-3" d="M435.84,390.78a20.07,20.07,0,0,0,3.09-.22l1.67.23c-.75.88-2.22.9-3.29.71h-.62a5.43,5.43,0,0,1-.88.11c-.36-.18-.44-.73,0-.83"></path><path class="cls-3" d="M501.23,396.48l.7-.26,1.28.3c.26.35.57.66.84,1l-.69,0a6.59,6.59,0,0,0-.33-.65c-.53.18-1,.51-1.51.72-.11-.37-.21-.75-.29-1.13"></path><path class="cls-3" d="M499.42,396.42c.59-.1,1.24.1,1.15.81a2.68,2.68,0,0,0-.79.85,2.4,2.4,0,0,1-.36-1.66"></path><path class="cls-3" d="M293.56,399.19l1.1.08a6.25,6.25,0,0,0,.21,1.75l-.86,0a2.5,2.5,0,0,1-.45-1.81"></path><path class="cls-3" d="M580.48,404.14a2.49,2.49,0,0,1,.9.32,4.58,4.58,0,0,1-.33.71,9.13,9.13,0,0,1-.16,1.73l-.44,0c0-.94,0-1.87,0-2.8"></path><path class="cls-3" d="M681.35,407.65a4.38,4.38,0,0,1,1.31-.29l.54.74c-.67.1-1.93.6-1.85-.45"></path><path class="cls-3" d="M580.49,407.76c.73.22.73,1,.87,1.65a5,5,0,0,1-.87.35c0-.67,0-1.34,0-2"></path><path class="cls-3" d="M642.75,415.37c-.16-.56.5-.67.91-.74a8.91,8.91,0,0,1,.54,1.41c-.5.2-1.62.08-1.45-.67"></path><path class="cls-3" d="M713.94,416.92a10.33,10.33,0,0,1,1.39-.22v.78a10.33,10.33,0,0,1-1.39-.23Z"></path><path class="cls-3" d="M610.79,430.23l.94,0c0,.42,0,1.24,0,1.66-.92.07-1.15-.84-.91-1.63"></path><path class="cls-3" d="M579.34,440.47c.14-.29.17-.77.62-.67.73.82-.08,2.14,0,3.07-1.06-.36-.45-1.56-.6-2.4"></path><path class="cls-3" d="M472.51,440.46c.39.05.86,0,1.11.32,0,.37.08.81-.26,1.07a5.87,5.87,0,0,1-1.12-.24c.07-.39.17-.77.27-1.15"></path><path class="cls-3" d="M405.15,441.61a3.12,3.12,0,0,1,1.18,0c-.07.59-.23,1.24-.87,1.43-.11-.48-.24-1-.31-1.44"></path><path class="cls-3" d="M377,446.21l1.65,0c0,.3,0,.6,0,.91-.6.79-2.19.39-1.64-.89"></path><path class="cls-3" d="M621.28,456l.68,0,.45.46c0,.28,0,.58,0,.87l-.89,0c-.09-.45-.2-.89-.28-1.33"></path><path class="cls-3" d="M405.84,462.43c-.16-.67.15-1.32.92-1.21.16.67-.15,1.31-.92,1.21"></path><path class="cls-3" d="M498.5,462.65c.65-.11,1.36-.2,2-.26l.78.94a18.07,18.07,0,0,1-2.32.15l-.48-.83"></path><path class="cls-3" d="M525.47,473.52c.44.06,1,.26,1.11.74-.21.55-.59,1.33-1.3,1.12-.66-.48-.08-1.31.19-1.86"></path><path class="cls-3" d="M287.88,482.45a8.53,8.53,0,0,1,1.12.22c-.1.23-.2.47-.29.71a1.71,1.71,0,0,1-1.35.05c.17-.33.34-.66.52-1"></path><path class="cls-3" d="M526.45,557.12c.71-.12.93.54.85,1.12l-1,.48a2.36,2.36,0,0,0-.59-.59,8.57,8.57,0,0,0,.79-1"></path><path class="cls-3" d="M476.62,561.71h.69a2.59,2.59,0,0,1-.54,2c-.22.08-.44.17-.65.27a4.22,4.22,0,0,1,.5-2.24"></path><path class="cls-3" d="M569.56,570.81l.59,0c.11.58.65,1.88-.39,1.79a3.71,3.71,0,0,1-.2-1.81"></path><path class="cls-3" d="M549.21,571.54c1.18-.64,1.48.24,1.61,1.06-.31.15-.61.31-.91.47a9,9,0,0,0-.6-.75c0-.27-.07-.53-.1-.78"></path><path class="cls-3" d="M590.06,575.79c.16.23.31.47.46.71l-.45,1c0-.57,0-1.13,0-1.69"></path><path class="cls-3" d="M577.71,579.76c-.54-.9.21-1.48.91-1.47a1,1,0,0,1-.91,1.47"></path><path class="cls-3" d="M465,586.35a4.05,4.05,0,0,1,1.08.21c-.09.2-.19.4-.27.61-.31.09-.61.19-.91.3-.08-.37-.35-.88.1-1.12"></path><path class="cls-3" d="M717.41,593.6a2,2,0,0,1,1,.39l-.76.35a7.33,7.33,0,0,1-.19-.74"></path><path class="cls-3" d="M557.17,596.89a1.22,1.22,0,0,1,.87-.3c.06.21.14.42.22.65-.18.32-.35.64-.51,1a1.87,1.87,0,0,1-.58-1.33"></path><path class="cls-3" d="M590.67,607.6a2,2,0,0,1-.19-2.86,4.2,4.2,0,0,1,.19,2.86"></path><path class="cls-3" d="M495.75,605.69a10.46,10.46,0,0,1,1.14-.24v.79q-.58-.11-1.14-.24Z"></path><path class="cls-3" d="M487.4,606.7c.38-.15.9.4.83.81a.93.93,0,0,1-1.35,0c-.09-.39.27-.61.52-.81"></path><path class="cls-3" d="M590.32,608.87a3.12,3.12,0,0,1,.59,1.41c-.12.15-.24.31-.35.47,0,.37.07,1.1.09,1.47-.37-.21-.43-.65-.58-1a8.81,8.81,0,0,1,.25-2.36"></path><path class="cls-3" d="M287.46,613.74c.62-.61,1.81.38,1,.85-.41.69-1.94-.36-1-.85"></path><path class="cls-3" d="M369.64,614.43c.27.06.53.14.8.21l0,.91c-.39.32-.85.57-1.33.25,0-.28,0-.56,0-.83l.46-.54"></path><path class="cls-3" d="M298.6,615.14c1-.23,2-.63,3,0-.8.78-2.05.62-3,.43,0-.1,0-.31,0-.41"></path><path class="cls-3" d="M315.46,615.27c-.12-.52.44-.73.85-.64a1.38,1.38,0,0,1,.32.92c-.4,0-.88.08-1.17-.28"></path><path class="cls-3" d="M331.43,614.85a6.84,6.84,0,0,1,1.16.19,9.15,9.15,0,0,0-.29.93l-.62,0c-.1-.39-.19-.77-.25-1.15"></path><path class="cls-3" d="M632.2,616.48l1.51,0c-.29.43-.58,1.09-1.17,1.1a2,2,0,0,1-.34-1.13"></path><path class="cls-3" d="M228,627.25c.76,0,1.54.15,2.31,0,.16.27.34.55.53.83l-1.35.2c-.18-.23-.37-.45-.55-.67l-.38.23c-.19-.21-.39-.42-.56-.63"></path><path class="cls-3" d="M231.47,627.84c-.08-1,1-.51,1.57-.41,0,.17,0,.52,0,.7a9.29,9.29,0,0,1-1.59-.29"></path><path class="cls-3" d="M436.71,627.45a4.55,4.55,0,0,1,.63.09,20.46,20.46,0,0,1,2.34.17c-.37.7-1.39.38-1.9,1l-1.38-.19c.05-.38,0-.82.31-1.07"></path><path class="cls-3" d="M382,628c.52-.62,1.39-.33,2.11-.42-.09.23-.17.45-.24.69-.62-.1-1.26-.22-1.87-.27"></path><path class="cls-3" d="M422.52,627.62a8.3,8.3,0,0,1,1.91.13l2.4.14c0,.11,0,.33,0,.44-1.37,0-2.73,0-4.09,0q-.12-.36-.24-.69"></path><path class="cls-3" d="M510.13,628.52a7.13,7.13,0,0,1,1.12-.21,6.23,6.23,0,0,1,.5,1.64,6.32,6.32,0,0,1-.54-.64l-.78-.11-.3-.68"></path><path class="cls-3" d="M499.36,628.93a5.17,5.17,0,0,1,.53-.39,4.54,4.54,0,0,1,1,.93c-1.07.07-2.58.77-3.36-.22.61-.14,1.23-.22,1.85-.32"></path><path class="cls-3" d="M493.2,629.18c.71-.66,1.78-.21,2.61-.08-.86.33-1.84.79-2.61.08"></path><path class="cls-3" d="M531.14,629l2.6.06c-.46,1-1.71.54-2.58.65,0-.18,0-.53,0-.71"></path><path class="cls-3" d="M607.41,629.73c.54,0,1.08.12,1.62.22a3.27,3.27,0,0,1-.54,1.34c-.59,0-.77-.75-1.26-1,.06-.2.12-.38.18-.57"></path><path class="cls-3" d="M534.53,634.77a.87.87,0,0,1,0-1.5,1.6,1.6,0,0,1,0,1.5"></path><path class="cls-3" d="M262.74,633.52a1.61,1.61,0,0,1,.92.35c.3.41,0,1.48-.67,1.31a6.3,6.3,0,0,1-.25-1.66"></path><path class="cls-3" d="M568.13,635.17h.45v.92h-.45c0-.31,0-.62,0-.92"></path><path class="cls-3" d="M596.45,638.21h.79c.26.35.57.66.86,1l-1.68.08Z"></path><path class="cls-3" d="M629.05,645a1.6,1.6,0,0,1,.87-1.71c.45.85.08,1.84-.87,1.71"></path><path class="cls-3" d="M405.91,644.72c.53.28,1.31.35.91,1.35a1.25,1.25,0,0,0,.33.59c-.08.24-.16.49-.23.75a5.44,5.44,0,0,1-1,.82c0-.25.09-.49.15-.73l-.59-.47a10.89,10.89,0,0,0,.47-2.31"></path><path class="cls-3" d="M256.8,647.26c.37-.47,1.4-.58,1.36.19a3.32,3.32,0,0,1-1.32.57l0-.76"></path><path class="cls-3" d="M436.67,647.78l.68-.28a6.77,6.77,0,0,1,.44.69,3.93,3.93,0,0,1-.49.9.8.8,0,0,1-.63-1.31"></path><path class="cls-3" d="M615,649.91c.45-.1.9-.21,1.35-.34.47.77-.26,1.41-1,1.56s-1.4-.2-2.05-.23c0-.39-.06-.87.33-1.11l1.36.12"></path><path class="cls-3" d="M241.32,651.22l.89.21c-.1.28-.2.56-.33.84a1.53,1.53,0,0,1-1.56-.35c.34-.23.68-.45,1-.7"></path><path class="cls-3" d="M266.23,652.52c.45-.09,1.21,0,1.06.64a3.67,3.67,0,0,1-1.38.29,1.2,1.2,0,0,1,.32-.93"></path><path class="cls-3" d="M402.66,653l.66-.25.41.69c-.07.28-.14.56-.2.85l-.59-.24c-.09-.36-.19-.7-.28-1.05"></path><path class="cls-3" d="M625,655.76l.86-.22.62.43a4.61,4.61,0,0,0,0,.64c-.51-.09-1-.17-1.53-.23,0-.16,0-.47,0-.62"></path><path class="cls-3" d="M384.14,656.59c.44-.13,1-.37,1.38.07-.06.3-.16.59-.24.89l-.84-.27q-.15-.36-.3-.69"></path><path class="cls-3" d="M257,661.24c.39,0,.8,0,1.2-.06,0,.31,0,.62,0,.93h-.68c-.18-.29-.36-.57-.51-.86"></path><path class="cls-3" d="M381,667.16c.22-.18.45-.36.67-.52a2.93,2.93,0,0,1,.27,1.88L381,668c0-.3,0-.59,0-.87"></path><path class="cls-3" d="M680.7,673.75a1.1,1.1,0,0,1,.95.63c-.44,0-.87,0-1.31,0a4.22,4.22,0,0,1,.36-.66"></path><path class="cls-3" d="M534.42,679c.29.12.58.26.88.4.27-.06.54-.11.82-.15.09.29.18.59.27.91-.76-.1-1.54-.25-2.28-.41.1-.25.2-.5.31-.75"></path><path class="cls-3" d="M551,679.44l.66.28c0,.28,0,.58,0,.87-.38.18-.75.35-1.13.5-.32-.78.18-1.1.43-1.65"></path><path class="cls-3" d="M622,683.53c.38.05.84,0,1.12.32.09.44-.27.76-.47,1.1l-.65-.49q0-.48,0-.93"></path><path class="cls-3" d="M319.12,686.05l1,.1c.59.1.14.68.1,1.05-.37-.17-.73-.34-1.1-.48,0-.17,0-.5,0-.67"></path><path class="cls-3" d="M362.72,689.23c-.12-1,1.27-.72,1.88-.4a1.33,1.33,0,0,1-1.88.4"></path><path class="cls-3" d="M541.88,689.94c.72-.14,1,.48.93,1.12l-.46.28c0,.13.11.38.14.51-.71-.35-.52-1.27-.61-1.91"></path><path class="cls-3" d="M559.19,695.54a2.53,2.53,0,0,1,1.61-.37c0,.32,0,.64,0,1l-.83-.07a8.93,8.93,0,0,0-.79-.52"></path><path class="cls-3" d="M620,695.15a2.09,2.09,0,0,1,1.83,1.42,10.65,10.65,0,0,1-1.85-.46c0-.33,0-.65,0-1"></path><path class="cls-3" d="M405.35,696.25c.26-.2.5-.41.75-.62,0,.4-.05.8-.07,1.22-.24-.2-.47-.39-.68-.6"></path><path class="cls-3" d="M308.4,698.86c.35-.09.71-.18,1.07-.24.09.22.17.44.26.67l-.83.7c-.16-.39-.33-.76-.5-1.13"></path><path class="cls-3" d="M435.73,700.68c.64.64,1.72,1.1,1.44,2.25L436,703c-.1-.76-.19-1.53-.25-2.27"></path><path class="cls-3" d="M391.92,703.63l.95.52c-.15.36-.32.73-.48,1.09l-.68-.28a1.06,1.06,0,0,1,.21-1.33"></path><path class="cls-3" d="M361.3,714.51a3.38,3.38,0,0,1,2-.36c.34.27.27.72.34,1.11a5.37,5.37,0,0,1-2.37-.75"></path><path class="cls-3" d="M581,717.57a2.37,2.37,0,0,1,1.29.31,3.77,3.77,0,0,0-.73.81h-.89c.05-.4,0-.87.33-1.13"></path><path class="cls-3" d="M503,720.45a4.54,4.54,0,0,1,1.6-.8c.05.27.12.54.19.82a3.94,3.94,0,0,0-.49.51c-.44-.16-.87-.36-1.3-.53"></path><path class="cls-3" d="M582.46,720.1h.7l.46.47c0,.27,0,.55,0,.83-.23.08-.46.17-.68.27a4,4,0,0,1-.49-1.58"></path><path class="cls-3" d="M600.1,721.72a10.34,10.34,0,0,1,2-.44c.4.32,0,.87,0,1.3-.49-.22-2.15.12-2-.86"></path><path class="cls-3" d="M614.78,732l1-.07c0,.38.47.93-.08,1.11-.82.77-1.86-.71-1-1"></path><path class="cls-3" d="M634.74,732.42a3.82,3.82,0,0,1,1.61-.52c0,.32,0,.64,0,1-.31.15-.6.31-.91.44a4.68,4.68,0,0,1-.72-.89"></path><path class="cls-3" d="M388.66,732.92c1.36-.93,3.11-.28,4.62-.28,0,.3,0,.61,0,.93l-.91-.16a15,15,0,0,0-3.34-.19l-.36-.3"></path><path class="cls-3" d="M628.31,735.78c.35-.85,2-1.07,2.18,0-.54-.06-1.58.66-1.72-.12l-.46.13"></path><path class="cls-3" d="M370.73,736.09l.86-.22.52.65-1.41.24c0-.17,0-.5,0-.67"></path><path class="cls-3" d="M477.26,736.06c1.26-.7,1.34.63,1.44,1.34l-1,0c-.17-.46-.33-.92-.47-1.38"></path><path class="cls-3" d="M607.65,737.47c.64-.07,1.23-.21,1.89-.22.15.3.46.39.77.5v.08a2.18,2.18,0,0,0-1.45.44l-.28-.1c-.24.12-.47.25-.7.38l-.47-.48c.07-.2.15-.4.23-.6"></path><path class="cls-3" d="M397.82,738.11c.67-.16,1.31.14,1.21.92-.67.15-1.31-.15-1.21-.92"></path><path class="cls-3" d="M490.05,738.36a1.8,1.8,0,0,1,1.86.1c-.38.26-.73.54-1.11.8-.25-.31-.51-.6-.75-.9"></path><path class="cls-3" d="M376.82,739l.7.28c0,.29,0,.58,0,.88l-1,0a8.07,8.07,0,0,1,.23-1.13"></path><path class="cls-3" d="M631.14,743.2c.17-.32.52-.33.84-.29.34.25.25.7.29,1.09-.24.08-.47.17-.7.27-.2-.33-.55-.65-.43-1.07"></path><path class="cls-3" d="M558.27,749.52c.1-.81.86-.61,1.45-.62-.18.58-1,.52-1.45.62"></path><path class="cls-3" d="M478.17,749.13c1.13.1,2.26-.07,3.39,0,.13.19.26.39.38.6a14.59,14.59,0,0,0-3.56.26c-.08-.28-.15-.56-.21-.82"></path><path class="cls-3" d="M632.05,749.73a4.38,4.38,0,0,1,1.84.21c-.11.22-.22.45-.32.68-.35.07-.69.17-1,.26-.17-.39-.34-.77-.5-1.15"></path><path class="cls-3" d="M393.51,752c0-.44,0-1.24.66-1.09l.32,1.34c-.33-.1-.66-.18-1-.25"></path><path class="cls-3" d="M404.66,756.63l.74,0c.14.22.31.44.44.69-.15.33-.45.73-.86.67a4.53,4.53,0,0,1-.32-1.33"></path><path class="cls-3" d="M407.16,759a.9.9,0,0,1,1.1-.59c.07.39.42.45.76.54,0,.09,0,.27,0,.37-.3,0-.6,0-.9,0,0-.19-.05-.56-.07-.74l-.21.42c-.24,0-.47,0-.7,0"></path><path class="cls-3" d="M458.64,760.22a3.35,3.35,0,0,1,1.08.47c0,.31,0,.62,0,.94a1.11,1.11,0,0,1-1.36.2c-.34-.57,0-1.1.29-1.61"></path><path class="cls-3" d="M428.6,761.37c.11-.37.16-1.07.71-.89a2.23,2.23,0,0,1,.34.89h-1"></path><path class="cls-3" d="M484.38,761c.41-.61,1.24-.23,1.83-.1-.11.23-.2.47-.3.71a2.88,2.88,0,0,1-1.26.23c-.33-.17-.33-.53-.27-.84"></path></g></g></g></svg>