<svg fill="currentColor" xmlns="http://www.w3.org/2000/svg" viewBox="0 0 1000 1000"><g class="cls-1"><g id="Shapes"><g id="Shape_107" data-name="Shape 107" class="cls-2"><path class="cls-3" d="M202.42,511c-1-2-2.39-3.92-2.35-6.23.09-1.93-.38-4,.33-5.85.3-1.08.71-2.14.95-3.24l.52-.6-.66-.43a38.55,38.55,0,0,1,1.72-6.25c.51-1.12,1.81-1.56,2.41-2.61A4.74,4.74,0,0,1,207.1,484c.72-.52,1.69-.08,2.41-.53a7.32,7.32,0,0,0,2.55-1.91,20.74,20.74,0,0,1,3.55-2.08,19.82,19.82,0,0,0,6.55-1.12c.88-.76.82-2.14,1.22-3.2,0-1.28-1.12-2.39-1-3.71,0-.74.07-2.2.09-2.94-.19-2.84.27-5.72-.28-8.55,0-2.77.54-5.53.27-8.33-.32-2,.22-4-.05-6.05.35-2.7-.48-5.45.35-8.11a28.32,28.32,0,0,0,0-3.57c-.17-1.22-.14-2.51-.42-3.74,1-2.12-.52-4.46,0-6.69,1-1.06.07-2.73.37-4.05a32.77,32.77,0,0,0,.1-6.34,8.74,8.74,0,0,1-.27-3.88,31.9,31.9,0,0,1-3.38-.45,12.26,12.26,0,0,0-3.5-1.53c-1.12-.05-1.91-.84-2.88-1.27-1.75-.82-2.86-2.57-4.59-3.42-1.36-2-3.08-4-3.61-6.43a1.89,1.89,0,0,0-1.18-1.84c-1-1.39-1.15-3.11-1.4-4.75-.05-1.09-.12-3.26-.17-4.34a3.55,3.55,0,0,1,2.07-.61,13.32,13.32,0,0,1,1.06,1.52c1.56,0,2.41-1.58,2.49-3-.11-1.17-.44-2.31-.53-3.49a18.33,18.33,0,0,0,1.83-2.11L208,378a3.07,3.07,0,0,1-3.12-.9c.32-2.6,2.58-4.23,4.13-6.14.92-1.26,2.31-2,3.35-3.19.61-.19,1.23-.36,1.86-.5,2.12-1.73,5-1.91,7.48-2.88,1.5-1.82,1.31-4.19,1-6.39a39,39,0,0,0-.13-4.18l-.61-.41c0-1.24.62-2.32.9-3.49-.11-.91-.83-1.69-.79-2.62a9.25,9.25,0,0,0,.37-4.64c-.2-2.34,0-4.7,0-7.05-.12-1.32-.18-2.68-.21-4l-.59-.38a16.8,16.8,0,0,1,.53-3.21c-.08-1.46-.05-2.91-.1-4.38a34.12,34.12,0,0,0,.66-8.19,42.57,42.57,0,0,0-.67-5.5c.2-1.32.9-2.62.64-4-.53-2.06-.44-4.24-1.05-6.29-2-.17-3.79-1.29-5.59-2.16a16.58,16.58,0,0,1-2.86-2.17c-.74-1.44-2.21-2.11-3.32-3.19-1-1.88-2.32-3.55-3.05-5.55-.61-1.65-2.36-2.36-3.46-3.63a3.28,3.28,0,0,1-.58-3.09c.66-1.08,1.43-2.12,2.17-3.16.4-1.94,1.21-3.76,1.78-5.65.44-1.52,2.41-2.13,2.34-3.89.3-1.69,1.55-2.91,2.63-4.16.85-.5,1.89-.85,2.39-1.78a18.39,18.39,0,0,1,5.71-2.88c.24-.23.48-.47.72-.73a12.16,12.16,0,0,0,4.27-1.38c2.18,0,4.42-.68,6.58-.14,1,.17,2.11.3,3.17.4,1,.53,2,1.17,3,1.77a3.07,3.07,0,0,0,.86.93,25.48,25.48,0,0,1,5.4,3.79,5.89,5.89,0,0,1,1.17,1.79c.55.75,1.42,1.24,1.74,2.13.74,1.84,2.71,3,2.9,5.1l.47.39c0,.8.05,2.4.06,3.2,1,.55,1.94,1.54,3.25,1.19a38.54,38.54,0,0,0,8.45-.38c5-.55,10.05-.32,15.07-.44,2.8-.49,5.64.08,8.45-.29,1.4.25,2.95-.41,4.21.42,2.33-.87,4.81.18,7.16-.65,1.17.06,2.41-.35,3.55.07a3.32,3.32,0,0,0,2.1.26c2.32-.76,4.73.43,7.05-.32,1.37-.09,3.15.65,4-.86.05-.67.14-2,.18-2.67l1.26-1.45c.94-3.14,3.18-5.63,5.25-8.09,1.33-1.25,3.09-1.83,4.64-2.76,1.58-.72,2.8-2.21,4.6-2.43a48.76,48.76,0,0,1,5.67-.06,7.67,7.67,0,0,1,3.94.38l.36-.6a3,3,0,0,1,1.26,1.2,16.62,16.62,0,0,1,7.85,2.1c0,.23,0,.68,0,.91,1,.65,2.22.83,3.05,1.68,1.29.93,1.43,2.62,2.39,3.8.77.53,1.65,1.15,1.66,2.21.45,1.67,1.3,3.24,1.22,5,1,.6,2,1.11,3,1.66a12,12,0,0,0,3.32-.34,4.65,4.65,0,0,1,3,.41,4.23,4.23,0,0,1,1.95-1.41c1,.05,2,.62,3,.42a2.61,2.61,0,0,1,1.68.45c.15-.07.43-.24.58-.32l.56.32c2.13-1.11,4.61.19,6.8-.62a7.29,7.29,0,0,1,3.61.27c2.11-1.2,4.45.3,6.67-.09a3.28,3.28,0,0,1,1.32.14c2.52.89,5-1.19,7.52-.44a29.39,29.39,0,0,0,3.64.11,2.25,2.25,0,0,1,2.32-.73c1.28.16,2.68-.32,3.89.27,2.48,1,5.15.47,7.73.62,1.69.34,3.34-.44,5.05-.33.87,0,1.86.45,2.61-.18a14.48,14.48,0,0,0,2.88-5.42,3.05,3.05,0,0,0,1-2,9.64,9.64,0,0,0,2.23-4L432,262c.91-1.07,2.42-.25,3.44-1,1.18-1,2-2.41,3.42-3.11a13.22,13.22,0,0,0,1.88.14c.86-.44,1.48-1.23,2.49-1.4,1.8-.32,3.65-.42,5.47-.7a3.54,3.54,0,0,1,3.16,1.19c1.57-.56,3.27-.16,4.89-.42a56.21,56.21,0,0,1,4.59,3.41l.82.09a18.73,18.73,0,0,1,1,1.66c.44.26.87.53,1.32.76.78,2.28,2.51,4,3.87,5.89,1.32,1.28.63,3.52,2.07,4.72a6.88,6.88,0,0,1,2.2,1.42,25.56,25.56,0,0,1,4.87-.08,7.64,7.64,0,0,1,3.45-.34,35.31,35.31,0,0,0,9-.21c1.54-.3,3.1.25,4.65,0,1.68-.11,3.29-1,5-.65a36,36,0,0,0,3.89.32c1.61-.28,3.27.46,4.84-.16,1.35-.52,2.66.42,4,.21,2.43-.35,4.86.69,7.28.23,1.06.33,2-.46,3-.67a29.46,29.46,0,0,1,3.26.75c1.33,0,2.65-.32,4-.33,1.2.27,2.26-.43,3.36-.77,0-4.14,2.51-7.66,4.76-10.93.56-1.08,1.84-1.37,2.81-1.94s2-1.16,2.89-1.84l.76-.13.36-.52,1.12-.07.67-.82c1.9-.7,4.07-.75,5.83-1.85a27.91,27.91,0,0,1,3-1.12c1.35.37,2.66.83,4,1.29.88.21,1.83-.12,2.68.28a12.28,12.28,0,0,0,3.55,1.53,3.62,3.62,0,0,1,1.44.9l1.9.46a11.85,11.85,0,0,0,1,2c.79.7,1.74,1.2,2.56,1.87a15.29,15.29,0,0,0,.39,1.95,2.32,2.32,0,0,1,1,.8,25.47,25.47,0,0,0,3,5.31c.19.91.31,1.85.47,2.76.7.44,1.64,1,1.23,2a16.06,16.06,0,0,1,2.06-1.48l1.72.05a15,15,0,0,1,3.61-.33,25.44,25.44,0,0,0,7.21-.82c.47.18.91.41,1.38.58,1.55.42,2.76-.91,4.23-1a7.23,7.23,0,0,1,.78,1.12c2.61-.21,5.22-.66,7.83-.77,1.64.81,3.48.17,5.24.31,1.52-.24,3-.76,4.52-1,.11.16.31.49.41.65a7.34,7.34,0,0,0,4.1-.18,15.34,15.34,0,0,0,5.19.07c1.41-.66,2.61.58,4,.4,1.51.22,2.89-.88,4.4-.27,3.81.55,7.68-.11,11.52.2,1.19-.44,3.2-.27,3.47-1.84s.8-3.29,1.36-4.87a29.72,29.72,0,0,0,1.48-3.25,9.15,9.15,0,0,1,2.82-1.64c1.09-1.18,2-3,3.88-2.92.73-.68,1.15-2,2.3-2.12a12.15,12.15,0,0,0,3.78-1c1.48-.37,3-.39,4.5-.85,2.91-.82,6-.34,8.94-.08a29.45,29.45,0,0,1,7.21,4.36,15.32,15.32,0,0,0,2.89,1.86,8.39,8.39,0,0,1,2.28,4c.86,1,.59,2.36.86,3.55a11.6,11.6,0,0,0,2,3c1.4-.12,2.66.53,4,.76,3,.39,6-.9,9-.47,1.7-.17,3.42-.05,5.13-.12,1.51.09,3.14.48,4.61-.15.89-.15,1.71-.85,2.65-.84a9.45,9.45,0,0,1,1.85,1.17c1-.22,1.79-.85,2.77-1.07,1.64-.19,3.29.49,4.91-.1,1.16,0,2.39-.8,3.55-.34a7.9,7.9,0,0,0,3.11.49,35.69,35.69,0,0,1,8.39-.39c1,.06,2.2.65,3-.36a2.48,2.48,0,0,0,1.27-2.37,44.43,44.43,0,0,1,1.7-4.73c2.52-2.59,4.6-5.81,8-7.37a16.86,16.86,0,0,0,5.16-2c2-.05,3.81-.91,5.79-1,1.14.21,2.69-.76,3.67.21a29.4,29.4,0,0,0,6.1-.8,3.33,3.33,0,0,1,3.33,2.29,13.41,13.41,0,0,0,2.48.76c.86.72,1.73,1.44,2.64,2.08,1,1.86,2.79,3.14,4.16,4.73a19.62,19.62,0,0,1,1.35,4.58l.44.41a16.51,16.51,0,0,0,1.69,4.81c-.06,1.55,1.19,3.12.51,4.64-1.21,3-2.87,6-3.12,9.32-1.41,1.76-2.38,3.87-4.13,5.32a13.53,13.53,0,0,0-2.45.81,3.44,3.44,0,0,1-1.9,1.68,39.64,39.64,0,0,1-5.53,2.17l-.61.57a6.81,6.81,0,0,0-.48,3.67c-.64.79-1.48,1.66-1.08,2.8-.26,2.08.61,4,1.11,6a33.45,33.45,0,0,1-.34,6.71c.37,1.51,1.17,2.92,1.3,4.48-.26,1.39-.92,2.7-1.3,4-.88.95.13,2.34-.5,3.36-.1.28-.3.84-.41,1.11a8.77,8.77,0,0,1,.46,3.63c0,1.28-1.61,1.94-1.48,3.23a20.44,20.44,0,0,0,1.39,2.21,9.78,9.78,0,0,0-.05,2.7,15.69,15.69,0,0,1-.4,7.87,11.89,11.89,0,0,1,.24,6.21,4,4,0,0,1-.55,1.3,19.73,19.73,0,0,0,1.4,2.29,9.61,9.61,0,0,1-.35,1.33,1.79,1.79,0,0,0-.17,2.43c1.21,1.36,3.12,2.13,3.76,3.94a2.65,2.65,0,0,0,1.7,1.87c.85,2.45,2.65,4.39,4.34,6.29a7.33,7.33,0,0,1,2.3,1c0,.39,0,.78,0,1.16.64.54,1.27,1.09,1.88,1.67a12.08,12.08,0,0,1,6.17,3.31c.33.07.67.13,1,.18a9.3,9.3,0,0,0,.9.59c.33,1,1.28,1.94.83,3-.63,1.68-.56,3.55-1.36,5.16a26.89,26.89,0,0,1-5.2,6.61,10.27,10.27,0,0,1-1.37,2.5,33.05,33.05,0,0,0-4.12,3c-1.62,1.77-3.88,2.75-6,3.79-1.59.51-3.33.26-4.85,1.05-.12.94-.73,1.8-.54,2.77a4.82,4.82,0,0,1-.25,3,45.42,45.42,0,0,0-.08,4.81,23.74,23.74,0,0,0,.12,4.22c-.2.78-.77,1.64-.31,2.43,1.11,1.92.51,4.24.75,6.35,1.3,1.19.76,3.1.71,4.66a22.44,22.44,0,0,1-.5,4.27c-.67,2.23.11,4.48-.1,6.72a1.39,1.39,0,0,1-.38,1.11c0,.34,0,.67-.06,1,.3.37,1,.64.78,1.22a9.39,9.39,0,0,0-.36,4.33,23.12,23.12,0,0,1,0,2.35c0,3.3-.68,6.54-.62,9.84-.2,2.79-.07,5.6-.37,8.39.13,1.06.43,2.12.58,3.17,1.24.53,2.37,1.75,3.82,1.41.85,0,1.7.14,2.58.2.11.12.32.34.42.46a11.42,11.42,0,0,1,3.53,1.83c1.41,1.34,2.33,3.2,4,4.33.74,1.64,2.2,2.82,2.91,4.49,1.2,2.25.27,5,1.31,7.25.79,2.44.18,5-.09,7.51a17.62,17.62,0,0,1-1.73,3.89c-.75,1.09-.81,2.58-1.89,3.45a43.52,43.52,0,0,1-6.16,5.36c-.17.25-.34.49-.52.72a41.35,41.35,0,0,1-4.9,1c-.53.56-1.06,1.11-1.58,1.67l-.78.1-.86.91c0,.72-.13,1.43-.24,2.12-.4,2.59.17,5.17,0,7.75a2.39,2.39,0,0,1,.44,1.75l-.41.58a44.39,44.39,0,0,0,.31,5,18.27,18.27,0,0,0,.57,4.67c0,1.71-.63,3.43-.25,5.15a4.3,4.3,0,0,1-.25,2c-.09,1.58.05,3.16,0,4.73-.18.91-.16,1.77-.37,2.66a3.9,3.9,0,0,0,.63,3.55c.53.53.2,1.21,0,1.81-.45,1.32.39,2.55.27,3.86a20,20,0,0,1-.71,5.17c1.07,1.56.07,3.38-.3,5l.57.34c.21,1.24-.37,2.32-.56,3.48a17.76,17.76,0,0,0,2.62,6.55c2.39.62,4.84,1,7.25,1.6a7.9,7.9,0,0,1,1.84,1.41,3.91,3.91,0,0,0,.73,1.68c.8.52,1.76.76,2.55,1.3,1.28,1.54,2.83,3.09,3.16,5.15,1.12,1.47,1.62,3.27,2.46,4.89.56,1.07.22,2.35.31,3.48-.6,2.28,1.5,4.65,0,6.73-1,.74-2.06,1.62-2.07,3l-.75.39c-.33.91.34,2.14-.36,2.94-1.94,2.13-3.46,4.59-5.38,6.74-1.41.82-2.92,1.45-4.37,2.19l-.56-.33c-2.06.92-4.49.89-6.31,2.31-1,1,.14,2.72-.76,3.74-.65,1.26.7,2.79-.28,3.85a15,15,0,0,0,.43,2.5c-.14.65-.67,1.28-.36,2,.16,1.3,1.16,2.33,1.09,3.69.44,1.49-.13,3-.29,4.46.23,1.49,1,3.14,0,4.51a13,13,0,0,1,.49,3.45l-.89.68c0,.71,0,2.13.06,2.84.43,1.76,1.5,3.57.91,5.43.78,1.45-.12,2.94-.34,4.42.19,1.2.58,2.37.8,3.57-.13,1.77-1,3.41-1.09,5.19a4.12,4.12,0,0,1,1.12,1.62,22.8,22.8,0,0,1-1.13,2.71c-.06,1.29.72,2.56.32,3.84a9.1,9.1,0,0,0,0,3.45l.6.42a11.62,11.62,0,0,1-1,3.7l.71.44c-.17,1.2-1.15,2.47-.15,3.57-.29.83-.64,1.65-.86,2.51l1,.62.41-.21c1,.51,1.86,1.09,2.78,1.68,1.41,1,3.22,1,4.67,1.87.71.46,1.4,1,2.09,1.46,0,.36.05.71.09,1.07,1.79,1.2,3.59,2.37,5.45,3.46.29,1.54.36,3.22,1.47,4.44.88,1.14-.23,2.64.23,3.92.33.91.77,1.77,1.17,2.65-.23,1.37.44,2.83-.26,4.1a19.56,19.56,0,0,0-1.42,5.69c-1,1.82-2.67,3.2-3.41,5.18a6.52,6.52,0,0,1-1.24,2h-.91c-.39.74-.53,1.59-.91,2.33a6.22,6.22,0,0,1-2.58,1c-.35.65-.68,1.3-1,2-1.89.75-3.88,1.25-5.82,1.89-1,.46-2.09-.42-3.15-.28-1.09,1.07-2.73.81-4.1,1a4.07,4.07,0,0,1-3.25-.92c-1.11-.28-2.21-.6-3.31-.85-1.88-.91-3.26-2.59-5.18-3.41-.75-.45-1.72-.57-2.29-1.28-1-1.33-1.75-2.77-2.59-4.19-.31-1.07-1.42-1.55-2.14-2.29a10.45,10.45,0,0,0-1.85-4.69c-.59-1.12-2-1.23-3-1.73a9.3,9.3,0,0,0-4.09,1.08,16.41,16.41,0,0,0-3.68-.71,24,24,0,0,0-3.7.14c-.94-.13-1.82-.65-2.79-.47A22.56,22.56,0,0,1,729,730c-4.55-.65-9.15-.26-13.72-.32-.47-.08-.94-.14-1.4-.18l-.74.82c-.39.11-.76.22-1.12.34a9.33,9.33,0,0,0-7.13-.37,8.92,8.92,0,0,0-4.44.37,5.13,5.13,0,0,0-2.57-.87,7.11,7.11,0,0,0-.49,1.36,14.84,14.84,0,0,1-1.29.83,8.91,8.91,0,0,0-.13,3.09,11.48,11.48,0,0,0-1.63,1.3,7.49,7.49,0,0,1-.47,1.33c-1.73,1.55-4.19,2.25-5.43,4.32-.1.38-.14.82-.55,1-1.64.62-3.23,1.38-4.92,1.87a5.9,5.9,0,0,0-2.43,1.13c-2.46.33-4.84,1-7.31,1.27a13.07,13.07,0,0,1-5.75-1.63c-1.44-.87-3.28-.88-4.6-1.93-1.38-1.21-3.34-1.76-4.22-3.48-.86-1.3-2.19-2.21-2.9-3.61-.72-1.15-1.5-2.27-2.19-3.43-.38-.83-.12-2-.85-2.72-1-.36-2.15-.42-3-1.15-.48-.53-1.16-.34-1.77-.3a42.81,42.81,0,0,0-5.43.65,15.14,15.14,0,0,0-2.07-.67c-1.26.85-2.88.28-4.26.28-1.31-.28-2.51.44-3.78.44a6.31,6.31,0,0,0-3.43-.35,4.43,4.43,0,0,1-3.14-.37c-.7.11-1.17.78-1.79,1.07-2.58-.67-5.47-1.7-8-.38a27.59,27.59,0,0,0-9.37-.43c-.11.12-.32.37-.42.5-.35.07-.69.16-1,.24a32.25,32.25,0,0,0-5.37-.3c-.74-.17-1.4-.55-2.13-.72-.86.12-1.68.62-2.57.44-2.8-.8-5.78-.29-8.65-.19-.14.3-.27.59-.39.89a10.7,10.7,0,0,0-4.61-1.22c-.1.15-.29.44-.38.59-1.27.14-2.53.3-3.8.35-.89,1.47-1.94,2.82-2.78,4.31-.45.9-1.35,1.49-1.72,2.42s-.63,2-1.53,2.62c-1.28.7-3,.77-3.78,2.14a6.63,6.63,0,0,1-1.77,1.49c-1.77,1.43-4.29,1.13-6.41,1.3-1.42,1.4-3.65.59-5.41.81-1.77.44-3-1.05-4.58-1.36-1-.35-2.17-.23-3.11-.76-2.12-1.3-4.18-2.7-6.19-4.17,0-.19-.08-.58-.11-.77a35.3,35.3,0,0,1-3.19-3.62,7.16,7.16,0,0,1-1.85-3.81c-1.13-.79-2.12-2-3.65-2-1.24-.37-2.3.31-3.43.63a15,15,0,0,1-4.18-.31c-2.52-.17-5.06.11-7.57-.18l-.71.93a14.31,14.31,0,0,1-2.5-.72,34.13,34.13,0,0,0-6.3-.38l-.6.36c-1.94-.56-3.93.42-5.8-.3-1.23-.15-2.47,0-3.7,0a3.86,3.86,0,0,1-2.35-.4c-1.51.86-3.31.37-4.93.4-5,.39-9.9-.53-14.85-.26-1.78-.26-3.56-.44-5.31-.75-.21.85-.51,1.69-.8,2.52-.9,1.37-.84,3.13-1.66,4.54-.58.93-.62,2.25-1.65,2.84-.18.31-.36.61-.53.92a8.5,8.5,0,0,0-3,3c-2.06.7-3.42,2.58-5.33,3.55-1.62.69-3.43.75-5,1.47s-3.12.73-4.65,1.23a42,42,0,0,1-6.72-1.46c-.1-.14-.32-.43-.42-.58-.77.1-1.5.37-2.26.49a32.46,32.46,0,0,0-3.79-1.74c-1-.38-1.48-1.48-2.29-2.14a18.73,18.73,0,0,1-5.63-7.41c-1.08-2.08-.88-4.66-2.27-6.58-1.29.06-2.54-.27-3.82-.2a2.81,2.81,0,0,0-1.79.15c-.92.51-2,0-3,0a30.66,30.66,0,0,0-5-.09,33.68,33.68,0,0,0-6.18-.34c-1.39-.37-2.7.19-4,.63a15.86,15.86,0,0,0-6.79,0c-1.24-.24-2.5.24-3.74,0-2.57-.59-5.2-.13-7.8-.35a8.25,8.25,0,0,1-1.57.05l-3.12-.17-.7.8c-.38.1-.75.21-1.12.33a10.91,10.91,0,0,1-2.78-1c-.85-.6-1.94-.34-2.9-.23-1.46.16-2.9-.72-4.32-.18-1.24.06-2.49.74-3.73.39s-2.71-.69-4-.07a32.35,32.35,0,0,1-1.74,3,44.81,44.81,0,0,0-3.41,7.57,14.36,14.36,0,0,1-1.7.38c-.88,1-1.24,2.27-2.2,3.13a2.44,2.44,0,0,1-1.41.12c-1.33.39-2.15,1.54-3.25,2.31-2.15,1.17-4.64,1.47-7,1.87-1.08.31-2.1.93-3.28.78a15.82,15.82,0,0,1-2.83-1.32,29.66,29.66,0,0,0-2.95-.92c-1.06-.36-2-1-3-1.46-.72-.07-1.43-.13-2.15-.18a7.4,7.4,0,0,0-.8-2.46c-.7-.69-1.35-1.41-2-2.15-.57-.1-1.13-.24-1.68-.39-.25-.75-.5-1.49-.74-2.25-1.2-1.2-1.49-3-1.87-4.57a8.45,8.45,0,0,0-.13-1,9.65,9.65,0,0,1-2.08-2.15c-2.06,0-4.08-.59-6.14-.51-1.31-.28-2.53.48-3.84.38l-2.32-.39a24,24,0,0,1-6.05.22c-2.68-.3-5.32.37-8,.51a5.27,5.27,0,0,1-1.65-.37c-.85-.92-2.28-.05-3.31-.15-1.84.47-3.68-.11-5.52,0-2.31.07-4.62-.14-6.93.09-2.73-.29-5.42.65-8.16.27l-1.4.1c-1.81.61-3.19-1.21-5-.83a6.5,6.5,0,0,0-2.71.57c-.74-.32-1.5-1-2.35-.62-1.41.45-3.39.27-4.28,1.69-1.62,1.66-.92,4.35-2.53,6-.78,1.49-2.28,2.26-3.51,3.29l-.08.83-.65.51c-2.9,1.28-5.62,3-8.58,4.15a33.33,33.33,0,0,0-5.73.49c-2,.45-3.73-.77-5.6-1.13-1.62-1.08-3.72-1.14-5.26-2.38-.63-.15-1.25-.33-1.87-.52a15.35,15.35,0,0,0-2.36-1.49c-.63-.94-1-2.12-2.08-2.68a16,16,0,0,1-1.94-3.09c-.47-1.14-1.54-2-1.82-3.2a52.46,52.46,0,0,1-1.27-5.55c0-1,0-3.16,0-4.22.38-.94-.3-1.73-.71-2.52a5.08,5.08,0,0,1,1.61-3,11.59,11.59,0,0,0,1.07-3.67c.42-.37.84-.75,1.29-1.08.86-1.11,1.76-2.19,2.66-3.26a30.26,30.26,0,0,1,9.51-5.59c1.59-.25,3.05-1.25,4.72-.91.31-.19.63-.37,1-.54.08-2.59,0-5.19.21-7.78a9.16,9.16,0,0,0,0-2.34c-.29-3,.32-5.93,0-8.9-.26-1.25.35-2.42.32-3.66-.09-1-.19-2.09-.38-3.13-.14-1.58-.13-3.18-.31-4.77a17.36,17.36,0,0,1,0-2c.08-1.32.39-2.73-.16-4-.45-.89.18-1.82.28-2.7a11,11,0,0,0-.19-5.91c.16-.79.28-1.6.48-2.39-1.08-2.25.18-4.74-.15-7.1.16-.53.58-1.06.37-1.64-.5-1.63-.34-3.35-.62-5a7.89,7.89,0,0,1,.15-2.78,17.63,17.63,0,0,0-2.83-.75c-1.33-.27-2-1.66-3.21-2.11a15,15,0,0,1-3.32-2c-.39-.54-1-1.22-.21-1.73l-.24-1.09c-.79.5-1.63,1.1-2.57.55-.15-.46-.31-.91-.45-1.37-1.15-1.54-2.07-3.23-3.2-4.78a4.06,4.06,0,0,1-.75-2.78,15.25,15.25,0,0,0-1-5.6c-.64-1.23,0-2.61.24-3.87,0-.13-.16-.38-.22-.5.51-1.53.78-3.14,1.25-4.69,1.63-2.07,2.82-4.45,4.36-6.59a4.56,4.56,0,0,1,1.31-1.35,11.52,11.52,0,0,1,1.37-1.87,11.38,11.38,0,0,0,4.44-1.48c1.14-.74,2.6-.61,3.77-1.27a4,4,0,0,0,1.2-1.76c-.11-.8-.43-1.56-.52-2.36.11-1.2.57-2.35.75-3.55a19.94,19.94,0,0,0-.36-2.78,17.14,17.14,0,0,1,0-3.58c.33-1.27-.11-2.53,0-3.81a13.29,13.29,0,0,0,0-4.36,30.66,30.66,0,0,0-.37-7.41c0-3.18-.36-6.44.4-9.57.14-1.55-.44-3-.36-4.6.28-2.27-.22-4.56.11-6.84,0-4.69-.07-9.37,0-14.06a6.58,6.58,0,0,0-.15-2.79c-2.4-1.87-5.72-1.49-8.33-2.94-1.57-1.1-3.12-2.23-4.77-3.22-1.22-.61-1.73-2-2.94-2.68a10.23,10.23,0,0,1-3.8-4.8m4.46-15.41.53,0a17.48,17.48,0,0,1,.35-1.72l-.53,0c-.09.59-.21,1.16-.35,1.73m5.92,231.15c.27.34.53.68.77,1a1.79,1.79,0,0,0,.11-1.84c-.3.26-.59.53-.88.8m0-112.14c.49.15.65,0,.5-.5-.48-.15-.65,0-.5.5m.78-327.48a23.57,23.57,0,0,1,4.65-1.35c.32-.27.66-.52,1-.77,0-.35,0-.72,0-1.09a3.2,3.2,0,0,1-2.07-.37c.08-.37.21-.73.32-1.1.39-.12.78-.27,1.17-.4-.11-.66-.26-1.33-.36-2l-2,.28a4.22,4.22,0,0,1,0,2.63l-.84.06c-.22,1-.44,1.92-.67,2.86a2.91,2.91,0,0,0-1.42.42c.06.29.14.56.22.83M214,711.49a1,1,0,0,0,1.24-1.24,1,1,0,0,0-1.24,1.24m.1-218.31c.92.46.06-.95,0,0m.48,231.9c1.32.84,1.64-.37,1.85-1.15a2.87,2.87,0,0,0-1.47-.37c-.14.5-.28,1-.38,1.52m.56-101.63a10.19,10.19,0,0,1,4.76-.86c.1.17.32.52.42.7.72.05,1-.54,1.32-1.1.45-.8.07-2.07,1-2.55,1.31-.55,2.86-1.28,3.05-2.87a12.32,12.32,0,0,1,.9-.87,4.13,4.13,0,0,0,3.22-.56l-1.21-.45c-.1.15-.28.47-.37.62l-.81,0a29.45,29.45,0,0,1-1.61-2.91c-1.21-.34-2,1.34-3.2.61.58-.59,1.09-1.28.62-2.11-1,.09-2,.31-3,.38a11.38,11.38,0,0,0,1.23,2.95c.13,1.88.18,4.24-1.52,5.49-1.83.77-4.19,1.38-4.74,3.56m.86-18.36c.45-.74,1-1.46.6-2.44a3.23,3.23,0,0,0-1.11,1.32c-.63.38-.1,1.43.51,1.12m.64-331.3a10.85,10.85,0,0,1,1.52-.36,5.57,5.57,0,0,0,.95-1.72,5.25,5.25,0,0,0-3.28,1.24c-.11.53.48.62.81.84M216,614.3l.85,0a11,11,0,0,1,1.32-1,2.28,2.28,0,0,0-1.45-.73c-.23.6-.49,1.19-.72,1.79m.78-337.48c.16-.33.32-.66.48-1l-1-.22a4.11,4.11,0,0,0,.49,1.23m.78,340.8a5.47,5.47,0,0,0,1.15-.6c0-.24,0-.73,0-1-.51.12-1,.27-1.52.41a5.13,5.13,0,0,0,.4,1.16m-.32-20.81c.67,1.06,1.65-.7.8-1.08-.67-.27-.68.64-.8,1.08m.4-98,.46.14c.74-.33-.63-.81-.46-.14m1.34-4.35c.29-.45,1-1.06.26-1.5a13,13,0,0,0-1.76.33c-.09.92.69,1.3,1.5,1.17m-1.06,222c.42.12.58,0,.45-.46-.4-.09-.55.06-.45.46m1,15c0,.18.11.56.14.74l.55,0a21.94,21.94,0,0,1-.39-2.45c-.38.23-.75.48-1.12.73a10.53,10.53,0,0,0,.82.95m.12-245.3.88-.06c.06-.6.43-1.33-.17-1.78-.24.61-.47,1.23-.71,1.84m.91,27.16c1-.06-.45-.91,0,0m.34-2.67h0m.29,116.67c.28.32.95-.08.71-.47s-1,0-.71.47m.9.9c.24.36,1,.05.65-.37-.23-.41-1-.06-.65.37m.19,93.89.58.34.39-.51c.49-.09,1.06,0,1.41-.45a21.84,21.84,0,0,0,0-2.29l-.81.38c-.17.33-.35.64-.53,1a9.34,9.34,0,0,0-1.07,1.58m-.08-115.22,1.33.11c0-.25-.07-.76-.09-1a1.39,1.39,0,0,0-1.24.9m.32-97.43,1,.06a14.69,14.69,0,0,0,1-1.08l-1-.06c-.34.36-.7.7-1,1.08m.73,219.12a3.65,3.65,0,0,0,1.14,1,4.59,4.59,0,0,0,1.77-1.38,10.2,10.2,0,0,1-.82-.79c-.2-.59.56-.79.87-1.15.59.43,1.43.77.93,1.86,1.43-.55,1.47-2.28,1.42-3.58-.89,0-1.8,0-2.68,0l-.73,1.33c-.83.67-2.1,1.48-1.9,2.7m1.71-17.07,1.23,0c-.08-.66-.26-1.3-.29-2a3.52,3.52,0,0,1,2-1.06c-.09-.47-.21-.93-.34-1.39-1,.45-2.47,1.1-3.06-.27-.46.08-.91.2-1.36.3a6.09,6.09,0,0,0,1.78,4.43m-1.77-105.79c.71.1,1.41.26,2.13.34a9.5,9.5,0,0,0-1.06-2.37,6,6,0,0,1-.67.75c-.13.43-.27.85-.4,1.28m.27-103.27a15.22,15.22,0,0,0,1.58-.62c-.12-.42-.25-.84-.4-1.26a3.51,3.51,0,0,0-1.18,1.88m2.06,124.14c-.07-.45-.22-1.36-.29-1.81l-.55-.38.33-.56c-.39-.13-.79-.24-1.2-.34,0,1.34-.65,3.68,1.71,3.09M224,389.83c.09-.4-.06-.55-.46-.46-.12.43,0,.58.46.46m.5,221.5c.42.13.57,0,.45-.45q-.6-.15-.45.45m.81-96.57c1-.06-.45-.91,0,0m-.1-19.56c1.27-.38,2.84.09,3.88-.86a11.13,11.13,0,0,0,1.25-2.63c-1.53.28-2.72,1.49-4.31,1.64-.67.33-.57,1.24-.82,1.85m.33,133.94a7.06,7.06,0,0,0,1.45.67l.7-1.3a12.16,12.16,0,0,0-1.46-.29l-.69.92m.11-30.28h0m.22-.54.89-.2a5.76,5.76,0,0,0,1.1.2c.53-.55,1.09-1.09.7-2a10.13,10.13,0,0,0-1.45-.32,3.66,3.66,0,0,0-.46,1.41c-.27.32-.53.63-.78,1m.08-216.48c.91.45.06-.95,0,0m.23-84.67c.48.12,1,.24,1.45.34,0-.21,0-.62-.05-.83a5.09,5.09,0,0,1-.63-.6l-.76-.1c0,.4,0,.8,0,1.19m.59,105.37.35.3c1-.29-.56-1.46-.35-.3M228.53,670a7.22,7.22,0,0,0,.51,1.74,9,9,0,0,0-.46,1.53,32.88,32.88,0,0,0,.71,8.8c-.72,1.91-.39,4-.83,6-.63,1.63.31,3.26.12,4.91a16.2,16.2,0,0,0,.58,6.56,14.19,14.19,0,0,0,4.18,2.33c1.61.48,2.77,1.79,4.2,2.61.32.55.57,1.23,1.23,1.43,1.3.46,2.1,1.66,3.1,2.53.63,1,.72,2.32,1.89,2.86a22.86,22.86,0,0,0,2.06,3.25c.29,2.75-1,6,1.36,8.2,2-.57,4,.23,6-.2,2.49-.19,5.19.32,7.56-.67,1.46.7,3,.09,4.43-.29a31.71,31.71,0,0,0,8.54.32,15.5,15.5,0,0,1,3,.71,6.13,6.13,0,0,1,2.05,0c.93-.15,1.77-.63,2.7-.76.66.08,1.26.59,1.95.43a16.44,16.44,0,0,1,3.84,0c3.64.62,7.27-1,10.93-.27,2.08.23,4.13-.7,6.22-.3,1.29.18,2.63-.28,3.88.19.58.44,1.18,1,2.05.45,1-.88,2-1.79,3.05-2.64a6.45,6.45,0,0,1,.71-3.15c.86-1.37,1.29-3,2.17-4.31.15-.53.31-1.06.5-1.58,2.16-.83,3.59-2.74,5.09-4.4.84-.46,1.74-.78,2.57-1.28,2.63-1.45,5.71-1.84,8.3-3.38a3.06,3.06,0,0,0-1.17-2.06c0-.76.09-2.29.11-3a9,9,0,0,0,0-2.92c0-2.22,0-4.46.06-6.68-.56-3-.52-6.11-1-9.16a2.86,2.86,0,0,0,.46-2.94c-.15-.09-.43-.29-.57-.38l.2-1.9c.18-1.55-.22-3.11,0-4.65.44-1.65.07-3.38.54-5,.07-3.05-.23-6.1,0-9.15a49.26,49.26,0,0,1-.3-6.07,32.44,32.44,0,0,0,.67-3.67,35.69,35.69,0,0,1-.08-4.74,14.75,14.75,0,0,1,.09-2.3,18.74,18.74,0,0,0-1.23-2.35c-2-1.13-4.29-1.89-6.07-3.42a14.39,14.39,0,0,0-3.19-1.82c-.63-1.3-2.43-1.27-3.08-2.58-1-1.37-2.31-2.53-3-4.11-1.39-2.77-1.47-6.07-3.53-8.52a4.77,4.77,0,0,1-2.82-.22,13.26,13.26,0,0,0-5.84.35c-2.12,0-4.44-.64-6.39.45-1.83.31-3.68-.56-5.53-.17-2.12.67-4.39-.19-6.55-.07a16.08,16.08,0,0,0-3.86.06c-2.64-.29-5.31.31-7.92-.33-2.12.11-4.27-.25-6.38.26a11.42,11.42,0,0,0-5.66.11c-3.07-.93-6.24.15-9.36.14-1.79,1.28-1.16,3.93-2.59,5.47-1.43,1.77-2.58,3.73-3.86,5.61a18.54,18.54,0,0,0-1.86,1.69,15.14,15.14,0,0,1-1.65,2.8c-.87.54-1.79,1-2.68,1.46a24.52,24.52,0,0,1-2.62,1.82c-1,.39-2,.79-3,1.13s-2.4,0-3.31.84c-.85.41-1,1.39-1.31,2.18.47,1.36-.2,2.77-.21,4.15s-.08,2.9,0,4.34c.17.77.21,1.62.33,2.38a12.14,12.14,0,0,1,.59,5,6.2,6.2,0,0,1-.54,3.66c-.46.73,0,1.5.36,2.16-.23.77-.3,2-1.41,1.83,2.35,2.28,2.28,6.1.88,8.87m-.6-59.77a5.35,5.35,0,0,0,2-1c-.16-.93-.21-2.27-1.46-2.16a5.7,5.7,0,0,0-.57,3.12m1.41-140.17c-1.39,2.31-1,5.06-1.07,7.62.6,1.21,1.9,1.87,2.68,2.94,2.18.27,4,1.63,5.71,2.9a42.43,42.43,0,0,1,2.65,3.58,14.59,14.59,0,0,1,3,3.52c.24.8.33,1.67.51,2.46.59.69,1.14,1.43,1.69,2.13a12.64,12.64,0,0,1,6.2.21c4.28-1.26,8.83-.11,13.17-.93a7.47,7.47,0,0,1,2.8.38,33.67,33.67,0,0,1,7.9,0,25.45,25.45,0,0,0,4.08-.29,24,24,0,0,0,7.06-.71c1-.21,1.77.92,2.8.73,4.11-.69,8.26.06,12.38-.4,1.69-.31,3,1.26,4.74.65,1.17-.18,2.36-.15,3.55-.32,1.21-.46,2.39-1,3.63-1.41a22.91,22.91,0,0,1,3.31-5.57c.9-.88,2-1.54,2.83-2.49,1.81-.78,3.28-2.16,5.15-2.86.74-.41,1.73-.57,2.24-1.34a6.2,6.2,0,0,1,3.1-.74c.9-1,2-2.12,1.69-3.61,0-.76.27-1.48.35-2.23-.33-1.18-1-2.28-.63-3.57.1-2.55-.69-5-.72-7.56a2.31,2.31,0,0,0,1-3c-.24-2.65-.08-5.33-.31-8,.07-2.27-.15-4.55,0-6.83a10.27,10.27,0,0,0,0-2.35c-.59-2.77.14-5.61-.49-8.37a6.64,6.64,0,0,1,.3-3.36c.26-1,0-2,.18-3.07.25-1.51.17-3,.32-4.56a1.75,1.75,0,0,1,0-2.21c0-.11-.09-.33-.11-.45.27-1.3-.25-2.59-.31-3.89.53-1.59-.28-3.26.11-4.88s-.71-2.93-.29-4.45c0-.44.2-1-.25-1.27-1.27-1.41-3.42-.68-5-1.55a23.11,23.11,0,0,1-7-3.95c-1.61-2.3-4-3.95-5.44-6.4a23.79,23.79,0,0,0-2.42-5,23.7,23.7,0,0,1-4.67-.84c-1.56.36-3.19.14-4.73.55a3.5,3.5,0,0,1-2.66-.07c-1.82-1-3.91-.08-5.83-.09-2.59.47-5.31-.68-7.81.32-1.4-.11-2.81,0-4.22-.1-1.12-.32-2,.43-3,.74-.79.12-1.45-.64-2.25-.46a19.3,19.3,0,0,1-4.62.09c-1.27-.2-2.41.5-3.67.44-.1-.16-.31-.46-.42-.61-1.7-.48-3.39.54-5.12.13-1-.1-2,.08-3,0a8.18,8.18,0,0,0-3.34,0c-1.54.5-3.16,0-4.73.07a21.18,21.18,0,0,0-2.45,1c0,.21,0,.64-.05.85-.47.42-.92.88-1.36,1.3a10.75,10.75,0,0,0-.73,2.82c-1.75,1.22-1.81,3.53-3.32,5a5.21,5.21,0,0,1-2,2.41c-1.35.18-1.58,1.79-2.5,2.56a20.1,20.1,0,0,1-5.07,2.6c-1.34.57-3,.25-4.17,1.17-.27,3.76-.87,7.56-.35,11.31.61,1.44-.21,2.94-.07,4.42,0,.13-.08.38-.11.51a8.89,8.89,0,0,1-.26,3.66c.09,1.72.23,3.44.33,5.15a32.43,32.43,0,0,1,.4,3.38c-.09,1.08-1.06,2-.72,3.13.64,2.35.45,4.81.49,7.2l.59.39a8.93,8.93,0,0,0-.84,4c.19.63.5,1.23.64,1.87a12.65,12.65,0,0,0,.39,5.34c0,1-.71,1.9-.75,2.91.06.58.19,1.15.26,1.72l-.56.41c-.08.44-.24,1.3-.31,1.74a11.21,11.21,0,0,0,1.41,3.52m-.91-117.58c-.72,2.35.93,4.79-.15,7.13a20.09,20.09,0,0,1,.22,4.17c1.43,1,3.3,1,4.9,1.6a15.52,15.52,0,0,0,3.28.85c2.42,1.11,3.67,3.68,5.92,5a59.47,59.47,0,0,0,3.83,6.23c.75,1,.19,2.37.72,3.44a22.39,22.39,0,0,0,1.53,2.3,9.53,9.53,0,0,1,2.9.87c1.68-.84,3.58-.3,5.37-.42.4-.06.69.22,1,.43,1.26.59,2.51-.27,3.76-.49l3,.1c2.94-.73,5.95-.06,8.91-.31a5.6,5.6,0,0,1,3.29-.26c1.28.22,2.57.21,3.86.34,1.79.29,3.54-.45,5.33-.35a14.79,14.79,0,0,0,2.67.77l.52-.53a8.06,8.06,0,0,0,4-.3,12,12,0,0,0,4,.09,17.91,17.91,0,0,0,2.64,0c1.53-.18,3.11.35,4.61-.19a27.28,27.28,0,0,1,4.32-.64,1.7,1.7,0,0,0,.64-.61,22,22,0,0,0,1.66-6,21.18,21.18,0,0,1,10.88-11.92A31.29,31.29,0,0,1,326,362.1a20.72,20.72,0,0,0,3.11-.75,10.73,10.73,0,0,1,1.2-.9,19.14,19.14,0,0,0,.51-4.29c.19-3.24-.22-6.46,0-9.7.25-1.3.36-2.81-.67-3.81-.09-1.58.87-2.9,1.28-4.36-.18-.7-.54-1.36-.71-2.07-.1-1.1.34-2.23.08-3.33a27,27,0,0,1-.27-6.16c.14-1.36-.44-2.67-.35-4a24.74,24.74,0,0,0,0-6c.06-1,.5-2,.27-3.08-.3-4,.88-8.27-1-12-1.53-.65-3-1.31-4.6-1.92-1.12-.85-2.16-1.78-3.2-2.73a13.21,13.21,0,0,0-2.81-1.06l-1.34-1.88a2.69,2.69,0,0,0-1.57-2.32c-.62-1.13-.78-2.63-2.09-3.21a46.75,46.75,0,0,0-1-5.22,7.39,7.39,0,0,0-2.73-1.4q-2.85-.13-5.67-.3a20.39,20.39,0,0,0-2.35,0,4.25,4.25,0,0,1-3.19-.35c-3,1.52-6.46.74-9.63.47-.1.16-.29.47-.38.63l-3.09-.18a16.73,16.73,0,0,0-3.81.05l-4.2,0a4.91,4.91,0,0,0-2.91.32h-1.25c-1.34-.84-3-.33-4.45-.3-2.27.1-4.55,0-6.81.33-1.72.09-3.39-.5-5.09-.66-.79.22-1.49.64-2.25.91s-1.84,0-2.75.17c-1.71,1.17-2.47,3.2-3.36,5-1,2.35-2.79,4.2-3.87,6.49-2.13,1.07-3.47,3.27-5.76,4.05-1.8,1.38-4,2-6,2.8-1.65.57-3.5.56-5,1.51-.05.48-.11.95-.19,1.41.2.47.53.94.37,1.47-.5,2.19.62,4.41.11,6.61-.32,1.07.28,2.16,0,3.22s.18,2,.21,2.93a4.12,4.12,0,0,0-.36,2.84,21.06,21.06,0,0,1,0,5.08c-.4,1.79.47,3.53.64,5.28a18.74,18.74,0,0,1,.59,2.73c-.31.39-.66.74-1,1.12,0,1,.1,2.06.17,3.07l-.58.38c0,1.77.23,3.53.07,5.29a7.16,7.16,0,0,0,.64,3.16c.81,1.79-1.81,3.42-.47,5.11m0,227.54c.49,1.16,0,2.42.16,3.62.27,1.38.18,2.79.32,4.17.11.71.18,1.41.22,2.11a15.94,15.94,0,0,1,3.9,2.33c.94.23,1.93.16,2.87.4,2.16.5,4,1.86,5.8,3.07,1,.94,1.6,2.3,3,2.66.69,1.19,1.31,2.42,2,3.63.25.24.62.42.72.78.53,1.57,1.33,3,1.93,4.57.46.82,1.47,1,2.25,1.3.89-.31,2-1.35,2.8-.36,1.14.37,2.33,0,3.5-.09,2.26-.28,4.54.1,6.81,0,.9,0,1.78.24,2.68.33,2-.36,4.08-1,6.14-.49,1.29.45,2.53-.11,3.8-.19,1.91.76,4,.73,6,1,.63.12,1.07-.45,1.53-.79a7.67,7.67,0,0,1,3.66.62c.63.35,1.23-.34,1.88-.28a30.49,30.49,0,0,0,5.88-.38c.09.16.28.46.37.61a9.43,9.43,0,0,0,2.37-.28c1-.28,1.83-1.15,2.91-1.17a39.14,39.14,0,0,0,5.82.67c.55.33,1.13.94,1.82.69,1.06-.39,2.18-.51,3.24-.89a7.21,7.21,0,0,1,2.37-2.68c0-.19.1-.56.14-.75l.45-.41a11,11,0,0,1,3.83-6.27l1-1.64c1.27-.83,2.79-1.25,3.93-2.27a4.74,4.74,0,0,1,3.06-.55,23.89,23.89,0,0,1,2.33-1.78,4.07,4.07,0,0,0,1.44-4.67c.95-2.41-.33-4.86-.37-7.31a5.72,5.72,0,0,1,.46-1l-.23-.47c.08-.16.25-.47.34-.62-.07-.14-.2-.42-.26-.56.05-.85,0-1.73,0-2.6.58-.37.49-.95,0-1.4-.12-.34-.24-.69-.35-1,.38-1.63-.29-3.29-.22-4.94-.24-2-.76-4-.42-6,.3-2.54.32-5.07.43-7.62a37.48,37.48,0,0,0,.13-4.86c.18-1.4-1.05-2.6-.41-4a28.86,28.86,0,0,0,.26-6.95,5.17,5.17,0,0,0,.33-3.13,21.21,21.21,0,0,1-.26-5.28,5.2,5.2,0,0,0-.72-3.23c-.94-1.21-2.78-.52-3.89-1.46a36.36,36.36,0,0,0-5.94-2.92c-2.77-2-4.27-5.22-7.07-7.15-1.69-2.57-2-5.69-2.62-8.62a35.56,35.56,0,0,1-.16-4,12.24,12.24,0,0,0-2.33-.84c-2.31.25-4.65.19-7,.37-2.28.44-4.51-.92-6.78-.27a29.35,29.35,0,0,1-3.75.33c-1,.07-2-.64-3.05-.36-2.21.79-4.54-.29-6.78.33-.85.22-1.62.8-2.53.69-1.6,0-3-.71-4.56-1.09a29.92,29.92,0,0,1-11.62.64c-1.59-.14-3.18-.16-4.76-.33-.68,0-1.36,0-2,0a8.45,8.45,0,0,1-4-.16c-1.39-.55-2.89.11-4.3.13l-1.91,1.39c-.46,1.68-.12,3.58-1.14,5.07-.8,1.14-.64,2.68-1.59,3.75s-1.32,2.58-2.13,3.78a18.4,18.4,0,0,1-3.6,3.22,7.88,7.88,0,0,1-3.56,2.64c-.78.37-1.78.24-2.46.82a11.11,11.11,0,0,0-2,3c.17,1.8-.21,3.61.05,5.41.24,1.26-.24,2.53,0,3.79.28,1.78-.25,3.58,0,5.36a6.21,6.21,0,0,1,.23,2.67c0,.82-.27,1.73.39,2.34.62,1.26-.2,2.53-.39,3.79,0,1,0,2,0,3.05-.2,1.56.87,3,.55,4.56l-.69.05c.11,1.12.35,2.2.54,3.3.34,1.43-.94,2.56-.69,4,.09.76,0,1.53,0,2.28.09,2.22.58,4.61-.33,6.71.36,2.68-.08,5.41.18,8.09m.28,138.26a3.33,3.33,0,0,0,1.9-.13,2.86,2.86,0,0,0-1.21-.83l-.69,1m.12-422.06c.91.45.06-.95,0,0m1.64,94.29c0-.25.07-.76.1-1l-1.64.13a2.26,2.26,0,0,0,1.54.89m-.58,213.35-.08-.4c-.68-.46-.52.9.08.4m-.27.72a1.25,1.25,0,0,0,1.62-.3q-.66-.24-1.35-.42c-.06.18-.2.54-.27.72m.35,20.91a6.29,6.29,0,0,0,1.11.37,3,3,0,0,0,.41-1.47l-1,0a2.79,2.79,0,0,0-.54,1.14m3.52-23.62c0-.41,0-.83,0-1.25-.93.11-1.86.33-2.78.47.58.89,1.91,1.8,2.79.78m-.07,2.06,1.9.3c-.1-.45-.29-1.35-.39-1.81-.83,0-1.08,1-1.51,1.51m1.77,21.45c0-.57.05-1.14.05-1.72-.29.15-.58.3-.85.47,0,.55.42.94.8,1.25m.74-15,.88.42a8.66,8.66,0,0,0,.23-2.34c-.48-.44-.91-.92-1.41-1.33.1,1.08.28,2.17.3,3.25m-.25-230.17a6.52,6.52,0,0,0,.91-.91l-1.07-.17.16,1.08M237,504.82c.41.1.81.19,1.23.25a13.55,13.55,0,0,0-.77-1.25c-.15.34-.3.67-.46,1m78.59,100.6c.91.45.06-1,0,0m2,1.14c1-.06-.45-.91,0,0m.32-2c.48.15.65,0,.5-.5-.49-.14-.66,0-.5.5M319,382.13a34.1,34.1,0,0,0,2.14-2.88c-.4-.32-.77-.68-1.2-1-.71.56-1.66,1.17-1.77,2.11-.32.52,0,2.05.83,1.73m-.23,226.52a6.26,6.26,0,0,0,1.54.35,3.42,3.42,0,0,0-.72-1.16c-.51-.17-.89.35-.82.81m1.47-97.92,2-1.31c.24-.25.31-.87.77-.81,2.4-1.29,1,2.59,2.92,2.11a21,21,0,0,0-1-3.49,13.66,13.66,0,0,1-1.71-1.32l-.4,1.68c-1.3.52-2.4,1.4-3.64,2-.33.67.7.77,1.07,1.11m-.82-4.83c.12.52,1.05.41.8-.17s-.93-.34-.8.17m1.57-3.21c.65-1.68,3.06-2.43,2.15-4.63-.3-.4-.58-.83-.85-1.26.12-.28.23-.56.34-.85-.3-.11-.59-.22-.88-.35-1.07.72-2.09,1.75-1.82,3.2.5.14,1,.29,1.49.4l-.06,1c-.21.29-.41.58-.59.87l-.92.21a9.42,9.42,0,0,0,1.14,1.37m-.77-115.83a14.19,14.19,0,0,1,1.47-.31c0-.14,0-.4,0-.53h-1.49c0,.21,0,.63,0,.84m.7,5.55a10.65,10.65,0,0,1,.9,1.25c.77,0,1.55,0,2.33,0-.27-.42-.54-.84-.78-1.29a12.1,12.1,0,0,1-2.25-1.66l-.2,1.7m1.77-120.18h0m.85,217.65.82,0c0-.18.07-.53.09-.71l.6-.69a2.26,2.26,0,0,0-1.87.05,13.15,13.15,0,0,0,.36,1.37m.36,1.62a4,4,0,0,0,1.18-.56c-.5-.28-1-.54-1.52-.78.12.45.23.9.34,1.34m.57,13.49h0m1.18,95.8a4.08,4.08,0,0,0,1.79-1.25,1.44,1.44,0,0,0-1.87.26c0,.25.05.75.08,1m.25-225.21c.1.38.79.59.88.09.14-.66-1.15-.87-.88-.09m1.22-98.68a.92.92,0,0,0,1-.53c-.2-.61-1.36,0-1,.53m0-1.77c.34.16.62-.45.41-.71-.41-.24-.71.45-.41.71m.9,447.91a10.51,10.51,0,0,0,1.46-.3l1.13.57c0,.22,0,.64,0,.86-.56.33-1.1.68-1.66,1-.1.47-.2.92-.32,1.37a11.78,11.78,0,0,0,1.36.61,5.56,5.56,0,0,0,1-2.89,7.19,7.19,0,0,1,2.82-.94c.84.58-.34,1.76.43,2.32.87.24.67-.84.63-1.36a9,9,0,0,1,.74-.77,15.53,15.53,0,0,0-1.85-2.19c-1.57-.7-3.34-.29-5-.36.63.3,1.41.57,1.31,1.42l-1.25,0-.31-.57h-.91c.12.4.26.8.39,1.2m.6-124.18c.44.35.78-.42.37-.66s-.73.42-.37.66m0-90.31c.28.27.87-.11.67-.47s-.87.12-.67.47m-.11-219.71a4.34,4.34,0,0,0,2,.74c.09.36.2.71.3,1l-.82.83c.91.48,1.46,1.39,2.3,2,.06-1.21-.32-2.49.29-3.62a7.81,7.81,0,0,1-.26-3.62l-1.66-.22c-.68,1-1.78,1.74-2.15,2.89m.88,439.69,1.23.39-.09-1.52c-.4.37-.77.75-1.14,1.13m.91-453,.34.29c.87-.22-.6-1.33-.34-.29M331,597.08h0m0-220.61c1-.06-.45-.91,0,0m2.12-99.73a1.25,1.25,0,0,0-1.93-1.18c0,.9.78,1.9,1.93,1.18M331.91,513h0m.15,218.52c.49.17,1,.35,1.47.5.41.36,1.07,1.2,1.53.42a1.75,1.75,0,0,0-3-.92m.33-17.64,1-.48a4.52,4.52,0,0,0-1.23-.49c.07.33.14.65.23,1m-.29-116.44h1.17c.29-.31.59-.6.9-.89l0-.95a8.51,8.51,0,0,0-2,1.85m1.57,10c.29,0,.7-.39.67-.68-.52-.42-1.33.2-.67.68m-.28-102.68h0m1.22,115.25a2.16,2.16,0,0,0,1.82,1.17c.51-.59,1.36-.66,2-1l-1-.18a6.69,6.69,0,0,1,0-5.78c.31-.62-.13-1.32.17-2s.65-1.45,0-2a5.53,5.53,0,0,0-1.46.62c0,1.05.7,2.38-.32,3.16-.57.14-1.31.26-1.45,1-1.32,1.57.22,3.3.12,5M334,269.3c.16.57,1.07.37.87-.24s-1-.27-.87.24m2.11,245c-.66,0-1.3,0-1.95,0,.65.31,1.44.78,1.95,0m-1.5-3c.91.45.06-1,0,0m1.64,115.67c-.05.22-.09.43-.14.64.2.43.4.87.59,1.3a4.49,4.49,0,0,0,2.32-1,5,5,0,0,0-.86-2.32c.14-.3.32-.58.48-.89-.35-.34-.74-.62-1.07-1a12.84,12.84,0,0,1,.25-2l-1.23,0a14.61,14.61,0,0,0-.8,2.08c.21.69-.37,1.21-.61,1.8a1.86,1.86,0,0,0,1.07,1.32m-.76,102.53h0m1.37-125.13-.27-.93-1.27,0c.2.75.85.93,1.54.89m-.69,124.57c.5.3,1.09-.7.43-.87s-.65.54-.43.87m-.08-142.82c1,.35,1.1,1.49,1.25,2.38a18.52,18.52,0,0,0,1.7,2.72c.79.83,2.06.67,3.08.78a31.27,31.27,0,0,1,4.73,1.78c1.28,1,2.49,2,3.85,2.92a5.42,5.42,0,0,0,1,1.94,6.4,6.4,0,0,1,2.94.94,12.81,12.81,0,0,1,.69,3.18l.39.44a7,7,0,0,0,3.47,4.56,14.86,14.86,0,0,0,4.73.52,79.94,79.94,0,0,0,9.28-.31,3.62,3.62,0,0,1,1.6.14c.69-.24,1.37-.5,2-.79,1.83.66,3.85,0,5.63.79,2.1-.79,4.33-.38,6.51-.47,2.19.4,4.41.2,6.62.4a22.16,22.16,0,0,0,3.81-.38c1.27-.31,2.29.69,3.49.74,1.49-.21,3-.33,4.48-.44s2.92.5,4.19-.28a8.06,8.06,0,0,0,4.46.26,9.91,9.91,0,0,1,6,.31c1.06.52,2.07-.31,3-.74.44-1.12,1.2-2.24,1-3.5-.24-1.57.74-2.89,1.25-4.28,1.92-3.29,3.66-6.85,6.72-9.26,2-1.49,4.17-3,6.71-3.39,1.71-2.49,1.26-5.57,1.36-8.39a15,15,0,0,0,0-4.07c-.18-1.71.33-3.44-.23-5.13-.22-1.71.36-3.4.31-5.11-1.15-4.06,0-8.3-.11-12.43-.07-4.52.36-9,0-13.54-.2-1.83-.21-3.66-.34-5.5.17-1.69.71-3.37.29-5.09-.35-1.89.52-3.87-.18-5.71-.83-.89-.29-2.43-1.32-3.16-1.78-1.15-4.26-.95-5.8-2.49-1.12-.35-2.26-.68-3.36-1.06a6.58,6.58,0,0,1-.81-1.28c-.29-.2-.57-.42-.84-.64l-.75-.14c-1.78-1.39-3-3.29-4.65-4.82a12.57,12.57,0,0,0-1.8-3.83,14.2,14.2,0,0,0-1.12-3.33c-.28-.32-.56-.64-.83-1A26,26,0,0,1,413,500a4.77,4.77,0,0,0-3.29.2,58.22,58.22,0,0,0-10.14.23c-1,.16-2-.47-3-.3a14.5,14.5,0,0,1-4.16,0,27.45,27.45,0,0,1-4.71,0c-1.51-.18-3,.21-4.51-.05-2.27.9-4.83.21-7.1-.42l-.39.61c-1.55,0-3.08.08-4.61.2a36,36,0,0,1-4.41-.32,1.92,1.92,0,0,0-2-.28c-1.79.2-3.6.12-5.39.23-.79.21-1.59.34-2.36.56a3.92,3.92,0,0,1-.91.95,31.4,31.4,0,0,0-.83,5.37,31.42,31.42,0,0,0-1.77,4.14,52.92,52.92,0,0,1-2.85,5.43,3.81,3.81,0,0,1-1.92,1.64c-.53.75-1.1,1.48-1.67,2.17-.8.63-1.77,1-2.61,1.55-1.21.67-2.2,1.95-3.77,1.57l-.44.4a2.7,2.7,0,0,0-2.52,1.69c-.17,1.58-.19,3.17-.23,4.75.22,1.29-.69,2.42-.36,3.7.32,2.34-.38,4.77.67,7a45.28,45.28,0,0,0-.36,6.05c.21.69.89,1.27.77,2-.43.68-1,1.29-1.36,2a14.78,14.78,0,0,0,.8,4.91c.63,1.16-.21,2.38-.26,3.57.05,1.4.61,2.78.32,4.19-.14,1.42-.81,2.91-.32,4.34a5.17,5.17,0,0,1,.1,2.56,15.31,15.31,0,0,0,0,3.58,8.43,8.43,0,0,1,0,2.92,9.58,9.58,0,0,0,.3,3.62c.52,1.34-.95,2.52-.45,3.92-.36.26-.72.5-1.09.72l0,.66m.16,15.49h1.59a4.33,4.33,0,0,0-.37-2.08c-1,.15-1.76.78-1.22,2.07m.89-133.46c0,1.85-.27,3.69-.36,5.53.07.95-.11,1.92,0,2.87.21,1.23.61,2.41.81,3.64a34.17,34.17,0,0,1,7.33,3c1.73.48,1.05,3.53,3.41,2.79a12.06,12.06,0,0,1,3.24,4.48c.31,1.33,2.27,1.59,1.76,3.27,1.46-.05,2.7,1.25,4.15.84a23.3,23.3,0,0,1,7.17-.27,8.43,8.43,0,0,0,2.92,0c2.76.33,5.46-.56,8.22-.24.42.13.68-.21.95-.48,2.18.89,4.55.65,6.85.43s4.5.07,6.75-.06c1.5-.1,3,.33,4.47,0a19.77,19.77,0,0,1,5.94.33,4.47,4.47,0,0,0,1.88-.18c1.31-.32,2.65.33,4,.09a13.53,13.53,0,0,1,3.6-.2c1,.15,1.9-.72,2.82-.16,1.26.62,2.7.16,4,.15,1.08-.06,2.16.07,3.25,0,1.28-.26,1.64-1.74,1.95-2.8.74-2,1-4.14,1.82-6.14a19.35,19.35,0,0,1,2.76-2.89c1.4-1.38,2.23-3.39,4.2-4.1a21.79,21.79,0,0,1,9.75-3.87c.62-.6,1.23-1.19,1.82-1.83a27,27,0,0,0-.47-5.07,11,11,0,0,1,.07-2.35c.15-2.23,0-4.5-.05-6.75.05-2.58.17-5.17,0-7.74-.19-1.75.45-3.47.33-5.23a14.58,14.58,0,0,0-.56-4.82,23,23,0,0,0,0-3.89,26.87,26.87,0,0,1,.7-8.74c0-.92-.93-1.64-.79-2.6.24-2.08.14-4.25.77-6.29a3.86,3.86,0,0,1-.4-2.23c.29-1.46-.29-2.94.06-4.41a15.59,15.59,0,0,0-.23-4c-2-2.11-4.88-2.93-7.11-4.72q-1.83-1.29-3.71-2.52c-.76-2.15-2.41-3.85-3.19-6a33.64,33.64,0,0,1-1.7-5.41,14.11,14.11,0,0,0-2.11-1.75c-1.7,0-3.38.49-5.08.36a26,26,0,0,0-5.92,0,4.45,4.45,0,0,1-1.59.34c-4.45-.92-9.05-.51-13.55-.36a21.9,21.9,0,0,1-3.24,0c-1.92-.16-3.93-.62-5.81,0-1.32,0-2.61-.64-3.95-.31-1.36.13-2.73.18-4.07.3l-1.8-.37c-.71-.18-1.31.45-2,.41a14,14,0,0,0-3.24,0c-2.22-.31-4.51.18-6.62-.74-1,.24-1.92.44-2.86.73a19,19,0,0,0-2.61-.6c-.09-.12-.29-.37-.38-.5h-1.11q-.35.43-.69.84a16.57,16.57,0,0,1-4.28.1c-.19.32-.39.62-.59.92-.13.55-.28,1.08-.44,1.61-1.25-.5-2,.58-2,1.56a4.24,4.24,0,0,1-1,2.86,29.14,29.14,0,0,1-2.71,3.5c-1.61,1.07-3,2.48-4.83,3.17l-1.69,1.56a12.51,12.51,0,0,0-4.56,2.54c.68,1.62-.65,3.16-.11,4.73-1.07,2.15-.49,4.63-1,6.91-.18.58.36,1,.65,1.45.59,2.08-.1,4.18.26,6.27.16,1-.4,2-.34,3a9.78,9.78,0,0,1-.24,3c-.34.92.33,1.75.54,2.62a80.66,80.66,0,0,0,.06,10.43,24.67,24.67,0,0,0,0,5c.43,2.14-.79,4.24-.29,6.4a12.31,12.31,0,0,0-.28,5.4,12.18,12.18,0,0,1-.44,4.62,23.39,23.39,0,0,1,.79,2.41M337,733c.36,1.42.28,3.1,1.27,4.27a9.33,9.33,0,0,0,.62-1.27c-.23-.58-.83-1.08-.8-1.73.48-.94,1.18-1.82.89-3a4.14,4.14,0,0,0-1.18-.61A4.47,4.47,0,0,0,337,733m.28-374.38c.27,1.11.47,2.24.78,3.32a3.13,3.13,0,0,0,1.11.43l.12.84c.93.09,1.86,0,2.8,0,1,.73,1.92,1.47,2.93,2.12,1.29-.06,1.87,1,2.64,1.81,1.39,1.92,3.54,3.27,4.46,5.52,0,1.31.91,2.31,1.38,3.46a8.18,8.18,0,0,1,1.13,3c-.3,1.37.73,2.32,1.51,3.23,1,.09,2,.45,2.94.57l4.9-.4c1.86-.24,3.75-.09,5.62-.29a28,28,0,0,1,8.76.37c1-.09,1.95-.88,3.07-.35,1.64.27,3.31-.26,4.95.06,2,.3,4.1-.2,6.15-.06,1.32-.44,2.54.78,3.86.13s2.86.18,4.26-.17a13.28,13.28,0,0,1,6.48.11c1.66.58,3.23-.8,4.92-.51,1.25,0,2.39.74,3.64.42,2,.15,4-.36,6.05,0,1.54.38,3.07-.28,4.53-.76a3.27,3.27,0,0,0,1.79-2.37c.05-3.57,2.66-6.24,4.89-8.73.39-.58.63-1.34,1.35-1.61,2-.9,4.11-1.43,5.86-2.77l-.21-.42c.29-.12.57-.24.86-.38v.61l1.15,0c1.24-2.29-.16-4.91.28-7.34l-.51-.38c-.78-2,.39-4,.42-6a61.18,61.18,0,0,0,.27-7.78c0-3.33-.19-6.68,0-10,.24-1.38-.39-2.82.23-4.16.2-.26.48-.52.34-.9a35.67,35.67,0,0,1-.28-5.57c-.24-1.38-.21-2.77-.35-4.17.13-2.47-.17-4.94.06-7.41a7.43,7.43,0,0,0-.43-3.39c.09-1.82.87-3.59.41-5.44,0-1.42-1-2.52-1.71-3.63-2-1.6-4.36-2.48-6.37-4a11.14,11.14,0,0,1-4.79-4.4,23.12,23.12,0,0,0-2-2.77c.31-1.23-.25-2.35-.62-3.48,0-.9.58-1.91-.38-2.63-.54-1.33-2-1.57-3.25-1.3-2.86-.2-5.73-.37-8.6-.3-.73-.08-1.31-.71-2.05-.71-1,.24-2,.75-3,1.05-3.39-.17-6.8-.17-10.19-.05a4.78,4.78,0,0,1-2.6-.33h-1.26c-1.52.85-3.33,0-5,.29-1.08.26-2-.37-3.08-.39-.69.25-1.28,1-2.07.79s-1.6-.54-2.41-.78a9.33,9.33,0,0,1-4.32.4c-3.26-.61-6.6.88-9.84,0-1.93-.11-3.87.09-5.8-.07a9.25,9.25,0,0,0-4.26,1.16,23.91,23.91,0,0,1-4.34,7.81,5.85,5.85,0,0,1-.93,1.16c-1.35,1.14-2.16,2.76-3.52,3.89a22.93,22.93,0,0,0-2.33,2.69,30.56,30.56,0,0,1-8.89,3.56c-1,.18-1,1.32-1.18,2.1l-.53.4c0,2.44,1.17,4.76.79,7.22a23.26,23.26,0,0,0-.36,2.7,18.61,18.61,0,0,1-.32,4.35,2.89,2.89,0,0,0,.44,1.95c-.94,2.57.15,5.26-.37,7.89-.85,4.34.44,8.69,0,13-.38,1.37,1,2.5.42,3.92l-.12,1.41c-.32,1.1.47,2,.7,3a10.75,10.75,0,0,0-.77,1.56,26,26,0,0,0-.23,7.82m0,337c.72,1.14.43,2.55.61,3.82a7.94,7.94,0,0,1,.76,1.29,10.33,10.33,0,0,1-.87,1.47c1.83.45,3.72.68,5.51,1.29,1.14.67,2.08,1.78,3.51,1.84,1,.11,1.37,1.06,1.72,1.84a23.72,23.72,0,0,1,2.48,1.65,24,24,0,0,1,2.89,4.78c.22.79,1,1.2,1.55,1.7a48.94,48.94,0,0,0,1.66,5.45,7.52,7.52,0,0,0,2.11,1.78c1.68-.1,3.35-.18,5-.37a5.47,5.47,0,0,1,3.3-.25c3.45.34,6.94-.63,10.35.3,1.31.37,2.47-.66,3.69-1,1.86.7,3.88,0,5.71.73,1.25.29,2.51-.26,3.75-.46.92.24,1.81,1,2.81.66,2.59-.59,5.23-.13,7.85-.17,1.54.07,2.94-.67,4.44-.8.54.19,1,.48,1.57.69a11.52,11.52,0,0,0,3.43-1.33c.26.48.45,1,.74,1.46a22.65,22.65,0,0,0,5-.83l1,.37c.46.52.75,1.39,1.79.65a8.66,8.66,0,0,0,3.31-.55,6,6,0,0,0,1.78-2.37c.34-.9,1.48-1.16,1.73-2.11.69-2,2.46-3.43,3.1-5.48l.76-.14a35.83,35.83,0,0,1,4.12-3.27c1.81-.76,3.23-2.42,5.33-2.4a4,4,0,0,0,2.16-1.05,6.58,6.58,0,0,1,.59-2,18.43,18.43,0,0,1-.46-2.57c.49-4.46-.23-8.93.09-13.4-.25-1.94-.16-3.9-.3-5.85-.42-2,.19-3.85.6-5.73,0-1.57-.17-3.13-.17-4.7l.61-.4a3.57,3.57,0,0,1-.45-2.3c-.14-3.8.14-7.63-.34-11.42a23.48,23.48,0,0,1,.08-4c-.08-1.52-.8-3-.31-4.54a5.5,5.5,0,0,0,.23-2.67c-.18-2.29-.06-4.59-.29-6.87-.29-1.16.63-2.21.32-3.37.09-1.46.06-2.9.13-4.36l-.47-.45c-.23-.66-.36-1.64-1.2-1.77-3.08-.56-5.25-3.05-7.76-4.69a19.29,19.29,0,0,1-4.92-7.21c-.4-1.65-2.38-1.86-3.72-2.49-1.78.77-3.69.18-5.56.19-2.6-.54-5.25-.3-7.89-.45-1.62-.11-3.21.44-4.81.37-2-.49-4.11-.11-6.16-.32a5.79,5.79,0,0,0-3.71.67c-3.68-.53-7.42-.11-11.11-.66a8.32,8.32,0,0,0-4.29,0c-1.76-.26-3.53.12-5.3,0-1.58.26-3.12-.37-4.68-.36a4.29,4.29,0,0,1-3.08.36c-.8.12-1.61.55-2.41.26a8.9,8.9,0,0,0-2.5-.41l-.42.56c-1.64.5-3.78.4-4.89,1.92-1.38,3.79-2.67,7.68-5,11-1.61,1.46-3.22,2.9-4.82,4.36a8.93,8.93,0,0,1-4.27,1.69c-1.91.82-4,1-5.81,2.15-.11,1.55-.34,3.08-.36,4.64l.62.37c0,.74-.12,1.47-.18,2.2a24.88,24.88,0,0,0,0,5.85,6.09,6.09,0,0,0-.34,2.46,68.91,68.91,0,0,1,.3,9.85c.54,2.94-1,5.92,0,8.82a3.63,3.63,0,0,1,0,1.64c-.16.71.38,1.31.44,2-.2.62-.57,1.18-.76,1.8.14.57.54,1.11.41,1.72-.24,1.63.25,3.28,0,4.92a56.82,56.82,0,0,0-.34,6.26c.19,1.15.19,2.33.45,3.46.55,1.42-.14,2.9-.45,4.3m-.09-190.43c.32.52,1,.35,1.48.4-.1-.57-.24-1.14-.37-1.72-.3-.12-.6-.25-.89-.39-.06.43-.17,1.28-.22,1.71m.52,98.41,1.61,0a1.09,1.09,0,0,0-1.19-1.19l-.42,1.23m1.14-331.11c.09-.39-.06-.54-.46-.45-.12.43,0,.58.46.45M339,516.24h0m.29,214.89c.56.42,1.17.9,1,1.78.07.67.82.42,1.29.52l0-1.55,1,.07c-.17.4-.35.8-.54,1.19a25.78,25.78,0,0,1,.88,2.51l.54.62.74.2a4,4,0,0,0,.68.36c1-.3,2.27-.36,2.57-1.53a1.6,1.6,0,0,0,.15-1.66c.44-.72.89-1.43,1.31-2.18,0-.83-.1-1.66-.17-2.49,2-.49,3.87-2.72,2.93-4.83-.91-.1-1.3.68-1.23,1.48L350,726c0,.19-.1.58-.13.77-.72,1-1.38,2-2.06,3-.72.12-1.5.27-2.22.32-.45-.32-.33-.89-.36-1.37.33-.18.65-.39,1-.6l-1.32-.12c0-.19.11-.56.15-.75s.77-.83.29-1.09c-.93-.69-1.75.56-2.51,1-.55.53-1.32.13-2,.11a5.75,5.75,0,0,0-1.48,3.89m0-242a12.78,12.78,0,0,0,.92-1.17l-1-.13.12,1.3m.25,22.79a5.09,5.09,0,0,0,.93-.87l-.71-.45a10.1,10.1,0,0,0-.22,1.32m1.14,106.24h.93c.29-1.21-.18-2.83-1.9-2a5.73,5.73,0,0,0,1,2m-.56,101.64a13.62,13.62,0,0,0,2.11-1.6c-.1-.39-.22-.77-.34-1.16.93-.12,2.1-.2,2.19-1.36a8,8,0,0,0,1.05-1.28,1.81,1.81,0,0,0-.81-1c-.06-.84-.12-1.65-.11-2.5l-.87-.69c-.05.42-.15,1.28-.21,1.71a2.87,2.87,0,0,1,.9,1.53l-.88.47c-.22.36-.46.71-.69,1.06h-1.18c-.52.79-1.09,1.73-.66,2.68a4.54,4.54,0,0,0-.5,2.13m.79-6.35c.54,0,1.08,0,1.62,0l-.39-.93c-.42.28-.84.56-1.23.88m.4-442.13c1-.06-.45-.91,0,0m.32,439.78c.48.15.64,0,.5-.5-.49-.15-.66,0-.5.5m.62-209.67a12.3,12.3,0,0,0,1,.77c.32.57.67,1.13,1,1.66l.75-.11c.49-.61,1-1.19,1.59-1.76-.17-.56-.34-1.12-.52-1.68a2.23,2.23,0,0,0-.35-2.09l-2,.09a5.07,5.07,0,0,1-2.07,1.48,16,16,0,0,1,.59,1.64m3.14-222.61a5.49,5.49,0,0,0,.38-.93,10.76,10.76,0,0,0-1.35.36,1.83,1.83,0,0,0,1,.57m-.23,327.1c.32.5.95.37,1.46.45a6.56,6.56,0,0,0,.67-2.4c-.82-.51-1.58-1.1-2.42-1.57a24.34,24.34,0,0,0,.29,3.52m2.7-107.4c.56,0,.84-.51,1.2-.84h-1.65a6.78,6.78,0,0,0,.45.84m.53,217.71c1,.11,1.4-.7,1.19-1.58-1-.11-1.4.7-1.19,1.58m1.84,17.22a7.64,7.64,0,0,0,2.63-2.7l1.24-.15a12.88,12.88,0,0,0-.86-1.19l-.45-1.37h-1.08a37.52,37.52,0,0,1-1.48,5.4m77.28-8.82c.45.11.82-1,.24-1-.44.09-.48.75-.24,1m2-2.3a1.91,1.91,0,0,0,1.23.39,13.3,13.3,0,0,0-.69-1.6,1.4,1.4,0,0,0-.54,1.21m1.79-2.34c-.11.33-.21.65-.29,1a7.34,7.34,0,0,0,2.39-1c-.12-1.12-.89-2.48-2.31-2-.14.31-.27.62-.4.92.2.37.4.75.61,1.12m2.41-447.36c.24-.24.46-.5.69-.77,1.09-.36,1.25-2.63-.1-2.55a6.64,6.64,0,0,0-.59,3.32m4.3-1.89a7.88,7.88,0,0,0,.74-.78c-.57-.09-1.4-.68-1.79,0-.23.63.54,1,1.05.76m.42,223c1-.05-.45-.91,0,0m1.11-115.07,1.07-.16a7.11,7.11,0,0,0-.91-.91l-.16,1.07m1,340.61c.27-.14.54-.3.81-.47.2-.58-.46-.7-.81-.93,0,.46,0,.93,0,1.4m.56-119.17a2.25,2.25,0,0,0,2.7-1.16,14.35,14.35,0,0,0-2.11-1.53,2.77,2.77,0,0,0-.59,2.69m.21-326.92a2.26,2.26,0,0,0,1.29-.32c-.12-.31-.24-.63-.38-.95a4.7,4.7,0,0,0-.91,1.27m2,17a5.78,5.78,0,0,0,.81-1.81l-1.25-.11.44,1.92m.18-10.13c.44-.19,1.31-.17,1.13-.87a9.69,9.69,0,0,0-1.5-.38,2.84,2.84,0,0,0,.37,1.25m1.45,456a1.6,1.6,0,0,0-.38-1.22c-.4,0-.8,0-1.19,0a1.86,1.86,0,0,0,1.57,1.19m-.88-438.82.91-.4c-.21-.31-.4-.62-.6-.94.3-.55.63-1.08.92-1.64l-1.26-.1c-.8.9-.13,2.09,0,3.08m-.24,315.86c.91.45.06-1,0,0m.25-230.62a1.31,1.31,0,0,0,1.23-.72,4.36,4.36,0,0,1-.91-.86,1.2,1.2,0,0,0-.32,1.58m1.1-103.4a4.81,4.81,0,0,0,2.41.65c.72-1,1.06-2.27,1.78-3.3l-.82-.34c0,.23-.08.68-.1.9l-.63.51a2.57,2.57,0,0,0-2.64,1.58m1.52,432.35a11.1,11.1,0,0,0,1.14.27c.64-.41,0-1.2,0-1.78-.94-.09-1.32.68-1.15,1.51m0-110.22c.88.67,2.44.12,2.77,1.48.35,0,.71.07,1.07.09,0-.23,0-.68,0-.9l-.85,0c.34-1.16-.43-3-2-2.29-.5.43-1.17.89-1,1.65m0-116H450c.27-.47.73-.89.8-1.46a14,14,0,0,1-.88-5,9,9,0,0,0-1.64-.62,4.23,4.23,0,0,0-.92,1.72c.82,1.83-1.34,3.43-.66,5.35m1.48,47.72c-.15,2.26,1,4.51.16,6.7a19.22,19.22,0,0,1,0,4.42,19.37,19.37,0,0,0,.19,3.05c.33,2-.08,4-.18,5.94.15,1.43.37,2.85.65,4.26.19.76-.25,1.47-.34,2.21a9.4,9.4,0,0,0,.44,1.26c-.5.81-1.18,1.67-.65,2.65-1.33,2.69.25,5.73.26,8.53a6.2,6.2,0,0,0-.25,4,3.64,3.64,0,0,1,.22,2c-.05,1.64-.7,3.23-.36,4.88a15,15,0,0,0,1.69,3.07,11.26,11.26,0,0,1,4,.5c1.88.51,3.93.91,5.42,2.26a12.16,12.16,0,0,0,2.6,1.55c.61,1.08,1.79,1.57,2.74,2.3a28.52,28.52,0,0,1,3.2,3.3,2.53,2.53,0,0,1,.73,2c-.27,1.53.9,2.64,1.4,3.95l.12,2.84.43.41c0,1.73,1.73,2.48,2.88,3.4a12.57,12.57,0,0,0,4.08-.4c1.37-.21,2.55.83,3.94.36,1.19-.2,2.39-.21,3.6-.38s2.43,1,3.8.36c4.14-.29,8.3.31,12.44-.32.87-.21,1.69.46,2.55.19,1.77-.46,3.63-.26,5.44-.52,1.62,0,3.16.82,4.78.6,2.1-.65,4.22.22,6.34.09a5.69,5.69,0,0,1,2.95.29c1-.27,2-.89,3.12-.58a6.15,6.15,0,0,0,2.46-.5l.37.59,3.2,0a13.23,13.23,0,0,0,2-2.76,5.85,5.85,0,0,1,.86-2.66c.74-2.54,2.59-4.55,3.85-6.85a56.27,56.27,0,0,1,5.21-4.54c1-.66,2.32-.53,3.4-1.07,1.34-1,3-1.47,4.22-2.57a8.85,8.85,0,0,0,.22-3.62c-.09-1-.26-3.15-.35-4.19-.09-2.75.2-5.51-.29-8.24a29.65,29.65,0,0,0,.67-3.11c-.54-4.15-1.26-8.36-.39-12.53a11.79,11.79,0,0,1-.1-5.57c.62-2.46,0-5,.18-7.5,0-1.51-.52-3-.26-4.52a4.17,4.17,0,0,0,.09-1.65,8.24,8.24,0,0,1,.31-4.66c.56-1.64-.6-3.21-.39-4.84a54.34,54.34,0,0,0-.06-6.63c-.25-1.09-.08-2.26-.52-3.3-.79-.87-2.15-.48-3.07-1.1-1.33-1-2.8-1.72-4.16-2.64a5.32,5.32,0,0,0-2.7-1.16c-.26-1.61-1.95-2.17-2.75-3.45-1-1.31-2.58-2.31-2.81-4a23.39,23.39,0,0,0-2.28-3.9,13.2,13.2,0,0,0-6.15-.82c-3.28.1-6.59-.3-9.84.28-1.11-.21-2.12-1.34-3.3-.82-1.39.52-2.91.43-4.34.75a6.4,6.4,0,0,1-4.21,0,4.74,4.74,0,0,0-3.49.17c-2-.88-4.15-.19-6.22-.24-3.85-.09-7.7-.19-11.54-.5-2.33.32-4.66-.29-7,.08a14,14,0,0,1-2.05,0c-1.53-.27-3.09-.23-4.63-.38-2.49.47-5.18,1.8-5.7,4.57-.1.11-.29.34-.38.46-.54,2.63-1.65,5.49-4.09,6.89-1.38,1.21-2.72,2.64-4.48,3.24a9.91,9.91,0,0,1-2.73,1.68,22.24,22.24,0,0,0-3.8,1.85,12.29,12.29,0,0,0-1.17,2.06c-.05,1,.31,2.08.19,3.12l-.56.34a8.19,8.19,0,0,1,.56,3.53c.53,1.36-.79,2-1.18,3a23.56,23.56,0,0,1,.84,2.67M448.45,681a45.78,45.78,0,0,1-.13,7.22c-.05.93.18,1.84,0,2.76a21.1,21.1,0,0,1,0,3.18c.2.45.5.86.71,1.31-.18,1.11-.86,2.17-.37,3.35a35.26,35.26,0,0,1-.09,4.82,5.68,5.68,0,0,0,1.14,1.49,32.1,32.1,0,0,1,5.55,1.88c1.84.48,2.57,2.5,4.38,3,.22.44.47.88.72,1.32.67.09,1.33.25,2,.39.36,1,.66,2.08,1.06,3.09.66,1.16,1.7,2.05,2.4,3.18-.31,1.63,1.47,2.66,1.41,4.3a15.25,15.25,0,0,0,8.57-.18c1.87-.36,3.74.17,5.57.52,2.32-.2,4.64-.08,7-.12a25.49,25.49,0,0,1,3.16-.39c1.08-.22,2,.59,3.08.42a19.39,19.39,0,0,0,2.39-.35c1.57.16,3.15.18,4.73.34,2.86,0,5.72-.26,8.59-.38a8.28,8.28,0,0,1,2.83.39c1.44-.07,2.87-.25,4.34-.22l.4.65c3.12-1.12,6.52-.16,9.72-.94,1.13-.35,2.28.06,3.44,0,.71-.28,1.43-.58,2.14-.9.88-1.8.71-4,2.07-5.6,1.35-1.11.51-3.26,2.06-4.18a19.62,19.62,0,0,0,2.57-2.74,8.56,8.56,0,0,1,3.12-3.12c1.79-1.49,4.13-2,6.16-3a9.17,9.17,0,0,1,3-.88c.74-1.39.47-2.91.38-4.41,0-.15.13-.43.18-.58-.14-2.64-.07-5.29-.09-7.94-.15-2-.16-3.91-.29-5.87a21.16,21.16,0,0,1,0-4.43c.22-1.26-.21-2.54,0-3.8a51.9,51.9,0,0,0,0-10.72,9.17,9.17,0,0,1,0-2.34c.2-1.19.21-2.38.37-3.58a22.6,22.6,0,0,1,0-3.49c.25-1.18-.29-2.33-.4-3.49a35.86,35.86,0,0,1-.57-5.17,4.67,4.67,0,0,1,.43-2.46,5.22,5.22,0,0,1,.17-3.17c.42-1.34.06-2.75,0-4.13a16,16,0,0,1-.18-2.77c-3.56-2-7.33-3.6-10.8-5.74-.63-1-1.79-1.61-2.43-2.63-2.09-3.15-4.13-6.47-4.85-10.23a9,9,0,0,0-2.31-.64,59.47,59.47,0,0,1-9.62-.22,26.5,26.5,0,0,1-8.29,0c-2-.3-4.16,1-6.08-.09-1.76.84-3.73.37-5.6.44-2.32-.24-4.71.47-7-.35-.88-.36-1.63.55-2.49.39a17,17,0,0,0-6.62-.37c-2.12-.24-4.22.39-6.33,0a16.46,16.46,0,0,0-3.51,0,43.7,43.7,0,0,1-4.58,0c-1.41.55-2,2.14-2.77,3.33a15.07,15.07,0,0,1-4.87,6.67,6.68,6.68,0,0,1-1.66,2.51c-1.42,1.12-2.88,2.36-4.7,2.68a19.06,19.06,0,0,0-4.83-.08c-.9.3-1.79.66-2.72.87-.7.51-1.44,1-2.17,1.4a76.73,76.73,0,0,1,.43,10.61,13.1,13.1,0,0,1-.38,3.2c.76,1.87,1.45,4,.81,6-.31,1.56-1.38,3.11-.55,4.73a2.4,2.4,0,0,1-.25,2.34c.46,1.49-.05,3,.18,4.55a8.48,8.48,0,0,1,.13,3.25c-.28,1,1.12,1.73.68,2.78a2.18,2.18,0,0,0,.32,2,9.19,9.19,0,0,0-.19,4.63l-.55.38a16.24,16.24,0,0,1-.51,3.34c-.27.71.24,1.36.4,2m-.09-236.84a27.38,27.38,0,0,0,.34,3.61c-.1,1.73.17,3.53-.4,5.19-.37,2.3.3,4.6.07,6.89a68.51,68.51,0,0,0,0,10.72c0,1-.3,2,.19,2.95a6.21,6.21,0,0,0,5.42,2.62c1.12.65,2.43,1,3.31,2s2.34,1.57,3.26,2.67c.38.72.45,1.62,1,2.22a21,21,0,0,0,2.26,1.6,20.9,20.9,0,0,0,1.44,3.87,5.12,5.12,0,0,1,1,3.76,10.36,10.36,0,0,0,2.76,1.71,43.36,43.36,0,0,0,5.7,0c.33-.26.57-.68,1-.8.52.11,1,.37,1.51.5.71,0,1.43-.31,2.12,0a4.84,4.84,0,0,0,3,.24c2.66-.43,5.38.47,8-.28a3.8,3.8,0,0,1,1.61,0,18,18,0,0,1,4.19.41c.49-.27.95-.59,1.46-.82,1.42.23,2.77.77,4.18,1.07,1.18.23,2.19-.43,3.26-.76,1.09-.13,2.2.21,3.31.07a4.3,4.3,0,0,1,2,.44l1.12-.53a6.44,6.44,0,0,0,1.17.28,6.31,6.31,0,0,0,.49-1.23,10.68,10.68,0,0,0,2,1.37c2.86-.79,5.8.3,8.7.25a54.33,54.33,0,0,1,7.44.11,8.88,8.88,0,0,0,1.82-2.1c0-.77.1-2.32.14-3.1.94-.94,2.07-1.79,2.45-3.14a8.49,8.49,0,0,1,1.25-2.63,36.39,36.39,0,0,1,7.79-6.7c1.94-1.07,4.18-1.58,6-2.92,1.12-.49.73-2,1-2.9a43.18,43.18,0,0,1,0-4.55c.12-1.43-.72-2.71-.54-4.15-.12-1.08.48-2,.7-3-.06-2.21-.13-4.43-.26-6.65-.22-1.37-.19-2.75-.32-4.14a29,29,0,0,1,0-4.84c-.25-1.71.89-3.35.16-5.06-.44-2,.17-4.06-.18-6.09s.21-3.84-.14-5.75a17.46,17.46,0,0,1,.39-5.48c.07-2.86-.54-5.75,0-8.6a24.89,24.89,0,0,1,1.11-5.33c-.61-.42-1.66-.63-1-1.85-.45-.32-.9-.65-1.32-1,0-1.67-2.21-1-3.12-1.66-1.71-1.18-3.77-1.82-5.26-3.32-1.09-.78-1.75-2-2.81-2.82a14.35,14.35,0,0,1-2.59-4.54,10.68,10.68,0,0,0-1-.72c0-.49-.08-1.47-.1-2-1.1-.58-2.12-1.28-3.22-1.86l-.54.31c-1.59-.57-3.29,0-4.93-.07-1.33-.25-2.55.63-3.87.2a6.58,6.58,0,0,0-3.24.05c-1.09.26-2.18-.27-3.26-.31-1.16-.2-2.34.36-3.51-.05-2.28-.6-4.58.1-6.88.07a27.11,27.11,0,0,1-5.32.31c-1.18-.2-2.4-.21-3.57-.38-1.64,0-3.28.38-4.9-.07-.94-.32-1.85.31-2.8.18a56.53,56.53,0,0,1-7.13-.07c-1.45-.13-2.9.1-4.34.07s-2.8-.39-4.22-.37A13.91,13.91,0,0,0,470.2,389a9.38,9.38,0,0,1-2.31,3.91c-.89,1.61-.78,3.59-1.61,5.24l.35.57c-.68,2.13-2.94,2.78-4.28,4.36-1.69,2-4.39,2.24-6.46,3.6a7.34,7.34,0,0,1-4.07.78,11.25,11.25,0,0,1-2.4.79,6,6,0,0,0-.81,5.17,3.22,3.22,0,0,1-.05,1.6c-.59,2.14.21,4.3.17,6.45a30.21,30.21,0,0,0-.72,5.33,16.94,16.94,0,0,1,.31,5.68c.34,1.59-.45,3.13-.25,4.73-.2,2.33.66,4.63.29,7m.62-109c.18,2.65.1,5.31.26,8a19.21,19.21,0,0,1-.64,4.7c-.31,2,.32,3.92,0,5.86s.89,3.81.73,5.77c-.12,1.15,0,2.28-.15,3.41a3.25,3.25,0,0,0,1.24,2,24.47,24.47,0,0,1,6.9,1.64c.84.45,2-.2,2.7.61.07.33.13.66.19,1a20.71,20.71,0,0,1,4.77,4.08c1.25,2.21,3.54,3.95,3.79,6.61.1.12.29.34.38.46a9.42,9.42,0,0,0,1.33,2.53,18.81,18.81,0,0,0,4.94.85,6.1,6.1,0,0,0,1.06-.77l1,0a11.83,11.83,0,0,1,.72,2c.74.09.82-.94,1.45-1.13,1.74-.63,3.67-.21,5.46-.76a12.58,12.58,0,0,1,3.12.08c1.46.24,2.66-.74,4.06-.88.09.16.29.48.38.65,4.23-.05,8.46.07,12.68.25,1,.19,1.8-.37,2.7-.5,1,.13,2,.7,3,.3,1.58-.67,3.31.09,5-.22,2.11.21,4.25.18,6.37.35,1.4.16,2.73-.65,4.15-.3,2.42-.1,4.9.32,7.23-.51,1.08-1,1-2.56,1.12-3.93,0-1.14.82-2,1.11-3a11.92,11.92,0,0,1,2.55-5.45l1.16,0c.31-.65.43-1.47,1-1.93,1.23-1,2.23-2.21,3.7-2.83,1.79-.81,3.06-2.84,5.27-2.43a13,13,0,0,1,2.18-2.27l.59.26c-1.36-1.85-.71-4.36-.78-6.48a19.53,19.53,0,0,1,0-4.52c-.76-1.94,0-4-.61-6a38,38,0,0,1-.13-5.75l.58-.4c.29-1.48-.24-2.94-.4-4.41,0-1.27.22-2.52.28-3.81-.19-1.49-1-3-.55-4.5.62-2.91,1.39-5.93.73-8.92a7.24,7.24,0,0,1,.13-3.78,28.6,28.6,0,0,1,.57-5.83c-.94-1.9-.41-4.23-1.57-6.07a6.82,6.82,0,0,0-4.35-2.5,18.19,18.19,0,0,1-3.33-1.36l-.74-1c-1.81-.23-3-1.79-3.94-3.2a10.18,10.18,0,0,1-3.43-5.16c-.37-1.49-1.18-2.92-1.09-4.5a5.73,5.73,0,0,0-.41-1.36,10.88,10.88,0,0,0-3.13-.58c-6.2.36-12.43,0-18.62.38a19.7,19.7,0,0,1-3.26,0,9.8,9.8,0,0,0-2.65,0c-1.58.18-3.18.19-4.75.34a19.86,19.86,0,0,1-6.2-.26c-1.76,0-3.55.07-5.31,0-1.34-.27-2.52.76-3.87.29a29.65,29.65,0,0,0-9.67.41,13.87,13.87,0,0,1-2.33-1.2,5.1,5.1,0,0,0-2,1.27,5.5,5.5,0,0,1-.82,1.83,10.58,10.58,0,0,1-1.09,2.78c-.57,1-.54,2.32-1.61,2.88a11.22,11.22,0,0,0-1.08,1.87l-1.07.1a22.69,22.69,0,0,1-5,5c-1.09.56-1.45,2-2.63,2.39a15.81,15.81,0,0,0-3.6,1.43c-1.27.58-2.74.23-4.06.41a6.35,6.35,0,0,1-1.82.87,25.88,25.88,0,0,0-.21,7.76c.33,2.21-.09,4.5.6,6.64-1,2.85-.86,5.9-.91,8.87a42.61,42.61,0,0,1-.06,5.3,35.51,35.51,0,0,1,.68,6.42m.16,287.65c.79-.44,1.43.14,2,.59.49-.38,1.6-.58,1.4-1.36-.88-.4-1.82-1.22-2.81-.66-.2.49-.42,1-.63,1.43M451.21,725c.32,1.17.59,3.33,2.51,2.36.2-.31.41-.61.64-.91,0-.35.08-.71.11-1.06L455,725l.12-.77a1.69,1.69,0,0,0,.59-2,.93.93,0,0,0,.11-1.44c-.24-.35-.34-1-.82-1-1.46-.49-3,.14-4.45-.22.08,1.84-.15,3.78.67,5.49m.21-118.14a2,2,0,0,0,.13-1.75l-1,.38c0,.54,0,1.66.87,1.37m-.76-318c.91.45.06-1,0,0m-.09-1.71c1.43.8,2.5-1.6,2-2.75a9.65,9.65,0,0,0-2,2.75m.27,452.71c2.06-.59,4.48-.65,6-2.41a7,7,0,0,0-.58-1.42l-2,.07a11.87,11.87,0,0,0-3.36,3.76m.91-126.15,1.12-.35.39-.81-.4-.8-.55-.33-.79.3c.06.67.14,1.34.23,2m1.56-5.59a1.17,1.17,0,0,0,1.14-1.13c-.4-.43-1-.32-1.52-.38.06.52-.05,1.12.38,1.51m0,121.88c.38.24.78-.42.47-.7s-.8.41-.47.7m.86-11.74c.56.1,1.31.58,1.73,0-.06-.38-.18-.75-.27-1.12-.56-.1-1.31-.58-1.73,0a8.45,8.45,0,0,0,.27,1.13m.12-221.54c.27.3,1,0,.71-.41-.25-.21-.86.07-.71.41m.35-124a3.5,3.5,0,0,0,.46,1.42,1.05,1.05,0,0,0,.82-.37c0-.67-.61-1.12-.93-1.67l-.85,0c.16.22.33.43.5.64m.4,225.52a1.24,1.24,0,0,0,.86.36,7.8,7.8,0,0,0,.27-2.16,4.5,4.5,0,0,0-1.13,1.8m.29,15.74c.43.25.85.72,1.41.57a2,2,0,0,0,.74-1.4c-.5-.14-1-.28-1.5-.39l-.65,1.22m.27-118.44c.53-.13,1.06-.29,1.6-.42a3.15,3.15,0,0,0-1.21-1.11c-.15.51-.29,1-.39,1.53m.88-107.22a1.63,1.63,0,0,0,2.23-.81c-1.05-.52-1.73.1-2.23.81m0-98.1a10.9,10.9,0,0,0,1.78.4c.64-.84.41-2,.6-3a19.62,19.62,0,0,0-2.38,2.62m.58,94.56a11,11,0,0,0,1.53.37c0-.5-.07-1.49-.1-2a4.14,4.14,0,0,0-1.43,1.62m.72-2.91a4,4,0,0,0,1.15-.38,8.48,8.48,0,0,0-.69-1.68c-1.27-.22-.58,1.4-.46,2.06m.61,112.4c.43.36.77-.41.36-.65-.42-.39-.72.42-.36.65m1.29,118a14.21,14.21,0,0,0,1.91,4.33l.82-.36a8.44,8.44,0,0,1,.06-1.88c1.6-.58,1.42-2.65,2.72-3.59a33.46,33.46,0,0,1-3.87.21c-.31-.52-.63-1-1-1.53.69-.31,1.35.14,2,.34.11-.41.23-.81.37-1.22l-.28-.51c.37-1,1.17-2,1.14-3.21a3,3,0,0,0-2-1c.07.59.23,1.17.25,1.75-.66.79-1.82.17-2.7.11a4.67,4.67,0,0,0-.07,3.61c0,.66.43,1.72-.51,1.87a7.28,7.28,0,0,0,1.12,1.1m-1-233.29c.33.19,1-.21.77-.62-.34-.18-1,.23-.77.62m2.62,346.23c.68.19,1.34.48,2,.67a6,6,0,0,0,.6-2c-.46-.82-1.13-1.91-2.31-1.53-.13,1-.25,1.93-.32,2.9m2.37-340.47c.67-.41,1.36-.81,2.06-1.22l-.08-.76a13.48,13.48,0,0,1-.9-1.33,16.11,16.11,0,0,0-1.66.69c-.58,1-.05,1.87.58,2.62M466,726.94a4.32,4.32,0,0,0,1.7-1c.32-.92-1.47-1.21-1.66-.38l0,1.42m71.19-448.27a7.61,7.61,0,0,0,.81,2.48,8.47,8.47,0,0,0,1,0,8,8,0,0,1,.89-1.55l.12-1.08.81-.37c0-.2.09-.59.11-.78.27-.1.53-.21.81-.33.44.36.88.72,1.29,1.12h1a11.56,11.56,0,0,1,1-.66c-.7-.76-1.44-1.49-2.13-2.28a16.61,16.61,0,0,0-1.5,1.11l-.65.26a1.25,1.25,0,0,1-1.58.47l-.09-1.2-1.05-.29c-.47,1-1.45,1.89-.82,3.09m2.28,447.83a.39.39,0,0,0,.76,0c0-.41-.78-.41-.76,0m1.36-.3a9.18,9.18,0,0,0,1.17.32c.26-.27.49-.56.73-.85-.72-.48-1.38,0-1.9.53m1.56-440.88a9.85,9.85,0,0,0,3.11-.09,17.33,17.33,0,0,1,1.49-.9c.31-.48.62-.95,1-1.42-.1-.25-.18-.5-.26-.76,1.06.28,2.18,0,2.18-1.22l1.85-1.05c.68-1.47,2.52-.91,3.77-1,.91-.06,1.18,1.06,1.51,1.71a9.28,9.28,0,0,0,1.09-.29c-.17-.31-.34-.62-.5-.94a9,9,0,0,0,.16-1.06c-.9-1-2.47-1.35-3-2.69-.68-.52-1.31-.14-1.75.46-.59.09-1.23.57-1.78.17-1.27-.8-2.49-1.67-3.73-2.49l-1.54.64a7.1,7.1,0,0,0,1.5,4.72c-.55,1-1.28,1.91-1.8,2.93l-2.07,0-1.07,2-.06,1.34m.6-3.76a6.22,6.22,0,0,0,1.19-.41,11.27,11.27,0,0,0-.66-1.52,7.92,7.92,0,0,0-1.19.4,9.05,9.05,0,0,0,.66,1.53m.6,223c.38-.09.78-.21,1.17-.33v-.35l-1.17-.34v1m2.43-1.88q.63.19.45-.45-.6-.13-.45.45M546.31,738h0m2.2-473.33c0-.25.1-.78.13-1l-1.3.12a10.2,10.2,0,0,0,1.17.91M549,272a12.62,12.62,0,0,1,.53,2.37,3.65,3.65,0,0,0,1.29.61c.4-1.11,1.63-1.3,2.55-1.83l-.08-1.63a15.63,15.63,0,0,0-2-1.34c0-1.07,0-3.21-.07-4.29-.36-.94-1.75.1-2.27-.39l-.61.65c-.08.49-.18,1-.25,1.44.08,1.5,1.26,2.88.89,4.41m-.13,464.33h1.24a5.51,5.51,0,0,0,.59-1.13,3.32,3.32,0,0,0-2.47-.61,12.22,12.22,0,0,0,.64,1.75M548.59,261c.48.14,1,.28,1.46.39,0-.41,0-.83,0-1.26l-.87.06-.63.81m1.47,472.15c.4-.83.85-1.76,0-2.48l-1.17,1a1.13,1.13,0,0,0,1.17,1.51m.56-347.08c.25-.48.5-1,.72-1.49-.59-.45-1.2-.88-1.81-1.3a2.74,2.74,0,0,0,1.09,2.79m-.91,114.81c.81.07,1.78.2,1.93-.84-.81-.07-1.78-.2-1.93.84m1,222.09c.91.45.06-1,0,0m.76-2.33.92-.34c0-.24,0-.7,0-.94a4.7,4.7,0,0,0-1.12.42,6.42,6.42,0,0,0,.23.86m.42-220.4h0m.92,234.57c.42.12.57,0,.45-.46-.4-.09-.55.06-.45.46m0-346a12.63,12.63,0,0,0,1.67-1.91c-.6.27-1.14.66-1.73,1,0,.23.05.7.06.94m1.17,124c.42-.14,1.38-.17,1-.85s-.93-.15-1.4-.12c.12.33.23.65.36,1m.28-148.36a6.43,6.43,0,0,0,.79-.39c-.09-.5-.23-1-.34-1.49q-.4.18-.78.39c.07.51.22,1,.33,1.49m0,31.63A10.15,10.15,0,0,0,556,397a7,7,0,0,0,.4-1.14,5.18,5.18,0,0,0-2.12-.71v.93m1.64-6.56a7.94,7.94,0,0,0,1.35.37,5.84,5.84,0,0,0-.39-.94,2,2,0,0,0-1,.57m2.42,303.11c-.2,1.6-.53,3.19-.67,4.8a11,11,0,0,0-.81,1.51c.95.77,2.1,1.43,2.56,2.63a6.2,6.2,0,0,0,1.8,1.15c1.56.31,3,1.13,4.52,1.43l.43.43c.65.11,1.31.24,2,.38a7.34,7.34,0,0,0,3.13,3.41c1.41.91,1.58,2.73,2.51,4,.61,1.12,1.67,1.92,2.28,3a33.85,33.85,0,0,0,2.15,7.52c1.59-.56,3.14.56,4.75.3a50.49,50.49,0,0,1,9.68-.07,10.84,10.84,0,0,0,2.35,0,28.36,28.36,0,0,1,8.48-.29c2.52,0,5,.11,7.54.3a8.67,8.67,0,0,0,3.07-.45,19.76,19.76,0,0,0,7.27.4,34.39,34.39,0,0,1,3.95-.18l.38-.57c1.29-.07,2.68,1.06,3.87.13,1.48.67,3.14.11,4.65.68a6.37,6.37,0,0,1,2.54-.06,14.57,14.57,0,0,0,4.17,0c1.31-.34,2.64.17,3.93.37,2.39-1,5.14.24,7.45-1.1.94-.36,1.13-1.45,1.25-2.32.62-.53,1.26-1.06,1.91-1.59.07-1.79,1.47-3.13,1.67-4.89a12.18,12.18,0,0,1,4.21-4c1.27-2,3.53-2.86,5.44-4.06.56-.39,1.35-.64,1.62-1.34,1.33-2.59.54-5.56.64-8.32,1-2.43-.24-5-.4-7.46.19-.81.5-1.59.76-2.38a3.17,3.17,0,0,1-.06-1.78c-.35-1.62.07-3.26,0-4.9,0-1-.11-2-.09-2.94.08-2.64-.94-5.27-.45-7.89.05-1.43-.37-2.85-.09-4.28.61-3.83-.56-7.72.31-11.55.22-2.72.69-5.55,0-8.24-.25-.9.39-1.71.45-2.58-.26-3.63.12-7.29-.59-10.89-.22-.18-.43-.37-.64-.56-2.12-.18-3.54-1.93-5.54-2.47-1.49-.3-2.29-1.8-3.74-2.19a14.55,14.55,0,0,1-5.7-6.11c-.77-1.54-1.08-3.52-2.59-4.54-.17-.34-.34-.68-.48-1-1.1-.65-2.2.44-3.35.08a62.82,62.82,0,0,0-6.68-.72c-.61-.38-1.11.16-1.62.42a64.69,64.69,0,0,1-7.1.08c-1.64-.18-3.22.34-4.82.51a25.64,25.64,0,0,0-5.23-.59c-.8.08-1.39.12-2.12.25a1.43,1.43,0,0,1-1.75.35c-2.43-.47-4.91.08-7.36-.27-2.39-.15-4.78-.11-7.16-.3-3.56-.33-7.08,1-10.66.32a23.48,23.48,0,0,0-5-.29c-1.49.24-2.95-.29-4.42.05-2.23.45-4.58.18-6.72,1-.24,1.51-.31,3-.45,4.56-1.38,3.07-3.92,5.36-6.21,7.74-1,.79-1.85,1.88-3.13,2.2-1.74.54-3,2-4.9,2.23-.85.21-1.64.57-2.49.78-.56,1-1.17,2.09-.72,3.29.05,1.55-.41,3.15.09,4.67.77,2.11-.23,4.32-.37,6.44a18,18,0,0,1,.35,4.4l-.39.32-1.34.13c0,.2,0,.59,0,.79.27.22.54.46.82.68a14.36,14.36,0,0,1,.17,4.39,8.72,8.72,0,0,1,.52,3.51l.51.4c-.26,2,.06,4-.12,6a11.07,11.07,0,0,0,.39,5.45,15.34,15.34,0,0,1-.76,1.71,10.81,10.81,0,0,1,.91,3.11c0,.69-.41,1.31-.34,2-.05.9.35,1.84,0,2.71-.66,1.9-.41,3.93-.63,5.89.17,1.14-.83,1.4-1.52,1.88a20.33,20.33,0,0,0,1.75,2.39m-1-333.66c1,.9,2.11,2,3.64,2,1.56.31,3.24.15,4.69.94s2.59,1.62,4,2.23c1.75.79,2.65,2.47,3.73,3.93.91.66,1.13,1.85,1.73,2.74a6.91,6.91,0,0,1,1.1,3c-.48,1.55,1,2.37,1.47,3.61a4.93,4.93,0,0,1-.52,2.58c1.39.45,2.74,1.06,4.15,1.48a12.37,12.37,0,0,0,4.36-.44c.87.09,1.75,0,2.63,0,1,.26,1.84.72,2.87.33a27.32,27.32,0,0,1,4.43,0,10.62,10.62,0,0,0,4.16.28,11.08,11.08,0,0,1,3.53-.27c2.63.82,5.34-.58,8,0a9.56,9.56,0,0,0,3.83-.25,45.35,45.35,0,0,1,5.19.33c1.23-.09,2.45-.64,3.71-.41a21.2,21.2,0,0,0,6.79.31c2.1,0,4.22,0,6.32-.13.1.16.31.47.42.62,1.83-.81,4.27,0,5.63-1.72.69.43,1.3,1.34,2.22,1.08a5.66,5.66,0,0,0,3.29-2.72c0-.76.13-2.28.17-3,.48-1.16,1.21-2.21,1.62-3.42.13-1.19,1.22-1.74,2-2.5.41-.47.8-1,1.18-1.48,1.19-.78,1.82-2.11,2.79-3.13a14.33,14.33,0,0,0,2.53-2.21,39.15,39.15,0,0,1,5.25-2.76l1.81.17c1.1-.08,1.61-1,1.94-2a23.44,23.44,0,0,1-.09-4c.32-2.67-.22-5.4.28-8.07a20.7,20.7,0,0,1,0-4.72,19.88,19.88,0,0,0-.1-4.56c-.13-2.2,0-4.41-.21-6.62-.1-1.88-.2-3.78-.32-5.67a20.76,20.76,0,0,1,0-3.25c.27-1.23-.15-2.48.06-3.72l-.23-.57.27-.53c-.58-2.19.29-4.5-.12-6.74a6.87,6.87,0,0,1,0-2.35,51.44,51.44,0,0,0,0-8.6c-.31-1.67-2.17-2-3.43-2.79-.92-.78-2.19-.45-3.16-1-2.05-1.27-3.9-2.85-6-4.09a4.9,4.9,0,0,1-1.41-1.56,4.12,4.12,0,0,1-1.93-3.09c-.16-2.37-1.48-4.44-1.86-6.76a16.82,16.82,0,0,0-3.22-1.19c-2.06.22-4.13-.13-6.19.11-3.78-.52-7.52.91-11.3.55-.85,0-1.63.59-2.49.36a38.77,38.77,0,0,0-3.84-.73c-1.43-.11-2.75.83-4.19.3l-.43.48-1.68.26c-.48-.27-1-.52-1.46-.77-1.4.58-2.9-.19-4.34.16a15.54,15.54,0,0,1-5.35.26c-1.27-.22-2.59-.17-3.84-.33a42.68,42.68,0,0,0-6.69.05,36.61,36.61,0,0,0-5.13,0c-2.9,0-5.91-.88-8.74.08a3.49,3.49,0,0,0-4.12,1.32c.41,1.29-.74,1.71-1.42,2.39-1.37,3.15-2.94,6.38-5.63,8.62a20.77,20.77,0,0,0-2.52,3.38,6.06,6.06,0,0,0-2.5.79c-2,1.39-4.49,1.8-6.29,3.46a9,9,0,0,0-.89,2.39c-.31,2.62,1,5.14.36,7.77a12,12,0,0,0,.44,2.81,7.62,7.62,0,0,1-1,1.82c.47,1.8-.1,3.65,0,5.47.22,2.7,0,5.41.51,8.08.19.91-.32,1.77-.39,2.66.16.1.49.29.65.4-.26,1.78.61,4-.83,5.39-.73,2.1.77,4.13,0,6.24a17.61,17.61,0,0,0,.3,4.35c0,.9-.31,1.76-.37,2.64-.1,1.89,1,3.8.08,5.62-.56,1.44.51,2.87,0,4.34m.36,101.83c-.16,2,.15,4.05-.06,6.08.25,2.26-.1,4.52.23,6.77.84.36,1.69.66,2.51,1.07s1.29,1.29,2.21,1.32a11.32,11.32,0,0,1,7.94,4.51l.12.74a15.33,15.33,0,0,1,1.65.42,21.26,21.26,0,0,0,2.91,4.52,58.28,58.28,0,0,0,2,6c.63,1.27,2.11,1.61,3.41,1.64a25.46,25.46,0,0,0,6.41.1c1.67-.34,3.43.45,5.07-.22,1.36-.53,2.8.3,4.2.3,1-.19,1.82-.73,2.84-.34a6.49,6.49,0,0,0,3.27.31c.91-.22,1.77-.24,2.71-.4,3,.57,6.1-.59,9,.42a4.69,4.69,0,0,0,1.72-.46c.67.18,1.36.34,2.06.5,1.66-.22,3.34-.47,5-.69.78.2,1.48.62,2.25.89a41.81,41.81,0,0,0,6.8-.59c1.41-.19,2.85,0,4.27-.1l.35.48a26.29,26.29,0,0,1,5.75-.69c.83-.09,1.59.39,2.42.34,1.53,0,3,.13,4.58.16a14.09,14.09,0,0,0,1.82-3.84,22.12,22.12,0,0,1,2.44-6.42c.32-.54,1-.55,1.55-.81a3.47,3.47,0,0,1,1.7-2.76,16.48,16.48,0,0,1,1.16-1.21c3.15-1.84,6.29-3.85,9.91-4.62,1.64-2.63,1-5.81.74-8.69-.14-1.09.19-2.19.07-3.29-.81-2.57-.23-5.27-.29-7.92a38.12,38.12,0,0,0,0-6.84c-.39-2.6.16-5.23-.09-7.84s.24-5.38,0-8.06c-.12-1.17.29-2.37,0-3.55a18.31,18.31,0,0,1-.22-6.31,25.77,25.77,0,0,0,0-4.73c-.12-1.16.34-2.3.24-3.48a43.2,43.2,0,0,1,.11-5.21,8,8,0,0,1-.83-4.19c-1.19-.37-2.5-.23-3.64-.77-2.72-1.23-5.51-2.61-7.38-5a7.85,7.85,0,0,1-3.12-2.82c-1.33-2.33-2.78-4.59-4-7-1.58-2.06-4.56-1.46-6.77-2.06-1.07.18-2.12.65-3.21.74-1.29-.46-2.71-.11-4-.08a51,51,0,0,1-8.56,0c-3-.28-5.91.29-8.88.33-1.69.28-3.28-.95-5-.24-1.34.59-2.85.29-4.24.19a30.06,30.06,0,0,0-5.77.06c-2.51-.33-5.05.24-7.57-.06a18.2,18.2,0,0,0-2.32-.07,1.77,1.77,0,0,1-1,.62l-.43-.73a18.34,18.34,0,0,0-4.38.59,21.53,21.53,0,0,0-7.29-.43,11.25,11.25,0,0,1-1.27.22c-.91,1.29-1.82,2.56-2.59,3.9a22.77,22.77,0,0,1-2.13,4.1c-1.51,2.58-4.28,3.95-6.8,5.35a5.91,5.91,0,0,0-1.65,1.58,7.21,7.21,0,0,0-3.83,1.87c-1.38,0-2.83-.53-4,.37-.72,2.27-.45,4.71-.48,7.05a53.15,53.15,0,0,1,.15,9.44l.65.42c-.38,1.27-.93,2.6-.18,3.85a6.84,6.84,0,0,0-.77,4l.61.37c-.44,3.14.18,6.34-.49,9.45a4.41,4.41,0,0,1,0,1.45c.27,1.87.92,3.77.55,5.67-.22,3.21.15,6.4.06,9.61-.19.65-.45,1.27-.69,1.91a4.16,4.16,0,0,1,.4,2.83m0,120a6.48,6.48,0,0,1,.67,3.74c0,1.12.13,2.24.2,3.35.82.45,1.55,1.06,2.4,1.47a11.57,11.57,0,0,1,4.3,1.62c.74.74,1.72.5,2.66.38a42.55,42.55,0,0,1,3.24,3.2c1.6,1.73,2.28,4.11,4.07,5.67.15,2,1.77,3.46,1.69,5.46l.46.41c0,.2.08.59.11.79l.88.9c2.54.2,5.07.19,7.61.34,3-.55,6.18-1.18,9.27-.41,1.73-.08,3.43-.22,5.17-.37,1.12-.31,2.13.37,3.17.7a19.26,19.26,0,0,0,4.33-.75,11.69,11.69,0,0,0,3.23.36,26,26,0,0,0,9.86.26,10.4,10.4,0,0,0,2.3,0,38.69,38.69,0,0,0,3.9.31,6.8,6.8,0,0,1,3.35-.29c1,.12,1.84-.53,2.81-.41a37.36,37.36,0,0,0,6.43-.18c1.88-.53,3.66.62,5.53.25,1.14-.06,2.28-.11,3.44-.14a3.76,3.76,0,0,0,1.2-2c-.2-1.59,1-2.69,1.67-4a7.6,7.6,0,0,1,1.15-3.26,8.31,8.31,0,0,1,2.38-3.88c.74-1.23,1.47-2.53,2.88-3.07l.44.22a19.87,19.87,0,0,1,3.77-3.38c2.09-.35,4-1.44,6.09-1.62a8.12,8.12,0,0,0,1.1-3.84c-.28-2.15,0-4.36-.57-6.48a9.7,9.7,0,0,1-.09-3.76c.48-2.16-.78-4.2-.74-6.34-.13-.94.41-1.78.55-2.68-.14-1.07-.8-2-.53-3.16a25.58,25.58,0,0,1,1.13-2.44c-.19-.59-.33-1.2-.46-1.8,0-1.44-.69-2.83-.23-4.28a46.9,46.9,0,0,0,.56-7.11,15.87,15.87,0,0,1,.08-2.84c0-1.54-.47-3.25.31-4.7a15.7,15.7,0,0,1,0-7,27.08,27.08,0,0,1-.06-4.68c.1-1.26-.85-2.39-.38-3.69s.07-3.45-1.5-3.94c-3.06-1.57-6.81-2-9.22-4.68a5.73,5.73,0,0,0-1.66-1.32c-1.42-2.05-3.32-3.88-4-6.33-.33-.9-1-1.63-1.26-2.56-.36-.65-.22-1.63-.81-2.18a10.56,10.56,0,0,0-2.15-1.08c-1.32.2-2.68-.32-3.94.19-1.72.33-3.43-.21-5.13-.28-1.88.05-3.73.36-5.59.57-2.9.54-5.84-.44-8.74.15a38.88,38.88,0,0,1-6.72-1,3,3,0,0,0-1.1.22c-3.34,1.07-6.86.26-10.27.39a19.48,19.48,0,0,1-4.45,0c-1.89-.46-3.74.65-5.63.32-1.85-.08-3.69-.74-5.54-.24a4,4,0,0,1-1.86.25,22.88,22.88,0,0,0-5-.33,28.14,28.14,0,0,0-7.45.2,7.39,7.39,0,0,0-1.14,1.58c-1.54,1.24-2,3.32-2.61,5.09a25,25,0,0,0-2.37,3.25c-1.89.83-2.73,3.1-4.84,3.47a16.55,16.55,0,0,1-2.18,1.93c-.77.54-1.81.27-2.63.66-1.09.59-2.12,1.29-3.24,1.81a4.36,4.36,0,0,0-.18,2.74c.21,2.58.08,5.16.31,7.73.29,1.4-.23,2.8,0,4.19s-.91,2.85-.3,4.37c.3,2.81,0,5.67.88,8.4-1.08,1.74-.46,3.83-.56,5.76-.32,2.62,1,5.17.24,7.8-.06,1.27.31,2.52,0,3.79.35,3.56-.88,7.16,0,10.68.5,2.51-.14,5-.62,7.46m.49-190.57,1.79-.4c0-1-1.22-1.48-2-1.82,0,.75.12,1.49.23,2.22m-.08-115,1,0c.11-.54.31-1.17-.26-1.53-.27.5-.52,1-.75,1.51m1.29,460.85,1.14-.35v-.89l-1.14.35v.89m.93-248h0m.25-117.45a16,16,0,0,0,1.83-.85l-1.26-.09c-.19.32-.39.63-.57.94m3,15.6c.29.31.58.72,1.07.63a.92.92,0,0,0,0-1.45,1,1,0,0,0-1.07.82M563.76,719c1.22,1.22,3.13.82,4.69.69-.13-.77-.17-1.56-.32-2.33l-1.07-.28c-.19.33-.39.64-.6.94,0,.2-.07.6-.1.8a4.75,4.75,0,0,1-1.14.64l-.36-1.81h-1.19l.09,1.34m1.16-115c.5-.08,1.09,0,1.46-.43a4.48,4.48,0,0,0-.27-1.44l-1.22.64q0,.62,0,1.23m3.28,123.75a1.13,1.13,0,0,0-.93-1.28c-.22.74.21,1.17.93,1.28m.21,2.4c.51-.3,1-.61,1.51-.95,0-.39,0-.79,0-1.19a12.39,12.39,0,0,0-1.71-.26,9.66,9.66,0,0,0,.21,2.4m1.43,2.72.12-1.33-1.33.12a2.72,2.72,0,0,0,1.21,1.21m-1.07-132.55c1-.06-.45-.91,0,0m70.53,10.28a1.65,1.65,0,0,1,.62,1l.73-.6c0-.22.05-.64.06-.86l-1.51,0c0,.11.08.31.1.41M659.54,488l.16-1.08-1.07.17a6,6,0,0,0,.91.91m1.33,231.67a10.84,10.84,0,0,0,1.18.38c-.12-.4-.25-.79-.39-1.18a.64.64,0,0,0-.79.8M663,729.75l.82.37c.48-.2,1-.39,1.45-.61a24.3,24.3,0,0,1,.29-2.69,2.82,2.82,0,0,0-2.28-.57,17.53,17.53,0,0,0-.92,1.55c-.08.71.4,1.31.64,2m1.76-460.18c.26.66.94.16,1.4,0,.35-1.14-1.7-.9-1.4,0M667.42,611c.29.38,1.1,0,.75-.46s-1.11,0-.75.46m-.07-239.58c.38.14.76.29,1.16.41l.93-1.8a7.67,7.67,0,0,0,3.2,0l.39.63c.49-.07,1.08,0,1.43-.44.53-1.22-.73-2.24-1.79-2.28-1.25-.36-3-.67-3.86.59-.6.91-1.83,1.61-1.46,2.9m.38,348.78c.45.54.92,1.07,1.4,1.58a10.54,10.54,0,0,1,1.73-.55c.84.54,1.55,1.32,2.73.87a26.4,26.4,0,0,1-2.19-2.86,7.06,7.06,0,0,0-1.83-.57c-.39-.18-.79-.49-1.24-.37-.47.47-1.28,1-.6,1.9m0-105.82a15.62,15.62,0,0,1,2.89-.7c0-.49,0-1.48,0-2l.63-.41a3.44,3.44,0,0,0-1.56-1.48c-.27,1,.09,2-.32,3l-1.68.09v1.48m.08-17c.41.33,1.24-.16,1-.69-.38-.13-1.12.23-1,.69m1-88.75a1,1,0,0,0,1.25-1.24,1,1,0,0,0-1.25,1.24m1.57,204.25,1.08.1c.23.26.46.51.71.76,1.31-.07,2.29.83,3.41,1.36l.1-1.55-1-.12a3.1,3.1,0,0,1,1.2-1.21l.43-1a15.36,15.36,0,0,0-1.73-.39c.6,1.62-1,2.19-2.16,2.14.49-1,.33-2.83,1.83-2.81-.24-1.19-1.27-2-1.94-2.94a16.9,16.9,0,0,0-1.75,4.19l-.45.37.3,1.12m.28-330.54c.38.25.78-.42.47-.71s-.81.42-.47.71M672.08,611a2,2,0,0,0,1.15.45l.62-1.21a9.75,9.75,0,0,1-.34-1.47l-.82-.06c-.41.67-1.11,1.37-.61,2.29m1.22-16.76a1,1,0,0,0-1.24-1.24,1,1,0,0,0,1.24,1.24m-.84-109.92c.91.45.06-.95,0,0M673,617.76c.34.24.71-.38.36-.6s-.68.37-.36.6m1.06-276.08c.25,2-.48,4-.36,6.05.46,1.61,0,3.3.31,4.94.32,2.21-.42,4.42.15,6.6,1.31,1,3.2.38,4.63,1.07a17.34,17.34,0,0,1,1.38,1.58c1.26.7,2.74,1.08,3.8,2.12a14.25,14.25,0,0,0,3.72,2.49,26.73,26.73,0,0,1,1.3,2.56c.76.94,1.86,1.72,2,3,.48,1.86.37,4.09,1.86,5.55a12,12,0,0,0,5.89,3.24c1.51-.16,3-.67,4.55-.36a10.33,10.33,0,0,0,2.08,0c2.66-.59,5.53.68,8.1-.46,1-.26,2.15.16,3.23.18,1.49.82,3.25,0,4.81-.16a1.78,1.78,0,0,0,1.91-1.13,4.7,4.7,0,0,1,1.24-.24c.37.5.72,1,1.1,1.52a12.21,12.21,0,0,1,3,0c2.84,0,5.72.31,8.52-.38,2-.53,3.77.48,5.58,1.06,1.94-.13,3.86-.51,5.81-.63a6.09,6.09,0,0,0,1.06-2.5l.68-.75c.43-1.7,1.51-3.15,2-4.85,1.57-2.26,3.1-4.56,4.72-6.79.34-.53,1-.61,1.58-.83.12-.09.35-.27.46-.37,1.79-.35,3.14-1.68,4.83-2.31,1.33-.64,3-.75,3.94-2,.52-1.47,1.26-3.12.6-4.65a18.85,18.85,0,0,1-.45-4.06,16.34,16.34,0,0,1,.18-4.83l-.61-.38c.2-1.42.34-2.82.5-4.25a19.33,19.33,0,0,0-.07-4.43,21.16,21.16,0,0,1,.38-4.95c0-1.39-.25-2.76-.39-4.15a12.14,12.14,0,0,0,.32-5.33,20,20,0,0,1,.68-4.4c-.44-3.18-1.06-6.41-.32-9.61.07-1.08.1-2.18.08-3.28-.62-1.15-1.8-2.22-1.75-3.63.38-1.18,1.57-1.85,2.08-3a4.91,4.91,0,0,0,.58-3.22c-.44-.26-.87-.53-1.28-.83a56,56,0,0,1-6.16-1.83,20.65,20.65,0,0,1-4.84-2c-1.13-1.54-3.35-2.07-4-4a6.18,6.18,0,0,0-2.6-3.33c-.31-2.63-2.23-4.7-3.35-7a7.85,7.85,0,0,0-4.14.25c-2.48-.79-5-.18-7.57-.07-2.61.36-5.22-.35-7.82.12-1.92.51-3.86-.16-5.8.13-1.27.23-2.6.21-3.85.33a10.57,10.57,0,0,1-4.61-.37,28.26,28.26,0,0,0-3.87.69,12,12,0,0,0-3.05,0c-3.23.05-6.44-.51-9.67-.08-1.35-.11-2.5.74-3.69,1.21-.7.57-.71,1.61-1.27,2.29a8.16,8.16,0,0,0-1.66,4.84,24.2,24.2,0,0,1-1.73,3,3.84,3.84,0,0,0-1.78,2.1,28.73,28.73,0,0,0-4.75,3.22c-1.86,1.67-4.53,1.59-6.58,2.91a4.25,4.25,0,0,0-1.46,3.78c-.71,3.9,0,7.84-.34,11.76a14.36,14.36,0,0,0,.75,1.81c-.21.55-.57,1-.8,1.54a27.24,27.24,0,0,1,.37,3.35c.07,1.83-.35,3.77.45,5.49-.19.49-.37,1-.55,1.46a3.22,3.22,0,0,1-.12,3.67c.05,2.54.32,5.17-.45,7.65-.49,1.3.23,2.59.48,3.87m.28,75a7,7,0,0,1-.29,2.7c-.55,1.52-.08,3.15.15,4.69.08,1.77-.26,3.57.11,5.32a5.65,5.65,0,0,1,.26,2,25.34,25.34,0,0,0,.26,7.43,1.43,1.43,0,0,1-.32,1.72c-.1,1.13-.19,2.25-.28,3.36-.06,1.63.46,3.22.46,4.84-.17,2.5-.93,5-.38,7.53a12.2,12.2,0,0,1,.42,5.2c-.46,2.11.16,4.25.2,6.37-.07,1.23-.38,2.42-.46,3.64l.87,1.79a13,13,0,0,1,1.88.81c1.3.8,3.09.54,4.11,1.81a11.92,11.92,0,0,1,4.26,2c.55,1.12,1.1,2.24,1.66,3.35,1.33.36,2.78,1.05,3.13,2.5.47,1.75,2.27,2.71,2.65,4.46.22,1.53,1.41,2.59,2,4,.63.55,1.06,1.46,2,1.62a72,72,0,0,1,12.37.16,6.76,6.76,0,0,1,2.54-.38,30.44,30.44,0,0,1,8.26-.22c2.45,0,5.15,1,7.45-.28a3,3,0,0,1,2.64-.57c1.83.24,3.65.53,5.45.91a8.4,8.4,0,0,1,3.23-.52c.1.15.29.43.4.57l1,.14c.25.18.52.54.88.36a10,10,0,0,1,5.23-.57c1.19.4,2.63.1,3.75.76-.07,1-.62,2.13.47,2.74l.17.74.7-.05c.39-.82,1.47-.52,2.24-.85-.18-.58-.45-1.13-.67-1.7a2.47,2.47,0,0,1-2.36-.36c.11-.57.26-1.12.4-1.69.45-.12.91-.27,1.37-.42.18-.47.41-.93.55-1.42-.29-.78-.7-1.6-.24-2.41l-.32-.58a31.79,31.79,0,0,1,3.37-4.07c.82-.86,1.36-2,2.15-2.87.23-.54.49-1.07.77-1.6a7.77,7.77,0,0,0,4.7-1.23c1.23-1.06,2.88-.88,4.36-1.25a6.94,6.94,0,0,0,2.44-4.35c-1.3-3,.28-6.15-.24-9.22-.26-1.51.07-3.05-.18-4.56a21.79,21.79,0,0,1,.06-4.27c-.1-1.68-.8-3.46,0-5.05-.17-.58-.32-1.17-.48-1.76a36.44,36.44,0,0,0,.44-4.07,7.76,7.76,0,0,1,.06-2.5c.65-1.67-.27-3.42-.52-5.07a45.31,45.31,0,0,1,.44-6.15,8.23,8.23,0,0,1-.46-2.34c.23-3.08,0-6.17.19-9.25.08-.38-.22-.67-.41-1-.63-1.27-.18-2.67-.08-4a23.42,23.42,0,0,0-.39-6.73,15.61,15.61,0,0,0-5.74-2.88,5.16,5.16,0,0,0-2.08-1.19,51,51,0,0,1-5-4.19c-.5-.28-1.17-.35-1.5-.87a24.35,24.35,0,0,0-2.65-4.44,2.16,2.16,0,0,1-.9-1.2c-.91-.87-.84-2.16-1.12-3.31a13.86,13.86,0,0,0-2.09-1.48,31.15,31.15,0,0,1-5.29,0,26.36,26.36,0,0,1-4.53,0c-2.32-.36-4.69.87-7,0a20.32,20.32,0,0,1-2.56.46c-2.26-.21-4.54-.29-6.8-.37a27.92,27.92,0,0,0-5.31-.33c-1.41.19-2.79.26-4.18.35-2.21-1-4.75.25-7-.36-1.9,0-3.77.71-5.65.31a30.7,30.7,0,0,0-6.05-.43c-2.13,3.13-3.59,6.72-6.16,9.55a3.22,3.22,0,0,1-2.38,1.2,18.44,18.44,0,0,1-4.31,3.65c-2.5.45-4.67,2-6.72,3.38a35.19,35.19,0,0,0,.2,4,7.8,7.8,0,0,1-.41,2.5,33.24,33.24,0,0,1,.72,5.52m-.72-149.75c.9.46.05-.95,0,0m.93,267.88a46.35,46.35,0,0,1,0,4.86,26.92,26.92,0,0,0,0,4.75,46.38,46.38,0,0,1,.52,8c-.24,1.18.69,2.26.39,3.41a7.83,7.83,0,0,0-.21,3.47c.1.72-.41,1.33-.49,2,.09.72.44,1.37.54,2.08-.09.71-.6,1.33-.53,2.06,0,2.3.59,4.54.76,6.82-.35,1.42-1.11,2.78-.71,4.3a40,40,0,0,0,.51,9,20.31,20.31,0,0,0,2.63.35c.24.44.74,1.33,1,1.77,1.11.31,2.29-.12,3.38.31.65,1.52,2.47,2,3.81,2.74a13.48,13.48,0,0,1,6.3,4.09,35.13,35.13,0,0,1,1.07,4.56c.27,1-.13,2.08.2,3.07s.45,1.89.69,2.83c.77,1,1.75,2.25,3.13,2.22,2.16-.11,4.55.69,6.52-.57a7.75,7.75,0,0,0,4.6.41,23.14,23.14,0,0,1,5.64,0c2.23.6,4.44-.64,6.67-.23,1.76.16,3.57-.37,5.33.05s3.43-.15,5.14.19c1.23.05,2.53.63,3.72.12,1.48-.67,3,.57,4.58.15,1.3,1,3-.15,4.45,0,.71-.08,1.43-.12,2.16-.14l.4.64.83-.06c1.43.3,2.43-1,3.82-.93a14.34,14.34,0,0,0,1.38-4.53c.24-2,1.31-3.77,2.08-5.61,1.24-1.43,2.08-3.21,3.51-4.47,1-1.45,2.74-2,4.19-2.91a3,3,0,0,1,2.67-1.52,7,7,0,0,1,4.5-1.41c.19-.18.39-.37.6-.55a38.22,38.22,0,0,1,.34-5c.57-2.3-.07-4.63-.14-6.94-.15-1.59-.18-3.18-.33-4.78-.21-1,.31-1.84.46-2.77-.22-1.34-1-2.61-.65-4,.13-.82.18-1.63.27-2.45-.15-.29-.31-.59-.45-.89a15.46,15.46,0,0,0,.53-2.71c-.21-1-.83-2-.45-3.06.11-1.2-.87-2.57.09-3.57a13,13,0,0,0,.52-6,16,16,0,0,1-.62-3.84c-.16-3.86.28-7.71.34-11.57a11.17,11.17,0,0,0-.5-7.15,24.87,24.87,0,0,0-4-1.9,28.11,28.11,0,0,1-5.85-3,11.91,11.91,0,0,0-.91-1.18c0-.19-.11-.55-.15-.74-.34-.14-.67-.31-1-.48-.71-1.15-2.22-1.31-3.18-2.16a4.25,4.25,0,0,1-.94-1.75,8.41,8.41,0,0,1-1.5-2.95c-1.2-2.14-1.3-4.74-2.55-6.88a14.54,14.54,0,0,1-3.49-.56,5.7,5.7,0,0,1-2.53.06,17.21,17.21,0,0,0-6.24.29,6.79,6.79,0,0,1-3.09-.35,65.06,65.06,0,0,1-7.39,0,7.44,7.44,0,0,1-3.32-.09c-2.15-.6-4.37.17-6.53.17s-4.41.29-6.49-.46l-.55.13c-1.26.08-2.48.68-3.75.27a34.9,34.9,0,0,0-5.6,0,20.56,20.56,0,0,1-5.07.23c-.79.72-1.3,1.74-2.34,2.13-1.15,2.15-2,4.42-3.18,6.58a20.84,20.84,0,0,1-3.29,2.94c-1,1-1.83,2.28-3.25,2.66-.83.17-1.22,1-1.72,1.54-2,.55-4.11,1-5.85,2.18a20.5,20.5,0,0,1,.18,2.81,19.69,19.69,0,0,0-1.59,2c.15,2-.21,4,.1,6a7.09,7.09,0,0,1-.27,2.39c-.58,1.17.84,2.26.21,3.49m.65,140.31c-.37,4.19.51,8.47-.38,12.61.36,1.44,0,2.93.08,4.38.13,1.77.07,3.54.22,5.31.93,1.89.84,4,1.08,6a38.65,38.65,0,0,1,9.2,2.66c2.6,1.12,3.8,4,6.42,5.15.39.8.66,1.65,1.09,2.44,1,.89,2.19,1.68,2.61,3,.69,1.38.51,3,1.18,4.39,1.12.31,1,1.54,1.47,2.42,1.14,1.14,2.85.48,4.27.52,1.83-.3,3.67-.63,5.51-.94a26.85,26.85,0,0,0,5.15,0,16.68,16.68,0,0,1,6.1.38c1.53-.1,3-.72,4.58-.14.3.18.55.58,1,.51.64-.34,1.13-1,1.86-1.15a29.21,29.21,0,0,1,5.33.73,12.82,12.82,0,0,1,2.77,0,13.43,13.43,0,0,0,3.58,0c2.36.3,4.7-.23,7.06.06a15.46,15.46,0,0,0,5.15-.5c.46-1.37,1.16-2.67,1.55-4.07a10.09,10.09,0,0,1,3.39-6.71c.94-.86,1.32-2.22,2.56-2.77a22.44,22.44,0,0,1,3.39-2,3.94,3.94,0,0,1,2.43-1.13l.4-.46,1.92-.06a2.53,2.53,0,0,0,.52-1.11,5.73,5.73,0,0,1,3-.78c.28-.19.57-.38.88-.56,0-1.51,1.51-2.64,1.1-4.19s-.59-3.09-1-4.62c-.27-4.62.71-9.33-.27-13.9.86-2.15-.05-4.45.38-6.67a52.65,52.65,0,0,0-.09-9.31c-.07-1.33.45-2.8-.15-4.07a4.91,4.91,0,0,1-.46-1.53c.19-.75.56-1.44.79-2.17a9.57,9.57,0,0,0-.67-3.25,9.32,9.32,0,0,1,.33-1.72c-.45-3.19,0-6.38-.05-9.59.06-1.74.33-3.48.31-5.23a19.63,19.63,0,0,1-.13-6.49c-2.25-1.5-5-1.9-7.4-3-.14-1,.2-2.11-.37-3a6.37,6.37,0,0,0-1.8,1.2,5.82,5.82,0,0,1-3-2.52c-1.67-.64-2.22-2.51-3.42-3.69-1.5-1.23-1.16-3.51-2.73-4.67-1.59-1.35-3.91-.36-5.76-.79-2.29-.18-4.57.1-6.85,0-1.36-.2-2.76-.22-4.1-.36a4.64,4.64,0,0,0-3.34.72c-.82-.25-1.79-.33-2.59-.49a10.41,10.41,0,0,0-1.58.12c-1.62-.39-3.26.24-4.89,0a40.43,40.43,0,0,1-5.93-.33,25.88,25.88,0,0,0-5,.07c-.78.11-1.48-.4-2.24-.4a7.41,7.41,0,0,1-2.06.42c-2.33-.27-4.7-.18-7-.37-2.22-.43-4.43.13-6.6.51a20.67,20.67,0,0,0-4.28,6.65,3.57,3.57,0,0,1-1.53,2,21,21,0,0,1-7.27,5.46c-1,.52-2.2.16-3.16.71a14.6,14.6,0,0,0-2.39,1.71,18.7,18.7,0,0,1-.58,2.07c.63,2.67.09,5.45,0,8.16,0,1.8.3,3.6.24,5.4-.18,1.42.81,2.82.29,4.2-1.15,3.73,0,7.57.16,11.35a12.43,12.43,0,0,1,0,6c-.75,2.31-1.67,5-.36,7.26m-.74-278.82c1-.06-.45-.91,0,0m1.32,337.45a25.47,25.47,0,0,0,2.88-4.16l-1-.06c-.78,1-1.69,1.85-2.43,2.86l.51,1.36m-.36-7.53c.42.12.57,0,.45-.46-.4-.09-.56.06-.45.46m2.36.41c.63,0,1.18-.44,1.1-1.13a2,2,0,0,1-.64-1.9l-.89,0c-.31,1,.26,2,.43,3m.82-6.37c1-.06-.45-.91,0,0M679,603.34H680c.11-.28.22-.57.35-.86h-1.77c.11.29.22.58.34.86m.5,14.8h.9c.21-.67.44-1.34.66-2l-1.26,0a3.3,3.3,0,0,0-.3,2m.69-110.74c.58.12.85-.52,1.21-.85a3,3,0,0,0-1.2-.28.64.64,0,0,0,0,1.13m.74,219.84.12.79h1.14a8.26,8.26,0,0,0,.6-2.55c-.22-.22-.44-.43-.64-.65l-1.1,0c0,.37-.07.74-.11,1.11a.75.75,0,0,0,0,1.34m.19-123.06a7.57,7.57,0,0,0,1.61.66c.17-.25.33-.51.49-.79l-1.65-.1.43-.61c-.23-.29-.43-.6-.67-.88-.32.2-.61.42-.9.63l.69,1.09m1.46,131.67a3.77,3.77,0,0,0,1.24-.89l-1.36-.15.12,1m1.22-123.46a6.52,6.52,0,0,0,.91-.91l-1.07-.16.16,1.07m2-227.74a2,2,0,0,0,.57-1,8.47,8.47,0,0,0-.94-.39,7.46,7.46,0,0,0,.37,1.35m71,123.46a16.74,16.74,0,0,1,.73-1.89c1.42.27,2.57,1.4,3.76,2.19.38,1.34-1.47,1.88-1.47,3.15a21.4,21.4,0,0,1-.6,3,28.21,28.21,0,0,1,3.57-1.77c0-.22,0-.67,0-.89h-.59c.22-.56.42-1.14.62-1.72l-.68-.41a18.23,18.23,0,0,1,.41-1.92c.56-.61,1.29-1.08.82-2.16.5-1.12-.43-1.63-1-2.29l-.47.09a14.06,14.06,0,0,0-2.72.6,4,4,0,0,0-2,.15c-.2.33-.4.64-.61.94,0,1-.74,2.23.15,3m-.6-12.58.68.05c0-.38,0-.76,0-1.15l.89-.7c-.2-.18-.39-.37-.57-.56a5.84,5.84,0,0,0-1,2.36m3.1,111.34c0,.42.81.56.84,0s-.85-.53-.84,0M759.76,716a3.43,3.43,0,0,0,1.29-1.19l-1.68-.06c.11.42.24.84.39,1.25m1.78-216,.53.36c.07.43.22,1.3.29,1.74-.09.3-.17.61-.24.91a4,4,0,0,0,2-.91,4.12,4.12,0,0,1-.26-2.66,15.79,15.79,0,0,0-2.35-.36V500m.28,107.54.63-.38c.3,1.21.42,2.45.63,3.66a6.16,6.16,0,0,0,4.3-1l1-1.6a8.07,8.07,0,0,0,.78-.47c.17-.68-.73-.64-1.14-.89a8.5,8.5,0,0,1-.29-1.57,1.07,1.07,0,0,0,.65-1.35l-.71.38c-.6-.39-1.14-.85-1.74-1.23-1,.63-2,1.39-3,2.1.28.45.89.81.87,1.38-.51.67-1.39.18-2,.06v.92m.64-112.38c.38-.06.44-.28.2-.66-.4.08-.47.3-.2.66m.61,231c.43.35.77-.42.37-.66s-.73.42-.37.66m1.33-236.72.12-1-1.35.15a3.54,3.54,0,0,0,1.23.89m-.44,6h0m.88,217.61c.52.23.86-.91.3-1a.65.65,0,0,0-.3,1m.53-119.23.84-.34c0-.2,0-.62.06-.83h-.9c0,.4,0,.79,0,1.18m2.43-99.84c.74.06,1.48.09,2.24.12.6.42.94,1.44,1.79,1.41,1-1.54.54-3.5.79-5.22.06-.39.11-.8.16-1.21-.24-.22-.47-.45-.69-.68-.47,0-.93.12-1.39.2-1.3-.62-2.29.59-3.2,1.32-.12.5-.26,1-.39,1.48a11.82,11.82,0,0,1-1.24-.31c-.54,1.36,1.45,1.78,1.93,2.89M769,513.63a3.92,3.92,0,0,0-.46-1.19,5.39,5.39,0,0,0-1.5.29c.51.59.59,1.71,2,.9m-.33,220c.44,0,.88-.15,1.34-.17.16.25.32.51.47.78l.84,0c-.16-1.31-.83-3.13-2.62-2.31-.25.5-.72,1.31,0,1.67m.32,4.77.28.64c1.13-.2,2.23-.46,3.36-.71a.5.5,0,0,0,.39-.7,14.41,14.41,0,0,1-3.09-1.67,5.32,5.32,0,0,0-.93-1.18,4.43,4.43,0,0,1,0,3.62m0-235.15h0m0-17.47c.23.36,1,.06.66-.37s-1-.06-.66.37m4.29,257.19c.22.31.61.05.9,0-.29-1.31.25-2.74-.5-3.93l-1.25,0c.16,1.29-.33,3,.85,3.91m-.49-137c1-.05-.45-.9,0,0m.34-13c.12.48.87.27.75-.2a.39.39,0,0,0-.75.2M775.65,604c.12-.34.25-.69.4-1-.49,0-1.17-.45-1.45.16s.6.72,1,.88m.23-6.64a1.19,1.19,0,0,0-.24-1c-.82-.14-.47,1.38.24,1m.41-102.69c.51-.2,1-.4,1.56-.62.15-1-.54-2.1-1.86-1.45a3.23,3.23,0,0,0,.3,2.07m0,241.32h.93c0-.84.75-2.47-.56-2.35a2.07,2.07,0,0,0-.37,2.34m.26,5.4,1.07-.16a6.46,6.46,0,0,0-.9-.91c0,.26-.13.8-.17,1.07M776.5,739a10.32,10.32,0,0,0,1.35.36,6.37,6.37,0,0,0-.38-.94,1.94,1.94,0,0,0-1,.58m.2-2.1c.23.35,1,0,.65-.37s-1-.07-.65.37m2.33,3.51c.38.24.78-.43.47-.71s-.81.42-.47.71m3.62-15c.41.12.57,0,.45-.45q-.61-.15-.45.45m.59,11.85c.42.12.57,0,.45-.46-.4-.09-.56.06-.45.46m0-13.38c.4.35,1.06-.31.72-.72s-1.07.32-.72.72m.49-8.85c-.18-.94-.89.51,0,0m-.27.61c.3.22.6.45.92.66.4-.6-.24-.93-.65-1.27l-.27.61m2,8.6h.91c.08-.14.26-.41.34-.55l.8-.08.63-.61-.31-.5.36-.67c-1.37-.59-3.56.67-2.73,2.4m1-106.91c.9.45,0-1,0,0m5.36-340.55c.41.13.57,0,.45-.46-.41-.09-.56.07-.45.46"></path><path class="cls-3" d="M203.64,380.61a3.2,3.2,0,0,1,.55-2h1.22c.22.54.65,1.07.54,1.68-.45.78-1.75,1.16-2.31.32"></path><path class="cls-3" d="M222.75,615.89a9.1,9.1,0,0,1-.49-1,12.87,12.87,0,0,1,1.51.91,15.48,15.48,0,0,0,.94-1.44c.59-.13.78.54,1.11.88-.21.49-.41,1-.63,1.47l-.77-.21a9.74,9.74,0,0,1-1.48.55c-.06-.39-.12-.78-.19-1.17"></path><path class="cls-3" d="M246.62,718.79c.1-.54,1-.21.79.3s-.83.16-.79-.3"></path><path class="cls-3" d="M345.24,733.66a5.54,5.54,0,0,0-1.52-1.64,9.4,9.4,0,0,0,1.24-.94l.76-.06c.13.67.28,1.33.35,2l-.83.63"></path><path class="cls-3" d="M522.4,607.59c-.17-.33-.33-.67-.48-1l1-.23a4.72,4.72,0,0,1-.49,1.23"></path><path class="cls-3" d="M565,666.92c-.31-.84,1.34-.34,1,.28a1.18,1.18,0,0,1-1-.28"></path><path class="cls-3" d="M596.49,590.88a1.37,1.37,0,0,1,.9-1.24c0,.45.07.89.11,1.33l-1-.09"></path><path class="cls-3" d="M669.68,720.54q-.6.15-.45-.45.63-.18.45.45"></path><path class="cls-3" d="M748.08,492.16a5.6,5.6,0,0,1-.91-.91l1.07-.16-.16,1.07"></path></g></g></g></svg>