<svg fill="currentColor" xmlns="http://www.w3.org/2000/svg" viewBox="0 0 1000 1000"><g class="cls-1"><g id="Shapes"><g id="Shape_66" data-name="Shape 66" class="cls-2"><path class="cls-3" d="M725.82,201.4c1-1.38,2.63-1.51,4.17-1.34a24.53,24.53,0,0,1,2,1.64,20.61,20.61,0,0,1,.41,8.38c.08,1.72-.86,3.49-.07,5.15l-.27.46c-.84,2.57.65,5.27-.38,7.81a13.72,13.72,0,0,0-1.25.85c0,.43,0,.85,0,1.28,1.64,1.48,1,3.68,1.47,5.57a39.94,39.94,0,0,0-.64,7.24c-1,3.45,1.4,7-.15,10.36a14.55,14.55,0,0,1,.21,6.72l-.27.46c.67,1.59,0,3.36.44,5,.58,2.25-.27,4.49-.19,6.75-.81,3,1,6.29-.44,9.24a24.12,24.12,0,0,1-1.59,3.7c-.49,1.23.23,2.44.6,3.6l.54.55c-.17,2.6.82,5.11.65,7.72.1,1.63-.58,3.16-.89,4.74.38,2.3.64,4.63,1.17,6.9-.77,1.8-.61,3.81-1.17,5.69.5,4.45.13,9,.23,13.5-.2,2.34,1.44,4.55.69,6.88-.07,2.43-.55,4.83-.37,7.27.49,3.81-.42,7.68.16,11.53-.16.72-.34,1.44-.53,2.16-.29.38-.57.78-.82,1.18,1.5,3.9,1.48,8.12,1.56,12.24,1,3.87-1.27,7.72-.36,11.58-.41,4.72,1.14,9.51-.29,14.13-.4,2.77.5,5.63,0,8.29l.27.46a7.58,7.58,0,0,0,.3,1.7c-.16,1.55-1.51,2.8-1.17,4.42.39,2.15,1,4.41.29,6.56-.63,1.73-.05,3.6-.54,5.35-.56,2.57.93,5,.54,7.56.63,3.2.19,6.44-.14,9.65-.69,3.2.71,6.42,0,9.63-.43,1.33.23,2.65.19,4,0,2.85-.07,5.7,0,8.54.37,1.84.94,3.74.37,5.62-.29,3.15.22,6.36-.47,9.48-.59,1.67.89,3.29.24,5-1.64,4.59,1.21,9.75-1.09,14.12,1.29,2,.67,4.43,1.23,6.65.45,2-.18,4-.23,5.94a15.39,15.39,0,0,1-.09,7.6c1.43,2.85-.53,5.81,0,8.81.54,2.49,0,5.06.63,7.54a17.82,17.82,0,0,1-.9,3.5c.15,1.49,1.3,3,.63,4.48-.93,2.66.26,5.59-.86,8.21.31,1.75,1,3.74.08,5.41a5.05,5.05,0,0,0-.06,4.62c.65,2.7,1.22,5.43,2,8.11-.47,2.41-1.34,4.77-1.84,7.17.33,3.68,1.23,7.32.95,11-.25,1.84.8,3.52.64,5.35-.13,3.56.28,7.16-.33,10.68-.18,1.19.34,2.33.29,3.5-.72,3,.15,6.09-.55,9.06-.34,1.63.73,3.13.59,4.76-.13,3,.38,6.16-.62,9.09a39.69,39.69,0,0,0,.81,6.42c.4,1.24-.47,2.46-.15,3.72.57,3.32,1,6.79-.29,10-.2,2.61.75,5.26,0,7.87a17.5,17.5,0,0,1,.08,6,16.66,16.66,0,0,1-1.48,10.1l.73.66a7.18,7.18,0,0,0,.9,3.64,14.9,14.9,0,0,1-.17,4.42c-.35,1.78.29,3.7-.4,5.42l.28.45c.51,2.6.19,5.26.48,7.87.93,2.71-1.43,5.27-.54,8a12.07,12.07,0,0,1-.37,4.55c.05,3.22,1,6.37.78,9.61.14,1.23-.51,2.41-.19,3.63-.8,3.78.33,7.6-.26,11.41-.36,1.3-1.24,2.65-.6,4,.77,1.52.07,3.29.76,4.82,1,2.09.47,4.43.6,6.65.24,2.72-.83,5.44,0,8.13.06,2-.48,4-.56,6,.6,2.26,0,4.62.6,6.88a17.14,17.14,0,0,0,0,6.58c.31,1.22-.55,2.4-.11,3.6a60.34,60.34,0,0,1,.79,9.11l-.33.46a16,16,0,0,1-.7,10.13,3.59,3.59,0,0,1-3.19,1c-.91-.67-1.73-1.45-2.68-2.06-.76-1.64-.56-3.47-.94-5.18,0-1.89.93-3.59,1.41-5.38.08-3.3-1-6.69-.24-10,.37-1.88-.59-3.69-.15-5.55-.3-1.89.56-3.71.84-5.53-1.1-2.05-.29-4.43-1.06-6.58-.65-1.81.57-3.56.43-5.38-1.17-4.12.27-8.41,0-12.64.08-.12.24-.35.33-.46a10.4,10.4,0,0,1,.34-6.54c2-.61-.13-2.35-.09-3.62-.36-3-.56-6.09-.62-9.16-1-4.17,1-8.37,0-12.53-.35-2.25,1.13-4.4.36-6.62.7-2.19-.3-4.38,0-6.6.21-3.46-.48-7,.49-10.4.66-2.45-.63-4.81-.51-7.26-.54-2.29.28-4.59.35-6.89-.89-5.34.12-10.72,0-16.07a17.91,17.91,0,0,0-.59-9.1c.33-2.66-.23-5.31.61-8l.35-.53-.38-.52a18.79,18.79,0,0,0-.12-2.14c.13-4.59.66-9.14.38-13.74a13.08,13.08,0,0,1,0-5.57c.34-2.45-.49-4.84-.26-7.28a84.82,84.82,0,0,1,0-15.45c-.71-2.4.34-4.84-.6-7.19a41.37,41.37,0,0,0,0-10.43c.56-1.69-.34-3.34-.29-5,.58-2.15.08-4.4.36-6.58a15.62,15.62,0,0,0,.88-4.48c-2.08-1.59-.48-4-1.28-6l.35-.46a50.4,50.4,0,0,0-.9-7.34c.51-2.24,1.22-4.63.63-6.91.57-1.44-.38-2.92-.08-4.41a43.28,43.28,0,0,0,.31-7.89c-.83-3.19.66-6.46-.25-9.67.11-2.13-.69-4.22-.07-6.31.7-3-.05-6.12.64-9.12,0-2.46-1.09-4.9-.44-7.36a5.32,5.32,0,0,0-.16-2.74c0-1,.83-1.83.52-2.82-.51-2,0-4.12-.34-6.15.45-1.85-.62-3.68.07-5.5a52.46,52.46,0,0,1-.27-14.16,23,23,0,0,0-.31-5.31,45.93,45.93,0,0,1,1-5.92l.7-.6c-1.45-3.08-.23-6.44-.75-9.66l-.3-.45c.74-2.37-.12-4.85.05-7.28a10.52,10.52,0,0,0,.29-3.22c.91-4.05-.72-8.17.3-12.22-.69-4.37.06-8.85-.64-13.21.12-5.16-.29-10.35.31-15.47-1.19-4.86-.1-9.81.67-14.65l.59-.55c.67-2.91-1.59-5.47-.64-8.32-.18-3.29.5-6.5.34-9.79.26-2.25-1.61-4.23-.82-6.51.67-1.85-.4-3.64-.45-5.47,1.09-5.31-.7-10.7.27-16a16.67,16.67,0,0,1,.05-6.6c-.26-2.19-1.42-4.38-.73-6.61a127.56,127.56,0,0,0,.68-15.14,11.53,11.53,0,0,1,.05-5.29c-.25-3-1-5.93-.43-8.89a13.94,13.94,0,0,1,0-5c-.13-2-1.13-4.07,0-5.91.17-8.09,0-16.19.1-24.28a27.63,27.63,0,0,0,.57-8.17c-.36-2.38-.67-5,.3-7.24a5.41,5.41,0,0,0,.21-3.37c-.8-1.81-.25-3.87-1.06-5.7.32-2.4.82-4.86,0-7.21.13-3.56-.83-7.11,0-10.65"></path><path class="cls-3" d="M551.9,202c1.19-.37,2.93-.78,3.67.55,2,4,3.29,8.74,1.94,13.2a17,17,0,0,1-1.16,7.41c.09.44.15.88.22,1.33l.55.55c.08.78.2,1.56.34,2.35-.61,1.71-.09,3.6-.59,5.36-.67,3.12,0,6.34-.66,9.45a14.81,14.81,0,0,0,.51,2.95c.6,2.59-.78,5.2,0,7.77a3.7,3.7,0,0,0,.08,2.9l-.28.46c-.33,2.56-.85,5.1-.34,7.65-.34,2.76.74,5.51-.25,8.17.69,1.64-.23,3.36.19,5,.18,1.89-.17,3.83.32,5.7-.56,2.65-.21,5.42-.07,8.07-1.12,2.69.38,5.5-.47,8.24,0,4.2-.87,8.41-.06,12.59q0,7.13,0,14.23a15.93,15.93,0,0,0-.09,5.88c-.95,5.22,1.1,10.3.68,15.52-.58,1.95,1,3.89.16,5.84a7.1,7.1,0,0,0-.22,3.11c.08,1.51.68,3,.34,4.54-.7,2.9.41,6-.8,8.83.58,2.77-.1,5.67.54,8.44-.54,3.67.18,7.4.32,11.08-.56,2.37,0,4.86-.84,7.19-.05,3.24,1.12,6.51.34,9.76-.38,3.8.16,7.6.5,11.35-.76,2.28.2,4.59,0,6.9.17,2.87-.78,5.73-.15,8.59.45,3.77-.08,7.55-.19,11.32.09.11.25.34.33.45-.55,1.11-.17,2.37-.41,3.55-.66,2.15.6,4.33,0,6.5-.59,1.75.68,3.42.41,5.18-1.13,6.74-.13,13.66-.91,20.43.52,2.8,1.5,5.62.94,8.48,1,3.86-1.06,7.76,0,11.63a11.57,11.57,0,0,0-.08,4.83c0,3.54-1,7.14-.15,10.68l.28.47c-.73,1.22.1,2.55,0,3.84,0,2.1,0,4.19,0,6.3-.24,3.19-1,6.38-.53,9.59,0,2.57.68,5.25-.29,7.76.2,4.36.79,8.76.4,13.16-.55,2.39.1,4.89-.43,7.3.72,3.2-.73,6.44.16,9.64-.2,3,.8,5.9.07,8.82,0,2.53-.13,5.07.08,7.59.92,3.15-1,6.43-.1,9.52l-.32.46a21.78,21.78,0,0,0,.87,7.95,29.91,29.91,0,0,1-.22,7.2c-.13,3.56.21,7.17-.24,10.69.56,2.08-.12,4.27.46,6.33-.83,4.17.13,8.37-.46,12.55a10.76,10.76,0,0,1-.08,5.14c.06.12.2.35.26.47a12.85,12.85,0,0,1,0,5.24l-.37.52.28.38a7.83,7.83,0,0,0,.08,4,39,39,0,0,0,.35,7.92c-.89,4.06.21,8.16,0,12.26.79,4.56-.17,9.26.64,13.83-.33,2.18-.81,4.37-1.17,6.55.56,2.49-.16,5.09.5,7.57a11.46,11.46,0,0,1-.29,2.24c1.36,3.74.29,7.77.31,11.64-.18,2.61.82,5.22,0,7.82a20.36,20.36,0,0,0,1.08,6.46c-.3,3.8-2.17,7.4-1.4,11.24.69,3.1-.19,6.34.69,9.42.83,2.54.51,5.25.49,7.89-.74,2.39.61,4.73.64,7.15-.17,2.83,1.49,5.39,1.31,8.22,0,1.42-.73,2.87-.12,4.26,1,2.27,0,4.73.35,7.06a12.16,12.16,0,0,1-1.95,4.38c-2.72,1.31-5.88-1.08-6.46-3.78-.87-1.65.46-3.42-.2-5.11.18-6.08.41-12.35-.35-18.45-.53-2.5.66-5,.08-7.46a18.39,18.39,0,0,1,0-5.29c-.83-3,.72-6.13.13-9a3.21,3.21,0,0,1,.21-.3c-.58-1.61.2-3.2.54-4.75.7-1.94-.83-3.77-.6-5.73.83-2.84-.35-5.78.39-8.65.5-1.78-.54-3.55,0-5.3.42-2.13-.73-4.24,0-6.34.42-5.06-.65-10.13.1-15.12-1.21-2.31.1-4.78-.41-7.21-.63-2.93.08-5.88.19-8.81.64-1.9-.45-3.79-.05-5.71a12.45,12.45,0,0,0,.06-5,33.44,33.44,0,0,0-.39-10.61,60,60,0,0,0,0-12.92c0-2.12-.2-4.28.64-6.27a25.16,25.16,0,0,1-.09-7.89,18.09,18.09,0,0,1,.09-6.6c-.09-3.46.25-7-.32-10.38-.27-2.35.64-4.65,0-7-.8-3.17.18-6.41-.15-9.57.39-2.79.06-5.62.18-8.43l-.41-.54c.07-.09.21-.28.29-.37-.67-2.64.55-5.31.32-8,.41-2-.79-3.84-.53-5.83-.42-3.51,1.61-7,.15-10.44-.19-3-.82-6.14.42-9.06a99,99,0,0,1,0-15.78,14.72,14.72,0,0,1-.28-7.19c-.77-4.05.1-8.23-.61-12.28,1-4.81-.59-9.69.32-14.5.47-1.39-.2-2.7-.35-4.06.67-2.94.06-6,.43-9-.54-4.18.44-8.31.15-12.48a8.55,8.55,0,0,1,0-4.32c.45-2.18-1-4.2-.54-6.37a32.94,32.94,0,0,0,.38-4.2,13.56,13.56,0,0,1,.17-4.88c-.28-1.59-1.25-3.08-.91-4.76a29.35,29.35,0,0,0,0-12.55c1-4.46-.41-9.14.58-13.6l-.28-.46c0-1.42-.53-2.8-.33-4.22.57-3.13.39-6.35,1.16-9.45-.4-3.89-1.05-7.76-.84-11.69-.11-.13-.32-.39-.42-.53l.39-.53c1.19-7-1.75-14.14.38-21.07.94-2.11-.92-4.17-.24-6.31.43-1.39.37-2.89.81-4.27l-.31-.45c.22-1.83-.69-3.61,0-5.4.56-2.31-1.11-4.47-.4-6.75a30.94,30.94,0,0,0,.13-4.62c-.08-2.23,1.41-4.37.73-6.61-.21-1.24,0-2.54-.32-3.77-.46-1.59.5-3.17-.06-4.72a12.16,12.16,0,0,1,.57-2.21c-1.41-2.37.29-5-.55-7.5.24-2.67-1.25-5.29-.33-7.92s-1-5-.07-7.49c-.57-5.81-.1-11.6.05-17.38.54-2-.55-4.18,1.17-5.8.14-1.47,1.45-2.84.74-4.3-.74-2.47-.72-5.12-1.85-7.48,0-3.38-1-6.8.17-10.1-.18-2.28-1-4.6-.33-6.89.47-1.68-.48-3.35,0-5,.27-1.73-.69-3.34-.6-5.07.08-3.57-.12-7.14.1-10.7.69-2.4-.32-4.81-.1-7.23.25-3.28-.42-6.5-.31-9.77,0-1.9,1.32-3.48,1.57-5.34a29.38,29.38,0,0,1-1-7.4c.46-2.76-.7-5.51,0-8.27-.59-1.9,0-3.77.48-5.61l.66-.69"></path><path class="cls-3" d="M609.79,202.66c1.08-1.55,3.14-.92,4.73-1,2.77,1.32,2.67,5,1.84,7.53a68.92,68.92,0,0,1-.34,15.46c.75,2.42-.92,4.87-.17,7.3a6,6,0,0,1-.11,2.72,10.33,10.33,0,0,1-1.3,9.12c.21,2.58-.78,5.24.51,7.65,1.17,3.4.12,7,.83,10.46.34,3.28.15,6.61.21,9.91.15,2-1,3.74-.62,5.71a18.38,18.38,0,0,1,.18,5.78c.2,5.44-.9,10.81-.19,16.2a50.8,50.8,0,0,0,.32,8.18c-.2,4.41-1,8.78-.95,13.22-.17,3.65.84,7.32,0,11-.27,3.48.4,7.05-.61,10.46.19,2.4.89,4.82.83,7.25-1.12,3.95,1.21,7.92,0,11.88a23.86,23.86,0,0,1-.64,9.87c1.44,3.48,0,7.37.91,10.95-1.29,3,0,6.29-.85,9.36-.22,2.37.74,4.74-.34,7,1.55,2.29.89,5.24.64,7.81a13.24,13.24,0,0,1-.74,8l.66.6c.9,4.28-.1,8.55.06,12.85a13.4,13.4,0,0,1-1.07,7.9,12,12,0,0,0-3-.41,11.23,11.23,0,0,1-.89-6.32c.65-2.18-.45-4.38,0-6.6.48-1.86.14-3.78.31-5.67.4-2.53,1-5,1.45-7.56-.31-3.4-1.94-6.57-1.9-10-.84-2.05,1-4,.23-6.08-.63-2.47,1-4.88.36-7.35-.32-1.23-.07-2.52-.34-3.75,1-2-.43-4.18.48-6.19-.09-.11-.25-.34-.33-.45a17.82,17.82,0,0,1,.29-4.5c-.2-1.28-.67-2.5-.91-3.76a13.26,13.26,0,0,0,.73-3.94c-.1-1.62.69-3.22.28-4.84,0-2-.9-4-.39-6,0-2.1-.92-4.2-.35-6.28.23-1.77-.3-3.63.39-5.33,1.24-4.6-.64-9.24-.35-13.9,0-2.64-.07-5.28,0-7.91a7.16,7.16,0,0,0,0-3.76c.38-3.86.22-7.8,1.13-11.61-.91-2.92.52-5.91-.27-8.81a13.31,13.31,0,0,1,.17-6.75,54.81,54.81,0,0,1-1.12-12.45c0-1.06.61-2.13.06-3.15,0-.26.1-.53.14-.79.29-4.37.06-8.83,0-13.14-.11-3.36,1.26-6.92-.31-10.12a6.18,6.18,0,0,1-.34-4.11V244a11.18,11.18,0,0,0,.17-2.16l.3-.45c-.7-3.25.39-6.66.43-10a5.4,5.4,0,0,1,.08-2.59l-.2-.35c0-2.13.08-4.26,0-6.38a7.77,7.77,0,0,1,0-4.17c.84-2.46.19-5.13-.83-7.43,0-2.59-.38-5.34.67-7.78"></path><path class="cls-3" d="M669.31,202a5,5,0,0,1,2.64,0c.79,1.61,2.28,3.05,1.94,5,.3,2-1.29,3.94-.41,6a58,58,0,0,0-.54,9.13c.22,1.85-1.34,3.33-1,5.2l.65.59c0,3.3,1.11,6.58.42,9.88.52,1.69-.07,3.38-.38,5-.14,2.76.07,5.52-.08,8.28a4.2,4.2,0,0,0,0,2.8c-1.07,2.82-.28,5.87-.66,8.79-.71,3.25.31,6.52.11,9.79.6,2.38,0,4.87.52,7.26,0,1.57-1.18,3.08-.62,4.66.31,1.37-.45,2.71-.25,4.1-.09,1.21.78,2.33.47,3.53-.68,3.67,1,7.41-.23,11-.32,1.84-1,3.69-.77,5.57,1.15,4.22-.06,8.66,1.15,12.89-.72,4.61.06,9.25-.86,13.84.81,2.92-.52,5.87,0,8.81.3,1.14.11,2.34.45,3.46-.8,2.82.56,5.68-.23,8.49.36,4-.86,8,0,11.93-.38,3.89.59,7.79-.21,11.67-.58,2.15,1,4.15.45,6.3-.89,3.57,0,7.15-.22,10.78l-.41.54c.1.13.3.39.39.53a6.86,6.86,0,0,0,.24,2.3,38.07,38.07,0,0,0-.22,9.54l-.41.52.38.53a47.65,47.65,0,0,1,.22,9.7c.14,5.29-.51,10.62-.75,15.89.24,2.53,1.36,5.09.31,7.56a24.57,24.57,0,0,1-.27,8.63,1.55,1.55,0,0,0,.2,1.2l-.34.47c1.35,2.72.48,5.78-.25,8.53a12.28,12.28,0,0,1,.27,6.93c-.21,1.69,1.05,3.27.51,5a9.1,9.1,0,0,0-.21,5.09c-.28,3.82,1.14,7.63.09,11.37-.21,1.4.68,2.71.52,4.11-.55,2.36-.17,4.81-.28,7.21-.24,4.3,1.08,8.68-.29,12.89a13.86,13.86,0,0,1,0,6,17.09,17.09,0,0,1,0,6.57c-.26,3.56.29,7.17-.35,10.7a18.56,18.56,0,0,0,.16,4.28c.33,1.7-1.36,3.22-.56,4.88-.82,2.06,1.27,4,.58,6.13.49,4.77-.49,9.67.66,14.37a10,10,0,0,0,0,4.39c0,1.77-.79,3.53-.46,5.32.71,2.51-.45,5-.07,7.58a32.72,32.72,0,0,1,.31,6.34l-.33.46c.82,1.64-.1,3.41,0,5.12,0,3.91.75,7.76.66,11.67.71,2.63-.32,5.25,0,7.93l.32.45c-.77,1.33.19,2.77,0,4.17.12,1.94-1.34,3.94-.16,5.76a15.5,15.5,0,0,1-.14,5.26c.68,2.68-.13,5.49.56,8.17,0,.79-.39,1.56-.17,2.38,0,2.71-.58,5.37-.11,8-.77,2.3.47,4.6.28,6.93-1,5.09.58,10.26-.2,15.35a22.44,22.44,0,0,1,.79,5.69c-1.89,7.17.74,14.5-.57,21.72.59,2,0,4-.27,6,.67,2.56-.1,5.25.55,7.81.4,1.95-.7,3.87-.08,5.8.36,1.15-.15,2.31-.22,3.46l-.3.48c1.39,2.08-.22,4.46.62,6.66-.56,2.19.29,4.37,0,6.61.29,3.41-.78,6.78-.14,10.17.38,5.45.86,11,0,16.41.34,4.44.16,9,1.12,13.34a11.81,11.81,0,0,1-.87,4.75,15.13,15.13,0,0,0,.49,6.28,5.16,5.16,0,0,1-3.31,5c-.4,0-.81,0-1.2,0-2.21-1.75-2.73-4.9-2.07-7.52.35-1.91-.65-3.79,0-5.68-.42-1.54-.9-3.18-.32-4.74-.76-1.79.67-3.52.4-5.35a44.51,44.51,0,0,1,.29-9.72,96.76,96.76,0,0,1,.76-17.34,6.06,6.06,0,0,0-.07-3.48c1.13-1.76.06-3.62-.61-5.32a9.25,9.25,0,0,1,.49-4.72c.37-3-.8-5.85-.57-8.81-.26-2.31,1.18-4.35,1-6.65.58-2.36-.08-4.81.52-7.16a12.9,12.9,0,0,1-1.22-4.44c.95-5.11-1-10.3,0-15.41-.57-2.58,0-5.19.2-7.78,1.54-3.62-1.71-7.11-.55-10.75.7-3.47-.39-7,0-10.42-.72-1.37.35-2.81-.11-4.19a6.14,6.14,0,0,1,0-2.56c-.36-1.55.46-3,.19-4.61-.32-1.79-.62-3.72.11-5.45.78-1.42-1-2.5-.74-3.94-.4-3.14,1.1-6.17.5-9.3a22,22,0,0,1,.61-3.43c-.09-2.29-1.13-4.43-1.3-6.65,1.25-3.15-.49-6.43.55-9.59s-.73-6.47-.36-9.75c-.23-1.13.93-2,.55-3.12-.62-2.48.16-5.1-.46-7.56a76.72,76.72,0,0,0-.08-13.89c.21-1.06.92-2.1.45-3.2-.61-2,.57-3.91-.09-5.84,0-3.58-.33-7.15-.59-10.7.82-5.15-.24-10.39.41-15.57.09-3.07-1-6.21-.23-9.28.38-3.39-.54-6.78.27-10.11.37-2.89-.19-5.76-.34-8.64.67-3.55-.83-7-.19-10.55-.11-2.39.24-4.83-.27-7.19-.31-3.4.44-6.75.31-10.16.71-1.71-.56-3.29-.43-5a19.11,19.11,0,0,1,.09-6.66l.29-.46c-.61-2.8,1.46-5.82.42-8.74-2.22-6,.92-12.31-.1-18.42a17.55,17.55,0,0,1,.64-3.21c-1.91-4.46-1.1-9.36-1.28-14.06-.16-1.23.39-2.41.21-3.63,0-2.84.49-5.66.31-8.47.08-2.72.28-5.42.43-8.13l.4-.54-.28-.37c.49-3.09,0-6.27.27-9.38.38-1.88.89-3.74,1.14-5.64-1.12-2.64-2.47-5.55-1.57-8.47.1-2.31-.67-4.63-.13-6.95.26-1.38,1.07-2.7.76-4.15-.75-3.72.08-7.53.27-11.25-.55-2.48.1-5.07-.53-7.55.24-3.06-.84-6.12-.06-9.16-.73-2.2.25-4.4,0-6.63,0-1.08-.75-2-.65-3.11-.11-1.14.59-2.24.2-3.37-.54-1.53.26-3,.14-4.6l.31-.45c-.51-1-.21-2.16-.41-3.23-.78-2.88.93-5.75.28-8.66.4-3.49.82-7.06,0-10.53-.51-1.57.34-3.12.11-4.72-.21-3.37.4-6.85-.32-10.15.08-.11.23-.33.3-.45,0-1.85.7-3.7.15-5.54-.62-2.48.53-5-.12-7.42a180.18,180.18,0,0,1,.51-19.17c-.45-3.48-.81-7-1.44-10.43.95-3.44,1.85-7.2.75-10.72-.62-4.88.58-10-.78-14.74-.24-1.84.72-3.65.14-5.47-.7-3.1.53-6.09.5-9.16a9.54,9.54,0,0,1,2.35-2.35"></path><path class="cls-3" d="M436.54,201.89c1.14.34,2.6.15,3.48,1.07,1.56,3,.46,6.51-.17,9.63-.16,3.83.23,7.69-.54,11.47-.52,2.31.66,4.56.46,6.87-.52,3.34-1.32,6.67-.36,10-.21,3.44-1.05,6.94-.63,10.36-.77,3,.13,5.91.71,8.8-.48,3.13-1.12,6.37-.07,9.47-.08,2.82-1,5.68-.27,8.49-.87,2.39.55,4.84-.19,7.23a16.9,16.9,0,0,0,.17,5.31c.2,3-.21,6.13.31,9.14-1.21,2.8-.1,5.93-.8,8.83-.42,2.13.66,4.17.55,6.3s.11,4.3-.13,6.44a75.13,75.13,0,0,1,.1,9.95c-.85,3.56.62,7.18-.16,10.76-.38,2.45.17,5-.44,7.42.1,4.41.86,8.85.29,13.25-.17,4.22.56,8.37.33,12.59a31.25,31.25,0,0,0,0,9.41c.39,2.28-1.28,4.34-.8,6.61.88,2.22-.32,4.59.47,6.88-.61,1.41.33,3,0,4.46.31,3.39-.7,6.75,0,10.09a13.4,13.4,0,0,0-.19,4.85,10.61,10.61,0,0,0,.36,5.25c.84,2.72-1.06,5.39-.21,8.08.23,2.69-.65,5.35-.18,8.06,0,1.14.33,2.25.23,3.4l.31.46a2.81,2.81,0,0,0-.05,2.24c.27,4.93-.31,9.93.33,14.83-.63,2.47.06,5.06-.6,7.53.37,3.85,1.27,7.86,0,11.63.8,4.21-.1,8.43,0,12.66-.92,3.14.89,6.21.85,9.34-.54,1.9-.67,3.9-1.23,5.8s.38,3.55.11,5.35c.08.12.24.34.31.46-.84,2.28,0,4.72,0,7-.53,1.74,0,3.59-.51,5.35,0,1,.69,1.79.86,2.73,0,2.67-1.14,5.38-.41,8,2.12,3.76-1.13,8,.66,11.84-.49,3.35.48,6.88.21,10.26a12.9,12.9,0,0,0,.81,2.72,3.37,3.37,0,0,1-.21.31c.24,2,.57,4.31-.37,6.22,0,2.23-.54,4.41-.37,6.65a2.93,2.93,0,0,1-1,2.11c.36,3.09,1.06,6.11,1.52,9.18a18.17,18.17,0,0,0-.23,5.65c.25,4-1.24,8,0,11.92.19,2.16.46,4.37-.59,6.38.42.81.88,1.61,1.22,2.46.32,1.32-.71,2.47-.6,3.78,0,2,0,4,0,6.08-.1.14-.31.4-.42.54l.42.53c.2,3.32-.42,6.57-.64,9.85a6.68,6.68,0,0,1-1.61,4.68c1.28,2.17.56,4.88.34,7.26-.13,1.17.65,2.33.09,3.47.23,1.14.39,2.31.52,3.47-.87,3,.68,6.07-.24,9.08-.13,4.21.17,8.46-.59,12.62.65,3.14-.15,6.4.85,9.41.19,1.52-.76,2.9-.64,4.44,0,1.91.47,3.78.37,5.7.62,2.65,1.05,5.53,0,8.13-.5,4.2,1.32,8.66-1,12.58.7,2,1.51,4.34.28,6.36l.29.48c.38,3.22,1,6.49.53,9.75-.81,3,.91,5.91.36,8.91-.65,2.41.32,4.83.14,7.27.95,3.83-.71,7.73.22,11.56a10.47,10.47,0,0,1-.5,4.47q.31,2.64.83,5.28c.3,1.63-.68,3.24-.11,4.86.88,3.13-1.52,6.32,0,9.34,1.26,3.35.19,7,1.29,10.34-.28,2.53-1.53,5.73-4.4,6.08-3.23-1.9-2-6.24-2.9-9.33a27.25,27.25,0,0,0,.22-5.48,19.9,19.9,0,0,0-.08-9.55l.28-.46c.6-3.27-.47-6.6.24-9.91-.36-1.79-.07-3.64-.35-5.45.29-1.82.47-3.66.77-5.48,0-1.28-.54-2.54-.28-3.84,1.22-4.93.35-10.2,1.83-15.05-1.61-3.68.28-7.71-.45-11.51.17-1.11.82-2.31.26-3.39-1.72-2.51.28-5.54-.56-8.28-.61-1.62.68-3.3-.14-4.88-1.07-2.63.47-5.51-.6-8.1.46-1.48,0-3.1.75-4.52.07-1.33-.57-2.79.05-4.1a7.12,7.12,0,0,0,.3-4c-.48-1.75,0-3.6-.44-5.34-.65-2.37,1.5-4.59.46-6.93s-.87-5-.9-7.59c-.64-2.34-1-4.93-.1-7.25.4-1.07-.45-2.16-.07-3.25-.34-4.92,1.53-9.72,1.46-14.64a3.16,3.16,0,0,1,1.05-2.56l-.78-.74c.29-2.34,1-5.13-.93-7a12.83,12.83,0,0,1,.6-2.88c-.57-1.67,0-3.47-.43-5.15-.8-3.1,1.79-5.91,1-9-.51-1.35.19-2.67.47-4,.72-2.52-.27-5.26.57-7.75l-.34-.46,0-1.11c-.08-.12-.25-.35-.34-.46.95-4.49-.29-9.09.1-13.62,1.19-5-1.61-10.21.51-15.1-1.56-3.12.27-6.57-.5-9.81a12.71,12.71,0,0,0-1-7.16,25.74,25.74,0,0,1,.85-8.52c-1.15-2.38-.18-5.1-1-7.58s.43-5.07,1.69-7.23c-.31-.48-.61-1-.94-1.41-.07-2.26-1.24-4.23-1.62-6.41.09-1.06.59-2.16,0-3.18a6.37,6.37,0,0,0,.6-2.91l.3-.45c-.73-1.89.26-3.92.12-5.89-.49-3.23.37-6.41.21-9.64,0-2.24,1.75-4.63.49-6.75-1.46-1.84-1.07-4.35-2.1-6.37-1.49-3.31-.77-7-.9-10.47.66-2.7-.49-5.41-.35-8.15-.14-1.62,1-3.1.56-4.72a27.45,27.45,0,0,1-.23-10.06,9.14,9.14,0,0,1-.14-4.19c.38-2.45-.12-5,.35-7.4-.61-2.59.17-5.19.48-7.76l-.7-.6c.12-2.89-.11-5.85-.07-8.68-.84-4.16.86-8.44-.23-12.59a9.35,9.35,0,0,1-.2-4.24c-.56-2,.51-3.92,0-5.84-.06-2.73,1-5.44.81-8.17a3.36,3.36,0,0,1,.39-4.31c.12-1.37-.55-2.59-.91-3.86-.29-1.53.45-3,.83-4.41-.17-3-.71-6.11-.88-9.16.81-3-.34-6.21.89-9.11-.7-4.56.18-9.27-.55-13.82,1-2.84-1-5.61-.25-8.49.63-2-.9-3.95-.32-6,.82-4.4.42-8.9,1-13.31.43-1.45-.45-2.87-.18-4.34.83-4.18,0-8.43-.29-12.59,1.05-3.29-.7-6.48-.65-9.75a13.7,13.7,0,0,0,0-5.91c-.27-1.32.95-2.48.52-3.81-.89-2.86-.31-5.93.31-8.76-.27-1.47-.82-2.95-.46-4.45.74-3.78-.24-7.6-.37-11.37.84-2.06-.53-4.19.2-6.24a15.36,15.36,0,0,1,.37-7.56c-.38-1.93-1.07-4-.26-5.92.7-1.59-.19-3.28-.15-4.93-.2-4.32-1-8.73-.25-13.06-.59-2.06.07-4.24-.5-6.29.59-1.19-.34-2.41,0-3.63a9.54,9.54,0,0,1,1.73-6.95c-.19-1.6,1.12-2.63,2.13-3.63"></path><path class="cls-3" d="M490.23,203.54a4.57,4.57,0,0,1,2.22-1.15c1.08.29,2.46-.07,3.25.89.93,1.41,0,3.23.73,4.72l-.27.45c0,2-1.59,3.74-.71,5.72-.29,2.93.4,5.91-.28,8.84.51,2.49.07,5-.13,7.46-.66,2.07.86,4.12.28,6.18a7,7,0,0,0,.09,3.36c.32,1.36-.61,2.66-.37,4l-.26.36.28.4c-.14,3.81-.13,7.77-.51,11.62,1.37,2.67.05,5.64,0,8.45-.06,1.27.6,2.5.25,3.77-.78,2.6.66,5.25-.13,7.87,0,1.67-.7,3.33-.15,5,.38,1.71-.42,3.39-.18,5.08,1.36,6.06-1.49,12.2.15,18.25.39,1.42-.8,2.66-.57,4.09.2,1.77.35,3.55.64,5.31.19,1.95-1.1,3.63-1.11,5.57,1.37,3.78.61,7.84.8,11.77-.23,1.86.61,3.65.2,5.5.54,1.69-.82,3.19-.52,4.9a13.38,13.38,0,0,1,.06,5.6c-.11,3.06-.05,6.13,0,9.2a10.46,10.46,0,0,1,.07,4.69,31.16,31.16,0,0,0,.71,9.28,16.74,16.74,0,0,0-.07,8c.66,2.08-.8,4.21-.2,6.3.38,3.63-.29,7.35.38,11a181,181,0,0,0-.55,18.65c.64,1.79-.27,3.57,0,5.4l-.41.53.41.54c.27,2.56-.82,5.11,0,7.64a7.64,7.64,0,0,0,0,3.74c.08,3.69.08,7.4,0,11.09-.79,3.12.31,6.26.05,9.41,1,5.8-.58,11.64.15,17.47a43.85,43.85,0,0,0-1.13,6.94l-.67.63c.43,1.57,1.43,3.15.74,4.8a12.39,12.39,0,0,1,0,4.74c.57,3.45.09,7,.64,10.43-.67,2.38-.1,4.8.1,7.2.59,2.52-.42,5.06-.39,7.59a32.48,32.48,0,0,1,.64,3.52l.35.54-.37.52a16.3,16.3,0,0,1-.15,1.84c1.12,3.89-.79,7.85.12,11.75a48.76,48.76,0,0,0,.34,5.79,5.33,5.33,0,0,0-1.4,3.23c-1.05-.4-.77-1.5-.89-2.38-.74-1.62-.74-3.44-1.35-5.1-1.1-3,.16-6.4-.88-9.46-.42-1.27,0-2.62-.35-3.9-.59-2,.51-4,.46-6.07,0-2.43,0-4.85,0-7.28-.32-1.35-1-2.79-.38-4.16.71-1.21.36-2.64.17-3.93a20.37,20.37,0,0,1,.79-3.19c.41-3.62-.58-7.42.77-10.9.61-1.67-.26-3.61.86-5.13-.22-.62-.37-1.26-.56-1.88,1.09-2.65-.89-5-1.1-7.6-.35-2.37-2-4.45-1.42-6.94.65-2.12-.09-4.26-.17-6.39-.05-.36-.12-.71-.18-1.06a21.88,21.88,0,0,0,.52-2.89c.58-3-1-6-.4-9,.32-1-.24-2-.16-3l-.37-.53.38-.52c.28-4.22.1-8.47.93-12.7-.15-1.18-1.13-2.21-.91-3.48a9.29,9.29,0,0,0,.17-4c-.81-3.87,1-7.7.34-11.58,0-5.2-.74-10.35-.42-15.58.75-2.29-.5-4.62.22-6.9a18.5,18.5,0,0,1-.17-5.89,9.42,9.42,0,0,0,.58-6.08c-.36-3.34.27-6.75-.36-10.07a10.45,10.45,0,0,0,0-4.72c-.51-2.36,1-4.67.37-7-.2-2-.8-4.12-.2-6.15.36-5.14-1.63-10.42,0-15.46-.88-2.79.28-5.51.53-8.27.68-3.12-1.18-6.22-.21-9.3,0-1.6-.41-3.19-.33-4.81-.75-2.24.54-4.51-.09-6.78-.6-1.79.45-3.57.27-5.37l.26-.39c-.1-.13-.28-.39-.37-.52-.59-3,.08-6,.3-8.93a21.67,21.67,0,0,1-.34-4.48l.33-.46c-.89-4.11.23-8.48-.6-12.64.13-3,1-6.09.36-9.13,1.48-3.77-.75-7.65,0-11.51,0-3.15-.74-6.27-.31-9.42a27.58,27.58,0,0,1,.21-7.09c.31-1.35-1-2.43-.56-3.77s.08-2.68.37-4c.73-2.61-1.17-5.07-.73-7.7a16.67,16.67,0,0,0,.16-5.46,13.37,13.37,0,0,1,.49-3.45,4,4,0,0,0,1-2"></path><path class="cls-3" d="M208.93,207.28c.54-1.59,1.87-3.34,3.73-3.16,2.31-.14,3.55,2.31,4.37,4.1-.11,4.6.55,9.32-.58,13.83-.31,3.2.76,6.38.14,9.57a16.16,16.16,0,0,0,.17,7.22l-.34.46c-.28,1.67.71,3.36-.08,4.94-.79,2.54.48,5.16-.2,7.69.25,2.32-.7,4.61-.19,6.9,1.09,2.6.15,5.45.32,8.11-1,4.51.37,9.09-.47,13.66.77,3.25-.07,6.52,0,9.79-.74,2.39.29,4.85-.33,7.24a13.79,13.79,0,0,0,.53,7c-.36,1.72.1,3.51-.37,5.22s.48,3.18-.13,4.74c-.77,2.61.26,5.27-.28,7.88,1,4.14-.67,8.37.27,12.51.31,1.82-.58,3.6-.22,5.43a8.29,8.29,0,0,1,.05,4c-.29,2.07.16,4.19-.35,6.25,0,1.67-.69,3.31-.24,5a101.79,101.79,0,0,1,.47,14.62c-1.8,4.49-.3,9.44-1.24,14.08.56,4.17.45,8.42,1.23,12.58.11,1.08-.51,2.12-.25,3.22.95,3.25-1.15,6.4-.67,9.71a51.88,51.88,0,0,1,.32,8.18c.28,3.06-1.34,6-.31,9.08-.38,2.4-.26,4.85-.41,7.27-.64,1.62.61,3.29-.12,4.9-.91,2.05-.16,4.29.18,6.39.24,1.2-.7,2.43,0,3.57-.07.12-.21.35-.27.47.06,1.4-1.05,2.65-.52,4.06-.85,2.3-.33,4.72.12,7-.86,4,.62,8.09-.1,12.14,1,2.88-.18,5.83-.8,8.62.54,1.88,0,3.91.8,5.72.76,2.3-1,4.32-1,6.57,1.52,4.84.8,9.84.82,14.81-1,3.25.94,6.77-.92,9.76l.31.49a28.4,28.4,0,0,1,0,9.2c-.22,1.31.75,2.64,0,3.87l.33.46a28.62,28.62,0,0,1-.32,6.07,7.23,7.23,0,0,1,0,3.75,18.62,18.62,0,0,1,0,6.94c0,1.3.82,2.57.43,3.87-.7,3.63.78,7.28-.1,10.88a6.85,6.85,0,0,0,.11,2.43c-.9,2,0,4-.45,6.07a15.46,15.46,0,0,0,.25,4.4c.36,1.55-.53,3.06-.15,4.61-.1,5.08,1,10.23-.44,15.23a41.48,41.48,0,0,1,.37,12.58,7.72,7.72,0,0,1,.34,5.06c.72,1.6-.36,3.25,0,4.88a4.27,4.27,0,0,0,.12,2.35,1.7,1.7,0,0,0,.09,1.66c-.09.11-.26.34-.34.46a12.83,12.83,0,0,0,.3,3.55,13.66,13.66,0,0,0-.46,6.19c.48,2.2-.16,4.51.4,6.7.37,1.22-.48,2.41-.09,3.63-.34,2.34-.6,4.69-1,7a11.91,11.91,0,0,1,.29,6c-.08,2.64-.11,5.29,0,7.92,1.75,3.8-.82,8.11.81,11.94a21.26,21.26,0,0,1-.25,5.69,19.48,19.48,0,0,1,0,7.22c.77,1.78-.66,3.36-.46,5.19,0,4,1.59,7.94.32,11.9-.58,1.16.93,2.15.36,3.38-.88,2.12-.29,4.42-.85,6.59a21.3,21.3,0,0,1,.81,10.69c-.66,2.31.64,4.65-.1,7,.36,1.14-.27,2.27.12,3.4.57,2-1.14,3.9-.33,5.89a13.79,13.79,0,0,1,.42,4.84c0,1.17-1,2.26-.39,3.43a10.33,10.33,0,0,0-.25,3.24c-.61.71-1.29,1.65-.8,2.63a10.08,10.08,0,0,1,.8,5.15c-.13,1.15.77,2.14.53,3.3.26,3.33-.29,6.64.32,10-.48,3.61.65,7.15.9,10.73.39,2.61,1.2,5.35.41,7.94a26.61,26.61,0,0,1-2.87,3.56c-1.93.3-4,1.32-5.79,0a7.73,7.73,0,0,0-1.61-2.59c-.07-.44-.15-.88-.26-1.3a5.31,5.31,0,0,1,1.13-2.23c0-.31,0-.62,0-.92l.6-.5c-1.1-1.89-.81-4.14-1-6.22-.51-1.47.43-3,.06-4.45-.48-1.9-.22-3.87-.27-5.8l-.63-.58c-.28-3.7.8-7.28,1.5-10.86-.58-1.64.08-3.42-.48-5.06a4.15,4.15,0,0,0-.11-3.08c-1-2.1,1-4.22.12-6.35,0-1.71-.7-4.34,1.21-5.24-.28-2.65-1.95-5.22-1-7.94,1.25-4.86-.7-9.7-.24-14.59l-.33-.46c.42-2.78.08-5.87,1.12-8.63.54-1.23-.38-2.34-.61-3.5-.49-1.43,0-2.9.23-4.32.65-3.17-.16-6.35-.12-9.53l.42-.53-.29-.38a108.24,108.24,0,0,0,.08-13,29.63,29.63,0,0,1,.39-3.89c.39-1.89-.66-3.74-.13-5.61.33-.92-.14-1.84-.3-2.74.43-1.2-.22-2.34-.56-3.46l.72-.63c-.24-2.2.55-4.33.29-6.52-.1-.94-.8-1.82-.53-2.78.55-2.1.18-4.46,1.51-6.29-1.43-2.38-.1-5.31-.86-7.88-.29-3.45.1-6.93-.19-10.38a6.31,6.31,0,0,1,1.4-5.63c-2.05-2.79-.36-6.35-1-9.44.16-2.73-1.49-5.49,0-8.12-1.41-3.53.25-7.23-.29-10.83,1-2.91-.86-6,.54-8.8-.66-2.41-1.61-5-.66-7.5a18.33,18.33,0,0,1,.69-5.42c.78-1.53-.42-3.15.24-4.73-.34-1.72-.7-3.43,0-5.14-2.13-4.65.86-9.55-.19-14.29.18-4.86-1.16-9.7-.24-14.53.76-3.44-.27-6.88-.07-10.34a57.78,57.78,0,0,1,.3-8.22c-1-2.74-.48-5.66-.07-8.46-.58-1.21.26-2.49-.18-3.73,0-2.42-.48-5,.59-7.25a4.68,4.68,0,0,1,.23-3.47c0-1.9.36-3.92-.24-5.75L207,488a13.36,13.36,0,0,1,.56-2.8c-1.48-2.82-.74-6.16,0-9.09-1.35-4-.32-8.31-.26-12.43a10.85,10.85,0,0,1,.33-7.59,9.24,9.24,0,0,1-.13-4c.63-2-1-3.89-.29-5.86,1.07-3.28-.23-6.67.49-10,.51-2-.52-4.07.26-6a6.46,6.46,0,0,0,.23-3.54c.42-4.7-1.07-9.56.83-14.09-1.72-1.18-1.68-3.59-.77-5.26.29-2.38-.39-4.72-.37-7.1.25-4.21.73-8.41,0-12.6a48.56,48.56,0,0,1,.93-5c-1.32-4.9.58-9.76.12-14.7-.23-1.44-.85-2.86-.82-4.33.8-2.62-.78-5.34.4-7.92.37-5.8,1-11.58.28-17.37-.43-1.6.56-3.18.06-4.79,0-4.17,1.1-8.32.42-12.45,0-1.72,1.83-3.47.08-4.88a5.68,5.68,0,0,1,.11-4c.07-2.7-1-5.59.4-8.13-.11-2.46-.82-5.19.31-7.54a6.35,6.35,0,0,0-.89-4.41c-1.17-2,1.19-4.06,0-6.05.08-.11.22-.34.29-.46a10.62,10.62,0,0,0-.29-5.13,7.09,7.09,0,0,0,.37-4.67,76.62,76.62,0,0,1,.08-8.44c.85-2.76-1-5.43-.31-8.19.68-3.38.28-6.86.73-10.24-2-1.81.68-3.76.09-5.89.4-2.48-1.49-4.75-.69-7.2.6-3.6-1-7.28.37-10.74-.65-1.73-.65-3.6-1.19-5.37.14-1,.47-2-.08-2.89l.39-.53a30.72,30.72,0,0,1-1-3.14c.14-2.06,1-3.93.92-6"></path><path class="cls-3" d="M385.11,205.15a6.55,6.55,0,0,0,1.63-.38l.61.47a12,12,0,0,1-1.21,3.13c-1,1.7-1,3.86-2.28,5.42-.24,2.65-.86,5.32-.37,8-.12,1.81.32,3.72-.31,5.45.09.13.29.39.39.52a13.88,13.88,0,0,0-.93,6c.74,2.18-.42,4.4.21,6.57.28,2.16-.4,4.26-.3,6.42l-.32.45c1,2.48-.35,5.14.32,7.63-1.16,4.78.35,9.66-.64,14.47.4,2.54,0,5,.06,7.6.57,1.56-.31,3.12,0,4.72.57,2.38-.18,4.81-.32,7.21a19.37,19.37,0,0,1,0,7.24,5,5,0,0,1,.36,3.75c-.44,1.38.45,2.74,0,4.1-.33,2.49.23,5-.35,7.5-.19,2.74.11,5.49-.15,8.22-.91,3.26,1,6.55.18,9.79.39,3.89-.63,7.95.19,11.88.36,1.62-.82,3.17-.37,4.76.46,1.9-.59,3.77-.13,5.66s.12,3.76,0,5.57c1.08,1.83-.13,3.83.45,5.72.32,1.81-.43,3.57-.28,5.39-.18,2.12.9,4.32,0,6.38l.41.54-.43.54a19.78,19.78,0,0,0,.15,2.77c-.54,3.21.6,6.4.43,9.59a15.45,15.45,0,0,0-.05,8c.49,4.81-.24,9.61-.24,14.42-.8,3.53.23,7.09.06,10.65.16,2.22-.68,4.39-.23,6.61a14.58,14.58,0,0,1-.29,6.4c.18,4.34.72,8.9-.7,13.12a10,10,0,0,1,.62,6.25c0,2.34,1,4.69.42,7-1.2,4.06.44,8.22-.26,12.34.42,1.54-.32,3-.2,4.59.52,3.06,1.29,6.19.81,9.3-.62,2,.56,4,0,6.08-.66,2.49.2,5.05-.13,7.52.79,2.09-.58,4.24.14,6.32-.75,3.94-.52,8-.54,12,.82,4.29-.48,8.6.62,12.86-.63,3,.3,6.07,0,9.15-.8,5.44.27,11.07-.95,16.44l.32.46a181.08,181.08,0,0,0,.17,18.49c-.49,4.31,1.1,8.69.16,13-.18,1.61.3,3.31-.34,4.84l.33.46c-.08,3.49.1,7-.08,10.48-1,2.39-.4,5-.56,7.55-.72,3.55.81,7.12.27,10.73-.73,3.12.18,6.3.33,9.42-.59,2.15-.07,4.4-.38,6.58a5.4,5.4,0,0,0,0,2.93c.58,2.1-.67,4.2,0,6.29.57,1.65-.47,3.31,0,4.94.22,1.59,0,3.2.11,4.81-.09.11-.25.34-.33.45.71,1.2-.13,2.53.2,3.8-.63,3.3.38,6.59-.12,9.81a21.41,21.41,0,0,1-.32,8.77,17.56,17.56,0,0,1,.24,7.9c.25,6-1,12,.23,17.94-.36,1.7-.21,3.48-.69,5.18.23,1.24.07,2.53.26,3.8-.13,2.76-.43,5.62.44,8.3.42,2.13-.55,4.2-.57,6.32s.69,4.38.24,6.6c-.77,3.55.33,7.14,0,10.7-.68,2.1.22,4.22.05,6.34-.83,3.63.32,7.29,0,11,.27,2.09-.67,4.13-.18,6.2.8,4.72-.94,9.86,1.4,14.28-.7,3.91,1.26,7.94.3,11.83l-1,1a5.54,5.54,0,0,1-3.89,0L376,796.44c-.22-.92-.44-1.85-.59-2.78.5-2.75.14-5.56,0-8.3-.24-2.48,0-5-.12-7.47l.42-.54c-.11-.13-.31-.41-.42-.54a21,21,0,0,0,.64-6.71,17.6,17.6,0,0,0,.05-6.59c.78-3.63-.52-7.55,1.22-11a12.28,12.28,0,0,1-.68-4.77c-.67-2,.56-4-.18-5.94-.63-1.64.93-3.12.32-4.72-.35-2.7.24-5.47-.36-8.14-.18-2.26.11-4.54-.17-6.79-.39-2.56.59-5,.65-7.57a22.42,22.42,0,0,0-.22-6.44c-.22-1.27-.62-2.65,0-3.86l-.36-.48a9.3,9.3,0,0,0,.08-2l.27-.47a2.39,2.39,0,0,1,0-2.36l-.32-.45c0-2.59-.73-5.17-.14-7.74s-.36-5.54.74-8.13-1-5.22,0-7.81c-1-4.46-.47-9-.62-13.57-.72-2.81.64-5.61.33-8.46.55-3.85.23-7.76.32-11.64-.08-1.57.2-3.19-.24-4.72.56-2.7,0-5.49.28-8.22.7-2.61-.35-5.22-.06-7.86-1.05-4.07.78-8.29-.3-12.32.08-.12.25-.35.34-.46.17-2-.75-3.9-.16-5.84.41-1.24-.14-2.46-.41-3.66a12.5,12.5,0,0,1,1.12-6.94c.24-2.62-.72-5.22-.8-7.83.51-2.08,0-4.23.32-6.33a11.66,11.66,0,0,0,0-5c-.19-4.62.11-9.27-.15-13.89-.78-2.63.53-5.22.43-7.86-.67-6.05-.18-12.17-.34-18.25-.22-1.45.92-2.69.6-4.13a47.22,47.22,0,0,1-.37-12.22c.1-4.69.13-9.47.07-14.2-.69-3.08.1-6.29-.59-9.37-.46-2.2,1-4.17.6-6.36a17.07,17.07,0,0,1,.55-9.58,23.48,23.48,0,0,1-1.41-3.89c-.19-3.57-.64-7.14-.3-10.72a16.39,16.39,0,0,0,.56-3.8c0-1.74,1.39-3.24.86-5a5.43,5.43,0,0,1-.45-3.29,15.63,15.63,0,0,1,0-4.1c-.59-3.92.82-7.85-.06-11.75-.27-4.31.3-8.68-.34-12.94.75-1.92-.48-3.87.15-5.81-.29-2.47.56-5-.05-7.5-.4-1.14.35-2.25.19-3.4-.67-2.47.75-5.14-.64-7.5.71-2-.33-4,.31-6-.2-2.53.35-5.12.09-7.58a26.25,26.25,0,0,0,0-7.51c.84-3.36-.7-6.76.13-10.11.34-2.7-.24-5.46.36-8.13.24-2.62-.26-5.3.32-7.88-.9-1.24-.27-2.63-.24-4,.41-.41.81-.81,1.23-1.21,0-.19,0-.57,0-.76l-.94-.46c-.59-1.83-.11-3.86-1.22-5.55-.19-2.9.28-5.71-.08-8.59l.42-.54c-.1-.14-.32-.41-.43-.54a8.78,8.78,0,0,1,.26-2.61c-.41-3,1.08-6.06.65-9.12-.5-1.55-1.19-3.1-.84-4.76.59-2.15-.05-4.41.56-6.56a13.71,13.71,0,0,1,.67-7.86c-.68-1.68.36-3.39-.25-5.07-.14-1.11.62-2.09.81-3.15a13.62,13.62,0,0,1,0-5.65,26,26,0,0,1-.87-10.45l-.41-.54.38-.53c.65-2.22-.16-4.35-.19-6.55-.34-6,.5-11.89-.64-17.82.25-2.9.51-5.86.78-8.77-1.21-3,.18-6.09,0-9.12-.73-2.9-.33-5.81-.4-8.68a9.36,9.36,0,0,1,2.14-8.53c1.64-.87,2.34-2.76,4.05-3.5.78-1,1.37-2.17,2.2-3.14"></path><path class="cls-3" d="M267.44,205.76a5.18,5.18,0,0,1,3,0c1.44,1.63,2.74,4,2,6.21-.3,2.53.47,5.22-.68,7.6-1.38,3.69.66,7.61-.55,11.31-.51,2.52.75,5,0,7.52-.69,2.7-.19,5.49-.43,8.22-1,1.84-.42,4-.58,6-.25,2.17.69,4.17.87,6.3-.54,1.26,0,2.58.12,3.86l.27.47c-1.43,4.63.62,9.4-.45,14.06.77,2-.88,3.88-.22,5.83a7.83,7.83,0,0,0,0,4.05c.2,4.33-.2,8.62.05,12.94-.07,2.26.26,4.58-.5,6.76,1.32,2.65-1.1,5.13-.27,7.81.44,1.91-.27,4,.48,5.82a9.14,9.14,0,0,1,0,4.73c-.18,2.64.11,5.3-.13,7.94-.86,2.45-.48,5.07-.54,7.62l-.37.48a10.32,10.32,0,0,1,.64,1.29c.23,4.31-.3,8.67.35,12.94-.49,2.57-1,5.21-.33,7.81-.13,3.47.48,7.05-.61,10.41a9.77,9.77,0,0,0,.81,2.31c.78,2.79-1.05,5.58-.23,8.35a16.18,16.18,0,0,1-.22,4.76,10.92,10.92,0,0,1,0,5c-.19,3.05.12,6.12-.14,9.17-.6,1.67.25,3.34.1,5-.07,2.25.12,4.51-.12,6.76-.09,3.29.47,6.71-.83,9.91a47.29,47.29,0,0,1,.31,13.85c-.13,1.91.39,4-.53,5.73a4.51,4.51,0,0,0,.08,4.12c.64,5.51-.65,11.06.4,16.53.19,2.58-.13,5.18.17,7.76a52.42,52.42,0,0,0-.1,11.81,10.65,10.65,0,0,0,0,5,8,8,0,0,0,.32,5.14l-.41.55.41.53c.27,3.37-.45,6.68-.53,10a52.05,52.05,0,0,0-.09,5.86c.73,3.5-.14,7.13.59,10.63.37,3.08-.65,6.13,0,9.16-.63,2.9,0,5.91-.6,8.81a20.7,20.7,0,0,1,.12,8.37,17.43,17.43,0,0,1,.17,7.64c-.11,3.36.13,6.74-.11,10.09-.57,1.62.46,3.23,0,4.87a62.12,62.12,0,0,1-.54,6.78c-.15,1.62,1,3.1.56,4.72-.55,1.85.13,3.84-.47,5.68,1.17,3-.4,6.32.46,9.48a12.22,12.22,0,0,0,.05,4.93c.08,2.84.11,5.7,0,8.54-1,2-.43,4.22-.55,6.32.63,2.56,0,5.23.56,7.79a13,13,0,0,1-.21,4.13c.47,2.35-.84,4.7-.25,7.07a124.33,124.33,0,0,0,.45,15.55c-1.38,3.14.38,6.82-1.48,9.82.55,1.9,1,3.82,1.38,5.77a27.27,27.27,0,0,0-.15,4.43l.58.58c.91,2.48-.68,4.81-1.1,7.21-.55,1.82,1.3,3.4.6,5.24,1.7,4.66-2,9.49-.14,14.16-.19,3-1.18,6.2,0,9.13.39,1.71-.33,3.38-.24,5.08.55,2.24-.15,4.52-.14,6.8.15,3.92-.35,7.8.4,11.73-.63,1.53.3,3.11-.32,4.61-1,4.11.19,8.25.06,12.4.09,1.49,1.09,3,.34,4.44-1.37,3.51.64,7.15-.21,10.73a3.19,3.19,0,0,0,.11,2.11c-1.91,5.66,2.68,11.55,0,17.13a25.66,25.66,0,0,0,1,8.31,20.25,20.25,0,0,0,.34,4.11c-.68,1.71-2.12,3.67-4.17,3.5l-.47.29a7,7,0,0,0-3-.32,7.78,7.78,0,0,0-1.42-1.09,3,3,0,0,1-.23-2.27,30.67,30.67,0,0,0-.1-14.87c1-3.38.23-7.07,1.55-10.35a5.25,5.25,0,0,0-.65-2.62L262,768c.58-3.26-.11-6.72.94-9.83-1.87-3-.63-6.59,0-9.77-.66-2.42,0-4.91.68-7.24-.79-2.52-1.72-5.17-1.12-7.84.42-1.37.46-2.83,1-4.16.65-2.45-1.53-4.76-.57-7.18-.94-4,.76-8-.18-12,2-4-.29-8.36.36-12.56a10.64,10.64,0,0,0,0-4.46c.43-3.42.11-6.89.21-10.34a12.74,12.74,0,0,1-.11-5.07,9.33,9.33,0,0,1,0-4,27.84,27.84,0,0,0-.72-9.92l0-.28c-.15-2.53.53-5.16-.09-7.71,1.06-2.87-.45-6,.52-8.89,1-2.15-.56-4.44.21-6.64.31-3.1.05-6.23.14-9.34-.24-3.54-1.37-7.24-.07-10.69.16-1.21,0-2.43.18-3.62a11.2,11.2,0,0,1,.1-4c-.68-3.21.74-6.48-.18-9.69.4-2-.18-3.92.43-5.9-.27-4.54,0-9.16-.46-13.71-.11-.13-.31-.4-.41-.53l.43-.54c0-.48,0-1,0-1.44l.43-.53-.41-.54a102.73,102.73,0,0,0-.24-13.59,19.46,19.46,0,0,0,.47-10.1c-1-2.25.15-4.64-.24-7l.33-.46a14.54,14.54,0,0,1,.23-7.32c.3-2.3-.21-4.66.3-6.93.44-3.17-.32-6.32-.53-9.47.56-3.12.59-6.3.94-9.44-.54-2.36-.24-4.8-.3-7.2-.77-5.73.18-11.59-.95-17.3.66-4.12,2.14-8.46.71-12.58,0-1.71-.74-3.43-.22-5.13.49-1.34-.47-2.66-.09-4,.58-2.37-.13-4.86.44-7.23a11.05,11.05,0,0,0-.37-4.85c.4-2.09-.1-4.23.33-6.32-.16-3.49-.61-7,.09-10.5.26-1.24-.2-2.44-.17-3.67a18.18,18.18,0,0,1,.17-5.46c.22-1.51-.31-3.17.53-4.55-.18-1.91-.79-3.85-.34-5.77.52-1.61-.44-3.21-.13-4.85.57-2.48.16-5,.35-7.56.36-2.16,1-4.41.27-6.56-.73-1.74.5-3.58-.22-5.35-.11-2.62-.44-5.36.54-7.86-.23-1.7-1-3.4-.46-5.14.56-1.55-.48-3.1,0-4.62a18.8,18.8,0,0,0-.33-6.3c-.65-2.41.49-4.8.54-7.23.61-1.8-.55-3.53-.43-5.35a28.27,28.27,0,0,1,.36-6.5l.63-.57c.28-1.41-1.07-2.57-.45-3.94.14-1.61-.05-3.25.74-4.72-1.89-3.6-1-7.74-.73-11.6-.39-2.51.34-5.1.36-7.63-.63-2.67,0-5.44-.37-8.14-.87-4.37.76-8.8-.17-13.17-.22-3.47.25-7-.37-10.41.13-3.57-.31-7.19.31-10.72-1.45-4.09.78-8.41,0-12.57.09-1.58.89-3.15.42-4.73-.63-3.3.12-6.58-.11-9.93l.7-.6a11.48,11.48,0,0,0-.63-2.71c.52-3.31.13-6.69.24-10-.2-1.69.64-3.34.06-5,.17-2.14-.9-4.34-.06-6.41-.06-.12-.2-.35-.27-.46-.67-2,.41-4.06-.27-6.08,0-3.47,1.21-7.07-.26-10.41-.16-2.78,1.35-5.46,2.73-7.79"></path><path class="cls-3" d="M321,210.74a6.44,6.44,0,0,1,6.3,2.44c2.3.22.58,2.6.25,3.82.35,6.1-2,12.22-.37,18.25a34.23,34.23,0,0,1-1.16,9.81c.58,1.51.52,3.13.85,4.69.1,1.66-1.29,3.17-.74,4.84.16.75.16,1.52.31,2.28-1.36,3.26.61,6.75-.67,10a12.82,12.82,0,0,1-.12,4.86,40.5,40.5,0,0,1,0,10.72c.1,5.87-.21,11.8.24,17.62-.87,2.31.7,4.75-.41,7-.76,2.21,1.1,4.33.22,6.51.43,4.46-.24,8.91-.37,13.36l-.38.53.38.52c.63,11.58.16,23.39.38,35.07.37,1.32.11,2.73.49,4.05-.66,1.77.13,3.6,0,5.37-1.14,3.2-.13,7.08-2.11,9.95,0,.32,0,.65,0,1l1,.5c-.27,2.3.57,4.54,0,6.79a61.39,61.39,0,0,1,.67,9.77c.71,1.63.27,3.3.47,5-1.08,3.71-.67,7.47-.69,11.23a12.93,12.93,0,0,0,.41,2c-1.39,2.8-.61,6-.12,8.91a115.31,115.31,0,0,0,0,12.61c-.68,3.29,0,6.75-1.08,9.91,0,1.51,1.36,2.87.68,4.4-.84,2.36.77,4.75.14,7.15-.65,3.09-.12,6.13-.16,9.25.78,3.13-.71,6.24-.41,9.41-1.67,4,1.52,8-.16,12a35,35,0,0,1,.33,4.22c0,2.77,1,5.55.27,8.3-.16,3.17.06,6.36-.1,9.53-.74,2.48.32,5,.05,7.5.23,2.14-.49,4.2-.3,6.33.74,3.72-.14,7.56.63,11.28.33,1.71-1.17,3.35-.3,5s-.17,3.57-.33,5.35c.8,3.16-.13,6.55.53,9.76a13.39,13.39,0,0,0-.26,6.62c-.09,2.62-1.06,5.27-.38,7.9a8.9,8.9,0,0,1-.22,4.17l.38.52c-1.57,3.19,1.27,6.41.43,9.68-.07,3.39-.86,6.8-.21,10.17-.88,3.87.34,7.82-.28,11.67a27.8,27.8,0,0,1-.29,11.27c.06,1.68.71,3.48,0,5.13l.27.46a39.65,39.65,0,0,1,.45,5.44c.57,1.7-.14,3.43-.69,5a7.6,7.6,0,0,1,.37,4.73c-.48,1.58.49,3.16,0,4.72a29.84,29.84,0,0,0-.16,9.43c-.48,1.87-.14,3.81-.31,5.71-.32,1.56-.58,3.3.21,4.77.53,2.77.37,5.61.79,8.4.36,1.94-1.19,3.79-.39,5.68-1.13,2.64-.13,5.43-.16,8.16.78,2.33-.57,4.69.08,7,.52,2-.35,3.91-.18,5.88.14,5.35-.3,10.74.34,16.05-.25,2.72-1.21,5.51-.37,8.24a12.19,12.19,0,0,1,.2,7.39c-.71,2.69.61,5.39,0,8.06-.68,3.73.77,7.48-.11,11.19a37.25,37.25,0,0,0,.27,7.24q0,6.48,0,13c-.65,2.26.7,4.68-.56,6.85a10.89,10.89,0,0,0,1.15,4.11,51.82,51.82,0,0,0,.67,8.79c.38,2.32-.94,4.46-2.59,6a5,5,0,0,1-6.21-2.47c-.76-1.2,0-2.64.33-3.85l-.4-.54c.08-.14.26-.41.35-.54.81-3-.3-6.25,1.08-9.12.89-4-.61-8.09.14-12.06-.85-1.92,1-3.87.13-5.77a6.26,6.26,0,0,1-.16-3.61c-.56-2.53.05-5.09.37-7.61-.52-2,0-4-.53-5.93-.45-2.13.62-4.25,0-6.33.6-3,.06-6.1.38-9.13.71-2.29-.66-4.63.12-6.92.09-2.82.44-5.75-.45-8.47a5.36,5.36,0,0,1,.21-2.54c-.12-2-1-4-.34-5.94.2-3.95-.26-7.94.52-11.85-.66-3-1.39-6.27-.23-9.26-.13-3.1,1.49-6.24.29-9.27-.91-3.56.85-7.24-.26-10.78-.56-.54-1.11-1.08-1.65-1.64a3.28,3.28,0,0,1,1.46-.06l1.3-.72a13.88,13.88,0,0,0-1.13-2.48c.23-.24.46-.47.7-.69.26-2.31-.87-4.47-.64-6.77a33.33,33.33,0,0,1,.35-6.08l.28-.45c-.71-2,.4-4.06-.31-6.08a6.85,6.85,0,0,0-.41-6.28l.42-.53c-.72-2.87-.13-6-.33-8.9.79-5.52-.22-11.17.86-16.67.35-1.54-.21-3-.28-4.57l.72-.6a30,30,0,0,1-.13-8.31c-.78-2.9-.4-5.9-.63-8.86-.78-2.47.46-5,0-7.45-.61-1.92.87-3.85.23-5.76a65.6,65.6,0,0,1,.91-15.58c-.19-.15-.57-.46-.75-.62.72-2.57-.72-5.1-.26-7.72.74-3.73-.1-7.58.58-11.31-.72-4.2-.53-8.46-.91-12.68.09-.11.25-.34.34-.46-.7-2.37.25-4.93.56-7.34a16.45,16.45,0,0,1-.5-6.59c1.16-2.36.45-5.08-.08-7.52.16-2,.65-4.08.15-6.1-.32-1.06.23-2.1.37-3.14.39-2.58-.2-5.24.35-7.81,0-2.54-1.08-5-.86-7.51s-.37-5.33.57-7.85a8.71,8.71,0,0,1,.11-4.88l-.71-.63c.12-2.95,1.33-5.93.3-8.86-.88-2.72,1.8-5.22.63-7.87a25.2,25.2,0,0,1-.3-9.24c-.65-2.19.15-4.42.34-6.6-1-5.45-.14-10.91-.85-16.4a33.2,33.2,0,0,0-.1-9.07c-.22-1.6.75-3.18.09-4.73.8-3-.64-6.28.71-9.23a9.49,9.49,0,0,1,.74-2.76c-.21-2.43-1.56-5-.85-7.43l.62-.56c-.26-2.06-.75-4.06-.9-6.14.59-2.78-.12-5.69.51-8.46-1.35-2.13,0-4.64-.63-6.86l-.66-.58c.45-1.9.29-3.86.68-5.77.31-3.17-.85-6.32,0-9.46-.46-2.39.24-4.8,0-7.25-.27-1.89.72-3.74.12-5.6.07-.09.22-.28.28-.37l-.37-.53c-.85-2.41,1-4.76-.29-7.07.26-1.31,1.3-2.59.63-4,.2-4.78-1.52-9.93.85-14.42-.27-.4-.55-.81-.85-1.19-1.16-3.58.08-7.24.29-10.85a44.85,44.85,0,0,0-.84-6.44c0-2.36.58-4.88.19-7.16l.28-.47c0-2.8,1.64-5.53.37-8.24.2-4.08-1.35-8.24,0-12.2l.56-.55a5.94,5.94,0,0,1,.28-2.41,13.57,13.57,0,0,1-.61-9.06c.12-1-.56-2-.16-3.09.8-3-.87-5.93-.4-8.95a17.3,17.3,0,0,0-.32-7.77,54.64,54.64,0,0,0-.72-8.27c-.13-.34-.25-.67-.35-1l.69-.63c.9-2.66-1.13-5.86,1-8.08"></path><path class="cls-3" d="M789.73,213.69c1.19-1,2.58-.1,3.62.64,1.08,1.88.8,4.14,1.37,6.19s-.31,4.08-.21,6.13a18.43,18.43,0,0,1-1.09,9.66c.44.9,1.38,1.67,1.27,2.76-.82,2.9,1,5.87.08,8.8-.42,1.2.4,2.38.05,3.56-.67,3.54.75,7.08-.05,10.6-.39,2.06.27,4.09.34,6.14a14.54,14.54,0,0,1-.74,4.54,17.34,17.34,0,0,1,0,6.58c-.2,2.61,1.44,5.09.74,7.7-.23,2.57-.84,5.19-.23,7.76.31,1.16-.54,2.29-.15,3.46.53,2,0,4.05.45,6-.17,2.18-1.19,4.49-.52,6.63l-.35.46c-.14,2,.76,4,.07,6-.07,2.52.7,5.08,0,7.59-.48,1.53.76,2.88.54,4.4s.73,3.08.11,4.59a24.11,24.11,0,0,0-1.09,5l.62.58c.12.94.53,1.88.19,2.83-.34,3-.16,6.17-1.37,9,1.48,2.86.53,6.11,1.15,9.12-.4,2.42-.19,4.9-.56,7.34-.08.11-.23.33-.3.45a11.84,11.84,0,0,1,.3,5.42c-.29,1.36.94,2.54.47,3.88-.24,2.59-.76,5.2-.13,7.78-1.12,2.93.27,6.08-.65,9.11,1.21,3.61.56,7.59,0,11.32.17,1.59.94,3.13.58,4.77-.6,2.18,0,4.47-.45,6.66-.46,1.37.76,2.59.5,4-.28,2.11.56,4.19,0,6.26-.12,2.29.37,5.15-1.58,6.82,0,.18,0,.54,0,.72l1,.47a39,39,0,0,1,1,5.33l.29.46c-.68,1.84-.1,3.87-.35,5.78a29.66,29.66,0,0,0-.28,9.12,20.9,20.9,0,0,0,0,7.23c-.71,2.16.31,4.59-.87,6.62-.69,1.25.36,2.61-.2,3.93.88,2.14.16,4.52.78,6.73-.75,1.84-.39,3.86-.93,5.73l.27.46c1,3-.12,6.11.62,9.17.3,2.61-.72,5.22-.13,7.82,1.51,2.4.63,5.35.5,8,.58,2.06-.29,4.14,0,6.26-.62,4.17,1,8.37,0,12.54a9,9,0,0,0,.25,3.89l-.27.46c-.6,2.4-.09,4.88-.59,7.29-.16,1.5-.68,3-.21,4.54.67,2-1.27,3.64-.73,5.58.42,1.76.59,3.58,1.17,5.31-.71,1-1.28,4.42-2.83,2.45a45.25,45.25,0,0,0-1.85-11.82c0-3.71-.57-7.36-.74-11.05-1.2-4.28.13-8.64-.22-13l-.33-.45c.59-1.63.31-3.44.22-5.12-.67-2.32.24-4.63.7-6.88.14-1.89-.19-3.82.29-5.67a14.94,14.94,0,0,1-1.17-6.37c.63-1.76-.32-3.52,0-5.32,1-5.47-1.18-11,.15-16.5-.1-3.18-.74-6.65.8-9.55-.7-4.39.06-8.91-.61-13.29.63-1.95.37-4.06,1.2-5.94a9.4,9.4,0,0,1-.61-3.18c0-1.57-1.43-3-.71-4.56a7.26,7.26,0,0,0,.14-4.54c.18-1,.54-2.18,0-3.15-1.32-2.25.22-4.83-.22-7.23-.43-2,.44-4,.22-6-.15-4.43-.07-8.78.07-13.22,1.32-3-.47-6.12-.08-9.21l.41-.53c-.1-.14-.31-.41-.42-.54.3-2.31-.54-4.57.08-6.82a24.91,24.91,0,0,0,1.75-3.16c-1.47-3-1.64-6.36-1.49-9.62-.27-4.27-.86-8.73.32-12.9-.14-1.38-.82-2.67-.65-4.09.15-7.81-.44-15.69.78-23.42-.06-2-.78-4.45.79-6.06v-.5c-1.43-1.68-1.31-4.16-1-6.2a31.75,31.75,0,0,1-.25-7,14.84,14.84,0,0,0,.29-7.16c.27-5.7-1.69-11.45.28-17,.28-1.52-.45-2.93-.6-4.41,0-3.47-.21-7,.58-10.36.58-1.86-1.46-3.36-.72-5.18.51-1.65-.54-3.28-.11-4.94a5.46,5.46,0,0,0,.47-3.15c-.7-2.34.62-4.72-.43-7,.41-4.74.08-9.6.23-14.39a5.14,5.14,0,0,1,.82-1.39,10.51,10.51,0,0,1,.41-1.11c-1.58-2.51-.53-5.49-1.32-8.21-.66-2.38.27-5-.74-7.25-.41-2.05.17-4.19-.42-6.23a10.3,10.3,0,0,1,2.25-5.88"></path><path class="cls-3" d="M610.06,439.18a21.06,21.06,0,0,1,2.94-1.54l.71.36a26.05,26.05,0,0,1,1,8.74c-.93,4.15.71,8.39-.22,12.55.54,6.45.09,13,.23,19.5-.24,1.77.53,3.41.67,5.14l.35.53c-.09.13-.27.39-.37.52.19,1.36-.7,2.53-.65,3.87,0,2.34,0,4.68,0,7l.42.53-.41.54c-.28,2.49.76,5,.13,7.44-.3.82.26,1.6.44,2.4a15.11,15.11,0,0,1-.39,5.18c0,2.89-.53,5.89.34,8.78-.23,3.43-.23,7-.4,10.41,0,.26.08.51.14.79-.42,3.29-.37,6.66-.71,10a5.82,5.82,0,0,0,.39,3.87c.23,3-.12,6.09.16,9.12.63,1.81-.8,3.53-.41,5.39a50.86,50.86,0,0,1,1.27,9.1c-.45,3.54-1.25,7.13-.64,10.67.07,7.25-.2,14.58.28,21.75a11.62,11.62,0,0,0,0,5.28,80.3,80.3,0,0,1-.55,11.71c.75,4.33.41,8.66.11,13,.37,4.88.07,9.82.18,14.73l-.41.54.41.53c-.33,2.05.69,4.06.09,6.07-.6,3.1.62,6.08.58,9.17.57,1.67-.43,3.33-.33,5,.67,2.56-.09,5.26.5,7.83.44,2-.64,4.08-.09,6.13a4.3,4.3,0,0,0,0,.95,2.55,2.55,0,0,0,.13,1.42,3.46,3.46,0,0,0-.12,2c-.39,3,.73,6.07.4,9.11.3,1.48-.68,2.81-.83,4.26.24,2.29,1.25,4.62.67,6.93a6.49,6.49,0,0,1-.1,4c-.7,1.71.53,3.4.38,5.15-.11,2.71.24,5.46-.31,8.14-.23,2.15.49,4.23.61,6.35-.56,2.58-.21,5.23-.32,7.85-.17,2.24,1.32,4.49.32,6.68.06.08.15.23.2.31-.09,3.52-1.09,7.14.09,10.58.09,2.63-.74,5.28-.07,7.91.09,2.11.43,4.2.5,6.31,1.13,3.57.32,7.34.08,11-1,2.38.19,4.85.18,7.3.58,2.45,0,5.78-2.6,6.77a7.33,7.33,0,0,0-2.08-.22c-1.81-1.91-2.12-4.62-2.75-7,.4-1.92.44-3.88.78-5.8s-.77-3.61-.07-5.38c-.56-2.27.08-4.66-.55-6.92a20.45,20.45,0,0,0,.3-5.12l.33-.46c-.69-1.73,0-3.66-.6-5.43.41-2.29.53-4.63.83-6.92-.7-2.09-.2-4.24-.47-6.29a7.92,7.92,0,0,0-.07-4.5l.31-.46c-1.07-3.63.64-7.43-.28-11.1,1.06-3.53-1-7.11-.08-10.64a39.88,39.88,0,0,1,.64-7.87c.45-1.74-1.11-3.39-.35-5.08-.61-1.34.22-2.72.08-4.1,1.06-5.35-1.53-10.79-.32-16.11l-.3-.45c.22-1.49-.91-2.76-.61-4.23.42-2,.55-4,1.16-5.92-.93-3.43.66-6.94-.22-10.36a29.06,29.06,0,0,1,.09-8.38,25.29,25.29,0,0,0-.67-4.24c-.31-3.13.25-6.31-.38-9.41a24,24,0,0,1,1.24-9.74c-.88-3.9-.71-8-1.17-12,.71-2.85-.37-5.73-.36-8.58,1-3.3-.62-6.68.22-10,.47-11.62-1.59-23.24.7-34.74-1.33-2.86-.14-6.08-.89-9,.63-1.36-.29-2.74-.07-4.13.29-1.82.56-3.65.78-5.49-1-4.07,0-8.32-.79-12.42,1.15-3.84-1.54-7.92.29-11.65-.16-2.28-.74-4.65-.35-6.89-.77-2,.61-4-.15-6-.09-3.78-.43-7.63.46-11.34.23-.92-.49-1.81-.11-2.72.55-1.43-.59-2.77-.45-4.22.44-1.95.24-4,.65-5.93-.25-2.92-.67-5.92-.05-8.82-.16-1-.59-2-.77-3,1.27-6.16,1-12.54.17-18.73a11.15,11.15,0,0,1,1.23-5.4,8.45,8.45,0,0,1-.31-5.3,18.47,18.47,0,0,1,.08-7.22"></path><path class="cls-3" d="M493,540.66l.52.54c0,1.45.92,2.81.41,4.25-.58,2.17,1.06,4.21.29,6.33.57,2.4.17,4.84,0,7.25.92,4.91-.23,9.92.25,14.77-.86,4.16.81,8.42-.2,12.58.64,3.1-.1,6.31.57,9.41.08,2.43,0,4.87,0,7.31.69,3.74.14,7.54-.09,11.29-1.8,4.85.14,9.91.09,14.88l-.42.53c.07.1.21.29.29.38a17.39,17.39,0,0,0,.12,6.63c-.09.11-.25.34-.33.46,0,2.67,0,5.36,0,8l-.33.45c.94,2.79-.26,5.76.32,8.57-.08,2.61.23,5.26-.3,7.84-.35,2.44.95,4.83.32,7.24-.08,2.22,0,4.45,0,6.67-.85,4,.71,7.92.34,11.92-.56,3.11.51,6.28-.3,9.41.44,2.19-1.24,4.31-.16,6.38.39,1.93-.15,4,.41,5.88.12,2.35-.54,4.68-.26,7.05-.1.14-.31.41-.42.54.11.13.32.41.42.54-.14,3.26.88,6.42.73,9.69,0,3.1-.91,6.2-.14,9.27-.61,3.56.2,7.27-1.22,10.7a16.55,16.55,0,0,1,.34,7.88c.53,1.83,0,3.77.55,5.61.41,1.5-.63,3,0,4.44-.62,1.66.08,3.38.3,5,.34,7.15,1.39,14.25,1.35,21.43,0,1.81-1.57,3.08-3.12,3.72-1.75.38-3.3-.72-4.39-2-.77-2.26-.27-4.62.38-6.83s-.53-4.07-1.06-6l.18-.32c.05-1.66.52-3.31.69-5-.06-3.07-.17-6.39.66-9.4a11.92,11.92,0,0,1,1-9.82,20.15,20.15,0,0,1-1.22-6,16,16,0,0,0,.07-5.89c.67-3.39-.21-6.78-.09-10.16.61-2.69,0-5.47.58-8.15-.72-2.21.09-4.44,0-6.66a9.73,9.73,0,0,1-.66-6.19,45.4,45.4,0,0,1,.55-8.32c.59-1.85-1.28-3.37-.84-5.26.59-3.44.2-6.95.39-10.42.6-2.25-.1-4.62.54-6.86a14.64,14.64,0,0,0,.06-6.32c.75-1.83-.43-3.69.13-5.53a18.09,18.09,0,0,1-.54-7c-.24-1.48-1-3.07-.24-4.52l-.31-.45c-.07-1.66-.53-3.29.28-4.86.78-1.31-.21-2.71.24-4,.34-2.71-.22-5.49.32-8.18.37-4.86-.16-9.78-.08-14.57-.72-3.32.94-6.73-.31-10-.11-1.59-.38-3.17-.42-4.75.78-2.49-.27-5,0-7.52.79-4.56-.15-9.25.63-13.82.26-3.5-.92-6.93-.6-10.43.22-1.29.86-2.56.48-3.89.69-5.78-.7-11.75,1-17.47a22.87,22.87,0,0,1-.86-6c.48-2.52,1.77-4.77,2.39-7.24a6.91,6.91,0,0,1,.76-5.12"></path><path class="cls-3" d="M791.27,563.53c.29-.3.59-.59.89-.88l.53.53c.38,1.33,1.21,2.57,1.07,4,.16,1.93-.75,3.84-.16,5.76a7.22,7.22,0,0,1-.49,4.27c.07,2.16.95,4.57-.42,6.53-.81,2.52.71,5.08.42,7.66.41,4.45,1,9,1.09,13.39,0,.07,0,.21,0,.28-.14,1.63-.76,3.27-.2,4.89-.91,2.6-.25,5.25,0,7.89a8.45,8.45,0,0,0,0,4.38c-.79,3.88.18,7.87-.31,11.74l-.28.45c1.6,4.39-.79,8.86.26,13.3-.54,2.69-.15,5.45-.28,8.18-.15,2.27,1.27,5-.64,6.88,1.49,2.31.64,5.06,1.28,7.59a23.79,23.79,0,0,0,0,8.16c.34,3.93-.93,7.75-.62,11.67.22,1.64-1.52,2.76-1.28,4.4a8.93,8.93,0,0,0,.9,2.82c.19,1.6-.27,3.32.65,4.77,1,2.08-.33,4.22-.3,6.34-.07.12-.22.34-.29.45a28.37,28.37,0,0,1,.3,8.28,51.35,51.35,0,0,1,0,16c0,5.16-.25,10.35.52,15.45.32,1.58-.26,3.28.4,4.8l-.28.45c-.87,3.9.58,7.91-1,11.71.43,2.65-.2,5.68,1.88,7.81.41,2.58-1.2,5.39.51,7.73.24,2.26.26,4.6.69,6.85-.24,1.94-1.65,3.37-2.91,4.74-1.8.09-3.76-.61-4.36-2.45-.61-2.78-1.59-5.62-1-8.51.49-2.12.7-4.31,1.3-6.4.64-3.49-.63-7-.76-10.41,1.13-3-1.4-5.86-.31-8.78a18.25,18.25,0,0,0,0-6.59c.42-1.27,0-2.64.49-3.89.75-2.08,0-4.34.64-6.45a29.08,29.08,0,0,0-.86-6.61c-.21-2.21.25-4.47-.32-6.64-.87-2.53.45-5.13-.15-7.71.4-2.18-.33-4.5.53-6.6a5.69,5.69,0,0,0,0-3.27c-.19-2.74.11-5.5-.15-8.23-.82-2.92.8-5.9.14-8.8a74.68,74.68,0,0,0,.23-13,26.3,26.3,0,0,1-.6-5.93c-.13-1.83.8-3.54.65-5.36-.4-2.62.15-5.28.29-7.9-1.63-4.69.45-9.63-.59-14.39.11-3.06-.81-6.12-.12-9.16.35-2.75-.35-5.62.65-8.28,1-1.83-.47-3.86.22-5.78.55-1.45-.37-2.81-.71-4.18-.2-2,.06-4-.11-6-.91-4.29.68-8.62-.16-12.92.48-2.38-.18-4.88.69-7.2.58-1.57-.46-3.15,0-4.7.14-1.21.36-2.4.58-3.59-.56-2.59.34-5.14.16-7.73-.31-2,2-3.61,1-5.64.31-2,.17-4.17.65-6.21"></path><path class="cls-3" d="M201.4,274.18c-1.38-1-1.51-2.63-1.34-4.17A24.53,24.53,0,0,1,201.7,268a20.61,20.61,0,0,1,8.38-.41c1.72-.08,3.49.86,5.15.07l.46.27c2.57.84,5.27-.65,7.81.38a13.72,13.72,0,0,0,.85,1.25c.43,0,.85,0,1.28,0,1.48-1.64,3.68-1,5.57-1.47a39.94,39.94,0,0,0,7.24.64c3.45,1,7-1.4,10.36.15a14.55,14.55,0,0,1,6.72-.21l.46.27c1.59-.67,3.36,0,5-.44,2.25-.58,4.49.27,6.75.19,3,.81,6.29-1,9.24.44a24.12,24.12,0,0,1,3.7,1.59c1.23.49,2.44-.23,3.6-.6l.55-.54c2.6.17,5.11-.82,7.72-.65,1.63-.1,3.16.58,4.74.89,2.3-.38,4.63-.64,6.9-1.17,1.8.77,3.81.61,5.69,1.17,4.45-.5,9-.13,13.5-.23,2.34.2,4.55-1.44,6.88-.69,2.43.07,4.83.55,7.27.37,3.81-.49,7.68.42,11.53-.16.72.16,1.44.34,2.16.53.38.29.78.57,1.18.82,3.9-1.5,8.12-1.48,12.24-1.56,3.87-1,7.72,1.27,11.58.36,4.72.41,9.51-1.14,14.13.29,2.77.4,5.63-.5,8.29,0l.46-.27a7.58,7.58,0,0,0,1.7-.3c1.55.16,2.8,1.51,4.42,1.17,2.15-.39,4.41-1,6.56-.29,1.73.63,3.6.05,5.35.54,2.57.56,5-.93,7.56-.54,3.2-.63,6.44-.19,9.65.14,3.2.69,6.42-.71,9.63.05,1.33.43,2.65-.23,4-.19,2.85,0,5.7.07,8.54,0,1.84-.37,3.74-.94,5.62-.37,3.15.29,6.36-.22,9.48.47,1.68.59,3.29-.89,5-.24,4.59,1.64,9.75-1.21,14.12,1.09,2-1.29,4.43-.67,6.65-1.23,2-.45,4,.18,5.94.23a15.39,15.39,0,0,1,7.6.09c2.85-1.43,5.81.53,8.81,0,2.49-.54,5.06-.05,7.54-.63a17.82,17.82,0,0,1,3.5.9c1.49-.15,3-1.3,4.48-.63,2.66.93,5.59-.26,8.21.86,1.75-.31,3.74-1,5.41-.08a5.05,5.05,0,0,0,4.62.06c2.7-.65,5.43-1.22,8.11-2,2.41.47,4.77,1.34,7.17,1.84,3.68-.33,7.32-1.23,11-.95,1.84.25,3.52-.8,5.35-.64,3.56.13,7.16-.28,10.68.33,1.19.18,2.33-.34,3.5-.29,3,.72,6.09-.15,9.06.55,1.63.34,3.13-.73,4.76-.59,3,.13,6.16-.38,9.09.62a39.69,39.69,0,0,0,6.42-.81c1.24-.4,2.46.47,3.72.15,3.32-.57,6.79-1,10,.29,2.61.2,5.26-.75,7.87,0a17.5,17.5,0,0,1,6-.08,16.66,16.66,0,0,1,10.1,1.48l.66-.73a7.18,7.18,0,0,0,3.64-.9,14.9,14.9,0,0,1,4.42.17c1.78.35,3.7-.29,5.42.4l.45-.28c2.6-.51,5.26-.19,7.87-.48,2.71-.93,5.27,1.43,8,.54a12.07,12.07,0,0,1,4.55.37c3.22-.05,6.37-1,9.61-.78,1.23-.14,2.41.51,3.63.19,3.78.8,7.6-.33,11.41.26,1.3.36,2.65,1.24,4,.6,1.52-.77,3.29-.07,4.82-.76,2.09-1,4.43-.47,6.65-.6,2.72-.24,5.44.83,8.13,0,2-.06,4,.48,6,.56,2.26-.6,4.62,0,6.88-.6a17.14,17.14,0,0,0,6.58,0c1.22-.31,2.4.55,3.6.11a60.34,60.34,0,0,1,9.11-.79l.46.33a16,16,0,0,1,10.13.7,3.59,3.59,0,0,1,1,3.19c-.67.91-1.45,1.73-2.06,2.68-1.64.76-3.47.56-5.18.94-1.89,0-3.59-.93-5.38-1.41-3.3-.08-6.69,1-10,.24-1.88-.37-3.69.59-5.55.15-1.89.3-3.71-.56-5.53-.84-2.05,1.1-4.43.29-6.58,1.06-1.81.65-3.56-.57-5.38-.43-4.12,1.17-8.41-.27-12.64,0-.12-.08-.35-.24-.46-.33a10.4,10.4,0,0,1-6.54-.34c-.61-2-2.35.13-3.62.09-3,.36-6.09.56-9.16.62-4.17,1-8.37-1-12.53,0-2.25.35-4.4-1.13-6.62-.36-2.19-.7-4.38.3-6.6.05-3.46-.21-7,.48-10.4-.49-2.45-.66-4.81.63-7.26.51-2.29.54-4.59-.28-6.89-.35-5.34.89-10.72-.12-16.07,0a17.91,17.91,0,0,0-9.1.59c-2.66-.33-5.31.23-8-.61l-.53-.35-.52.38a18.79,18.79,0,0,0-2.14.12c-4.59-.13-9.14-.66-13.74-.38a13.08,13.08,0,0,1-5.57,0c-2.45-.34-4.84.49-7.28.26a84.82,84.82,0,0,1-15.45,0c-2.4.71-4.84-.34-7.19.6a41.37,41.37,0,0,0-10.43,0c-1.69-.56-3.34.34-5,.29-2.15-.58-4.4-.08-6.58-.36a15.62,15.62,0,0,0-4.48-.88c-1.59,2.08-4,.48-6,1.28l-.46-.35a50.4,50.4,0,0,0-7.34.9c-2.24-.51-4.63-1.22-6.91-.63-1.43-.57-2.92.38-4.41.08a43.28,43.28,0,0,0-7.89-.31c-3.19.83-6.46-.66-9.67.25-2.13-.11-4.22.69-6.31.07-3-.7-6.12.05-9.12-.64-2.46,0-4.9,1.09-7.36.44a5.32,5.32,0,0,0-2.74.16c-1-.05-1.83-.83-2.82-.52-2,.51-4.12,0-6.16.34-1.84-.45-3.67.62-5.49-.07a52.46,52.46,0,0,1-14.16.27,23,23,0,0,0-5.31.31,45.93,45.93,0,0,1-5.92-1l-.6-.7c-3.08,1.45-6.44.23-9.66.75l-.45.3c-2.37-.74-4.85.12-7.28-.05a10.52,10.52,0,0,0-3.22-.29c-4.05-.91-8.17.72-12.22-.3-4.37.69-8.85-.06-13.21.64-5.16-.12-10.35.29-15.46-.31-4.87,1.19-9.82.1-14.66-.67-.14-.15-.41-.45-.55-.59-2.91-.67-5.47,1.59-8.32.64-3.29.18-6.5-.5-9.79-.34-2.25-.26-4.23,1.61-6.51.82-1.85-.67-3.64.4-5.47.45-5.31-1.09-10.7.7-16-.27a16.67,16.67,0,0,1-6.6-.05c-2.19.26-4.38,1.42-6.61.73a127.56,127.56,0,0,0-15.14-.68,11.53,11.53,0,0,1-5.29-.05c-3,.25-5.93,1-8.89.43a13.94,13.94,0,0,1-5,0c-2,.13-4.07,1.13-5.91,0-8.09-.17-16.19,0-24.28-.1a27.63,27.63,0,0,0-8.17-.57c-2.38.36-5,.67-7.24-.3a5.41,5.41,0,0,0-3.37-.21c-1.81.8-3.87.25-5.7,1.06-2.4-.32-4.86-.82-7.21,0-3.56-.13-7.11.83-10.65,0"></path><path class="cls-3" d="M202,448.1c-.37-1.19-.78-2.93.55-3.67,4-2,8.74-3.29,13.2-1.94a17,17,0,0,1,7.41,1.16c.44-.09.88-.15,1.33-.22l.55-.55c.78-.08,1.56-.2,2.35-.34,1.71.61,3.6.09,5.36.59,3.12.67,6.34,0,9.45.66a14.81,14.81,0,0,0,2.95-.51c2.59-.6,5.2.78,7.77,0a3.7,3.7,0,0,0,2.9-.08l.46.28c2.56.33,5.1.85,7.65.34,2.76.34,5.51-.74,8.17.25,1.64-.69,3.36.23,5-.19,1.89-.18,3.83.17,5.7-.32,2.65.56,5.42.21,8.06.07,2.7,1.12,5.51-.38,8.25.47,4.2,0,8.41.87,12.59.06q7.13,0,14.23,0a15.93,15.93,0,0,0,5.88.09c5.22,1,10.3-1.1,15.52-.68,1.95.58,3.89-1,5.84-.16a7.1,7.1,0,0,0,3.11.22c1.51-.08,3-.68,4.54-.34,2.9.7,6-.41,8.83.8,2.77-.58,5.67.1,8.44-.54,3.67.54,7.4-.18,11.08-.32,2.37.56,4.86,0,7.19.84,3.24.05,6.51-1.12,9.76-.34,3.8.38,7.6-.16,11.35-.5,2.28.76,4.59-.2,6.9,0,2.87-.17,5.73.78,8.59.15,3.77-.45,7.55.08,11.32.19l.45-.33c1.11.55,2.37.17,3.55.41,2.15.66,4.33-.6,6.5,0,1.75.59,3.42-.68,5.18-.41,6.74,1.13,13.66.13,20.43.91,2.8-.52,5.62-1.5,8.48-.94,3.86-1,7.76,1.06,11.63,0a11.57,11.57,0,0,0,4.83.08c3.54,0,7.14,1,10.68.15l.47-.28c1.22.73,2.55-.1,3.84,0,2.1,0,4.19,0,6.3,0,3.19.24,6.38,1,9.59.53,2.57,0,5.25-.68,7.76.29,4.36-.2,8.76-.79,13.16-.4,2.39.55,4.89-.1,7.3.43,3.2-.72,6.44.73,9.64-.16,3,.2,5.9-.8,8.82-.07,2.53,0,5.07.13,7.59-.08,3.15-.92,6.43,1,9.52.1l.46.32a21.78,21.78,0,0,0,7.95-.87,29.91,29.91,0,0,1,7.2.22c3.56.13,7.17-.21,10.69.24,2.08-.56,4.27.12,6.33-.46,4.17.83,8.37-.13,12.55.46a10.76,10.76,0,0,1,5.14.08l.47-.26a12.85,12.85,0,0,1,5.24,0l.52.37.38-.28a7.83,7.83,0,0,0,4-.08,39,39,0,0,0,7.92-.35c4.06.89,8.16-.21,12.26,0,4.56-.79,9.26.17,13.83-.64,2.18.33,4.37.81,6.55,1.17,2.49-.56,5.09.16,7.57-.5a11.46,11.46,0,0,1,2.24.29c3.74-1.36,7.77-.29,11.64-.31,2.61.18,5.22-.82,7.82-.05a20.36,20.36,0,0,0,6.46-1.08c3.8.3,7.4,2.17,11.24,1.4,3.1-.69,6.34.19,9.42-.69,2.54-.83,5.25-.51,7.89-.49,2.39.74,4.73-.61,7.15-.64,2.83.17,5.39-1.49,8.22-1.31,1.42,0,2.87.73,4.26.12,2.26-1,4.73,0,7.06-.35a12.16,12.16,0,0,1,4.38,1.95c1.31,2.72-1.08,5.88-3.78,6.46-1.65.87-3.42-.46-5.11.2-6.08-.18-12.35-.41-18.45.35-2.5.53-5-.66-7.46-.08a18.39,18.39,0,0,1-5.29,0c-3,.83-6.13-.72-9-.13a3.21,3.21,0,0,1-.3-.21c-1.61.58-3.2-.2-4.75-.54-1.94-.7-3.77.83-5.73.6-2.84-.83-5.78.35-8.65-.39-1.78-.5-3.55.54-5.3-.05-2.13-.42-4.24.73-6.34.05-5.06-.42-10.13.65-15.12-.1-2.31,1.21-4.78-.1-7.21.41-2.93.63-5.88-.08-8.81-.19-1.9-.64-3.79.45-5.71,0a12.45,12.45,0,0,0-5-.06,33.44,33.44,0,0,0-10.61.39,60,60,0,0,0-12.92,0c-2.12,0-4.28.2-6.27-.64a25.16,25.16,0,0,1-7.89.09,18.09,18.09,0,0,1-6.6-.09c-3.46.09-7-.25-10.38.32-2.35.27-4.65-.64-7,0-3.17.8-6.41-.18-9.57.15-2.79-.39-5.62-.06-8.43-.18l-.54.41-.37-.29c-2.64.67-5.31-.55-8-.32-2-.41-3.84.79-5.83.53-3.51.42-7-1.61-10.44-.15-3,.19-6.14.82-9.06-.42a99,99,0,0,1-15.78,0,14.72,14.72,0,0,1-7.19.28c-4.05.77-8.23-.1-12.28.61-4.81-1-9.69.59-14.5-.32-1.39-.47-2.7.2-4.06.35-2.94-.67-6-.06-9-.43-4.18.54-8.31-.44-12.48-.15a8.55,8.55,0,0,1-4.32,0c-2.18-.45-4.2,1-6.37.54a32.94,32.94,0,0,0-4.2-.38,13.56,13.56,0,0,1-4.88-.17c-1.59.28-3.08,1.25-4.76.91a29.35,29.35,0,0,0-12.55,0c-4.46-1-9.14.41-13.6-.58l-.46.28c-1.42,0-2.8.53-4.22.33-3.13-.57-6.35-.39-9.45-1.16-3.89.4-7.76,1.05-11.69.84-.13.11-.39.32-.53.42l-.53-.39c-7-1.19-14.14,1.75-21.07-.38-2.11-.94-4.17.92-6.31.24-1.39-.43-2.89-.37-4.27-.81l-.45.31c-1.83-.22-3.61.69-5.4.05-2.31-.56-4.47,1.11-6.75.4a30.94,30.94,0,0,0-4.62-.13c-2.23.08-4.37-1.41-6.61-.73-1.24.21-2.54,0-3.77.32-1.59.46-3.17-.5-4.72.06a12.16,12.16,0,0,1-2.21-.57c-2.37,1.41-5-.29-7.5.55-2.67-.24-5.29,1.25-7.92.33s-5,1-7.49.07c-5.81.57-11.6.1-17.38-.05-2-.54-4.18.55-5.8-1.17-1.47-.14-2.84-1.45-4.3-.74-2.47.74-5.12.72-7.48,1.85-3.38,0-6.8.95-10.1-.17-2.28.18-4.6,1-6.89.33-1.68-.47-3.36.48-5-.05-1.73-.27-3.34.69-5.07.6-3.57-.08-7.14.12-10.7-.1-2.4-.69-4.81.32-7.23.1-3.28-.25-6.5.42-9.77.31-1.9,0-3.48-1.32-5.34-1.57a29.38,29.38,0,0,1-7.4,1.05c-2.76-.46-5.51.7-8.27,0-1.9.59-3.77,0-5.61-.48l-.69-.66"></path><path class="cls-3" d="M202.66,390.21c-1.55-1.08-.92-3.14-1-4.73,1.32-2.77,5-2.67,7.53-1.84a68.92,68.92,0,0,1,15.46.34c2.42-.75,4.87.92,7.3.17a6,6,0,0,1,2.72.11,10.33,10.33,0,0,1,9.12,1.3c2.58-.21,5.24.78,7.65-.51,3.4-1.17,7-.12,10.45-.83,3.29-.34,6.61-.15,9.92-.21,2-.15,3.74,1,5.71.62a18.38,18.38,0,0,1,5.78-.18c5.44-.2,10.81.9,16.2.19a50.8,50.8,0,0,0,8.18-.32c4.41.2,8.78,1,13.22.95,3.65.17,7.32-.84,11,0,3.48.27,7.05-.4,10.46.61,2.4-.19,4.82-.89,7.25-.83,3.95,1.12,7.92-1.21,11.88,0a24,24,0,0,1,9.87.64c3.48-1.44,7.37,0,10.95-.91,3,1.29,6.29,0,9.36.85,2.37.22,4.74-.74,7,.34,2.29-1.55,5.24-.89,7.81-.64a13.24,13.24,0,0,1,8,.74l.6-.66c4.28-.9,8.55.1,12.85-.06a13.4,13.4,0,0,1,7.9,1.07,12,12,0,0,0-.41,3,11.23,11.23,0,0,1-6.32.89c-2.18-.65-4.38.45-6.6,0-1.86-.48-3.78-.14-5.67-.31-2.53-.4-5-1-7.56-1.45-3.4.31-6.57,1.94-10,1.9-2.05.84-4-1-6.08-.23-2.47.63-4.88-1-7.35-.36-1.23.32-2.52.07-3.75.34-2-1-4.18.43-6.19-.48l-.45.33a17.82,17.82,0,0,1-4.5-.29c-1.28.2-2.5.67-3.76.91a13.26,13.26,0,0,0-3.94-.73c-1.62.1-3.22-.69-4.84-.28-2,0-4,.9-6,.39-2.1-.05-4.2.92-6.28.35-1.77-.23-3.63.3-5.33-.39-4.6-1.24-9.24.64-13.9.35-2.64,0-5.28.07-7.91-.05a7.16,7.16,0,0,0-3.76,0c-3.86-.38-7.8-.22-11.61-1.13-2.92.91-5.91-.52-8.81.27a13.31,13.31,0,0,1-6.75-.17,54.81,54.81,0,0,1-12.45,1.12c-1.06,0-2.13-.61-3.15-.06l-.79-.14c-4.37-.29-8.83-.06-13.14,0-3.36.11-6.92-1.26-10.12.31a6.18,6.18,0,0,1-4.11.34H244a11.18,11.18,0,0,0-2.16-.17l-.45-.3c-3.25.7-6.66-.39-10-.43a5.4,5.4,0,0,1-2.59-.08l-.35.2c-2.13,0-4.26-.08-6.38,0a7.77,7.77,0,0,1-4.17,0c-2.46-.84-5.13-.19-7.43.83-2.59.05-5.34.38-7.78-.67"></path><path class="cls-3" d="M202,330.69a5,5,0,0,1,0-2.64c1.61-.79,3.05-2.28,5-1.94,2-.3,3.94,1.29,6,.41a58,58,0,0,0,9.13.54c1.85-.22,3.33,1.34,5.2,1l.59-.65c3.3,0,6.58-1.11,9.88-.42,1.69-.52,3.38.07,5,.38,2.76.14,5.52-.07,8.28.08a4.2,4.2,0,0,0,2.8,0c2.82,1.07,5.87.28,8.79.66,3.25.71,6.52-.31,9.79-.11,2.38-.6,4.87,0,7.26-.52,1.57,0,3.08,1.18,4.66.62,1.37-.31,2.71.45,4.1.25,1.21.09,2.33-.78,3.53-.47,3.67.68,7.41-.95,11,.23,1.84.32,3.69,1,5.57.77,4.22-1.15,8.66.06,12.89-1.15,4.61.72,9.25-.06,13.84.86,2.92-.81,5.87.52,8.81,0,1.14-.3,2.34-.11,3.46-.45,2.82.8,5.68-.56,8.49.23,4-.36,8,.86,11.93,0,3.89.38,7.79-.59,11.67.21,2.15.58,4.15-1,6.3-.45,3.57.89,7.15,0,10.78.22l.54.41c.13-.1.39-.3.53-.39a6.86,6.86,0,0,0,2.3-.24,38.07,38.07,0,0,0,9.54.22l.52.41.53-.38a47.65,47.65,0,0,1,9.7-.22c5.29-.14,10.62.51,15.89.75,2.53-.24,5.09-1.36,7.56-.31a24.57,24.57,0,0,1,8.63.27,1.55,1.55,0,0,0,1.2-.2l.47.34c2.72-1.35,5.78-.48,8.53.25a12.28,12.28,0,0,1,6.93-.27c1.69.21,3.27-1,5-.51a9.1,9.1,0,0,0,5.09.21c3.82.28,7.63-1.14,11.37-.09,1.4.21,2.71-.68,4.11-.52,2.36.55,4.81.17,7.21.28,4.3.24,8.68-1.08,12.89.29a13.86,13.86,0,0,1,6,0,17.09,17.09,0,0,1,6.57-.05c3.56.26,7.17-.29,10.7.35a18.56,18.56,0,0,0,4.28-.16c1.7-.33,3.22,1.36,4.88.56,2.06.82,4-1.27,6.13-.58,4.77-.49,9.67.49,14.37-.66a10,10,0,0,0,4.39,0c1.77,0,3.53.79,5.32.46,2.51-.71,5,.45,7.58.07a32.72,32.72,0,0,1,6.34-.31l.46.33c1.64-.82,3.41.1,5.12,0,3.91,0,7.76-.75,11.67-.66,2.63-.71,5.25.32,7.93,0l.45-.32c1.33.77,2.77-.19,4.17,0,1.94-.12,3.94,1.34,5.76.16a15.5,15.5,0,0,1,5.26.14c2.68-.68,5.49.13,8.17-.56.79,0,1.56.39,2.38.17,2.71,0,5.37.58,8,.11,2.3.77,4.6-.47,6.93-.28,5.09,1,10.26-.58,15.35.2a22.44,22.44,0,0,1,5.69-.79c7.17,1.89,14.5-.74,21.72.57,2-.59,4,0,6,.27,2.56-.67,5.25.1,7.81-.55,1.95-.4,3.87.7,5.8.08,1.15-.36,2.31.15,3.46.22l.48.3c2.08-1.39,4.46.22,6.66-.62,2.19.56,4.37-.29,6.61,0,3.41-.29,6.78.78,10.17.14,5.45-.38,11-.86,16.41,0,4.44-.34,9-.16,13.34-1.12a11.81,11.81,0,0,1,4.75.87,15.13,15.13,0,0,0,6.28-.49,5.16,5.16,0,0,1,5,3.31c0,.4,0,.81,0,1.2-1.75,2.21-4.9,2.73-7.52,2.07-1.91-.35-3.79.65-5.68,0-1.54.42-3.18.9-4.74.32-1.79.76-3.52-.67-5.35-.4a44.51,44.51,0,0,1-9.72-.29,96.76,96.76,0,0,1-17.34-.76,6.06,6.06,0,0,0-3.48.07c-1.76-1.13-3.62-.06-5.32.61a9.25,9.25,0,0,1-4.72-.49c-3-.37-5.85.8-8.81.57-2.31.26-4.35-1.18-6.65-1-2.36-.58-4.81.08-7.16-.52a12.9,12.9,0,0,1-4.44,1.22c-5.11-.95-10.3,1-15.41,0-2.58.57-5.19,0-7.78-.2-3.62-1.54-7.11,1.71-10.75.55-3.47-.7-7,.39-10.42,0-1.37.72-2.81-.35-4.19.11a6.14,6.14,0,0,1-2.56,0c-1.55.36-3-.46-4.61-.19-1.79.32-3.72.62-5.45-.11-1.42-.78-2.5,1.05-3.94.74-3.14.4-6.17-1.1-9.3-.5a22,22,0,0,1-3.43-.61c-2.29.09-4.43,1.13-6.65,1.3-3.15-1.25-6.43.49-9.59-.55s-6.47.73-9.75.36c-1.13.23-2-.93-3.12-.55-2.48.62-5.1-.16-7.56.46a76.72,76.72,0,0,0-13.89.08c-1.06-.21-2.1-.92-3.2-.45-2,.61-3.91-.57-5.84.09-3.58,0-7.15.33-10.7.59-5.15-.82-10.39.24-15.57-.41-3.07-.09-6.21,1-9.28.23-3.39-.38-6.78.54-10.11-.27-2.89-.37-5.76.19-8.64.34-3.55-.67-7,.83-10.55.19-2.39.11-4.83-.24-7.19.27-3.4.31-6.75-.44-10.16-.31-1.71-.71-3.29.56-5,.43a19.11,19.11,0,0,1-6.66-.09l-.46-.29c-2.8.61-5.82-1.46-8.74-.42-6,2.22-12.31-.92-18.42.1a17.55,17.55,0,0,1-3.21-.64c-4.46,1.91-9.36,1.1-14.06,1.28-1.23.16-2.41-.39-3.63-.21-2.84,0-5.66-.49-8.47-.31-2.72-.08-5.42-.28-8.13-.43l-.54-.4-.37.28c-3.09-.49-6.27,0-9.38-.27-1.88-.38-3.74-.89-5.64-1.14-2.64,1.12-5.55,2.47-8.47,1.57-2.31-.1-4.63.67-6.95.13-1.38-.26-2.7-1.07-4.15-.76-3.72.75-7.53-.08-11.25-.27-2.48.55-5.07-.1-7.55.53-3.06-.24-6.12.84-9.16.06-2.2.73-4.4-.25-6.63,0-1.08,0-2,.75-3.11.65-1.14.11-2.24-.59-3.37-.2-1.53.54-3-.26-4.6-.14l-.45-.31c-1,.51-2.16.21-3.23.41-2.88.78-5.75-.93-8.66-.28-3.49-.4-7.06-.82-10.53,0-1.57.51-3.12-.34-4.72-.11-3.37.21-6.85-.4-10.15.32l-.45-.3c-1.85,0-3.7-.7-5.54-.15-2.48.62-5-.53-7.42.12a180.18,180.18,0,0,1-19.17-.51c-3.48.45-7,.81-10.43,1.44-3.44-.95-7.2-1.85-10.72-.75-4.88.62-10-.58-14.74.78-1.84.24-3.65-.72-5.47-.14-3.1.7-6.09-.53-9.16-.5a9.54,9.54,0,0,1-2.35-2.35"></path><path class="cls-3" d="M201.89,563.46c.34-1.14.15-2.6,1.07-3.48,3-1.56,6.51-.46,9.63.17,3.83.16,7.69-.23,11.47.54,2.31.52,4.56-.66,6.87-.46,3.34.52,6.67,1.32,10,.36,3.44.21,6.94,1,10.36.63,3,.77,5.91-.13,8.8-.71,3.13.48,6.37,1.12,9.47.07,2.82.08,5.68,1,8.49.27,2.39.87,4.84-.55,7.23.19a16.9,16.9,0,0,0,5.31-.17c3-.2,6.13.21,9.14-.31,2.8,1.21,5.93.1,8.83.8,2.13.42,4.17-.66,6.3-.55s4.3-.11,6.44.13a75.13,75.13,0,0,1,9.95-.1c3.56.85,7.18-.62,10.76.16,2.45.38,5-.17,7.42.44,4.41-.1,8.85-.86,13.25-.29,4.22.17,8.37-.56,12.59-.33a31.25,31.25,0,0,0,9.41,0c2.28-.39,4.34,1.28,6.61.8,2.22-.88,4.59.32,6.88-.47,1.41.61,3-.33,4.46,0,3.39-.31,6.75.7,10.09,0a13.4,13.4,0,0,0,4.85.19,10.61,10.61,0,0,0,5.25-.36c2.72-.84,5.39,1.06,8.08.21,2.69-.23,5.35.65,8.06.18,1.14,0,2.25-.33,3.4-.23l.46-.31a2.81,2.81,0,0,0,2.24,0c4.93-.27,9.93.31,14.83-.33,2.47.63,5.06-.06,7.53.6,3.85-.37,7.86-1.27,11.63,0,4.21-.8,8.43.1,12.66,0,3.14.92,6.21-.89,9.34-.85,1.9.54,3.9.67,5.8,1.23s3.55-.38,5.35-.11c.12-.08.34-.24.46-.31,2.28.84,4.72,0,7,0,1.74.53,3.59,0,5.35.51,1,0,1.79-.69,2.73-.86,2.67,0,5.38,1.14,8,.41,3.76-2.12,8,1.13,11.84-.66,3.35.49,6.88-.48,10.26-.21a12.9,12.9,0,0,0,2.72-.81,3.37,3.37,0,0,1,.31.21c2-.24,4.31-.57,6.22.37,2.23,0,4.41.54,6.65.37a2.93,2.93,0,0,1,2.11,1c3.09-.36,6.11-1.06,9.18-1.52a18.17,18.17,0,0,0,5.65.23c4-.25,8,1.24,11.92,0,2.16-.19,4.37-.46,6.38.59.81-.42,1.61-.88,2.46-1.22,1.32-.32,2.47.71,3.78.6,2,0,4,0,6.08,0l.54.42.53-.42c3.32-.2,6.57.42,9.85.64a6.68,6.68,0,0,1,4.68,1.61c2.17-1.28,4.88-.56,7.26-.34,1.17.13,2.33-.65,3.47-.09,1.14-.23,2.31-.39,3.47-.52,3,.87,6.07-.68,9.08.24,4.21.13,8.46-.17,12.62.59,3.14-.65,6.4.15,9.41-.85,1.52-.19,2.9.76,4.44.64,1.91,0,3.78-.47,5.7-.37,2.65-.62,5.53-1.05,8.13,0,4.2.5,8.66-1.32,12.58,1,2-.7,4.34-1.51,6.36-.28l.48-.29c3.22-.38,6.49-1,9.75-.53,3,.81,5.91-.91,8.91-.36,2.41.65,4.83-.32,7.27-.14,3.83-1,7.73.71,11.56-.22a10.41,10.41,0,0,1,4.46.5q2.65-.32,5.29-.83c1.63-.3,3.24.68,4.86.11,3.13-.88,6.32,1.52,9.34,0,3.35-1.26,7-.19,10.34-1.29,2.53.28,5.73,1.53,6.08,4.4-1.9,3.23-6.24,2-9.33,2.9a27.25,27.25,0,0,0-5.48-.22,19.9,19.9,0,0,0-9.55.08l-.46-.28c-3.27-.6-6.6.47-9.9-.24-1.8.36-3.65.07-5.46.35-1.82-.29-3.66-.47-5.48-.77-1.28.05-2.54.54-3.84.28-4.93-1.22-10.2-.35-15.05-1.83-3.68,1.61-7.71-.28-11.51.45-1.11-.17-2.31-.82-3.39-.26-2.51,1.72-5.54-.28-8.28.56-1.62.61-3.3-.68-4.88.14-2.63,1.07-5.51-.47-8.1.6-1.48-.46-3.1,0-4.52-.75-1.33-.07-2.79.57-4.1-.05a7.12,7.12,0,0,0-4-.3c-1.75.48-3.6,0-5.34.44-2.37.65-4.59-1.5-6.93-.46s-5,.87-7.59.9c-2.34.64-4.93,1-7.25.1-1.07-.4-2.16.45-3.25.07-4.92.34-9.72-1.53-14.64-1.46a3.16,3.16,0,0,1-2.56-1.05l-.74.78c-2.34-.29-5.13-1-7,.93a12.83,12.83,0,0,1-2.88-.6c-1.67.57-3.47,0-5.15.43-3.1.8-5.91-1.79-9-1-1.35.51-2.67-.19-4-.47-2.52-.72-5.26.27-7.75-.57l-.46.34-1.11,0-.46.34c-4.49-.95-9.09.29-13.62-.1-5-1.19-10.21,1.61-15.1-.51-3.12,1.56-6.57-.27-9.81.5a12.71,12.71,0,0,0-7.16,1,25.74,25.74,0,0,1-8.52-.85c-2.38,1.15-5.1.18-7.58,1s-5.07-.43-7.23-1.69c-.48.31-1,.61-1.41.94-2.26.07-4.23,1.24-6.41,1.62-1.06-.09-2.16-.59-3.18,0a6.37,6.37,0,0,0-2.91-.6l-.45-.3c-1.89.73-3.92-.26-5.89-.12-3.23.49-6.41-.37-9.64-.21-2.24,0-4.63-1.75-6.75-.49-1.84,1.46-4.35,1.07-6.37,2.1-3.31,1.49-7,.77-10.47.9-2.7-.66-5.41.49-8.15.35-1.62.14-3.1-1-4.72-.56a27.45,27.45,0,0,1-10.06.23,9.14,9.14,0,0,1-4.19.14c-2.45-.38-5,.12-7.4-.35-2.59.61-5.19-.17-7.76-.48l-.6.7c-2.89-.12-5.85.11-8.68.07-4.16.84-8.44-.86-12.59.23a9.35,9.35,0,0,1-4.24.2c-2,.56-3.92-.51-5.84,0-2.73.06-5.44-1-8.17-.81a3.36,3.36,0,0,1-4.31-.39c-1.37-.12-2.59.55-3.86.91-1.53.29-3-.45-4.41-.83-3,.17-6.11.71-9.16.88-3-.81-6.21.34-9.11-.89-4.56.7-9.27-.18-13.82.55-2.84-1-5.61,1-8.49.25-2-.63-3.95.9-6,.32-4.4-.82-8.9-.42-13.31-1-1.45-.43-2.87.45-4.34.18-4.18-.83-8.43,0-12.59.29-3.29-1-6.48.7-9.75.65a13.7,13.7,0,0,0-5.91,0c-1.32.27-2.48-1-3.81-.52-2.86.89-5.93.31-8.76-.31-1.47.27-2.95.82-4.45.46-3.78-.74-7.6.24-11.37.37-2.06-.84-4.19.53-6.24-.2a15.36,15.36,0,0,1-7.56-.37c-1.93.38-4,1.07-5.92.26-1.59-.7-3.28.19-4.93.15-4.32.2-8.73,1-13.06.25-2.06.59-4.24-.07-6.29.5-1.19-.59-2.41.34-3.63,0a9.54,9.54,0,0,1-6.95-1.73c-1.6.19-2.63-1.12-3.63-2.13"></path><path class="cls-3" d="M203.54,509.77a4.57,4.57,0,0,1-1.15-2.22c.29-1.08-.07-2.46.89-3.25,1.41-.93,3.23,0,4.72-.73l.45.27c2,0,3.74,1.59,5.72.71,2.93.29,5.91-.4,8.84.28,2.49-.51,5-.07,7.46.13,2.07.66,4.12-.86,6.18-.28a7,7,0,0,0,3.36-.09c1.36-.32,2.66.61,4,.37l.36.26.4-.28c3.81.14,7.77.13,11.62.51,2.67-1.37,5.64-.05,8.45,0,1.27.06,2.5-.6,3.77-.25,2.6.78,5.25-.66,7.87.13,1.67,0,3.33.7,5,.15,1.71-.38,3.39.42,5.08.18,6.06-1.36,12.2,1.49,18.25-.15,1.42-.39,2.66.8,4.09.57,1.77-.2,3.55-.35,5.31-.64,1.95-.19,3.63,1.1,5.57,1.11,3.78-1.37,7.84-.61,11.77-.8,1.86.23,3.65-.61,5.5-.2,1.69-.54,3.19.82,4.9.52a13.38,13.38,0,0,1,5.6-.06c3.06.11,6.13.05,9.2,0a10.46,10.46,0,0,1,4.69-.07,31.16,31.16,0,0,0,9.28-.71,16.74,16.74,0,0,0,8,.07c2.08-.66,4.21.8,6.3.2,3.63-.38,7.35.29,11-.38a181,181,0,0,0,18.65.55c1.79-.64,3.57.27,5.4,0l.53.41.54-.41c2.56-.27,5.11.82,7.64,0a7.64,7.64,0,0,0,3.74,0c3.69-.08,7.4-.08,11.09,0,3.12.79,6.26-.31,9.41-.05,5.8-1,11.64.58,17.47-.15a43.85,43.85,0,0,0,6.94,1.13l.63.67c1.57-.43,3.15-1.43,4.8-.74a12.39,12.39,0,0,1,4.74,0c3.45-.57,7-.09,10.43-.64,2.38.67,4.8.1,7.2-.1,2.52-.59,5.06.42,7.59.39a32.48,32.48,0,0,1,3.52-.64l.54-.35.52.37a16.3,16.3,0,0,1,1.84.15c3.89-1.12,7.85.79,11.75-.12a48.76,48.76,0,0,0,5.79-.34,5.33,5.33,0,0,0,3.23,1.4c-.4,1.05-1.5.77-2.38.89-1.62.74-3.44.74-5.1,1.35-3,1.1-6.4-.16-9.46.88-1.27.42-2.62,0-3.9.35-2,.59-4-.51-6.07-.46-2.43,0-4.85,0-7.28,0-1.35.32-2.79,1-4.16.38-1.21-.71-2.64-.36-3.93-.17a20.37,20.37,0,0,1-3.19-.79c-3.62-.41-7.42.58-10.9-.77-1.67-.61-3.61.26-5.13-.86-.62.22-1.26.37-1.88.56-2.65-1.09-5,.89-7.6,1.1-2.37.35-4.45,2-6.94,1.42-2.12-.65-4.26.09-6.39.17-.36.05-.71.12-1.06.18a21.88,21.88,0,0,0-2.89-.52c-3-.58-6,1-9,.4-1-.32-2,.24-3,.16l-.53.37-.52-.38c-4.22-.28-8.47-.1-12.7-.93-1.18.15-2.21,1.13-3.48.91a9.29,9.29,0,0,0-4-.17c-3.87.81-7.7-1-11.58-.34-5.2,0-10.35.74-15.58.42-2.29-.75-4.62.5-6.9-.22a18.5,18.5,0,0,1-5.89.17,9.42,9.42,0,0,0-6.08-.58c-3.34.36-6.75-.27-10.07.36a10.45,10.45,0,0,0-4.72,0c-2.36.51-4.67-1-7-.37-2,.2-4.12.8-6.15.2-5.14-.36-10.42,1.63-15.46,0-2.79.88-5.51-.28-8.27-.53-3.12-.68-6.22,1.18-9.3.21-1.6,0-3.19.41-4.81.33-2.24.75-4.51-.54-6.78.09-1.79.6-3.57-.45-5.37-.27l-.39-.26-.52.37c-3,.59-6-.08-8.93-.3a21.67,21.67,0,0,1-4.48.34l-.46-.33c-4.11.89-8.48-.23-12.64.6-3-.13-6.09-1-9.13-.36-3.77-1.48-7.65.75-11.51,0-3.15,0-6.27.74-9.42.31a27.58,27.58,0,0,1-7.09-.21c-1.35-.31-2.43,1-3.77.56s-2.68-.08-4-.37c-2.61-.73-5.07,1.17-7.7.73a16.72,16.72,0,0,0-5.47-.16,13.35,13.35,0,0,1-3.44-.49,4,4,0,0,0-2-1"></path><path class="cls-3" d="M207.28,791.07c-1.59-.54-3.34-1.87-3.16-3.73-.14-2.31,2.31-3.55,4.1-4.37,4.6.11,9.32-.55,13.83.58,3.2.31,6.38-.76,9.57-.14a16.16,16.16,0,0,0,7.22-.17l.46.34c1.67.28,3.36-.71,4.94.08,2.54.79,5.16-.48,7.69.2,2.32-.25,4.61.7,6.9.19,2.6-1.09,5.45-.15,8.11-.32,4.51,1,9.09-.37,13.66.47,3.25-.77,6.52.07,9.79,0,2.39.74,4.85-.29,7.24.33a13.79,13.79,0,0,0,7-.53c1.72.36,3.51-.1,5.22.37s3.18-.48,4.74.13c2.61.77,5.27-.26,7.88.28,4.14-1.05,8.37.67,12.51-.27,1.82-.31,3.6.58,5.43.22a8.29,8.29,0,0,1,4,0c2.07.29,4.19-.16,6.25.35,1.67,0,3.31.69,5,.24a101.79,101.79,0,0,1,14.62-.47c4.49,1.8,9.44.3,14.08,1.24,4.17-.56,8.42-.45,12.58-1.23,1.08-.11,2.12.51,3.22.25,3.25-1,6.4,1.15,9.71.67a51.88,51.88,0,0,1,8.18-.32c3.06-.28,6,1.34,9.08.31,2.4.38,4.85.26,7.27.41,1.62.64,3.29-.61,4.9.12,2.05.91,4.29.16,6.39-.18,1.2-.24,2.43.7,3.57,0l.47.27c1.4-.06,2.65,1,4.06.52,2.3.85,4.72.33,7-.12,4,.86,8.09-.62,12.14.1,2.88-1,5.83.18,8.62.8,1.88-.54,3.91,0,5.72-.8,2.3-.76,4.32.95,6.57,1,4.85-1.52,9.84-.8,14.81-.82,3.25,1,6.77-.94,9.76.92l.49-.31a28.4,28.4,0,0,1,9.2,0c1.31.22,2.64-.75,3.87,0l.46-.33a28.62,28.62,0,0,1,6.07.32,7.23,7.23,0,0,1,3.75,0,18.62,18.62,0,0,1,6.94,0c1.3,0,2.57-.82,3.87-.43,3.63.7,7.28-.78,10.88.1a6.85,6.85,0,0,0,2.43-.11c2,.9,4,0,6.07.45a15.46,15.46,0,0,0,4.4-.25c1.55-.36,3.06.53,4.61.15,5.08.1,10.23-1,15.23.44a41.48,41.48,0,0,1,12.58-.37,7.72,7.72,0,0,1,5.06-.34c1.6-.72,3.25.36,4.88,0a4.27,4.27,0,0,0,2.35-.12,1.7,1.7,0,0,0,1.66-.09l.46.34a12.83,12.83,0,0,0,3.55-.3,13.66,13.66,0,0,0,6.19.46c2.2-.48,4.51.16,6.7-.4,1.22-.37,2.41.48,3.63.09,2.34.34,4.69.6,7,1a11.91,11.91,0,0,1,6-.29c2.64.08,5.29.11,7.92,0,3.8-1.75,8.11.82,11.94-.81a21.26,21.26,0,0,1,5.69.25,19.48,19.48,0,0,1,7.22,0c1.78-.77,3.36.66,5.19.46,4,0,7.94-1.59,11.9-.32,1.16.58,2.15-.93,3.38-.36,2.12.88,4.42.29,6.59.85a21.3,21.3,0,0,1,10.69-.81c2.31.66,4.65-.64,7,.1,1.14-.36,2.27.27,3.4-.12,2-.57,3.9,1.14,5.89.33a13.79,13.79,0,0,1,4.84-.42c1.17,0,2.26,1,3.43.39a10.33,10.33,0,0,0,3.24.25c.71.61,1.65,1.29,2.63.8a10.08,10.08,0,0,1,5.15-.8c1.15.13,2.15-.77,3.3-.53,3.33-.26,6.64.29,10-.32,3.61.48,7.15-.65,10.73-.9,2.61-.39,5.35-1.2,7.94-.41a26.61,26.61,0,0,1,3.56,2.87c.3,1.93,1.32,4,0,5.79a7.73,7.73,0,0,0-2.59,1.61c-.44.07-.88.15-1.3.26a5.31,5.31,0,0,1-2.23-1.13h-.92l-.5-.6c-1.89,1.1-4.14.81-6.22,1-1.47.51-3-.43-4.45-.06-1.9.48-3.87.22-5.8.27l-.58.63c-3.7.28-7.28-.8-10.86-1.5-1.64.58-3.42-.08-5.06.48a4.15,4.15,0,0,0-3.08.11c-2.1,1-4.22-1-6.35-.12-1.71,0-4.34.7-5.24-1.21-2.65.28-5.22,2-7.94,1.05-4.86-1.25-9.7.7-14.59.24l-.46.33c-2.78-.42-5.87-.08-8.63-1.12-1.23-.54-2.34.38-3.51.61-1.42.49-2.89,0-4.31-.23-3.17-.65-6.35.16-9.53.12l-.53-.42-.38.29a108.24,108.24,0,0,0-13-.08,29.63,29.63,0,0,1-3.89-.39c-1.89-.39-3.74.66-5.61.13-.92-.33-1.84.14-2.74.3-1.2-.43-2.34.22-3.46.56l-.63-.72c-2.2.24-4.33-.55-6.52-.29-.94.1-1.82.8-2.78.53-2.1-.55-4.46-.18-6.29-1.51-2.38,1.43-5.31.1-7.88.86-3.45.29-6.93-.1-10.38.19a6.31,6.31,0,0,1-5.63-1.4c-2.79,2-6.35.36-9.44,1-2.73-.16-5.49,1.49-8.12,0-3.53,1.41-7.23-.25-10.83.29-2.91-1-6,.86-8.8-.54-2.41.66-5,1.61-7.5.66a18.33,18.33,0,0,1-5.42-.69c-1.53-.78-3.15.42-4.73-.24-1.72.34-3.43.7-5.14,0-4.65,2.13-9.55-.86-14.29.19-4.86-.18-9.7,1.16-14.53.24-3.44-.76-6.88.27-10.34.07a57.78,57.78,0,0,1-8.22-.3c-2.74,1-5.66.48-8.46.07-1.21.58-2.49-.26-3.73.18-2.42,0-5,.48-7.25-.59a4.68,4.68,0,0,1-3.47-.23c-1.9,0-3.92-.36-5.75.24L488,793a13.36,13.36,0,0,1-2.8-.56c-2.82,1.48-6.16.74-9.09,0-4,1.35-8.31.32-12.43.26a10.85,10.85,0,0,1-7.59-.33,9.24,9.24,0,0,1-4,.13c-2-.63-3.89,1-5.86.29-3.28-1.07-6.67.23-10-.49-2-.51-4.07.52-6-.26a6.5,6.5,0,0,0-3.55-.23c-4.7-.42-9.56,1.07-14.09-.83-1.18,1.72-3.59,1.68-5.26.77-2.38-.29-4.72.39-7.1.37-4.21-.25-8.41-.73-12.6,0a48.56,48.56,0,0,1-5-.93c-4.9,1.32-9.76-.58-14.7-.12-1.44.23-2.86.85-4.33.82-2.62-.8-5.34.78-7.92-.4-5.8-.37-11.58-1-17.37-.28-1.6.43-3.18-.56-4.79-.06-4.17,0-8.32-1.1-12.45-.42-1.72,0-3.47-1.83-4.88-.08a5.68,5.68,0,0,1-4-.11c-2.7-.07-5.6,1-8.13-.4-2.46.11-5.19.82-7.54-.31a6.35,6.35,0,0,0-4.41.89c-2,1.17-4.06-1.19-6.05,0-.11-.08-.34-.22-.46-.29a10.62,10.62,0,0,0-5.13.29,7.09,7.09,0,0,0-4.67-.37,76.62,76.62,0,0,1-8.44-.08c-2.76-.85-5.43,1-8.19.31-3.38-.68-6.86-.28-10.24-.73-1.81,2-3.76-.68-5.89-.09-2.48-.4-4.76,1.49-7.2.69-3.6-.6-7.28,1-10.74-.37-1.73.65-3.6.65-5.37,1.19-1-.14-2-.47-2.89.08l-.53-.39a30.72,30.72,0,0,1-3.14,1c-2.06-.14-3.93-1-6-.92"></path><path class="cls-3" d="M205.15,614.89a6.55,6.55,0,0,0-.38-1.63l.47-.61a12,12,0,0,1,3.13,1.21c1.7,1,3.86,1,5.42,2.28,2.65.24,5.32.86,8,.37,1.81.12,3.72-.32,5.45.31l.52-.39a13.88,13.88,0,0,0,6,.93c2.18-.74,4.4.42,6.57-.21,2.16-.28,4.26.4,6.42.3l.45.32c2.48-1,5.14.35,7.63-.32,4.78,1.16,9.66-.35,14.47.64,2.54-.4,5,0,7.6-.06,1.56-.57,3.12.31,4.72,0,2.38-.57,4.81.18,7.21.32a19.37,19.37,0,0,1,7.24,0,5,5,0,0,1,3.75-.36c1.38.44,2.74-.45,4.1,0,2.49.33,5-.23,7.5.35,2.74.19,5.49-.11,8.22.15,3.26.91,6.55-1,9.79-.18,3.89-.39,7.95.63,11.88-.19,1.62-.36,3.17.82,4.76.37,1.9-.46,3.77.59,5.66.13s3.76-.12,5.57,0c1.83-1.08,3.83.13,5.72-.45,1.81-.32,3.57.43,5.39.28,2.12.18,4.32-.9,6.38,0l.54-.41.54.43a19.78,19.78,0,0,0,2.77-.15c3.21.54,6.4-.6,9.59-.43a15.45,15.45,0,0,0,8,0c4.81-.49,9.61.24,14.42.24,3.53.8,7.09-.23,10.65-.06,2.22-.16,4.39.68,6.61.23a14.58,14.58,0,0,1,6.4.29c4.34-.18,8.9-.72,13.12.7a10,10,0,0,1,6.25-.62c2.34,0,4.69-1,7-.42,4.06,1.2,8.22-.44,12.34.26,1.54-.42,3,.32,4.59.2,3.06-.52,6.19-1.29,9.3-.81,2,.62,4-.56,6.08,0,2.49.66,5.05-.2,7.52.13,2.09-.79,4.24.58,6.32-.14,3.94.75,8,.52,12,.54,4.29-.82,8.6.48,12.86-.62,3,.63,6.07-.3,9.15,0,5.44.8,11.07-.27,16.44,1l.46-.32a181.08,181.08,0,0,0,18.49-.17c4.31.49,8.69-1.1,13-.16,1.61.18,3.31-.3,4.84.34l.46-.33c3.49.08,7-.1,10.48.08,2.39,1,5,.4,7.55.56,3.55.72,7.12-.81,10.73-.27,3.12.73,6.3-.18,9.42-.33,2.15.59,4.4.07,6.58.38a5.4,5.4,0,0,0,2.93,0c2.1-.58,4.2.67,6.29,0,1.65-.57,3.31.47,4.94,0,1.59-.22,3.2,0,4.81-.11l.45.33c1.2-.71,2.53.13,3.8-.2,3.3.63,6.59-.38,9.81.12A21.41,21.41,0,0,1,681,619a17.56,17.56,0,0,1,7.9-.24c6-.25,12,1,17.94-.23,1.7.36,3.48.21,5.18.69,1.24-.23,2.53-.07,3.8-.26,2.76.13,5.62.43,8.3-.44,2.13-.42,4.2.55,6.32.57s4.38-.69,6.6-.24c3.55.77,7.14-.33,10.7,0,2.1.68,4.22-.22,6.34,0,3.63.83,7.29-.32,11,0,2.09-.27,4.13.67,6.2.18,4.72-.8,9.86.94,14.28-1.4,3.91.7,7.94-1.26,11.83-.3q.48.49,1,1a5.54,5.54,0,0,1,0,3.89L796.44,624c-.92.22-1.85.44-2.78.59-2.75-.5-5.56-.14-8.3,0-2.48.24-5,0-7.47.12l-.54-.42-.54.42a21,21,0,0,0-6.71-.64,17.6,17.6,0,0,0-6.59,0c-3.63-.78-7.55.52-11-1.22a12.48,12.48,0,0,1-4.77.69c-2,.66-4-.57-5.94.17-1.64.63-3.12-.93-4.72-.32-2.7.35-5.47-.24-8.14.36-2.26.18-4.54-.11-6.79.17-2.56.39-5-.59-7.57-.65a22.42,22.42,0,0,0-6.44.22c-1.27.22-2.65.62-3.86,0l-.48.36a9.3,9.3,0,0,0-2-.08l-.47-.27a2.39,2.39,0,0,1-2.36,0l-.45.32c-2.58,0-5.17.73-7.74.14s-5.54.36-8.13-.74-5.22,1-7.81,0c-4.46,1-9,.47-13.57.62-2.81.72-5.61-.64-8.46-.33-3.85-.55-7.76-.23-11.64-.32-1.57.08-3.19-.2-4.72.24-2.7-.56-5.49,0-8.22-.28-2.61-.7-5.22.35-7.86.06-4.07,1-8.29-.78-12.32.3l-.46-.34c-2-.17-3.9.75-5.84.16-1.24-.41-2.46.14-3.66.41a12.5,12.5,0,0,1-6.94-1.12c-2.62-.24-5.22.72-7.83.8-2.08-.51-4.23,0-6.33-.32a11.66,11.66,0,0,0-5,0c-4.62.19-9.27-.11-13.89.15-2.63.78-5.22-.53-7.86-.43-6.05.67-12.17.18-18.25.34-1.45.22-2.69-.92-4.13-.6a47.22,47.22,0,0,1-12.22.37c-4.69-.1-9.47-.13-14.2-.07-3.08.69-6.29-.1-9.37.59-2.2.46-4.17-1-6.36-.6a17.07,17.07,0,0,1-9.58-.55,23.48,23.48,0,0,1-3.89,1.41,73.81,73.81,0,0,1-10.72.31,15.88,15.88,0,0,0-3.8-.57c-1.74,0-3.24-1.39-5-.86a5.43,5.43,0,0,1-3.29.45,15.63,15.63,0,0,1-4.1,0c-3.92.59-7.85-.82-11.75.06-4.31.27-8.68-.3-12.94.34-1.92-.75-3.87.48-5.81-.15-2.47.29-5-.56-7.5,0-1.14.4-2.25-.35-3.4-.19-2.47.67-5.14-.75-7.5.64-2-.71-4,.33-6-.31-2.53.2-5.12-.35-7.58-.09a26.25,26.25,0,0,0-7.51,0c-3.36-.84-6.76.7-10.11-.13-2.7-.34-5.46.24-8.13-.36-2.62-.24-5.3.26-7.88-.32-1.24.9-2.63.27-4,.24-.41-.41-.81-.81-1.21-1.23l-.76,0-.46.94c-1.83.59-3.86.11-5.55,1.22-2.9.19-5.71-.28-8.59.08l-.54-.42c-.14.1-.41.32-.54.43a8.78,8.78,0,0,1-2.61-.26c-3,.41-6.06-1.08-9.12-.65-1.55.5-3.1,1.19-4.76.84-2.15-.59-4.41,0-6.56-.56a13.71,13.71,0,0,1-7.86-.67c-1.68.68-3.39-.36-5.07.25-1.11.14-2.09-.62-3.15-.81a13.62,13.62,0,0,1-5.65,0,26,26,0,0,1-10.45.87l-.54.41-.53-.38c-2.22-.65-4.35.16-6.55.19-6,.34-11.89-.5-17.82.64-2.9-.25-5.86-.51-8.77-.78-3,1.21-6.09-.18-9.12,0-2.9.73-5.81.33-8.68.4a9.36,9.36,0,0,1-8.53-2.14c-.87-1.64-2.76-2.34-3.5-4-1-.78-2.17-1.37-3.14-2.2"></path><path class="cls-3" d="M205.76,732.56a5.18,5.18,0,0,1,0-3c1.63-1.44,4-2.74,6.21-2,2.53.3,5.22-.47,7.6.68,3.69,1.38,7.61-.66,11.31.55,2.52.51,5-.75,7.52,0,2.7.69,5.49.2,8.22.43,1.84,1,4,.42,6,.58,2.17.25,4.17-.69,6.3-.87,1.26.54,2.58,0,3.86-.12l.47-.27c4.63,1.43,9.4-.62,14.06.45,2-.77,3.88.88,5.83.22a7.83,7.83,0,0,0,4.05,0c4.33-.2,8.62.2,12.94,0,2.26.07,4.58-.26,6.76.5,2.65-1.32,5.13,1.1,7.81.27,1.91-.44,4,.27,5.82-.48a9.25,9.25,0,0,1,4.73,0c2.64.18,5.3-.11,7.94.13,2.45.86,5.07.48,7.62.54l.48.37a10.32,10.32,0,0,1,1.29-.64c4.31-.23,8.67.3,12.94-.35,2.57.49,5.21,1,7.81.33,3.47.13,7.05-.48,10.41.61a9.77,9.77,0,0,0,2.31-.81c2.79-.78,5.58,1,8.35.23a16.18,16.18,0,0,1,4.76.22,10.92,10.92,0,0,1,5,0c3.05.19,6.12-.12,9.17.14,1.67.6,3.34-.25,5-.1,2.25.07,4.51-.12,6.76.12,3.29.09,6.71-.47,9.91.83a47.29,47.29,0,0,1,13.85-.31c1.91.13,4-.39,5.73.53a4.51,4.51,0,0,0,4.12-.08c5.51-.64,11.06.65,16.53-.4,2.58-.19,5.18.13,7.76-.17a53,53,0,0,0,11.81.11,10.79,10.79,0,0,0,5,0,8,8,0,0,0,5.14-.32l.55.41.53-.41c3.37-.27,6.68.45,10,.53a52.05,52.05,0,0,0,5.86.09c3.5-.73,7.13.14,10.63-.59,3.08-.37,6.13.65,9.16,0,2.9.63,5.91,0,8.81.6a20.7,20.7,0,0,1,8.37-.12,17.43,17.43,0,0,1,7.64-.17c3.36.11,6.74-.13,10.09.11,1.62.57,3.23-.46,4.87,0a62.12,62.12,0,0,1,6.78.54c1.62.15,3.1-1,4.72-.56,1.85.55,3.84-.13,5.68.47,3-1.17,6.32.4,9.48-.46a12.22,12.22,0,0,0,4.93,0c2.84-.08,5.7-.11,8.54,0,2,1,4.22.43,6.32.55,2.56-.63,5.23,0,7.79-.56a13,13,0,0,1,4.13.21c2.35-.47,4.7.84,7.07.25a124.33,124.33,0,0,0,15.55-.45c3.14,1.38,6.82-.38,9.82,1.49,1.9-.56,3.82-1,5.77-1.39a27.27,27.27,0,0,0,4.43.15l.58-.58c2.48-.91,4.81.68,7.21,1.1,1.82.55,3.4-1.3,5.24-.6,4.66-1.7,9.49,2,14.16.15,3,.18,6.2,1.17,9.13,0,1.71-.39,3.38.33,5.08.24,2.24-.55,4.52.15,6.8.14,3.92-.15,7.8.35,11.73-.4,1.53.63,3.11-.3,4.61.32,4.11,1,8.25-.19,12.4-.06,1.49-.09,3-1.09,4.44-.34,3.51,1.37,7.15-.64,10.73.21a3.19,3.19,0,0,0,2.11-.11c5.66,1.91,11.55-2.68,17.13,0a25.66,25.66,0,0,0,8.31-1,20.25,20.25,0,0,0,4.11-.34c1.71.68,3.67,2.12,3.5,4.17l.29.47a7,7,0,0,0-.32,3,7.78,7.78,0,0,0-1.09,1.42,3,3,0,0,1-2.27.23,30.67,30.67,0,0,0-14.87.1c-3.38-1-7.07-.23-10.35-1.55a5.25,5.25,0,0,0-2.62.65L768,738c-3.26-.58-6.72.11-9.83-.94-3,1.87-6.59.63-9.77,0-2.42.66-4.91,0-7.24-.68-2.52.79-5.17,1.72-7.84,1.12-1.37-.42-2.83-.46-4.16-1-2.45-.65-4.76,1.53-7.19.57-4,.94-8-.76-12,.18-4-2-8.36.29-12.56-.35a10.48,10.48,0,0,0-4.46,0c-3.42-.43-6.89-.11-10.34-.21a12.74,12.74,0,0,1-5.07.11,9.33,9.33,0,0,1-4,0,27.84,27.84,0,0,0-9.92.72l-.28,0c-2.53.15-5.16-.53-7.71.09-2.87-1.06-6,.45-8.89-.52-2.15-1-4.44.56-6.64-.21-3.1-.31-6.23-.05-9.34-.14-3.54.24-7.24,1.37-10.69.07-1.21-.16-2.43,0-3.62-.18a11.2,11.2,0,0,1-4-.1c-3.21.68-6.48-.74-9.69.18-2-.4-3.92.18-5.9-.43-4.54.27-9.16,0-13.71.46l-.53.41-.54-.43-1.44.05-.53-.43-.54.41a102.73,102.73,0,0,0-13.59.24,19.46,19.46,0,0,0-10.1-.47c-2.25,1-4.64-.15-7,.24l-.46-.33a14.54,14.54,0,0,1-7.32-.23c-2.3-.3-4.66.21-6.93-.3-3.17-.44-6.32.32-9.47.53-3.12-.56-6.3-.59-9.44-.94-2.36.54-4.8.24-7.2.31-5.73.76-11.59-.19-17.3.94-4.12-.66-8.46-2.14-12.58-.71-1.71,0-3.43.74-5.13.22-1.34-.49-2.66.47-4,.09-2.37-.58-4.86.13-7.23-.44a11.05,11.05,0,0,0-4.85.37c-2.09-.4-4.23.1-6.32-.33-3.49.16-7,.61-10.5-.09-1.24-.26-2.44.2-3.67.17a18.18,18.18,0,0,1-5.46-.17c-1.51-.22-3.17.31-4.55-.53-1.91.18-3.85.79-5.77.34-1.61-.52-3.21.44-4.85.13-2.48-.57-5-.16-7.56-.35-2.16-.36-4.41-1-6.56-.27-1.74.73-3.58-.5-5.35.22-2.62.11-5.36.44-7.86-.54-1.7.23-3.4,1.05-5.14.46-1.55-.56-3.1.48-4.62,0a18.8,18.8,0,0,0-6.3.33c-2.41.65-4.8-.49-7.23-.54-1.8-.61-3.53.55-5.35.43a28.27,28.27,0,0,1-6.5-.36l-.57-.62c-1.41-.29-2.57,1.06-3.94.44-1.61-.14-3.25.05-4.72-.74-3.6,1.89-7.74,1-11.6.73-2.51.39-5.1-.34-7.63-.36-2.67.63-5.44,0-8.14.37-4.37.87-8.8-.76-13.17.17-3.47.23-7-.25-10.41.37-3.57-.13-7.19.31-10.72-.31-4.09,1.45-8.41-.78-12.57,0-1.58-.09-3.15-.89-4.73-.42-3.3.63-6.58-.12-9.93.11l-.6-.7a11.48,11.48,0,0,0-2.71.63c-3.31-.52-6.69-.13-10-.24-1.69.2-3.34-.64-5-.06-2.14-.17-4.34.9-6.41.06-.12.06-.35.2-.46.27-2,.67-4.06-.41-6.08.27-3.47,0-7.07-1.21-10.41.26-2.78.16-5.46-1.35-7.79-2.73"></path><path class="cls-3" d="M210.74,679a6.44,6.44,0,0,1,2.44-6.3c.22-2.3,2.6-.58,3.82-.25,6.1-.35,12.22,2,18.25.37a34.23,34.23,0,0,1,9.81,1.16c1.51-.58,3.13-.52,4.69-.85,1.66-.1,3.17,1.29,4.84.74.75-.16,1.52-.16,2.28-.31,3.26,1.36,6.75-.61,10,.67a12.82,12.82,0,0,1,4.86.12,40.5,40.5,0,0,1,10.72,0c5.87-.1,11.8.21,17.62-.24,2.31.87,4.75-.7,7,.41,2.21.76,4.33-1.1,6.51-.22,4.46-.43,8.91.24,13.36.37l.53.38.52-.38c11.58-.63,23.39-.16,35.07-.38,1.32-.37,2.73-.11,4.05-.49,1.77.66,3.6-.13,5.37,0,3.2,1.14,7.08.13,9.95,2.11l1,0,.5-1c2.3.27,4.54-.57,6.79,0a61.39,61.39,0,0,1,9.77-.67c1.63-.71,3.3-.27,5-.47,3.71,1.08,7.47.67,11.23.69a12.93,12.93,0,0,0,2-.41c2.8,1.39,6,.61,8.91.12a115.31,115.31,0,0,0,12.61,0c3.29.68,6.75,0,9.91,1.08,1.51,0,2.87-1.36,4.4-.68,2.36.84,4.75-.77,7.15-.14,3.09.65,6.13.12,9.25.16,3.13-.78,6.24.71,9.41.41,4,1.67,8-1.52,12,.16a35,35,0,0,1,4.22-.33c2.77,0,5.55-1,8.3-.27,3.17.16,6.36-.06,9.53.1,2.48.74,5-.32,7.5,0,2.14-.23,4.2.49,6.33.3,3.72-.74,7.56.14,11.28-.63,1.71-.33,3.35,1.17,5,.3s3.57.17,5.35.33c3.16-.8,6.55.13,9.76-.53a13.39,13.39,0,0,0,6.62.26c2.62.09,5.27,1.06,7.9.38a8.9,8.9,0,0,1,4.17.22l.52-.38c3.19,1.57,6.41-1.27,9.68-.43,3.39.07,6.8.86,10.17.21,3.87.88,7.82-.34,11.67.28a27.8,27.8,0,0,1,11.27.29c1.68-.06,3.48-.71,5.13,0l.46-.27a39.65,39.65,0,0,1,5.44-.45c1.7-.57,3.43.14,5,.69a7.6,7.6,0,0,1,4.73-.37c1.58.48,3.16-.49,4.72,0a29.84,29.84,0,0,0,9.43.16c1.87.48,3.81.14,5.71.31,1.56.32,3.3.58,4.77-.21,2.77-.53,5.61-.37,8.4-.79,1.94-.36,3.79,1.19,5.68.39,2.64,1.13,5.43.13,8.16.16,2.33-.78,4.69.57,7-.08,2-.52,3.91.35,5.88.18,5.35-.14,10.74.3,16.05-.34,2.72.25,5.51,1.21,8.24.37a12.19,12.19,0,0,1,7.39-.2c2.69.71,5.39-.61,8.06,0,3.73.68,7.48-.77,11.19.11a37.25,37.25,0,0,0,7.24-.27q6.48,0,13,0c2.26.65,4.68-.7,6.85.56a10.89,10.89,0,0,0,4.11-1.15,51.82,51.82,0,0,0,8.79-.67c2.32-.38,4.46.94,6,2.59a5,5,0,0,1-2.47,6.21c-1.2.76-2.64,0-3.85-.33l-.54.4c-.14-.08-.41-.26-.54-.35-3-.81-6.25.3-9.12-1.08-4-.89-8.09.61-12.06-.14-1.92.85-3.87-1-5.77-.13a6.26,6.26,0,0,1-3.61.16c-2.53.56-5.09,0-7.61-.37-2,.52-4,0-5.93.53-2.13.45-4.25-.62-6.33,0-3-.6-6.1-.06-9.13-.38-2.29-.71-4.63.66-6.92-.12-2.82-.09-5.75-.44-8.47.45a5.36,5.36,0,0,1-2.54-.21c-2,.12-4,1-5.94.34-3.95-.2-7.94.26-11.85-.52-3,.66-6.27,1.39-9.26.23-3.1.13-6.24-1.49-9.27-.29-3.56.91-7.24-.85-10.78.26-.54.56-1.08,1.11-1.64,1.65a3.28,3.28,0,0,1-.06-1.46l-.72-1.3a13.88,13.88,0,0,0-2.48,1.13c-.24-.23-.47-.46-.69-.7-2.31-.26-4.47.87-6.77.64a33.38,33.38,0,0,1-6.08-.35l-.45-.28c-2,.71-4.06-.4-6.08.31a6.85,6.85,0,0,0-6.28.41l-.53-.42c-2.87.72-6,.13-8.9.33-5.52-.79-11.17.22-16.67-.86-1.54-.35-3,.21-4.57.28l-.6-.72a30,30,0,0,1-8.31.13c-2.9.78-5.9.4-8.86.63-2.47.78-5-.46-7.45,0-1.92.61-3.85-.87-5.76-.23a65.6,65.6,0,0,1-15.58-.91c-.15.19-.46.57-.62.75-2.57-.72-5.1.72-7.72.26-3.73-.74-7.58.1-11.31-.58-4.2.72-8.46.53-12.68.91l-.46-.34c-2.37.7-4.93-.25-7.34-.56a16.45,16.45,0,0,1-6.59.5c-2.36-1.16-5.08-.45-7.52.08-2-.16-4.08-.65-6.1-.15-1.06.32-2.1-.23-3.14-.37-2.58-.39-5.24.2-7.81-.35-2.54,0-5,1.08-7.51.86s-5.33.37-7.85-.57a8.71,8.71,0,0,1-4.88-.11c-.16.17-.47.53-.63.71-2.95-.12-5.93-1.33-8.86-.3-2.72.88-5.22-1.8-7.87-.63a25.2,25.2,0,0,1-9.24.3c-2.19.65-4.42-.15-6.6-.34-5.45,1-10.91.14-16.4.85a33.2,33.2,0,0,0-9.07.1c-1.6.22-3.18-.75-4.73-.09-3-.8-6.28.64-9.23-.71a9.49,9.49,0,0,1-2.76-.74c-2.43.21-5,1.56-7.43.85l-.56-.62c-2.06.26-4.06.75-6.14.9-2.78-.59-5.69.12-8.47-.51-2.12,1.35-4.63,0-6.85.63l-.58.66c-1.9-.45-3.86-.29-5.77-.68-3.17-.31-6.32.85-9.46,0-2.39.46-4.8-.24-7.25,0-1.89.27-3.74-.72-5.6-.12l-.37-.28-.53.37c-2.41.85-4.76-1-7.07.29-1.31-.26-2.59-1.3-4-.63-4.78-.2-9.93,1.52-14.42-.85-.4.27-.81.55-1.19.85-3.58,1.16-7.24-.08-10.85-.29a44.85,44.85,0,0,0-6.44.84c-2.36,0-4.88-.58-7.16-.19l-.47-.28c-2.8,0-5.53-1.64-8.24-.37-4.08-.2-8.24,1.35-12.2,0l-.55-.56a5.94,5.94,0,0,1-2.41-.28,13.57,13.57,0,0,1-9.06.61c-1-.12-2,.56-3.09.16-3-.8-5.93.87-8.95.4a17.3,17.3,0,0,0-7.77.32,54.64,54.64,0,0,0-8.27.72c-.34.13-.67.25-1,.35l-.64-.69c-2.65-.9-5.85,1.13-8.07-1"></path><path class="cls-3" d="M213.69,210.27c-1-1.19-.1-2.58.64-3.62,1.88-1.08,4.14-.8,6.19-1.37s4.08.31,6.13.21a18.43,18.43,0,0,1,9.66,1.09c.9-.44,1.67-1.38,2.76-1.27,2.9.82,5.87-1,8.8-.08,1.2.42,2.38-.4,3.56,0,3.54.67,7.08-.75,10.6,0,2.06.39,4.09-.27,6.14-.34a14.54,14.54,0,0,1,4.54.74,17.34,17.34,0,0,1,6.58,0c2.61.2,5.09-1.44,7.7-.74,2.57.23,5.19.84,7.76.23,1.16-.31,2.29.54,3.46.15,2-.53,4.05,0,6-.45,2.18.17,4.49,1.19,6.63.52l.46.35c2,.14,4-.76,6-.07,2.51.07,5.08-.7,7.59,0,1.53.48,2.87-.76,4.4-.54s3.08-.72,4.59-.11a24.11,24.11,0,0,0,5,1.09c.15-.15.44-.47.58-.62.94-.12,1.88-.53,2.83-.19,3,.34,6.17.16,9,1.37,2.86-1.48,6.11-.53,9.12-1.15,2.42.4,4.9.19,7.34.56l.45.3a11.84,11.84,0,0,1,5.42-.3c1.36.29,2.54-.94,3.88-.47,2.59.24,5.2.76,7.78.13,2.93,1.12,6.08-.27,9.11.65,3.61-1.21,7.59-.56,11.32,0,1.59-.17,3.13-.94,4.77-.58,2.18.6,4.47,0,6.66.45,1.37.46,2.59-.76,4-.5,2.11.28,4.19-.56,6.26,0,2.29.12,5.15-.37,6.82,1.58l.72,0c.16-.31.31-.63.47-1a39,39,0,0,1,5.33-1l.46-.29c1.84.68,3.87.1,5.78.35a29.66,29.66,0,0,0,9.12.28,20.9,20.9,0,0,0,7.23,0c2.16.71,4.59-.31,6.62.87,1.25.69,2.61-.36,3.93.2,2.14-.88,4.52-.16,6.73-.78,1.84.75,3.86.39,5.73.93l.46-.27c3-1,6.11.12,9.17-.62,2.61-.3,5.22.72,7.82.13,2.4-1.51,5.35-.63,8-.5,2.06-.58,4.14.29,6.26,0,4.17.62,8.37-1,12.54,0a9,9,0,0,0,3.89-.25l.46.27c2.4.6,4.88.09,7.29.59,1.5.16,3,.68,4.54.21,2-.67,3.64,1.27,5.58.73,1.76-.42,3.58-.59,5.31-1.17,1,.71,4.42,1.28,2.45,2.83a45.25,45.25,0,0,0-11.82,1.85c-3.71,0-7.36.57-11.05.74-4.28,1.2-8.64-.13-13,.22l-.45.33c-1.63-.59-3.44-.31-5.12-.22-2.32.67-4.63-.24-6.88-.7-1.89-.14-3.82.19-5.67-.29a14.94,14.94,0,0,1-6.37,1.17c-1.76-.63-3.52.32-5.32,0-5.47-1-11,1.18-16.5-.15-3.18.1-6.65.74-9.55-.8-4.39.7-8.91-.06-13.29.61-1.95-.63-4.06-.37-5.94-1.2a9.4,9.4,0,0,1-3.18.61c-1.57,0-3,1.43-4.56.71a7.26,7.26,0,0,0-4.54-.14c-1-.18-2.18-.54-3.15,0-2.25,1.32-4.83-.22-7.23.22-2,.43-4-.43-6-.22-4.43.15-8.78.07-13.22-.07-3-1.32-6.12.47-9.21.08l-.53-.41-.54.42c-2.3-.3-4.57.54-6.82-.08a24.91,24.91,0,0,0-3.16-1.75c-3,1.47-6.36,1.64-9.62,1.49-4.27.27-8.73.86-12.9-.32-1.38.14-2.67.82-4.09.65-7.81-.15-15.69.44-23.42-.78-2,.06-4.45.78-6.06-.79h-.5c-1.68,1.43-4.16,1.31-6.2,1a31.75,31.75,0,0,1-7,.25,14.84,14.84,0,0,0-7.16-.29c-5.7-.27-11.45,1.69-17-.28-1.52-.28-2.93.45-4.41.6-3.47,0-7,.21-10.36-.58-1.86-.58-3.36,1.46-5.18.72-1.65-.51-3.28.54-4.94.11a5.46,5.46,0,0,0-3.15-.47c-2.34.7-4.72-.62-7,.43-4.74-.41-9.6-.08-14.39-.23a5.14,5.14,0,0,1-1.39-.82,10.51,10.51,0,0,1-1.11-.41c-2.51,1.58-5.49.53-8.21,1.32-2.38.66-5-.27-7.25.74-2.05.41-4.19-.17-6.23.42a10.3,10.3,0,0,1-5.88-2.25"></path><path class="cls-3" d="M439.18,389.94a21.06,21.06,0,0,1-1.54-2.94c.09-.18.26-.53.36-.71a26.05,26.05,0,0,1,8.74-1c4.15.93,8.39-.71,12.55.22,6.45-.54,13-.09,19.5-.23,1.77.24,3.41-.53,5.14-.67l.53-.35.52.37c1.36-.19,2.53.7,3.87.65,2.34,0,4.68,0,7,0l.53-.42.54.41c2.49.28,5-.76,7.44-.13.82.3,1.6-.26,2.4-.44a15.11,15.11,0,0,1,5.18.39c2.89,0,5.89.53,8.78-.34,3.43.23,7,.23,10.41.4.26,0,.51-.08.79-.14,3.29.42,6.66.37,10,.71a5.82,5.82,0,0,0,3.87-.39c3-.23,6.09.12,9.12-.16,1.81-.63,3.53.8,5.39.41a50.74,50.74,0,0,1,9.1-1.27c3.54.45,7.13,1.25,10.67.64,7.25-.07,14.58.2,21.75-.28a11.62,11.62,0,0,0,5.28,0,80.3,80.3,0,0,1,11.71.55c4.33-.75,8.66-.41,13-.11,4.88-.37,9.82-.07,14.73-.18l.54.41.53-.41c2.05.33,4.06-.69,6.07-.09,3.1.6,6.08-.62,9.17-.58,1.67-.57,3.33.43,5,.33,2.56-.67,5.26.09,7.83-.5,2-.44,4.08.64,6.13.09a4.3,4.3,0,0,0,.95,0,2.55,2.55,0,0,0,1.42-.13,3.46,3.46,0,0,0,2,.12c3,.39,6.07-.73,9.11-.4,1.48-.3,2.81.68,4.26.83,2.29-.24,4.62-1.25,6.93-.67a6.49,6.49,0,0,1,4,.1c1.71.7,3.4-.53,5.15-.38,2.71.11,5.46-.24,8.14.31,2.15.23,4.23-.49,6.35-.61,2.58.56,5.23.21,7.85.32,2.24.17,4.49-1.32,6.68-.32l.31-.2c3.52.09,7.14,1.09,10.58-.09,2.63-.09,5.28.74,7.91.07,2.11-.09,4.2-.43,6.31-.5,3.57-1.13,7.34-.32,11-.08,2.38,1,4.85-.19,7.3-.18,2.45-.58,5.78-.05,6.77,2.61a7.22,7.22,0,0,0-.22,2.07c-1.91,1.81-4.62,2.12-7,2.75-1.92-.4-3.88-.44-5.8-.78s-3.61.77-5.38.07c-2.27.56-4.66-.08-6.92.55a20.45,20.45,0,0,0-5.12-.3l-.46-.33c-1.73.69-3.66,0-5.43.6-2.29-.41-4.63-.53-6.92-.83-2.09.7-4.24.2-6.29.47a7.92,7.92,0,0,0-4.5.07l-.46-.31c-3.63,1.07-7.43-.64-11.1.28-3.53-1.06-7.11,1-10.64.08a39.88,39.88,0,0,1-7.87-.64c-1.74-.45-3.39,1.11-5.08.35-1.34.61-2.72-.22-4.1-.08-5.35-1.06-10.79,1.53-16.11.32l-.45.3c-1.49-.22-2.76.91-4.23.61-2-.42-4-.55-5.92-1.16-3.43.93-6.94-.66-10.36.22a29.06,29.06,0,0,1-8.38-.09,25.29,25.29,0,0,0-4.24.67c-3.13.31-6.31-.25-9.41.38a24,24,0,0,1-9.74-1.24c-3.9.88-8,.71-12,1.17-2.85-.71-5.73.37-8.58.36-3.3-1-6.68.62-10-.22-11.62-.47-23.24,1.59-34.74-.69-2.86,1.32-6.08.13-9,.88-1.36-.63-2.74.29-4.13.07-1.82-.29-3.65-.56-5.49-.78-4.07,1-8.32,0-12.42.79-3.84-1.15-7.92,1.54-11.65-.29-2.28.16-4.65.74-6.89.35-2,.77-4-.61-6,.15-3.78.09-7.63.43-11.34-.46-.92-.23-1.81.49-2.72.11-1.43-.55-2.77.59-4.22.45-1.95-.44-4-.24-5.93-.65-2.92.25-5.92.67-8.82,0-1,.16-2,.59-3,.77-6.16-1.27-12.54-1-18.73-.17a11.15,11.15,0,0,1-5.4-1.23,8.45,8.45,0,0,1-5.3.31,18.47,18.47,0,0,1-7.22-.08"></path><path class="cls-3" d="M540.66,507l.54-.52c1.45,0,2.81-.92,4.25-.41,2.17.58,4.21-1.06,6.33-.29,2.4-.57,4.84-.17,7.25,0,4.91-.92,9.92.23,14.77-.25,4.16.86,8.42-.81,12.58.2,3.1-.64,6.31.1,9.41-.57,2.43-.08,4.87,0,7.31,0,3.74-.69,7.54-.14,11.29.09,4.85,1.8,9.91-.14,14.88-.09l.53.42c.1-.07.29-.21.38-.29a17.39,17.39,0,0,0,6.63-.12c.11.09.34.25.46.33,2.67,0,5.36,0,8,0l.45.33c2.79-.94,5.76.26,8.57-.32,2.61.08,5.26-.23,7.84.3,2.44.35,4.83-.95,7.24-.32,2.22.08,4.45,0,6.67,0,4,.85,7.92-.71,11.92-.34,3.11.56,6.28-.51,9.41.3,2.19-.44,4.31,1.24,6.38.16,1.93-.39,4,.15,5.88-.41,2.35-.12,4.68.54,7.05.26l.54.42.54-.42c3.26.14,6.42-.88,9.69-.73,3.1,0,6.2.91,9.27.14,3.56.61,7.27-.2,10.7,1.22a16.55,16.55,0,0,1,7.88-.34c1.83-.53,3.77,0,5.61-.55,1.5-.41,3,.63,4.44,0,1.66.62,3.38-.08,5-.3,7.15-.34,14.25-1.39,21.43-1.35,1.81,0,3.08,1.57,3.72,3.12.38,1.75-.72,3.3-2,4.39-2.26.77-4.62.27-6.83-.38s-4.07.53-6,1.06l-.32-.18c-1.66-.05-3.31-.52-5-.69-3.07.06-6.39.17-9.4-.66a11.92,11.92,0,0,1-9.82-1,20.15,20.15,0,0,1-6,1.22,16,16,0,0,0-5.89-.07c-3.39-.67-6.78.21-10.16.09-2.69-.61-5.47,0-8.15-.58-2.21.72-4.44-.09-6.66,0a9.73,9.73,0,0,1-6.19.66,45.4,45.4,0,0,1-8.32-.55c-1.85-.59-3.37,1.28-5.26.84-3.44-.59-6.95-.2-10.42-.39-2.25-.6-4.62.1-6.86-.54a14.64,14.64,0,0,0-6.32-.06c-1.83-.75-3.69.43-5.53-.13a18.09,18.09,0,0,1-7,.54c-1.48.24-3.07,1-4.52.24l-.45.31c-1.66.07-3.29.53-4.86-.28-1.31-.78-2.71.21-4-.24-2.71-.34-5.49.22-8.18-.32-4.86-.37-9.78.16-14.57.08-3.32.72-6.73-.94-10,.31-1.59.11-3.17.38-4.75.42-2.49-.78-5,.27-7.52,0-4.56-.79-9.25.15-13.82-.63-3.5-.26-6.93.92-10.43.6-1.29-.22-2.56-.86-3.89-.48-5.78-.69-11.75.7-17.47-1a22.87,22.87,0,0,1-6,.86c-2.52-.48-4.77-1.77-7.24-2.39a6.91,6.91,0,0,1-5.12-.76"></path><path class="cls-3" d="M563.53,208.73c-.3-.29-.59-.59-.88-.89.13-.14.4-.4.53-.53,1.33-.38,2.57-1.21,4-1.07,1.93-.16,3.84.75,5.76.16a7.22,7.22,0,0,1,4.27.49c2.16-.07,4.57-.95,6.53.42,2.52.81,5.08-.71,7.66-.42,4.45-.41,9-1,13.39-1.09l.28,0c1.63.14,3.27.76,4.89.2,2.6.91,5.25.25,7.89,0a8.45,8.45,0,0,0,4.38,0c3.88.79,7.87-.18,11.74.31l.45.28c4.39-1.6,8.86.8,13.3-.26,2.69.54,5.45.15,8.18.28,2.27.15,5-1.27,6.88.64,2.31-1.49,5.06-.64,7.59-1.28a23.79,23.79,0,0,0,8.16,0c3.93-.34,7.75.93,11.67.62,1.64-.22,2.76,1.52,4.4,1.28a8.93,8.93,0,0,0,2.82-.9c1.6-.19,3.32.27,4.77-.65,2.08-1,4.22.33,6.34.3l.45.29a28.37,28.37,0,0,1,8.28-.3,51.35,51.35,0,0,1,16,0c5.16,0,10.35.25,15.45-.52,1.58-.32,3.28.26,4.8-.4l.45.28c3.9.87,7.91-.58,11.71,1,2.65-.43,5.68.2,7.81-1.88,2.58-.41,5.39,1.2,7.73-.51,2.26-.24,4.6-.26,6.85-.69,1.94.24,3.37,1.65,4.74,2.91.09,1.8-.61,3.76-2.45,4.36-2.78.61-5.62,1.59-8.51,1-2.12-.49-4.31-.7-6.4-1.3-3.49-.64-7,.63-10.41.76-3-1.13-5.86,1.4-8.78.31a18.25,18.25,0,0,0-6.59,0c-1.27-.42-2.64,0-3.89-.49-2.08-.75-4.34,0-6.45-.64a29.08,29.08,0,0,0-6.61.86c-2.21.21-4.47-.25-6.64.32-2.53.87-5.13-.45-7.71.15-2.18-.4-4.5.33-6.6-.53a5.61,5.61,0,0,0-3.27.06c-2.74.18-5.5-.12-8.23.14-2.92.82-5.9-.8-8.8-.14a74.68,74.68,0,0,0-13-.23,26.3,26.3,0,0,1-5.93.6c-1.83.13-3.54-.8-5.36-.65-2.62.4-5.28-.15-7.9-.29-4.69,1.63-9.63-.45-14.39.59-3.06-.11-6.12.81-9.16.12-2.75-.35-5.62.35-8.28-.65-1.83-1-3.86.47-5.78-.22-1.45-.55-2.81.37-4.18.71-2,.2-4-.06-6,.11-4.29.91-8.62-.68-12.92.16-2.38-.48-4.88.18-7.2-.69-1.57-.58-3.15.46-4.7,0-1.21-.14-2.4-.36-3.59-.58-2.59.56-5.14-.34-7.73-.16-2,.31-3.61-2-5.64-1-2-.31-4.17-.17-6.21-.65"></path></g></g></g></svg>