<svg fill="currentColor" xmlns="http://www.w3.org/2000/svg" viewBox="0 0 1000 1000"><g class="cls-1"><g id="Shapes"><g id="Shape_108" data-name="Shape 108" class="cls-2"><path class="cls-3" d="M484.1,200.36c6-.7,12-.13,18-.29,5.25.17,10.54-.34,15.77.21,2.11.21,4.29.16,6.41.47,1.86.17,3.79.14,5.67.38,5.89,1.09,11.86,1.71,17.82,2.36,10.06,2.26,20.34,3.37,30.24,6.37l.65.69c3.43.22,6.61,1.61,9.87,2.55l.66.7c3.15.74,6.42,1.24,9.44,2.49a32.72,32.72,0,0,0,8.22,2.8l.67.64a132.41,132.41,0,0,1,14.06,5.68c4.55,2.31,9.33,4.2,13.65,7,2,1.21,4.48,1.68,6.21,3.38,3.64.93,6.34,3.92,9.72,5.44,2.32.9,4.14,2.65,6.34,3.77,2.16,1.31,4.39,2.52,6.43,4,1.83,2.23,5.08,2.73,6.87,5,4.35,1.9,7.56,5.61,11.43,8.27a21.15,21.15,0,0,1,5.93,5.09c3.25,2.18,6,4.95,9.08,7.39,2.5,1.76,4.24,4.32,6.73,6.09,4.54,4.45,8.75,9.3,13.65,13.38,0,.3.1.9.14,1.21,1.73.84,2.71,2.49,3.83,4a30.84,30.84,0,0,1,5,5.49,12.27,12.27,0,0,1,1.88,2.23,3.4,3.4,0,0,0,1.55,2.15c2.74,2.47,4.67,5.65,7.11,8.4.43,1.65,1.68,2.86,2.77,4.12,5.86,8,11,16.5,16.39,24.83.46,1.07.94,2.15,1.34,3.26a36.75,36.75,0,0,1,4.64,8.16,25.43,25.43,0,0,1,2.9,5.33c.86,2.13,2.3,4,3,6.25l.65.67c.07.28.2.85.26,1.14a69.79,69.79,0,0,1,6,13.69c1.62,2.34,1.66,5.38,3.25,7.71.29,1,.55,1.94.75,2.93l.64.66c.44,2.31,1.36,4.49,2,6.75a137.48,137.48,0,0,1,4.89,14.29c1.35,4.58,1.92,9.38,3.48,13.9,1.11,7.27,3.23,14.35,4,21.68.61,4.07,1.13,8.15,1.48,12.26,1.62,5.34.93,11,1.34,16.43l.48,6.46a216.78,216.78,0,0,1,0,22.37c-.34,3.84-.14,7.71-.41,11.56-.79,5.29-1.19,10.62-1.9,15.92,0,3.17-1,6.2-1.26,9.35l-.74.58c.51,6-1.87,11.71-2.61,17.6-1.72,7.15-3.7,14.24-5.73,21.31-1.2,2.67-1.53,5.62-2.66,8.32-1.25,2.86-1.77,6-3.08,8.83-1.15,2.53-1.66,5.38-3.32,7.66-.1.53-.17,1.06-.24,1.61l-.68.65a76.66,76.66,0,0,1-3.74,9.56,4.82,4.82,0,0,1-1.18,1.58,51.24,51.24,0,0,1-5,11,29,29,0,0,1-2.95,5.31l-.37,1a5.83,5.83,0,0,0-1.45,2.74c-3.27,5.94-6.88,11.69-10.43,17.48-.4.19-.81.4-1.2.62,0,.59,0,1.18,0,1.78l-1.6,1.12c-1.23,3.61-4.15,6.28-6.23,9.38-1.79,2.18-3.22,4.68-5.32,6.57-.07.29-.2.85-.27,1.13a71,71,0,0,1-4.36,5.7c-2.48,2.58-4.46,5.58-6.95,8.15-1,1.47-2.74,2.16-3.6,3.74-2.72,4.08-6.62,7.12-9.79,10.83l-1.12.23c-1.64,2.73-4.27,4.59-6.23,7.06-1.78,2-4.61,2.6-6.2,4.8-1.86,2.41-4.55,4-6.52,6.3-4,3.78-8.62,6.95-13,10.33-3.79,2.62-7.31,5.73-11.49,7.75a35.45,35.45,0,0,1-5.71,4.33c-5.59,3-10.76,6.66-16.24,9.83-.69.21-1.55.23-1.89,1-.49.08-1,.18-1.46.28a28.51,28.51,0,0,1-6,3.59,145.89,145.89,0,0,1-19.54,8.85,6.2,6.2,0,0,1-3.35,1.26l-.68.63c-3.79.59-6.82,3.42-10.62,4-1.42-.29-2.23.71-3.17,1.42-4.3,1.12-8.66,2.2-12.84,3.64l-1.11.26-.64.7a48.33,48.33,0,0,0-6.22,1.16c-.17.17-.48.51-.64.69-2.83.26-5.75.41-8.33,1.73-3.37,1.6-7.13,1.71-10.76,2.09l-.59.75c-8,.29-15.88,2.52-23.81,3.62a13.38,13.38,0,0,0-4.79.73c-7.57.86-15.24.38-22.82.94a215.77,215.77,0,0,1-22.89-.05q-4.49-.25-9-.23c0-.21,0-.64,0-.85-7.55.17-14.86-2-22.38-2.41l-.55-.81c-1.94-.07-3.84,0-5.76-.12-.09-.17-.26-.53-.36-.7-3.59-1-7.62.14-11-1.8a56.39,56.39,0,0,1-7.09-2.07c-3.2-.61-6.4-1.19-9.58-1.92l-.61-.71c-3.45-1-6.78-2.46-10.36-3-4-1.19-7.81-3.07-11.87-4.15-.21-.4-.43-.78-.64-1.15-2.4.24-4.46-1-6.69-1.62l-1.16-1.06c-3-.27-5.44-2.14-8-3.47-1.55-1-3.57-1.08-4.93-2.39a64.82,64.82,0,0,1-9.9-4.76c-1.71-1-4.11-1.27-5.14-3.16-.52-.09-1-.17-1.56-.23-.37-.41-.74-.79-1.11-1.18-.84-.23-1.66-.49-2.48-.74-3.42-2.47-7.31-4.22-10.75-6.65-4.66-3.65-10.06-6.29-14.44-10.29-7.65-4.46-14.12-10.57-20.86-16.24-3.45-2.63-6.09-6.16-9.65-8.67-3.31-2.48-5.84-5.77-8.72-8.68-1.89-2.09-4.27-3.74-5.73-6.19-4.59-3.67-7.83-8.64-11.78-12.93-.08-.26-.23-.79-.3-1-1.4-.9-2.13-2.51-3.19-3.71a150,150,0,0,1-14.85-20.83,6.8,6.8,0,0,1-.66-1.7,15.65,15.65,0,0,0-1.56-1.15c-2.41-3.74-4.78-7.51-6.89-11.43a34.54,34.54,0,0,1-3.52-6.56c-4-6.08-6.43-13-9.81-19.46a16,16,0,0,1-2-5.83l-.72-.62-.16-1.21-1.22-.59c.27-2.35-1.1-4.31-1.89-6.37-.89-1.67-1.07-3.63-2.06-5.25a81.9,81.9,0,0,1-2.82-7.72c-1.67-8.13-4.81-15.88-6.73-23.95-1.58-3.36-1.31-7.27-2.51-10.76-1.85-4.76-1.49-10-3-14.82-.18-1.31-.22-2.42-.44-3.67-.11-4.94-1.23-9.76-1.86-14.64-.28-3.26,0-6.55-.32-9.8-1.11-3.58-.74-7.39-.79-11.08.13-6.33-.22-12.68.25-19,.49-4.81-.13-9.68.71-14.45.35-2,.44-4.11.7-6.15.11-5,1.25-9.85,1.76-14.8a28.66,28.66,0,0,0,.84-7.39l.79-.55a63.4,63.4,0,0,1,2-11.3l.69-.65c.29-2.89,1.24-5.65,1.61-8.51.28-1.07.16-2.36,1.08-3.1.74-6.3,3.64-12.05,5.17-18.16,1.83-4.78,3.49-9.62,5.28-14.42.16-.17.47-.51.63-.67.41-3.23,2.71-5.78,3.56-8.88.68-2.25,2.26-4.15,2.72-6.47l.59-.7A14.28,14.28,0,0,1,233,369c.77-1.9,1.33-3.94,2.74-5.49a8.74,8.74,0,0,1,1.85-3.19,18.79,18.79,0,0,1,3.67-6.92c.13-.46.27-.92.4-1.38,1.11-1.18,1.44-2.84,2.28-4.18,1.44-2.36,3.15-4.53,4.5-6.93.89-1.38,1.45-3.06,2.86-4,.87-2,2.37-3.57,3.21-5.54a11.35,11.35,0,0,1,2.39-2.64c0-.29.14-.86.2-1.15.41-.2.83-.4,1.26-.58,2.81-5.72,7.1-10.54,11.11-15.45a127.58,127.58,0,0,1,8.53-9.78c2.53-3.25,5.89-5.77,8.26-9.15,1.54-2.09,3.85-3.46,5.47-5.52,2.46-3.18,6.1-5.19,8.65-8.29,1.85-2,4-3.66,5.87-5.57,1.75-1.65,4.11-2.56,5.6-4.48a19.73,19.73,0,0,1,3.37-2.59c4.54-4.56,10.09-8,15.35-11.65l1-.34c1.28-1.95,3.66-2.73,5.35-4.29l1.69-.14c.2-.41.41-.81.61-1.22,1.7-1,3.85-1.51,5.15-3.1,2.89-1.7,5.68-3.56,8.68-5.07,1.41-1.14,3.21-1.61,4.72-2.59,1.29-.74,2.39-1.86,4-1.91a7,7,0,0,0,.93-1c1.4-.69,3.28-.82,4.08-2.34,1.35-.65,2.73-1.25,4.14-1.78a6,6,0,0,1,2.41-1.3l.69-.57c.71-.19,1.68-.08,1.92-1l1.56-.17.68-.67c1.78-.58,3.41-1.54,5.16-2.23a54.26,54.26,0,0,1,5.77-2.45,66.22,66.22,0,0,1,8.49-3.4c3.33-.67,6.09-3,9.55-3.31,2.81-1.62,6.2-1.81,9.1-3.22,2.56-.56,5.27-.73,7.65-1.93a36.33,36.33,0,0,1,3.89-1.16c4.11-1.77,8.75-1.89,13.06-3,2.58-1.05,5.42-1,8.13-1.46.16-.19.45-.57.6-.76A82.42,82.42,0,0,0,459.82,203c4.38-1.15,8.95-.92,13.4-1.67,3.59-.59,7.31-.13,10.88-1m4.12,2.24c-5.27.21-10.53.26-15.78.71l-.58.79c-4.12.45-8.36.18-12.36,1.35a122.08,122.08,0,0,0-14.36,2.1l-.89.55a27.33,27.33,0,0,1-5.74,1.1c-3.17-.07-5.93,1.9-9.09,1.91l-.63.69c-5.8.48-11.15,2.92-16.74,4.32a4.39,4.39,0,0,0-2.2,1,8.73,8.73,0,0,0-3.17.91,27.19,27.19,0,0,0-8.71,3.15c-2.81.59-5.39,1.92-8,3a10,10,0,0,0-3,1.6c-1.87.15-3.42,1.15-5.12,1.77-.18.14-.54.43-.71.58-2.16.1-3.61,2.1-5.79,2.09-.22.36-.44.74-.65,1.11a31.42,31.42,0,0,0-7.46,3.52c-1.35-.24-2,.67-2.72,1.46-1.09.43-2.16.91-3.26,1.31a17.45,17.45,0,0,1-4.61,2.72c-.73.63-1.49,1.24-2.17,1.92l-1,.39c-3.2,1.78-6.48,3.45-9.52,5.53a9.07,9.07,0,0,0-3.27,1.78c-2,1.32-3.91,2.88-6,4.1l-.66,1.16-1.72.1c-1.26,2.56-4.18,3.48-6.28,5.17-4.21,2.9-8.2,6.1-12.14,9.37a5.63,5.63,0,0,1-2.63,1.55,23.76,23.76,0,0,0-1.74,1.88,13.72,13.72,0,0,0-1.34,1.41l-1.85,1.34c-1.19,1.7-3,2.77-4.52,4.18-.9.84-2.35,1-3,2.07-1.28,2.32-3.59,3.73-5.33,5.65-6.47,5.92-12,12.76-17.7,19.41-.32,0-1,.05-1.28.08,0,.31-.1.93-.14,1.24-1.49,1.85-2.85,3.89-4.83,5.26l-.29,1a21.61,21.61,0,0,0-2.46,2.6c-.06.29-.19.85-.25,1.13-.47.61-.89,1.26-1.31,1.9l-1.25.12c-.05.28-.17.83-.23,1.11-1.58,1.83-2.12,4.51-4.23,5.9l-.32,1c-1.42,1.79-2.72,3.67-4.14,5.47-.94,1.11-1.15,2.69-2.34,3.62-1.21,2.77-3.15,5.14-4.63,7.76-.1.23-.32.69-.43.92-1.32,1.93-2.9,3.78-3.63,6l-.64.7c-.08.26-.22.79-.3,1.05a10.45,10.45,0,0,0-1.39,2.29c-1.64.91-1.78,3-2.3,4.57a13.14,13.14,0,0,0-1,1.37c-1.38,2.62-2.08,5.56-3.84,8-1,1.15-.86,3-2.13,3.89-.07.27-.19.81-.25,1.07l-.77.63-.21,1.55-.5.48c-1.29,3.13-2.2,6.42-3.91,9.36a34.9,34.9,0,0,0-2.48,7.65l-.65.67c-1.06,3.63-2.45,7.15-3.42,10.81l-.73.61c-.28,1.66-.68,3.27-1.05,4.92l-.8.57a49.81,49.81,0,0,1-2.81,10c-1.08,5.61-3.22,11.09-3.39,16.84l-.67.63c-1.26,9.54-4.09,18.89-4,28.57-.26,1.36-.37,2.68-.52,4.07-.2,2.58-.21,5.17-.43,7.76-.12,5.45-1.42,10.8-1.17,16.27.07,5.41-.2,10.83.25,16.23.19,8.33,1.24,16.61,1.63,24.94l.78.57c-.16,3.78,1,7.39,1.26,11.15,1.2,5.3,1.29,10.83,3.13,16,.71,5,2.38,9.83,3.07,14.84l.75.59c0,.77.08,2.32.1,3.1l.8.59c.57,1.91.19,4.14,1.56,5.73,1.72,5.5,3.78,10.92,5.6,16.39,1,2.27,1.23,4.85,2.61,7a26.51,26.51,0,0,0,1,2.65c.77,2.81,2.62,5.15,3.61,7.88.79,2.29,2.27,4.24,3.13,6.51,2.13,4.67,4.8,9.06,6.77,13.81.46,1.22,1.93,1.33,3,1.38.91-1.35,2.21-2.55,2.29-4.3a30.59,30.59,0,0,1,1.82-2.76c.05-.29.15-.86.21-1.14.4-.21.82-.41,1.23-.59.08-.54.16-1.08.25-1.6,1.68-2.35,2.75-5.09,4.5-7.4a48.57,48.57,0,0,0,3.55-6.13c.59-2.14-1-3.7-1.59-5.55s-1.81-3.25-2.26-5.07a29,29,0,0,1-1.84-4.06c-.44-3.65-3.16-6.47-3.68-10.1-1.73-2.87-2.45-6.21-3.45-9.37l-.72-.63a18.94,18.94,0,0,0-1.12-4.84l-.67-.68c-1.24-5.07-2.8-10.07-3.57-15.24-1.09-3.91-1.82-7.9-2.71-11.85l-.56-.48a26.59,26.59,0,0,0-.81-5.05c-1.32-7.6-2.13-15.26-2.73-22.94-.4-3.66-.75-7.33-.92-11-.25-1.82-.29-3.68-.49-5.48a39.1,39.1,0,0,1,.07-7.8c.6-5-.09-10.09.48-15.1.38-3.9-.15-7.93,1.08-11.7.93-11.15,3.11-22.12,5-33.13.29-1,.72-2,1-3.1,1.5-7,3.66-13.91,5.82-20.77.92-1.38,1-3.1,1.32-4.68l.7-.62c0-3.5,2-6.47,3.15-9.68a48.11,48.11,0,0,1,2.37-5c1.13-2.82,1.81-5.85,3.43-8.45.23-1.11.5-2.48,1.56-3.11.08-.52.17-1,.24-1.54l.66-.68a8.49,8.49,0,0,1,1.37-2.78c.11-.51.22-1,.34-1.53,2.81-4.34,4.88-9.12,7.45-13.61,1.22-1.58,1.74-3.62,3.17-5.07l.45-.91a6.48,6.48,0,0,0,1.81-3.74,16.78,16.78,0,0,0,1.84-2.71c.54-.37,1.06-.75,1.6-1.13,0-.6,0-1.19.05-1.78.41-.21.82-.42,1.24-.61a28.18,28.18,0,0,1,2.23-3.74c.06-.28.17-.84.22-1.13l1.25-.59.16-1.19c.53-.55,1-1.12,1.59-1.64l.37-.95a7.66,7.66,0,0,0,.94-1.45,50.22,50.22,0,0,1,3.25-4l.33-1c3.5-3.55,6.1-7.95,9.78-11.3.08-.27.22-.8.29-1.06,3.13-3.13,5.95-6.57,9.23-9.55,1.48-1.15,2.24-2.93,3.61-4.18a180.22,180.22,0,0,1,15.53-14.23c2.39-1.7,4.2-4.07,6.63-5.74,2.92-2.45,6.61-4,9.13-6.9,1.57-1.35,3.29-2.49,5-3.68,2.25-.38,3.25-2.56,5-3.78l1.17-.21a32.61,32.61,0,0,1,4.41-3.32,5.35,5.35,0,0,0,2.36-1.37l1-.39c.52-.55,1.08-1,1.63-1.58l1.23-.15.66-.66c2.3-.66,3.81-2.77,6.07-3.56,1.25.25,2.09-.63,2.73-1.47l1-.35c2.49-1.59,5.31-2.58,7.9-4a30.16,30.16,0,0,1,5.9-2.36l1.12-1.14,1.15-.22c1.4-1.69,3.77-1.67,5.61-2.64a48.21,48.21,0,0,1,7.85-3.56c4.16-1.23,8-3.31,12.27-4.26,2.47-1.21,5.17-1.78,7.74-2.73,1.72-.71,4-.61,5.37-2,3.68-.68,7.25-1.84,10.87-2.81,4.27-.72,8.48-1.79,12.77-2.37,3.43-.58,6.68-2,10.17-2.17,5-.56,10-1.09,14.94-1.55,2.2.07,4.15-1.2,6.37-.95a12.09,12.09,0,0,0,2.55-3.4c.77-1.77,2.4-3.15,2.69-5.12q.56-.34,1.14-.66a54.6,54.6,0,0,1,6.24-12c.18-1.92,2-3.17,1.78-5.19a78.16,78.16,0,0,0-9.44.21m17.74-.19c-.92.43-.74,1.64-.24,2.33q3.64,5.85,6.76,12a11.44,11.44,0,0,1,1.37,2.31,10.63,10.63,0,0,1,2.25,3.71c1.06,1.59,1.47,3.58,2.78,5l.24,1.12c3,1.08,6.22.93,9.36,1.2,4.78.58,9.56,1.28,14.36,1.65,2.54-.24,4.64,1.48,7.13,1.6,2.86.63,5.78.94,8.68,1.4,8.2,1.83,16.17,4.63,24.42,6.29l.64.67c2.53.59,5,1.57,7.48,2.21a6.75,6.75,0,0,0,3.76,1.28l.67.61a17.82,17.82,0,0,1,3.81,1.29,14.17,14.17,0,0,0,2.66,1,35.51,35.51,0,0,0,6.11,2.63l.71.57c2.25.3,3.86,2.15,6,2.74a6.25,6.25,0,0,0,2.76,1.37c2.67,1.87,5.92,2.77,8.63,4.61l1.15.25.61.76,1.56.25c1.81,1.61,4.25,2.37,6,4.12,2.56.38,4.33,2.41,6.47,3.64,3.94,3,8.59,5,12.28,8.31a12,12,0,0,1,3.52,2.45L659,280c7,5.88,14.46,11.11,21,17.41,2.37,2.34,4.63,4.82,7.2,7a2.18,2.18,0,0,0,1.93,1.81c3.13,3.42,6.34,6.75,9.51,10.13,2.27,1.74,3.84,4.11,5.48,6.41,1.73,1.5,2.74,3.67,4.56,5.08.48.58,1,1.14,1.51,1.69,0,.29.16.87.22,1.16,4.56,4.67,8.06,10.24,12.12,15.34,0,.56.11,1.12.17,1.68.52.38,1,.77,1.61,1.13,2.89,4.86,6.33,9.4,8.85,14.49,1.66,3.47,3.78,6.7,5.37,10.21.91,1.93,2.31,3.61,3.06,5.63a16.09,16.09,0,0,0,1.92,4c.06.29.19.86.26,1.15l.68.63c.83,3.81,3.85,6.85,4.4,10.79l.62.67c.11,2.27,1.86,4,2.12,6.21l.67.64A87.54,87.54,0,0,0,755,412.1c.28,1.09.58,2.19.84,3.31,1.56,2.1,2,4.76,2.8,7.22.63,3.84,2.35,7.42,2.94,11.28,1.24,7,3.53,13.73,4.43,20.77a39.64,39.64,0,0,1,1.26,10.17,90.51,90.51,0,0,1,1.42,12.29c1.52,4.41.09,9.23.86,13.78a69.9,69.9,0,0,1,0,11.93c-.65,5.16.12,10.39-.47,15.57-.33,2-.3,4-.46,6-.53,3.77-1,7.57-1.47,11.36-1,2.93-.45,6.12-1.38,9.08a110.36,110.36,0,0,1-3.06,14.84c-1.1,5.71-2.58,11.34-4.13,16.94-.72.92-1.74,1.74-1.49,3.15A95.23,95.23,0,0,1,754.4,589a31.43,31.43,0,0,0-2.37,6.79c-1.1,1.1-1.33,2.64-1.89,4a27.28,27.28,0,0,1-2.76,6.4c-1.2,3.31-2.93,6.39-4.13,9.69-1.34,2.06-3.43,5.39-.87,7.28.12.46.24.93.38,1.4a23.75,23.75,0,0,1,4.59,8.23c2.55,2.47,3.59,6,6,8.69l.4,1a21.17,21.17,0,0,1,1.38,2.41c1.58.7,2.36-.66,3.29-1.48a7.17,7.17,0,0,1,1.37-3.22c.1-.24.31-.73.42-1,1.75-2.52,2.84-5.41,4.23-8.12.86-1.72,1.36-3.66,2.71-5.09a40.46,40.46,0,0,1,2.73-6.87c.1-.26.31-.77.41-1A88.15,88.15,0,0,0,774.31,608c1.31-3.18,2.85-6.3,3.6-9.68.76-3.08,2.27-6,2.84-9.08l.65-.64a95.83,95.83,0,0,1,2.53-9.87c4.84-17.34,7.55-35.17,9.85-53,.2-3.36.14-6.72.42-10,.12-1.62.37-4.85.49-6.46a56.23,56.23,0,0,0,0-10.54c-.62-5.16.17-10.39-.45-15.53-.52-3.82-.7-7.67-.89-11.51-.68-6-1.29-12.05-2.05-18.06-.94-4.83-1.64-9.7-2.33-14.57l-.76-.6a30.07,30.07,0,0,0-1.17-6.59c-1.62-6.6-3.39-13.15-5-19.73-.59-1.16-.88-2.43-1.39-3.6-1.63-5.43-3.49-10.79-5.4-16.13-1.08-3.26-3-6.22-3.74-9.59-.87-1.61-1.46-3.34-2.3-5-1.78-4.12-3.53-8.25-5.68-12.18-3.93-8.73-9.42-16.64-14-25a109.19,109.19,0,0,1-8.6-13.32l-1.2-.64c-.05-.29-.16-.87-.21-1.15a16.16,16.16,0,0,1-2-2.19,143.22,143.22,0,0,0-11-14.15,15.4,15.4,0,0,1-2.63-3.82c-1.88-1.79-3.95-3.42-5.21-5.74-1-2.46-3.82-3.21-5.19-5.35-1.75-2.64-4.43-4.41-6.5-6.77a30.5,30.5,0,0,0-6-5.46c-1.66-2.45-3.55-4.88-6.4-6-2.6-3.22-6.4-5.19-9.14-8.28A16,16,0,0,1,682.3,265l-1.09-.25c-.49-.74-1-1.46-1.51-2.16l-1.11-.21a3.84,3.84,0,0,0-1.43-1,32.62,32.62,0,0,1-4-3.27l-.9-.38a3,3,0,0,0-1.53-.89c-.42-.47-.83-.95-1.2-1.45-5.91-2.84-10.76-7.45-16.52-10.52-1-2.06-3.89-1.36-5-3.24-1.85-.4-3.33-1.64-5.08-2.29a7.85,7.85,0,0,0-3.26-1.78c-.39-.37-.76-.74-1.12-1.12l-1.22-.17-.67-.66c-3.86-1.78-7.51-4-11.53-5.46-1.48-1.66-3.89-1.57-5.76-2.51-3.75-1.73-7.64-3.21-11.3-5.14-3.89-.73-7.15-3.16-10.93-4.21-2.62-.62-4.91-2.26-7.63-2.44-3.14-.18-5.76-2-8.76-2.7-2.1-.59-4.33-.67-6.37-1.46-4.5-1.64-9.34-2-13.88-3.55A21,21,0,0,0,558.7,207l-.32.84c-8-.55-15.59-3-23.49-3.82-5-1.16-10.22-.51-15.31-.71l-.52-.86c-4.38,0-8.74-.12-13.1,0m-5.2,1.76c-.22.56-.43,1.12-.63,1.69a7,7,0,0,0-1.83,3.24l-.66.66c-.05.29-.16.88-.21,1.18a29.32,29.32,0,0,1-2,2.6c-.11.5-.21,1-.3,1.51-.52.55-1,1.11-1.51,1.68-1.25.82-1.33,2.37-1.91,3.62-.62,1.56-2.1,2.58-2.71,4.14a25.47,25.47,0,0,0-1.17,3.91c5,.11,10-.08,15,.25a100.25,100.25,0,0,0,11.5.27l.5-.64.13-2-.93-.55c0-.6,0-1.19,0-1.79l-1.27-.57-.27-1.54c-2.38-2-3-5.22-4.6-7.77-.27-.78-.54-1.55-.86-2.31-2.44-1.92-2.79-5.29-4.94-7.46l-1.32-.08m-1.85,27.48c-4.58.07-9.15,0-13.72,0a22.7,22.7,0,0,1-3.18,5.06c-1.25,1.34-1.53,3.24-2.63,4.68-.07.29-.19.86-.26,1.14s-.56.47-.76.62l-.25,1.08a9.79,9.79,0,0,0-1.8,2.77,12.19,12.19,0,0,1-1.09,1.29c-.08.52-.16,1-.22,1.56l-.76.62c-.2.88-.43,1.74-.6,2.63,3.86-.07,7.9.53,11.64-.74,3.7-.23,7.41,0,11.12-.37a25,25,0,0,1,5.47,0c2.43.26,4.89.26,7.35.46,3.17.26,6.36.24,9.55.49s6.46.7,9.72.63l.61-.5a20.42,20.42,0,0,0-1.15-3.79c-2-2.43-3.22-5.42-4.6-8.22-1.28-1.35-1.55-3.27-2.51-4.8a20.73,20.73,0,0,0-2.16-2.42c0-.58-.09-1.16-.12-1.73-4.47-1.12-9.15-.91-13.71-1.32-2.09-.28-3.84,1.26-5.94.82m-23.62.65c-7,.22-13.75,2.3-20.73,2.63-.15.18-.46.52-.62.69a29.41,29.41,0,0,0-9.35,1.63c-7.83,1.82-15.72,3.49-23.35,6-2.14,1.14-4.62,1.32-6.82,2.28-1.57.57-3.12,1.22-4.71,1.74l-.67.63c-2.89.34-5.44,1.9-8.08,3-2.76,1.43-5.77,2.32-8.51,3.79a72.91,72.91,0,0,0-9.61,4.15l-1,.42c-1.12,1.18-2.76,1.53-4.14,2.29a15.15,15.15,0,0,1-2.83,1.32l-.68.64-1.07.3c-2.82,1.56-5.24,4-8.34,5l-.63.68-1.76.08c-.21.41-.41.82-.61,1.23-2.37,1.66-5.75,2-7.41,4.51l-2.32,1.3c-1.35,1.82-3.73,2.35-5.52,3.63-1.26,2-3.75,2.66-5.46,4.19l-1,.34c-2,1.61-4.44,2.95-5.72,5.28l-1.14.2c-.35.57-.71,1.12-1.09,1.68l-1.25.12c-2.08,2.35-4.86,4.05-6.61,6.68l-1.16.18c-.81,1.32-2.2,2.12-3.05,3.41l-2.51,1.58c0,.31-.1.93-.13,1.24-3.12,3-6.45,5.77-9.28,9.05-5.12,4.22-8.62,10-13.38,14.54a38.32,38.32,0,0,1-4.07,5.09c-.43.62-.87,1.25-1.36,1.83s-.88,1.25-1.37,1.83a26.23,26.23,0,0,1-4.66,6.37c-.1.25-.28.73-.37,1a17.49,17.49,0,0,0-2,1.67,36.31,36.31,0,0,1-4.5,7.45c-.11.23-.33.68-.45.91-1.89,2.19-3,4.94-4.55,7.33a14.14,14.14,0,0,0-3.64,6.51l-1.05,1.16c-.67,1.81-1.31,3.77-2.71,5.13-.1.25-.29.75-.38,1-2.29,3-3.07,6.82-5.09,10a89.07,89.07,0,0,1-3.68,8.73c-1.11,1.87-1.55,4.06-2.81,5.85a31.86,31.86,0,0,1-1.94,6.78,71.61,71.61,0,0,0-5.06,12.8c-1,2.41-.42,5.37-2.2,7.43-1.06,5.9-3.08,11.57-4.08,17.48a138.1,138.1,0,0,0-2.41,14.56c-1,5.18-2.24,10.37-2.2,15.69-.94,4.8-.54,9.71-1,14.57a167.75,167.75,0,0,0,0,17.94c.42,4.56.09,9.15.48,13.72.41,4.06.17,8.18,1,12.2,1.42,7,2,14.19,3.57,21.19.77,2.24.78,4.62,1.29,6.92.57,3.12,1.69,6.13,2.19,9.28l.7.61c.44,5.16,2.61,10,3.89,14.94l.63.67a27.66,27.66,0,0,0,1.62,5.7c.48,1.75,1.64,3.26,1.86,5.09l.7.61.12,1.72.74.6c.38,2.54,1.91,4.67,2.58,7.12l.59.7c.62,3,2.82,5.48,3.4,8.55l1.76,0c2-4.66,5.35-8.51,7.54-13.06,1.7-1.14,1.83-3.42,2.67-5.14l1.28-.57c0-1.33-.07-2.78,0-4.06L271,594c-.18-1.17-.45-2.32-.64-3.49l-.71-.63c-1.92-8.67-6.55-16.56-7.49-25.49l-.72-.62c-.79-4.34-2.07-8.58-2.68-12.94-2.31-10.05-2.86-20.37-4.16-30.56-.21-4,0-8.07-.32-12.08a76.7,76.7,0,0,1,.06-12.68c0-4.49.16-9,.45-13.44.26-1.81.28-3.67.5-5.48.24-2,.12-4.05.29-6.06.42-2.47,1.45-4.83,1.36-7.37,0-3.28,1.66-6.29,1.42-9.59l.68-.63c-.33-4.5,2.27-8.42,2.32-12.87,1.59-4.69,2.42-9.68,4.58-14.15.56-4.55,3-8.56,4-13,1.24-3,2-6.24,3.72-9,.73-2.76,2.36-5.17,3.17-7.9,1.37-1.23,1.5-3.27,2.83-4.5.12-.47.24-.94.37-1.4a16.26,16.26,0,0,0,1.06-1.3c1.73-2.56,2.36-5.69,4.07-8.26,1.47-2.36,2.36-5.1,4.29-7.17s2.43-5,4.38-7.06a15.1,15.1,0,0,1,1.41-2.27c.09-.26.27-.76.35-1,3.23-4.14,5.83-8.74,9.23-12.75a133.71,133.71,0,0,1,12.37-15.12,46.87,46.87,0,0,1,5.15-5.39c.09-.26.26-.75.34-1a13.85,13.85,0,0,0,1.47-1.29,230.14,230.14,0,0,1,39.84-33c1.5-1.95,4-2.63,5.94-4.14l1-.38c7.33-5.43,15.93-8.67,23.69-13.37,4-1.76,7.79-4.05,12.11-4.89l.66-.63a20.34,20.34,0,0,0,6.92-2.7l1.14-.27.65-.68c1.48-.29,2.88-.9,4.36-1.2l.68-.63a56.56,56.56,0,0,0,7.44-2.17l.45-.53a42.37,42.37,0,0,0,7.31-1.78l.46-.53a21.66,21.66,0,0,0,6.3-1.42c6.11-1.27,12.16-3,18.41-3.48l.59-.48c2.68-.26,5.61-.49,7.86-2.14a35.45,35.45,0,0,1,4.32-7.15c1.21-1.44,1.64-3.29,2.28-5l1.26-.58c0-.58.05-1.16.1-1.75l1.14-1.1c.44-1.9,2.13-3.32,2.07-5.35-1.94,0-3.91.07-5.83.18m46.38-.09c.18,1.65,1.49,2.81,2.21,4.25s1.11,2.82,1.8,4.17c.77,1.14,1.82,2.12,1.9,3.62.79,2.5,3.33,4,4,6.55.35.38.7.77,1.06,1.15.16.72-.06,1.72.82,2a33.41,33.41,0,0,0,7.77,1.37c4.73,1.12,9.65,1.5,14.27,3.08,3.49,1,7.14,1.4,10.69,2.18,2.42.52,4.58,1.9,7.1,2.08a80.87,80.87,0,0,1,10.55,3.58c3,.7,5.72,2.28,8.65,3.26,3.39,1,6.2,3.34,9.65,4.16a12,12,0,0,1,4,2.35l1.53.33c3.13,2.18,7.27,2.82,10,5.57,4.81,1.89,9,5,13.33,7.72,3.11,1.88,6.16,3.86,9.12,6A62,62,0,0,1,651.05,304l1.05.32c2.76,2.89,6.67,4.64,8.9,8.06l1.21.14c3.13,3.6,7.1,6.34,10.22,9.93,1.65,2.18,4,3.59,5.73,5.72,2.38,3.23,5.43,5.87,8.13,8.82.48.59,1,1.15,1.52,1.69,0,.29.13.89.17,1.19a10.75,10.75,0,0,1,3.85,4,35.15,35.15,0,0,1,2.63,3.76c.56.34,1.1.72,1.65,1.1,0,.31.11.92.15,1.23,2.27,2.65,4.08,5.66,6.28,8.37,1.39,1.74,2.17,3.86,3.5,5.65,1.07,1.66,2.47,3.09,3.4,4.85,2.68,4.8,5.81,9.4,8,14.44a12.25,12.25,0,0,1,1.38,2.28c1.73,2.28,2.17,5.25,3.8,7.61,1.35,2,1.76,4.55,3,6.65,1.13,3.33,2.77,6.46,4,9.77,1,2.93,2.59,5.64,3.26,8.69,1.24,3.67,1.95,7.51,3.51,11.07A268.63,268.63,0,0,1,742.85,458a132.43,132.43,0,0,1,2.41,19.15c.19,2.44.22,4.89.46,7.34.34,2.73.15,5.5.43,8.25.5,7.58.22,15.24,0,22.84-.17,4.93-1.23,9.77-1.4,14.7-1.16,7.71-2.49,15.36-4,23-.92,5.49-3,10.68-4,16.15-1,2.61-1.68,5.34-2.53,8a42,42,0,0,0-1.73,5.59l-.65.68c-.71,2.55-1.88,4.94-2.66,7.48-.62,2.1-2.35,4-1.47,6.35,2.09,3.22,3.75,6.7,5.59,10.07,1.81,1.85,2.2,4.71,4.1,6.45.56.8,1.11,1.62,1.64,2.46l1.3.07c.23-.56.45-1.11.69-1.66,1.78-3.58,3.22-7.33,5.06-10.89,1-3.61,2.66-7,3.63-10.63,1.39-2.22,1.75-4.92,2.77-7.32a85.21,85.21,0,0,0,3.35-10.86c2.3-6.53,3.57-13.36,5.14-20.09.8-2.66.76-5.49,1.41-8.19,1.18-4.67,1.25-9.53,2.21-14.24a76.69,76.69,0,0,0,1.12-11.31c.07-2.94,1.1-5.78.86-8.74-.13-8.33.26-16.68-.23-25-.39-2.72-.22-5.5-.44-8.23-.24-2.45-.27-4.92-.44-7.35-.68-4.09-.89-8.25-1.81-12.3-.39-2.8-.4-5.66-1.29-8.36s-.63-5.45-1.57-8c-1-3.56-1.14-7.31-2.46-10.79-.85-4.35-2.66-8.44-3.21-12.85l-.7-.63a71.1,71.1,0,0,0-2.16-7.44,46.73,46.73,0,0,0-2-4.91c-1.1-2.42-1.28-5.14-2.56-7.48-1.43-3.59-3.36-7-4.54-10.64l-.59-.69c-1.55-6.07-5.6-11.08-7.93-16.85-2.62-4.39-5.14-8.86-7.79-13.24-.89-1.29-1.07-3.1-2.52-3.93-1.92-2.93-3.67-6-5.86-8.73a9.14,9.14,0,0,0-1.4-2.3c-.33-.44-.65-.89-1-1.33a8.7,8.7,0,0,1-1.4-2.29,10,10,0,0,1-1.81-2.3,16.34,16.34,0,0,1-2.72-3.7c-.69-.52-1.34-1.09-2-1.65,0-.3-.12-.91-.15-1.21-.38-.4-.74-.81-1.08-1.21-1-1-1.68-2.28-2.74-3.22-3.6-3.32-5.79-7.92-9.66-10.95-1.88-1.95-3.6-4.05-5.28-6.17l-1.08-.25c-.8-1.32-2.14-2.2-3.17-3.28a107.81,107.81,0,0,0-8.21-7.36c-1.45-1.45-3.15-2.66-4.56-4.14-2.78-2.76-6.23-4.73-9.05-7.43A33.06,33.06,0,0,0,657,282c-.38-.52-.78-1-1.19-1.51a12.53,12.53,0,0,1-3.83-2.13c-1.36-1.62-3.42-2.37-5-3.71-4-1.6-7.22-4.5-11-6.42-3.07-1.6-5.72-3.9-8.87-5.32-.87-.51-2-.75-2.49-1.68-1.45-.52-3.08-.62-4.29-1.62-1.66-1.46-3.84-2-5.81-2.89a5.58,5.58,0,0,0-2.74-1.4c-1.26-.59-2.74-.73-3.69-1.81-1.67-.63-3.32-1.31-5-1.85-1.66-1.6-4.14-1.61-6.14-2.58-3.08-1.5-6.38-2.4-9.52-3.73a10.29,10.29,0,0,1-2.61-1.06l-3.72-.87a6.9,6.9,0,0,0-3.11-1c-4.82-2.24-10.22-2.69-15.34-3.93l-.61-.7c-4.82-.48-9.46-1.95-14.24-2.71-7.38-.77-14.66-2.58-22.1-2.73a24.69,24.69,0,0,0-4-.13M494.5,254.33c-2.88.44-5.81.16-8.69.45-2.5.23-5,.21-7.49.28-.14.2-.42.59-.57.78a46.76,46.76,0,0,1-7.28.54c-.6,1.34-.69,3.05-2.07,3.87-1.3,2-2.72,4.11-3.08,6.56l-1.12.67c-1.81,3.64-3.93,7.1-5.79,10.71a1.81,1.81,0,0,0,.25,2.41c2.88,0,5.62-1.14,8.52-1l.59-.73c5.12-.39,10.2-1,15.28-1.73,11.66-.32,23.33-.12,35-.07,4.34.61,8.66,1.42,13.05,1.63a69.58,69.58,0,0,0,13,1.92c1.08-.7.16-2-.23-2.82-2-3.5-3.52-7.31-5.95-10.52l-.24-1.15-.65-.67c-1.1-3.34-3.71-5.91-5.4-8.94-4.32-.28-8.59-1-12.85-1.68-5.19-.6-10.42,0-15.6-.51-2.87-.54-5.83-.16-8.7,0m-39.32,4.06c-1.84,1.62-4.68.91-6.88,1.31a1.27,1.27,0,0,1-1.22.72c-6.95.51-13.4,3.45-20.07,5.09l-.73.66c-2.72.94-5.71,1.23-8.19,2.76-1,.55-2.28.7-3.27,1.35a11.72,11.72,0,0,0-3.18.89,71.6,71.6,0,0,1-7.93,3.11l-.62.71-1.25.15-.65.66c-3.13,1.27-6,3.16-9.32,4-1.8,1.74-4.43,2.1-6.32,3.68a19.39,19.39,0,0,0-5.92,3.28l-1,.34c-.71.83-1.85,1-2.82,1.37a16.73,16.73,0,0,1-5,3.22,19.82,19.82,0,0,1-6,3.65c-3,2-5.62,4.5-8.63,6.46-3.2,2.45-6.34,5-9.64,7.29-1.5,2.2-4,3.28-5.93,5.06a37.09,37.09,0,0,1-3.68,3.63c-1,1.29-2.13,2.65-3.78,3.12l-.24,1.12c-.52.22-1,.47-1.54.72-2.11,3-5.22,5.19-7.82,7.77-1.26,1.35-2,3.27-3.69,4.13,0,.29-.13.88-.17,1.17q-1.29,1-2.61,2c0,.31-.09.93-.12,1.24a20.17,20.17,0,0,1-3,2,15.74,15.74,0,0,1-4.65,5.89c-.08.25-.24.77-.33,1-2.41,3.24-5.05,6.29-7.32,9.64l-1.13.69-.24,1.11a37.52,37.52,0,0,0-3.26,5,3.36,3.36,0,0,0-1.35,1.91c-.6.9-1.14,1.85-1.79,2.71-.88,2-2.61,3.4-3.33,5.45-3.22,4.54-5.14,9.81-7.75,14.7-1.79,1.74-1.38,4.67-3.2,6.39-.44.91-.6,2.06-1.47,2.7-.08.5-.17,1-.24,1.53L276.76,401c-1.76,6.07-4.87,11.65-6.51,17.77a3.35,3.35,0,0,1-1.24,2.48c-.7,2.79-1.51,5.57-2.14,8.38l-.68.66c-.62,3.44-2.21,6.63-2.67,10.12-1.83,2.58-.15,6.77-2.37,9.21-.55,2.77-1,5.56-1.69,8.32-1.35,5.53-1.52,11.24-2.4,16.85-.37,2.85-.09,5.75-.59,8.59-.76,3.28-.52,6.64-.57,10h-.44v-.92l-.49.05c.73,2.91.43,5.93.73,8.91.57,4.53-.1,9.13.42,13.68.12,1.61.35,4.85.47,6.47.48,7.26,2,14.39,2.57,21.65l.75.58a59.26,59.26,0,0,0,3,15.32c.83,5,2.5,9.78,3.62,14.72a32.88,32.88,0,0,1,2.23,6.92l.66.65a34.23,34.23,0,0,0,1.91,5.91,16.94,16.94,0,0,0,2.44,4.93c1.32.1,1.53-1.75,2.43-2.46l.45-.9a10.18,10.18,0,0,0,1.88-3.19,5.86,5.86,0,0,0,1.28-2.41c.16-.18.49-.52.65-.69s.19-.79.26-1a4.66,4.66,0,0,0,1-1.44A16.87,16.87,0,0,0,284,576.5a8,8,0,0,0,2.14-4.26c.39-.38.79-.75,1.19-1.11,1.18-4.46-1.2-8.63-2-12.91-.59-3.4-2.22-6.55-2.36-10-1.74-6.64-2.05-13.52-3.06-20.27-.89-3.3-.63-6.74-.9-10.1-.31-2-.29-4-.48-5.92-.41-7.09-.08-14.19-.18-21.27l1.33.5c.2-.8.39-1.59.51-2.4-.48.46-.93,1-1.37,1.46.06-1.67.19-5,.25-6.7.42-3-.12-6.2.91-9.11,1-3.53.27-7.35,1.61-10.78,1.15-4.64,1.25-9.47,2.42-14.11l.7-.62a94.37,94.37,0,0,1,3.05-13.47,31,31,0,0,0,1.75-5.59l.77-.6c0-.58.07-1.16.11-1.72l.75-.61c.89-3.89,2.55-7.51,3.95-11.23l.59-.69a22.62,22.62,0,0,1,1.91-5,39.51,39.51,0,0,1,2.62-5.59,7.49,7.49,0,0,1,1.42-3.19c.08-.27.24-.81.31-1.08.66-.87,1.22-1.81,1.91-2.65a8.61,8.61,0,0,1,1.45-3.13c.08-.28.23-.83.3-1.1,1.86-1.55,2.21-4.08,3.85-5.77l.37-1c1.52-2,2.37-4.56,4.2-6.38l.3-1.52,1.05-1.23c1.26-1.06,1.87-2.71,3.23-3.67.12-.47.25-.94.37-1.4,1.2-.74,1.38-2.26,2.35-3.21l.42-.9a5.58,5.58,0,0,0,1.32-1.46,72.68,72.68,0,0,1,6.94-9.08c4-4.58,7.61-9.45,12.05-13.6,1.71-1.8,3.74-3.28,5.44-5.09,1.24-1.21,2.39-2.5,3.62-3.71,3.8-2.91,6.9-6.66,11.07-9.07.21-.4.44-.79.66-1.18l1.2-.15c.33-.58.7-1.14,1.07-1.7l1.29-.09a43.25,43.25,0,0,1,5.67-4.86l1.64-.18c1.74-2,3.69-3.92,6.27-4.74,5.57-4.82,12.48-7.68,18.75-11.42,1.21-.64,2.5-1.08,3.67-1.8,4.41-1.7,8.6-4,12.93-5.86.9-.28,1.79-.6,2.67-1,2.37-.81,4.47-2.4,7-2.69l.65-.62a11.7,11.7,0,0,0,2.89-.85c3.6-1.82,7.68-2.37,11.48-3.62a39.1,39.1,0,0,1,8.82-2.17l.6-.73a12.51,12.51,0,0,0,4-.62c1.18-2.27,2.21-4.67,4-6.57,1-3.15,3.51-5.58,4.61-8.72.5-.37,1-.78,1.5-1.18.53-3.13,3.26-5.46,3.37-8.66a100.3,100.3,0,0,1-11.68,1.62m81.21-1.51c.34,4.21,4,7.27,4.73,11.38l1.09.69c1.9,2.54,2.49,5.81,4.59,8.22,1.05,1.58,2,3.23,2.91,4.88,4.13.73,8,2.76,12.23,2.94l.68.64c1.72.58,3.37,1.39,5.27,1.19l.66.64c3.49.72,6.72,2.3,10.2,3.09a29,29,0,0,1,2.71,1.4c3.69.59,6.64,3.2,10.22,4.08l.69.61c1.15.36,2.25.84,3.39,1.24a6.08,6.08,0,0,0,3.68,1.84c.87.62,1.81,1.17,2.68,1.82,1.3-.47,2.09.65,2.72,1.46,3.06.78,5.57,2.9,8.13,4.68l1.17.2c.35.4.72.8,1.09,1.21l1.07.28c2.24,2.2,5.51,2.86,7.73,5.1,2.63,2.15,5.69,3.71,8.28,5.91a8.39,8.39,0,0,1,2.28,1.87,62.93,62.93,0,0,0,6.92,5,44.44,44.44,0,0,1,5.39,5.15l1.09.26a51.42,51.42,0,0,0,5.16,5.38c2.08,1.72,3.67,4,5.72,5.73a81.72,81.72,0,0,1,10.81,12.09c1.72,1.81,2.75,4.25,4.82,5.73.07.26.21.78.27,1,1.58.91,2.12,2.77,3.24,4.13a40.76,40.76,0,0,1,5.38,7.43,4.83,4.83,0,0,0,1,1.27c.46.58,1,1.15,1.43,1.73.53,1.86,2,3.2,2.93,4.88,2.08,4.11,4.56,8,6.71,12.06.06.54.13,1.1.2,1.65.53.38,1.06.77,1.61,1.13,1.18,2.6,1.92,5.49,3.57,7.86a22.7,22.7,0,0,0,1.42,3.14c.1.26.3.77.39,1a26.49,26.49,0,0,1,3.23,7.32c2.14,3.5,2.81,7.67,4,11.55l.68.64c.85,4.52,3,8.68,3.67,13.27.34,3.35,1.68,6.46,2.71,9.64.53,3.85,1.49,7.63,1.83,11.51,1.35,4.57.84,9.4,1.93,14,.73,3.56.35,7.22.68,10.82,1.26,7.25.64,14.65.47,22-.21,1.66-.38,3.34-.51,5-.54,3.62-.52,7.28-1,10.91-.93,2.68-.57,5.56-.81,8.35-1.23,4.09-1.48,8.37-2.64,12.46-1.12,6.13-2.87,12.12-4.33,18.17a25.42,25.42,0,0,0-1.11,5.09,77.79,77.79,0,0,1,5.65,9.63l1,1.22a5,5,0,0,0,1.34,2.38c1.7,2.91,3.34,5.86,4.89,8.85l1.66,0c1.52-4.65,3.21-9.25,5-13.8,1.59-5.54,3.38-11,5-16.57.84-5.06,2.13-10,3.3-15,1.16-7.67,3-15.28,3.13-23.07,1.18-5.88.37-11.91.95-17.83a105.62,105.62,0,0,0,0-14.67c-.48-3.8-.78-7.62-.95-11.45-.29-2-.28-4-.43-6-.86-3.6-.5-7.36-1.31-11a139.39,139.39,0,0,1-2.21-13.87l-.71-.6a21.29,21.29,0,0,0-1.13-6.19c-1.37-6.31-3.36-12.46-5.15-18.65-.87-3.69-2.87-7-3.53-10.73l-.62-.67a23,23,0,0,0-2.27-5.56,24.72,24.72,0,0,1-.76-2.93l-.6-.7c-1.64-3.68-2.85-7.6-5-11-.06-.29-.18-.87-.25-1.16l-.76-.61c-.08-.52-.16-1-.23-1.55a20.92,20.92,0,0,1-3.22-6l-.55-.74a4.37,4.37,0,0,0-1.38-2.36c-.06-.27-.19-.8-.25-1.07l-.76-.64c-.07-.27-.2-.8-.26-1.07-1.28-1-1.62-2.73-2.33-4.11-1.7-1.12-1.87-3.35-2.72-5.06a7.35,7.35,0,0,1-2.49-3c-1.11-2.57-3.44-4.43-4.36-7.09a5.77,5.77,0,0,0-2.33-2.72,71.28,71.28,0,0,1-6.39-8.68,3.09,3.09,0,0,1-1.33-1.93,30.83,30.83,0,0,0-3.72-4,27,27,0,0,0-5-6c-1.09-1-2.16-2.11-3.19-3.21-1.86-2-4.32-3.42-5.39-6.06a11.69,11.69,0,0,1-5.56-5.46l-1-.29a2.84,2.84,0,0,0-1.5-.92c-2.77-4-6.95-6.44-10.55-9.54-1.35-1.12-3-1.88-4-3.4l-1.38-.86a5.81,5.81,0,0,0-2.77-1.83,23.36,23.36,0,0,0-2.69-2.38l-1.14-.21c-.22-.41-.42-.81-.62-1.21l-3.38-1.66c-.37-.54-.75-1.06-1.15-1.56-3.07-.47-4.67-3.64-7.56-4.45l-.75-.52a3.15,3.15,0,0,1-1.92-1.34c-2.49-.87-4.51-2.68-6.95-3.62l-1.15-1.09-1.11-.29c-1.61-1-3.55-1.5-5-2.76a9.91,9.91,0,0,1-3.18-1.88c-1.61-.89-3.69-1-5-2.38l-1.57-.21-.58-.8-1.26-.1c-.15-.2-.45-.6-.59-.8l-1.56-.21c-4.16-1.9-8.3-4.27-12.91-5.05l-.66-.66a20.33,20.33,0,0,1-4.22-1.26c-2.84-.79-5.52-2.09-8.42-2.63-.15-.18-.45-.55-.61-.73-3.06-.13-5.93-1.24-8.82-2.15-4.92-1.16-9.76-2.81-14.84-3.11l-.59-.74c-3.6.17-7-.85-10.51-1.46m-53.83,23.05c-1.68.2-3.35.37-5,.52-1.4.21-2.9.19-4.27.27-.15.19-.42.58-.56.77a32.6,32.6,0,0,0-8.25.88c-3.11,0-5.95,1.45-9,1.55a24.12,24.12,0,0,0-4.44,7c-2.34,3.51-4.05,7.41-6.43,10.88-.23.68-.24,1.55-1,1.87-.1.49-.18,1-.25,1.47-.78.94-2,1.78-1.32,3.33h1.87l.53-.82c4-.2,7.75-1.41,11.62-2.18a50.88,50.88,0,0,1,12.28-2.8A60.92,60.92,0,0,1,482.13,301c3-.32,6.14.06,9-1a107.25,107.25,0,0,1,14.34.14c3.47.36,7,.13,10.49.44,13.1.71,26,3.4,38.62,6.82l.61.72,5.47.51c-.06-.57-.12-1.13-.17-1.68a27,27,0,0,1-3.58-6.94c-.17-.56-.75-.83-1.14-1.18a41.44,41.44,0,0,1-3.15-6.92c-2.45-2.2-2.92-5.7-5.3-8l-3.55-.12-.6-.73c-6.09-.3-11.93-2.41-18.05-2.18a72.12,72.12,0,0,0-14.58-1.39c-9.32.56-18.68-.16-28,.39m69.79,5.41c.15,1.17.43,2.31.68,3.47a55,55,0,0,1,4.39,7.05c1.22,2.17,1.91,4.61,3.46,6.6,1.24,2.29,3.21,4.34,3.58,7a15.73,15.73,0,0,0,1.41,1.78c4.77,1.7,9.72,3,14.19,5.45,2.59.83,4.86,2.37,7.46,3.15l.73.58a46.34,46.34,0,0,1,6.42,3.21l1.06.35c1.84,1.4,4,2.27,5.8,3.79l1,.38a55.71,55.71,0,0,0,6.7,4.3c1.78,1.14,3.06,3.18,5.32,3.41l1.07,1.64,1.19.19c2.79,2.73,6.71,4.27,8.89,7.6l1.1.26c2.32,2.11,4.75,4.1,7.06,6.22,1.64,2.05,4,3.3,5.75,5.25,2.32,3,5.48,5.21,7.77,8.25,1.57,2.22,3.56,4.09,5.16,6.3,3.37,3.41,5.82,7.58,9,11.13l.33,1a55.2,55.2,0,0,1,4.62,6.79c2.8,2.13,2.89,6.32,5.66,8.56l.16,1.22.79.58.2,1.18c2,2.1,2.81,5.05,4.39,7.48,1.39,3.18,3.25,6.17,4.3,9.49l.71.63q0,.85.12,1.71l.71.63c.69,2.58,2.26,4.88,2.56,7.58l.64.67c1.19,3.7,2.6,7.34,3.56,11.13.76,2.74,1.92,5.37,2.32,8.22.86,3.95,2.3,7.78,2.8,11.83.47,3.67,1.34,7.28,1.82,11,.23,6.23,1.86,12.38,1.49,18.66-.21,9.91.94,20-.92,29.79-.81,4.57-.68,9.28-1.81,13.81a21.18,21.18,0,0,0-.44,7.49,76.65,76.65,0,0,1,4.25,6.8,2.87,2.87,0,0,0,1.44,1.85c.09.48.2,1,.3,1.47a11.28,11.28,0,0,1,2.38,4.51c2.12,1.86,3.13,4.6,4.48,7l1.11.05c.74-2.54,1.54-5.06,2.06-7.65l.72-.61a20.6,20.6,0,0,1,1.15-6.18c1.16-6.58,2.84-13.09,3.16-19.79l.81-.55c-.47-6.18,1.89-12.1,1.44-18.27,0-5.28.16-10.56-.23-15.83-.34-4-.13-8-.44-11.92-.48-2.8,0-5.69-.69-8.45-.83-4-1-8.06-1.66-12.06a231.13,231.13,0,0,0-6.66-29.06l-.67-.64a25.6,25.6,0,0,0-2.62-8.34c-4.36-13.89-11.39-26.72-18.26-39.49a83.34,83.34,0,0,1-6.44-10c-1.39-1-1.7-2.82-2.64-4.18a4.9,4.9,0,0,1-2.39-2.66c-.32-1.24-1.46-1.88-2.33-2.69-.87-2.53-3.12-4.28-4.47-6.54a11.44,11.44,0,0,1-2.31-2.3c-1.93-2.33-4.39-4.22-6-6.84-4.43-4.12-8.21-8.91-12.88-12.78-3.27-3.15-7.31-5.51-9.92-9.31l-1-.36a23.76,23.76,0,0,0-4.54-3.71l-.95-.42c-.71-.67-1.48-1.27-2.24-1.88a3.43,3.43,0,0,0-1.94-1.31c-2.54-1.54-4.37-4.27-7.35-5-.39-.37-.76-.74-1.13-1.12l-1.15-.23c-3-2-5.68-4.37-9.07-5.6a37.43,37.43,0,0,1-4.08-2.76c-1.08-.47-2.19-.81-3.25-1.29-1-1.4-3-1.21-4.3-2.19a62,62,0,0,0-7.08-3.37c-.68-.25-1.53-.3-1.83-1.06l-1.57-.17-.58-.81-1.73-.1-.6-.74a5.41,5.41,0,0,1-3.25-1.35c-.55-.09-1.09-.16-1.63-.23l-.6-.75c-1.18-.18-2.33-.46-3.49-.66l-.67-.68c-2-.8-4.18-1.24-6.06-2.22-4.77-.71-9-3.49-13.89-3.54l-.56-.77h-1.42m-107.49,1.28c-6.51,2-13.27,3.3-19.51,6.1-2.58,1.85-5.9,2.25-8.75,3.59-4.15,1.63-8,4.21-12.44,5l-.61,1.19q-.85.06-1.68.15c-1.31,1.43-3.22,2-4.87,2.91a32.76,32.76,0,0,1-5.19,2.18c-1.28,2-3.59,2.85-5.46,4.13a21.23,21.23,0,0,1-5,2.34,5.22,5.22,0,0,1-1.55.81,19.58,19.58,0,0,0-1.55,2.07l-1.2.16L376,318.36c-1.55.4-2.36,1.95-3.61,2.84l-1.21.15a20,20,0,0,0-3.37,3.51l-1.1.24a3.71,3.71,0,0,1-1.78,1.49,20.8,20.8,0,0,1-4.13,3.15c-.8.77-1.08,2.06-2.3,2.33a27.16,27.16,0,0,0-2.82,2.18,15.87,15.87,0,0,0-1.77,1.9c-.62.44-1.23.9-1.84,1.34-1.18,1.72-3.08,2.74-4.31,4.42-1.32,1.47-2.36,3.48-4.52,3.76-.05.28-.16.84-.21,1.12a89.9,89.9,0,0,0-7.22,7.89c-3.23,4.09-6.81,7.9-9.87,12.12-3.92,3.33-5.33,8.56-8.89,12.17-2.54,3.36-3.81,7.54-6.75,10.62-1.25,2.64-2.3,5.47-4.11,7.79a7.09,7.09,0,0,1-1.41,3.21c-.07.27-.22.82-.29,1.1-.39.19-.79.4-1.17.61a11.79,11.79,0,0,1-2.29,6c-1.57,2.51-1.72,5.62-3.36,8.11-1.1,1.79-1.47,3.9-2.49,5.73-1.58,4-2.58,8.19-3.76,12.31-.38,1.36-1.37,2.48-1.6,3.89-.78,3.66-2.1,7.21-2.33,11-.18.16-.53.48-.7.65-1.35,5.21-2.06,10.55-2.94,15.86l-.78.57a53.39,53.39,0,0,1-1.31,12c-.3,1.86-.21,3.75-.39,5.64-.24,3.2-.21,6.41-.46,9.62a170.69,170.69,0,0,0,0,18.79c.18,1.66.35,3.33.5,5,.06,5.4,1.14,10.67,1.78,16a128.56,128.56,0,0,0,3.74,18.65c.24,4.09,2.35,7.74,3,11.75l1.76.11c.57-1.31,1.13-2.6,1.61-3.94a16.38,16.38,0,0,1,1.85-2.73q.46-.91.9-1.83a13.45,13.45,0,0,0,2.67-4.69c.36-.39.73-.77,1.1-1.14l.29-1.12c1.15-1.62,1.58-3.75,3.23-5,.36-.41.74-.82,1.13-1.2.21-6.76-1.72-13.32-2.26-20-1.43-8.87-.9-17.9-.61-26.84.26-3.21.22-6.42.46-9.62.27-3.36.19-6.75,1-10.05.81-3.63.89-7.38,1.81-11,.8-2.49.64-5.17,1.55-7.62s.6-5.4,1.74-7.9a43.33,43.33,0,0,0,2.1-8c.18-.15.52-.47.69-.63a74.13,74.13,0,0,1,2.09-7.59l.66-.65c.51-4.23,3.18-7.72,4.38-11.73,3.13-6.56,5.93-13.32,9.71-19.55a3.94,3.94,0,0,0,1.81-2.83l.67-.67.24-1.1c2-1,1.59-3.72,3.33-5,.06-.28.19-.83.25-1.11.52-.39,1-.79,1.57-1.15a12.3,12.3,0,0,1,3.22-5.05c.09-.26.25-.78.34-1a28,28,0,0,0,3.27-4.52c.82-.7,1.52-1.55,2.38-2.22.06-.27.18-.82.25-1.1a8.1,8.1,0,0,0,2.35-2.24c3.05-5.35,8.38-8.77,11.83-13.8l1.26-.11c1-2.38,3-4,4.87-5.66,2.16-1.27,3.71-3.32,5.5-5a42.52,42.52,0,0,1,3.63-2.78,3.22,3.22,0,0,1,2-1.27c2.21-2.72,5.52-4.2,8.11-6.51a10.68,10.68,0,0,1,2.88-2.15,77.16,77.16,0,0,0,9.07-6c.62-.27,1.23-.57,1.85-.88,2.19-2.41,5.74-2.8,8.19-4.71l1.6-.16.62-1.23,1.52-.28c1.52-1.74,4-2.06,5.86-3.29l1-.38a16.43,16.43,0,0,1,5-2.33c3.7-2.24,7.92-3.4,11.89-5a11.4,11.4,0,0,0,4.24-2.17c.08-.53.16-1.07.26-1.59A10.55,10.55,0,0,0,440,305c2.22-3,3.94-6.39,5.93-9.57a53.59,53.59,0,0,1,3.73-7.32l.63-.41c0-.73.16-1.6-.54-2.08a17.91,17.91,0,0,0-4.86,1m23.54,18.57c-3.79.95-7.73,1.09-11.48,2.2a7.16,7.16,0,0,1-3.22.93c-5,.92-9.72,3.05-14.72,4-.45.47-.89.95-1.37,1.39l-.3,1.44c-.76.34-.77,1.2-1,1.89-.68.85-1.29,1.74-1.88,2.65a7.92,7.92,0,0,0-.89.94c-3.32,7.54-8.19,14.25-11.77,21.66a5.08,5.08,0,0,0-.91,2.85c1.57-.1,3.35-.34,4.39-1.67l1.45-.36c2.09-1.73,5.11-1.56,7.19-3.31l1.15-.25.63-.7a7.35,7.35,0,0,0,2.6-.67,49.79,49.79,0,0,1,6.71-2.44,25.8,25.8,0,0,1,5.39-1.91c2.43-1.34,5.34-1.21,7.91-2.15,5.05-2,10.58-2.27,15.86-3.39,2.48-.86,5.15-.42,7.69-1,1.89-.41,3.8-.5,5.73-.73,8.55-.28,17.12-.29,25.68.07,14.07,1.48,28.25,3.54,41.66,8.28,3,.87,5.82,2.19,8.77,3.18l.69.59a37.18,37.18,0,0,1,10.21,4.47c2.46.65,4.49,2.65,7.14,2.58a16.79,16.79,0,0,0-2.24-5.13c-1.79-2.85-2.8-6.17-4.94-8.8-.26-.65-.54-1.28-.82-1.91a10.34,10.34,0,0,1-2.15-3.4c-2.17-4.31-4.7-8.43-7-12.68-2.27-2.18-5.47-2.54-8.45-3-.15-.19-.46-.56-.62-.74-2-.51-4.12-.75-6.17-1.15a6,6,0,0,0-2.06-1.14c-5.12-1-10.21-2.25-15.42-2.49l-.58-.75a56.46,56.46,0,0,1-8.42-.79c-5.55-1.3-11.3-.24-16.9-.94-5.28-.32-10.57-.21-15.85-.22-7.33,0-14.47,1.8-21.72,2.57M429.67,315.4c-.2.4-.4.81-.59,1.21-2.21.63-4.29,1.63-6.51,2.21-3.33,2.42-7.76,2.88-11,5.44a121.76,121.76,0,0,1-11,6c-2.4,2-5.56,2.82-7.73,5.07a5.63,5.63,0,0,0-2.75,1.84l-.94.4c-2.92,3.15-7.23,4.61-10,7.86l-1.08.28a20.19,20.19,0,0,0-2.61,2.45l-1,.29a19,19,0,0,1-4,3.79c-1.62,1.59-3,3.72-5.16,4.5-2,2.13-3.94,4.28-5.75,6.57l-1.21.17a24.33,24.33,0,0,1-2.15,2.89l-.24,1.13-1.28.09-1.17,2a17.57,17.57,0,0,0-1.41,1.81c-2.36,1.9-4.06,4.47-6,6.78a3.13,3.13,0,0,1-1.32,1.95,64.83,64.83,0,0,0-6.48,9.1c-1.3,1.77-2.33,3.73-3.64,5.49-1.16,1.38-1.46,3.28-2.65,4.64a22.71,22.71,0,0,1-1.49,1.76c-.12.49-.24,1-.35,1.48-2.18,2.75-3.17,6.25-5.16,9.06q-.18.74-.33,1.47c-1.91,1.94-2.46,4.74-3.3,7.23a9.09,9.09,0,0,0-.9,1.46c-.13.19-.41.56-.55.74-.86,2.5-1.93,4.93-2.67,7.47-1.29,1.77-1.3,4.06-2.19,6a48.53,48.53,0,0,0-2.82,9.58c-1.33,1.62-1.44,3.8-2,5.76-1,5.39-2.29,10.71-3.69,16-.91,6.45-2.13,12.86-2.22,19.39a134.74,134.74,0,0,0,0,17.86c.62,5.15-.17,10.38.44,15.54.56,4.74,1,9.51,1.76,14.23.13.62.49.81,1.08.59,1.9-2.31,2.48-5.7,5.05-7.42a17.44,17.44,0,0,0,.71-2.47l.7-.63c0-.3.12-.92.17-1.22l1.11-1.13c.31-1.47,1.39-2.54,2.27-3.69a3.17,3.17,0,0,1,1.33-1.91c.6-1.77,1.52-3.39,2.26-5.09l1.08-.69c.17-2.31,1.81-4.09,2.58-6.2.36-.4.73-.78,1.11-1.16.23-1,.49-2,.66-3l.78-.57c.05-4.21-.05-8.42.25-12.61,1.06-5.2.89-10.57,2.09-15.73.65-4.24,1.86-8.37,2.59-12.6,1.16-3.4,1.39-7.07,2.84-10.38a64.52,64.52,0,0,1,2.19-6.07c1-3,2.1-6.06,3.38-9,.33-1.8,1.94-3,2-4.89l.57-.72a27.48,27.48,0,0,1,2.72-5.52,6.24,6.24,0,0,1,1.9-3.64l.36-1c1.33-1.26,1.43-3.3,2.72-4.61,1-2.54,3.33-4.29,4.1-6.93l1.19-.62c.05-.56.11-1.12.17-1.68.53-.7,1-1.44,1.47-2.19a5.77,5.77,0,0,0,2.71-3.73,50.93,50.93,0,0,1,3.3-4l.24-1.13a19.74,19.74,0,0,1,1.66-1.09c0-.3.13-.9.17-1.19a23.15,23.15,0,0,1,2.1-1.59l.26-1.1c1.68-1.68,3.18-3.52,4.88-5.19,3.43-2.82,5.81-6.76,9.63-9.15a43.4,43.4,0,0,1,9.13-7.8c1.14-.58,1.18-2.37,2.68-2.4,1.48-1.26,3.32-2.12,4.53-3.69l1.23-1,1.16-.23c.54-.52,1.09-1,1.67-1.51a3.16,3.16,0,0,1,2-1.29c.38-.37.77-.73,1.16-1.09l1.06-.31c3-2.64,7.2-4,9.3-7.63,1-2,2.1-4,3.08-6.11,1.19-.78,1.49-2.22,2.11-3.41a60.24,60.24,0,0,1,4.22-7.2c1-1.37,1.41-3.09,2.39-4.49,1.19-1.63,1.21-4,3.19-5.05.63-1.57,1.72-3,1.66-4.78-1.25,0-2.49,0-3.72,0m140.19.15c-.91.7-.42,1.78.23,2.44.06.29.18.85.24,1.12l1.21,1.1c.07.51.14,1,.23,1.55.89.56,1.15,1.63,1.67,2.5.9,2,2.21,3.74,2.92,5.81.36.38.72.77,1.1,1.15.07.51.16,1,.26,1.53A15,15,0,0,1,578.8,334c3,5.11,5.77,10.42,8.49,15.71,3,1.72,5.65,4,8.81,5.39a2.66,2.66,0,0,0,1.9,1.35,10.57,10.57,0,0,1,2.2,1.91c4.64,3,9.38,6.1,12.95,10.4,1.6,1.77,3.64,3.05,5.35,4.74l.94.39c1.21,1.83,3.24,2.88,4.52,4.67,2.6,3.34,5.8,6.15,8.24,9.61a43.35,43.35,0,0,1,4,4.2c1.2,1.39,1.86,3.28,3.32,4.46a6.22,6.22,0,0,1,1.38,2.29,3.79,3.79,0,0,1,1.33,1.91c1.83,2.19,3.84,4.46,4.6,7.29a5.47,5.47,0,0,1,1.86,2.72c1.72,2.22,2.56,5,4.13,7.32a31.33,31.33,0,0,1,3.59,7.41,73.3,73.3,0,0,1,5.86,13.33c2.44,5.73,3.53,11.89,5.54,17.76A175.92,175.92,0,0,1,672,479.8a36.12,36.12,0,0,1,.9,6.89c.31,4.75.06,9.51.33,14.27,2.27,4.13,4.47,8.32,6.75,12.46a14.8,14.8,0,0,1,1.46,4c2.09,1.95,2.8,4.83,4.14,7.27a15.54,15.54,0,0,1,2.8,4.58c.66.7,1.27,1.45,2,2.14,0,.31.11.92.15,1.23l.8.52c0,.37.1,1.11.14,1.48.59-.13,1.26-.17,1.64-.74.58-3.23,1.39-6.42,1.22-9.74,2.13-6.05.73-12.5,1.44-18.75.61-5.15.19-10.4,0-15.57-.28-1.81-.32-3.66-.48-5.47-.25-2.84-.16-5.7-.61-8.5-.26-2.41-1.13-4.71-1.15-7.14a190.59,190.59,0,0,0-13.9-48.28c-1.56-3.8-2.89-7.8-5.36-11.12l-.36-1.05c-1.43-2.56-2.72-5.18-4.21-7.7-1.13-1.28-1.45-3-2.51-4.34-3.73-4.51-5.45-10.38-9.76-14.46a3.09,3.09,0,0,1-1.35-1.93c-.34-.41-.66-.81-1-1.22-.34-1.48-1.85-2.17-2.76-3.24a38.42,38.42,0,0,1-3.21-4.13c-1-.9-1.58-2.06-2.46-3-2.65-2.23-4.66-5.1-7.14-7.51-1-1.3-2.59-2-3.57-3.3s-2.6-2.3-3.8-3.53-2-2.57-3.43-3.44c-1.74-1.13-2.93-2.91-4.68-4-1.68-2-4.37-2.89-6.15-4.84-1.27-1.39-3-2.18-4.37-3.43l-1.12-.25-.67-1.13c-3.19-1-5.1-4.06-8.3-5a4.64,4.64,0,0,0-3.79-2.2L599,329a3.05,3.05,0,0,1-1.93-1.33c-2.67-.77-4.72-2.85-7.42-3.58-.21-.4-.43-.78-.63-1.16-1.68.33-2.74-.82-4-1.49-2.73-1.34-5.39-2.91-8.39-3.56-2.28-.65-4.4-1.78-6.69-2.37m-80.94,13.39c-5.46.81-11,.59-16.45,1.77l-.39.68c-1.27.09-2.69.05-3.9.13l-.58.77a35.39,35.39,0,0,0-8.25,1.36c-3,1-6.33,1.22-9.19,2.7s-6,1.82-8.86,3c-3.05.75-5.8,2.31-8.8,3.18-.39.35-.77.71-1.14,1.07a5.61,5.61,0,0,0-3.77,1.79l-1.07.28-.66.68c-3.7.89-6.59,3.52-9.93,5.21,0,.33-.05,1-.07,1.31l-1.19.63c-2.06,3.63-4.16,7.25-5.9,11.07a15,15,0,0,0-3.69,5.95c-2.5,2.33-2.49,6.36-5.26,8.44-.77,1-.94,2.36-1.51,3.5-2.46,1.41-2.09,5-4.33,6.7-.08.53-.16,1.05-.24,1.59-1.75,1.23-1.47,3.89-3.37,4.9-.13.47-.24.94-.36,1.41a4.12,4.12,0,0,0-1.35,2.39l-1.15,1.11,0,1.32,1.63-.16c2.29-2.61,5.11-4.72,7.11-7.58,2.72-2.78,5.84-5.13,8.53-7.94a7.06,7.06,0,0,1,3.17-1.92c.22-.37.44-.75.67-1.11l1.13-.24c2-2.15,4.58-3.66,6.83-5.55l.92-.44c1.34-1.31,3.14-2,4.58-3.22l1-.38a134.42,134.42,0,0,1,19.17-10.13c1.87-1,4.11-1.14,5.92-2.29,2.45-1.33,5.44-1.26,7.78-2.77,1.62-.52,3.27-1,4.89-1.51,3.92-1.41,8.11-1.76,12.08-3a95.31,95.31,0,0,1,13.36-1.8,13.66,13.66,0,0,1,4.75-.7c5.27,0,10.55-.14,15.82.24,3.2.28,6.43.23,9.65.45,5.92,1,12,1.24,17.8,2.79,6.32,1.2,12.23,3.84,18.46,5.38l.65.66A17,17,0,0,1,558.9,363l1.61.25.65.68a67.23,67.23,0,0,1,8,3.54c1.36.86,3,1.53,4,2.87.51.09,1,.16,1.56.24.16.19.46.58.61.77l1.17.22c2.65,1.95,5.51,3.62,8.21,5.52.21.39.44.78.67,1.17l1.12.16c.26.62.9.76,1.51.93.21.37.41.75.63,1.13l1.17.2a9.7,9.7,0,0,1,2.49,2.58l1.19.15c1.72,2.73,4.88,4,6.62,6.68l1.15.22c1.68,2,3.49,3.83,5.36,5.62,1.74,1.62,3.34,3.38,4.93,5.16l1.23.14-.12-1.72c-3-3.48-4.4-8-7-11.73l-.31-1.08a17.34,17.34,0,0,1-3.33-5.85c-1.28-2.44-3.1-4.7-3.49-7.5l-1.13-.66a23.39,23.39,0,0,0-3.63-6.44c-.08-.27-.22-.81-.3-1.08a6.72,6.72,0,0,1-2-4c-1.37-2.57-3.21-4.87-4.31-7.57a4.11,4.11,0,0,0-1.54-2.13c-1.88-1.15-3.57-2.55-5.45-3.68-3.4-.67-5.76-3.76-9.26-4.11a7.51,7.51,0,0,0-3.27-1.27,2.9,2.9,0,0,0-3-1.55c-3.41-1.16-6.7-2.65-10.19-3.56-3.86-2.41-8.7-1.8-12.74-3.72-4.59-1.7-9.59-1.34-14.28-2.66-4.9-.46-9.71-1.48-14.59-2-7.94-.31-15.91-.3-23.85,0m5.47,24.76c-2.73.39-5.53.19-8.26.42a114.72,114.72,0,0,1-12.94,1.66l-.6.77c-3.73-.18-7.22,1.06-10.71,2.14-2.5,1.14-5.34,1.31-7.95,2.09-.15.2-.44.58-.59.76-2.59-.07-4.54,1.83-7,2.19a5.68,5.68,0,0,0-1.75,1L443,365l-.68.64c-5.25,2.64-10.74,4.92-15.65,8.17-.79.42-1.76.66-2.27,1.47l-1.6.18c-.23.39-.45.78-.66,1.18-1.48.84-2.79,2.19-4.65,2.06.32,1-.51,1.57-1.25,2.11l-1.08.28c-3.13,3-7.32,4.9-9.89,8.45l-1.26.1c-1.17,1.43-2.19,3.11-4,3.81a40.19,40.19,0,0,1-5.42,6c-.45.46-.92.91-1.41,1.34a40.83,40.83,0,0,1-3.67,4.1c-1,1-1.6,2.38-2.81,3.18l-.24,1.11c-.65.56-1.31,1.12-2,1.63a6,6,0,0,1-2.75,3.68c-.53,1.14-1.08,2.26-1.65,3.37-.42.19-.82.39-1.21.61-.61,3.58-4.57,5.74-4.79,9.48l-1.15.64c-.08.26-.25.77-.33,1-2.45,3.44-3.62,7.61-5.68,11.27-1.71,3.93-3.66,7.84-4.51,12.06-.51,1.36-.83,2.79-1.28,4.18-1.11,1.58-1.28,3.58-2,5.34a10.47,10.47,0,0,0-.68,4.38l-.71.6c-.38,4-1.58,7.84-1.95,11.82-.47,2.93-.29,6-1.24,8.82-.37,2.62-.1,5.29-.38,7.92a71.39,71.39,0,0,0,0,12.32c.31,9.84,2.35,19.49,4.41,29.06a34,34,0,0,1,1.84,7.3l.71.63c.79,4,2.63,7.76,3.91,11.66a71.7,71.7,0,0,1,3.29,7.71c1.36,1.51,1.84,3.59,2.9,5.31,1.35,2.88,3.42,5.4,4.31,8.49,2.73,2.28,3.66,6,6.05,8.65l.32,1c2.31,2.15,3.83,5,6.07,7.22l.87,1.4c2.33,1.48,3.33,4.27,5.6,5.86,2.51,2.66,5.44,5,7.56,8l1.18.18c1.77,2.22,4.43,3.5,6.25,5.68l1.05.3a30.29,30.29,0,0,1,3.52,3.37l1,.32c2.35,1.8,4.84,3.42,7.35,5,1.58,1,2.81,2.54,4.61,3.17a46,46,0,0,1,5.08,2.38c-.16.5-.32,1-.48,1.52a7,7,0,0,1,6.2,1.83,9.32,9.32,0,0,0,3.77,1.27c.21.35.44.71.67,1.07a14.7,14.7,0,0,1,3.85,1.25,17.86,17.86,0,0,0,4.23,1.28l.64.68a32.19,32.19,0,0,1,7.43,2.19c5.32,1.93,11,2.42,16.47,3.73a89.21,89.21,0,0,0,17.94,1.81c4.51.58,9.12.21,13.66,0a101.08,101.08,0,0,0,22.3-2.85c6.94-.59,13.26-3.77,20-5.24l.65-.63a10.77,10.77,0,0,0,2.89-.84,46.88,46.88,0,0,1,7.44-3.09c.16-.18.49-.52.66-.69l1.55-.25c.68-1,1.91-1.21,2.92-1.71a59.81,59.81,0,0,0,7-3.92,120.93,120.93,0,0,0,11-6.85l1.12-.27a54.84,54.84,0,0,1,5.85-5.12,15.54,15.54,0,0,0,1.79-1.45l1.11-.24L594,613c4.35-2.93,7.26-7.4,11.25-10.73a149.61,149.61,0,0,0,11.94-14.17c.7-1.26,2-2.11,2.46-3.54.35-.38.72-.77,1.1-1.14,0-.3.14-.89.19-1.18l1.25-.59c0-.29.14-.89.18-1.19.56-.5,1.08-1.06,1.62-1.6,0-.3.12-.91.15-1.21.37-.38.75-.75,1.13-1.12.48-1.71,1.64-3.09,2.19-4.77l.51-.76a9.08,9.08,0,0,1,.88-1.47,37.87,37.87,0,0,1,4.19-8.66c.12-.49.24-1,.38-1.44,1.38-1.93,1.77-4.34,2.67-6.5,2.29-5.08,3.7-10.51,5.25-15.85,2.35-8.16,3-16.65,4.25-25,.11-3.13,0-6.27.32-9.38a23.61,23.61,0,0,0,0-5.88c-.42-4.39.28-8.93-1-13.21-.65-4.28-.72-8.66-1.82-12.86-.91-3.59-1.49-7.25-2.48-10.81a25.45,25.45,0,0,1-1.44-5c-.16-.17-.49-.5-.66-.66-1.71-7.39-5.1-14.23-8.29-21-1.78-2.31-2.73-5.13-4.42-7.49-.13-.49-.25-1-.35-1.46a56.6,56.6,0,0,1-4.67-7.25,24.84,24.84,0,0,1-2-2.16c0-.29-.14-.88-.19-1.18-.36-.41-.72-.81-1.05-1.23-2.8-2.32-4-6-6.91-8.23-.06-.27-.19-.81-.26-1.08-1-.8-2-1.65-3.05-2.46,0-.31-.08-.94-.11-1.25-3.29-1.49-4.92-4.84-7.33-7.33l-1.24-.14c-.86-1-1.71-2-2.57-2.91-1.09-.93-2.45-1.55-3.18-2.82L591.8,386c-1.18-2.83-4.69-3.24-6.25-5.7l-.94-.39a23.7,23.7,0,0,1-2.74-1.88l-1-.33-1.24-1c-1.61-1.75-4.07-2.33-6.06-3.57l-.67-1.11a14,14,0,0,1-6.57-3.1,19.14,19.14,0,0,1-2.78-.89c-1.45-.89-2.59-2.42-4.48-2.43a14.58,14.58,0,0,0-4.24-1.71c-1.73-1.53-4.19-1.06-6.14-2.08a8.69,8.69,0,0,0-3.33-1.24c-2-1.19-4.36-1.15-6.54-1.69-4.56-1.77-9.55-2.31-14.27-3.61-5.74-.76-11.52-1.24-17.3-1.55a75.3,75.3,0,0,0-12.83,0m-97.51,10a26.81,26.81,0,0,1-6.87,5.48c-2.43,2.92-5.83,4.85-8.19,7.85-3.75,3.43-6.56,7.83-10.75,10.77-.07.27-.21.8-.29,1.07a15.71,15.71,0,0,0-1.46,1.78,14.56,14.56,0,0,1-2.65,3.25,3.91,3.91,0,0,1-1.48,1.79l-.33,1c-4.64,5.73-8.29,12.17-12.43,18.24-2.91,6-6.21,11.74-8.71,17.92l-.57.73c-.72,2.21-1.89,4.28-2.15,6.63l-.62.67a6.31,6.31,0,0,1-1.33,3.26c-.45,1.38-.32,3.09-1.36,4.2-.4,1.42-.87,2.81-1.24,4.24l-.71.63c-1,5.73-2.11,11.43-3.56,17.05-.51,7.69-2.74,15.24-2,23,.87,1.65,1.95-.57,2.56-1.32l.24-1.13c.34-.44.66-.88,1-1.32.36-.24.72-.48,1.09-.71,0-2.2,1.7-3.78,2.68-5.61a8.28,8.28,0,0,0,1.71-3.35c.16-.17.5-.49.67-.66s.17-.87.23-1.16a46.72,46.72,0,0,0,3.8-6.29,26.3,26.3,0,0,0,2.69-4.15c.25-.8.52-1.59.83-2.36.55-.35,1.08-.74,1.6-1.13.5-2.68,2.54-4.66,3.4-7.19a28.32,28.32,0,0,1,3.33-5.8,30.43,30.43,0,0,1,1.37-2.74c1.36-1.72,2.15-3.85,3.78-5.38a4.27,4.27,0,0,1,1.73-3.33c.46-1.83,1.89-3.17,2.33-5,1.08-.72,1.36-2,1.94-3.11.83-1.76,2-3.35,2.63-5.18,1.92-2.42,3-5.37,5-7.73a12.77,12.77,0,0,1,2.81-5l.36-1a8.56,8.56,0,0,0,1.91-3.11c.83-.68,1.75-1.4,1.42-2.74a24.8,24.8,0,0,0,4.48-7.45c.36-.39.74-.77,1.12-1.14.06-.52.13-1,.2-1.54.83-.27.78-1.2,1-1.89,1.76-1.27,2.12-3.61,3.77-4.93,1.62-2.53,2.27-5.62,4.62-7.67.26-2.58,2.23-4.45,3.56-6.52.69-2.8,2.74-5,4-7.53.71-2,2.91-3.22,2.81-5.47.38-.22.77-.43,1.16-.63.66-1.44.9-3.34,2.38-4.19,0-.74.07-1.55-.49-2.11-4.81,1.81-9,4.82-13,8m194.81-7.84c.63,4.15,3.77,7.26,5.74,10.81.71,1.16,1,2.57,1.84,3.65a8.14,8.14,0,0,1,1.5,2.6c.56,1.89,1.85,3.44,2.59,5.25l.51.77a2.79,2.79,0,0,0,1.4,1.9c1.17,1.52,1.73,3.38,2.63,5.06a4.34,4.34,0,0,1,1.48,3.17c.32.43.61.9.9,1.37,1.69,1.23,1.63,3.65,3.21,5,.61,1.46.87,3.22,2.22,4.22.34.41.68.82,1,1.23.07.51.16,1,.25,1.53.88.6,1.71,1.12,1.75,2.45a37.68,37.68,0,0,0,3.31,6.24c1.24,2.67,3.17,5,4.2,7.75,1.27,1.24,1.52,3.06,2.19,4.66.54.35,1.07.74,1.61,1.13.06.53.13,1.06.22,1.59a20.42,20.42,0,0,1,2,2.61c.07.27.22.83.28,1.1A27.88,27.88,0,0,1,636,435.7c1.57,3,3.49,5.78,4.87,8.86a31,31,0,0,1,4.53,8.76c2.22,2,3.15,5,5,7.35,2.8,5,5.69,10,8.36,15,1.51,2.17,2.53,4.67,4.16,6.77l.32,1.08a63.44,63.44,0,0,1,5.9,10.4c.41-.23.82-.49,1.22-.76a46,46,0,0,0-.15-6.1c-1.67-9.74-2-19.76-5-29.24-.6-3.49-2.14-6.73-2.64-10.24l-.68-.64a13.94,13.94,0,0,0-2.23-6.94c-.09-.54-.17-1.07-.24-1.6l-.7-.65a53,53,0,0,1-2-6.68l-.75-.6c-.07-.56-.13-1.1-.19-1.65a7.08,7.08,0,0,1-1.67-2.45c-1.83-4-4-7.75-5.68-11.75l-1.11-1.13c-.09-.54-.16-1.08-.23-1.62-2.25-2.43-3.65-5.46-5.64-8.08-.1-.24-.29-.74-.38-1a16.12,16.12,0,0,1-2.29-3.24c-1.8-2.61-4.1-4.85-5.58-7.67a5.59,5.59,0,0,0-2.29-2.33c-.06-.28-.17-.84-.22-1.12-1-.87-2-1.72-3-2.52-.06-.27-.17-.83-.23-1.11-3.75-2.94-6.76-6.68-10.21-10a27.53,27.53,0,0,1-4.4-4.75L611.5,370c-1.34-1.24-2.69-2.51-4-3.8-1.49-.94-3.09-1.78-4.07-3.29l-1.1-.25c-.7-.68-1.44-1.32-2.1-2l-1.11-.26a23.58,23.58,0,0,1-2.17-2,16.37,16.37,0,0,1-2.64-1.95c-.88-.23-1.76-.47-2.65-.61M641.1,451.1c0,1.72.73,3.32,1,5l.65.66c1.38,6.3,3.4,12.46,4.06,18.89.41,3.27,1.23,6.49,1.18,9.81-.36,1.65.74,3.05.8,4.64,0,5.32.06,10.65-.05,16a86.64,86.64,0,0,0-1.15,9.91c-.23,1.83-.27,3.66-.41,5.52-1.36,8.55-3.79,16.89-5.87,25.28-2.8,5-3.25,11.13-6.64,15.84-.09.51-.16,1-.23,1.55-.41.35-.81.72-1.21,1.08-.09.53-.17,1.06-.24,1.6-2.28,3.88-4.26,7.91-6.46,11.83-1.74,1.28-1.75,3.93-3.76,5l-.32,1c-1.56,1.57-2.48,3.61-3.8,5.36-1.52,2.27-3.48,4.18-5,6.47-1.77,1.28-3,3.17-4.7,4.5-.08.25-.24.77-.33,1-3.24,3.47-6.82,6.6-10.14,10a12,12,0,0,0-3.64,3.26l-1,.38a53.55,53.55,0,0,1-8.34,6.75,6.55,6.55,0,0,1-1.41.49A15.63,15.63,0,0,0,583,624.5l-1.06.32c-3.08,2.34-6.55,4.1-9.73,6.29a13.78,13.78,0,0,1-4.52,1.91c-.38.37-.76.74-1.13,1.13-.86.2-1.7.45-2.55.67l-.65.67a4.12,4.12,0,0,0-2.9,1.26c-2.85,1.36-5.77,2.54-8.72,3.67s-5.92,3.08-9.26,3.1l-.64.69c-1.75.37-3.49.78-5.22,1.19-1.39.9-3.11,1-4.69,1.29l-.59.76-1.32.06c0,.22,0,.64,0,.86l6.67.33c1.43.1,2.85-.15,4.29-.13a74.65,74.65,0,0,0,14.26,0,48.65,48.65,0,0,0,7.54,0,10.31,10.31,0,0,1,3.63,0,31.53,31.53,0,0,0,5,0c5.7-1.11,12,1.18,17.4-1.35a32.48,32.48,0,0,0,3.26-2.24c1.5-1.36,3.53-1.88,5.14-3.1,4.45-3.29,8.71-6.85,13-10.35,5.42-4.17,9.73-9.5,14.75-14.09,1.91-2.5,4.06-4.8,6-7.24.88-1.11,1.53-2.45,2.77-3.22.1-.24.3-.72.39-1,2-1.94,3-4.56,4.84-6.62a40.3,40.3,0,0,0,3.86-5.77c1.14-2,3.16-3.62,3.64-6,.36-.39.74-.77,1.12-1.14.07-.52.15-1,.25-1.55a10.33,10.33,0,0,0,1-.84c1.11-2.71,2.12-5.58,4-7.86a4.15,4.15,0,0,1,1.5-3.14c.07-.27.2-.8.26-1.07l.7-.64a20.57,20.57,0,0,1,.75-2.9c1.74-2.22,2.14-5.28,3.19-7.88l.64-.67c1.4-6.42,4.24-12.45,5.48-18.89a23,23,0,0,0,1.37-6c1-5.69,2.37-11.34,2.57-17.12-.1-2.52,1.32-4.81.88-7.36-.11-3.45.32-7-.61-10.37-2.32-2.15-3-5.51-4.64-8.21-2.55-3.36-4.06-7.44-6.5-10.9-.07-.28-.22-.82-.3-1.09-2-1.88-2.57-4.64-4.2-6.75-1.43-2.41-2.37-5.13-4.19-7.28-.08-.27-.23-.81-.3-1.09a43,43,0,0,1-3.89-6.6c-.69-2.25-2.86-3.8-3-6.25-.56-.37-1.1-.77-1.67-1.1m-288.28,10a3,3,0,0,0-1.34,1.94l-1.05,1.17c-.2,3.22-3.77,4.89-3.92,8.05l-1.13.67c-.72,1.4-1.49,2.78-2.16,4.21-.44,1.17-.68,2.53-1.87,3.21a8.36,8.36,0,0,1-1.93,3.1l-.29,1.09c-1.68,1.42-1.7,3.9-3.4,5.31-.05.29-.14.88-.19,1.18l-.81.56c0,.58-.06,1.16-.09,1.74l-.8.58-.24,1.1c-1.35.77-1.57,2.41-2.28,3.66a8.76,8.76,0,0,0-1.08.82c-1.4,3.5-.35,7.43-.38,11.09.16,4.9,1.22,9.7,1.41,14.6a47.79,47.79,0,0,1,1.12,6.17c.1,4.53,2.21,8.7,2.36,13.23l.69.64c1,4.86,2.91,9.46,4.05,14.29a47,47,0,0,1,2.66,7,20.87,20.87,0,0,1,2.22,5.1c.15.17.44.52.6.69.5,2.41,2,4.47,3,6.68,2.1,4.62,4.92,8.84,7.3,13.31,1,1.87,2.76,3.32,3.3,5.43l1.11,1.13.2,1.17c.54.37,1.07.77,1.62,1.14,0,.31.11.92.15,1.23l1.14.65a4.36,4.36,0,0,0,1.38,2.35c.06.27.2.8.27,1.06,2.29,1.69,3.71,4.22,5.7,6.21,3.23,3.78,6.52,7.51,10,11.07,5,4.49,10,8.93,15.29,13.08a6,6,0,0,1,2,2.13l1,.31c3.14,2,5.9,4.54,9.07,6.51l.9.41a7.08,7.08,0,0,0,.92,1c2,.31,3.61,1.9,5.75,1.55,14.55-.06,29.12.37,43.66-.18,3-.16,6-.24,9-.22,0-.31,0-.95,0-1.27-2.28-.41-4.46-1.19-6.73-1.59l-.65-.63c-2.7-.53-5.22-1.68-7.93-2.2-1.32-1.58-3.51-1.83-5.42-1.92-1.43-.93-3.17-1.25-4.58-2.23-2.1-.56-4.05-1.56-6.11-2.21l-1.12-1.13c-.54-.09-1.08-.18-1.61-.25-2.14-1.59-4.89-2.3-6.74-4.26l-1.5-.32a20.94,20.94,0,0,0-7.78-4.61,66,66,0,0,0-5.44-4.59,56.36,56.36,0,0,1-9.36-7.14,15,15,0,0,1-1.87-2.26l-1.22-.15c-3.4-3.78-7.53-6.91-10.32-11.2a24,24,0,0,1-3.31-3.53,2.86,2.86,0,0,0-1.35-1.91c-.57-.82-1.12-1.64-1.64-2.46l-1.24-.13c-1.4-2.2-2.12-5.11-4.53-6.48-.08-.25-.23-.77-.3-1-.68-.88-1.14-1.91-1.87-2.75-.11-.22-.34-.67-.45-.9-1.41-1.69-2.36-3.71-3.72-5.43-.12-.49-.24-1-.35-1.46a4.16,4.16,0,0,1-1.36-2.38l-.66-.66c-.05-.3-.16-.88-.21-1.17a5.18,5.18,0,0,1-1.83-3.7l-.73-.6c0-.59-.06-1.18-.08-1.77l-1.2-.61c-1.23-4.28-3.6-8.19-4.38-12.59l-.7-.64c-.08-.53-.17-1.06-.25-1.58-1.14-1.93-1.21-4.29-1.88-6.38-.5-2.2-1.75-4.18-1.78-6.49-1.43-7.73-3.43-15.41-3.69-23.29-.39-6.15-.27-12.32-.14-18.47a104,104,0,0,0,.92-14.64l.74-.6a28.19,28.19,0,0,1,1.18-7.07c1.27-5.82,2.87-11.55,4.16-17.36a3.87,3.87,0,0,0,.61-3.15c-3,2.74-4,6.86-6.49,10m-26.77,47a16.35,16.35,0,0,1-1.8,2.34c-.06.56-.12,1.11-.17,1.67l-1.13.66c-1.45,4-4.72,7.08-5.87,11.14l-1.16.65c-.06.53-.12,1.06-.19,1.59-1.53,1.48-1.9,3.81-3.3,5.46a37.29,37.29,0,0,0-4.15,6.86c-1.6,2.2.35,4.79.65,7.12.11,3.91,2.1,7.35,2.62,11.17,1.08,3.74,2.75,7.32,3.5,11.16l.65.64c.36,1.44.69,2.87,1.19,4.28a8.56,8.56,0,0,0,1.45,3.6,4.31,4.31,0,0,0,1.41,2.78l.36,1.45a6.08,6.08,0,0,1,1.34,3.27l.64.68a31.78,31.78,0,0,1,1.18,3.9l.68.66c.07.26.22.8.29,1.07a27.37,27.37,0,0,1,1.9,2.71c.12.48.23,1,.35,1.47,1.81,2.16,2.4,5,4.18,7.22a172.66,172.66,0,0,0,11.92,17.89c.1.23.3.72.41.95a13.4,13.4,0,0,1,3.26,4.55c2,2,3.61,4.3,5.47,6.42.09.24.28.73.38,1a34.06,34.06,0,0,1,5.53,5.47c2.88,2.61,5.51,5.48,8.48,8a7,7,0,0,1,2,2.17,10.83,10.83,0,0,0,4.83.62c6.05-.09,12.11.21,18.16-.26,4.76-.28,9.59.83,14.35-.19,0-.35,0-1,0-1.36-1.43-1-2.93-1.94-4.32-3l-1.05-.33a20.54,20.54,0,0,0-3.26-2.69c-1.19-.64-1.71-2.14-3.11-2.41a13.53,13.53,0,0,1-4.38-4.3l-1.06-.29a86.51,86.51,0,0,1-9.19-8.23c-.06-.29-.16-.86-.22-1.16l-1.25-.11c-2.74-3.36-6.06-6.23-8.51-9.81-4.25-3.63-7-8.56-10.51-12.85-.36-.42-.7-.83-1.06-1.23l-.28-1.05a2.78,2.78,0,0,1-1.41-1.88c-1.52-2.59-4.05-4.73-4.54-7.81a13.92,13.92,0,0,0-2-2.61c-.07-.55-.14-1.08-.19-1.61-.41-.21-.83-.42-1.23-.6l-.24-1.14a6.43,6.43,0,0,1-1.87-3.21l-.6-.71c-.36-1.16-.84-2.28-1.18-3.43l-.7-.65-.24-1.61a17.08,17.08,0,0,1-2.27-5.06l-1.07-1.17c-.59-2.26-1.76-4.33-2.13-6.64l-.66-.66c-1-4.12-2.64-8-3.4-12.18l-.71-.63c-.38-2.35-1-4.66-1.27-7-.72-4.48-2.5-8.74-2.72-13.29-.31-3.17-1.16-6.25-1.54-9.4-.14-3.35,0-6.71-.05-10.06l-1.27.08m347.06.34c-.91,3.63-.13,7.47-1.28,11.06a94.64,94.64,0,0,1-2.59,14.84,79.55,79.55,0,0,1-2.1,9.39c-1.62,4.57-2.18,9.45-3.84,14l-.75.62c0,.32-.09,1-.11,1.27-.2.14-.59.42-.78.57-.61,1.53-.69,3.34-1.74,4.69A64.74,64.74,0,0,1,654,578.72c-.3.77-.59,1.55-.85,2.34-1.39,1.6-2,3.69-3.26,5.38-.31,2-2.17,3.17-2.81,5a10.2,10.2,0,0,0-.83,1.48,23.74,23.74,0,0,1-3.29,3.57,16.82,16.82,0,0,1-3.74,5.86c-.07.27-.22.8-.29,1.07-2.31,2.16-3.64,5.23-6.12,7.19l-.31,1a24.29,24.29,0,0,1-2.35,2.71c-.29.46-.56.93-.83,1.41a2,2,0,0,0-1.82,1.92c-1.82,1.83-3.89,3.41-5.55,5.39-1.09,1.53-2.77,2.44-4.2,3.59-1.29,1.33-2.29,2.9-3.45,4.34l-1.23.13c-2.22,3.27-5.76,5.39-9.08,7.42-.37.54-.77,1.06-1.15,1.59l-1.13.22c-.84,1.34-2.34,2-3.63,2.8-1.3,1.71-3.49,2.35-5.21,3.51,0,.57-.06,1.16-.07,1.75,6.34.1,12.71-.22,19.06.28,2,.44,4-.25,6-.09,4,.31,8-.26,12-.25,3.93-2.9,6.73-7.12,11-9.65.43-.6,1.29-1.8,1.71-2.4,1.32-1.12,2.5-2.4,3.88-3.47,0-.3.08-.91.11-1.22.95-1,2.65-1.57,2.89-3.11.5-.41,1-.83,1.52-1.21l.16-1.22c.54-.37,1.09-.75,1.67-1.08.06-.28.16-.85.22-1.12,2.55-1.33,2.89-4.64,5.16-6.31,1.41-2.1,2.7-4.28,4.22-6.31.07-.27.22-.81.3-1.09a23.87,23.87,0,0,0,4-6.52c.21-.53.75-.8,1.16-1.15l.41-.92c2.28-4,5-7.86,6.54-12.27.78-1.88,2.25-3.38,2.93-5.3,1.57-4.31,4.3-8.21,5.14-12.77l.64-.66c.41-2.81,1.87-5.31,2.54-8,.61-2.09,1.26-4.16,2.06-6.18,1.07-2.52,1.1-5.33,2.17-7.86.58-3.07,2.07-6,1.54-9.26-1-1.65-2.27-3.18-2.81-5l-1.1-1.15c-.09-.52-.19-1-.28-1.53a5.73,5.73,0,0,1-1.22-1.56c-1.9-3.44-3.79-6.88-5.71-10.31a6.73,6.73,0,0,0-.93-.92c-.14-.47-.27-.93-.39-1.39-1.86-2.21-2.8-5-4.7-7.23-.06-.56-.12-1.12-.17-1.68h-1.3m-370.4,39.09c0,.29-.15.88-.21,1.17l-.8.57c0,.32-.07,1-.1,1.28l-.81.55-.15,1.69c-.37.39-.72.79-1.07,1.2-.73.72-1.63,1.29-1.63,2.54a52.59,52.59,0,0,1-2.9,5.76,4.87,4.87,0,0,0-1.93,2.69,9.53,9.53,0,0,0-1.49,3.55c-.25,1.82.65,3.56.9,5.35l.72.62a111.1,111.1,0,0,0,5.36,14.36c.47,2.14,2.3,3.73,2.25,6l.56.71a9.13,9.13,0,0,0,1.39,2.77c.06.28.19.85.25,1.14l1.23,1.06c0,.56.08,1.13.13,1.71l.71.62c.45,3.78,4.25,6,5,9.69a8.79,8.79,0,0,1,1.26,2.41,66.64,66.64,0,0,1,5.57,8.12c3.76,6.32,8.4,12,12.72,18a25.19,25.19,0,0,1,5.33,7c1.83.07,3.67.26,5.52.38,6.68-.25,13.37.39,20.06.18,1.72,1.08,2.74-.35,2.81-1.65-.8-.15-.95-.86-1.1-1.53a9.71,9.71,0,0,0-2.92-2c-.22-.7-.44-1.38-.66-2.07l-1.28-.09c0-.3-.13-.9-.17-1.2-3.74-3.29-7.48-6.65-10.1-11a13,13,0,0,1-4.24-5c-2.63-3.32-4.83-7-7.83-10-.09-.52-.19-1-.28-1.53a20.3,20.3,0,0,1-1.5-1.74,24.6,24.6,0,0,1-2.14-3.81c-.38-.21-.76-.43-1.12-.65-.16-.73,0-1.78-.91-2-.08-.51-.14-1-.2-1.51-2.08-1.67-2.46-4.37-4.31-6.22a32.47,32.47,0,0,0-1.22-3.85l-1.12-.67c-.08-1.93-1.63-3.4-1.55-5.38l-1.19-.63a29.73,29.73,0,0,1-1.18-3l-.63-.71a31.78,31.78,0,0,1-1.18-3.9l-.69-.65c-.07-.52-.15-1-.23-1.54-1.72-4-3.87-8-4.61-12.39-1.67-4.35-2.51-9-4-13.42-.69-2-.63-4.24-1.82-6-1.32.33-1.52,2.09-2.56,2.9m391.45-2.5c-1.12,2.56-1.3,5.41-2.08,8.07-.55,3-2,5.71-2.82,8.66-1.24,5.26-3.79,10.09-5.4,15.24l-.69.66-.28,1.06c-1.47,1.84-2,4.25-2.79,6.45a20.46,20.46,0,0,0-2.21,5.1l-1.14,1.12c-.06.28-.2.85-.27,1.13-1.47,2.13-2.18,4.69-3.67,6.81-1.58,3.19-3.89,6-5.52,9.14-2.07,1.69-2.16,5.06-4.69,6.36l-.36,1c-2.76,2.25-3.63,6.09-6.52,8.17-.07.27-.2.81-.26,1.07a9.74,9.74,0,0,0-3,3,19.75,19.75,0,0,1-7.06,7.62c-1.56,1.07-2.3,2.9-3.35,4.41-2.46,1.86-4,4.7-6.62,6.35,0,.72-.2,1.58.51,2.07,7.14.14,14.29,0,21.44.07,1.77-.32,4.1.58,5.59-.84,2.8-2.1,4.38-5.4,7.06-7.59l.24-1.1c.92-.78,2.19-1.35,2.42-2.66,2.29-3,4.59-6.06,6.87-9.1.88-2.29,2.69-4,4.21-5.86.72-2.16,2.13-4,3.21-6,3.13-5.06,5.67-10.46,8.62-15.62.95-2.89,2.86-5.36,3.73-8.27,1.62-2.53,2-5.66,3.68-8.14.86-3.65,3-6.87,3.72-10.55.65-2.24,1-4.8,0-6.94a73.94,73.94,0,0,1-4.43-7.46,77.94,77.94,0,0,1-4.23-7.7l-.53-.76a5.08,5.08,0,0,0-1.36-2.38c-.68-.82-.75-2.43-2-2.55m-406.63,29c-.07.27-.23.8-.3,1.07-1.41,1.45-2.08,3.42-3.14,5.12a6.55,6.55,0,0,0-.9,2.81c-.51.39-1,.78-1.53,1.15-.41,1.11-.9,2.18-1.33,3.27-.86,1-1.53,2.12-2.39,3.11l-.32,1a3.86,3.86,0,0,0-.94,1.47l-.64.69a11.65,11.65,0,0,0-.44,5.15c.75.35.81,1.21,1,1.91a6.86,6.86,0,0,1,1.29,3.27l.61.68c.95,4,3.6,7.16,5.29,10.81,1.68,2.71,2.36,5.93,4.22,8.55,1.88,2.35,3.06,5.19,4.56,7.8a15.05,15.05,0,0,1,2,2.15l.28,1.07a24.38,24.38,0,0,1,4.19,6.38c2.08,2.21,3.35,5.13,5.75,7,8.63.41,17.26-.46,25.88.1.13-.16.37-.47.5-.62v-1.93a69.58,69.58,0,0,1-5.33-6.19c-.87-1.32-2.08-2.41-2.49-4-1.79-1.43-2.91-3.47-4.41-5.16-1.32-1.66-1.71-4-3.44-5.27a5.47,5.47,0,0,1-1.37-2.32,21.69,21.69,0,0,1-3.92-5.67c-.73-1.12-1-2.61-2.09-3.44-.07-.54-.15-1.07-.2-1.59-.37-.24-.75-.46-1.12-.69a39.76,39.76,0,0,0-3.22-6c-.12-.49-.24-1-.34-1.45-.69-1-1.17-2.16-1.91-3.14l-.4-1c-2.08-4-4.36-8-5.44-12.42-.36-.4-.72-.78-1.08-1.16-.44-3.24-2.2-6.07-3.24-9.11-.6-1.5-.67-3.18-1.53-4.55a14.46,14.46,0,0,0-2.13,1m422.25-.47c-.28.49-.57,1-.86,1.45a15,15,0,0,1-1,3.12c-1.17,2.32-1.65,4.93-2.8,7.26s-2.58,4.54-3,7.14c-1.13,1.93-2.08,4-3.22,5.89a39.71,39.71,0,0,1-4.86,9.34c-2.58,3.52-3.4,8.18-6.56,11.29-.33.45-.66.9-1,1.32-.14.46-.26.93-.38,1.4-1.79,1.93-3,4.27-4.62,6.38-1.26.86-1.35,2.54-2.42,3.56-2.83,2.91-4.91,6.42-7.16,9.77a13.45,13.45,0,0,0-2.79,2.24,8.15,8.15,0,0,1-2,3.09c-.06.56-.11,1.13-.14,1.7,6.35,0,12.71.24,19.06-.19,3-.51,5.94-.14,8.93-.22.89-1.53,1.32-3.44,3.07-4.24.08-.26.22-.78.29-1a14.11,14.11,0,0,0,2-2.14c.07-.27.22-.79.29-1.05a72.14,72.14,0,0,1,5.56-8.21c.1-.25.29-.75.4-1,.88-1.29,1.53-2.72,2.3-4.07,2-1.54,2.57-4.27,3.7-6.43a54,54,0,0,0,4.07-7.85l.68-.64.12-1.26.82-.56c0-.32.08-.95.12-1.26l.69-.64c.86-2.58,2.26-4.94,3-7.54l.72-.66c.17-1.27.29-2.59.35-3.85-1.1-2.22-2.46-4.31-3.54-6.53a22.81,22.81,0,0,0-3.85-6.25l-.4-1c-1.62-2.73-3-5.6-4.51-8.35h-1.11m-436.92,26c-1.29,2.36-2.19,5-4.09,7-.1.49-.2,1-.29,1.47a2.21,2.21,0,0,0-.92,1.51c-.49.4-1,.8-1.49,1.18-.68,1.72-1.52,3.37-2.25,5.08-1.39,1.15-2.77,2.83-2.55,4.76-.25,3,1.8,5.46,3,8.09.61,1,.88,2.37,1.91,3.13q.11.78.21,1.59l1.1.69a15.34,15.34,0,0,0,.86,1.45c.58,2.4,3,4,3.15,6.51a8.07,8.07,0,0,0,2,2.12c.07.53.13,1.07.19,1.61l1.16.67c.35.55.72,1.1,1.1,1.65,3.44,0,6.88,0,10.32.26,2.85.54,5.79.13,8.68,0,1.77-.17,3.54-.28,5.33-.34a3.41,3.41,0,0,0-1.29-3.3l-.2-1.12c-.54-.39-1.09-.77-1.65-1.12-.44-.94-.89-1.87-1.3-2.82-1.94-2.39-3.06-5.34-5-7.74a3,3,0,0,0-1.43-1.87c-1.54-2.57-2.86-5.27-4.52-7.77-1.22-2.46-2.5-4.88-3.68-7.36a10.85,10.85,0,0,1-1.72-3.79l-.66-.66c-.08-.27-.21-.8-.29-1.06-2.19-3-2.75-6.9-4.92-9.88l-.72.08m452,1c-1.14,3.2-2.64,6.25-4,9.38-3,5.71-6.57,11-9.23,16.92-.48.74-.92,1.51-1.33,2.29-.54.36-1.05.75-1.56,1.16a3.55,3.55,0,0,1-1.28,2.91c-.08.25-.23.77-.3,1q-.63.29-1.23.6c-.06.56-.11,1.12-.16,1.68-1.23,1.55-2.2,3.29-3.29,4.93a2.7,2.7,0,0,0-1.34,1.92,6.24,6.24,0,0,1-2,2.13,11.09,11.09,0,0,0-.66,2.53c7.95.17,15.91.24,23.86,0a42.2,42.2,0,0,1,2.53-3.4c.59-2.88,3.54-4.53,4.1-7.42l.68-.65.16-1.22c.5-.55,1-1.13,1.52-1.66,1.28-3,3.16-5.75,4.61-8.69,1.91-1.46.84-4.08,1-6.08-.69-.86-1.25-1.82-2-2.63-.08-.27-.23-.8-.3-1.06l-1.1-1.15c-1.83-4.79-5.43-8.71-7.16-13.55-.53,0-1,0-1.57,0m13.64,24.24c-.06.3-.16.91-.22,1.21a7.92,7.92,0,0,0-1.38,2.77l-.65.67-.24,1.1c-1.09.67-2.35,1.52-2,3.12a14,14,0,0,0-2.16,3.76,35,35,0,0,1-3.26,5.89c-1.14.68-1.47,2-1.91,3.15-.24.7-.4,1.65.39,2.07a53.2,53.2,0,0,0,7.46-.19c5.5-.48,11,0,16.55-.25,1.43-.95.2-2.78-.6-3.76-.06-.29-.19-.86-.25-1.14l-.66-.67a6.32,6.32,0,0,0-1.85-3.22l-.28-1.1c-1.26-1.18-1.77-2.84-2.52-4.33-1.47-3.16-3.54-6-5.19-9l-1.24,0m-479.85.29c-3.5,5.09-6.08,10.75-9.42,15.93-1.51.55-1.71,2.25-1.91,3.65-.7,1-1.72,1.84-1.23,3.36,3.79,1.33,7.83-.28,11.71.32,2.92.3,5.85.16,8.77.45,2,.54,3.89-.39,5.81-.74-.24-3.5-3.47-5.73-4.42-9l-.66-.67c0-.31-.1-.93-.14-1.24l-1.25-1c0-.57-.1-1.12-.15-1.67-.69-.7-1.3-1.44-2-2.14-.1-2.45-3.14-3.48-2.66-6.11a12.3,12.3,0,0,0-2.49-1.11M307,650.56c-.47,1.74.47,2.85,1.8,3.64,0,.31.09.93.12,1.23,1.9,1.15,3.05,3.06,4.44,4.72,4.58,6.17,10,11.63,15.38,17.14l1,.37c6.39,7.09,14.18,12.68,21.34,18.91a244.18,244.18,0,0,0,23,15.49c.2.39.41.79.63,1.18l1.77.07.55.81,1.18.21c4.12,3,9,4.79,13.4,7.23,5.42,3.54,11.86,5,17.59,8a6.22,6.22,0,0,1,3.67,1.89c4.49.41,8.64,2.41,12.74,4.18,1.24.2,2.56.53,3.82.77,1.35,1,3.1,1,4.68,1.32.15.18.45.55.59.74l2.94.29c3.29,1.06,6.68,2.29,10.21,2.19.16.17.46.53.61.71,5.83,1.07,11.67,2,17.49,3.12,6.29.55,12.53,1.64,18.85,1.86a55.75,55.75,0,0,0,10.09,0c5.91-.69,11.91.19,17.85-.45,2.58-.32,5.19-.23,7.8-.45,2.12-.33,4.25-.29,6.4-.46a33.22,33.22,0,0,1,3.33-.31l.59-.73c5,.11,9.85-1.47,14.79-2.21,7.89-2,16-3.14,23.63-6.07,1.94-.85,4.17-.75,6.06-1.72a36.89,36.89,0,0,1,3.77-1.23,39.75,39.75,0,0,1,5.65-1.76c.16-.16.5-.46.66-.61,2-.15,3.39-1.63,5.21-2.17a72.07,72.07,0,0,0,8.18-3.24c2.81-1.1,5.19-3.18,8.23-3.72a11.65,11.65,0,0,0,2.76-1.81c.49-.12,1-.23,1.49-.32,2.47-2.19,5.74-3.31,8.74-4.57l.74-1a53.19,53.19,0,0,1,4.7-2.68c.41-.33.82-.65,1.25-1,1.77-.78,3.29-2.08,5.16-2.69,1.58-2,4-3,6.15-4.36,2.56-2.75,6.55-3.74,8.92-6.65a126.16,126.16,0,0,0,17.82-15.13c5.77-4.58,10.39-10.37,15.63-15.51a19.73,19.73,0,0,1,4.28-4.42l.24-1.11a5.84,5.84,0,0,0,2.85-3.62c1.35-1.67,2.88-3.42,3.06-5.66-6.85-.22-13.71.2-20.53-.33-2.46-.44-4.92.41-7.38.39-.6.77-1.2,1.55-1.75,2.36-3.78,4-7.4,8.26-11.9,11.45-1,1.42-2.62,2.29-3.57,3.78l-1.06.26c-.92,1.65-2.68,2.56-4.11,3.71-.38.53-.78,1-1.18,1.56l-1.13.21c-1.28,2.3-4.27,2.7-5.94,4.63-.42.48-.82,1-1.23,1.48a6.34,6.34,0,0,0-2.78,1.38c-3.37,3-7.49,5-11.16,7.59a6.45,6.45,0,0,0-.78,1.1l-1.61.19c-.4.51-.79,1-1.15,1.57-1.87-.71-2.35.94-3.13,2l-1.2.15-.66.64a2.91,2.91,0,0,0-1.46,1l-1.47.29c-2.09,2-5.06,2.47-7.35,4.11-2.21,1.81-5.06,2.49-7.74,3.26a17,17,0,0,1-6.76,3.32c-1.79,1.27-4,1.63-5.87,2.78-3.67.58-6.9,2.47-10.5,3.24a15.05,15.05,0,0,0-3.68,1.35c-2.17,1.28-4.7,1.46-7.1,2-1.17,1-2.83.8-4.22,1.33a10.29,10.29,0,0,1-4.57.93l-.6.71c-5.83,0-11.26,2.49-17.08,2.64a26.12,26.12,0,0,1-7.84,1.34c-1.83.22-3.69.24-5.5.44s-3.69.25-5.49.47c-8.85.35-17.74.28-26.58-.07-1.82-.28-3.69-.31-5.5-.47-5-.42-9.77-2.08-14.79-2.15-2,.3-3.66-1-5.56-1.27-3.54-.48-7.08-1.08-10.56-1.85a67.32,67.32,0,0,0-6.52-1.73c-2.32-1.21-5-1.46-7.46-2.11-2-1.41-4.71-1.1-6.77-2.4-1.43-.39-2.84-.87-4.28-1.26-.17-.16-.5-.48-.66-.65-2.62-.55-5-1.79-7.56-2.59l-.68-.62a6.88,6.88,0,0,1-3.83-1.68,27.16,27.16,0,0,1-2.71-1c-2.28-1.24-4.77-2.15-6.87-3.69-1.07-.44-2.15-.85-3.18-1.36-1.73-.69-3.14-2-5-2.41-3.56-2-7.08-4.14-10.45-6.46a10.59,10.59,0,0,0-2.47-1.24A142.08,142.08,0,0,1,367.25,680l-1-.33c-2.35-1.92-4.62-3.94-7-5.79-1.51-1.22-3.23-2.33-4.23-4l-1.16-.19c-1.52-1.39-2.41-3.7-4.52-4.23a148,148,0,0,1-13.07-13.91,17.4,17.4,0,0,0-10-1.11c-4,.61-8.07,0-12.1-.26-2.39.1-4.74.78-7.14.39m68.27.35c-.6-.16-1.2-.31-1.8-.43,0,.59,0,1.18.06,1.78a16.44,16.44,0,0,1,1.83,2.31l1.17.18c3.59,4.14,8.94,6.3,12.66,10.27l1,.34c3,2.6,7.11,3.67,9.95,6.54l1.51.32c.86.65,1.8,1.21,2.65,1.89a17.34,17.34,0,0,1,2.68,1.45l1,.41c2,1.91,5,2.13,7.31,3.7,1.56,1.11,3.67,1.3,5,2.82,1.14.24,2.27.52,3.42.73l.69.6a4.58,4.58,0,0,1,1.47.91c2.8.75,5.32,2.27,8.25,2.74,1.17.51,2.44.82,3.6,1.42,5.06,1.46,10.17,2.85,15.18,4.5,4.28,0,8.08,2.27,12.34,2.39,5,.69,9.78,2.29,14.83,2.12,2.65-.07,5.15,1.12,7.82.83,4.81-.24,9.62.43,14.43.27,2.43-.27,4.89-.29,7.35-.48s4.9-.25,7.36-.43c7.24-.75,14.34-2.51,21.62-3.07.15-.18.46-.54.62-.71,6.19-.7,12-3.12,18.16-4.3.15-.18.47-.52.63-.7,1.79-.28,3.56-.64,5.34-1.1,1.56-.82,3.07-1.81,4.9-2,5.13-1.87,9.81-4.89,15.09-6.39.94-1,2.32-1.39,3.53-2,2.34-.91,4.23-2.68,6.6-3.52,1.72-1.43,3.87-2.17,5.71-3.4,1.39-.88,2.78-1.93,4.5-2,.39-.52.78-1,1.15-1.56a28.2,28.2,0,0,0,6.46-4.08l1-.39a6,6,0,0,1,2.07-2.08c2.55-1.7,4.93-3.65,7.56-5.24a8.85,8.85,0,0,1,2.86-2.69c0-.54,0-1.09.07-1.63-4.59-1-9.35-.51-14-.34-8.38.64-16.78-.11-25.16.41-.87.69-1.89,1.15-2.76,1.84a39.58,39.58,0,0,0-5.49,2.74,5.21,5.21,0,0,0-2.74,1.41c-1.31.43-3,.45-3.64,1.87-2,.67-3.94,1.53-5.9,2.3a12.06,12.06,0,0,1-1.88.91,8.16,8.16,0,0,1-3.3,1.3c-3.65,2.51-8.49,2-12.3,4.09-3,.69-5.82,1.85-8.86,2.19l-.62.69c-2,.12-3.89.31-5.82.6-.14.2-.42.61-.57.81a53.69,53.69,0,0,0-6.45.85c-6.23.31-12.37,1.93-18.63,1.4-1.85-.12-3.72-.57-5.53.07-10,1.71-20-.78-30-1.56-.49-1.24-2.51-.56-3.28-1-5.21-1.08-10.28-2.69-15.49-3.77-2.61-.79-5.46-.75-7.87-2.17-2.91-1.76-6.3-2.45-9.34-3.92-4.08-1.91-8.55-3-12.33-5.5-.88-.38-1.72-.78-2.54-1.21L419,655c-.81-.74-1.75-1.31-2.6-2l-1.66-.19c-.36-.41-.71-.82-1.07-1.22-2.17-.39-4.38-.63-6.56-.84a118.2,118.2,0,0,0-14.7,0c-4.09.33-8.19-.08-12.28,0-1.58-.82-3.26-.38-4.83.19m-96.55-.41c-.17.72-.37,1.45-.56,2.18l1.27.63c.69,1.45,1.38,2.9,2,4.39l1.26.1c0,.31.11.92.14,1.23a40.22,40.22,0,0,1,4.66,5.89c1.74,2.22,3.59,4.39,5.13,6.77,3.6,3.59,6.41,7.9,10,11.53a24.34,24.34,0,0,1,3.48,4.76l1.28.09c4.46,5,9.7,9.24,14.3,14.09a25,25,0,0,1,3.37,3c.53.69,1.1,1.34,1.67,2l1.19.19c5.13,4.21,10.07,8.63,15.6,12.33s10.76,7.69,16.49,11c2,1.09,3.53,3.24,6,3.24.39.52.76,1,1.11,1.61l1.58.24.61,1.18c.88.14,1.83,0,2.54.74,1.89,1.33,4.2,1.8,6.22,2.91,4.69,2.43,9.43,4.79,14.35,6.76,1.6.85,3.34,1.44,4.95,2.31,1.29.34,2.53.87,3.82,1.27l.67.67c1,.17,2,.42,3,.67l.67.67c3.07.62,5.69,2.84,8.94,2.58l.65.69c2.91.81,6,1.23,8.64,2.79a94.87,94.87,0,0,0,13.63,3.37l.59.75c3.69.07,7.14,1.71,10.85,1.57.15.19.45.55.61.73,2.93.49,5.87,1,8.84,1.27,3.06.5,6.05,1.31,9.18,1.38,1.67.15,3.36.31,5.05.45,12.89,1.81,26,1.18,38.93.94,3.45-.56,7.07.19,10.45-.92,3.93-.64,8.09.38,11.95-.93s7.71-1.42,11.61-1.64l.62-.71c3.53,0,6.93-.94,10.37-1.59l.62-.7c2.6-.28,5.11-1.08,7.7-1.46,2.37-.57,5-.65,7.06-2.11,3.83-1.15,7.68-2.32,11.47-3.6,3.27-1.43,7-1.62,10-3.67a14.38,14.38,0,0,0,3.76-1.32c2.71-1.56,6-1.67,8.74-3.13q.42-.54.78-1.11l1.59-.2c.15-.19.47-.56.63-.75.85-.21,1.69-.45,2.56-.65.35-.4.72-.79,1.1-1.18l1.13-.26a8.22,8.22,0,0,1,3.11-1.45,9.47,9.47,0,0,1,1.47-.87l.73-.55c2.36-.08,3.76-2.38,6.05-2.71a18.54,18.54,0,0,1,3.51-2c2.84-1.28,5.26-3.29,8-4.81a9.72,9.72,0,0,0,2.79-1.34,13.3,13.3,0,0,0,2.27-1.42c2.08-1.43,4.17-2.85,6.3-4.23l1-.33a9.49,9.49,0,0,1,1.89-1.8c6.41-4.68,13-9.24,19-14.41,2.61-1.6,4.44-4.12,6.82-6,9.9-8.4,18.59-18.07,27.33-27.63.06-.28.17-.86.22-1.15.71-.52,1.44-1,2.19-1.48l.08-1.28c.39-.22.79-.42,1.21-.61,1.51-3.72,4.39-6.59,6.81-9.69,1.67-1.16,2.2-3.27,3.7-4.58l.24-1.08.88-.62c-.14-.66-.44-2-.58-2.66-7.73,0-15.45-.06-23.17,0a7.77,7.77,0,0,1-3.22,3.23l-.16,1.19c-.43.18-.85.38-1.25.58-.06.3-.16.87-.21,1.16-1.11,1.19-2,2.56-3.23,3.66-1.33,1.42-3,2.61-3.79,4.44a5.35,5.35,0,0,1-1.78,1.91c-.3.46-.58.92-.86,1.4-1.51,1.07-2.56,2.64-4,3.81-5.15,6-11.35,10.93-17.14,16.27-1.7.85-2.59,2.67-4.27,3.54-2.42,1.35-3.85,3.88-6.29,5.16l-1.16,1.57-1.23.15-1.22,1.07a19.89,19.89,0,0,1-5.37,3.78c-2,1-3.61,2.53-5.48,3.69-2.57,1.88-5.54,3.16-7.84,5.42l-1.7.14c-.21.41-.4.83-.58,1.26-.55,0-1.09.12-1.62.2-1.52,1.49-3.33,3-5.52,3.22-.37.38-.74.76-1.09,1.15l-1.23.16-.65.67a2.72,2.72,0,0,0-1.93,1.32c-1.28.35-2.49.86-3.72,1.33a32.93,32.93,0,0,1-6.21,2.93c-2,.74-3.7,2.25-5.75,3l-.66.67-1.71.13-.62.71a29.54,29.54,0,0,0-5.58,2.19c-3.52,1.39-7.54,1.69-10.53,4.17-2.48.46-5,.71-7.33,1.79-4.42,1.32-8.91,2.4-13.38,3.56-2.47,1.4-5.48,1.3-8.2,1.91-4,1.54-8.33,1.64-12.51,2.14l-.6.74c-3.85.72-7.77.35-11.63.76-3,.53-6.11.68-9.17.93-2.73.3-5.51.16-8.23.42a96.14,96.14,0,0,1-14.2,0c-4.28-.27-8.56-.21-12.79-.92-1.58-.23-3.19.39-4.77.2-3.07-.21-6.05-1.14-9.15-1l-.59-.76c-4.29-.7-8.62-1.19-12.93-1.68-1.07-1.21-3.05-.75-4.39-1.18-2.28-.11-4.41-1-6.68-1.14-4.09-2.35-9.27-1.66-13.43-3.94-1.33-.86-3-.93-4.35-1.6-2.58-.54-5.33-.81-7.3-2.74a22.94,22.94,0,0,1-6-2.3c-2.36-.59-4.81-1-6.88-2.31-3.32-1.9-7-2.91-10.42-4.69-3.22-1.19-5.84-3.49-9-4.76-2.64-1.2-4.7-3.33-7.32-4.55-4.86-2.28-9.21-5.45-13.77-8.23A181.4,181.4,0,0,1,333.45,684a50,50,0,0,0-4.36-3.9c-.06-.28-.18-.84-.25-1.12-1.44-1.49-3.14-2.66-4.7-4-4.58-3.56-6.92-9.21-11.44-12.81a3.06,3.06,0,0,1-1.22-2.05,22.49,22.49,0,0,0-2.09-1.54c0-.3-.1-.91-.13-1.21-2.27-1.41-3.62-3.77-5.11-5.89a3.07,3.07,0,0,0-2.59-1.08c-7.61,0-15.22-.05-22.83.06m78.88.25c-5.86.59-11.8,0-17.68.26.19.86.43,1.72.64,2.59,3.09,3,6.06,6.14,9.17,9.15,2.92,2.71,6.08,5.21,8.73,8.2a68.47,68.47,0,0,1,10.09,7.78l1.05.33c1.29,1.14,2.75,2.11,4,3.32l1,.37c2.78,1.76,5.44,3.69,8.14,5.59,1,.73,1.72,1.83,3.16,1.9,1.92,1.56,4.27,2.46,6.45,3.63,1.74,1.22,3.89,1.78,5.52,3.17,1.08.46,2.16.94,3.29,1.31.19.14.55.43.73.58,3.23,1.45,6.5,2.9,9.62,4.6l1.6.25c.16.18.49.52.65.69,3.85,1,7.18,3.42,11.12,4.08a24.38,24.38,0,0,0,7.44,2.63c.16.17.48.49.63.66a36.29,36.29,0,0,1,6.7,1.6l.59.78c1.18,0,2.37.06,3.56.11.15.18.45.57.6.76,4.45.77,8.9,1.6,13.28,2.73,2.86.67,5.83.63,8.66,1.47,3.17,1,6.53.85,9.79,1.22,3.42.47,6.82,1.34,10.3,1.14,8.4,0,16.8,0,25.21,0,4.48.25,8.74-1.5,13.21-1.46,5.29-.88,10.66-1.24,15.92-2.3,1.44-1.39,3.7-.83,5.46-1.46,3-.41,5.79-1.62,8.82-1.73l.63-.7a67.52,67.52,0,0,1,8.54-2l.62-.71c1.25-.23,2.61-.36,3.87-.68,1.18-.88,2.71-1,4.07-1.41.91-1.34,2.88-1.09,4.19-1.83,7.26-2.47,14-6.19,21-9.21,1.8-1,3.51-2.25,5.57-2.69,2.11-1.65,4.72-2.53,6.8-4.18l1.37-.37a4.1,4.1,0,0,1,1.46-.95c.2-.38.41-.76.63-1.13.6,0,1.2,0,1.8,0,.19-.42.39-.84.59-1.24,1.23-.53,2.74-.76,3.55-1.94a4,4,0,0,1,1.88-1.33c1.06-.39,1.59-1.48,2.52-2.06,1.34-1.08,3.13-1.32,4.5-2.36a10.08,10.08,0,0,0,2.18-2.42l1.12-.21c.75-1.69,2.58-2.38,4.06-3.3a8.2,8.2,0,0,1,3.23-2.72c1.11-1.82,3.08-2.73,4.68-4,2.35-2.23,4.55-4.64,7.11-6.63a25.88,25.88,0,0,0,3.63-3.23c1.28-1.46,2.07-3.48,4-4.32,0-.57.07-1.14.11-1.7-3.11-1-6.45-.31-9.63-.49-6.54.21-13.14-.51-19.63.48-1,1.17-2,2.34-2.88,3.56l-1.12.21c-1.28,2.45-4.64,2.68-5.88,5.17l-1,.37c-.54.52-1.13,1-1.7,1.48-1.38.1-1.92,1.44-2.7,2.37l-1.11.21a2.44,2.44,0,0,1-1.9,1.4l-.65.67-1.24.14c-.36.41-.72.81-1.07,1.22l-1.08.28c-1.66,1.59-4,2.27-5.45,4.15a8.49,8.49,0,0,0-4.59,2.77l-1.4.4a6.45,6.45,0,0,1-3.31,1.79l-.66.66-1.13.27a37.33,37.33,0,0,1-6.35,2.77,3.9,3.9,0,0,1-1.85,1.43c-2.08,1.48-5,1.28-6.77,3.25a41.24,41.24,0,0,0-4.71,1.24c-1.35.64-2.54,1.64-4.05,1.88-1.58.65-3.66.19-4.95,1.48-1.91,1.72-4.77,1.48-6.94,2.68-1.75.28-3.48.6-5.24.71-.14.2-.44.59-.59.78-2.2.44-4.36.92-6.58,1.19-.7.12-1.48.27-1.8,1-3.33.38-6.74.69-9.87,2-2,.86-4.35.28-6.41.94a45.37,45.37,0,0,1-5.29.71c-2.6.22-5.22.16-7.81.42a41.45,41.45,0,0,1-8.26,0c-3.12-.45-6.23,0-9.34.06-3.59-.36-7.22-.35-10.81-.55-8.06-1.27-16.24-1.55-24.24-3.16a2.52,2.52,0,0,1-1.3-1.1c-2.44-.31-4.9-.53-7.32-.86a15,15,0,0,0-5.09-1.81c-2.65-.19-4.8-2-7.44-2.2l-.66-.66c-2.54-.54-5.51-1-7.42-2.74-.53-.08-1.06-.14-1.58-.2l-.56-.82-3.16,0q-.3-.64-.57-1.26a40.5,40.5,0,0,0-7.59-2.53l-.61-.72-1.25-.13-1-1.26c-.58,0-1.15-.08-1.73-.1l-.58-.8-1.08-.22a3.19,3.19,0,0,0-1.45-1l-1.18-1c-1-.38-2.21-.45-2.82-1.38-.51-.11-1-.2-1.51-.28-.41-.36-.83-.7-1.24-1-1.18-1.74-3.5-1.92-5.08-3.15a9.57,9.57,0,0,1-4.54-2.83l-1-.35c-3-2.17-6.34-4-9-6.54l-1.11-.26c-1-1.15-1.95-2.37-2.86-3.55l-1.71-.12a33.54,33.54,0,0,0-3.45-3.4c-1.46-1-3.16-1.75-4.12-3.27-3.39-1.78-7.42-.94-11.07-.83m61.53-.11c-.75,3.39,3.62,3,5.33,4.84l1.55.22c.15.19.44.59.59.79l1.24.13c.35.39.72.77,1.09,1.17a12.68,12.68,0,0,1,5.22,2.1,17,17,0,0,1,2.65,1,13.45,13.45,0,0,1,4.58,1.84,57.31,57.31,0,0,1,7.39,2.26,6.13,6.13,0,0,0,3.09,1c2.18,1.23,4.93,1.25,7.36,1.78a2.85,2.85,0,0,0,2.74.89c1.07,1.58,3.54.29,5.07,1a21.09,21.09,0,0,0,4.75.74l.59.75c1.74.07,3.49.17,5.24.3,9.29.59,18.53,2.48,27.88,1.38,4.43-.31,8.87-.52,13.3-.91,4.56-.64,9.05-1.7,13.6-2.4,5.34-.61,10.3-3,15.64-3.61,1.89-.59,3.65-1.54,5.54-2.17a62,62,0,0,1,7-2.2c2.68-1.29,5.36-2.58,8.1-3.75,1.87-.77,3.72-1.54,5.64-2.19.2-.38.42-.76.65-1.12a18.67,18.67,0,0,0,4.52-1.47q0-.93,0-1.83c-3.31,0-6.61,0-9.89-.28-1.84-.36-3.68.32-5.5,0a11.08,11.08,0,0,0-4.06,0c-2.21.26-4.45-.39-6.65-.25-8.09.62-16.18-.17-24.27,0-36.67,0-73.33-.15-110-.05m305.21.39c-.62.47-1.26.9-1.9,1.33,0,.3-.11.91-.14,1.21-.91.58-2,1.11-2.35,2.24-.5,1.37-1,2.87-2.45,3.53-.27.49-.53,1-.77,1.49-.41.21-.81.42-1.2.65,0,.28-.14.84-.19,1.12a3.8,3.8,0,0,0-1,1.41c-.87,1.25-1.79,2.46-2.63,3.73l-1.24.13c-1.22,2.46-2.48,5-4.8,6.65-3.75,2.84-5.79,7.29-9.45,10.25-3,3.12-5.76,6.44-9,9.27-5.52,5.5-10.94,11.16-17.36,15.61A207.69,207.69,0,0,1,652,723.37c-3.28,2.39-6.83,4.41-10,7l-1.55.28c-.39.36-.78.72-1.16,1.09-2.46.86-4.28,2.91-6.68,3.88a6.81,6.81,0,0,0-2.57,1.57l-1,.36c-1.46,1.65-3.92,1.68-5.33,3.37l-1.18.2-.6.78c-.53,0-1,.12-1.55.2-.84,1-2.33.93-3.21,1.88a91.37,91.37,0,0,1-9.46,4.29c-1.64.64-3,1.95-4.84,2.07l-.65.65a37.82,37.82,0,0,0-8,3c-6.43,1.57-12.12,5.54-18.86,5.92-.38.36-.76.72-1.13,1.09-2.34.56-4.57,1.53-7,1.81-3.76,1.26-7.74,1.76-11.62,2.51l-.58.8-4.75.18c-.87,1.31-2.76.94-4.11,1.44-5.77.25-11.34,2.19-17.13,2.15-.15.19-.45.56-.59.75-4.63.48-9.3.49-13.93.75-1.82.26-3.68.26-5.49.5a115.73,115.73,0,0,1-15.58-.07c-2.73-.41-5.51-.22-8.24-.48-3.69-.54-7.45,0-11.15-.27-5.22-.21-10.16-2.39-15.44-2-6.23-1.41-12.51-2.78-18.85-3.62l-.62-.71c-2.39-.37-4.76-.91-7.15-1.13l-.64-.71c-3.61-.76-7.11-1.87-10.73-2.53-1.07-1-2.58-.88-3.87-1.23s-2.6-.8-3.91-1.14a7.77,7.77,0,0,0-3.62-1.41,32.13,32.13,0,0,1-5-1.79c-.71-1.53-2.62-1.7-4.07-1.94-2.42-1-4.89-1.77-7.33-2.71-1.39-2.3-4.8-1.15-6.44-3.19a57,57,0,0,1-6.05-2.64q-.31-.6-.63-1.17c-2.31,0-4.16-1.63-6.16-2.59-1.18-.85-2.88-1-3.58-2.44a14.33,14.33,0,0,0-2.46-.7l-1.1-1.16-1.66-.18c-.4-.38-.8-.73-1.2-1.07-.84-1.37-2.71-1.18-3.68-2.34-.5-.11-1-.2-1.49-.29-1.48-1.35-3-2.82-5-3.27a28.33,28.33,0,0,1-4.52-3.69c-.42-.36-.83-.71-1.23-1.07-.55-.07-1.09-.13-1.64-.18a22.52,22.52,0,0,1-2.15-2,19,19,0,0,0-4.57-3.19,2.84,2.84,0,0,0-1.92-1.35c-2.37-2-5.06-3.75-7.25-6-.76-.61-1.5-1.25-2.26-1.85-.58-.65-1.18-1.27-1.81-1.85-2.49-1.39-4.3-3.67-6.53-5.39-4.22-3.39-7.59-7.67-11.67-11.23-3.91-4.17-8-8.21-11.78-12.48-3.46-5.18-8.71-9.09-11.21-14.89-1.28-1.26-2.93-2.25-3.17-4.18a6.71,6.71,0,0,1-1.56-1.63c-1.52-2.54-3.48-4.78-5.16-7.21-9.77-.09-19.55-.07-29.31,0,.15,1.47.33,3,.56,4.47l1.24,1.08c.07.27.2.81.27,1.08,1.45,1.37,2.24,3.24,3.4,4.84,1.35,1.61,1.68,4,3.54,5.2,6.75,11,14.88,21,23.3,30.7,2.29,2.87,5.17,5.21,7.55,8,1.8,2,3.35,4.28,5.54,5.91a328.3,328.3,0,0,0,26.17,23.28c4.49,3.1,8.54,6.8,13.14,9.76,3.71,2.37,7.15,5.16,11,7.36,5.83,3.53,11.54,7.27,17.63,10.34a10.21,10.21,0,0,0,4.65,2.22l1.17,1.06a5.39,5.39,0,0,1,2.41,1.29,33,33,0,0,1,4.52,1.89c2.2,1.22,4.76,1.75,6.83,3.23l1,.39c2,1.19,4.49,1.31,6.28,2.85l1.62.25.62.69a18.48,18.48,0,0,1,5.3,2c5.71,1.7,11.17,4.13,17,5.49l.56.83c1.62.24,3.26.44,4.9.6.15.19.46.56.62.74,1.47.24,2.9.5,4.4.67l.65.65c5.24,1.07,10.27,3.35,15.66,3.59,1.48,1.34,3.88,1,5.68,1.27l.6.73c10,1.2,20,3.33,30.11,3.38l.54.8q3.54,0,7.1.26c9.9.45,19.85.4,29.76.06q9.58-.93,19.2-1.39a86.81,86.81,0,0,1,11.62-1.18l.57-.76c5.2-.15,10.21-1.7,15.3-2.6,3.82-1,7.77-1.37,11.52-2.64,2.19-.67,4.46-1,6.68-1.51a6.78,6.78,0,0,0,3.72-1.33,56.43,56.43,0,0,0,6.52-1.74c1.14-.59,2.4-.9,3.56-1.47,2.42-.83,5-1.2,7.36-2.26a14.79,14.79,0,0,1,4.27-1.26l.68-.62a7,7,0,0,0,3.75-1.27,9.73,9.73,0,0,0,2-.86c1.75-.84,3.89-1.16,5.38-2.45.5-.08,1-.15,1.55-.2l.59-.8q.84-.08,1.71-.12c.35-.41.71-.8,1.07-1.18,1-.19,2-.44,3-.7,1.55-1.66,3.87-2.14,6-2.78.38-.35.78-.7,1.18-1a10,10,0,0,0,2.78-1.36l1-.38a31.75,31.75,0,0,1,4.53-2.33c7.59-4.62,15.75-8.34,22.8-13.8.52-.1,1-.19,1.58-.27,3.92-3.69,8.86-6,13-9.38,6-4.33,11.66-9.08,17.37-13.77,2.51-1.59,4.09-4.2,6.57-5.82,1.74-1.9,3.79-3.5,5.57-5.38,1.64-.3,1.52-2.65,3.25-2.76,1.19-1.54,2.22-3.24,3.83-4.37,1.87-1.34,3-3.38,4.8-4.83a47,47,0,0,1,4.14-4.56c.45-.61.92-1.21,1.38-1.81,1.64-1.58,2.92-3.49,4.59-5,.29-.47.6-.92.92-1.37.81-.88,1.5-1.86,2.25-2.79.7-.51,1.36-1.07,2-1.63.06-.28.19-.83.25-1.11,2.21-1.72,3.43-4.28,4.94-6.55,2.08-2.67,3.73-5.65,5.85-8.31,1.43-1.4,1.74-3.7,3.54-4.74.1-.51.2-1,.3-1.49.85-.67,1.68-1.37,2.5-2.07,0-1.76,1.37-2.9,2.09-4.35,1-2.15,2.73-4.06,2.63-6.55-.82.06-1.61.19-2.41.25-8.61-.45-17.25-.32-25.86-.16"></path><path class="cls-3" d="M493.52,375.22c6.15-.41,12.33-.23,18.5-.19a133.66,133.66,0,0,1,27.33,5.64c3,.75,5.67,2.34,8.58,3.3a7.62,7.62,0,0,1,3.17,1.44l1.14.25c.15.19.46.57.61.77l1.56.21c1.22,1.24,3.16,1.37,4.6,2.34,2.39,1.59,5.15,2.62,7.29,4.58,2.42,1.29,5,2.58,6.86,4.61a22.12,22.12,0,0,1,6.37,5.08,2.66,2.66,0,0,0,1.47.87c1.58,1.29,3.11,2.66,4.66,4,.05.29.14.87.18,1.16,2.57,1,4.2,3.43,6.11,5.33.26,1.51,1.77,2.23,2.76,3.24,3.53,3,5.2,7.53,8.33,10.89,2,2,3.05,4.59,4.46,7,.07.28.2.85.27,1.13l.63.69c.19,1.06,1.11,1.65,1.8,2.38,3.67,7.15,6.4,14.72,9.42,22.15a34,34,0,0,1,1.43,5c1.28,6.73,3.42,13.34,3.59,20.25.69,5.38,1.24,10.82.56,16.26-.36,4.12.15,8.34-.85,12.41-.5,5-2,9.83-2.67,14.79l-.77.6c0,.78-.08,2.32-.11,3.1l-.75.59c-.53,2.23-1.1,4.45-1.6,6.69l-.66.66a33.27,33.27,0,0,1-1.45,4.1c-1.66,3.85-2.81,7.92-5,11.55-1.23,1.9-2,4.06-3.08,6.06-.37.22-.72.46-1.07.7a10.38,10.38,0,0,1-.79,1.56,19.41,19.41,0,0,1-4.67,6.8,37.75,37.75,0,0,1-5.52,7.25,2.77,2.77,0,0,1-1.38,1.9c-1.15,1.58-2.26,3.19-3.44,4.76l-1.2.17c-1,1.27-2.11,2.48-3.06,3.8a46.41,46.41,0,0,0-8.63,7.82,2.57,2.57,0,0,0-1.49.92l-1,.26a11.5,11.5,0,0,1-4.55,3.76c-.44.3-.88.61-1.3.92a3.52,3.52,0,0,1-1.91,1.37c-2.28,1.74-5.16,2.62-7.16,4.7l-1.2.17-.56.82-1.78.05c-.2.41-.4.83-.58,1.26l-1.52.25a19.73,19.73,0,0,1-6.37,2.83,4.42,4.42,0,0,1-3.26,1.34,5.48,5.48,0,0,1-3.63,1.37c-1.23,1.22-3.13,1.39-4.71,1.74a42.06,42.06,0,0,0-4.1,1.39l-.69.63c-6.83.68-13.27,3.72-20.24,3.53-2.15.18-4.29.11-6.41.47-5.64.33-11.36.52-16.94-.46-4.87.07-9.57-1.27-14.4-1.71-.14-.19-.44-.56-.6-.75-3.22-.91-6.88-.26-9.75-2.14-1.46-.72-3.22-.49-4.57-1.42-2.51-.8-4.86-2.12-7.46-2.66l-.69-.6a29.69,29.69,0,0,1-5.62-2.17c-.79-1.05-2.15-1.31-3.29-1.8l-.63-1.16c-2,.42-3.28-1.15-4.65-2.21-2.56-.3-4.42-2.28-6.42-3.69l-1.16-.21c-.48-.75-1-1.48-1.47-2.2l-1.79-.05c0-.32-.06-1-.09-1.28a37.47,37.47,0,0,0-4.34-2.57c-.58-.47-1.16-1-1.75-1.41-2.64-2.7-5.91-4.79-8.19-7.85-2.54-2.5-5.29-4.79-7.5-7.61,0-.3-.13-.9-.18-1.2-2.34-1.62-3.95-4-5.75-6.14-.05-.29-.16-.87-.21-1.15l-1.27-.58c0-.59-.05-1.17-.07-1.74a16.13,16.13,0,0,1-1.67-1.11c-1.92-2.84-3.15-6.16-5.47-8.71q-.11-.84-.18-1.65l-.79-.59-.2-1.17a17.47,17.47,0,0,1-3.69-8.69,9.41,9.41,0,0,1-2.33-5c-1.88-3.06-2.6-6.65-3.09-10.15-.47-2.21-1.71-4.22-1.72-6.52-1.66-7.13-2.15-14.45-2.95-21.71a53.15,53.15,0,0,1,0-10.09c.41-5.2.2-10.48,1.39-15.58.54-3.51,1.8-6.85,2.53-10.32A67.43,67.43,0,0,1,383,458c1.22-1.82,1.27-4.09,2.19-6,.9-2.25,2.33-4.24,3.08-6.54.68-2.47,2.58-4.31,3.46-6.67a24.54,24.54,0,0,0,3.13-5.53c.56-.35,1.1-.73,1.64-1.11,0-.54.09-1.07.16-1.6a2.42,2.42,0,0,0,1-1.44q.52-.59,1.08-1.14c.08-.27.23-.81.3-1.07a20.28,20.28,0,0,0,1.89-2.25c.8-.73,1.47-1.59,2.31-2.27a20.89,20.89,0,0,1,3.07-4.26c4.28-4.55,8.68-9,13.31-13.2A2,2,0,0,0,421.5,403a27.18,27.18,0,0,1,4.24-2.62c.4-.51.82-1,1.21-1.5.55-.07,1.1-.13,1.66-.18.39-.52.79-1,1.17-1.57.43-.33.85-.67,1.27-1l1.7-.13c.38-.55.76-1.09,1.1-1.65l1-.34c4.72-3.94,10.53-6,16-8.71,2.56-.76,4.77-2.36,7.53-2.61.14-.19.44-.57.58-.77l1.73-.11c.16-.18.46-.56.61-.75a67.52,67.52,0,0,1,8.07-2c.15-.18.47-.53.63-.7,2.26-.22,4.51-.66,6.75-1.08,5.47-1.38,11.16-1.63,16.78-2m.85,2.75c-2.74.39-5.53.19-8.27.43-4.43.83-9,.66-13.38,1.69l-.61.74c-4.51.37-8.68,2.31-13,3.41-1.47,2-4.45,1.47-6.35,2.84-2.05.87-4.13,1.68-6.17,2.55-1.5.61-2.63,1.95-4.34,2.09a7.87,7.87,0,0,1-1.9,1.29c-1.73.87-2.9,2.69-5,2.82-3.71,1.71-6.74,4.47-9.67,7.23a17.77,17.77,0,0,0-5,4.2l-1.1.23c-.49.74-1,1.46-1.5,2.18l-1.24.12a9.74,9.74,0,0,1-1.69,2c-1.07,2.22-3.12,3.64-5.12,5l-.36,1c-2.55,3.24-5.49,6.18-7.85,9.58-.5.57-.95,1.19-1.4,1.81-2.43,3.54-4.78,7.14-7,10.81-1.29,2.92-2.39,6-4.22,8.62-1.12,1.24-1.39,2.88-2.09,4.34-.31.94-.6,1.89-.84,2.86a11.76,11.76,0,0,0-2,5.36,106.31,106.31,0,0,0-5.4,23,5.4,5.4,0,0,0-1.09,2.06,51.65,51.65,0,0,1,.13,8.88,73.23,73.23,0,0,0,0,12.39c.87,5.43.45,11,1.94,16.36.86,3,.89,6.16,1.85,9.14,2.21,6,3.7,12.29,6.71,17.95a29.37,29.37,0,0,0,.83,2.83c1.16.78,1.52,2.22,2.12,3.41.67,1.76,1.72,3.36,2.12,5.23a61.4,61.4,0,0,1,5.95,9.16,23.21,23.21,0,0,1,2.25,3.22,29.26,29.26,0,0,1,4.54,6c.7.51,1.36,1.07,2,1.63,0,.31.09,1,.11,1.26a44.49,44.49,0,0,1,5.28,4.8c1.26,1.33,2.38,2.87,4,3.77,1.86,2,4.38,3.27,5.8,5.64l1.21.15c1.85,1.9,3.67,4,6.34,4.65.35.55.73,1.09,1.12,1.63l1.13.24a67.29,67.29,0,0,0,10.55,6,8.72,8.72,0,0,0,3.1,1.89c3.95,1.52,7.77,3.33,11.77,4.73,2.23.73,4.3,2,6.71,2,.56.5,1.13,1,1.65,1.56,2.5-.6,5,.38,7.23,1.46,6.65.6,13.22,2,19.91,2.18,3.33-.15,6.64.44,10,0,5.22,0,10.34-1.09,15.53-1.46,2.86-1.11,6-1.06,8.84-2.15a11.77,11.77,0,0,1,5.13-.82c.16-.17.46-.53.61-.7,3.32.3,5.64-2.5,8.83-2.67,3.59-1.56,7.22-3.07,10.76-4.76a8.09,8.09,0,0,0,2.56-1.59c5.7-3.13,11.5-6.21,16.4-10.56a2.5,2.5,0,0,0,1.89-1.39l1.08-.23c.53-.71,1.09-1.39,1.62-2.08l1-.29a2.83,2.83,0,0,1,1.5-.92c3.26-3.43,6.31-7.07,10-10.13,3.59-4.8,7.93-9,11-14.22.94-1.91,2.42-3.49,3.32-5.42a3.64,3.64,0,0,0,1.3-1.94l.54-.75a6.3,6.3,0,0,1,1.89-3.19c0-.29.16-.88.21-1.17l.7-.63a10.62,10.62,0,0,1,2.74-5.54l.24-1.15.68-.64c.57-2.91,2.54-5.34,3.25-8.23a59.56,59.56,0,0,1,2.14-8,41.9,41.9,0,0,0,2.9-12.24c.64-4.12,1.1-8.28,1.33-12.45a142.09,142.09,0,0,0,0-16.51c-.19-1.67-.35-3.35-.47-5-.37-6.7-1.94-13.23-3.09-19.8l-.63-.67c-.23-2.73-1.77-5.09-2.36-7.71s-1.93-5.15-2.83-7.73c-.61-1.5-.85-3.2-2-4.41a122.77,122.77,0,0,0-6-11c-.13-.46-.26-.93-.38-1.39a18.46,18.46,0,0,1-2-2.11c0-.59-.06-1.18-.07-1.76-.44-.19-.86-.38-1.29-.55,0-.57-.09-1.13-.12-1.69-3.24-2.07-4.63-5.78-6.8-8.76l-1.35-.05c0-.28-.11-.85-.15-1.13a2.3,2.3,0,0,1-1-1.47,18.78,18.78,0,0,1-2.33-2.21l-2.36-1.73a33.2,33.2,0,0,0-3.08-3.8,55.37,55.37,0,0,1-8.31-6.81c-1.55-1.43-3.62-2.13-5-3.7l-1-.38c-.53-.55-1.1-1.05-1.64-1.57l-1.16-.22c-2-2.11-5.2-2.56-7.25-4.65a7.6,7.6,0,0,0-4.16-1.82c-1.5-1.45-3.65-1.77-5.35-2.86-.54-.09-1.08-.18-1.6-.25l-.62-.73c-3.63-1-7.07-2.61-10.73-3.54a6.88,6.88,0,0,0-3.61-1.39c-2.8-.59-5.57-1.24-8.38-1.71l-.6-.75c-2.8-.36-5.62-.61-8.42-.81-2.61-.26-5.23-.2-7.81-.41a86.22,86.22,0,0,0-13.73,0"></path><path class="cls-3" d="M486.27,399.62c6.2-.53,12.38-1.91,18.63-1.09,6.19.52,12.34,1.37,18.48,2.23l.62.69c4.73.3,9.14,2.33,13.55,3.91,1.3.7,2.91.94,4,2l1.55.24.66.7c1.15.35,2.27.83,3.43,1.18l.64.72,1.24.15.66.65c4.85,2.41,9,6,13.52,9,1.61,1.1,2.54,2.95,4.13,4.1,4.62,2.75,7.5,7.48,11.38,11.07.08.26.23.79.31,1.06a30.58,30.58,0,0,1,3.8,4.45l.28,1.06c1.93,1.19,2.87,3.5,3.67,5.56l.64.69c.07.26.22.79.29,1.06,1.86,1.78,2.8,4.29,4,6.5.92,2.29,2.33,4.43,2.78,6.89l.64.67c.4,1.46.9,2.89,1.16,4.38l.66.65c2.27,9.39,4.72,18.81,4.91,28.52a41.26,41.26,0,0,1,0,7.78c-.26,2.35-.07,4.78-.74,7.08-1,6.72-1.95,13.55-4.41,19.91-.29,1.12-.58,2.24-.77,3.38l-.67.66a59.48,59.48,0,0,1-6.27,14.34c-1.49,2.84-2.85,5.88-5.14,8.19-.07.26-.21.8-.29,1.06a13.14,13.14,0,0,1-2,2.14l-.31,1c-2.75,3.34-5.3,6.87-8.48,9.84-1.15,1.15-2.46,2.12-3.54,3.34l-1.39.87a17.82,17.82,0,0,1-1.75,1.93,6.57,6.57,0,0,1-2.26,1.41c-1.29.47-1.92,1.75-2.81,2.68a36.47,36.47,0,0,1-4.68,3.1c-.37.53-.76,1-1.16,1.55-3.92.5-6.29,4.4-10,5.61-3.14.35-5.51,2.69-8.5,3.44-3.72,2.43-8.43,2.28-12.43,4-3.41,1.44-7.14,1.38-10.71,2.1-3.09.65-6.27.36-9.38.69a116.4,116.4,0,0,1-18.58-.23,16.11,16.11,0,0,1-4.34-1.11c-3-.23-5.68-2-8.78-1.83-1.38-1.2-3.24-1.54-5-1.91s-3.42-1.19-5.14-1.74c-.16-.18-.48-.52-.65-.69l-1.61-.25c-3.27-2.22-7.22-3.33-10.42-5.64l-1.51-.28a66,66,0,0,0-6.72-5.18,29,29,0,0,1-8.68-6.93l-1.1-.24c-1.4-2.09-3.54-3.49-5.12-5.43-2.34-2.39-4.46-5-6.73-7.45-.08-.27-.23-.8-.31-1.06a21.43,21.43,0,0,1-1.48-1.7c-.39-1.56-1.95-2.35-2.83-3.61l-.2-1.18c-.67-.86-1.22-1.8-1.89-2.65-1.52-3.08-3.71-5.82-4.6-9.19a45.19,45.19,0,0,1-3.64-8.24,9.7,9.7,0,0,1-.66-1.17c-1.22-4.32-2.25-8.69-3.45-13-.89-4.29-.91-8.7-1.65-13a41.83,41.83,0,0,1-.2-10.78c.35-4.16.06-8.35.85-12.46.8-5.91,2.75-11.57,4.26-17.31a27.81,27.81,0,0,1,2.71-5.92,6.5,6.5,0,0,1,1.06-3.58c1.55-2.76,2.84-5.65,4.4-8.39a5.78,5.78,0,0,1,1.51-2.22c.09-.51.17-1,.27-1.52l1.25-.59c0-.58.05-1.17.09-1.74a14.54,14.54,0,0,1,2.05-2.1c.06-.27.2-.8.27-1.07a17.6,17.6,0,0,1,2-2.16,45.31,45.31,0,0,1,2.71-4.14,6.75,6.75,0,0,0,2.28-2.35l1.12-.21c2.21-4.44,6.72-7.06,9.94-10.68,3-1.87,5.48-4.45,8.71-5.94a33.35,33.35,0,0,1,2.61-2.43l1.22-.16c.14-.19.44-.58.58-.78l1.16-.24a17.07,17.07,0,0,1,2.64-1.49c3.43-1.85,6.88-4,10.69-4.89l.66-.62c4.05-.66,7.59-3.11,11.73-3.46l.63-.66c3.38,0,6.55-1.37,9.9-1.58m4.62,2.31-4.8.28c-3.48.11-6.6,2.07-10.13,1.77a42.62,42.62,0,0,1-9.71,2.66c-.22.37-.44.75-.64,1.13-1.83.46-3.62,1.1-5.48,1.41-.78,0-1.07.79-1.44,1.35l-1.11.22-.65.7a6.56,6.56,0,0,0-5.15,2.65,31,31,0,0,0-3.72,1.78c-1.31,1-2.49,2.32-4.15,2.75-.22.37-.45.74-.67,1.12l-1.12.23c-.72,1-1.91,1.44-2.75,2.3a5.86,5.86,0,0,0-2.75,1.85,28.38,28.38,0,0,1-7.5,6.7l-.12,1.23c-3.32,2.06-4.48,6.23-7.61,8.46-.06.26-.2.78-.27,1a3.83,3.83,0,0,0-1.5,1.78,15.76,15.76,0,0,0-3.58,6c-.36.23-.71.46-1.05.7-.2,2.53-2.47,4.23-3.06,6.65l-.55.73c-.54,2.43-2.22,4.37-2.92,6.74-.73,2.74-2.1,5.29-2.44,8.14l-.67.65c-1.25,5.65-2.8,11.28-3.16,17.09-.25,2-.27,4-.46,5.95a56.24,56.24,0,0,0,0,10.54c-.15,5.4,1.19,10.61,1.93,15.92,1.85,5.86,3.49,11.82,5.81,17.54,1.53,2.29,2,5.09,3.52,7.41a6.81,6.81,0,0,1,1,2.73l.56.72c1.16,3,3.37,5.48,5.27,8.06s3.89,5.26,5.91,7.83c2.11,1.72,3.54,4.07,5.44,6,1.64,1.4,3.51,2.58,4.84,4.32,2.84,1.65,4.92,4.4,7.92,5.83a4.17,4.17,0,0,1,1.23,1.07l.91.42c.88.67,1.9,1.12,2.77,1.81,3.43,1.56,6.48,4.08,10.16,5l1.14,1.08c3.71.36,6.57,3.22,10.32,3.5l.64.65c2.8.44,5.49,1.41,8.3,1.81,4,.51,7.88,2,12,1.82a109,109,0,0,0,14.68,0c2-.33,4-.28,6-.45,5.26-.41,10.26-2.32,15.53-2.68a3.93,3.93,0,0,0,1.38-1c4.1-1.06,7.83-3.28,12-4,.18-.41.38-.81.59-1.2q.87,0,1.77-.06l.57-.81,1.16-.24a8,8,0,0,1,2.77-1.36l1.13-1.12,1.23-.15.6-.78,1.1-.25a37.67,37.67,0,0,1,4.93-3.78l1-.33c.72-1.57,2.78-1.39,3.64-2.82.46-.29.92-.58,1.39-.85,1.2-1.84,3-3.12,4.65-4.54,5.41-4.87,9.43-11,14.26-16.42,0-.3.14-.89.18-1.19a13.58,13.58,0,0,1,2-2.12c.27-.81.54-1.61.78-2.42.35-.4.7-.78,1.06-1.17a5.51,5.51,0,0,1,1.29-2.4,4.81,4.81,0,0,1,1.45-2.73c.12-.46.25-.92.38-1.37a4.85,4.85,0,0,0,1.44-2.73c1.82-3.05,2.5-6.75,3.61-10.13,3-8,3.59-16.57,4.85-24.92a111.88,111.88,0,0,0-1.65-24.86,51.81,51.81,0,0,1-2.09-8.92l-.62-.67a43.47,43.47,0,0,0-2.69-7.87,44.81,44.81,0,0,0-3.2-7.78l-.43-1c-1.55-2.22-2.48-4.79-3.92-7.06-2.1-3.77-4.93-7.07-7.1-10.79-2.15-2.13-3.95-4.6-6.5-6.3-.07-.27-.19-.82-.26-1.1-2.79-3.05-6.68-4.95-9.16-8.28l-1.09-.25c-.92-.76-1.75-1.62-2.64-2.4-5.42-2.5-9.83-7-15.64-8.69l-.71-.58c-2.13-.74-4.08-1.95-6.28-2.45-9.29-2.42-18.45-5.93-28.19-5.76-5.25-.2-10.7-.9-15.81.59"></path><path class="cls-3" d="M488.66,425.39c2.18,0,4.22-.91,6.41-.9,5.58,0,11.26-.45,16.79.58,3,.86,6.12,1,9.09,1.89s6,2.36,9.15,3.25c2.35,1.15,4.88,1.93,7.09,3.39,1.71.82,2.94,2.38,4.73,3.06,5.1,2.43,8.5,7.09,12.87,10.5a14.14,14.14,0,0,1,2.28,2.76c.87.8,1.57,1.77,2.4,2.62,0,.32.11.93.15,1.24a25.52,25.52,0,0,0,2.09,1.59,36.61,36.61,0,0,1,1.71,3.29c1.92.95,2.08,3.35,3.43,4.82a36.62,36.62,0,0,1,3,5.7,27.65,27.65,0,0,1,1.23,4.25l.64.66c.55,2.55,1.82,4.87,2.2,7.48,1.4,4.58,1.41,9.43,2.3,14.12,0,4.42.91,9.07-.4,13.38-1.07,6.15-1.67,12.52-4.22,18.3-1.07,1.51-1,3.72-2.4,5-.08.51-.15,1-.22,1.56L567.8,535c-.07.54-.14,1.09-.2,1.64-.54.68-1,1.42-1.51,2.15a10.15,10.15,0,0,0-1.41,2.29c-1.61,2.06-3.1,4.21-4.55,6.39a3,3,0,0,0-1.28,2c-2.74,2.13-4.35,5.48-7.57,7.05l-.08,1.28-1.33.06c-.54.68-1.09,1.36-1.57,2.1-2.47,1.77-5.3,3.15-7.41,5.37a4.87,4.87,0,0,0-2.24,1.49l-1.59.2c-.23.37-.45.74-.67,1.12a8.43,8.43,0,0,0-2.42,1.25,16.34,16.34,0,0,0-2.66,1,79.36,79.36,0,0,1-11.15,4l-.63.68c-3.75.41-7.34,1.6-11.12,1.68-1.86.17-3.69.18-5.5.46-6.5.48-13-.75-19.42-1.23l-.6-.78a52.77,52.77,0,0,1-6.59-1.61c-2.31-.35-4.32-1.56-6.52-2.24a4.27,4.27,0,0,1-1.71-1.05c-1.39-.73-3.22-.89-4.08-2.35-2.28-1.37-4.88-2.25-6.78-4.18l-1-.33c-2.19-2.12-5-3.46-6.7-6.14l-1.24-.13c-.56-.66-1.13-1.31-1.67-2-2.23-1.61-3.18-4.47-5.51-6a91.71,91.71,0,0,1-6-8.65c-.1-.25-.28-.75-.37-1-1.61-1.49-1.63-3.95-3.26-5.43a22.31,22.31,0,0,0-2.22-6c-2.52-6.74-3.64-13.9-4.6-21a78.75,78.75,0,0,1,6.46-37.63,27.12,27.12,0,0,0,1.8-3.72l1-1.2c.6-1.91,1.44-4,3.33-5,0-.58,0-1.16.09-1.73l1.25-.59c.07-.26.2-.79.26-1.06a2.73,2.73,0,0,0,1.42-1.87c.47-.58.95-1.16,1.41-1.75a16.22,16.22,0,0,0,1.37-1.38c.52-.4,1-.81,1.53-1.21l.24-1.12a25.24,25.24,0,0,0,2.68-2.79,1.88,1.88,0,0,0,1.9-1.86A87.17,87.17,0,0,1,469.54,431l1.15-.25.57-.8,1.74-.09c.14-.2.44-.59.58-.8,1-.22,2-.47,3-.64l.64-.67c3.84-.6,7.47-2.23,11.4-2.37m2.45,2c-1.11.17-2.22.28-3.32.34l-.62.71c-4.22.78-8.59,1.29-12.53,3.07-1.59.94-3.36,1.45-5,2.24a12.72,12.72,0,0,0-2.67,1.5c-1.29.93-2.87,1.31-4.16,2.23l-1.07.35c-.71.51-1.45,1-2.2,1.43-1,1.45-2.71,1.9-4.1,2.79a39.37,39.37,0,0,0-4.09,3.64,2,2,0,0,0-1.82,1.93,42.35,42.35,0,0,0-6.55,6.7c-.06.28-.18.84-.25,1.12-.65.56-1.3,1.13-2,1.65-.85,1.74-2.16,3.25-2.7,5.13a31.6,31.6,0,0,0-4.19,6.73c-.47,1.76-1.2,3.42-1.82,5.12a66.41,66.41,0,0,0-2.26,7.35c-1.38,1.89-1.33,4.36-1.68,6.58,0,1.73-.73,3.34-.87,5.05-.09,4.56-.1,9.12,0,13.69.42,4.59,1.36,9.11,1.87,13.69l.69.65a44.06,44.06,0,0,1,1.15,4.38l.7.64c.47,1.91,1,3.85,1.56,5.77l1.18,1.11c.06.28.19.84.26,1.13a8.6,8.6,0,0,1,1.46,3.14,27.29,27.29,0,0,1,3.47,5.66c1.6,2.73,3.87,5,5.61,7.63a5.17,5.17,0,0,1,1.81,2.36l1.45.81a50.45,50.45,0,0,0,9,7.9c2.06,1.51,4.54,2.36,6.49,4a7.36,7.36,0,0,1,3.6,1.92c2.62.87,5.22,1.79,7.84,2.7l.45.54c1.36.32,2.67.61,4.06.89,1.91,1.33,4.4,1.06,6.56,1.71,2.65.89,5.43.84,8.19,1,8.45.81,17-.46,25.14-2.73a42.57,42.57,0,0,0,9.62-3.31c.5-.08,1-.15,1.54-.2l.63-.77,1.55-.25c1.08-1.14,2.58-1.72,3.83-2.62a52.86,52.86,0,0,1,6.21-3.83,4.78,4.78,0,0,1,2.39-1.33c2.47-2.24,5-4.44,7.29-6.87,2-1.45,2.58-4.09,4.54-5.54,1.93-2.5,3.15-5.61,5.56-7.69.44-2.29,2-4.15,3-6.2,1.95-3.11,2.77-6.75,4-10.16,1.26-4.74,2.78-9.46,3.1-14.39a122.76,122.76,0,0,0-.47-21.09c-.56-3.11-1.68-6.09-2.27-9.19-.58-1.16-.88-2.42-1.45-3.57-.26-.82-.54-1.63-.77-2.45l-.63-.68a20.63,20.63,0,0,0-4.14-8.27c-.06-.56-.12-1.12-.16-1.68l-1.25-.57-.16-1.21-.68-.65a2.41,2.41,0,0,0-1.39-1.91c-.05-.27-.16-.83-.21-1.11-.55-.36-1.1-.71-1.63-1.08a2.2,2.2,0,0,0-1.37-1.93c0-.28-.13-.85-.17-1.13l-1.29-.11c-2.3-3.76-6-6.21-8.93-9.4l-1.08-.26c-.5-.72-1-1.42-1.55-2.08-4.27-1.06-7.23-4.74-11.35-6.11-2.2-1-4.66-1.6-6.66-3a38.15,38.15,0,0,0-7.47-1.7c-.15-.18-.47-.53-.62-.7-8.56-2.26-17.54-1.52-26.27-1.3"></path><path class="cls-3" d="M494.35,449.91A49.76,49.76,0,0,1,515,451.68c1.66.63,3.72.41,4.9,2l1.54.31c3.2,1.94,6.94,3.2,9.57,6,1.89,1.09,3.29,2.81,5,4.19a12.79,12.79,0,0,0,2.31,2.28c3.12,3.85,6.21,7.77,8.19,12.37-.42,1.27.68,2.1,1.47,2.74a67.26,67.26,0,0,1,3.16,15.07,46.08,46.08,0,0,1-3.63,22.59l-.63.69a3.79,3.79,0,0,1-1.33,2.86c-.13.46-.26.93-.37,1.4a16.19,16.19,0,0,0-2.41,2.62,4.89,4.89,0,0,1-.7,2.11c-1.32,1.74-2.45,3.62-3.8,5.34-2.93,2.72-6.05,5.22-8.71,8.22a20.22,20.22,0,0,0-2.79,1.77,18.19,18.19,0,0,0-2.67,1.46l-1,.4a24.36,24.36,0,0,1-9.75,4l-.63.68a47.57,47.57,0,0,0-7.43.81c-6.39.3-13,.59-19.14-1.54-3-.82-5.85-2.32-8.92-3a19.56,19.56,0,0,1-4.48-3.28,8,8,0,0,1-3.85-3c-.89-1.4-3.06-1.09-3.69-2.75-.91-1.78-2.68-2.82-3.93-4.3a25.15,25.15,0,0,1-2.69-4.2,21.44,21.44,0,0,1-5-9.68c-.38-.38-.75-.77-1.12-1.13a66.35,66.35,0,0,1-2.18-8.87c-1.6-5.64-1.32-11.61-.42-17.35.07-3,1.8-5.5,2.2-8.38l.67-.65c.24-1,.51-2,.75-2.95a24,24,0,0,0,1.84-3.61,24.55,24.55,0,0,0,1.89-2.73l.41-.92a18.6,18.6,0,0,0,2-2.15c.05-.28.16-.86.22-1.14a20.57,20.57,0,0,0,1.41-1.82l1.09-.25c1.6-2.87,3.65-5.66,6.75-7,1.14-1.91,3.33-2.5,5.15-3.52.21-.39.43-.76.66-1.13,2.5-.33,4.52-1.91,6.76-2.88,2.3-.56,4.5-1.5,6.82-1.95l.63-.65a14,14,0,0,0,5.22-.75m-.11,2.62a12.53,12.53,0,0,0-3.55,1c-1.89.44-3.77.9-5.68,1.21l-.65.66c-2,0-3.59,1.36-5.46,1.85A4.14,4.14,0,0,0,476,459c-.41.35-.82.7-1.2,1.07l-1.71.13c-.23.38-.44.77-.65,1.15a6.13,6.13,0,0,0-2.38,1.76,12,12,0,0,0-2.33,1.79c-1.69,1.38-2.75,3.41-4.64,4.55l-.16,1.19-1.19.65c-.27.47-.54.94-.82,1.41a13.64,13.64,0,0,1-.95,1.43l-.43.88a8.78,8.78,0,0,0-1.46,2.25c-1.27,3.28-3,6.4-3.94,9.81l-.74.6c-.78,6.23-1.64,12.55-.61,18.8A60.22,60.22,0,0,0,458.09,524c.74,1.31.91,2.91,1.92,4.06,3.22,4.05,6.32,8.34,10.58,11.39,1,.83,2.26,1.41,3,2.55.64.28,1.3.54,2,.78l.73.54a3.76,3.76,0,0,1,1.46,1l1.38.32c.68.9,1.93.88,2.91,1.31,4.09,1.49,8.31,2.82,12.71,2.88,2.94,1,6.08.71,9.15.53,4.07-.84,8.58-.75,12.28-2.81a17.88,17.88,0,0,1,3.83-1.25c.16-.17.47-.52.62-.7l1.23-.15c.36-.39.74-.76,1.12-1.13a5.61,5.61,0,0,0,2.43-1.26,77.19,77.19,0,0,0,9.11-7.84c1.07-1.22,2.49-2.13,3.25-3.61a3.54,3.54,0,0,0,1.34-1.94l.5-.76a27.17,27.17,0,0,1,3.16-5.11,11.88,11.88,0,0,1,1.39-3.16,8.55,8.55,0,0,1,.85-2c1.37-4.81,3.63-9.44,3.36-14.57.88-6.06-.74-12-2.37-17.79-.8-1.83-.87-4.05-2.25-5.57-.1-.24-.31-.72-.4-1-1.08-2.23-2.66-4.14-3.75-6.34-1.67-1.44-2.31-3.72-4-5.18-1.47-1.29-2.9-2.59-4.23-4-2.42-1.68-5.13-3-7.19-5.19l-1.68-.15-.6-.76c-.87-.21-1.72-.45-2.57-.65-.15-.19-.47-.56-.63-.75l-1.56-.19c-.86-1.46-3.17-.87-4.46-1.53-5.84-2.35-12.33-1.52-18.47-1.43"></path><path class="cls-3" d="M494.28,475a78,78,0,0,1,11.13-.1c4.85,1.21,10.24,3.13,13,7.66l1.3.09c2.16,3.09,4.73,6.1,5.73,9.82a49.44,49.44,0,0,1,1.17,9.84c.45,2.73-1.17,5.07-1.56,7.67l-.57.71c-1.05,2.84-3.16,5.09-4.94,7.48-1.61,2-3.49,4.07-6,5-2,.79-3.9,1.9-5.85,2.84a24.11,24.11,0,0,1-9.47,1.43c-3.24-.7-6.22-2.19-9.44-3a8.23,8.23,0,0,1-1-.9A14.79,14.79,0,0,1,481,518l-1.11-.72c-.05-.27-.17-.83-.22-1.1-1.37-.88-1.75-2.58-2.58-3.87-3.17-5-2.53-11.25-2.71-16.9l.8-.59c.37-1.42.45-3,1.3-4.21,1.73-2.68,2.83-5.85,5.31-8,3.48-3.51,7.6-6.55,12.5-7.66m-3.48,4.32a11.79,11.79,0,0,0-1,.82c-.49.1-1,.19-1.46.3a3,3,0,0,1-1.47.94,37.79,37.79,0,0,1-5.66,5.72,23.61,23.61,0,0,0-2.37,6.82l-.77.59c-.16,5.71-.18,11.56,1.56,17.07l.56.48c.05.52.11,1,.17,1.59l1.11.71c1.56,2.38,4.29,3.68,5.87,6.07l1,.36c2.12,1.69,4.85,2.26,7.48,2.65l.57.79c2.55,0,5.12,0,7.69,0l.6-.77a17.67,17.67,0,0,0,5.72-1.6c3.84-1.13,6.23-4.8,9.14-7.33.21-2.18,2-3.7,2.44-5.83,1.85-4.74,1.79-10,.82-14.94a16.46,16.46,0,0,1-2.36-5.43,12.28,12.28,0,0,1-1-1.33,40.94,40.94,0,0,1-3.51-4.26l-1.12-.25q-.33-.57-.66-1.11a4,4,0,0,1-1.54-.82,5,5,0,0,1-2.73-1.39c-1.65-.45-3.25-1.1-4.91-1.51-4.76-.35-9.74-.34-14.14,1.67"></path></g></g></g></svg>