<svg fill="currentColor" xmlns="http://www.w3.org/2000/svg" viewBox="0 0 1000 1000"><g class="cls-1"><g id="Shapes"><g id="Shape_34" data-name="Shape 34" class="cls-2"><path class="cls-3" d="M489.55,200.65a14.29,14.29,0,0,1,2.92.06c2,0,4.21-.65,6.19.15l-.24.49a4.51,4.51,0,0,1,1.09,1.09l.84.11c.12-.47.26-.94.39-1.41a9.36,9.36,0,0,0-1.67,0c0-.15-.05-.45-.06-.6,3.94.13,7.94-.32,11.88.16,3.55.26,7.15,0,10.68.69,1.47.13,3,.1,4.49.33,6,.28,11.85,1.35,17.8,1.9,1.85.23,3.63.93,5.51,1,2.64.29,5.21,1.06,7.82,1.49.52,1.07,1.66,2.06,2.88,1.36l-.38-.78a19.34,19.34,0,0,1,4.4.78c2.2.73,4.53.88,6.75,1.54,2.73.76,5.51,1.31,8.23,2.14a13.93,13.93,0,0,0,3.38.83c-.13.42-.26.83-.38,1.25l1,0,.45-.74c3.25,1.09,6.81,1.49,9.79,3.26,2.45.52,4.72,1.65,7.21,2.08l.33.41a50.4,50.4,0,0,1,4.93,1.57c0,.28.13.82.17,1.1.34-.21.67-.44,1-.68l1.2.32.88.86c1.62-.1,3,.73,4.44,1.41,3.37,1.61,7,2.69,10.19,4.64,2.65.64,4.87,2.22,7.27,3.42a94.93,94.93,0,0,1,13.18,6.81,117.41,117.41,0,0,1,13.22,7.78c2.62,1.16,4.76,3.13,7.27,4.5a4.44,4.44,0,0,0,1.94,1.49c2.39,1.19,4.43,3,6.75,4.29.26.54.54,1.08.83,1.61l-.39.67h1l.44-.7c4.83,3.38,9.35,7.18,14.07,10.71,1.68,1.07,2.84,2.72,4.47,3.87-.08.12-.23.39-.3.52a3.6,3.6,0,0,1,2.29.89c3.12,3.21,6.71,5.9,9.89,9,3,3,6.12,5.83,9.07,8.87a28.67,28.67,0,0,0,2.66,2.85,56.62,56.62,0,0,1,5.38,6,18.87,18.87,0,0,1,3.06,3.49c.67,1.23,2,1.93,2.8,3.06,1.49,2.25,3.55,4,5.17,6.2,2.09,3,4.71,5.7,6.71,8.81a14.35,14.35,0,0,1,2.56,3.32c.08.53-.66.72-.92,1.11a4.56,4.56,0,0,0,.2,1c.48-.38.93-.78,1.44-1.12,6.73,9.43,12.79,19.33,18.57,29.35,1.41,3,3.41,5.75,4.65,8.85l.41.56c.84,2.26,2.25,4.25,3.25,6.43,1.23,2.29,2,4.81,3.26,7.07a7.46,7.46,0,0,1,.62,2.18l.53.47c0,.22.14.65.19.87a19.13,19.13,0,0,1,2,4.22c.68,1.82,1.53,3.59,2.15,5.45l.48.51c1.17,5.15,3.8,9.84,5,15,3.05,8.28,5,16.91,7.29,25.44a317.53,317.53,0,0,1,6.53,42c.12,1.47.11,3,.35,4.48.14,1.83.16,3.68.36,5.53a243.19,243.19,0,0,1,0,32.73c-.25,5-.49,9.92-1,14.86s-1.41,9.92-1.92,14.9a7.37,7.37,0,0,0-1.29-.26,2.49,2.49,0,0,0-.49,1.3c.48.15,1,.32,1.46.49-1.39,7.87-2.91,15.71-4.74,23.49-1.35,3.71-2,7.6-3.1,11.38-1.39,4.51-2.72,9-4.44,13.46-.86,3.35-2.28,6.52-3.3,9.82-.86,2.59-2.25,5-3.1,7.58a6.06,6.06,0,0,1-1.18,1.9c-.11,2.42-1.63,4.41-2.35,6.66-.1.14-.32.42-.43.55-1.92,4.54-4.22,8.92-6.3,13.38a30.62,30.62,0,0,0-3,5.68c-1.48,2-2.28,4.3-3.65,6.33-2.8,4.35-5.09,9-8.15,13.21a7.47,7.47,0,0,0-.9,1.55l-.93.11c.09.17.28.5.38.66-2.13,3.86-5,7.23-7.38,10.93-2.41,3.32-4.8,6.65-7.39,9.84-1.54,1.69-2.73,3.69-4.55,5.11.11-.58.25-1.15.38-1.72l-1.13,0a8.57,8.57,0,0,0-.53,1.33,13.27,13.27,0,0,0,.86,1.35c-3.39,3.85-6.63,7.85-10.13,11.61-3,3.33-6.34,6.31-9.23,9.72-3.55,3-6.53,6.59-10.15,9.5-2.95,2.33-5.3,5.37-8.53,7.34-3.15,3.21-7.09,5.53-10.34,8.61-5.41,4.49-11.53,8-17.2,12.11a1.8,1.8,0,0,1-1.94.21c0,.41,0,.82,0,1.24-1.84,1-3.48,2.35-5.36,3.3-2.92,2.11-6.24,3.55-9.2,5.61l-.81.24c-2.39,1.87-5.24,3-7.81,4.57-.39.08-.77.16-1.15.26a8.63,8.63,0,0,1-2,1.07c-1.39,1.13-3.18,1.58-4.67,2.53a28.15,28.15,0,0,1-5,2.3,9,9,0,0,1-2.1,1l-.53.43a13.28,13.28,0,0,0-4.5,2.08c-.42.05-.83.1-1.23.17l-.44.57c-.42.05-.82.11-1.22.18a22,22,0,0,1-5.54,2.4l-.51.47c-2.35.41-4.43,1.69-6.73,2.28l-.5.5c-.77.13-1.53.32-2.28.5-.12.13-.36.41-.47.55-1.81.36-3.57.89-5.39,1.19l-.46.55c-1.82.45-3.55,1.2-5.39,1.54L590,786c-3.44.81-6.79,1.94-10.17,3-3.22.33-6.25,1.47-9.32,2.39-1.9.47-3.89.48-5.73,1.17a20.91,20.91,0,0,1-6,1,12.93,12.93,0,0,1-4.12,1c-4.35,1.22-8.94,1.08-13.32,2.14-4.91.84-9.9,1-14.83,1.71-4.33-.12-8.55,1.32-12.89.76-1.78-.34-3.61.13-5.38.28-10.27.44-20.54-.21-30.79-.63-.65-.75-1.7-.24-2.54-.5l-.59.21c-1.23-.21-2.44-.26-3.65-.47a106.22,106.22,0,0,1-11.25-1.2c-1.06-.07-2-.91-3.07-.45-3.33-.44-6.58-1.31-9.9-1.73-4.09-.34-8-1.88-12-2.46-.1-.09-.28-.28-.37-.38-3-.11-5.75-1.22-8.65-1.68-2.17-.85-4.51-1-6.67-1.91a24.91,24.91,0,0,0-4.75-1.14c-1.85-.56-3.6-1.45-5.41-2.13a62.61,62.61,0,0,1-8.7-2.71l-.52-.48c-1.89.22-3.32-1.06-5-1.62l-.54-.44c-2.34-.09-4.35-1.4-6.51-2.13-3.24-1.44-6.72-2.49-9.71-4.42-.4-.07-.81-.13-1.21-.18l-.48-.52a12.24,12.24,0,0,1-4.88-2.35c-2.36-.9-4.44-2.38-6.8-3.24-1.66-.66-3-1.9-4.69-2.54s-3.07-1.93-4.82-2.45c-.31-.26-.61-.52-.91-.76a29.23,29.23,0,0,1-4.81-2.79l-.87-.17-.51-.5c-2.18-.7-3.87-2.38-5.86-3.46-3.73-2-7-4.78-10.7-6.9-2.39-1.87-5.14-3.29-7.32-5.42-7.27-4.61-13.54-10.6-20.31-15.89-3.94-3.75-8.19-7.19-12-11.11a177.82,177.82,0,0,1-12.89-13.3,13.69,13.69,0,0,0-2.73-2.8l-.64-1.06a33.64,33.64,0,0,1-3.42-3.84,114.91,114.91,0,0,1-7.29-8.9c-2.16-2.13-3.5-5-5.59-7.17l-.21-.8c-1.24-.61-1.79-1.94-2.52-3-6.21-8.23-11.46-17.12-16.85-25.87-1.45-3-3.11-5.87-4.68-8.79a14.55,14.55,0,0,0-1.9-3.26,19.08,19.08,0,0,0-1.82-4c-2.35-3.85-3.8-8.13-5.76-12.17-1.11-2.39-2-4.86-3.09-7.25-.63-1.48-.88-3.11-1.71-4.48-1.52-3.35-2.47-6.91-3.83-10.31-1.12-3.77-2.85-7.34-3.67-11.19-2.41-7.92-4.37-16-6.25-24-1-5.64-2.09-11.26-3.12-16.88-.52-5.71-1.67-11.33-1.93-17.06a61.5,61.5,0,0,0-.74-7.18c-.75-7.16-.48-14.36-.77-21.53.32-4.78,0-9.58.2-14.36,1-10.5,1.33-21.09,3.31-31.46.69-6,2-11.91,3.25-17.81A82.74,82.74,0,0,1,209.21,426c1.14-4.34,2.11-8.73,3.56-13,1-3.91,2.67-7.58,3.74-11.47,2.22-6.39,4.81-12.66,7.2-19l.46-.53a41.57,41.57,0,0,1,3.4-7.28,20.28,20.28,0,0,1,1.24-3.28c1.34-2.57,2.45-5.26,3.95-7.74L233,363c1.4-2.49,2.48-5.18,4.18-7.51a137.14,137.14,0,0,1,9.65-16.21l.29-.76c3.18-4.85,6.59-9.54,9.93-14.28a9.51,9.51,0,0,1,1.4.68c-.1-.49-.17-1-.75-1.15.11-.39.24-.77.37-1.16l.89-.14c.4-1.93,1.87-3.39,3-4.91,1.94-1.68,2.85-4.26,4.74-6a7.78,7.78,0,0,1,1.64.26,6.6,6.6,0,0,1-.25-1.91c1.83-2.63,4.26-4.74,6.13-7.34,2.75-3.1,5.58-6.13,8.4-9.18,2.59-2.23,4.64-5,7.25-7.22l.84-.53c0,.26,0,.8.05,1.07l.6-.08.13-1.54a40.33,40.33,0,0,1,5.95-6.17c1.28-1.26,2.83-2.22,4-3.6,2.67-2.15,5.08-4.61,7.89-6.6,7.38-5.89,14.67-12,22.75-16.9a74.17,74.17,0,0,1,8.92-5.87,14.28,14.28,0,0,0,4-2.59l.82-.23a13.79,13.79,0,0,1,2-1.12c.88-.68,2.2-.65,2.78-1.7a12.59,12.59,0,0,0,3.38-2.12l.88-.16.81-.91.85-.19a6.48,6.48,0,0,1,2.08-1l.57-.4a32.77,32.77,0,0,0,5.52-3.09c1.85-.41,3.28-1.85,5.19-2.1,1.45-1.55,3.67-1.76,5.4-2.86,3.44-1.64,7.06-2.93,10.45-4.69A50.46,50.46,0,0,1,391,221a33.48,33.48,0,0,1,9-3.33,1.7,1.7,0,0,0,.72,2.24c.6-.95,1.22-1.88,1.83-2.83l1.36-.05c-.1-.16-.28-.5-.38-.67a69.5,69.5,0,0,1,11.37-3.5,5,5,0,0,0-1.08,1.42,18.43,18.43,0,0,0,2.4-.73c.14-.54.31-1.07.48-1.59,4.58-1.25,9.23-2.2,13.8-3.48a4.43,4.43,0,0,1,3.41.23c.79-.42,1.32-1.22,2.18-1.56a29.46,29.46,0,0,1,4.31-.49c.11-.15.32-.47.43-.63l.88.11a7.12,7.12,0,0,0,.78.53c3-2,6.91-1.58,10.29-2.4,3.9-.54,7.76-1.4,11.71-1.56a29.48,29.48,0,0,0,3.32-.65c4.27-.26,8.49-.91,12.77-1,3-.27,6-.08,9-.36m-12,1.35c1.26,1.13,3.1.3,4.61.57,0-.27,0-.81,0-1.08-1.53.17-3.06.39-4.6.51m-19,2c.07.45.33.53.76.23-.08-.45-.34-.53-.76-.23m75.76.09c-.37.27,0,1.11.42.7.4-.25,0-1-.42-.7m-81.86,1.19c.63-.12,1.25-.28,1.88-.43a1.07,1.07,0,0,0-1.88.43m-8.21,1.26a14.62,14.62,0,0,1,2.74.89v-1.86a14.53,14.53,0,0,0-2.73,1m30-1c-.24.86.25,1.35,1.06,1.52-.23-.58-.29-1.45-1.06-1.52m-25.09.46c.07,1.11,1.06-.53,0,0M551.39,206c0,.21.08.64.1.85a13.74,13.74,0,0,0,1.74-.7l-1.84-.15m-115.66,2.17c-.28.41.45.83.71.42.41-.43-.44-.78-.71-.42m-5.68,1.33c.38.55.73,1.13,1.15,1.66,1,.42,1.28-1.41.88-1.9-.39-1-1.4,0-2,.24m98.51,1.65a15.18,15.18,0,0,0,1.85.8,2.09,2.09,0,0,0-.45-1.44,1.55,1.55,0,0,0-1.4.64m36.38-.2h0M419,211.83c0,.19,0,.58.05.78a4.48,4.48,0,0,0,2.47-.67c-.84-.06-1.68-.09-2.52-.11m-.94,1.14h0m47.54,2.21c.45.11.63-.06.52-.52-.5-.15-.67,0-.52.52m-49.6.89h0m147.19.69h0m30.5,0c.3.57.64,1.12.95,1.7.35-.56.61-1.16.91-1.75l-1.86.05m-192,2a9.27,9.27,0,0,0,.43,1.1,4.57,4.57,0,0,0,1.06-1.48,2.43,2.43,0,0,0-1.49.38m-7.16,8.29c0,.24,0,.73-.06,1L396,228c-.11-.46-.24-.91-.37-1.35l-1,.42m-19.21,1.37c.08.46.33.53.77.24-.09-.46-.35-.53-.77-.24m251.24,1.07h0M367.91,232.1l1.54.13c-.05-.51-.09-1-.14-1.54a2.83,2.83,0,0,0-1.4,1.41m262.53-.86h0m-263.35,1c-.37.33.09,1.1.54.83s0-1.2-.54-.83M401.17,234l-.32.35c.3,1,1.52-.42.32-.35m161,0c-.19.56,0,.76.57.58.18-.57,0-.76-.57-.58M441.51,236c-.18.56,0,.75.58.58.17-.57,0-.76-.58-.58m-86.15,2.05c.07,1.11,1.06-.53,0,0m117.92,1.3c.49.14.67,0,.53-.53-.47-.11-.64.06-.53.53m170.57-.59c-.18.56,0,.75.58.58.17-.57,0-.76-.58-.58m-163.7,3.07c-.66.18-.35,1.13.27,1s.39-1.32-.27-1M344,245.72h0m85.83.34h0m16.21,1c.07,1.11,1.06-.52,0,0m139.9,2.31v1.17c.58-.09,1.15-.2,1.73-.35v-.47a15.15,15.15,0,0,0-1.73-.35M483,259.58a69.72,69.72,0,0,1-7.22.7c-4.71.43-9.36,1.3-14.05,1.8-5.66.8-11.24,2-16.81,3.19-3.86,1.16-7.86,1.81-11.66,3.16-2.26.84-4.66,1.17-6.9,2.07-4.67,1.88-9.6,3.06-14.23,5.05-7.35,2.93-14.72,5.86-21.64,9.72-2.76,1-5.12,2.82-7.83,3.92-.3.28-.59.55-.87.83l-.85.2c-2.06,1.58-4.5,2.57-6.64,4-1.93,1.07-3.56,2.72-5.77,3.21-4.52,3.57-9.29,6.82-14.07,10-2.38,2.24-5,4.18-7.58,6.21a8.6,8.6,0,0,1-1.25,1.16c-3.39,2.56-6.37,5.59-9.62,8.31-7.19,6.6-13.71,13.87-20.29,21.07-1,1.3-2,2.62-3,3.92-2.18,2-3.51,4.75-5.43,7-2.48,2.88-4.29,6.23-6.66,9.19a97.62,97.62,0,0,0-7.21,11.43c-3.35,5.18-6,10.75-9,16.13-.08.19-.22.59-.29.78a234.22,234.22,0,0,0-10.3,23.81,65.31,65.31,0,0,0-3,9c-2.1,5.65-3.42,11.54-5,17.34-.5,3.38-1.73,6.61-2.07,10a205.65,205.65,0,0,0-4.08,30.76c-.36,2.79,0,5.64-.52,8.43-.65,2.51.19,5,0,7.57,0,2.82-.06,5.65.17,8.47.23,2.4.15,4.82.33,7.24.11,1.87.68,3.78.32,5.66.29,3.83.92,7.62,1.56,11.41a85.72,85.72,0,0,0,1.25,8.73,212.29,212.29,0,0,0,8,32.62c.86,3.6,2.68,6.91,3.24,10.59l.51.52c.12.5.27,1,.41,1.51-.86,0-.61.92-.69,1.51l1.33-.34c.89,2.74,2.48,5.21,3.06,8,2.15,3.62,3.52,7.62,5.55,11.3.63,1.14,1.08,2.39,1.63,3.57a96.07,96.07,0,0,1,4.67,8.43,8.86,8.86,0,0,0,1.53,2.6,11.74,11.74,0,0,1,1.67,3.17l.51.5c0,.4.1.81.16,1.23.24.33.47.67.7,1l.84.18c2,3.85,4.68,7.27,7,10.92,3.78,4.83,7,10.14,11.3,14.54.81,1.24,1.81,2.35,2.63,3.58,3.49,3.17,6.39,6.93,9.64,10.35a38.74,38.74,0,0,1,3.81,3.77,28.5,28.5,0,0,1,3,3.23l-1.17.24a16.14,16.14,0,0,1,2.36.64,9.55,9.55,0,0,0,1.39,1.38,57.51,57.51,0,0,1,4.86,4.12,18.92,18.92,0,0,0,.59,2.08l.31-.93c.76.5,1.48,1.06,2.26,1.55,0,.24,0,.73.05,1h1l0,.34-.79,0c.13.48.27,1,.44,1.43l.8-.84a4.43,4.43,0,0,1,2,1.08,65.29,65.29,0,0,1,6,5,7,7,0,0,1,1.38.73,80.9,80.9,0,0,0,7.93,5.84c.83,1.22,2.38,1.51,3.5,2.38,3.24,2.46,6.94,4.24,10.24,6.63,2,1.1,4,2.11,5.91,3.38,2.77,1.16,5.18,3.07,8,4.11l.89.78c1.65.34,3,1.36,4.63,2a3,3,0,0,0,.41,2h1.38l.47-.78a3.43,3.43,0,0,1,1.75,1c.63.14,1.26.32,1.88.52.13.33.28.66.43,1l-.36.76c.53-.09,1.11-.15,1.19-.79a37.17,37.17,0,0,1,5.66,2.14c.67.24,1.06,1.08,1.77,1.17,1.62-.35,2.83,1.12,4.39,1.32.28.27.56.55.84.85l.93.11a1.81,1.81,0,0,0,.37,2H418c0-.27,0-.81,0-1.08,2.76,0,5.21,1.37,7.89,1.79a5.3,5.3,0,0,1,2.88,1.21c5.74,1.27,11.26,3.34,17.07,4.34.1.15.32.45.43.6l2.34.06c.11.16.31.48.41.64,1,.06,2-.08,3,0l.47.7,1.29-.31c3.93.59,7.74,2,11.74,2.06l-.35.61c2.27-.5,4.54.09,6.82.15a61.9,61.9,0,0,0,10.25,1.09c3.26.25,6.54.4,9.81.34a29.18,29.18,0,0,0,6.2.18c3.32-.3,6.67.56,10,0,2.39-.37,4.81-.12,7.22-.38,2.12,0,4.22-.78,6.35-.43,5.73.31,11.25-1.91,17-1.7,3.34-1.44,7-1.32,10.5-2.26,1.25-.31,2.52-.6,3.76-1,1.6.42,3.1-.65,4.65-1,4.93-1,9.58-3.14,14.61-3.68l.45-.58,1.2-.18a35.81,35.81,0,0,1,6.6-2l.51-.46c1.67-.44,3.22-1.26,4.9-1.67,2-.15,3.41-1.88,5.38-2.2a5.91,5.91,0,0,0,4.27-1.94c1.51-.29,2.79-1.18,4.22-1.68l.51-.49.84-.21c1.44-1,3.3-1.15,4.7-2.18a5.56,5.56,0,0,1,1.88-.91l.5-.5,1.23-.16c1-1.14,2.56-1.63,3.9-2.31a17.92,17.92,0,0,1,4-1.91,7.74,7.74,0,0,1,4.18-2.36c1.34-1.58,3.62-1.74,5-3.21l.83-.22a39.33,39.33,0,0,1,4.14-3.08c1.33-.88,2.55-2,4.12-2.47a14.57,14.57,0,0,0,2-1.76,15.58,15.58,0,0,1,3.8-2.38,9.85,9.85,0,0,1,2.61-2.24c3.66-3,7.67-5.62,11.17-8.82.33-.23.68-.45,1-.67a6,6,0,0,1,1.19-1.23c2.15-1.75,3.95-4,6.46-5.29l.16-.83c1.82-1.13,3.12-2.87,4.68-4.3,3.11-2.86,5.88-6.07,8.89-9a27.91,27.91,0,0,1,4.68-5.32c1.94-2.42,3.85-4.87,5.87-7.23,2-1.82,3.17-4.37,5-6.4,2.24-2.75,4-5.84,6.17-8.65,1.06-1.69,2.27-3.28,3.28-5,2.24-3.84,5.08-7.34,6.8-11.47a6.48,6.48,0,0,1,2.43-2.73c.28-1.09.66-2.16.9-3.26a34.21,34.21,0,0,0,3.79-7.24c.27-.17.55-.34.84-.5a12.85,12.85,0,0,1,2.67-6.29,5.7,5.7,0,0,1,1-2.41c1.31-4.7,3.54-9.08,5.4-13.58.26-.94.45-1.85.7-2.78,2.7-7.8,5.41-15.65,6.88-23.79l.56-.45a19.93,19.93,0,0,1,.39-3.09c1.06-4.67,1.85-9.4,2.76-14.09.64-5.59,1.58-11.14,1.93-16.75.25-1.59.16-3.23.34-4.82.69-5.52.35-11.09.65-16.62-.47-2.81.41-5.61-.06-8.41.06-5.53-1.3-10.94-1.17-16.46,0-1.87-.64-3.66-.68-5.52-.15-2.87-1.08-5.63-1.16-8.51-1.76-8.84-3.18-17.79-6-26.38a115.55,115.55,0,0,0-3.66-12.2,60.19,60.19,0,0,0-3.07-8.66c-1.21-3.7-2.89-7.22-4.36-10.83-.47-1.24-1.31-2.32-1.56-3.64-.66-1.08-1.17-2.25-1.74-3.38-2.82-6.6-6.72-12.64-10-19-2.67-3.7-4.65-7.87-7.46-11.48a290.91,290.91,0,0,0-21.18-27.41c-1.92-2.1-3.95-4.11-5.86-6.21-1.31-1.68-3.14-2.83-4.55-4.41-2.82-2.94-6-5.49-8.88-8.36-2.19-1.58-4.08-3.52-6.19-5.18a35,35,0,0,0-4.22-3.37c-9-7.44-18.92-13.64-28.83-19.76l-.81-.25c-2.89-2.06-6.32-3.19-9.21-5.25a6.23,6.23,0,0,0-2.49-1c-7.42-3.81-15.17-7-22.87-10.17-4.44-1.28-8.63-3.31-13.11-4.48a235.43,235.43,0,0,0-33.23-7.81c-6-1.28-12.19-1.22-18.17-2.49q-3.36,0-6.71-.23c-2.16-.35-4.37-.11-6.53-.35a98.93,98.93,0,0,0-11.16-.09c-4.31.54-8.68.07-13,.43m-167.27,5.1c-.64.17-.41,1.19.25,1s.21-1.06-.25-1m342,9.65h0M618,276.24c-.23.69-.63,1.53.26,1.9.37-.67.49-1.46-.26-1.9m-324,6.68c-.18.56,0,.76.58.58.17-.57,0-.76-.58-.58m403.66,6.55c-.18.56,0,.75.58.58.17-.57,0-.76-.58-.58m-400.53,9h0m-2.1.74-.15.54c.38.85.94-.73.15-.54m-17.58,2.33c-.18.57,0,.76.58.58.18-.56,0-.76-.58-.58m403,3.83c-.53,1.06,1.11.07,0,0M730,309.84c-.53,1.06,1.11.07,0,0m6,9.41c-.05.31-.13.93-.18,1.24l1.24-.17a5.38,5.38,0,0,0-1.06-1.07m-453.68.52c-.65.19-.35,1.13.28,1s.39-1.32-.28-1m456.31,1.35c0,.25,0,.75,0,1l1,.35c.08-.14.23-.41.3-.55-.46-.25-.9-.52-1.33-.8m1,3.16a10,10,0,0,0,.43,1.1,4.84,4.84,0,0,0,1.06-1.48,2.35,2.35,0,0,0-1.49.38M256.76,326c-.44.34,0,1.29.54.88s0-1.29-.54-.88m-4.47,6.5c-.65.18-.34,1.12.28,1s.39-1.32-.28-1M727.68,340c.49.14.66,0,.53-.53-.47-.11-.65.07-.53.53m24.47,1.47c-.12.46.06.64.53.53.14-.5,0-.68-.53-.53m-56.91.38h0m-434.68.35c-.41.5.49.9.77.43.45-.5-.49-.85-.77-.43m441.15,7.93a7.2,7.2,0,0,0,.67,2.34l1.41,0c.21-.34.45-.67.64-1-.32-.61-.71-1.18-1-1.77-.59.07-1.26,0-1.67.47m-396,4.83c-.53,1.05,1.11.06,0,0m-18.56.29c.06,1.11,1.05-.53,0,0m-50.38,2.46c-.53,1.06,1.11.07,0,0m526.37,1c-.52,1.06,1.11.07,0,0m3.79,8.27c-.52,1.06,1.11.07,0,0m-503.22.69c-.42.5.48.9.76.42.45-.49-.49-.84-.76-.42m442.53,2.7a6.9,6.9,0,0,0-.34,1.61,2,2,0,0,0,2.75,0,12.44,12.44,0,0,0-.71-2.08c-.58.12-1.14.28-1.7.43m-457.47,3.36a10.69,10.69,0,0,0,.42,1.57,2,2,0,0,0,.67-1.12,7.83,7.83,0,0,0-1.09-.45m3.9.14h0m521.16,6.9c-.53,1.06,1.11.07,0,0M768,385c-.63.18-.27,1.07.3,1s.24-1.14-.3-1m8.27,4.81c-.18.56,0,.75.58.58.17-.57,0-.76-.58-.58m0,4.51h0m-12.83,32.88v.61a10.29,10.29,0,0,0,1.36,0v-.61a7.72,7.72,0,0,0-1.36,0M206.1,444.75c0,.51-.09,1-.12,1.55l1.16-.1a1.54,1.54,0,0,0-1-1.45m20.7.48c-.56.39-.42,1.1-.49,1.69a18.73,18.73,0,0,0,2.08.43,4.06,4.06,0,0,0,.72-1.38,3.08,3.08,0,0,0-2.31-.74m12.74,2.47c-.37.34-.91.69-.77,1.29,0,1,1.76,1,1.71,0,.13-.6-.16-1.6-.94-1.27m6.54,9c-.41.5.49.89.77.42.45-.49-.49-.85-.77-.42m-7.58,5.85h0m-10.39,6.56c-.53,1,1.11.06,0,0M254,473.55c-.76.29-.17,1-.08,1.58.49.12,1,.26,1.45.42.59-1-.19-2.38-1.37-2m518.43,2.85c-.25.47.37,1.2.87,1.08.23-.48-.39-1.21-.87-1.08m-570.87,3.09c-.3.42-.23.67.23.76.29-.43.22-.69-.23-.76m46.9,9.24c.06.66.22,1.3.3,2,.41.27.82.54,1.26.79.15-1,.32-2.08.39-3.09-.51-.83-1.56-.35-1.95.33m-34,54h1.58a5.07,5.07,0,0,0-.5-1.35c-.81-.14-.79.84-1.08,1.35m27.7,2.88c-.52,1.06,1.11.07,0,0m1.12,2.37c-.12.46.06.64.53.53.14-.5,0-.67-.53-.53M223,565.14c-.15.37-.3.74-.47,1.11l1.87-.11a1.37,1.37,0,0,0-1.4-1m-4.64,4.22a9.34,9.34,0,0,0,1,.27.77.77,0,0,0,0-1.31c-.69-.18-.77.61-1,1m49.39,9c-.52,1.06,1.11.07,0,0M233,579c-.17.56,0,.75.58.58.18-.57,0-.76-.58-.58m33.39.63q0,.69,0,1.38h1v-1.38h-1m-44.82,4.48h1v-1.37h-1ZM266.39,588c-.18.56,0,.75.58.58.18-.57,0-.76-.58-.58m-49.08,1.27c.13.21.38.62.52.82a4.19,4.19,0,0,0,1-1.08,11.52,11.52,0,0,0-1.54.26m53.77,5.08a.92.92,0,0,0,0-1.09c-.8-.31-.8,1.39,0,1.09m-1.66,14.93a13.54,13.54,0,0,0,.35,1.5c.43-.3,1.11-.43,1.08-1.08a3,3,0,0,0-1.43-.42m2.18,5.62a8.5,8.5,0,0,0-.83,1,5.71,5.71,0,0,0,1.91-.39c-.34-.21-.63-.81-1.08-.58m1,3.78c-.18.56,0,.75.58.58.17-.57,0-.76-.58-.58m464.3,8.65c-.52,1,1.11.06,0,0m-443.14,3.91c-.29.16-.58.33-.86.51,0,.44,0,.89,0,1.35h.68l0-1a1.89,1.89,0,0,0,2.69-2c-.93-1.2-2,.33-2.53,1.15m4.37,8.84h0m7.59,3.74c.07,1.11,1.06-.52,0,0m1.72,2.81c-.41.5.49.9.77.43.45-.5-.49-.85-.77-.43m-56.54,1c-.41.53.53,1,.88.53s-.54-1-.88-.53m500.5,0c-.18.55,0,.74.58.58.17-.58,0-.77-.58-.58M247.86,659.35c-.28.4.45.82.71.42.41-.44-.43-.79-.71-.42m2,3.82c-.53,1.05,1.11.07,0,0m9.3.69c-.52,1,1.12.06,0,0M294.34,669h0m16.46,8.48a5.47,5.47,0,0,0,.39,1.91c.2-.34.8-.63.58-1.08a8.36,8.36,0,0,0-1-.83m357.14,3.23a10.84,10.84,0,0,0,1-.5,4.34,4.34,0,0,0-.37-1.78c-.84.48-.66,1.46-.66,2.28M336,679.51c.47.11.64-.07.53-.52-.5-.16-.67,0-.53.52m1.76-.49h0M711,689.28h1v-1h-1Zm-356.7,3.53h0m333.28,2.27c.56.38,1.44,1.14,2,.36-.08-.47-.22-.92-.33-1.36-.67,0-2,0-1.68,1m-352.08-.61c.15.49.31,1,.51,1.47a12.4,12.4,0,0,0,1.11-1.4c-.54,0-1.08-.06-1.62-.07m19.79,1.1c-.53,1.06,1.11.07,0,0m300.9,1c-.19.8.78,1.08,1.3,1.47l0-1.69c-.07-.91-1.33-.52-1.27.22m-377,2.72c-.61.36-.46,1.1-.54,1.71.66.27,1.3.8,2.06.67a11.28,11.28,0,0,0,1.5-.68c-.09-.59.05-1.29-.5-1.68a14.14,14.14,0,0,0-2.52,0M294,703q-.08.91-.12,1.86l.81-.08A2.64,2.64,0,0,0,294,703m37.39,10.13c.15.54.23,1.64,1.06,1.32a10.39,10.39,0,0,0,1.09-2.09,8.77,8.77,0,0,0-2.15.77m54,0c-.12.46.06.63.53.53.14-.5,0-.68-.53-.53m251.31,1.46c-1.09.29,0,1.32.47,1.71.64.63,1.08-.41,1.45-.83-.15-.33-.28-.66-.41-1l-1.51.11M301.41,718a13.39,13.39,0,0,0,1,1.12c0-.55.07-1.08.1-1.61-.38.15-.75.32-1.12.49m10.14,1.54c0,.54,0,1.08,0,1.63.32-.17.64-.36.95-.55.24-.67-.53-.81-.95-1.08m388.13,2.28c-.53,1.06,1.11.07,0,0m-306.77,3.06c-.66.37-.25,1.13-.15,1.7.38-.16.77-.32,1.17-.46-.28-.48-.24-1.48-1-1.24m13.17.69c-.29.45.49.91.82.55.37-.51-.49-.94-.82-.55m181.26.38c-.44.33,0,1.28.54.88s0-1.3-.54-.88m105.47,2.18c.52.12.94-1.13.28-1.22-.52.1-.56.86-.28,1.22m-270.52.9c-.28.4.45.82.7.43.41-.45-.43-.8-.7-.43m149.24,3.35c.48.13.66-.05.52-.53-.47-.12-.64.05-.52.53M409,733.72l.28.62a3.53,3.53,0,0,0-.58,1.42,1.07,1.07,0,0,0,1.69,0,6.79,6.79,0,0,0-.34-1.61l1.16-.14a1.69,1.69,0,0,0-2.21-.27m20.1.11h0m-4.18,1.38c-.52,1.06,1.11.07,0,0m164.82,3.11c-.41.49.49.89.77.42.45-.5-.49-.85-.77-.42m66.16,0c-.19.55,0,.74.58.58.17-.58,0-.77-.58-.58m-300.56,2.09c-.42.27-.07,1.22.42.77.48-.28.08-1.18-.42-.77m229.57.51a14.18,14.18,0,0,0-.51,2.14h1.19c-.08-.76,0-1.63-.68-2.14m-228,3.65a3.78,3.78,0,0,0,2.43,1.36c-.08-.53-.23-1.61-.3-2.14-.72.23-1.42.51-2.13.78m279.32.64c-.18.56,0,.75.58.58.17-.57,0-.77-.58-.58m32.43,1.06h0M536.61,749c.32-.27.65-.54,1-.82a12.09,12.09,0,0,0-.34-1.38c-.8.46-.61,1.41-.62,2.2m105.52-1c-.57.13-.32,1,.23.86a.45.45,0,0,0-.23-.86m-204.39,1.37h0m32.44,2.53c0,.31-.13.93-.17,1.24l1.24-.18a4.89,4.89,0,0,0-1.07-1.06m170.26,1.22c.06,1.11,1-.53,0,0m-160.31,1.13c-.29.34-.26,1.14.28,1.24.71-.1.39-1.51-.28-1.24m-70,.58c-.65.18-.35,1.13.27,1s.4-1.33-.27-1m161,5.58h0m-209,.26q0,.68,0,1.38h.69q0-.71,0-1.38h-.69m132.76.75-.32.35c.3,1,1.52-.42.32-.35m44.82,4.13c-.18.55,0,.75.58.58.17-.57,0-.77-.58-.58M366,766.59c-.37.49.49.92.83.55s-.5-.93-.83-.55m36.76,1.92c0,.31.13.93.17,1.24a5.38,5.38,0,0,0,1.07-1.06l-1.24-.18M375,770.32c.07,1.11,1.06-.53,0,0m198.2.74h0m-150.72,1.56c-.21.83.25,1.33,1,1.54a1.19,1.19,0,0,0-1-1.54m195.17,0c0,.67.05,2,.06,2.68,1.16-.41,1.22-2.4-.06-2.68m-93.84,3.9c-.11.84.08,1.6,1,1.85,0-.29.05-.86.06-1.15-.35-.24-.69-.48-1-.7m-99.92,2.42c.17.46.24,1.22.93,1,.76-.51.31-1.48.06-2.14-.32.37-.92.61-1,1.14m35.06.55c.28-.36.25-1.15-.28-1.24-.72.09-.4,1.5.28,1.24m-20.27.14V781h1q0-.71,0-1.38h-1M414,780.87a.48.48,0,1,0,.68-.66c-.4-.71-1.22.19-.68.66m143.38,5A.78.78,0,0,0,557,787c.68.28,1.32-1.22.35-1.13M497.7,789c-.57.13-.32,1,.23.86a.45.45,0,0,0-.23-.86m-60,2.55c.46.11.64-.07.53-.52-.5-.15-.67,0-.53.52m43,4.51c.25.23.5.48.75.73.32-.13.65-.25,1-.36a12.12,12.12,0,0,0-.75-1.27c-.61-.13-.73.51-1,.9m46.62.51a.45.45,0,0,0,0,.89c.47,0,.47-.91,0-.89"></path><path class="cls-3" d="M489.52,320.61c2.69-.15,5.38-.43,8.08-.53l.43.71,1.23-.1c.34-.24.7-.47,1.07-.68-.23.47-.46.94-.67,1.42.69-.13,1.38-.27,2.08-.36l0-.62-.69,0,.06-.43c.45.13.9.27,1.36.43-.11.17-.32.52-.42.69l1.46,0c-.13-.34-.25-.69-.38-1a18.68,18.68,0,0,1,3.24.2l5,.21c.42.58.81,1.17,1.21,1.77a10.16,10.16,0,0,0,.7-1.4c1.35-.76,1.72.57,2.36,1.24.61.16,1-.56,1.4-.85,5.13,0,10.15,1.08,15.22,1.76,1.73-.51,1.83,1.2,2.32,2.2.82.29.74-.84,1-1.31a70.53,70.53,0,0,1,9.73,1.89,6.2,6.2,0,0,1,2.73,1,8.2,8.2,0,0,1,4.28,1.27c1.27.77,2.86.4,4.21,1a18.91,18.91,0,0,1,2.83,1.2q-.64.31-1.26.66a7.5,7.5,0,0,0,1.43.68c0-.31.11-.93.15-1.24a35.29,35.29,0,0,1,5.56,1.7c2.8,1.24,5.73,2.2,8.46,3.6a36.56,36.56,0,0,0,4.1,1.79c.27.28.56.56.85.85l1.2.19a27.29,27.29,0,0,0,3.89,2c5,2.79,10.05,5.4,14.65,8.77,2.76,1.85,5.62,3.55,8.31,5.49,1.51,1.41,3.44,2.24,4.91,3.71,1.66,1.57,3.55,2.86,5.24,4.4,2.26,2.14,4.78,3.94,7.05,6.05,1.69,2,3.95,3.41,5.46,5.57,2,1.67,3.54,3.81,5.39,5.65,2.29,3.31,5.69,5.77,7.42,9.47,5,4.77,8.16,10.93,12.08,16.51a60.38,60.38,0,0,0,3.34,5.63q5.19,9.51,9.55,19.42c.9,1.81,1.11,3.94,2.28,5.61.47,2,1.44,3.91,2,5.92.59,2.51,1.8,4.83,2.31,7.38.89,3.56,2,7.07,2.75,10.68.64,3.9,1.64,7.74,2.14,11.67.74,2.58.51,5.31,1,7.94.82,5,.76,10,1.14,15a57.47,57.47,0,0,1,0,10c-.22,2.06-.05,4.15-.33,6.21-.12,4.56-.79,9.06-1.29,13.58-.5,4.05-1.6,8-2.11,12-1,3.42-1.49,7-2.8,10.28-1,2.73-1.28,5.67-2.3,8.39-1.64,4.73-3.6,9.35-5.25,14.07-.11.13-.35.39-.47.51a4.62,4.62,0,0,1-1,2.46c-.07.2-.22.59-.28.79-2.62,5.13-4.7,10.63-8,15.43a17.92,17.92,0,0,1-2.46,4.11c-.05.2-.17.61-.23.81-2.2,2.91-3.92,6.14-6.13,9-1.65,2.14-3,4.56-5,6.41-2.53,4.31-6.33,7.71-9.49,11.53-2.46,2.27-4.62,4.81-6.87,7.27-2.7,2.47-5.32,5-8.09,7.42a18.46,18.46,0,0,1-2.25,1.89c-4.41,3.41-8.65,7-13.28,10.17-4.35,3.1-9.07,5.63-13.58,8.47-2.48,1.85-5.65,2.39-8.08,4.32l-.86.19c-.28.29-.56.57-.83.87a28.18,28.18,0,0,0-3.58,1.27c-.9.86-2.21.92-3.2,1.62a75.85,75.85,0,0,1-9.69,3.76,181.34,181.34,0,0,1-23.38,7c-3.16.68-6.39,1-9.5,1.84-3.83.21-7.57,1.16-11.4,1.37-2.59.09-5.15.44-7.72.73-6.73.17-13.48.28-20.21,0a187.21,187.21,0,0,1-37-5.83c-6.1-2.09-12.34-3.66-18.3-6.15a33.13,33.13,0,0,0-4.81-1.77l-.54-.44c-3.29-1.4-6.52-3-9.8-4.39l-.49-.51-.92-.12c-.28-.3-.55-.59-.83-.87a4.65,4.65,0,0,1-1.38-.39c-7-4.22-14.2-8.12-20.81-12.95-3.56-3-7.61-5.42-10.93-8.71-1.14-1.06-2.62-1.75-3.52-3a71.78,71.78,0,0,1-5.73-5.29c-3.69-4-8-7.44-11.15-11.94a17.64,17.64,0,0,1-2.08-2.4c-1.51-1.39-2.48-3.25-3.9-4.72s-2.5-3.47-3.85-5.12c-3.42-4.39-6.08-9.3-9.16-13.92-1.95-3.58-4.14-7-5.82-10.75a34.82,34.82,0,0,1-3.11-6.91,39.39,39.39,0,0,1-2.49-5.4c-1.31-3.54-3-6.94-3.87-10.61a161.77,161.77,0,0,1-8.45-38.74c-.28-4.78-1.17-9.52-.89-14.32.2-4-.36-8.09.22-12.08a5.64,5.64,0,0,1-.11-1.58c.8-10.05,1.68-20.17,4.18-30a160.29,160.29,0,0,1,7.37-24.72,35.13,35.13,0,0,0,2.6-6.72l.44-.54a99.08,99.08,0,0,1,4.55-9.25c1.68-3.92,4.13-7.43,6.1-11.18.95-1.24,1.33-3,2.81-3.74,0,.22.1.65.13.86l.7-.05c0-.23-.1-.68-.13-.91a5.46,5.46,0,0,1-.57-.79,91.11,91.11,0,0,1,7-10.17c3.37-5,7.52-9.48,11.4-14.12,2.17-2.07,4-4.52,6.36-6.39,1.45-1.08,2.31-2.76,3.78-3.81,1.54-1.23,2.92-2.75,4.76-3.54l.18-1.15a15.86,15.86,0,0,0,2.63-1.83l.46.76a2.82,2.82,0,0,0,1.27-.51c0-.53-.18-1.05-.23-1.57a171.73,171.73,0,0,1,19.66-14.11c1.53-1.06,3.41-1.5,4.86-2.72,2.45-1.81,5.31-2.93,7.91-4.47l.79-.28a5.8,5.8,0,0,1,2.67-1.14,63.75,63.75,0,0,1,9.24-4.24l1,.63c.33-.13.65-.24,1-.35l-.36-1a15.4,15.4,0,0,1,1.66-.39l.48-.53c3.83-1.08,7.44-2.8,11.25-3.94-.1.36-.21.72-.3,1.09l.55-.06c.2-.5.7-.6,1.16-.73l-.33-.55c3-1.28,6.24-1.54,9.32-2.44a86.88,86.88,0,0,1,13.81-3,5.13,5.13,0,0,0,1,.1,52.07,52.07,0,0,1,7.66-1.26c-.25.34-.5.67-.73,1l1.4,0c0-.25,0-.76,0-1,2.8-.31,5.59-.63,8.4-.89m.86.4v.58a4,4,0,0,0,1.76,0V321a3.74,3.74,0,0,0-1.76,0m2.91.17c.08.45.33.53.77.24-.09-.46-.34-.54-.77-.24m13.12.37c-.05.5.82.46,1.07.19,0-.5-.83-.46-1.07-.19m-22.42.32c.07.45.33.53.76.24-.09-.46-.34-.54-.76-.24m33.77,0c-.28.44.49.91.83.54s-.49-.93-.83-.54m3.47.72c-.05.49.82.45,1.08.18,0-.5-.83-.46-1.08-.18m-47.58.37c.2.47,1.57.47,1.79,0a2.08,2.08,0,0,0-1.79,0m47.75,1.2c-.82,1.29.85,1.93,1.7,2.54,0,.24,0,.73.06,1a14.34,14.34,0,0,0,1.33.76l-.49-.89a4.94,4.94,0,0,0-2.6-3.38m-76.25,5.69a13.17,13.17,0,0,0,1.74.7c0-.21.08-.64.1-.85-.62.05-1.23.09-1.84.15m24.31,2c.07,1.11,1.05-.53,0,0m-36.92,3.38a6.94,6.94,0,0,0-.45,1.09,11,11,0,0,0,1.57-.42,2,2,0,0,0-1.12-.67m87.28,3.22c-.44.43.31,1.24.74.74.58-.48-.27-1.25-.74-.74m-96.21.29c.07,1.12,1.06-.52,0,0M578,338.63c.24.61.5,1.22.74,1.85.54-.1,1.54-.22,1.26-1a4.29,4.29,0,0,0-2-.84m14.86,7.75h0m.66,2.86c.4.17.72-.54.49-.83-.48-.28-.84.52-.49.83m-52.36,4c.06,1.11,1.05-.52,0,0m-66,.7c.11.45.24.91.38,1.36H476c.13-.45.26-.91.38-1.36h-1.18m137,6.59c-.53,1.06,1.11.07,0,0M581.79,363c-.14.5,0,.67.53.53.11-.47-.07-.64-.53-.53m-192.36,1.7c-.52,1.06,1.12.07,0,0M471,367.3a1.33,1.33,0,0,0,.25,1.53l.57,1.53,1.31.43c.37-1.29-.57-2.07-1.13-3l-1-.48m2.92,4.46c-.14.35-.27.7-.41,1.06a19.9,19.9,0,0,0,2.59,2.92l.17.85.66,0c0-.24,0-.74,0-1l-.51-.48a10.51,10.51,0,0,0-.59-1.16,2,2,0,0,0-1.86-2.23m59.28.07c.07,1.12,1.06-.52,0,0M494,379.56a73.81,73.81,0,0,0-10.6,1.09,122.8,122.8,0,0,0-30.09,8.21,6.57,6.57,0,0,1-2.42,1c-2.22,1.26-4.64,2.13-6.8,3.49l-.8.26a28.53,28.53,0,0,1-4.81,2.79c-2.31,1.73-5,3-7.15,4.89a108.22,108.22,0,0,0-15.91,13.38,9.3,9.3,0,0,0-1.86,1.95c-2.69,3-5.56,5.78-7.75,9.14-4.67,5.54-8.26,11.85-11.88,18.1a26.69,26.69,0,0,0-2,4.28A149.91,149.91,0,0,0,385.45,465a120.59,120.59,0,0,0-4.81,42c.12,1.43.58,2.88.26,4.31,1.4,7.63,1.73,15.55,4.62,22.83,1.25,5.66,3.92,10.85,5.78,16.3a8.85,8.85,0,0,1,1.51,2.64c.74,1.66,1.72,3.21,2.3,5,.52.63.94,1.33,1.43,2,0,.21.16.62.21.83,2.45,2.86,3.75,6.46,6.18,9.33,1.55,1.69,2.71,3.69,4.21,5.43.83,1.53,2.21,2.61,3.26,4,1.57,2.08,3.64,3.71,5.38,5.65,1.63,1.47,3.26,2.94,4.83,4.47a68.56,68.56,0,0,0,9.72,7.87c2.06,1.36,3.91,3.05,6.1,4.23s4.47,2.67,6.72,4q4.34,2.26,8.78,4.28c1.52.28,2.68,1.45,4.2,1.75,1.62.82,3.43,1.27,5,2.15s3.68.19,4.88,1.68c3.15.49,6.11,1.8,9.29,2.12a90.82,90.82,0,0,0,17,2.32c4.71.24,9.43.78,14.15.33,4.55-.45,9.17-.53,13.67-1.46,5-1,10.13-1.6,15-3.31a31.42,31.42,0,0,1,3.51-.63c.13-.13.37-.41.49-.55,1.59-.73,3.48-.61,5-1.56a3.91,3.91,0,0,0,2.31-1.14c1.3-.4,2.57-.93,3.87-1.33,1.41-1,3.11-1.42,4.58-2.3a20.44,20.44,0,0,1,3.34-1.83c.86-.37,1.86-.56,2.4-1.39a41.61,41.61,0,0,0,6.74-3.93c.77-.63,1.78-.35,2.74-.48-.12-.41-.24-.81-.35-1.2a13.47,13.47,0,0,0,1.82-1.36l.85-.19c1.74-1.6,3.8-2.86,5.43-4.57.45-.35.9-.7,1.37-1,.9-1.06,2.2-1.69,3.12-2.74a11.3,11.3,0,0,0,2.54-2.29c4.71-5,9.67-9.76,13.48-15.48a90.55,90.55,0,0,0,8.09-12.6c1.23-2.22,2.78-4.26,3.68-6.66.72-1.4,1.12-2.94,1.86-4.32.52-1.16,1.33-2.22,1.29-3.57l.51-.5c.15-.64.34-1.28.51-1.92l.49-.5c1.21-4.3,2.75-8.52,3.67-12.9,1.42-6.93,3-13.89,3.17-21a41,41,0,0,1,.77-6c-1.08-2.83-.42-5.92-.77-8.85-.1-5.93-1.46-11.72-2.06-17.6-.41-1.23-.83-2.42-1.12-3.66-1.25-6.34-3.77-12.31-5.73-18.45l-.46-.51c-.17-1.45-1.14-2.61-1.59-4-.7-2-2.14-3.69-3-5.66-1.48-2.43-2.61-5.1-4.41-7.29-.05-.22-.13-.66-.17-.87-.31-.28-.61-.56-.91-.82,0-.21-.16-.62-.21-.82a24.35,24.35,0,0,1-2.4-3.47c-1.91-2.55-3.83-5.11-6-7.46-.06-.2-.16-.6-.21-.8-1.69-1.16-2.75-3-4.18-4.46-1.72-1.25-3-3-4.44-4.53a36.51,36.51,0,0,1-3.85-3.38c-2.72-2.37-5.68-4.42-8.46-6.71-4.17-2.75-8.16-5.82-12.68-8a117,117,0,0,0-19-8.53c-4.9-2-10.16-2.92-15.22-4.4a37.85,37.85,0,0,1-4-.49c-3.31-.94-6.78-.91-10.14-1.54-5.77-.16-11.56-.31-17.32,0m51.6,3.68c-.08.08-.24.26-.31.35.3,1,1.52-.42.31-.35m44.4,11c-.23.43-.63.81-.64,1.32a7.34,7.34,0,0,0,1.3.43,3.26,3.26,0,0,0,.47-1.71l-1.13,0M425,396c-.44.34,0,1.28.54.88s0-1.29-.54-.88m-72.75,6.87c-.18.56,0,.75.57.58.18-.57,0-.76-.57-.58m-.66,3.08c.07,1.12,1.06-.52,0,0M639.05,419.7c-.22.25-.44.5-.65.76q0,1.14,0,2.31c.21.24.43.5.64.76a15.65,15.65,0,0,0,2-.4,19.38,19.38,0,0,0,0-3.05,12.47,12.47,0,0,0-2-.38m-261.51,7.9a6,6,0,0,0,1.91.4,8.76,8.76,0,0,0-.83-1c-.45-.23-.75.38-1.08.58m-36.35,6.31-.32.36c.3,1,1.52-.43.32-.36M661.76,435c-.53,1,1.11.07,0,0m-17.4,6.41H646c-.17-.33-.35-.65-.54-.95-.68-.25-.82.52-1.09.95M369.12,453.21l-.7.68v1.05c.54-.27,1.07-.56,1.62-.82,0-.24,0-.73.06-1l-1,.06M623.89,467h0m-1,13.06c.06,1.1,1-.53,0,0M664.54,486c-.19.55,0,.75.57.58.17-.57,0-.77-.57-.58m-310.27,3.13c-.52,1.05,1.12.06,0,0m3,7.45q.06.78.15,1.56a3.4,3.4,0,0,0,1-1.43l-1.19-.13M372.9,524c-.39.33,0,1.19.55.83s-.1-1.12-.55-.83m252.29,2.59c.1.46.23.93.35,1.41l1.11,0a1.24,1.24,0,0,0-1.46-1.37m-290.2.8c-.63.18-.27,1.06.3,1s.24-1.13-.3-1M675.27,538.5c0,.53-.08,1.07-.1,1.61l1.12-.5a13.56,13.56,0,0,0-1-1.11M367.61,554.36c.28-.35.25-1.15-.28-1.23-.72.08-.39,1.5.28,1.23M375,564.55c-.18.56,0,.75.58.58.17-.57,0-.76-.58-.58m12.42,6.14c-.11.46-.23.93-.36,1.39a14.85,14.85,0,0,0,1.33,1c.86-.35,2.13-1,1.43-2.07l-.95.34c-.05-.83-.88-.63-1.45-.7m-10.34,5.51a2.32,2.32,0,0,0-.45,1.43,2.5,2.5,0,0,0,1.43-.45.85.85,0,0,0-1-1m32.79,4.2c-.11.46.06.63.53.52.14-.5,0-.67-.53-.52m-40.71,9h0m7.05.59a3.5,3.5,0,0,0,0,1.76h.57a3.74,3.74,0,0,0,0-1.76h-.57m-6.43.62c-.15.89,0,1.73,1,1.89.15-.9,0-1.73-1-1.89m256,3.93A1.3,1.3,0,0,0,627.2,596c0-.5,0-1,.08-1.49-.5,0-1,0-1.49.08m17.93,2.33a6.81,6.81,0,0,0,2.45.81l-1-2.27a1.32,1.32,0,0,0-1.41,1.46m-51.2,8c.07,1.11,1.06-.53,0,0m6.16,3.68v1.19l1.37-.39v-.41c-.46-.15-.92-.28-1.37-.39m-222,6.68c-.18.56,0,.75.58.58.17-.57,0-.76-.58-.58m201.35,5.84c-.6.14-.41,1.09.2.93s.47-1.22-.2-.93m-45.9.4c-.53,1,1.11.06,0,0m-16.5,9.94c.07,1.11,1.06-.52,0,0m-56.88,13.84h0M577.34,647c-.37.49.48.92.83.54s-.5-.92-.83-.54m-96.94,1a2.24,2.24,0,0,0,.31,2l1.48,0a3.91,3.91,0,0,0-.73-2.4l-1.06.46m-11.66,6.17c-.18.55,0,.74.58.57.17-.57,0-.76-.58-.57m3.62,1a3.74,3.74,0,0,0,0,1.76h.57a3.74,3.74,0,0,0,0-1.76h-.57m17.3,1.07a3.48,3.48,0,0,0,.58,1.44c.17-.4.36-.79.54-1.16-.38-.11-.75-.2-1.12-.28m-19.17,2.26c-.05.51-.09,1-.12,1.55l1.16-.1a1.53,1.53,0,0,0-1-1.45m-36.16,1.47c.49.13.66-.05.53-.53-.47-.12-.65.05-.53.53m75.42,9.82c-.39.33,0,1.19.55.83s-.1-1.11-.55-.83"></path></g></g></g></svg>